<svg width="852" height="621" viewBox="0 0 852 621" fill="none" xmlns="http://www.w3.org/2000/svg">
<path d="M99.8248 201.296C101.142 198.421 102.317 195.429 103.44 193.301C109.086 182.599 115.31 172.007 122.105 161.532C125.986 155.549 130.639 148.734 136.058 141.082C149.129 122.645 164.465 105.206 182.059 88.7735C183.376 87.5469 184.7 86.3852 186.044 85.3014C187.861 83.8217 189.126 82.329 191.255 80.5703C198.991 74.1777 204.144 69.9917 206.708 68.0057C224.399 54.2925 241.974 42.8767 259.432 33.7518C277.383 24.3738 297.781 16.4561 320.632 9.99213C321.904 9.63518 324.877 8.92778 329.543 7.87641C338.174 5.93591 347.734 3.65145 354.386 3.28802C357.54 3.11928 360.5 2.90511 363.271 2.63902C363.518 2.61306 363.732 2.47677 363.849 2.26261L364.011 1.96407C364.141 1.73692 364.4 1.62659 364.653 1.69149C367.21 2.38591 369.456 2.24963 371.39 1.28911C371.682 1.14634 372 1.05548 372.325 1.03601C374.317 0.886738 376.121 0.873758 377.75 1.00356C379.451 1.14634 380.956 0.542771 382.339 0.412972C385.246 0.133905 388.011 0.159865 390.639 0.490852C391.009 0.536281 391.386 0.549261 391.762 0.529791C394.631 0.367543 398.648 -0.184102 402.165 0.0625155C405.287 0.276684 409.181 0.348073 413.847 0.276684C418.903 0.205294 423.712 1.0425 429.079 1.17879C429.456 1.18528 429.838 1.24368 430.202 1.34752C433.362 2.22367 436.698 2.51571 440.209 2.21069C440.631 2.17824 441.06 2.19771 441.475 2.2691C441.598 2.28857 450.262 3.82668 467.474 6.87047C471.77 7.62979 478.286 9.29121 487.015 11.8547C500.572 15.8266 514.526 21.1938 528.875 27.9563C573.136 48.802 611.726 77.6887 644.636 114.616C655.059 126.305 663.593 136.598 670.245 145.496C676.768 154.212 684.497 165.128 693.44 178.244C700.56 188.686 709.315 202.704 719.692 220.292C729.181 236.368 735.443 247.018 738.481 252.242C750.643 273.179 765.965 297.879 777.141 315.993C777.732 316.94 780.14 318.225 781.587 318.842C796.066 325.014 808.423 332.627 818.657 341.68C821.312 344.029 824.206 346.943 827.328 350.429C839.523 364.044 847.33 381.21 850.198 399.123C850.809 402.932 850.873 407.839 851.282 411.875C851.412 413.154 851.419 414.861 851.295 417.002C850.737 427.224 849.29 436.316 846.96 444.267C846.155 447.012 844.598 450.964 842.287 456.13C841.651 457.565 841.45 458.681 841.054 459.855C840.937 460.212 840.788 460.55 840.6 460.881C839.075 463.6 837.595 466.086 836.148 468.331C826.932 482.694 813.55 494.583 797.747 500.729C786.837 504.974 775.116 506.414 762.597 505.045C760.78 504.85 760.183 505.772 758.866 507.213C728.72 540.194 690.533 565.278 649.458 582.807C634.492 589.2 620.098 594.639 606.268 599.13C587.323 605.276 568.1 610.085 548.598 613.544C475.047 626.589 403.126 620.715 332.846 595.924C326.661 593.743 315.466 589.317 299.261 582.652C284.691 576.661 267.804 570.619 248.6 564.538C231.642 559.165 214.677 554.648 197.706 550.994C175.037 546.113 151.933 543.511 129.185 539.202C109.696 535.502 90.5897 528.934 73.7872 519.719C60.9306 512.664 49.6122 503.52 39.8318 492.292C35.1785 486.951 31.1353 480.39 27.6891 472.615C22.8736 461.744 19.8558 450.341 18.6357 438.419C18.2917 435.051 18.0191 431.254 17.8179 427.036C17.6687 424.005 17.7336 421.013 17.9996 418.06C18.2917 414.88 18.4929 410.48 19.1613 406.106C21.3225 391.977 25.7746 378.277 31.5247 365.096C31.6545 364.797 31.5247 364.44 31.2326 364.298C19.5962 358.632 11.0814 349.832 5.69472 337.897C3.81912 333.73 2.2875 328.72 1.11282 322.866C0.158795 318.109 -0.185172 312.891 0.0938956 307.206C1.72287 273.64 18.402 243.091 44.4202 222.083C54.0772 214.283 64.8505 208.63 76.7401 205.125C78.6027 204.574 80.4069 204.132 82.1527 203.801C86.1635 203.048 87.8898 202.51 91.2841 202.198C92.1213 202.114 93.3414 201.9 94.9379 201.543C95.6972 201.368 97.151 201.387 99.2862 201.601C99.5133 201.621 99.734 201.504 99.8248 201.296ZM463.709 603.504C473.321 603.686 481.44 603.692 488.079 603.523C502.26 603.166 517.187 601.849 532.847 599.565C581.074 592.542 626.542 578.011 669.246 555.978C696.465 541.94 721.302 523.717 742.349 502.001C742.478 501.871 742.478 501.664 742.349 501.54C742.349 501.54 742.336 501.527 742.329 501.521C742.05 501.281 741.797 501.17 741.57 501.203C723.677 494.168 707.842 484.355 694.057 471.771C692.298 470.162 687.827 465.417 680.629 457.545C678.494 455.209 677.001 452.652 675.171 450.491C672.796 447.687 670.972 444.215 668.577 441.113C667.831 440.146 666.955 438.796 665.949 437.076C664.125 433.935 662.276 430.774 660.4 427.587C655.87 419.527 652.366 411.006 649.88 402.024C648.952 398.668 648.485 395.826 648.478 393.502C648.472 390.815 649.517 388.525 651.626 386.629C655.37 384.793 658.758 385.208 661.795 387.889C662.685 388.674 663.23 389.42 663.437 390.134C666.222 399.824 669.94 409.299 674.607 418.56C677.118 423.551 679.961 427.477 683.31 432.864C683.933 433.863 686.574 437.361 691.234 443.365C692.24 444.663 693.272 445.857 694.33 446.953C697.01 449.731 699.742 452.996 702.416 455.618C713.183 466.19 725.338 474.646 738.87 480.974C749.974 486.166 761.663 488.651 773.948 488.424C779.99 488.314 785.481 487.308 790.413 485.393C801.621 481.052 810.694 474.159 817.625 464.703C821.811 458.999 825.011 453.508 827.237 448.232C829.515 442.826 831.345 435.869 832.715 427.373C833.649 421.552 833.61 414.342 833.305 409.227C832.397 393.788 827.237 377.563 817.346 365.576C813.355 360.735 809.532 356.75 805.885 353.622C798.331 347.138 789.894 341.732 780.574 337.416C775.512 335.073 768.873 332.497 760.663 329.674C746.178 324.702 732.315 321.114 717.499 320.503C713.78 320.348 708.504 320.549 701.676 321.107C697.536 321.451 695.29 321.075 692.071 318.985C691.247 318.446 691.059 317.914 691.5 317.375C691.63 317.213 691.649 316.986 691.545 316.804L690.708 315.389C690.598 315.208 690.377 315.117 690.169 315.169C689.864 315.247 689.572 315.409 689.3 315.649C689.066 304.973 697.776 303.136 706.226 302.533C721.01 301.41 735.463 303.61 749.682 307.738L751.869 308.393C752.09 308.458 752.317 308.328 752.382 308.108C752.415 307.997 752.402 307.881 752.343 307.783L713.52 241.936C699.08 215.762 683.07 190.594 665.495 166.432C648.984 143.724 631.137 122.976 610.57 103.441C601.608 94.9195 593.06 87.5729 584.935 81.3945C556.886 60.062 525.325 42.3056 492.33 31.396C472.945 24.9904 452.975 20.4864 432.421 17.8969C421.337 16.5015 409.116 15.859 395.766 15.9759C354.302 16.3458 314.96 25.2435 277.74 42.669C223.595 68.0252 176.971 108.97 143.366 158.119C121.54 190.043 103.647 225.16 89.7005 263.483C85.4886 275.054 80.5302 288.482 74.8386 303.753C70.9706 314.124 65.7981 326.202 62.2805 334.535C58.9317 342.472 55.5569 349.494 51.8122 357.516C47.4186 366.939 44.5046 374.383 41.4348 382.774C34.9708 400.46 32.641 418.573 34.4387 437.128C36.1455 454.728 42.7458 471.193 54.1811 484.4C72.1258 505.142 98.8254 516.571 125.103 522.347C134.111 524.327 141.523 525.741 147.338 526.592C166.334 529.376 177.321 531.031 180.3 531.556C212.841 537.293 245.07 545.841 276.981 557.205C287.449 560.936 297.865 564.902 308.243 569.114C322.391 574.857 332.061 578.621 337.259 580.419C378.561 594.678 420.396 602.738 463.709 603.504ZM90.4014 218.326C81.7504 220.747 76.5714 222.259 74.8645 222.856C67.4465 225.432 61.1188 228.736 55.8749 232.759C37.0736 247.187 24.561 266.079 18.3436 289.43C14.1576 305.135 14.3523 322.178 22.9839 336.449C26.5599 342.362 31.4663 346.905 37.6966 350.065C38.112 350.279 38.6312 350.111 38.8453 349.689C38.8453 349.689 38.8453 349.676 38.8518 349.669C48.2687 329.901 56.9263 309.458 64.4936 288.573C66.8754 282.012 70.5812 271.913 75.6109 258.278C81.1857 243.163 84.8201 233.603 86.5075 229.599C88.1494 225.698 89.5383 222.557 90.674 220.162C90.9271 219.637 90.9791 219.105 90.8428 218.579C90.7908 218.391 90.5962 218.274 90.4079 218.326H90.4014ZM822.986 482.927C822.908 482.843 822.668 482.94 822.447 483.141C822.227 483.343 822.116 483.576 822.194 483.661C822.272 483.745 822.512 483.648 822.733 483.446C822.954 483.245 823.064 483.012 822.986 482.927Z" fill="#553630"/>
<path d="M753.446 307.783L714.624 241.936C700.184 215.762 684.173 190.594 666.598 166.432C650.088 143.724 632.24 122.976 611.674 103.441C602.711 94.9196 594.164 87.5729 586.038 81.3945C557.989 60.0621 526.428 42.3056 493.433 31.396C474.048 24.9904 454.078 20.4864 433.525 17.8969C422.44 16.5016 410.219 15.8591 396.87 15.9759C355.405 16.3458 316.063 25.2435 278.843 42.669C224.698 68.0252 178.074 108.97 144.469 158.119C122.644 190.043 104.751 225.16 90.8039 263.483C86.5919 275.054 81.6336 288.482 75.9419 303.753C72.0739 314.124 66.9014 326.202 63.3838 334.535C60.035 342.472 56.6603 349.494 52.9156 357.516C48.5219 366.939 45.6079 374.383 42.5382 382.774C36.0742 400.46 33.7443 418.573 35.542 437.128C37.2488 454.728 43.8491 471.193 55.2844 484.401C73.2291 505.142 99.9287 516.571 126.206 522.347C135.215 524.327 142.626 525.741 148.441 526.592C167.437 529.376 178.425 531.031 181.403 531.556C213.944 537.294 246.173 545.841 278.084 557.205C288.552 560.936 298.969 564.902 309.346 569.114C323.494 574.857 333.164 578.622 338.363 580.419C379.665 594.678 421.499 602.738 464.813 603.504C466.182 603.439 466.565 603.102 465.961 602.485C458.972 602.238 451.982 601.946 444.999 601.609C438.275 601.284 431.279 600.272 425.802 599.785C422.031 599.448 418.416 598.643 414.821 598.312C413.328 598.176 411.861 597.988 410.421 597.734C386.589 593.6 361.804 587.545 338.83 579.582C326.421 575.279 313.091 569.477 300.909 564.759C294.828 562.397 284.444 558.6 269.758 553.363C260.542 550.079 252.631 547.969 244.246 545.348C238.255 543.472 233.771 542.167 230.792 541.428C227.099 540.513 224.769 539.844 223.815 539.416C223.517 539.279 223.192 539.195 222.868 539.163C222.03 539.078 220.947 538.877 219.629 538.566C205.157 535.126 195.428 532.984 190.45 532.141C183.383 530.94 177.399 529.882 172.499 528.96C171.74 528.818 169.786 528.61 166.632 528.344C162.407 527.987 158.507 526.929 154.12 526.449C152.205 526.235 150.472 525.93 148.928 525.521C146.838 524.969 144.437 525.034 141.951 524.534C130.178 522.185 123.429 520.79 121.702 520.342C110.352 517.408 100.279 513.962 91.4918 509.997C83.0224 506.174 74.7348 500.989 66.6288 494.44C59.0226 488.294 52.8182 480.786 47.9443 472.602C46.8345 470.739 45.8805 468.636 45.0822 466.294C45.8091 466.858 47.451 468.377 50.0146 470.843C50.8323 471.628 53.1752 473.452 57.0367 476.301C59.4055 478.047 61.8782 479.63 64.4612 481.039C76.7531 487.769 89.3696 492.403 102.311 494.953C105.912 495.661 111.39 496.53 118.743 497.549C121.456 497.926 124.182 498.114 126.927 498.12C130.587 498.127 134.098 498.782 137.856 498.808C144.794 498.867 150.797 499.418 157.825 499.581C165.646 499.762 169.449 499.613 176.14 500.288C180.677 500.749 185.096 500.749 190.171 501.521C194.864 502.228 202.58 503.604 213.308 505.649C220.83 507.083 228.436 508.952 236.114 511.262C250.333 515.533 259.808 518.544 264.546 520.303C274.378 523.95 282.53 527.156 289 529.914C291.836 531.128 299.709 534.665 312.611 540.532C335.209 550.799 358.767 559.314 383.286 566.07C398.038 570.139 412.556 573.196 426.834 575.24C438.808 576.954 448.257 577.395 461.23 577.875C467.201 578.102 472.815 577.564 478.273 577.544C485.529 577.518 492.22 576.512 499.417 575.746C512.78 574.319 526.032 571.054 540.849 566.349C548.455 563.928 554.809 561.475 559.91 558.976C565.342 556.316 571.319 553.038 577.835 549.144C597.48 537.404 614.386 522.406 628.554 504.149C634.966 495.894 640.288 487.542 644.526 479.085C646.414 475.315 648.705 470.298 651.399 464.048C653.287 459.667 654.494 456.688 655.565 452.412C657.194 445.935 658.953 438.861 660.854 431.189C660.913 430.936 660.945 430.67 660.939 430.404C660.906 429.307 661.095 428.366 661.503 427.588C656.973 419.527 653.469 411.006 650.983 402.024C650.055 398.668 649.588 395.826 649.581 393.502C649.575 390.816 650.62 388.525 652.729 386.63C652.151 376.901 652.885 368.036 654.923 360.021C656.448 354.018 659.154 347.67 663.055 340.966C669.577 329.752 678.695 321.315 690.403 315.649C690.17 304.973 698.879 303.136 707.329 302.533C709.081 294.693 710.503 286.801 711.586 278.858C713.027 268.298 713.215 257.739 713.988 246.499C714.02 245.986 714.091 245.636 714.189 245.46C714.215 245.408 714.26 245.363 714.312 245.337C714.468 245.246 714.663 245.298 714.753 245.454L751.032 306.654C751.136 306.829 751.136 307.05 751.045 307.232L750.786 307.738L752.973 308.393C753.083 308.426 753.2 308.413 753.297 308.354C753.492 308.238 753.563 307.984 753.446 307.783ZM125.317 246.875C127.556 221.181 139.245 197.818 159.065 181.463C164.075 177.329 168.826 174.356 173.323 172.546C189.892 165.881 207.292 167.75 221.102 179.406C229.182 186.227 234.381 194.917 236.698 205.476C239.819 219.728 238.723 235.375 234.621 249.283C233.265 253.897 231.279 259.212 228.663 265.229C223.789 276.463 216.981 286.25 208.239 294.596C201.087 301.43 192.787 306.258 183.344 309.088C180.105 310.061 177.289 310.541 174.901 310.535C170.838 310.522 167.418 310.717 164.737 310.366C153.503 308.893 143.625 302.572 136.753 293.616C134.131 290.202 131.807 286.074 129.789 281.233C128.153 277.319 126.914 272.738 126.064 267.5C124.967 260.679 124.714 253.8 125.317 246.875ZM363.407 463.873C359.539 467.196 354.808 466.495 351.343 462.867C346.975 458.291 344.34 455.572 343.444 454.696C329.744 441.294 313.305 431.118 295.354 424.596C291.401 423.161 288.643 422.305 287.073 422.026C282.108 421.15 278.246 420.514 275.495 420.105C273.359 419.787 269.732 419.371 266.616 419.365C260.795 419.365 257.861 419.358 257.816 419.358C244.174 419.462 230.584 423.252 218.279 429.106C214.392 430.949 209.31 434.136 204.553 435.966C202.249 436.849 199.9 436.55 197.518 435.07C195.149 433.597 193.929 431.404 193.845 428.49C193.663 422.155 199.549 419.131 204.949 415.925C213.899 410.616 223.225 406.469 232.914 403.484C247.581 398.96 262.969 397.792 279.084 399.966C280.433 400.148 284.691 401.089 291.849 402.796C293.874 403.276 295.724 403.847 297.405 404.516C297.865 404.698 299.092 405.093 301.091 405.697C301.85 405.924 303.07 406.365 304.738 407.008C327.291 415.666 346.397 429.145 362.044 447.44C363.349 448.965 364.608 451.178 365.815 454.073C367.399 457.87 366.594 461.134 363.407 463.873ZM492.726 498.295C489.883 503.877 483.471 504.597 478.987 500.398C477.721 499.217 476.086 496.946 474.911 495.18C465.28 480.714 455.026 467.643 443.441 454.839C428.891 438.75 412.9 424.427 395.461 411.869C391.327 408.89 386.486 405.652 380.943 402.16C376.939 399.635 371.87 396.747 365.744 393.483C355.34 387.947 349.324 384.812 342.231 381.593C341.225 381.139 339.933 381.094 338.35 381.464C331.873 382.976 321.846 385.189 313.941 385.299C299.949 385.481 286.391 383.359 273.366 379.004C264.65 376.09 256.096 370.833 248.808 365.187C247.971 364.544 247.186 364.064 246.452 363.746C244.2 362.785 241.565 363.402 237.554 363.817C225.847 365.037 214.93 366.939 203.495 371.099C190.457 375.837 178.665 380.75 167.476 387.473C159.857 392.042 153.996 396.721 146.514 402.264C143.515 404.483 138.557 408.494 135.013 412.122C130.367 416.892 123.721 423.726 116.53 418.489C111.65 414.932 112.954 408.39 116.517 404.334C117.821 402.848 118.97 401.641 119.957 400.713C150.323 372.092 190.171 351.435 231.837 345.126C231.895 345.12 231.954 345.1 232.012 345.068C232.285 344.925 232.388 344.588 232.246 344.315C228.41 337.079 225.808 329.187 224.445 320.633C223.828 316.752 223.627 313.507 223.854 310.905C224.536 303.11 225.198 297.964 225.84 295.472C226.599 292.525 227.807 288.755 229.461 284.16C230.772 280.512 232.7 276.878 236.075 274.925C238.216 273.685 240.345 273.588 242.454 274.646C247.01 276.93 247.082 281.518 245.2 285.769C243.973 288.541 243.227 290.299 242.974 291.046C237.658 306.544 238.294 321.347 244.895 335.456C247.224 340.434 250.19 344.782 253.786 348.495C261.022 355.971 269.693 361.189 279.505 364.706C281.478 365.414 283.438 365.972 285.379 366.368C288.5 367.01 290.603 367.861 293.342 367.951C296.444 368.062 299.89 368.776 303.311 368.815C310.91 368.892 315.33 368.893 316.582 368.808C336.37 367.51 352.251 358.93 364.212 343.076C365.893 340.843 367.373 338.344 368.651 335.58C370.326 331.958 372.941 325.994 374.194 320.718C374.239 320.529 374.804 318.044 375.901 313.248C376.984 308.53 378.315 305.804 382.696 304.519C382.923 304.454 383.163 304.441 383.396 304.473C389.607 305.362 390.814 309.192 390.328 315.078C388.816 333.243 381.91 348.942 369.618 362.175C367.353 364.609 365.01 366.757 362.59 368.613C362.479 368.698 362.395 368.795 362.324 368.905L362.194 369.113C362.012 369.405 362.077 369.782 362.343 369.989C363.258 370.716 364.368 371.424 365.672 372.112C375.933 377.518 383.5 381.743 388.387 384.799C394.799 388.81 401.302 392.724 406.884 396.845C419.532 406.21 430.487 415.348 439.742 424.271C458.751 442.605 475.249 461.958 489.851 484.491C492.752 488.969 495.497 492.857 492.726 498.295ZM520.445 341.589C515.623 348.021 509.821 353.563 503.051 358.217C493.154 365.012 480.33 367.264 468.57 366.602C456.33 365.914 445.408 360.838 436.01 353.096C422.693 342.128 414.665 324.105 412.53 307.251C411.595 299.872 411.375 292.181 411.861 284.192C413.854 251.496 434.771 219.552 469.901 216.515C475.606 216.022 481.265 216.606 486.879 218.274C494.361 220.493 500.871 223.771 506.42 228.113C523.015 241.106 532.068 262.86 533.879 283.595C535.631 303.682 532.736 325.189 520.445 341.589Z" fill="#FFBCBA"/>
<path d="M126.064 267.5C124.967 260.679 124.714 253.8 125.317 246.875C127.556 221.182 139.245 197.818 159.065 181.463C164.075 177.329 168.826 174.357 173.324 172.546C189.892 165.881 207.292 167.75 221.102 179.406C229.182 186.227 234.381 194.917 236.698 205.476C239.819 219.728 238.723 235.375 234.621 249.283C233.265 253.897 231.279 259.213 228.663 265.229C223.789 276.463 216.981 286.25 208.239 294.596C201.087 301.43 192.787 306.258 183.344 309.088C180.106 310.061 177.289 310.542 174.901 310.535C170.838 310.522 167.418 310.717 164.737 310.366C153.503 308.893 143.626 302.572 136.753 293.616C134.131 290.202 131.807 286.074 129.789 281.233C128.154 277.32 126.914 272.738 126.064 267.5ZM202.035 187.771C186.485 181.619 169.475 190.393 159.578 202.289C146.825 217.612 140.634 235.362 141.004 255.546C141.263 269.953 147.013 285.38 160.772 291.61C171.318 296.38 183.727 294.453 193.183 287.963C198.686 284.192 203.443 279.539 207.454 274.003C216.358 261.705 221.803 247.972 223.796 232.792C224.828 224.946 224.172 216.996 221.862 209.921C218.721 200.277 211.588 191.542 202.035 187.771Z" fill="#FFF4E9"/>
<path d="M202.035 187.771C211.588 191.542 218.721 200.278 221.862 209.922C224.172 216.996 224.828 224.946 223.796 232.792C221.803 247.972 216.358 261.705 207.454 274.003C203.443 279.539 198.686 284.192 193.183 287.963C183.727 294.453 171.318 296.381 160.772 291.61C147.013 285.38 141.263 269.954 141.004 255.546C140.634 235.362 146.825 217.612 159.578 202.289C169.475 190.393 186.485 181.619 202.035 187.771ZM213.074 196.5C212.977 196.435 212.893 196.41 212.834 196.423C212.789 196.429 212.756 196.461 212.75 196.507C212.73 196.604 212.821 196.656 213.022 196.663C213.074 196.663 213.113 196.624 213.12 196.578C213.12 196.546 213.107 196.513 213.074 196.5ZM203.313 207.326C196.201 205.787 189.023 211.083 187.277 219.157C185.531 227.23 189.879 235.018 196.992 236.556C204.105 238.094 211.283 232.799 213.029 224.725C214.775 216.652 210.426 208.864 203.313 207.326ZM217.552 252.814C217.494 252.885 217.468 252.95 217.475 253.021C217.475 253.06 217.507 253.093 217.546 253.099C217.611 253.112 217.656 253.034 217.682 252.872C217.689 252.833 217.663 252.794 217.624 252.788C217.598 252.788 217.572 252.788 217.552 252.814Z" fill="#553630"/>
<path d="M213.074 196.5C213.12 196.52 213.133 196.571 213.107 196.617C213.087 196.643 213.055 196.662 213.022 196.662C212.821 196.656 212.73 196.604 212.75 196.507C212.756 196.461 212.789 196.429 212.834 196.422C212.893 196.409 212.977 196.435 213.074 196.5Z" fill="#EB8788"/>
<path d="M213.029 224.721C214.775 216.649 210.424 208.859 203.312 207.321C196.201 205.784 189.021 211.081 187.275 219.152C185.53 227.224 189.881 235.014 196.993 236.552C204.104 238.089 211.284 232.792 213.029 224.721Z" fill="#FFF4E9"/>
<path d="M506.42 228.113C523.015 241.105 532.068 262.86 533.879 283.595C535.631 303.681 532.736 325.189 520.444 341.589C515.622 348.021 509.82 353.563 503.051 358.216C493.154 365.011 480.33 367.263 468.57 366.601C456.33 365.913 445.408 360.838 436.01 353.096C422.693 342.128 414.665 324.105 412.53 307.251C411.595 299.872 411.375 292.181 411.861 284.192C413.854 251.496 434.771 219.552 469.901 216.515C475.605 216.022 481.265 216.606 486.879 218.274C494.361 220.493 500.871 223.771 506.42 228.113ZM471.562 234.33C469.635 234.369 467.915 234.33 466.299 234.622C453.975 236.841 444.447 244.221 437.711 254.604C426.561 271.796 424.971 294.732 430.533 313.936C432.188 319.653 434.888 325.319 438.619 330.926C446.68 343.023 459.368 350.065 473.977 349.76C488.585 349.455 500.968 341.888 508.51 329.466C512.008 323.709 514.467 317.933 515.882 312.151C520.639 292.733 518.089 269.882 506.232 253.17C499.067 243.078 489.241 236.102 476.832 234.401C475.203 234.174 473.483 234.291 471.562 234.33Z" fill="#FFF4E9"/>
<path d="M91.2028 216.353C92.3545 216.157 93.5409 216.841 93.8737 218.046L93.946 218.307V218.375C94.1148 219.276 93.986 220.183 93.5837 221.024L93.5846 221.025C92.4664 223.383 91.0896 226.495 89.4538 230.38V230.381C87.996 233.841 85.0436 241.557 80.5905 253.566L78.5905 258.976C73.5611 272.611 69.8572 282.705 67.4772 289.261C60.3606 308.902 52.2839 328.15 43.5221 346.811L41.7604 350.536C41.1651 351.784 39.7722 352.402 38.4792 352.071H38.321L37.8952 351.855C37.8732 351.844 37.8508 351.832 37.8288 351.821L37.6481 351.735L37.6315 351.718C31.3998 348.501 26.4204 343.942 22.7331 338.071L22.3757 337.49C13.3713 322.602 13.2418 304.951 17.5143 288.921L17.8151 287.81C24.2426 264.552 36.901 245.65 55.7604 231.178L56.7936 230.405C61.6734 226.837 67.3819 223.864 73.902 221.475L75.3112 220.972C77.0972 220.348 82.3513 218.816 90.9655 216.406L90.9723 216.404L91.2028 216.353ZM38.0251 351.912C38.0332 351.915 38.0424 351.917 38.0505 351.921C38.0328 351.913 38.0143 351.906 37.9967 351.898C38.0065 351.902 38.0158 351.908 38.0251 351.912ZM38.8942 350.11C38.9222 350.12 38.9508 350.127 38.9792 350.134C38.9251 350.121 38.8711 350.103 38.819 350.078L38.8942 350.11ZM39.4323 348.217C39.4287 348.223 39.4268 348.229 39.4235 348.235C39.436 348.21 39.4661 348.167 39.4684 348.164V348.163C39.4684 348.163 39.4474 348.192 39.4323 348.217ZM25.4909 338.609C25.5263 338.659 25.5627 338.709 25.5983 338.759C25.5411 338.679 25.484 338.598 25.4274 338.517L25.4909 338.609ZM21.3288 283.085C21.2835 283.223 21.2398 283.362 21.195 283.501C21.2505 283.329 21.3057 283.157 21.362 282.986L21.3288 283.085ZM70.1628 276.085C69.9498 276.665 69.742 277.234 69.5378 277.791C70.6305 274.811 71.8472 271.496 73.1901 267.847L70.1628 276.085ZM57.9743 232.019C57.638 232.265 57.306 232.514 56.9782 232.765L56.1012 233.445L56.9782 232.766C57.6337 232.263 58.3064 231.771 58.9958 231.291L57.9743 232.019ZM77.5876 222.339C77.3232 222.421 77.0817 222.496 76.8639 222.565C77.0817 222.496 77.3232 222.421 77.5876 222.339ZM79.3522 221.804C79.3039 221.819 79.2561 221.833 79.2087 221.847C79.7855 221.675 80.4268 221.487 81.1325 221.281L79.3522 221.804Z" fill="#EB8788"/>
<path d="M473.977 349.76C459.368 350.065 446.68 343.023 438.619 330.926C434.888 325.319 432.188 319.653 430.533 313.936C424.971 294.732 426.561 271.796 437.711 254.605C444.447 244.221 453.975 236.842 466.299 234.622C467.915 234.33 469.635 234.369 471.562 234.33C473.483 234.291 475.203 234.174 476.832 234.401C489.241 236.102 499.067 243.078 506.232 253.17C518.089 269.882 520.639 292.733 515.882 312.151C514.467 317.933 512.008 323.709 508.51 329.466C500.968 341.888 488.585 349.455 473.977 349.76ZM487.32 257.343C479.551 257.493 473.386 264.3 473.548 272.543C473.704 280.791 480.129 287.353 487.897 287.203C495.666 287.054 501.831 280.246 501.669 272.004C501.513 263.755 495.088 257.194 487.32 257.343Z" fill="#553630"/>
<path d="M750.785 307.738C736.566 303.61 722.113 301.41 707.329 302.533C709.081 294.693 710.502 286.801 711.586 278.858C713.027 268.299 713.215 257.739 713.988 246.499C714.02 245.986 714.091 245.636 714.189 245.46C714.273 245.305 714.474 245.246 714.63 245.331C714.682 245.357 714.727 245.402 714.753 245.454L751.032 306.654C751.136 306.829 751.136 307.05 751.045 307.232L750.785 307.738Z" fill="#EB8788"/>
<path d="M217.552 252.813C217.552 252.813 217.63 252.781 217.663 252.813C217.682 252.826 217.689 252.852 217.682 252.878C217.656 253.04 217.611 253.118 217.546 253.105C217.507 253.099 217.481 253.066 217.474 253.027C217.468 252.956 217.494 252.891 217.552 252.82V252.813Z" fill="#EB8788"/>
<path d="M487.889 287.207C495.655 287.058 501.822 280.252 501.664 272.006C501.505 263.76 495.082 257.197 487.316 257.346C479.55 257.495 473.383 264.3 473.541 272.546C473.7 280.792 480.123 287.356 487.889 287.207Z" fill="#FFF4E9"/>
<path d="M691.101 313.88C691.767 313.77 692.443 314.047 692.84 314.594L692.921 314.716L692.928 314.728L693.766 316.143L693.771 316.152L693.776 316.16C694.081 316.693 694.085 317.33 693.825 317.857C693.842 317.869 693.86 317.883 693.88 317.896H693.881C695.399 318.881 696.617 319.418 697.899 319.688C699.199 319.962 700.65 319.981 702.672 319.813H702.673L703.939 319.713C710.179 319.229 715.095 319.058 718.657 319.207H718.656C733.182 319.805 746.772 323.232 760.826 327.982L762.188 328.446V328.447L763.714 328.974C770.746 331.425 776.595 333.694 781.244 335.792L782.223 336.239L783.104 336.651C792.18 340.946 800.425 346.278 807.833 352.636L808.533 353.244C812.036 356.333 815.677 360.172 819.451 364.75L819.921 365.328C829.717 377.512 834.798 393.748 835.704 409.15L835.758 410.141C836.013 415.214 835.995 421.995 835.099 427.58L834.835 429.167C833.487 437.013 831.723 443.548 829.536 448.736V448.737C827.263 454.124 824.007 459.702 819.775 465.47H819.776C812.694 475.132 803.417 482.176 791.985 486.604L791.023 486.964C786.183 488.706 780.86 489.617 775.075 489.722H775.076C762.982 489.946 751.45 487.581 740.483 482.636L739.423 482.15C725.757 475.76 713.481 467.218 702.611 456.545L702.097 456.035C700.9 454.83 699.7 453.521 698.517 452.217C697.156 450.716 695.822 449.225 694.499 447.855H694.498C693.407 446.723 692.344 445.493 691.311 444.16V444.159C686.68 438.193 683.979 434.623 683.311 433.551V433.55C680.019 428.255 677.096 424.203 674.55 419.144L673.68 417.392C669.384 408.619 665.926 399.654 663.294 390.497L663.242 390.348C663.092 389.981 662.743 389.484 662.039 388.862L661.785 388.644C660.509 387.585 659.223 387.015 657.92 386.854C656.527 386.682 654.997 386.962 653.3 387.795L651.548 388.654L651.433 386.707C650.849 376.868 651.588 367.866 653.664 359.701L653.815 359.125C655.4 353.153 658.11 346.886 661.933 340.314L662.246 339.78C668.85 328.653 678.009 320.238 689.693 314.551C690.059 314.259 690.481 314.032 690.951 313.912L690.958 313.91L691.101 313.88ZM779.479 488.174C778.037 488.313 776.562 488.397 775.051 488.425C774.284 488.439 773.519 488.442 772.757 488.435C773.519 488.442 774.284 488.439 775.051 488.425C776.939 488.39 778.774 488.268 780.554 488.058L779.479 488.174ZM769.336 488.333C769.714 488.352 770.093 488.368 770.472 488.383C769.713 488.354 768.957 488.316 768.203 488.266L769.336 488.333ZM764.941 487.983C765.65 488.059 766.361 488.127 767.075 488.184L765.949 488.086C765.612 488.054 765.276 488.019 764.941 487.983ZM798.565 482.177C796.317 483.371 793.968 484.444 791.516 485.393C788.742 486.47 785.791 487.26 782.664 487.764L783.701 487.586C786.445 487.081 789.051 486.351 791.517 485.394C794.319 484.309 796.987 483.063 799.522 481.659L798.565 482.177ZM757.255 486.769C758.29 486.986 759.329 487.183 760.373 487.358C759.329 487.183 758.29 486.986 757.255 486.769ZM752.973 485.742C754.265 486.091 755.565 486.406 756.871 486.687C755.565 486.406 754.265 486.091 752.973 485.742ZM739.974 480.974C740.321 481.136 740.668 481.296 741.016 481.453C740.668 481.296 740.32 481.136 739.973 480.973C739.652 480.823 739.333 480.672 739.014 480.519C739.333 480.672 739.653 480.824 739.974 480.974ZM803.224 479.432C802.323 480.019 801.404 480.583 800.466 481.125L801.399 480.576C802.324 480.019 803.231 479.44 804.118 478.839L803.224 479.432ZM734.38 478.193C734.673 478.347 734.965 478.501 735.259 478.653C734.965 478.501 734.673 478.347 734.38 478.193ZM808.402 475.643C807.576 476.32 806.732 476.974 805.869 477.605L806.727 476.967C807.577 476.32 808.408 475.651 809.221 474.96L808.402 475.643ZM730.77 476.219C731.213 476.471 731.657 476.72 732.104 476.967C731.657 476.72 731.213 476.471 730.77 476.219ZM815.323 468.948C813.897 470.571 812.397 472.104 810.822 473.547L811.604 472.818C813.154 471.345 814.629 469.782 816.029 468.13L815.323 468.948ZM723.004 471.448C723.236 471.602 723.47 471.754 723.703 471.907C723.083 471.501 722.466 471.09 721.853 470.674L723.004 471.448ZM817.404 466.446C817.179 466.732 816.952 467.015 816.723 467.296L817.404 466.447C817.629 466.161 817.852 465.873 818.073 465.583L817.404 466.446ZM820.209 462.634C819.73 463.32 819.237 464.011 818.729 464.704L819.454 463.704C819.71 463.347 819.961 462.989 820.209 462.634ZM821.072 461.378C821.267 461.089 821.46 460.801 821.65 460.513C821.46 460.801 821.267 461.089 821.072 461.378ZM821.773 460.327C821.95 460.058 822.124 459.789 822.296 459.521C822.124 459.789 821.95 460.058 821.773 460.327ZM822.485 459.226C822.646 458.974 822.804 458.722 822.961 458.47C822.804 458.722 822.646 458.974 822.485 459.226ZM823.122 458.212C823.261 457.987 823.4 457.763 823.535 457.539C823.4 457.763 823.262 457.987 823.122 458.212ZM823.806 457.088C823.919 456.899 824.03 456.711 824.14 456.523C824.03 456.711 823.919 456.899 823.806 457.088ZM703.949 456.035C704.22 456.299 704.491 456.562 704.764 456.823C704.491 456.562 704.22 456.299 703.949 456.035ZM824.387 456.101C824.488 455.926 824.588 455.751 824.688 455.577C824.588 455.751 824.488 455.926 824.387 456.101ZM824.964 455.088C825.074 454.891 825.183 454.694 825.29 454.498C825.183 454.694 825.074 454.891 824.964 455.088ZM701.878 453.94C702.174 454.252 702.468 454.56 702.763 454.86C702.468 454.56 702.174 454.252 701.878 453.94ZM825.479 454.154C825.618 453.898 825.754 453.642 825.889 453.386C825.754 453.642 825.618 453.898 825.479 454.154ZM826.507 452.188C826.803 451.601 827.085 451.016 827.358 450.433C827.085 451.016 826.803 451.601 826.507 452.188ZM828.34 448.232L828.736 447.266C828.741 447.254 828.744 447.241 828.749 447.229C828.614 447.569 828.479 447.904 828.34 448.232ZM828.868 446.923C828.963 446.681 829.058 446.437 829.151 446.19C829.058 446.437 828.963 446.681 828.868 446.923ZM829.361 445.616C829.418 445.458 829.477 445.3 829.534 445.14C829.477 445.3 829.418 445.458 829.361 445.616ZM692.715 443.847C693.096 444.326 693.481 444.789 693.868 445.238C693.352 444.639 692.841 444.015 692.337 443.365L692.715 443.847ZM829.735 444.557C829.796 444.379 829.858 444.2 829.918 444.019C829.858 444.2 829.796 444.379 829.735 444.557ZM830.059 443.59C830.138 443.349 830.218 443.106 830.295 442.86C830.218 443.106 830.138 443.349 830.059 443.59ZM830.458 442.334C830.517 442.141 830.577 441.948 830.635 441.753C830.577 441.948 830.517 442.141 830.458 442.334ZM830.805 441.174C830.875 440.934 830.945 440.693 831.013 440.45C830.945 440.693 830.875 440.934 830.805 441.174ZM831.13 440.028C831.208 439.746 831.285 439.461 831.362 439.174C831.285 439.461 831.208 439.746 831.13 440.028ZM831.474 438.747C831.542 438.484 831.61 438.218 831.677 437.951C831.61 438.218 831.542 438.484 831.474 438.747ZM831.826 437.347C831.876 437.145 831.925 436.94 831.974 436.735C831.925 436.94 831.876 437.145 831.826 437.347ZM832.133 436.059C832.202 435.763 832.269 435.465 832.336 435.164C832.269 435.465 832.202 435.763 832.133 436.059ZM832.416 434.801C832.495 434.443 832.572 434.081 832.649 433.717C832.572 434.081 832.495 434.443 832.416 434.801ZM832.737 433.295C832.791 433.028 832.844 432.76 832.898 432.49C832.844 432.76 832.791 433.028 832.737 433.295ZM683.18 430.908C683.406 431.262 683.631 431.624 683.862 431.99C683.219 430.969 682.599 429.997 681.993 429.058L683.18 430.908ZM834.123 425.132C834.079 425.514 834.033 425.892 833.982 426.266L834.124 425.133C834.168 424.75 834.208 424.364 834.245 423.975L834.123 425.132ZM678.166 423.005C678.337 423.29 678.51 423.575 678.684 423.859L678.166 423.004C677.996 422.718 677.826 422.432 677.659 422.143L678.166 423.005ZM834.576 413.402C834.615 415.26 834.612 417.237 834.544 419.227L834.578 418.035C834.622 416.054 834.604 414.108 834.547 412.302L834.576 413.402ZM834.042 404.892C834.201 406.341 834.324 407.788 834.409 409.227L834.313 407.801C834.24 406.833 834.149 405.863 834.042 404.892ZM833.775 402.728C833.742 402.485 833.71 402.241 833.675 401.997C833.71 402.241 833.742 402.485 833.775 402.728ZM833.603 401.523C833.553 401.193 833.505 400.862 833.451 400.532C833.505 400.862 833.553 401.193 833.603 401.523ZM833.392 400.178C833.331 399.81 833.269 399.441 833.202 399.072C833.269 399.441 833.331 399.81 833.392 400.178ZM833.134 398.706C833.069 398.354 833.004 398.002 832.935 397.65C833.004 398.002 833.069 398.354 833.134 398.706ZM832.825 397.107C832.764 396.81 832.704 396.512 832.64 396.215C832.704 396.512 832.764 396.81 832.825 397.107ZM832.495 395.562C832.437 395.299 832.379 395.035 832.318 394.772C832.379 395.035 832.437 395.299 832.495 395.562ZM832.168 394.149C832.103 393.879 832.039 393.61 831.971 393.341C832.039 393.61 832.103 393.879 832.168 394.149ZM831.788 392.637C831.729 392.408 831.671 392.177 831.609 391.948C831.671 392.177 831.729 392.408 831.788 392.637ZM831.418 391.263C831.343 390.993 831.268 390.722 831.19 390.452C831.268 390.722 831.343 390.993 831.418 391.263ZM831.02 389.881C830.939 389.608 830.858 389.334 830.774 389.062C830.858 389.334 830.939 389.608 831.02 389.881ZM663.754 388.757C663.912 388.946 664.049 389.132 664.164 389.317L663.975 389.038C663.838 388.851 663.681 388.662 663.501 388.47L663.754 388.757ZM830.576 388.438C830.491 388.173 830.407 387.908 830.32 387.644C830.407 387.908 830.491 388.173 830.576 388.438ZM661.859 387.071C662.015 387.18 662.17 387.293 662.325 387.413L662.035 387.194C661.976 387.152 661.917 387.112 661.859 387.071ZM830.107 387.011C830.024 386.766 829.94 386.521 829.855 386.277C829.94 386.521 830.024 386.766 830.107 387.011ZM661.449 386.799C661.499 386.83 661.549 386.863 661.599 386.896C661.451 386.799 661.303 386.706 661.153 386.62L661.449 386.799ZM659.642 385.927C660.052 386.068 660.456 386.244 660.855 386.455L660.555 386.302C660.153 386.109 659.746 385.951 659.333 385.828L659.642 385.927ZM658.71 385.671C658.815 385.693 658.919 385.717 659.023 385.743L658.71 385.67C658.606 385.648 658.501 385.629 658.396 385.611L658.71 385.671ZM829.618 385.615C829.526 385.358 829.433 385.101 829.338 384.845C829.433 385.101 829.526 385.358 829.618 385.615ZM656.791 385.514L657.117 385.508C657.224 385.507 657.332 385.509 657.439 385.513L657.117 385.507C657.008 385.507 656.9 385.51 656.791 385.514ZM829.145 384.336C829.037 384.052 828.929 383.77 828.818 383.488C828.929 383.77 829.037 384.052 829.145 384.336ZM828.576 382.887C828.475 382.635 828.373 382.383 828.269 382.133C828.373 382.383 828.475 382.635 828.576 382.887ZM827.998 381.496C827.896 381.256 827.794 381.016 827.689 380.777C827.794 381.016 827.896 381.256 827.998 381.496ZM827.242 379.776C827.197 379.678 827.151 379.581 827.106 379.484C827.151 379.581 827.197 379.678 827.242 379.776ZM826.621 378.458C826.563 378.338 826.504 378.218 826.446 378.098C826.504 378.218 826.563 378.338 826.621 378.458ZM826.264 377.728C826.225 377.651 826.186 377.573 826.147 377.496C826.186 377.573 826.225 377.651 826.264 377.728ZM825.959 377.123C825.911 377.028 825.863 376.933 825.814 376.839C825.863 376.933 825.911 377.028 825.959 377.123ZM825.047 375.393C825.247 375.759 825.444 376.127 825.637 376.497C825.444 376.127 825.247 375.759 825.047 375.393ZM823.985 373.516C824.192 373.869 824.396 374.224 824.597 374.581C824.396 374.224 824.192 373.869 823.985 373.516ZM822.039 370.414C822.535 371.156 823.016 371.91 823.481 372.675C823.016 371.91 822.535 371.156 822.039 370.414ZM819.363 366.713C820.106 367.661 820.82 368.634 821.507 369.629C820.682 368.433 819.816 367.269 818.91 366.141L819.363 366.713ZM816.065 362.763C815.902 362.576 815.739 362.391 815.576 362.207C815.739 362.391 815.902 362.576 816.065 362.763ZM815.268 361.859C815.132 361.707 814.997 361.555 814.862 361.405C814.997 361.555 815.132 361.707 815.268 361.859ZM814.558 361.069C814.418 360.915 814.278 360.761 814.138 360.609C814.278 360.761 814.418 360.915 814.558 361.069ZM813.891 360.341C813.734 360.17 813.577 360.002 813.42 359.835C813.577 360.002 813.734 360.17 813.891 360.341ZM813.159 359.556C813.022 359.411 812.886 359.267 812.749 359.125C812.886 359.267 813.022 359.411 813.159 359.556ZM812.43 358.791C812.301 358.657 812.172 358.525 812.043 358.393C812.172 358.525 812.301 358.657 812.43 358.791ZM811.777 358.12C811.64 357.981 811.504 357.843 811.368 357.707C811.504 357.843 811.64 357.981 811.777 358.12ZM811.024 357.363C810.913 357.253 810.801 357.144 810.691 357.035C810.801 357.144 810.913 357.253 811.024 357.363ZM655.879 356.686C655.867 356.726 655.856 356.766 655.843 356.805C655.856 356.766 655.867 356.726 655.879 356.686ZM810.366 356.716C810.213 356.568 810.061 356.421 809.91 356.276C810.061 356.421 810.213 356.568 810.366 356.716ZM809.723 356.097C809.546 355.929 809.369 355.763 809.193 355.598C809.369 355.763 809.546 355.929 809.723 356.097ZM656.254 355.552C656.208 355.688 656.164 355.823 656.119 355.958C656.164 355.823 656.208 355.688 656.254 355.552ZM803.382 350.662C804.606 351.622 805.807 352.609 806.988 353.622C807.439 354.009 807.893 354.409 808.35 354.822C808.124 354.618 807.899 354.416 807.674 354.218L806.989 353.622C805.572 352.406 804.124 351.228 802.646 350.089L803.382 350.662ZM656.658 354.405C656.61 354.535 656.566 354.666 656.52 354.796C656.566 354.666 656.61 354.535 656.658 354.405ZM657.09 353.244C657.042 353.37 656.997 353.496 656.95 353.622C656.997 353.496 657.042 353.37 657.09 353.244ZM657.552 352.072C657.476 352.26 657.403 352.449 657.329 352.636C657.403 352.449 657.476 352.26 657.552 352.072ZM658.016 350.949C657.946 351.115 657.878 351.282 657.809 351.448C657.878 351.282 657.946 351.115 658.016 350.949ZM658.545 349.731C658.467 349.907 658.391 350.082 658.315 350.258C658.391 350.082 658.467 349.907 658.545 349.731ZM800.603 348.552C800.976 348.826 801.348 349.102 801.717 349.381C801.348 349.102 800.976 348.826 800.603 348.552ZM659.08 348.551C658.987 348.751 658.897 348.952 658.806 349.152C658.897 348.952 658.987 348.751 659.08 348.551ZM659.649 347.352C659.567 347.522 659.487 347.691 659.407 347.86C659.487 347.691 659.567 347.522 659.649 347.352ZM797.344 346.255C797.603 346.43 797.861 346.606 798.118 346.783C797.604 346.428 797.087 346.078 796.567 345.732L797.344 346.255ZM660.231 346.172C660.13 346.373 660.03 346.574 659.931 346.775C660.03 346.574 660.13 346.373 660.231 346.172ZM660.821 345.018C660.755 345.144 660.691 345.271 660.626 345.396C660.691 345.271 660.755 345.144 660.821 345.018ZM661.497 343.744C661.396 343.932 661.295 344.12 661.196 344.307C661.295 344.12 661.396 343.932 661.497 343.744ZM662.16 342.539C662.053 342.73 661.947 342.921 661.842 343.112C661.947 342.921 662.053 342.73 662.16 342.539ZM662.693 341.594C662.657 341.657 662.623 341.72 662.587 341.782C662.742 341.511 662.896 341.239 663.054 340.967L662.693 341.594ZM787.375 340.25C787.544 340.34 787.713 340.43 787.881 340.521C787.713 340.43 787.544 340.34 787.375 340.25ZM785.694 339.373C785.886 339.471 786.078 339.57 786.27 339.67C786.078 339.57 785.886 339.471 785.694 339.373ZM783.993 338.52C784.141 338.593 784.29 338.666 784.438 338.74C784.29 338.666 784.141 338.593 783.993 338.52ZM778.285 335.913C779.485 336.425 780.616 336.925 781.677 337.417C781.813 337.48 781.949 337.544 782.085 337.607C781.95 337.544 781.814 337.48 781.678 337.417C780.616 336.925 779.485 336.425 778.285 335.913ZM759.973 329.067C760.569 329.268 761.168 329.468 761.766 329.674C765.956 331.115 769.738 332.492 773.109 333.806C769.738 332.492 765.957 331.114 761.767 329.674C761.168 329.468 760.57 329.268 759.973 329.067ZM756.684 327.982C756.595 327.954 756.507 327.925 756.418 327.896C756.507 327.925 756.595 327.954 756.684 327.982ZM755.693 327.665C755.522 327.611 755.352 327.556 755.181 327.503C755.352 327.556 755.522 327.611 755.693 327.665ZM754.544 327.304C754.268 327.218 753.993 327.132 753.717 327.048C753.993 327.132 754.268 327.218 754.544 327.304ZM753.494 326.979C753.138 326.87 752.781 326.761 752.425 326.654C752.781 326.761 753.138 326.87 753.494 326.979ZM751.935 326.508C751.688 326.434 751.441 326.36 751.195 326.288C751.441 326.36 751.688 326.434 751.935 326.508ZM750.339 326.04C750.203 326 750.067 325.961 749.931 325.922C750.067 325.961 750.203 326 750.339 326.04ZM748.947 325.642C748.849 325.615 748.751 325.587 748.653 325.559C748.751 325.587 748.849 325.615 748.947 325.642ZM747.834 325.334C747.606 325.271 747.379 325.209 747.151 325.147C747.379 325.209 747.606 325.271 747.834 325.334ZM746.731 325.035C746.417 324.951 746.103 324.867 745.788 324.785C746.103 324.867 746.417 324.951 746.731 325.035ZM745.425 324.691C745.096 324.606 744.766 324.521 744.437 324.438C744.766 324.521 745.096 324.606 745.425 324.691ZM744.112 324.356C743.803 324.279 743.494 324.203 743.186 324.128C743.494 324.203 743.803 324.279 744.112 324.356ZM742.74 324.019C742.456 323.951 742.173 323.883 741.889 323.816C742.173 323.883 742.456 323.951 742.74 324.019ZM741.36 323.693C741.115 323.637 740.871 323.58 740.626 323.525C740.871 323.58 741.115 323.637 741.36 323.693ZM740.032 323.392C739.767 323.334 739.502 323.276 739.237 323.218C739.502 323.276 739.767 323.334 740.032 323.392ZM738.721 323.108C738.494 323.06 738.266 323.013 738.038 322.966C738.266 323.013 738.494 323.06 738.721 323.108ZM737.352 322.825C737.1 322.774 736.848 322.724 736.596 322.675C736.848 322.724 737.1 322.774 737.352 322.825ZM736.12 322.582C735.86 322.532 735.599 322.483 735.338 322.434C735.599 322.483 735.86 322.532 736.12 322.582ZM734.682 322.314C734.494 322.28 734.305 322.247 734.117 322.214C734.305 322.247 734.494 322.28 734.682 322.314ZM733.358 322.082C733.193 322.054 733.029 322.027 732.865 322C733.029 322.027 733.193 322.054 733.358 322.082ZM731.963 321.852C731.852 321.835 731.741 321.818 731.629 321.801C731.741 321.818 731.852 321.835 731.963 321.852ZM730.72 321.661C730.466 321.623 730.212 321.588 729.957 321.551C730.212 321.588 730.466 321.623 730.72 321.661ZM729.462 321.481C729.153 321.439 728.843 321.398 728.534 321.358C728.843 321.398 729.153 321.439 729.462 321.481ZM728.11 321.303C727.898 321.277 727.685 321.252 727.473 321.226C727.685 321.252 727.898 321.277 728.11 321.303ZM726.66 321.13C726.53 321.115 726.401 321.102 726.272 321.088C726.401 321.102 726.53 321.115 726.66 321.13ZM725.41 320.994C725.115 320.964 724.819 320.936 724.523 320.908C724.819 320.936 725.115 320.964 725.41 320.994ZM724.067 320.864C723.726 320.833 723.385 320.806 723.044 320.778C723.385 320.806 723.726 320.833 724.067 320.864ZM722.718 320.751C722.539 320.737 722.36 320.724 722.181 320.711C722.36 320.724 722.539 320.737 722.718 320.751ZM692.378 317.844C692.375 317.871 692.373 317.897 692.372 317.924C692.373 317.897 692.375 317.871 692.378 317.844ZM692.682 317.23C692.688 317.213 692.694 317.196 692.699 317.178C692.694 317.196 692.688 317.213 692.682 317.23ZM692.702 317.162C692.706 317.143 692.709 317.124 692.711 317.105C692.709 317.124 692.706 317.143 692.702 317.162ZM692.713 317.09C692.714 317.073 692.714 317.057 692.713 317.041C692.714 317.057 692.714 317.073 692.713 317.09ZM692.712 317.01C692.711 316.997 692.709 316.984 692.706 316.97C692.709 316.984 692.711 316.997 692.712 317.01ZM691.623 315.215C691.699 315.255 691.765 315.314 691.811 315.389L692.649 316.804L691.812 315.389C691.766 315.313 691.699 315.255 691.623 315.215ZM820.478 462.246C820.642 462.008 820.805 461.772 820.966 461.535C820.805 461.772 820.642 462.008 820.478 462.246ZM825.996 453.183C826.145 452.9 826.29 452.617 826.433 452.335C826.29 452.617 826.145 452.9 825.996 453.183ZM833.013 431.911C833.091 431.507 833.168 431.099 833.244 430.687C833.168 431.099 833.091 431.507 833.013 431.911ZM834.02 404.704C833.973 404.283 833.924 403.863 833.87 403.442C833.924 403.863 833.973 404.283 834.02 404.704ZM824.966 375.245C824.893 375.111 824.818 374.977 824.743 374.843C824.818 374.977 824.893 375.111 824.966 375.245ZM817.763 364.75C817.747 364.731 817.732 364.713 817.716 364.694C817.732 364.713 817.747 364.731 817.763 364.75ZM817.508 364.448C817.328 364.234 817.149 364.022 816.97 363.812C817.149 364.022 817.328 364.234 817.508 364.448ZM816.868 363.692C816.662 363.451 816.456 363.213 816.251 362.977C816.456 363.213 816.662 363.451 816.868 363.692ZM655.217 358.907C655.124 359.243 655.036 359.579 654.951 359.913C655.036 359.579 655.124 359.243 655.217 358.907ZM692.393 317.766C692.386 317.792 692.382 317.818 692.378 317.844C692.382 317.818 692.386 317.792 692.393 317.766ZM692.471 317.571L692.467 317.577C692.456 317.598 692.447 317.619 692.438 317.639C692.448 317.617 692.459 317.594 692.471 317.571ZM692.603 317.376L692.642 317.32C692.643 317.318 692.644 317.315 692.645 317.313C692.632 317.335 692.619 317.356 692.603 317.376ZM692.656 317.291C692.663 317.276 692.671 317.261 692.677 317.246C692.671 317.261 692.663 317.276 692.656 317.291Z" fill="#EB8788"/>
<path d="M489.851 484.491C475.249 461.958 458.751 442.605 439.742 424.271C430.487 415.347 419.532 406.209 406.883 396.844C401.302 392.723 394.799 388.81 388.387 384.799C383.5 381.742 375.933 377.517 365.672 372.111C364.368 371.423 363.258 370.716 362.343 369.989C362.077 369.781 362.012 369.405 362.194 369.113L362.324 368.905C362.395 368.795 362.479 368.698 362.59 368.613C365.01 366.757 367.353 364.609 369.618 362.175C381.91 348.942 388.815 333.243 390.328 315.078C390.814 309.191 389.607 305.362 383.396 304.473C383.163 304.441 382.923 304.454 382.695 304.518C378.315 305.803 376.984 308.529 375.901 313.247C374.804 318.044 374.239 320.529 374.194 320.717C372.941 325.994 370.326 331.958 368.651 335.579C367.373 338.344 365.893 340.843 364.212 343.075C352.251 358.93 336.37 367.51 316.582 368.808C315.33 368.892 310.91 368.892 303.31 368.814C299.89 368.775 296.444 368.062 293.342 367.951C290.603 367.86 288.5 367.01 285.379 366.368C283.438 365.972 281.478 365.414 279.505 364.706C269.693 361.189 261.022 355.971 253.786 348.494C250.19 344.782 247.224 340.434 244.895 335.456C238.294 321.347 237.658 306.543 242.974 291.045C243.227 290.299 243.973 288.54 245.2 285.769C247.082 281.518 247.01 276.93 242.454 274.645C240.345 273.587 238.216 273.685 236.075 274.924C232.7 276.878 230.772 280.512 229.461 284.16C227.807 288.754 226.599 292.525 225.84 295.471C225.198 297.964 224.536 303.11 223.854 310.905C223.627 313.507 223.828 316.752 224.445 320.633C225.808 329.187 228.41 337.079 232.246 344.315C232.272 344.367 232.291 344.425 232.304 344.49C232.349 344.795 232.142 345.081 231.837 345.126C190.171 351.434 150.323 372.092 119.957 400.712C118.97 401.64 117.821 402.848 116.517 404.334C112.954 408.39 111.65 414.932 116.53 418.488C123.721 423.726 130.366 416.892 135.013 412.122C138.557 408.494 143.515 404.483 146.513 402.264C153.996 396.721 159.857 392.042 167.476 387.473C178.665 380.749 190.457 375.836 203.495 371.099C214.93 366.939 225.847 365.037 237.554 363.817C241.565 363.402 244.2 362.785 246.452 363.746C247.185 364.064 247.971 364.544 248.808 365.186C256.096 370.833 264.65 376.09 273.366 379.004C286.391 383.358 299.949 385.481 313.941 385.299C321.846 385.188 331.873 382.975 338.35 381.463C339.933 381.093 341.225 381.139 342.231 381.593C349.324 384.812 355.34 387.947 365.744 393.483C371.87 396.747 376.939 399.635 380.943 402.16C386.486 405.651 391.327 408.89 395.461 411.869C412.9 424.427 428.891 438.75 443.441 454.839C455.026 467.643 465.28 480.714 474.911 495.18C476.086 496.945 477.721 499.217 478.987 500.398C483.471 504.597 489.883 503.877 492.726 498.295C495.497 492.857 492.752 488.969 489.851 484.491ZM359.202 369.885C359.195 369.918 359.195 369.957 359.195 369.989C359.195 369.95 359.195 369.918 359.202 369.885ZM359.565 370.489C359.507 370.469 359.449 370.443 359.397 370.404C359.449 370.443 359.5 370.469 359.565 370.489ZM359.351 370.352C359.351 370.352 359.306 370.314 359.286 370.288C359.286 370.281 359.28 370.268 359.273 370.262C359.293 370.294 359.319 370.32 359.351 370.352ZM359.234 370.171C359.234 370.171 359.208 370.112 359.202 370.08C359.202 370.112 359.221 370.138 359.234 370.171ZM359.241 369.781C359.241 369.781 359.254 369.742 359.267 369.723C359.254 369.742 359.247 369.762 359.241 369.781ZM234.777 345.82C234.777 345.82 234.777 345.782 234.777 345.762C234.777 345.762 234.777 345.769 234.777 345.775C234.777 345.788 234.777 345.807 234.777 345.82ZM234.77 345.892C234.77 345.892 234.757 345.931 234.751 345.95C234.757 345.931 234.77 345.911 234.77 345.892ZM234.725 346.009C234.725 346.009 234.692 346.041 234.679 346.061C234.699 346.041 234.712 346.028 234.725 346.009ZM234.634 346.1C234.595 346.125 234.55 346.151 234.491 346.158C234.543 346.151 234.588 346.132 234.634 346.1Z" fill="#553630"/>
<path d="M362.045 447.44C346.397 429.145 327.291 415.666 304.738 407.008C303.07 406.366 301.85 405.924 301.091 405.697C299.092 405.094 297.865 404.698 297.405 404.516C295.724 403.847 293.874 403.276 291.849 402.796C284.691 401.089 280.433 400.148 279.084 399.966C262.969 397.792 247.581 398.961 232.914 403.484C223.225 406.469 213.899 410.616 204.949 415.925C199.549 419.131 193.663 422.156 193.845 428.49C193.929 431.404 195.149 433.597 197.518 435.071C199.9 436.55 202.249 436.849 204.553 435.966C209.31 434.136 214.392 430.949 218.279 429.106C230.584 423.252 244.174 419.462 257.816 419.358C257.861 419.358 260.795 419.358 266.616 419.365C269.732 419.371 273.359 419.787 275.495 420.105C278.246 420.514 282.108 421.15 287.073 422.026C288.643 422.305 291.401 423.162 295.354 424.596C313.305 431.118 329.744 441.294 343.444 454.696C344.34 455.572 346.975 458.292 351.343 462.867C354.808 466.495 359.539 467.196 363.407 463.873C366.594 461.134 367.399 457.87 365.815 454.073C364.608 451.179 363.349 448.966 362.045 447.44Z" fill="#553630"/>
<path d="M661.504 427.588C663.379 430.774 665.229 433.935 667.052 437.076C668.058 438.796 668.934 440.146 669.681 441.113C672.076 444.215 673.899 447.687 676.275 450.491C678.105 452.652 679.597 455.209 681.733 457.545C688.93 465.418 693.402 470.162 695.16 471.771C708.945 484.355 724.78 494.168 742.673 501.203C733.834 510.218 727.656 516.13 724.138 518.94C717.057 524.6 710.464 529.629 704.357 534.036C691.318 543.44 676.404 552.156 659.615 560.184C646.388 566.512 633.279 572.009 620.292 576.662C618.547 577.285 613.653 578.959 605.606 581.692C600.031 583.58 595.085 585.125 590.763 586.325C577.803 589.908 567.575 592.406 560.066 593.828C545.113 596.651 535.164 598.377 530.225 599.007C516.531 600.746 505.719 601.44 493.979 602.258C490.584 602.498 487.443 602.648 484.555 602.706C477.579 602.849 472.153 602.524 465.962 602.485C458.972 602.239 451.982 601.947 444.999 601.609C438.275 601.285 431.279 600.272 425.802 599.786C422.031 599.448 418.416 598.643 414.821 598.312C413.328 598.176 411.861 597.988 410.421 597.735C386.59 593.601 361.804 587.546 338.83 579.582C326.421 575.28 313.091 569.478 300.909 564.759C294.828 562.397 284.444 558.6 269.758 553.363C260.542 550.079 252.631 547.97 244.246 545.348C238.255 543.472 233.771 542.168 230.792 541.428C227.099 540.513 224.769 539.844 223.815 539.416C223.517 539.28 223.192 539.195 222.868 539.163C222.031 539.079 220.947 538.877 219.629 538.566C205.157 535.126 195.428 532.985 190.451 532.141C183.383 530.94 177.399 529.882 172.499 528.961C171.74 528.818 169.787 528.61 166.632 528.344C162.407 527.987 158.507 526.929 154.12 526.449C152.205 526.235 150.472 525.93 148.928 525.521C146.838 524.969 144.437 525.034 141.951 524.535C130.178 522.185 123.429 520.79 121.703 520.342C110.352 517.409 100.279 513.963 91.4919 509.997C83.0225 506.175 74.7348 500.989 66.6289 494.441C59.0227 488.295 52.8183 480.786 47.9443 472.602C46.8346 470.74 45.8805 468.637 45.0823 466.294C45.8091 466.859 47.4511 468.377 50.0146 470.843C50.8324 471.629 53.1752 473.452 57.0367 476.301C59.4056 478.047 61.8782 479.631 64.4612 481.039C76.7532 487.769 89.3696 492.403 102.311 494.954C105.913 495.661 111.39 496.531 118.743 497.55C121.456 497.926 124.182 498.114 126.927 498.121C130.587 498.127 134.098 498.783 137.856 498.809C144.794 498.867 150.797 499.419 157.826 499.581C165.646 499.763 169.449 499.613 176.14 500.288C180.677 500.749 185.096 500.749 190.171 501.521C194.864 502.229 202.58 503.605 213.308 505.649C220.83 507.083 228.436 508.952 236.114 511.263C250.333 515.533 259.809 518.544 264.546 520.303C274.378 523.951 282.53 527.157 289 529.915C291.836 531.128 299.709 534.665 312.611 540.532C335.209 550.799 358.767 559.314 383.286 566.07C398.038 570.139 412.556 573.196 426.834 575.241C438.808 576.954 448.257 577.395 461.23 577.875C467.201 578.103 472.815 577.564 478.273 577.545C485.529 577.519 492.22 576.513 499.417 575.747C512.78 574.319 526.032 571.055 540.849 566.349C548.455 563.929 554.809 561.475 559.91 558.977C565.342 556.316 571.319 553.039 577.835 549.145C597.48 537.404 614.387 522.406 628.554 504.15C634.966 495.895 640.288 487.542 644.526 479.086C646.414 475.315 648.705 470.298 651.399 464.048C653.287 459.668 654.494 456.689 655.565 452.412C657.194 445.935 658.953 438.861 660.855 431.19C660.913 430.937 660.945 430.671 660.939 430.405C660.906 429.308 661.095 428.367 661.504 427.588Z" fill="#EB8788"/>
<path d="M823.834 483.449C824.052 483.246 824.166 483.014 824.088 482.93C824.01 482.846 823.77 482.942 823.552 483.144C823.333 483.346 823.219 483.578 823.297 483.662C823.375 483.746 823.615 483.651 823.834 483.449Z" fill="#EB8788"/>
<path d="M464.813 603.504C466.182 603.439 466.565 603.101 465.961 602.485C472.153 602.524 477.578 602.848 484.555 602.706C487.443 602.647 490.584 602.498 493.979 602.258C505.719 601.44 516.531 600.746 530.225 599.006C535.164 598.377 545.113 596.65 560.066 593.827C567.574 592.406 577.803 589.907 590.763 586.325C595.085 585.124 600.031 583.58 605.606 581.691C613.653 578.959 618.547 577.284 620.292 576.661C633.279 572.008 646.388 566.511 659.615 560.183C676.404 552.155 691.318 543.439 704.357 534.035C710.464 529.629 717.057 524.599 724.138 518.94C727.655 516.13 733.834 510.217 742.673 501.203C742.9 501.17 743.153 501.281 743.432 501.521C743.569 501.638 743.588 501.845 743.471 501.982C743.471 501.982 743.458 501.995 743.452 502.001C722.405 523.716 697.568 541.94 670.349 555.978C627.645 578.011 582.177 592.542 533.95 599.564C518.29 601.849 503.363 603.166 489.182 603.523C482.543 603.692 474.424 603.685 464.813 603.504Z" fill="#FFBCBA"/>
</svg>
