<svg width="1801" height="942" viewBox="0 0 1801 942" fill="none" xmlns="http://www.w3.org/2000/svg">
<path d="M1495.09 366.065C1525.53 344.674 1562.32 334.972 1597.37 339.101C1632.43 343.23 1662.89 360.848 1682.03 388.078C1701.15 415.31 1707.42 449.925 1699.44 484.308C1691.44 518.69 1669.86 550.025 1639.42 571.418C1608.98 592.809 1572.17 602.508 1537.12 598.38C1502.07 594.251 1471.62 576.634 1452.48 549.402C1433.34 522.172 1427.08 487.556 1435.07 453.174C1443.06 418.793 1464.65 387.458 1495.09 366.065ZM1491 409.921C1486.09 422.283 1487.17 434.895 1499.52 437.82C1508.3 439.906 1517.54 433.903 1524.05 427.224C1522.67 427.393 1521.26 427.484 1519.83 427.484C1506.69 427.482 1495.47 420.196 1491 409.921Z" fill="#E94822"/>
<path d="M1401.96 717.383C1358.66 673.948 1335.79 611.388 1339.28 549.515C1344.31 460.516 1390.76 381.046 1462.35 328.769C1499.06 301.953 1540.15 285.975 1585.61 280.836C1638.42 274.862 1696.5 288.991 1733.02 331.379C1750.39 351.534 1762.68 374.453 1769.88 400.136C1774.99 418.347 1777.95 437.254 1778.75 456.859C1779.58 476.374 1779.58 493.822 1778.79 509.205C1776.2 559.369 1762.99 611.989 1738.98 656.471C1710.24 709.738 1668.31 745.607 1613.2 764.08C1539.94 788.665 1457.22 772.801 1401.96 717.383ZM1682.01 388.078C1662.89 360.848 1632.43 343.23 1597.37 339.101C1562.32 334.972 1525.53 344.67 1495.09 366.063C1464.65 387.456 1443.06 418.791 1435.07 453.173C1427.08 487.556 1433.34 522.17 1452.48 549.402C1471.62 576.632 1502.06 594.249 1537.12 598.378C1572.17 602.507 1608.98 592.809 1639.42 571.416C1669.86 550.023 1691.44 518.688 1699.44 484.306C1707.42 449.924 1701.15 415.31 1682.01 388.078ZM1361.32 650.566C1361.24 650.59 1361.17 650.629 1361.12 650.684C1361.06 650.737 1361.01 650.802 1360.98 650.876C1360.95 650.95 1360.93 651.029 1360.94 651.11C1360.94 651.189 1360.96 651.268 1360.99 651.338C1363.53 656.157 1365.93 661.016 1368.17 665.914C1371.16 672.45 1373.63 677.239 1375.59 680.283C1405.7 727.341 1450.44 759.428 1506.11 769.059C1525.09 772.333 1542.93 773.322 1559.64 772.029C1598.47 769.007 1640.81 754.414 1673.22 730.019C1683.25 722.477 1691.39 715.375 1697.64 708.713C1723.61 681.039 1743.1 648.706 1756.07 611.714C1762.65 593.013 1768.28 569.545 1772.97 541.309C1773.38 538.893 1773.76 535.226 1774.14 530.304C1774.72 522.544 1776.06 512.93 1775.47 504.346C1775.47 504.209 1775.42 504.078 1775.34 503.979C1775.23 503.881 1775.11 503.824 1774.98 503.822C1774.84 503.821 1774.7 503.872 1774.6 503.967C1774.51 504.063 1774.44 504.193 1774.44 504.329C1773.45 512.41 1771.47 520.781 1768.54 529.446C1765.55 538.351 1761.93 548.033 1757.69 558.494C1746.13 587.027 1730.56 612.796 1710.99 635.801C1701.36 647.132 1690.41 658.32 1678.15 669.364C1662.13 683.786 1642.22 695.717 1623.97 705.022C1607.55 713.388 1589.6 719.804 1570.11 724.268C1558.94 726.826 1543.68 727.993 1535.83 728.731C1503.33 731.821 1466.77 724.611 1436.91 713.332C1416.98 705.812 1401.08 693.073 1384.84 678.773C1375.72 670.738 1368.13 661.33 1362.08 650.548C1362.05 650.499 1362 650.461 1361.95 650.439C1361.9 650.416 1361.84 650.413 1361.78 650.428L1361.32 650.566Z" fill="#FFF4E9"/>
<path d="M1741.79 693.692C1711.8 735.702 1672.77 767.343 1623.59 783.652C1599.21 791.738 1571.81 797.163 1546.22 796.889C1522.71 796.626 1499.8 793.187 1477.49 786.571C1432.27 773.145 1395.64 747.84 1367.6 710.654C1353.17 691.507 1341.65 670.922 1333.04 648.901C1332.98 648.729 1332.87 648.575 1332.73 648.453C1332.59 648.331 1332.42 648.247 1332.23 648.204C1332.05 648.163 1331.86 648.164 1331.68 648.211C1331.5 648.257 1331.33 648.348 1331.19 648.472C1321.61 657.286 1309.91 661.87 1296.08 662.223C1295.82 662.234 1295.57 662.342 1295.39 662.529C1295.21 662.714 1295.11 662.963 1295.12 663.219C1295.31 684.095 1289.82 703.227 1278.64 720.612C1268.29 736.732 1251.29 750.398 1232.03 753.007C1226.99 753.684 1222.35 754.072 1218.1 754.175C1217.54 754.192 1216.98 754.335 1216.47 754.592C1215.97 754.851 1215.53 755.219 1215.19 755.668C1208.18 764.836 1200.59 772.201 1190.79 777.678C1167.2 790.863 1143.11 790.578 1118.51 776.819C1114.66 774.668 1112.6 773.523 1112.35 773.386C1111.46 772.921 1110.44 772.768 1109.45 772.957C1105.05 773.815 1100.55 774.57 1095.94 775.223C1076.73 777.987 1056.11 769.077 1041.53 756.887C1041.39 756.766 1041.21 756.676 1041.03 756.625C1040.85 756.573 1040.65 756.561 1040.47 756.59C1040.28 756.62 1040.1 756.69 1039.94 756.795C1039.78 756.898 1039.64 757.037 1039.54 757.196C1031.42 769.935 1020.51 778.531 1006.78 782.983C1006.2 783.172 1005.67 783.486 1005.22 783.903C1004.78 784.322 1004.42 784.833 1004.19 785.403C993.352 811.832 974.56 828.169 947.812 834.418C946.96 834.617 946.215 835.118 945.717 835.826C942.473 840.41 939.709 846.144 936.275 850.985C921.178 872.273 900.399 884.514 873.938 887.707C872.891 887.841 871.942 888.377 871.294 889.201C854.652 910.239 832.814 920.218 805.781 919.142C800.7 918.953 793.747 917.322 788.905 916.549C786.315 916.143 783.673 916.307 781.163 917.03C756.527 924.155 735.393 918.215 714.139 905.047C713.09 904.389 711.852 904.082 710.602 904.171C704.535 904.63 699.522 904.807 695.563 904.704C670.165 904.017 650.468 893.38 636.471 872.788C636.244 872.46 635.951 872.184 635.609 871.98C635.269 871.775 634.89 871.647 634.497 871.604C614.455 869.269 597.883 861.109 584.778 847.122C572.744 834.298 565.67 817.336 564.16 800.717C563.679 795.464 563.449 788.167 563.473 778.828C563.473 777.398 562.975 775.784 561.979 773.987C561.887 773.825 561.761 773.686 561.61 773.578C561.459 773.47 561.288 773.394 561.107 773.358C560.925 773.322 560.74 773.327 560.561 773.37C560.383 773.413 560.216 773.496 560.074 773.609C548.52 782.674 534.923 788.888 520.296 790.554C498.721 793.026 479.309 789.455 462.062 779.841C461.617 779.594 461.107 779.494 460.603 779.559C460.1 779.625 459.629 779.85 459.263 780.201C445.478 793.404 432.464 800.031 413.116 802.314C391.45 804.889 371.443 799.996 353.097 787.635C352.772 787.421 352.388 787.312 352 787.325C351.614 787.337 351.239 787.469 350.934 787.704C320.598 811.138 277.747 809.833 248.149 786.227C247.84 785.984 247.454 785.858 247.059 785.874C246.666 785.889 246.292 786.045 246.003 786.313C231.771 799.361 213.985 802.932 194.723 801.661C178.018 800.546 164.936 794.451 152.747 784.511C148.249 780.854 144.558 776.407 141.107 773.163C140.779 772.857 140.383 772.639 139.95 772.529C139.517 772.418 139.066 772.418 138.635 772.527C103.526 781.472 68.8986 766.707 51.8852 734.878C46.2077 724.555 42.9166 713.734 42.0136 702.413C41.902 701.122 41.3063 699.926 40.3483 699.066C26.4525 686.511 17.5149 670.596 13.5319 651.322C12.5362 646.527 12.0658 639.745 12.1242 630.978C12.2615 612.316 18.9399 594.719 30.2192 580.572C30.463 580.265 30.6158 579.894 30.6553 579.505C30.6947 579.115 30.6209 578.723 30.4424 578.375C9.3773 537.584 21.7382 488.878 58.3918 461.736C58.8862 461.368 59.2639 460.864 59.4785 460.285C59.6914 459.705 59.7309 459.076 59.5936 458.474C51.456 423.348 64.4178 386.935 92.9852 365.063C100.23 359.513 108.145 355.621 116.729 353.389C117.101 353.289 117.431 353.069 117.664 352.76C117.898 352.453 118.021 352.075 118.016 351.689C117.649 329.807 123.549 310.206 135.716 292.889C150.4 272.002 170.418 261.192 195.77 260.459C196.026 260.448 196.271 260.361 196.472 260.206C196.671 260.052 196.817 259.841 196.886 259.6C203.385 236.997 216.783 219.314 237.076 206.551C256.704 194.19 277.809 191.021 300.391 197.04C300.869 197.167 301.372 197.15 301.837 196.99C302.302 196.831 302.707 196.539 303.001 196.147C326.126 165.314 372.359 148.129 407.931 168.92C408.163 169.049 408.426 169.11 408.69 169.098C408.955 169.086 409.209 169.001 409.425 168.851C434.833 151.157 461.564 146.847 489.616 155.924C507.746 161.795 524.691 173.898 535.009 189.864C535.182 190.127 535.434 190.326 535.728 190.432C536.023 190.537 536.342 190.544 536.639 190.448C578.821 177.177 623.715 208.543 630.17 251.463C630.203 251.663 630.304 251.845 630.459 251.978C630.613 252.11 630.809 252.184 631.012 252.184C658.686 251.96 681.932 265.094 696.284 288.751C706.036 304.798 709.989 323.18 708.147 343.895C708.106 344.319 708.204 344.745 708.424 345.109C708.642 345.473 708.973 345.758 709.366 345.921C740.646 358.934 757.265 394.025 755.273 426.61C755.27 426.71 755.29 426.808 755.333 426.895C755.375 426.984 755.44 427.06 755.519 427.117C755.598 427.173 755.689 427.208 755.783 427.22C755.879 427.23 755.976 427.214 756.063 427.177C790.684 413.18 827.585 407.549 866.762 410.283C866.851 410.287 866.939 410.266 867.018 410.222C867.095 410.177 867.159 410.112 867.201 410.034C867.244 409.956 867.265 409.866 867.26 409.777C867.255 409.688 867.226 409.602 867.174 409.528C848.049 383.158 843.431 346.195 860.358 317.388C860.575 317.027 860.674 316.606 860.64 316.186C860.606 315.763 860.441 315.362 860.169 315.036C843.345 295.172 836.752 264.012 847.585 239.994C847.642 239.871 847.669 239.735 847.669 239.598C847.668 239.46 847.637 239.325 847.579 239.199C847.52 239.074 847.434 238.963 847.33 238.872C847.223 238.781 847.101 238.714 846.967 238.672C828.151 233.465 809.958 225.855 792.39 215.839C776.39 206.723 763.445 198.517 752.853 185.4C742.037 171.992 735.736 152.473 747.204 137.743C759.6 121.845 785.592 123.51 803.447 127.665C803.587 127.695 803.733 127.684 803.867 127.632C804.001 127.58 804.116 127.491 804.2 127.374C804.284 127.258 804.333 127.119 804.339 126.975C804.345 126.832 804.308 126.69 804.236 126.566C796.087 112.946 790.426 98.2964 787.257 82.6164C783.652 64.796 786.107 39.4561 801.97 27.1295C832.014 3.83256 865.698 40.057 880.857 63.2852C880.945 63.4169 881.07 63.5197 881.214 63.5812C881.36 63.6425 881.521 63.6597 881.678 63.6303C881.832 63.6011 881.976 63.5266 882.09 63.4164C882.203 63.3062 882.282 63.1651 882.316 63.0105C885.142 49.9286 889.497 37.2529 895.381 24.9835C901.201 12.8286 911.244 2.44196 924.824 0.416141C945.752 -2.70843 960.276 12.2105 968.207 30.1339C978.01 52.2806 979.641 79.0454 977.032 103.184C974.457 126.91 968.946 149.28 960.499 170.293C960.458 170.393 960.441 170.502 960.449 170.61C960.459 170.718 960.494 170.822 960.551 170.914C960.607 171.006 960.684 171.083 960.777 171.139C960.87 171.195 960.975 171.229 961.083 171.237C967.56 171.741 973.586 173.269 979.161 175.821C1001.99 186.31 1019.33 206.448 1022.32 231.822C1022.36 232.128 1022.49 232.415 1022.71 232.634C1022.92 232.856 1023.2 232.998 1023.51 233.041C1038.38 235.126 1051.94 241.014 1064.18 250.707C1086.54 268.449 1098.99 291.876 1101.53 320.993C1101.57 321.36 1101.74 321.702 1102.01 321.949C1102.28 322.196 1102.63 322.334 1102.99 322.332H1113.93C1114.18 322.334 1114.41 322.248 1114.61 322.092C1114.8 321.935 1114.93 321.717 1114.98 321.474C1116.3 314.584 1117.57 309.799 1118.79 307.121C1126.63 289.696 1140.3 270.742 1156.63 261.128C1171.36 252.431 1188.21 248.767 1207.2 250.141C1242.29 252.664 1262.88 287.721 1263.67 320.031C1263.67 320.107 1263.69 320.181 1263.73 320.243C1263.77 320.304 1263.83 320.354 1263.9 320.385C1263.97 320.416 1264.05 320.426 1264.12 320.416C1264.19 320.404 1264.26 320.373 1264.32 320.323C1269.32 316.055 1275.1 312.117 1281.66 308.512C1293.47 302.039 1305.08 296.494 1318.3 296.597C1340.84 296.752 1358.93 314.572 1365.56 334.865C1371.57 353.337 1372.68 372.401 1368.89 392.051C1368.85 392.23 1368.88 392.415 1368.97 392.575C1369.05 392.736 1369.19 392.861 1369.36 392.932C1369.53 393.002 1369.71 393.012 1369.89 392.963C1370.06 392.911 1370.21 392.801 1370.32 392.652C1396.47 354.941 1428.82 323.757 1467.38 299.104C1513.08 269.884 1563.4 256.208 1618.3 258.072C1652.98 259.252 1684.05 268.316 1711.54 285.266C1751.9 310.177 1779.59 351.775 1791.47 397.785C1800.88 434.181 1802.08 470.8 1800.28 508.278C1798.79 539.411 1793.52 570.679 1784.47 602.084C1774.92 635.23 1760.71 665.767 1741.79 693.692ZM864.067 180.01C862.051 182.849 859.064 183.707 855.105 182.585C846.161 177.967 841.336 169.521 833.473 165.314C815.464 155.649 797.575 147.168 777.18 148.455C769.523 148.936 762.312 151.323 764.424 160.336C765.214 163.735 766.982 167.026 769.729 170.207C772.361 174.121 774.879 177.039 777.283 178.962C797.998 195.502 821.152 207.519 846.744 215.015C853.416 216.972 860.14 218.792 866.916 220.474C867.711 220.679 868.467 221.022 869.148 221.487L872.307 223.668C878.024 228.492 876.445 236.338 872.685 241.728C868.072 246.788 865.32 252.294 864.427 258.244C862.247 272.837 866.367 292.717 878.677 302.554C882.648 305.725 885.171 307.901 886.248 309.078C889.887 313.01 891.123 318.692 886.934 322.538C884.411 324.856 880.977 327.019 878.865 329.886C874.127 336.284 871.591 344.314 871.26 353.973C870.745 369.448 874.779 383.192 883.363 395.21C890.471 405.15 902.952 414.747 913.493 418.335C929.962 423.944 942.49 428.729 951.074 432.688C972.166 442.429 992.15 454.91 1011.02 470.131C1023.39 480.1 1034.31 492.199 1043.8 506.424C1060.74 531.798 1070.79 570.22 1049.94 596.006C1049.7 596.314 1049.56 596.695 1049.56 597.088C1049.56 597.483 1049.7 597.864 1049.94 598.17C1058.37 608.436 1063.61 621.175 1064.23 634.943C1065.19 656.283 1061.64 674.962 1049.64 693.126C1049.11 693.92 1048.75 694.81 1048.58 695.744C1048.41 696.679 1048.42 697.639 1048.62 698.568C1050.89 708.893 1051.32 719.593 1049.93 730.672C1049.41 734.861 1049.86 735.668 1052.64 738.363C1064.57 749.917 1081.26 757.265 1097.74 753.488C1099.11 753.179 1102.84 751.984 1108.93 749.9C1109.53 749.696 1110.17 749.61 1110.8 749.643C1117.86 750.037 1124.69 756.218 1128.71 758.518C1150.87 771.223 1177.6 767.755 1194.6 748.183C1197.43 744.933 1200.37 741.306 1203.44 737.299C1205.68 734.38 1208.64 732.847 1212.3 732.698C1220.61 732.354 1227.17 733.075 1235.03 730.655C1245.27 727.52 1253.78 720.749 1260.54 710.345C1271.6 693.383 1278.6 669.76 1270.12 651.407C1268.77 648.489 1267.87 645.21 1268.96 642.703C1273.08 633.182 1276.24 624.758 1278.45 617.432C1284.75 596.521 1279.34 574.735 1271.19 555.044C1265.87 542.202 1258.14 530.906 1246.38 524.141C1245.82 523.822 1245.23 523.563 1244.61 523.369C1240.18 521.985 1237.42 520.612 1236.34 519.248C1234.04 516.388 1232.94 513.887 1233.04 511.746C1233.52 501.629 1233.47 492.346 1232.89 483.9C1232.79 482.629 1232.26 480.765 1231.29 478.303C1229.43 465.152 1222.12 454.405 1209.35 446.061C1198.61 439.069 1186.5 434.765 1173.02 433.151C1163.68 432.018 1156.87 430.507 1157.88 420.103C1158.89 409.614 1159.85 398.008 1157.23 388.6C1151.53 368.205 1137.26 355.123 1118.32 347.002C1113.7 345.023 1110.09 344.061 1107.49 344.118C1097.46 344.341 1088.49 346.092 1083.39 339.586C1082.39 338.327 1081.78 334.889 1081.57 329.268C1081.1 317.056 1078.14 305.365 1072.71 294.194C1063.2 274.691 1041.81 255.909 1018.35 256.441C1011.72 256.591 1007.77 256.333 1006.51 255.669C1002.07 253.277 1000.13 249.547 1000.71 244.475C1002.41 229.242 998.056 216.727 987.641 206.929C978.645 198.482 968.213 193.344 956.344 191.512C954.719 191.272 951.118 191.129 945.546 191.083C941.813 191.061 938.215 190.815 934.747 190.345C931.061 185.974 930.311 181.549 932.498 177.074C939.417 162.911 945.958 149.177 949.082 133.622C954.954 111.487 956.796 89.0543 954.61 66.324C953.5 54.8443 950.65 44.4291 946.061 35.0783C943.125 29.1038 935.468 21.8761 928 23.9878C919.725 26.3226 915.639 33.4816 912.377 41.5334C909.16 49.465 906.717 57.4595 905.046 65.5171C903.489 73.0136 902.585 81.3173 902.334 90.4278C902.173 96.0017 901.876 108.546 901.441 128.06C901.338 132.97 897.115 136.884 892.308 134.309C886.917 131.425 885.08 123.785 883.672 119.356C878.865 104.145 872.359 90.4106 864.152 78.1527C854.83 64.2123 845.525 52.0059 831.533 45.173C817.988 38.5634 809.026 51.1818 808.528 63.3882C808.024 75.7148 810.576 87.7094 816.185 99.3723C823.602 114.778 832.929 130.04 844.169 145.159C847.797 150.023 854.423 158.705 864.049 171.203C865.88 173.584 865.886 176.519 864.067 180.01ZM548.194 754.896C548.424 754.668 548.573 754.372 548.623 754.055C548.673 753.735 548.618 753.411 548.468 753.128C541.92 740.355 538.528 726.971 538.288 712.972C538.161 705.624 539.397 694.906 541.996 680.816C544.387 667.849 547.043 657.399 549.962 649.467C568.067 600.127 594.363 555.892 628.849 516.759C643.04 500.656 660.07 485.222 679.94 470.457C696.054 458.486 712.273 448.134 728.594 439.4C730.002 438.641 731.051 437.35 731.513 435.812C734.328 426.21 734.672 416.493 732.543 406.661C728.354 387.33 714.98 367.879 693.846 365.544C690.526 365.178 687.899 363.341 685.966 360.033C684.833 358.076 684.713 354.821 685.606 350.264C691.529 320.1 680.181 288.563 650.841 276.888C641.718 273.261 632.42 272.27 622.943 273.918C615.973 275.137 610.324 269.987 610.032 262.862C608.642 228.561 579.8 204.457 545.739 210.448C540.331 211.41 532.347 216.388 527.094 213.659C524.301 212.217 521.927 209.877 519.969 206.637C500.501 174.602 460.894 163.357 427.915 182.499C420.361 186.877 411.846 198.74 403.004 192.079C390.769 182.854 377.201 179.759 362.299 182.791C341.776 186.969 326.607 198.002 316.787 215.891C311.224 226.037 304.46 222.414 296.219 218.981C283.326 213.607 267.583 215.341 255.446 221.11C236.411 230.164 223.839 244.922 217.728 265.386C215.719 272.064 217.367 279.24 209.281 282.365C207.839 282.914 204.96 282.961 200.645 282.502C185.074 280.854 170.55 286.485 159.288 298.091C146.422 311.344 139.813 327.791 139.459 347.431C139.401 350.534 139.504 355.535 139.768 362.436C140.111 371.278 133.605 372.771 126.669 373.87C115.424 375.656 105.363 381.304 97.4317 389.751C81.7505 406.496 75.9769 426.462 80.1093 449.65C80.7153 453.049 81.608 456.421 82.7875 459.761C84.3326 464.1 84.8476 467.224 84.3326 469.135C83.3592 472.74 81.4192 475.156 78.5127 476.38C68.3939 480.65 60.3077 487.265 54.2543 496.226C40.932 515.959 38.0186 537.127 45.5158 559.731C47.1296 564.63 49.8181 569.482 53.5848 574.289C55.6449 576.91 56.3711 580.126 55.7651 583.937C55.5127 585.541 53.5607 588.133 49.9108 591.714C41.9895 599.498 36.9765 608.838 34.8717 619.733C29.8003 646.115 37.052 667.643 56.6235 684.318C59.5249 686.791 62.1172 689.469 62.2374 692.834C62.907 712.8 70.6669 731.359 86.8048 743.136C102.325 754.456 120.104 756.527 140.146 749.351C144.426 747.818 148.627 748.818 152.747 752.355C153.054 752.618 153.325 752.923 153.554 753.265C164.301 769.3 178.121 779.343 197.641 780.837C215.65 782.21 226.792 775.703 239.96 764.853C243.176 762.199 246.913 761.277 251.171 762.089C253.07 762.445 256.252 764.625 260.716 768.63C281.3 787.12 315.774 788.717 337.062 770.948C341.055 767.607 343.792 765.432 345.268 764.424C352.479 759.48 357.492 763.325 364.153 768.802C373.88 776.814 385.63 781.05 399.399 781.506C419.576 782.183 436.207 775.178 449.289 760.493C459.985 748.458 468.397 760.372 479.024 764.579C500.724 773.18 530.665 772.407 548.194 754.896ZM1187.82 414.112C1196.91 416.711 1205.79 420.093 1214.46 424.258C1244.61 438.731 1256.39 470.371 1255.14 502.372C1255.12 502.884 1255.23 503.389 1255.47 503.842C1255.7 504.297 1256.05 504.683 1256.47 504.965C1272.18 515.368 1283.51 529.355 1290.47 546.923C1294.9 558.117 1298.09 568.641 1300.06 578.495C1304.09 598.685 1302.09 618.423 1294.07 637.707C1293.98 637.925 1293.95 638.161 1293.97 638.394C1293.99 638.628 1294.07 638.854 1294.2 639.052C1294.32 639.249 1294.49 639.416 1294.7 639.534C1294.9 639.653 1295.12 639.721 1295.36 639.733C1301.73 640.054 1307.57 638.343 1312.87 634.6C1316.44 632.076 1320.51 629.158 1322.91 625.965C1323.64 625.008 1324.14 623.899 1324.37 622.721C1324.6 621.542 1324.56 620.327 1324.25 619.166C1317.48 593.598 1315.45 567.583 1318.18 541.12C1320.59 517.681 1325.17 494.963 1331.91 472.964C1334.4 464.804 1337.78 455.16 1342.02 444.036L1346.45 434.988C1346.53 434.816 1346.57 434.628 1346.55 434.437C1346.54 434.248 1346.48 434.066 1346.37 433.908C1346.27 433.75 1346.13 433.623 1345.96 433.539C1345.79 433.455 1345.61 433.416 1345.42 433.426C1334.47 433.941 1330.67 430.181 1335.45 419.52C1340.88 407.423 1344.51 398.02 1346.33 391.313C1351.48 372.411 1350.73 335.757 1332.48 323.688C1325.54 319.104 1318.45 317.405 1310.57 319.946C1297.18 324.284 1285.33 331.185 1275.03 340.65C1268.43 346.705 1262.5 351.919 1257.25 356.29C1248.94 363.209 1242.62 354.282 1242.69 346.556C1242.72 342.516 1242.38 333.246 1241.68 318.744C1240.89 302.493 1234.95 289.325 1223.87 279.24C1220.04 275.738 1214.91 272.82 1209.9 272.133C1198.41 270.565 1186.79 271.995 1175.05 276.425C1163.54 280.751 1154.93 289.85 1147.73 299.636C1141.41 308.21 1137.43 317.703 1135.77 328.118C1135.62 329.012 1135.74 329.93 1136.12 330.756C1136.5 331.58 1137.12 332.277 1137.9 332.753C1155.7 343.672 1169.14 356.204 1175.85 376.634C1179.74 388.458 1181.1 399.88 1179.91 410.901C1179.86 411.358 1179.98 411.817 1180.26 412.184C1180.53 412.553 1180.93 412.805 1181.38 412.893L1187.82 414.112ZM1401.96 717.384C1457.22 772.802 1539.93 788.665 1613.2 764.081C1668.31 745.608 1710.23 709.739 1738.97 656.472C1762.99 611.99 1776.19 559.37 1778.79 509.205C1779.58 493.823 1779.58 476.375 1778.75 456.86C1777.94 437.254 1774.99 418.347 1769.88 400.137C1762.68 374.454 1750.39 351.535 1733.02 331.379C1696.5 288.992 1638.42 274.863 1585.61 280.837C1540.15 285.977 1499.06 301.954 1462.35 328.77C1390.76 381.046 1344.31 460.517 1339.28 549.516C1335.79 611.389 1358.66 673.949 1401.96 717.384ZM1011.21 499.351L993.29 483.213C979.818 473.049 966.422 464.696 953.1 458.148C938.438 451.04 923.382 444.889 907.931 439.692C897.64 436.236 888.359 434.387 880.084 434.147C874.407 432.579 868.541 431.75 862.487 431.658C838.6 431.27 819.298 432.437 804.58 435.16C795.56 436.832 788.15 438.679 782.347 440.705C771.13 444.643 756.87 450.549 739.565 458.422C720.943 466.893 702.132 479.281 683.134 495.591C657.193 517.875 633.707 541.67 615.475 568.16C592.973 600.872 576.239 636.368 565.276 674.653C563.294 681.566 561.773 689.538 560.709 698.568C557.928 722.088 563.49 742.243 577.396 759.033C583.577 766.496 592.428 773.935 603.955 781.352C634.325 800.889 669.743 814.194 704.868 820.615C715.873 822.624 726.431 822.967 736.646 822.297C754.535 821.12 770.283 814.601 783.892 802.743C799.766 788.918 814.211 772.174 827.224 752.51C845.433 725.019 863.682 699.649 881.973 676.404C899.759 653.801 921.052 635.888 945.855 622.668C961.157 614.52 978.81 607.332 998.818 601.105C1015.64 595.869 1038.66 588.521 1040.74 567.799C1043.21 543.043 1028.5 516.896 1011.21 499.351ZM585.396 796.408C586.655 817.113 596.264 832.799 614.221 843.465C620.63 847.289 629.364 849.498 640.42 850.092C641.16 850.139 641.888 850.283 642.583 850.521C646.061 851.689 648.437 852.959 649.708 854.333C652.867 857.784 656.231 864.908 660.42 868.857C671.121 878.952 684.414 883.874 700.302 883.621C702.487 883.587 707.191 883.084 714.414 882.111C715.063 882.032 715.715 882.044 716.354 882.145C724.251 883.45 730.792 889.956 734.878 892.223C747.582 899.261 762.57 901.287 776.218 896.223C779.549 894.998 782.203 894.248 784.184 893.974C785.601 893.781 787.036 893.869 788.407 894.231C795.743 896.166 801.833 897.287 806.674 897.596C823.418 898.66 837.879 893.235 850.058 881.321C851.029 880.371 854.041 876.812 859.088 870.642C861.467 867.736 863.895 866.259 866.367 866.213C890.653 865.722 909.235 854.992 922.111 834.023C924.675 829.858 926.541 826.459 927.708 823.825C930.215 818.211 934.026 814.074 939.606 813.319C959.486 810.63 973.804 800.06 982.56 781.609C985.976 774.433 985.581 765.162 995.487 763.24C1005.23 761.351 1013.01 756.671 1018.84 749.196C1025.54 740.578 1029.18 731.074 1029.74 720.68C1029.86 718.507 1029.52 714.071 1028.71 707.375C1027.64 698.602 1027.14 688.507 1031.3 682.55C1041.63 667.763 1045.65 651.122 1043.35 632.626C1042.33 624.34 1038.91 617.192 1033.09 611.183C1032.71 610.802 1032.23 610.558 1031.7 610.489C1031.17 610.421 1030.64 610.532 1030.18 610.805C1017.27 618.634 1006.42 621.261 987.624 627.492C981.375 629.565 971.766 633.839 958.799 640.317C935.508 651.957 915.622 667.975 899.141 688.37C878.076 714.465 864.719 734.724 840.032 770.845C829.353 786.468 818.434 798.657 805.833 811.344C794.615 822.606 782.014 831.335 768.029 837.525C744.526 847.912 717.47 845.508 693.211 840.255C654.846 831.97 619.411 817.061 586.907 795.532C586.754 795.435 586.579 795.38 586.399 795.375C586.217 795.371 586.039 795.416 585.882 795.507C585.726 795.598 585.597 795.73 585.511 795.89C585.426 796.048 585.386 796.228 585.396 796.408Z" fill="#553630"/>
<path d="M949.083 133.621L945.152 133.587C944.889 133.581 944.63 133.643 944.398 133.766C944.166 133.889 943.971 134.07 943.83 134.291C931.503 153.427 914.632 166.481 893.219 173.45C884.439 176.312 874.722 178.498 864.068 180.008C865.887 176.518 865.881 173.582 864.05 171.202C854.424 158.704 847.797 150.022 844.17 145.158C832.93 130.039 823.603 114.777 816.186 99.3712C810.577 87.7085 808.025 75.7137 808.529 63.3871C809.027 51.1807 817.989 38.5623 831.534 45.1719C845.526 52.0048 854.831 64.2112 864.153 78.1516C872.36 90.4095 878.866 104.144 883.673 119.355C885.081 123.784 886.918 131.424 892.309 134.308C897.116 136.883 901.339 132.969 901.442 128.059C901.877 108.545 902.174 96.0006 902.335 90.4267C902.586 81.3161 903.49 73.0127 905.047 65.516C906.718 57.4585 909.161 49.4639 912.378 41.5323C915.64 33.4805 919.726 26.3215 928.001 23.9867C935.469 21.875 943.126 29.1027 946.062 35.0772C950.651 44.428 953.501 54.8432 954.611 66.3229C956.797 89.0532 954.955 111.486 949.083 133.621Z" fill="#FA7116"/>
<path d="M949.083 133.62C945.959 149.174 939.418 162.908 932.499 177.072C930.314 181.547 931.062 185.972 934.748 190.343C933.809 190.401 932.877 190.612 931.95 190.978C930.782 191.448 929.872 191.733 929.22 191.836C923.486 192.822 916.425 195.036 908.035 198.48C894.884 203.883 884.395 211.854 876.566 222.395C876.422 222.593 876.226 222.747 876.003 222.845C875.78 222.941 875.536 222.975 875.296 222.945C873.579 222.738 872.583 222.979 872.308 223.666L869.149 221.485C868.468 221.02 867.712 220.677 866.918 220.472C860.141 218.79 853.418 216.97 846.745 215.013C821.153 207.517 798 195.5 777.284 178.96C774.88 177.037 772.362 174.119 769.73 170.205C779.435 172.666 794.979 176.289 816.358 181.072C829.624 184.025 842.539 184.529 855.106 182.583C859.067 183.705 862.054 182.847 864.068 180.007C874.724 178.497 884.441 176.311 893.219 173.449C914.632 166.479 931.503 153.426 943.83 134.289C943.971 134.069 944.166 133.888 944.398 133.764C944.63 133.641 944.889 133.58 945.152 133.586L949.083 133.62Z" fill="#FA7116"/>
<path d="M855.108 182.585C842.541 184.53 829.624 184.027 816.36 181.074C794.979 176.289 779.436 172.667 769.73 170.207C766.983 167.025 765.216 163.735 764.427 160.335C762.315 151.322 769.525 148.936 777.182 148.455C797.578 147.167 815.465 155.648 833.474 165.314C841.337 169.52 846.163 177.967 855.108 182.585Z" fill="#FA7116"/>
<path d="M548.195 754.895C530.666 772.406 500.725 773.178 479.025 764.577C468.398 760.371 459.986 748.457 449.29 760.491C436.208 775.177 419.579 782.181 399.4 781.505C385.631 781.048 373.883 776.813 364.154 768.801C357.493 763.324 352.48 759.478 345.27 764.423C343.793 765.431 341.058 767.606 337.063 770.947C315.775 788.715 281.302 787.119 260.717 768.629C256.254 764.624 253.073 762.443 251.172 762.088C246.914 761.276 243.179 762.198 239.961 764.852C226.794 775.702 215.652 782.209 197.642 780.835C178.122 779.342 164.302 769.298 153.555 753.264C153.328 752.922 153.057 752.616 152.748 752.354C148.628 748.817 144.429 747.816 140.147 749.349C120.107 756.526 102.326 754.455 86.8061 743.135C70.6682 731.357 62.9083 712.799 62.2388 692.832C62.1186 689.467 59.5262 686.789 56.6248 684.317C37.0534 667.642 29.8033 646.113 34.873 619.731C36.9795 608.836 41.9926 599.497 49.9122 591.713C53.5638 588.132 55.5158 585.539 55.7664 583.936C56.3742 580.125 55.6463 576.909 53.5861 574.288C49.8212 569.481 47.131 564.629 45.5172 559.729C38.0216 537.126 40.9333 515.958 54.2556 496.225C60.3108 487.263 68.3969 480.648 78.514 476.379C81.4222 475.155 83.3622 472.739 84.3339 469.134C84.8489 467.223 84.3339 464.099 82.7888 459.76C81.6111 456.419 80.7184 453.047 80.1106 449.648C75.98 426.461 81.7536 406.495 97.4331 389.749C105.365 381.303 115.425 375.654 126.67 373.869C133.606 372.77 140.113 371.277 139.769 362.435C139.507 355.533 139.404 350.532 139.46 347.43C139.816 327.79 146.425 311.343 159.289 298.089C170.551 286.484 185.075 280.853 200.647 282.501C204.963 282.959 207.84 282.913 209.282 282.364C217.368 279.239 215.72 272.063 217.729 265.385C223.841 244.92 236.414 230.163 255.447 221.108C267.585 215.34 283.328 213.606 296.221 218.98C304.461 222.413 311.226 226.036 316.788 215.889C326.608 198 341.779 186.968 362.3 182.789C377.202 179.758 390.772 182.853 403.005 192.077C411.847 198.739 420.362 186.875 427.916 182.498C460.896 163.356 500.502 174.6 519.971 206.636C521.928 209.875 524.304 212.215 527.095 213.657C532.349 216.387 540.332 211.408 545.74 210.447C579.801 204.455 608.643 228.559 610.034 262.861C610.326 269.986 615.974 275.136 622.944 273.917C632.421 272.269 641.721 273.259 650.842 276.887C680.182 288.561 691.53 320.099 685.607 350.263C684.714 354.819 684.835 358.074 685.968 360.032C687.902 363.34 690.529 365.177 693.848 365.542C714.981 367.877 728.355 387.329 732.544 406.66C734.673 416.492 734.33 426.209 731.514 435.811C731.054 437.349 730.003 438.64 728.596 439.399C712.276 448.132 696.057 458.485 679.942 470.456C660.073 485.22 643.043 500.654 628.85 516.758C594.366 555.89 568.07 600.125 549.963 649.466C547.045 657.398 544.39 667.848 541.997 680.815C539.4 694.905 538.164 705.623 538.289 712.97C538.529 726.969 541.923 740.353 548.47 753.126C548.621 753.41 548.676 753.734 548.626 754.053C548.576 754.371 548.425 754.666 548.195 754.895ZM635.889 504.946C637.159 504.1 639.357 501.914 642.481 498.388C644.222 496.421 646.476 494.285 649.245 491.984C664.594 479.292 675.387 470.536 681.624 465.717C693.23 456.78 707.113 447.914 723.274 439.124C726.536 437.339 728.539 435.308 729.282 433.03C735.188 414.832 728.836 394.402 716.441 380.067C711.04 373.807 703.943 369.886 695.153 368.306C684.354 366.366 682.002 358.795 683.015 348.237C684.229 335.51 684.223 325.673 682.998 318.725C682.186 314.136 679.519 307.824 674.997 299.789C674.657 299.199 674.221 298.677 673.71 298.244C671.25 296.174 668.577 293.638 665.692 290.639C659.563 284.235 652.49 281.093 643.168 277.591C639.288 276.132 635.442 276.286 632.18 277.196C632.038 277.241 631.908 277.32 631.803 277.428C631.698 277.536 631.624 277.67 631.588 277.814C631.552 277.958 631.554 278.108 631.595 278.25C631.636 278.393 631.713 278.52 631.82 278.621C641.927 288.247 648.301 300.024 650.945 313.953C653.881 329.37 647.717 342.64 639.254 355.31C639.08 355.568 638.993 355.877 639.008 356.189C639.024 356.502 639.14 356.802 639.339 357.044C643.494 362.04 649.554 367.019 654.293 373.045C668.576 391.267 670.918 411.913 661.314 434.987C656.394 446.81 649.039 456.224 639.254 463.228C636.565 465.163 634.745 466.485 633.794 467.194C633.175 467.661 632.692 468.286 632.402 469.003C632.11 469.721 632.023 470.502 632.146 471.263C634.162 483.819 634.922 494.772 634.429 504.122C634.423 504.297 634.465 504.472 634.55 504.625C634.635 504.78 634.761 504.907 634.912 504.991C635.065 505.077 635.236 505.118 635.408 505.111C635.581 505.102 635.748 505.046 635.889 504.946ZM507.924 431.812C497.906 431.533 488.165 436.074 480.842 444.436C473.519 452.799 469.215 464.299 468.877 476.406C468.709 482.4 469.521 488.364 471.264 493.955C473.008 499.547 475.65 504.656 479.039 508.993C482.428 513.331 486.498 516.809 491.017 519.232C495.536 521.652 500.413 522.971 505.375 523.11C515.392 523.39 525.133 518.849 532.455 510.486C539.779 502.122 544.083 490.623 544.421 478.516C544.588 472.521 543.778 466.559 542.033 460.967C540.291 455.375 537.649 450.265 534.26 445.928C530.871 441.591 526.8 438.113 522.282 435.691C517.763 433.268 512.884 431.95 507.924 431.812ZM275.963 525.428C295.98 524.895 308.479 508.775 310.659 489.89C312.359 474.954 308.788 459.056 298.504 447.468C291.053 439.08 282.739 435.004 273.559 435.244C264.381 435.485 256.3 439.995 249.318 448.773C239.652 460.893 236.94 476.962 239.429 491.796C242.605 510.526 255.945 525.96 275.963 525.428ZM390.679 535.076C382.267 535.11 367.845 530.441 363.571 522.234C361.682 518.629 360.309 512.552 357.476 510.457C348.617 503.899 341.304 513.324 343.209 522.183C347.725 543.111 370.713 554.768 390.782 554.647C410.868 554.544 433.719 542.647 438.011 521.668C439.814 512.792 432.414 503.453 423.624 510.097C420.809 512.225 419.504 518.32 417.667 521.943C413.461 530.2 399.091 535.024 390.679 535.076ZM47.8005 602.649C44.6536 605.259 42.633 607.721 41.7402 610.031C38.0096 619.68 36.504 630.152 37.2251 641.449C38.135 655.801 42.2724 665.518 50.8392 674.943C55.5776 680.162 62.2044 685.639 64.0929 693.45C66.9084 705.056 68.1789 714.292 72.2477 722.327C81.5184 740.645 103.047 753.607 124.078 749.727C132.645 748.148 142.653 745.16 151.117 749.401C156.491 752.096 161.315 760.251 165.452 764.114C180.543 778.14 201.419 780.338 219.944 773.848C226.382 771.582 233.729 765.075 239.103 762.328C253.713 754.877 261.851 768.56 274.126 774.466C289.52 781.872 305.658 782.25 322.539 775.599C333.767 771.187 341.355 759.461 355.622 761.968C362.352 763.152 370.987 771.29 376.738 773.625C395.682 781.306 414.034 780.337 431.796 770.723C441.771 765.316 449.136 751.118 463.849 754.465C467.214 755.238 471.042 757.487 474.665 759.41C495.352 770.38 525.911 770.466 543.834 753.59C544.061 753.38 544.215 753.102 544.277 752.795C544.339 752.488 544.303 752.167 544.178 751.873C536.589 734.386 534.193 715.746 536.984 695.957C538.919 682.281 541.568 668.809 544.933 655.544C545.46 653.473 546.124 651.595 546.924 649.913C547.029 649.689 547.062 649.439 547.019 649.197C546.976 648.954 546.859 648.73 546.686 648.556C546.511 648.381 546.287 648.266 546.045 648.223C545.802 648.18 545.553 648.213 545.328 648.316C535.954 652.745 523.49 657.707 513.962 657.295C508.824 657.078 504.549 657.123 501.137 657.432C500.547 657.489 499.982 657.712 499.512 658.076C499.041 658.44 498.682 658.933 498.476 659.492C494.803 669.496 488.88 678.291 480.708 685.879C459.385 705.691 427.882 704.695 404.757 688.592C404.133 688.154 403.375 687.952 402.614 688.017C401.855 688.082 401.143 688.413 400.602 688.952C387.76 701.777 374.009 712.078 354.575 712.764C336.754 713.382 321.396 706.922 308.496 693.382C308.146 693.014 307.663 692.802 307.155 692.788C306.647 692.776 306.152 692.965 305.783 693.313C301.996 696.918 298.894 699.957 296.478 702.429C283.207 716.026 262.28 722.224 243.687 713.932C231.978 708.73 223.944 700.077 216.493 689.45C216.352 689.246 216.168 689.074 215.955 688.946C215.743 688.817 215.506 688.736 215.258 688.707C215.011 688.678 214.761 688.702 214.524 688.776C214.287 688.851 214.069 688.976 213.883 689.141C206.312 695.991 200.029 700.438 189.47 704.283C168.56 711.889 146.877 705.382 133.984 687.115C128.777 679.733 125.515 672.076 124.198 664.145C124.167 663.949 124.093 663.762 123.985 663.594C123.877 663.427 123.736 663.285 123.57 663.175C123.403 663.065 123.216 662.991 123.02 662.957C122.824 662.922 122.624 662.931 122.43 662.977C117.52 664.213 112.318 667.853 106.618 668.797C91.6715 671.247 78.5603 666.909 67.2861 655.784C53.3114 641.981 48.9164 622.564 48.5731 603.01C48.5696 602.922 48.5422 602.838 48.4924 602.764C48.4443 602.69 48.3756 602.632 48.2967 602.596C48.2177 602.558 48.1284 602.544 48.0409 602.553C47.9533 602.563 47.8709 602.596 47.8005 602.649Z" fill="#FFF4E9"/>
<path d="M1231.29 478.303C1225.77 488.557 1219.51 496.479 1212.51 502.063C1209.97 504.089 1207.9 505.681 1206.29 506.836C1194.74 515.162 1176.8 518.613 1163 518.545C1154.48 518.51 1147.79 513.617 1141.95 508.227C1141.1 507.442 1140.05 506.903 1138.92 506.664C1137.78 506.426 1136.61 506.496 1135.51 506.87C1134.79 507.111 1131.25 508.438 1124.88 510.853C1117.48 513.669 1107.78 510.39 1098.36 506.699C1097.21 506.247 1096.17 505.536 1095.34 504.621C1090.08 498.865 1085.95 492.643 1082.94 485.96C1082.87 485.795 1082.76 485.647 1082.62 485.531C1082.48 485.412 1082.32 485.326 1082.14 485.28C1081.97 485.232 1081.78 485.223 1081.6 485.256C1081.42 485.287 1081.25 485.357 1081.1 485.462C1076.77 488.496 1072.46 490.72 1068.19 492.14C1061.71 494.286 1055.13 491.127 1049.79 487.419C1047.79 486.023 1044.77 482.458 1040.73 476.723C1037.06 471.492 1033.34 465.003 1029.57 457.255C1028.78 455.638 1027.49 454.321 1025.89 453.495C1018.13 449.512 1007.4 443.4 1002.2 436.499C996.524 428.979 992.724 420.974 990.802 412.481C989.377 406.232 990.681 396.892 990.321 392.48C990.3 392.235 990.206 392.001 990.048 391.814C989.892 391.627 989.68 391.493 989.445 391.433C989.021 391.33 988.582 391.553 988.123 392.103C987.689 392.63 987.013 393.012 986.097 393.253C981.634 394.477 977.423 395.823 973.462 397.287C962.389 401.408 945.015 402.867 935.452 394.283C929.787 389.201 925.701 383.925 923.194 378.454C922.671 377.318 922.334 376.105 922.198 374.866C920.928 363.26 920.511 355.427 920.945 351.363C922.502 336.805 925.764 322.756 930.731 309.216C930.877 308.821 930.942 308.4 930.921 307.98C930.901 307.559 930.798 307.147 930.614 306.766C930.432 306.386 930.175 306.048 929.859 305.77C929.543 305.492 929.174 305.279 928.774 305.147C925.191 303.945 920.023 301.942 913.271 299.138C905.46 295.876 898.507 290.863 892.807 286.176C883.686 278.679 878.082 268.797 875.999 256.527C875.153 251.526 874.047 246.592 872.686 241.728C876.446 236.338 878.025 228.492 872.308 223.668C872.583 222.981 873.579 222.741 875.296 222.947C875.536 222.978 875.78 222.943 876.003 222.845C876.226 222.749 876.422 222.595 876.566 222.397C884.395 211.856 894.884 203.885 908.035 198.482C916.425 195.037 923.486 192.822 929.22 191.838C929.872 191.735 930.782 191.449 931.95 190.98C932.877 190.614 933.809 190.401 934.748 190.345C938.216 190.813 941.816 191.061 945.547 191.083C951.121 191.129 954.72 191.272 956.346 191.512C968.214 193.344 978.647 198.482 987.643 206.929C998.058 216.727 1002.41 229.242 1000.71 244.475C1000.14 249.545 1002.07 253.277 1006.51 255.669C1007.77 256.333 1011.72 256.591 1018.36 256.441C1041.81 255.909 1063.2 274.691 1072.71 294.194C1078.15 305.365 1081.1 317.056 1081.57 329.268C1081.79 334.887 1082.39 338.327 1083.39 339.586C1088.49 346.092 1097.47 344.341 1107.49 344.118C1110.09 344.061 1113.7 345.023 1118.33 347.002C1137.26 355.123 1151.53 368.205 1157.23 388.6C1159.85 398.008 1158.89 409.614 1157.88 420.104C1156.87 430.507 1163.68 432.018 1173.02 433.151C1186.5 434.765 1198.61 439.069 1209.35 446.061C1222.12 454.405 1229.44 465.152 1231.29 478.303Z" fill="#FF9738"/>
<path d="M872.687 241.726C874.048 246.591 875.154 251.524 876 256.525C878.083 268.795 883.686 278.678 892.808 286.174C898.507 290.861 905.46 295.874 913.272 299.136C920.024 301.941 925.192 303.943 928.775 305.144C929.175 305.278 929.544 305.489 929.86 305.767C930.175 306.046 930.433 306.386 930.615 306.765C930.799 307.144 930.902 307.556 930.922 307.977C930.943 308.398 930.878 308.818 930.732 309.213C925.765 322.753 922.503 336.802 920.946 351.36C920.512 355.424 920.929 363.258 922.199 374.863C922.337 376.103 922.671 377.315 923.195 378.451C925.702 383.923 929.787 389.199 935.453 394.28C945.015 402.864 962.389 401.405 973.463 397.285C977.423 395.82 981.635 394.476 986.098 393.25C987.013 393.01 987.69 392.627 988.124 392.1C988.583 391.551 989.022 391.327 989.446 391.43C989.681 391.491 989.892 391.624 990.049 391.812C990.207 392 990.301 392.232 990.322 392.478C990.682 396.89 989.377 406.229 990.802 412.478C992.725 420.971 996.524 428.977 1002.2 436.496C1007.4 443.398 1018.13 449.51 1025.89 453.493C1027.49 454.318 1028.78 455.637 1029.57 457.252C1033.34 465.002 1037.06 471.492 1040.73 476.721C1044.77 482.455 1047.79 486.021 1049.79 487.417C1055.13 491.125 1061.71 494.284 1068.2 492.138C1072.47 490.72 1076.77 488.493 1081.11 485.459C1081.26 485.355 1081.43 485.284 1081.6 485.253C1081.78 485.221 1081.97 485.229 1082.14 485.277C1082.32 485.325 1082.48 485.41 1082.62 485.528C1082.76 485.645 1082.87 485.792 1082.94 485.957C1085.95 492.643 1090.08 498.862 1095.34 504.619C1096.17 505.534 1097.21 506.245 1098.36 506.696C1107.78 510.387 1117.48 513.666 1124.88 510.851C1131.25 508.437 1134.79 507.108 1135.51 506.868C1136.61 506.495 1137.78 506.423 1138.92 506.662C1140.05 506.9 1141.1 507.441 1141.95 508.224C1147.79 513.615 1154.48 518.508 1163 518.542C1176.8 518.611 1194.74 515.16 1206.29 506.834C1207.9 505.678 1209.97 504.087 1212.51 502.061C1219.51 496.476 1225.77 488.556 1231.29 478.3C1232.26 480.762 1232.8 482.627 1232.89 483.897C1233.47 492.344 1233.52 501.626 1233.04 511.744C1232.94 513.884 1234.04 516.386 1236.34 519.246C1237.43 520.609 1240.18 521.983 1244.61 523.366C1245.23 523.56 1245.82 523.82 1246.38 524.139C1258.14 530.903 1265.87 542.2 1271.19 555.041C1279.34 574.733 1284.75 596.519 1278.45 617.43C1276.24 624.755 1273.08 633.179 1268.96 642.701C1267.88 645.207 1268.77 648.486 1270.12 651.405C1278.61 669.758 1271.6 693.381 1260.55 710.343C1253.78 720.746 1245.28 727.517 1235.03 730.652C1227.17 733.073 1220.61 732.352 1212.3 732.695C1208.64 732.845 1205.69 734.378 1203.44 737.296C1200.38 741.303 1197.43 744.931 1194.6 748.181C1177.61 767.752 1150.88 771.22 1128.71 758.516C1124.7 756.215 1117.86 750.035 1110.81 749.64C1110.17 749.606 1109.54 749.693 1108.94 749.898C1102.85 751.982 1099.11 753.177 1097.74 753.486C1081.26 757.263 1064.57 749.915 1052.64 738.361C1049.86 735.665 1049.41 734.858 1049.93 730.669C1051.32 719.591 1050.89 708.89 1048.62 698.565C1048.42 697.637 1048.41 696.675 1048.58 695.741C1048.76 694.807 1049.12 693.916 1049.64 693.123C1061.64 674.959 1065.19 656.281 1064.23 634.941C1063.61 621.172 1058.38 608.434 1049.95 598.167C1049.7 597.862 1049.56 597.48 1049.56 597.085C1049.56 596.692 1049.7 596.309 1049.95 596.004C1070.79 570.218 1060.74 531.796 1043.8 506.421C1034.31 492.196 1023.39 480.098 1011.03 470.128C992.153 454.907 972.17 442.426 951.076 432.685C942.492 428.726 929.964 423.941 913.495 418.333C902.954 414.745 890.473 405.148 883.365 395.207C874.781 383.19 870.747 369.445 871.262 353.97C871.593 344.311 874.129 336.282 878.867 329.883C880.979 327.016 884.413 324.853 886.936 322.535C891.125 318.69 889.889 313.007 886.25 309.076C885.173 307.898 882.649 305.723 878.678 302.552C866.369 292.715 862.249 272.834 864.429 258.241C865.322 252.291 868.074 246.785 872.687 241.726Z" fill="#FF822B"/>
<path d="M1342.02 444.033C1328.68 449.905 1315.36 453.362 1302.07 454.403C1292.84 455.124 1284.84 455.502 1276.85 451.999C1276.4 451.798 1276.02 451.459 1275.76 451.028C1275.5 450.598 1275.39 450.097 1275.43 449.596C1276.39 437.956 1279.67 429.355 1285.33 416.942C1290.6 405.388 1293.59 397.56 1296.92 386.984C1297.82 384.169 1298.26 381.691 1298.26 379.551C1298.26 378.948 1298.1 378.357 1297.78 377.842C1297.47 377.327 1297.02 376.91 1296.48 376.637C1295.95 376.362 1295.34 376.242 1294.74 376.29C1294.14 376.338 1293.56 376.551 1293.08 376.907C1283.83 383.661 1275.25 392.451 1267.32 403.277C1265.32 406.001 1259.25 411.387 1249.09 419.432C1248.85 419.624 1248.57 419.76 1248.27 419.828C1247.97 419.897 1247.66 419.897 1247.36 419.827C1230.74 415.929 1220.42 398.161 1215.68 382.521C1212.56 372.203 1208.71 363.035 1205.98 352.511C1203.68 343.601 1200.08 334.021 1190.79 330.656C1190.53 330.567 1190.25 330.539 1189.98 330.579C1189.71 330.617 1189.45 330.721 1189.23 330.879C1183.29 335.051 1180.63 346.176 1179.2 353.387C1177.23 363.292 1175.1 367.876 1177.38 375.07C1181.49 387.963 1184.16 396.066 1183.43 408.547C1183.41 408.813 1183.45 409.081 1183.54 409.335C1183.63 409.589 1183.77 409.823 1183.96 410.024L1187.82 414.11L1181.38 412.891C1180.93 412.803 1180.53 412.551 1180.26 412.182C1179.98 411.814 1179.86 411.356 1179.91 410.899C1181.1 399.877 1179.75 388.456 1175.85 376.632C1169.14 356.202 1155.7 343.669 1137.9 332.751C1137.12 332.275 1136.5 331.58 1136.12 330.754C1135.74 329.928 1135.62 329.01 1135.77 328.115C1137.43 317.701 1141.42 308.207 1147.73 299.634C1154.93 289.848 1163.54 280.749 1175.05 276.423C1186.79 271.993 1198.41 270.563 1209.9 272.131C1214.91 272.817 1220.04 275.736 1223.87 279.238C1234.95 289.323 1240.89 302.49 1241.68 318.742C1242.39 333.243 1242.72 342.514 1242.69 346.554C1242.62 354.279 1248.94 363.207 1257.25 356.288C1262.5 351.917 1268.43 346.703 1275.03 340.648C1285.33 331.183 1297.18 324.282 1310.57 319.943C1318.45 317.402 1325.54 319.102 1332.48 323.686C1350.73 335.755 1351.48 372.409 1346.33 391.311C1344.51 398.018 1340.88 407.421 1335.45 419.518C1330.67 430.179 1334.47 433.939 1345.42 433.424C1345.61 433.413 1345.8 433.453 1345.96 433.537C1346.13 433.621 1346.27 433.75 1346.38 433.906C1346.48 434.064 1346.54 434.246 1346.56 434.435C1346.57 434.625 1346.53 434.814 1346.45 434.986L1342.02 444.033Z" fill="#759724"/>
<path d="M635.889 504.947C635.747 505.047 635.58 505.104 635.409 505.112C635.235 505.121 635.064 505.08 634.913 504.994C634.76 504.908 634.634 504.781 634.55 504.628C634.464 504.474 634.423 504.3 634.43 504.123C634.921 494.774 634.161 483.821 632.147 471.264C632.023 470.503 632.111 469.722 632.401 469.005C632.691 468.287 633.173 467.662 633.795 467.195C634.744 466.486 636.564 465.164 639.254 463.229C649.04 456.225 656.393 446.812 661.315 434.988C670.917 411.914 668.577 391.268 654.293 373.046C649.555 367.02 643.495 362.041 639.34 357.045C639.141 356.803 639.024 356.503 639.009 356.19C638.993 355.878 639.079 355.569 639.254 355.311C647.718 342.642 653.881 329.371 650.946 313.954C648.302 300.025 641.926 288.248 631.821 278.622C631.712 278.521 631.635 278.394 631.594 278.251C631.554 278.111 631.551 277.959 631.589 277.815C631.625 277.671 631.699 277.537 631.802 277.429C631.906 277.321 632.037 277.242 632.181 277.197C635.443 276.287 639.289 276.133 643.169 277.592C652.491 281.094 659.564 284.236 665.693 290.64C668.577 293.639 671.248 296.175 673.71 298.245C674.22 298.678 674.656 299.2 674.998 299.79C679.518 307.825 682.184 314.138 682.998 318.727C684.222 325.674 684.227 335.512 683.015 348.238C682.003 358.797 684.355 366.368 695.153 368.308C703.943 369.887 711.039 373.808 716.441 380.068C728.837 394.403 735.189 414.833 729.283 433.031C728.538 435.309 726.536 437.34 723.274 439.125C707.112 447.915 693.23 456.781 681.625 465.719C675.386 470.538 664.594 479.293 649.246 491.986C646.475 494.286 644.221 496.422 642.482 498.389C639.357 501.916 637.16 504.101 635.889 504.947Z" fill="#FFE9D3"/>
<path d="M1342.02 444.034C1337.77 455.159 1334.4 464.803 1331.91 472.962C1325.17 494.961 1320.59 517.68 1318.17 541.119C1315.45 567.582 1317.48 593.597 1324.25 619.165C1324.56 620.325 1324.6 621.541 1324.37 622.72C1324.14 623.898 1323.64 625.007 1322.91 625.963C1320.51 629.157 1316.44 632.075 1312.87 634.599C1307.57 638.341 1301.73 640.053 1295.36 639.732C1295.12 639.72 1294.9 639.651 1294.69 639.533C1294.49 639.413 1294.32 639.248 1294.19 639.05C1294.07 638.851 1293.99 638.626 1293.97 638.393C1293.95 638.159 1293.98 637.924 1294.07 637.706C1302.09 618.421 1304.09 598.683 1300.06 578.494C1298.09 568.64 1294.89 558.116 1290.46 546.922C1283.51 529.354 1272.18 515.367 1256.47 504.964C1256.05 504.682 1255.7 504.294 1255.47 503.841C1255.23 503.388 1255.12 502.881 1255.13 502.371C1256.39 470.37 1244.61 438.73 1214.46 424.257C1205.79 420.092 1196.91 416.71 1187.82 414.111L1183.95 410.025C1183.77 409.824 1183.63 409.59 1183.54 409.336C1183.45 409.082 1183.41 408.814 1183.42 408.548C1184.16 396.067 1181.48 387.964 1177.38 375.071C1175.1 367.877 1177.22 363.294 1179.2 353.388C1180.62 346.177 1183.28 335.052 1189.22 330.88C1189.45 330.721 1189.71 330.618 1189.98 330.578C1190.25 330.54 1190.53 330.568 1190.79 330.657C1200.08 334.022 1203.68 343.602 1205.98 352.512C1208.71 363.036 1212.56 372.204 1215.68 382.522C1220.42 398.162 1230.74 415.931 1247.36 419.828C1247.66 419.896 1247.97 419.898 1248.27 419.829C1248.57 419.761 1248.85 419.625 1249.09 419.433C1259.24 411.388 1265.32 406.002 1267.32 403.278C1275.24 392.452 1283.83 383.662 1293.07 376.908C1293.56 376.552 1294.14 376.339 1294.74 376.291C1295.34 376.243 1295.94 376.363 1296.48 376.636C1297.02 376.911 1297.47 377.328 1297.78 377.843C1298.1 378.357 1298.26 378.949 1298.26 379.552C1298.26 381.692 1297.81 384.17 1296.92 386.985C1293.59 397.561 1290.6 405.389 1285.33 416.943C1279.67 429.356 1276.39 437.957 1275.43 449.597C1275.39 450.098 1275.5 450.598 1275.76 451.029C1276.01 451.46 1276.39 451.8 1276.85 452C1284.83 455.503 1292.83 455.125 1302.07 454.404C1315.36 453.364 1328.67 449.906 1342.02 444.034Z" fill="#759724"/>
<path d="M507.927 431.813C512.887 431.951 517.766 433.269 522.285 435.691C526.803 438.114 530.874 441.592 534.263 445.929C537.652 450.265 540.292 455.376 542.036 460.968C543.779 466.559 544.591 472.522 544.423 478.517C544.085 490.624 539.782 502.123 532.458 510.487C525.136 518.85 515.393 523.391 505.376 523.111C500.416 522.972 495.537 521.655 491.018 519.232C486.5 516.81 482.431 513.332 479.042 508.994C475.651 504.657 473.011 499.548 471.267 493.956C469.524 488.365 468.712 482.402 468.88 476.407C469.219 464.3 473.523 452.799 480.845 444.437C488.167 436.074 497.91 431.533 507.927 431.813ZM518.868 452.863C516.363 452.911 513.989 454.315 512.265 456.767C510.54 459.218 509.61 462.516 509.675 465.935C509.707 467.627 509.984 469.299 510.489 470.853C510.993 472.409 511.716 473.816 512.616 474.996C513.515 476.177 514.573 477.106 515.732 477.732C516.889 478.357 518.123 478.668 519.363 478.644C521.868 478.596 524.242 477.192 525.965 474.74C527.691 472.288 528.621 468.99 528.556 465.572C528.523 463.88 528.247 462.207 527.742 460.652C527.238 459.098 526.515 457.69 525.615 456.509C524.716 455.33 523.658 454.399 522.499 453.775C521.342 453.148 520.108 452.839 518.868 452.863Z" fill="#553630"/>
<path d="M953.101 458.148C948.133 459.121 943.48 458.589 939.143 456.551C926.655 450.704 918.552 447.138 914.834 445.856C914.293 445.665 913.718 445.624 913.168 445.736C884.601 451.573 858.334 460.62 833.543 475.35C824.616 480.655 812.581 486.887 801.147 493.926C793.267 498.785 786.555 504.914 777.936 511.231C764.786 520.897 748.15 536.382 740.15 544.383C726.529 558.014 712.36 573.678 697.642 591.371C691.175 599.155 684.891 608.071 678.791 618.119C673.148 627.39 665.28 640.163 655.186 656.438C647.014 669.606 639.872 688.988 634.12 701.658C629.554 711.697 624.936 724.023 620.266 738.638C619.442 741.203 619.143 744.019 619.373 747.085C619.389 747.306 619.339 747.526 619.231 747.72C619.122 747.912 618.959 748.07 618.762 748.173C618.565 748.276 618.34 748.321 618.116 748.302C617.893 748.283 617.68 748.199 617.502 748.063L602.789 736.492C602.459 736.235 602.221 735.879 602.106 735.478C601.991 735.076 602.008 734.65 602.154 734.26C608.871 716.155 612.242 707.061 612.266 706.98C621.914 680.954 633.731 656.256 647.717 632.884C651.014 627.379 654.561 621.879 658.362 616.385C663.632 608.745 667.512 601.329 672.817 594.548C680.131 585.242 688.663 572.057 697.573 562.083C704.835 553.98 709.265 547.851 716.647 541.413C726.123 533.121 735.308 522.476 744.922 514.322C771.921 491.397 800.883 471.723 831.809 455.298C836.18 452.975 843.197 449.966 852.857 446.268C861.922 442.79 870.997 438.748 880.086 434.147C888.361 434.388 897.642 436.237 907.932 439.692C923.383 444.889 938.44 451.04 953.101 458.148Z" fill="#FF8157"/>
<path d="M273.559 435.246C282.737 435.006 291.053 439.082 298.504 447.472C308.788 459.06 312.359 474.956 310.659 489.892C308.479 508.777 295.98 524.897 275.962 525.43C255.945 525.962 242.605 510.528 239.429 491.798C236.94 476.965 239.652 460.895 249.318 448.775C256.298 439.997 264.379 435.487 273.559 435.246ZM288.835 456.038C286.512 456.009 284.27 457.283 282.6 459.579C280.929 461.872 279.968 465 279.928 468.274C279.909 469.895 280.115 471.503 280.538 473.006C280.958 474.509 281.587 475.878 282.387 477.033C283.185 478.19 284.14 479.111 285.194 479.744C286.248 480.378 287.383 480.711 288.533 480.724C290.854 480.752 293.098 479.48 294.768 477.184C296.437 474.891 297.398 471.763 297.438 468.489C297.458 466.868 297.251 465.259 296.83 463.757C296.408 462.253 295.779 460.885 294.981 459.73C294.181 458.572 293.228 457.652 292.173 457.019C291.118 456.385 289.984 456.052 288.835 456.038Z" fill="#553630"/>
<path d="M528.554 465.569C528.417 458.452 524.08 452.76 518.866 452.86C513.652 452.961 509.535 458.814 509.673 465.933C509.808 473.053 514.147 478.742 519.361 478.643C524.574 478.541 528.69 472.689 528.554 465.569Z" fill="#FFF4E9"/>
<path d="M297.438 468.488C297.523 461.672 293.67 456.097 288.836 456.039C283.999 455.979 280.013 461.457 279.929 468.275C279.846 475.09 283.697 480.665 288.533 480.725C293.368 480.783 297.356 475.305 297.438 468.488Z" fill="#FFF4E9"/>
<path d="M993.287 483.212L1011.21 499.35C986.329 505.302 967.913 510.543 955.964 515.076C953.252 516.106 943.569 520.535 926.916 528.364C915.551 533.698 906.114 538.603 898.606 543.077C876.31 556.365 856.104 571.102 837.986 587.284C831.222 593.339 825.459 599.017 820.698 604.315C811.273 614.822 798.139 626.839 788.388 640.367C780.079 651.928 772.623 663.453 766.018 674.944C758.064 688.781 750.957 702.018 744.696 714.653C736.781 730.602 730.944 748.44 726.068 762.518C724.146 768.058 723.172 772.475 723.15 775.771C723.15 776.054 723.05 776.329 722.868 776.545C722.686 776.762 722.434 776.908 722.154 776.956C715.539 778.135 708.373 777.998 700.66 776.544C700.536 776.525 700.421 776.468 700.328 776.384C700.237 776.298 700.172 776.188 700.141 776.065C700.11 775.941 700.116 775.811 700.155 775.689C700.196 775.567 700.27 775.459 700.368 775.376C701.57 774.358 702.399 773.22 702.857 771.96C707.321 759.817 711.132 748.646 714.291 738.448C717.45 728.199 722.188 719.563 726.652 709.417C741.571 675.493 762.31 643.458 786.208 613.637C792.525 605.752 798.036 599.669 802.74 595.387C811.17 587.679 816.767 581.292 824.956 574.734C832.716 568.52 843.343 558.287 852.802 551.695C869.592 539.986 880.139 532.857 884.443 530.304C899.734 521.239 919.598 511.362 944.033 500.672C950.74 497.743 967.158 491.923 993.287 483.212Z" fill="#FF8157"/>
<path d="M1361.32 650.565L1361.78 650.428C1361.84 650.413 1361.9 650.418 1361.95 650.438C1362 650.461 1362.05 650.498 1362.08 650.548C1368.13 661.33 1375.72 670.738 1384.84 678.772C1401.08 693.073 1416.98 705.812 1436.91 713.332C1466.77 724.611 1503.33 731.821 1535.83 728.731C1543.68 727.993 1558.93 726.826 1570.11 724.268C1589.6 719.804 1607.55 713.39 1623.97 705.022C1642.22 695.717 1662.13 683.785 1678.15 669.364C1690.41 658.32 1701.36 647.132 1710.99 635.801C1730.56 612.796 1746.13 587.027 1757.69 558.494C1761.93 548.033 1765.55 538.35 1768.54 529.445C1771.47 520.783 1773.45 512.41 1774.44 504.329C1774.46 504.193 1774.51 504.063 1774.61 503.968C1774.7 503.872 1774.84 503.821 1774.98 503.822C1775.11 503.826 1775.23 503.882 1775.34 503.98C1775.42 504.078 1775.49 504.21 1775.47 504.346C1776.06 512.93 1774.72 522.544 1774.13 530.304C1773.76 535.226 1773.38 538.895 1772.97 541.309C1768.28 569.545 1762.65 593.013 1756.07 611.714C1743.09 648.706 1723.61 681.039 1697.63 708.713C1691.38 715.375 1683.25 722.477 1673.22 730.019C1640.81 754.414 1598.47 769.007 1559.64 772.029C1542.93 773.323 1525.09 772.333 1506.11 769.059C1450.44 759.428 1405.7 727.341 1375.59 680.283C1373.63 677.239 1371.16 672.449 1368.17 665.914C1365.93 661.016 1363.53 656.157 1360.99 651.338C1360.96 651.268 1360.94 651.189 1360.93 651.11C1360.93 651.029 1360.95 650.95 1360.98 650.876C1361.01 650.802 1361.06 650.737 1361.11 650.684C1361.17 650.631 1361.24 650.589 1361.32 650.565Z" fill="#FFDABB"/>
<path d="M390.78 554.648C370.711 554.768 347.723 543.111 343.208 522.184C341.302 513.325 348.616 503.9 357.474 510.458C360.307 512.552 361.68 518.63 363.569 522.235C367.844 530.441 382.265 535.111 390.677 535.077C399.089 535.025 413.459 530.201 417.665 521.943C419.502 518.321 420.807 512.226 423.622 510.097C432.412 503.453 439.812 512.793 438.009 521.669C433.717 542.648 410.867 554.545 390.78 554.648Z" fill="#553630"/>
<path d="M48.577 603.01C48.9204 622.564 53.3154 641.981 67.2901 655.784C78.5626 666.909 91.6737 671.248 106.622 668.798C112.322 667.854 117.524 664.214 122.434 662.978C122.626 662.931 122.827 662.923 123.022 662.957C123.22 662.992 123.407 663.065 123.572 663.175C123.738 663.285 123.881 663.428 123.989 663.594C124.097 663.762 124.169 663.95 124.202 664.145C125.517 672.077 128.779 679.734 133.988 687.116C146.881 705.383 168.564 711.889 189.474 704.284C200.033 700.438 206.316 695.992 213.887 689.142C214.071 688.977 214.291 688.852 214.528 688.776C214.765 688.702 215.013 688.678 215.261 688.707C215.508 688.737 215.745 688.819 215.959 688.946C216.172 689.075 216.354 689.247 216.497 689.451C223.948 700.078 231.982 708.73 243.691 713.932C262.284 722.224 283.211 716.027 296.482 702.43C298.896 699.958 301.998 696.919 305.787 693.314C306.156 692.965 306.649 692.776 307.157 692.788C307.665 692.802 308.148 693.015 308.5 693.382C321.398 706.923 336.758 713.383 354.579 712.765C374.013 712.078 387.764 701.777 400.606 688.953C401.145 688.416 401.857 688.083 402.616 688.017C403.377 687.952 404.136 688.155 404.761 688.592C427.886 704.696 459.389 705.692 480.712 685.88C488.884 678.292 494.807 669.496 498.48 659.493C498.685 658.933 499.044 658.44 499.514 658.076C499.984 657.712 500.549 657.489 501.141 657.433C504.551 657.124 508.826 657.079 513.966 657.295C523.494 657.707 535.958 652.746 545.332 648.316C545.555 648.213 545.804 648.181 546.048 648.224C546.29 648.267 546.513 648.382 546.688 648.557C546.861 648.73 546.978 648.955 547.021 649.197C547.064 649.441 547.031 649.69 546.928 649.913C546.127 651.595 545.462 653.474 544.937 655.544C541.572 668.81 538.921 682.281 536.988 695.957C534.195 715.747 536.593 734.386 544.182 751.874C544.307 752.167 544.341 752.488 544.279 752.795C544.218 753.103 544.063 753.381 543.838 753.59C525.915 770.466 495.356 770.381 474.668 759.41C471.046 757.487 467.218 755.238 463.853 754.466C449.14 751.118 441.775 765.316 431.8 770.724C414.036 780.338 395.684 781.306 376.742 773.625C370.991 771.29 362.356 763.153 355.626 761.968C341.359 759.462 333.771 771.187 322.543 775.6C305.66 782.251 289.522 781.873 274.13 774.467C261.855 768.561 253.717 754.878 239.107 762.329C233.733 765.076 226.386 771.582 219.948 773.849C201.423 780.338 180.547 778.14 165.456 764.114C161.319 760.251 156.495 752.097 151.121 749.401C142.657 745.161 132.648 748.148 124.082 749.728C103.051 753.607 81.5223 740.646 72.2516 722.327C68.1828 714.293 66.9124 705.056 64.0968 693.451C62.2084 685.64 55.5815 680.163 50.8432 674.944C42.2764 665.519 38.1389 655.802 37.229 641.449C36.5079 630.153 38.0119 619.68 41.7442 610.032C42.6369 607.721 44.6558 605.259 47.8045 602.65C47.8731 602.596 47.9572 602.564 48.0431 602.553C48.1306 602.545 48.2199 602.559 48.2989 602.596C48.3796 602.634 48.4465 602.691 48.4963 602.765C48.5444 602.838 48.5719 602.923 48.577 603.01Z" fill="#FFE9D3"/>
<path d="M585.396 796.407C585.386 796.227 585.425 796.047 585.511 795.887C585.597 795.729 585.726 795.597 585.882 795.506C586.038 795.415 586.217 795.368 586.399 795.374C586.579 795.379 586.756 795.434 586.907 795.532C619.411 817.06 654.846 831.969 693.211 840.254C717.469 845.508 744.526 847.911 768.029 837.524C782.014 831.332 794.615 822.605 805.832 811.343C818.434 798.656 829.353 786.467 840.031 770.844C864.719 734.723 878.075 714.464 899.14 688.369C915.622 667.974 935.507 651.956 958.799 640.316C971.766 633.838 981.375 629.564 987.624 627.492C1006.42 621.26 1017.27 618.633 1030.18 610.804C1030.64 610.531 1031.17 610.418 1031.7 610.487C1032.23 610.555 1032.71 610.801 1033.08 611.182C1038.91 617.191 1042.33 624.339 1043.35 632.625C1045.65 651.122 1041.63 667.762 1031.3 682.549C1027.14 688.506 1027.64 698.601 1028.71 707.374C1029.52 714.07 1029.86 718.504 1029.74 720.679C1029.18 731.071 1025.54 740.577 1018.84 749.195C1013.01 756.67 1005.23 761.35 995.487 763.239C985.581 765.161 985.976 774.432 982.559 781.608C973.804 800.059 959.486 810.629 939.605 813.318C934.026 814.073 930.214 818.21 927.708 823.824C926.54 826.458 924.674 829.857 922.111 834.022C909.235 854.991 890.654 865.721 866.367 866.212C863.895 866.258 861.469 867.735 859.088 870.641C854.04 876.812 851.029 880.37 850.057 881.32C837.878 893.234 823.418 898.659 806.674 897.595C801.832 897.286 795.743 896.165 788.407 894.23C787.035 893.868 785.6 893.78 784.184 893.973C782.204 894.247 779.548 894.998 776.218 896.222C762.569 901.286 747.582 899.26 734.877 892.222C730.791 889.955 724.25 883.449 716.353 882.144C715.714 882.041 715.062 882.031 714.413 882.11C707.191 883.083 702.487 883.586 700.301 883.62C684.416 883.873 671.121 878.951 660.42 868.856C656.231 864.907 652.866 857.783 649.707 854.332C648.437 852.958 646.061 851.688 642.583 850.521C641.887 850.282 641.159 850.138 640.419 850.091C629.363 849.496 620.63 847.288 614.221 843.465C596.263 832.798 586.654 817.112 585.396 796.407ZM776.733 858.177C777.008 864.267 780.178 868.542 786.244 871.002C801.467 877.194 816.162 876.381 830.331 868.564C837.387 864.667 844.993 853.113 851.98 852.77C859.694 852.38 866.286 851.825 871.757 851.104C893.544 848.203 904.617 833.456 917.647 814.554C921.905 808.39 922.197 804.716 931.124 802.176C935.976 800.802 942.301 798.158 950.095 794.244C958.816 789.861 965.568 784.127 970.353 777.042C975.126 769.986 976.482 764.629 980.379 754.706C981.165 752.711 982.63 751.053 984.517 750.019C988.156 748.028 993.032 746.191 996.191 743.959C1010.3 733.967 1015.11 715.1 1013.36 698.498C1013.16 696.587 1012.74 693.046 1012.07 687.871C1011.44 682.875 1013.53 679.425 1016.45 674.978C1017.23 673.785 1017.54 672.341 1017.32 670.926C1016.26 664.324 1014.26 659.475 1011.32 656.385C1003.64 648.333 986.731 649.364 976.722 653.535C962.976 659.259 950.345 666.657 938.833 675.733C921.709 689.25 905.795 704.907 891.089 722.705C879.363 736.903 865.405 758.569 857.937 769.934C847.602 785.66 839.166 797.356 832.632 805.025C816.825 823.555 799.056 839.538 779.325 852.976C778.486 853.547 777.808 854.325 777.353 855.235C776.899 856.146 776.687 857.159 776.733 858.177Z" fill="#FFF4E9"/>
<path d="M1741.79 693.693C1741.81 694.322 1741.86 694.66 1741.94 694.706C1742.32 694.857 1742.75 694.876 1743.13 694.761C1743.52 694.645 1743.85 694.402 1744.07 694.071L1749.05 686.843C1749.36 686.394 1749.84 686.083 1750.37 685.976C1750.91 685.872 1751.47 685.978 1751.92 686.277C1761.02 692.193 1768.09 697.012 1773.12 700.732C1776.97 703.57 1781.77 709.076 1787.51 717.248C1795.3 728.287 1795.83 742.519 1789.91 754.743C1783.88 767.155 1770.79 776.031 1759.18 782.727C1738.2 794.835 1715.47 804.289 1691.02 811.088C1669.63 817.038 1649 821.595 1629.13 824.754C1602.97 828.908 1575.11 830.876 1545.51 830.659C1536.61 830.601 1529.93 830.309 1525.48 829.784C1516.35 828.702 1508.72 829.166 1498.78 827.741C1479.36 824.948 1466.14 822.893 1459.11 821.578C1445.79 819.088 1426.59 814.745 1410.32 808.993C1395.4 803.694 1386.08 800.317 1382.33 798.864C1365.78 792.432 1349.98 784.461 1334.93 774.949C1328.14 770.668 1322.31 765.959 1317.44 760.82C1317.15 760.515 1316.79 760.281 1316.39 760.135C1316 759.989 1315.58 759.936 1315.16 759.979C1314.74 760.022 1314.33 760.161 1313.98 760.384C1313.62 760.607 1313.32 760.908 1313.09 761.267C1306.19 772.34 1297.18 779.138 1285.83 787.516C1280.94 791.11 1275.54 794.411 1269.63 797.422C1252.41 806.178 1234.87 812.964 1216.99 817.783C1208.8 819.981 1196.63 822.831 1180.47 826.333C1176.87 827.111 1166.02 828.489 1147.92 830.471C1136.2 831.751 1125.29 832.438 1115.2 832.531C1088.73 832.781 1067.35 831.957 1051.06 830.059C1047.28 829.623 1043.9 829.423 1040.91 829.458C1040.44 829.463 1039.99 829.623 1039.62 829.911C1039.24 830.198 1038.98 830.599 1038.85 831.054C1036.27 840.279 1031.92 848.387 1025.82 855.381C1018.17 864.159 1007.39 873.258 993.497 882.678C976.957 893.917 957.037 904.053 933.735 913.083C902.225 925.294 869.709 933.375 836.187 937.324C799.114 941.685 765.678 942.725 735.874 940.449C702.556 937.908 671.563 933.128 642.893 926.113C628.001 922.462 607.412 915.212 581.122 904.362C565.774 898.027 549.619 888.876 536.932 880.275C531.792 876.783 525.285 871.485 517.412 864.377C512.914 860.326 509.371 856.078 506.785 851.639C506.339 850.876 505.685 850.258 504.898 849.858C504.114 849.46 503.23 849.297 502.356 849.39C496.747 849.973 487.155 851.004 473.582 852.48C412.955 859.038 351.381 860.714 288.855 857.51C272.116 856.652 261.283 856.6 246.811 855.192C211.823 851.804 182.424 847.884 158.619 843.432C130.086 838.098 102.554 830.75 76.024 821.389C56.0972 814.372 38.2305 804.935 22.4257 793.079C16.0907 788.34 8.53679 781.714 4.81049 774.795C-2.26271 761.644 -1.53582 748.899 6.99167 736.562C14.4872 725.712 25.0798 716.177 38.7696 707.96C38.8365 707.919 38.9103 707.895 38.9893 707.89C39.0666 707.883 39.1438 707.893 39.2176 707.922C39.2897 707.95 39.355 707.994 39.4082 708.051C39.4614 708.108 39.5009 708.176 39.5249 708.252L46.7355 732.115C46.9449 732.811 47.4102 733.405 48.0402 733.781C49.1493 734.443 50.4317 734.811 51.8859 734.879C68.8993 766.709 103.527 781.473 138.636 772.529C139.066 772.417 139.518 772.417 139.951 772.529C140.382 772.639 140.78 772.858 141.108 773.164C144.558 776.409 148.25 780.855 152.748 784.512C164.937 794.452 178.019 800.547 194.723 801.663C213.986 802.933 231.772 799.362 246.004 786.315C246.292 786.045 246.667 785.889 247.06 785.873C247.455 785.858 247.841 785.983 248.15 786.229C277.747 809.835 320.599 811.139 350.934 787.705C351.24 787.47 351.613 787.336 352.001 787.324C352.389 787.312 352.771 787.42 353.098 787.637C371.443 799.997 391.451 804.89 413.117 802.315C432.465 800.032 445.478 793.405 459.264 780.203C459.63 779.849 460.099 779.624 460.603 779.559C461.106 779.496 461.618 779.593 462.063 779.842C479.31 789.456 498.721 793.027 520.296 790.555C534.923 788.89 548.52 782.675 560.074 773.61C560.217 773.495 560.383 773.413 560.562 773.37C560.741 773.327 560.926 773.324 561.108 773.36C561.288 773.394 561.46 773.47 561.611 773.578C561.76 773.686 561.887 773.827 561.98 773.988C562.976 775.784 563.474 777.398 563.474 778.829C563.45 788.169 563.68 795.465 564.16 800.719C565.671 817.337 572.744 834.299 584.779 847.124C597.883 861.109 614.456 869.27 634.497 871.605C634.891 871.648 635.27 871.775 635.61 871.979C635.952 872.184 636.245 872.46 636.472 872.79C650.469 893.379 670.166 904.018 695.564 904.705C699.523 904.808 704.536 904.629 710.603 904.173C711.851 904.083 713.091 904.389 714.14 905.048C735.394 918.216 756.527 924.156 781.163 917.031C783.673 916.307 786.315 916.142 788.906 916.551C793.747 917.323 800.7 918.954 805.78 919.143C832.815 920.218 854.652 910.238 871.295 889.202C871.942 888.376 872.892 887.841 873.939 887.709C900.4 884.515 921.178 872.275 936.276 850.986C939.709 846.145 942.472 840.411 945.718 835.827C946.216 835.118 946.961 834.618 947.813 834.419C974.56 828.17 993.352 811.831 1004.19 785.405C1004.42 784.833 1004.77 784.321 1005.22 783.903C1005.67 783.485 1006.2 783.171 1006.78 782.984C1020.51 778.531 1031.43 769.936 1039.54 757.198C1039.64 757.036 1039.78 756.899 1039.94 756.794C1040.1 756.69 1040.28 756.621 1040.47 756.59C1040.66 756.561 1040.85 756.573 1041.03 756.624C1041.21 756.676 1041.38 756.765 1041.53 756.889C1056.11 769.078 1076.73 777.988 1095.94 775.224C1100.55 774.572 1105.05 773.816 1109.45 772.958C1110.44 772.769 1111.46 772.92 1112.35 773.387C1112.6 773.525 1114.66 774.668 1118.51 776.821C1143.11 790.577 1167.2 790.864 1190.79 777.679C1200.59 772.203 1208.18 764.838 1215.19 755.67C1215.53 755.218 1215.97 754.851 1216.47 754.592C1216.98 754.334 1217.54 754.192 1218.1 754.176C1222.35 754.073 1226.99 753.683 1232.03 753.009C1251.29 750.399 1268.29 736.734 1278.64 720.613C1289.82 703.227 1295.31 684.097 1295.12 663.22C1295.12 662.963 1295.21 662.716 1295.39 662.528C1295.57 662.343 1295.82 662.233 1296.08 662.225C1309.91 661.869 1321.61 657.285 1331.19 648.473C1331.33 648.348 1331.5 648.258 1331.68 648.21C1331.86 648.164 1332.05 648.162 1332.24 648.204C1332.42 648.246 1332.59 648.332 1332.73 648.452C1332.87 648.574 1332.98 648.729 1333.04 648.902C1341.65 670.922 1353.17 691.506 1367.6 710.655C1395.64 747.841 1432.27 773.147 1477.5 786.572C1499.8 793.187 1522.71 796.626 1546.22 796.89C1571.81 797.165 1599.21 791.74 1623.59 783.654C1672.77 767.344 1711.8 735.703 1741.79 693.693Z" fill="#FFBCBA"/>
<path d="M776.734 858.179C776.688 857.161 776.9 856.148 777.354 855.236C777.809 854.326 778.487 853.549 779.326 852.977C799.057 839.541 816.826 823.558 832.633 805.027C839.169 797.36 847.603 785.661 857.938 769.935C865.406 758.57 879.364 736.904 891.09 722.706C905.797 704.91 921.712 689.253 938.834 675.735C950.348 666.66 962.977 659.26 976.723 653.537C986.732 649.365 1003.64 648.335 1011.32 656.387C1014.26 659.477 1016.26 664.325 1017.33 670.928C1017.55 672.342 1017.23 673.786 1016.45 674.979C1013.53 679.426 1011.44 682.877 1012.07 687.873C1012.74 693.047 1013.17 696.589 1013.36 698.5C1015.11 715.101 1010.3 733.969 996.192 743.96C993.033 746.192 988.157 748.029 984.518 750.021C982.631 751.054 981.167 752.713 980.38 754.707C976.483 764.631 975.127 769.987 970.354 777.043C965.569 784.128 958.817 789.862 950.096 794.245C942.302 798.16 935.979 800.803 931.125 802.177C922.198 804.718 921.906 808.392 917.648 814.555C904.618 833.457 893.545 848.204 871.759 851.106C866.287 851.827 859.695 852.383 851.981 852.771C844.994 853.114 837.388 864.668 830.332 868.565C816.164 876.384 801.468 877.196 786.245 871.003C780.18 868.543 777.009 864.268 776.734 858.179ZM966.148 725.213C973.994 717.35 983.436 700.8 974.114 691.203C973.743 690.824 973.285 690.539 972.778 690.372C972.273 690.207 971.736 690.166 971.211 690.254C970.685 690.343 970.191 690.556 969.767 690.877C969.343 691.196 969.001 691.615 968.775 692.096C966.359 697.212 963.19 702.936 959.264 709.264C954.846 716.395 956.288 721.843 963.59 725.608C964.004 725.822 964.474 725.898 964.932 725.828C965.393 725.757 965.818 725.541 966.148 725.213ZM940.173 744.201C939.998 743.626 939.663 743.111 939.208 742.717C938.751 742.324 938.193 742.068 937.598 741.979C937.002 741.892 936.394 741.974 935.843 742.22C935.294 742.463 934.823 742.86 934.49 743.359C929.053 751.531 922.953 757.798 916.189 762.158C915.456 762.629 914.824 763.238 914.328 763.954C913.832 764.67 913.484 765.479 913.302 766.33C913.12 767.182 913.108 768.062 913.267 768.921C913.427 769.778 913.755 770.596 914.232 771.326L915.605 773.421C916.09 774.166 916.718 774.804 917.454 775.302C918.189 775.798 919.018 776.143 919.891 776.313C920.763 776.485 921.661 776.48 922.533 776.298C923.403 776.118 924.229 775.764 924.962 775.257C931.555 770.715 936.624 764.328 940.173 756.098C941.536 752.939 941.737 749.399 940.739 746.106L940.173 744.201ZM887.656 790.314L880.6 798.915C879.846 799.828 879 800.657 878.076 801.387C871.53 806.459 866.775 810.218 863.81 812.667C862.493 813.755 861.435 815.455 860.634 817.765C860.546 818.031 860.514 818.315 860.538 818.595C860.56 818.874 860.641 819.147 860.771 819.396C862.522 822.658 868.754 828.787 872.84 826.899C886.111 820.787 897.425 805.164 890.163 790.606C890.049 790.381 889.881 790.187 889.675 790.043C889.469 789.897 889.23 789.806 888.981 789.776C888.731 789.749 888.48 789.782 888.248 789.876C888.017 789.97 887.812 790.12 887.656 790.314Z" fill="#FFF4E9"/>
<path d="M966.147 725.212C965.817 725.542 965.393 725.756 964.933 725.827C964.473 725.897 964.003 725.821 963.589 725.607C956.287 721.842 954.845 716.395 959.263 709.263C963.189 702.935 966.36 697.211 968.774 692.095C969.002 691.614 969.342 691.197 969.766 690.876C970.19 690.555 970.686 690.342 971.21 690.253C971.735 690.165 972.272 690.207 972.779 690.371C973.284 690.538 973.742 690.823 974.113 691.202C983.435 700.799 973.993 717.349 966.147 725.212Z" fill="#FFDABB"/>
<path d="M940.177 744.198L940.743 746.104C941.741 749.397 941.54 752.937 940.177 756.096C936.628 764.326 931.559 770.713 924.966 775.255C924.233 775.762 923.407 776.115 922.535 776.296C921.665 776.478 920.767 776.483 919.895 776.311C919.022 776.141 918.193 775.796 917.457 775.3C916.722 774.802 916.092 774.163 915.61 773.418L914.236 771.324C913.759 770.594 913.431 769.775 913.271 768.919C913.112 768.06 913.124 767.179 913.306 766.328C913.487 765.475 913.836 764.668 914.332 763.952C914.827 763.236 915.46 762.626 916.193 762.156C922.957 757.795 929.057 751.529 934.494 743.357C934.827 742.858 935.298 742.461 935.847 742.217C936.398 741.972 937.006 741.889 937.602 741.977C938.197 742.066 938.755 742.322 939.212 742.715C939.667 743.108 940.002 743.623 940.177 744.198Z" fill="#FFDABB"/>
<path d="M887.655 790.313C887.813 790.119 888.016 789.969 888.248 789.875C888.479 789.78 888.732 789.746 888.981 789.775C889.23 789.804 889.468 789.895 889.676 790.041C889.882 790.186 890.049 790.38 890.162 790.604C897.424 805.163 886.11 820.786 872.839 826.898C868.753 828.786 862.521 822.657 860.77 819.395C860.64 819.146 860.561 818.873 860.537 818.593C860.513 818.312 860.545 818.03 860.633 817.764C861.435 815.453 862.494 813.754 863.809 812.665C866.774 810.217 871.529 806.457 878.076 801.386C879.001 800.656 879.847 799.827 880.599 798.914L887.655 790.313Z" fill="#FFDABB"/>
<path d="M1505.45 490.248C1505.31 485.925 1501.55 482.541 1497.06 482.69C1492.57 482.84 1489.04 486.464 1489.18 490.788C1489.33 495.111 1493.09 498.495 1497.58 498.346C1502.07 498.196 1505.59 494.571 1505.45 490.248Z" fill="#FFF4E9"/>
<path d="M1497.5 442.934C1514.57 442.934 1528.41 429.867 1528.41 413.748C1528.41 397.629 1514.57 384.562 1497.5 384.562C1480.44 384.562 1466.6 397.629 1466.6 413.748C1466.6 429.867 1480.44 442.934 1497.5 442.934Z" fill="#E94822"/>
<path d="M1505.69 561.532C1547.81 583.748 1601.32 565.046 1625.21 519.759C1649.1 474.473 1634.32 419.75 1592.2 397.533C1550.08 375.316 1496.57 394.018 1472.68 439.305C1448.79 484.592 1463.57 539.315 1505.69 561.532Z" fill="#FF822B"/>
<path d="M1509.81 450.174C1518.91 455.265 1530.72 451.471 1536.18 441.7C1541.65 431.929 1538.7 419.881 1529.6 414.789C1520.5 409.698 1508.69 413.492 1503.22 423.263C1497.76 433.034 1500.7 445.083 1509.81 450.174Z" fill="#FFF4E9"/>
<path d="M804.582 435.162C819.3 432.437 838.602 431.269 862.489 431.659C868.542 431.75 874.409 432.582 880.087 434.149C870.998 438.75 861.923 442.789 852.858 446.269C843.198 449.966 836.181 452.977 831.81 455.3C800.884 471.724 771.921 491.399 744.922 514.323C735.308 522.478 726.124 533.122 716.647 541.414C709.265 547.852 704.836 553.982 697.574 562.085C688.664 572.059 680.131 585.244 672.818 594.549C667.513 601.33 663.632 608.747 658.362 616.387C654.561 621.88 651.015 627.382 647.718 632.886C633.732 656.258 621.915 680.956 612.266 706.982C612.237 707.077 608.867 716.168 602.154 734.262C602.008 734.651 601.991 735.078 602.106 735.479C602.219 735.879 602.46 736.237 602.79 736.494L617.503 748.065C617.679 748.201 617.894 748.283 618.117 748.304C618.34 748.322 618.565 748.278 618.762 748.175C618.96 748.072 619.123 747.914 619.231 747.722C619.339 747.528 619.389 747.308 619.374 747.087C619.144 744.019 619.442 741.203 620.266 738.64C624.936 724.025 629.554 711.698 634.121 701.66C639.872 688.99 647.014 669.607 655.186 656.439C665.281 640.164 673.149 627.392 678.792 618.121C684.891 608.073 691.175 599.155 697.642 591.373C712.36 573.678 726.529 558.016 740.15 544.385C748.15 536.384 764.786 520.899 777.937 511.233C786.555 504.915 793.268 498.786 801.148 493.928C812.582 486.889 824.616 480.656 833.544 475.351C840.849 471.01 848.284 467.163 855.867 463.746C870.062 456.427 882.499 451.459 892.29 448.215C898.41 446.186 903.531 444.82 907.433 443.973C909.38 443.55 911.073 443.245 912.467 443.056C913.549 442.908 914.914 442.763 916.168 442.825L916.212 442.697C931.386 447.863 944.06 453.472 954.161 458.674C967.134 465.14 980.177 473.321 993.292 483.215C967.162 491.924 950.743 497.744 944.037 500.675C919.6 511.365 899.737 521.242 884.447 530.307C880.143 532.859 869.597 539.99 852.806 551.698C843.347 558.291 832.719 568.522 824.96 574.737C816.771 581.295 811.174 587.682 802.745 595.391C798.041 599.67 792.529 605.754 786.212 613.64C762.314 643.46 741.575 675.496 726.656 709.42C722.192 719.566 717.454 728.202 714.296 738.451C711.137 748.649 707.326 759.82 702.862 771.963C702.404 773.221 701.573 774.361 700.372 775.379C700.272 775.461 700.198 775.57 700.159 775.691C700.118 775.813 700.113 775.944 700.144 776.067C700.175 776.189 700.24 776.301 700.333 776.386C700.424 776.471 700.539 776.528 700.664 776.547C708.377 778.001 715.541 778.138 722.158 776.959C722.436 776.911 722.689 776.765 722.873 776.549C723.055 776.332 723.154 776.057 723.154 775.774C723.176 772.478 724.15 768.06 726.073 762.52C730.949 748.443 736.785 730.605 744.7 714.656C750.959 702.021 758.066 688.784 766.022 674.946C772.625 663.456 780.083 651.929 788.392 640.37C798.144 626.842 811.278 614.824 820.703 604.317C825.463 599.018 831.227 593.342 837.991 587.287C856.108 571.103 876.315 556.368 898.611 543.08C906.118 538.604 915.555 533.701 926.921 528.367C943.573 520.539 953.255 516.109 955.968 515.079C967.917 510.547 986.332 505.305 1011.22 499.352C1028.5 516.898 1043.22 543.045 1040.74 567.802C1038.67 588.523 1015.64 595.871 998.82 601.107C978.813 607.334 961.159 614.52 945.857 622.67C921.055 635.889 899.761 653.801 881.975 676.406C863.684 699.652 845.434 725.021 827.226 752.512C814.213 772.174 799.768 788.92 783.894 802.745C770.285 814.603 754.537 821.12 736.648 822.3C726.433 822.969 715.874 822.626 704.87 820.617C669.744 814.196 634.327 800.89 603.957 781.353C592.43 773.937 583.578 766.498 577.398 759.035C563.492 742.245 557.929 722.09 560.711 698.57C561.775 689.54 563.297 681.569 565.278 674.655C576.241 636.371 592.974 600.872 615.476 568.162C633.709 541.672 657.195 517.877 683.135 495.593C702.133 479.283 720.945 466.894 739.567 458.425C756.872 450.55 771.132 444.645 782.349 440.707C788.152 438.681 795.562 436.832 804.582 435.162Z" fill="#FA7116"/>
</svg>
