<?xml version="1.0" encoding="UTF-8"?>
<svg xmlns="http://www.w3.org/2000/svg" width="710" height="621" viewBox="0 0 710 621" fill="none">
  <path d="M701.475 413.475C699.755 410.135 697.985 406.995 696.165 404.055C695.865 403.575 695.835 402.965 696.095 402.455C702.635 389.435 704.355 373.575 703.505 359.035C702.415 340.535 696.425 324.165 685.525 309.915C682.415 305.855 679.305 302.155 676.185 298.815C675.745 298.345 675.575 297.685 675.745 297.065C679.955 281.295 680.905 265.215 678.595 248.815C675.205 224.775 660.485 203.325 640.955 189.505C637.685 187.195 634.925 185.435 632.675 184.225C632.385 184.075 632.205 183.765 632.215 183.445C632.235 182.695 632.045 179.795 631.655 174.745C629.125 142.095 611.185 115.065 581.895 100.655C575.705 97.6046 568.025 95.0146 558.865 92.8746C557.675 92.5946 556.735 91.6546 556.045 90.0546C548.435 72.3846 537.195 58.4146 522.315 48.1246C503.705 35.2546 480.455 29.6646 457.925 32.1746C456.435 32.3446 455.265 31.9546 454.415 31.0246C433.205 7.91457 403.095 -3.47543 371.975 0.93457C357.015 3.05457 343.275 8.28457 330.745 16.6146C330.005 17.1146 329.055 17.1846 328.245 16.8046C319.355 12.5946 310.115 10.0146 300.545 9.08457C286.905 7.74457 272.425 8.52457 259.535 13.4646C239.675 21.0746 224.005 33.9346 212.535 52.0246C212.165 52.6146 211.505 52.9546 210.815 52.9246C201.685 52.5746 192.435 54.0046 183.085 57.2346C155.375 66.7946 132.845 89.4446 124.425 117.875C124.055 119.125 123.125 120.135 121.915 120.605C100.945 128.815 84.5646 142.405 74.0846 162.455C68.1446 173.845 64.9846 185.625 64.6046 197.805C64.4146 203.915 64.4246 209.015 64.6146 213.115C64.6646 214.175 64.1746 215.175 63.3246 215.795C57.4646 220.025 51.8246 224.935 46.3946 230.525C33.8346 243.495 25.2046 261.005 21.9546 278.485C19.3946 292.295 20.4646 307.955 23.4146 321.715C23.6146 322.665 23.3346 323.645 22.6746 324.345C2.50455 345.555 -3.96545 376.255 2.29455 404.635C7.36456 427.605 18.1646 447.405 34.7146 464.035C40.0646 468.985 45.6346 473.425 51.4046 477.365C52.3046 477.975 52.9846 478.855 53.3546 479.865C66.5146 515.395 102.255 535.465 139.615 527.315C140.125 527.205 140.665 527.405 140.975 527.845C144.305 532.525 148.325 536.975 153.035 541.185C174.715 560.555 199.955 567.245 228.765 561.265C232.755 560.435 236.885 558.785 239.795 558.035C240.385 557.885 241.005 558.115 241.355 558.615C242.935 560.855 244.655 562.945 246.515 564.885C267.655 586.975 293.335 595.935 323.565 591.745C329.275 590.955 334.115 589.445 339.685 587.605C340.325 587.395 341.025 587.585 341.455 588.095C358.225 607.885 383.445 620.465 409.665 620.285C422.415 620.205 433.595 618.135 443.215 614.085C444.465 613.555 446.115 613.635 448.155 614.325C453.985 616.305 459.955 617.665 466.045 618.395C490.485 621.345 512.365 615.555 531.685 601.025C533.755 599.475 535.905 597.705 538.155 595.715C538.895 595.065 539.875 594.745 540.855 594.825C553.995 595.955 567.175 594.955 579.345 590.215C600.925 581.805 617.585 568.655 627.945 548.435C628.315 547.715 628.965 547.175 629.745 546.945C631.705 546.375 634.685 545.395 638.695 544.005C657.335 537.535 672.925 527.245 685.465 513.115C690.595 507.335 695.355 500.055 699.735 491.275C710.945 467.565 713.805 437.405 701.475 413.475ZM609.275 543.605C596.785 564.305 571.885 577.965 547.705 576.625C545.305 576.495 541.785 576.085 537.155 575.375C532.235 574.635 528.345 578.855 524.425 582.655C516.575 590.275 505.805 595.675 495.125 598.555C482.355 601.985 469.755 601.575 457.315 597.325C450.255 594.905 445.915 592.765 438.875 595.645C410.615 607.205 379.295 601.365 358.305 578.915C357.205 577.735 355.515 575.665 353.235 572.695C351.065 569.875 349.295 568.195 347.905 567.645C343.195 565.775 339.205 567.865 333.295 569.895C324.265 573.005 314.685 574.135 305.345 573.685C282.915 572.585 264.355 560.725 252.595 542.135C248.475 535.605 243.845 536.385 236.895 538.955C210.345 548.775 184.975 545.165 164.645 526.325C159.565 521.615 157.095 517.735 152.035 510.925C148.565 506.245 145.235 506.875 139.525 507.975C130.865 509.645 123.165 510.175 116.415 509.575C96.3246 507.775 79.5446 495.245 71.7446 476.965C69.2946 471.225 68.2046 466.325 62.5346 462.715C57.0046 459.185 51.8546 455.185 47.0946 450.695C34.1146 437.855 24.9846 420.915 20.8046 403.365C18.1846 392.345 17.8246 381.245 19.7146 370.075C22.1846 355.455 29.3846 344.375 38.9046 333.425C42.6846 329.085 43.6846 325.725 42.1346 320.535C36.3646 301.285 37.3246 279.095 46.6446 261.315C54.2446 246.805 64.9746 235.545 78.8346 227.525C83.5646 224.785 83.6746 220.955 83.1546 215.355C82.2046 205.125 82.2046 197.175 83.1446 191.515C86.8946 168.905 98.7646 152.345 118.745 141.845C123.735 139.215 128.515 137.265 133.085 135.975C136.675 134.965 138.935 132.725 139.855 129.275C141.585 122.795 143.555 117.265 145.765 112.685C159.045 85.2346 185.205 69.5246 215.615 71.4446C218.915 71.6546 221.705 70.2046 223.985 67.1046C226.725 63.3846 228.815 58.8446 231.805 55.1246C244.055 39.9046 259.505 30.7046 278.155 27.5146C285.745 26.2246 294.825 26.3646 305.395 27.9346C312.345 28.9646 319.545 32.5046 325.925 35.6946C330.575 38.0146 334.055 36.5946 338.455 33.4346C348.485 26.2246 358.885 21.6146 371.155 19.5646C376.335 18.6946 383.025 18.4946 391.235 18.9646C412.025 20.1546 430.675 30.4046 443.935 46.2946C448.665 51.9546 452.645 51.3846 460.355 50.3846C471.405 48.9546 482.185 49.9946 492.695 53.4846C512.765 60.1646 527.615 72.9046 537.245 91.7046C538.095 93.3646 539.745 97.5346 542.205 104.205C543.275 107.115 545.575 108.975 549.085 109.795C556.265 111.475 559.875 112.315 559.905 112.325C591.065 120.325 612.095 145.325 613.425 177.715C613.525 180.165 613.575 183.855 613.585 188.805C613.585 194.825 616.585 196.725 621.935 199.585C630.305 204.055 637.455 209.455 643.385 215.805C654.875 228.105 660.875 242.905 661.385 260.205C661.935 267.445 661.425 274.805 659.875 282.285C659.115 285.955 657.865 290.855 656.115 296.985C654.945 301.115 655.945 304.645 659.115 307.585C662.365 310.595 665.735 314.285 669.235 318.655C684.365 337.565 688.455 362.545 682.035 385.845C680.655 390.865 678.445 395.645 676.705 400.335C675.235 404.265 676.535 407.565 679.155 411.415C681.255 414.495 682.915 417.155 684.125 419.405C689.835 429.945 692.165 441.345 691.135 453.615C689.885 468.605 684.885 482.425 676.155 495.085C669.095 505.295 660.455 512.485 650.245 518.615C641.175 524.065 631.085 527.475 620.605 530.215C615.105 531.645 612.185 538.785 609.275 543.605Z" fill="#6E3821"></path>
  <path d="M661.385 260.205C659.495 251.635 657.085 243.455 654.135 235.665C650.685 226.575 642.345 217.655 635.075 211.245C630.295 207.045 626.685 205.185 620.075 201.055C614.535 197.595 611.715 192.435 611.625 185.565C611.565 181.175 611.365 176.955 611.015 172.925C609.905 159.915 604.695 147.645 596.545 137.225C592.845 132.495 588.285 128.395 582.855 124.935C576.665 120.985 571.175 118.175 566.385 116.525C559.245 114.055 552.565 112.145 546.355 110.795C545.975 110.715 545.595 110.955 545.505 111.335C545.485 111.405 545.485 111.485 545.495 111.555C547.305 131.045 541.575 147.785 528.305 161.785C527.875 162.245 527.895 162.965 528.355 163.395C528.435 163.475 528.525 163.535 528.625 163.585C549.445 174.035 563.335 193.545 564.575 216.865C565.915 241.985 551.695 263.565 528.975 274.295C528.605 274.465 528.445 274.905 528.625 275.275C528.655 275.345 528.695 275.405 528.745 275.465C543.735 291.545 549.555 310.705 546.205 332.935C545.005 340.885 542.175 348.215 537.725 354.945C527.735 370.055 513.715 379.115 495.685 382.105C495.295 382.175 495.025 382.545 495.095 382.935C495.105 383.015 495.135 383.095 495.175 383.165C507.955 405.965 506.745 433.295 489.555 453.245C478.585 465.975 464.245 473.535 446.525 475.945C445.965 476.015 442.595 476.285 436.405 476.735C436.015 476.765 435.685 477.035 435.575 477.415C434.875 479.905 434.375 482.945 433.555 485.155C428.485 498.925 419.305 508.425 406.015 513.655C389.815 520.035 370.815 516.785 358.645 504.435C358.335 504.115 357.835 504.075 357.475 504.335C340.515 516.585 318.685 518.535 299.715 510.135C287.785 504.855 278.535 496.045 271.955 483.705C271.745 483.305 271.255 483.155 270.855 483.365C270.815 483.385 270.785 483.405 270.755 483.435C259.035 492.055 247.565 497.885 232.675 497.475C216.935 497.045 203.945 491.205 193.695 479.955C188.315 474.045 184.535 467.305 182.345 459.715C182.205 459.235 181.705 458.955 181.215 459.095C181.105 459.125 181.005 459.175 180.915 459.245C152.035 481.475 108.925 472.295 96.8046 436.505C96.6746 436.125 96.2646 435.915 95.8746 436.045C95.8346 436.055 95.7946 436.075 95.7546 436.105C89.8246 439.535 83.2946 441.375 76.1746 441.615C58.1846 442.225 43.1946 436.085 31.2246 423.195C31.1146 423.065 30.9146 423.055 30.7846 423.165C30.7246 423.215 30.6946 423.285 30.6846 423.365C30.4946 424.705 30.7546 426.035 31.4646 427.345C35.1546 434.195 39.6946 440.685 45.0846 446.795C45.8346 447.635 46.5046 448.935 47.0946 450.695C34.1146 437.855 24.9846 420.915 20.8046 403.365C18.1846 392.345 17.8246 381.245 19.7146 370.075C22.1846 355.455 29.3846 344.375 38.9046 333.425C42.6846 329.085 43.6846 325.725 42.1346 320.535C36.3646 301.285 37.3246 279.095 46.6446 261.315C54.2446 246.805 64.9746 235.545 78.8346 227.525C83.5646 224.785 83.6746 220.955 83.1546 215.355C82.2046 205.125 82.2046 197.175 83.1546 191.515C86.9046 168.905 98.7746 152.345 118.755 141.845C123.745 139.215 128.525 137.265 133.095 135.975C136.685 134.965 138.945 132.725 139.865 129.275C141.595 122.795 143.565 117.265 145.775 112.685C159.055 85.2346 185.215 69.5246 215.625 71.4446C218.925 71.6546 221.715 70.2046 223.995 67.1046C226.735 63.3846 228.825 58.8446 231.815 55.1246C244.065 39.9046 259.515 30.7046 278.165 27.5146C285.755 26.2246 294.835 26.3646 305.405 27.9346C312.355 28.9646 319.555 32.5046 325.935 35.6946C330.585 38.0146 334.065 36.5946 338.465 33.4346C348.495 26.2246 358.895 21.6146 371.165 19.5646C376.345 18.6946 383.035 18.4946 391.245 18.9646C412.035 20.1546 430.685 30.4046 443.945 46.2946C448.675 51.9546 452.655 51.3846 460.365 50.3846C471.415 48.9546 482.195 49.9946 492.705 53.4846C512.775 60.1646 527.625 72.9046 537.255 91.7046C538.105 93.3646 539.755 97.5346 542.215 104.205C543.285 107.115 545.585 108.975 549.095 109.795C556.275 111.475 559.885 112.315 559.915 112.325C591.075 120.325 612.105 145.325 613.435 177.715C613.535 180.165 613.585 183.855 613.595 188.805C613.595 194.825 616.595 196.725 621.945 199.585C630.315 204.055 637.465 209.455 643.395 215.805C654.885 228.105 660.885 242.905 661.395 260.205H661.385ZM185.735 219.295C170.855 214.775 153.895 227.215 147.865 247.085C141.825 266.955 148.995 286.725 163.875 291.245C178.755 295.765 195.715 283.325 201.745 263.455C207.785 243.585 200.615 223.815 185.735 219.295ZM377.585 265.365C360.205 260.575 341.335 274.025 335.445 295.415C329.555 316.795 338.875 338.015 356.255 342.805C373.635 347.595 392.505 334.145 398.395 312.755C404.285 291.375 394.965 270.155 377.585 265.365ZM230.975 284.715C224.605 281.385 218.385 287.305 217.565 293.405C215.295 310.135 225.045 325.445 239.175 333.715C245.735 337.565 253.025 339.315 261.035 338.975C270.875 338.555 279.735 335.065 287.605 328.515C293.485 323.615 299.535 316.245 298.005 308.225C297.175 303.865 293.635 300.605 288.995 301.205C284.085 301.845 281.925 304.955 279.235 309.905C277.395 313.275 274.265 315.815 269.835 317.525C258.925 321.735 249.395 319.675 241.245 311.335C239.295 309.335 237.795 307.035 236.725 304.445C234.255 298.425 237.735 288.245 230.975 284.715Z" fill="#FFF9F2"></path>
  <path d="M185.735 219.295C170.855 214.775 153.895 227.215 147.865 247.085C141.825 266.955 148.995 286.725 163.875 291.245C178.755 295.765 195.715 283.325 201.745 263.455C207.785 243.585 200.615 223.815 185.735 219.295ZM183.045 235.545C187.365 237.035 189.545 242.075 187.915 246.815C186.285 251.555 181.465 254.185 177.145 252.695C172.825 251.205 170.645 246.165 172.275 241.425C173.905 236.685 178.725 234.055 183.045 235.545ZM171.345 241.335C171.425 241.085 171.515 240.845 171.615 240.615C171.515 240.855 171.425 241.095 171.345 241.335ZM188.895 246.965C188.035 249.635 186.285 251.725 184.135 252.965C186.285 251.725 188.045 249.625 188.895 246.965Z" fill="#6E3821"></path>
  <path d="M187.903 246.812C189.534 242.076 187.355 237.031 183.036 235.544C178.718 234.057 173.895 236.691 172.264 241.428C170.633 246.164 172.812 251.209 177.13 252.696C181.449 254.183 186.272 251.549 187.903 246.812Z" fill="#FFF9F2"></path>
  <path d="M661.385 260.204C661.935 267.444 661.425 274.804 659.875 282.284C659.115 285.954 657.865 290.854 656.115 296.984C654.945 301.114 655.945 304.644 659.115 307.584C662.365 310.594 665.735 314.284 669.235 318.654C684.365 337.564 688.455 362.544 682.035 385.844C680.655 390.864 678.445 395.644 676.705 400.334C675.235 404.264 676.535 407.564 679.155 411.414C681.255 414.494 682.915 417.154 684.125 419.404C689.835 429.944 692.165 441.344 691.135 453.614C689.885 468.604 684.885 482.424 676.155 495.084C669.095 505.294 660.455 512.484 650.245 518.614C641.175 524.064 631.085 527.474 620.605 530.214C615.105 531.644 612.185 538.784 609.275 543.604C596.785 564.304 571.885 577.964 547.705 576.624C545.305 576.494 541.785 576.084 537.155 575.374C532.235 574.634 528.345 578.854 524.425 582.654C516.575 590.274 505.805 595.674 495.125 598.554C482.355 601.984 469.755 601.574 457.315 597.324C450.255 594.904 445.915 592.764 438.875 595.644C410.615 607.204 379.295 601.364 358.305 578.914C357.205 577.734 355.515 575.664 353.235 572.694C351.065 569.874 349.295 568.194 347.905 567.644C343.195 565.774 339.205 567.864 333.295 569.894C324.265 573.004 314.685 574.134 305.345 573.684C282.915 572.584 264.355 560.724 252.595 542.134C248.475 535.604 243.845 536.384 236.895 538.954C210.345 548.774 184.975 545.164 164.645 526.324C159.565 521.614 157.095 517.734 152.035 510.924C148.565 506.244 145.235 506.874 139.525 507.974C130.865 509.644 123.165 510.174 116.415 509.574C96.3246 507.774 79.5446 495.244 71.7446 476.964C69.2946 471.224 68.2046 466.324 62.5346 462.714C57.0046 459.184 51.8546 455.184 47.0946 450.694C46.5046 448.934 45.8346 447.634 45.0846 446.794C39.6946 440.684 35.1546 434.194 31.4646 427.344C30.7546 426.034 30.4946 424.704 30.6846 423.364C30.7046 423.194 30.8546 423.074 31.0246 423.094C31.1046 423.094 31.1746 423.144 31.2246 423.194C43.1946 436.084 58.1846 442.224 76.1746 441.614C83.2946 441.374 89.8246 439.534 95.7546 436.104C96.1046 435.904 96.5546 436.034 96.7446 436.384C96.7646 436.424 96.7846 436.464 96.8046 436.504C108.925 472.294 152.035 481.474 180.915 459.244C181.315 458.934 181.885 459.014 182.195 459.414C182.265 459.504 182.315 459.604 182.345 459.714C184.535 467.304 188.315 474.044 193.695 479.954C203.945 491.204 216.935 497.044 232.675 497.474C247.565 497.884 259.035 492.054 270.755 483.434C271.115 483.164 271.625 483.244 271.885 483.594C271.905 483.624 271.935 483.664 271.955 483.694C278.535 496.034 287.785 504.844 299.715 510.124C318.685 518.524 340.515 516.574 357.475 504.324C357.835 504.064 358.335 504.104 358.645 504.424C370.815 516.774 389.815 520.024 406.015 513.644C419.305 508.414 428.485 498.914 433.555 485.144C434.375 482.934 434.875 479.894 435.575 477.404C435.685 477.024 436.015 476.754 436.405 476.724C442.595 476.274 445.965 476.004 446.525 475.934C464.245 473.524 478.585 465.964 489.555 453.234C506.745 433.284 507.955 405.954 495.175 383.154C494.985 382.804 495.105 382.364 495.455 382.174C495.525 382.134 495.605 382.104 495.685 382.094C513.715 379.104 527.735 370.044 537.725 354.934C542.175 348.204 545.005 340.874 546.205 332.924C549.555 310.694 543.735 291.534 528.745 275.454C528.465 275.154 528.485 274.684 528.785 274.404C528.845 274.354 528.905 274.314 528.975 274.284C551.695 263.554 565.915 241.974 564.575 216.854C563.335 193.534 549.445 174.024 528.625 163.574C528.065 163.294 527.835 162.604 528.115 162.044C528.165 161.944 528.225 161.854 528.305 161.774C541.575 147.774 547.305 131.034 545.495 111.544C545.455 111.154 545.745 110.804 546.135 110.774C546.205 110.774 546.285 110.774 546.355 110.784C552.565 112.134 559.245 114.044 566.385 116.514C571.175 118.164 576.665 120.974 582.855 124.924C588.285 128.384 592.845 132.484 596.545 137.214C604.695 147.634 609.905 159.904 611.015 172.914C611.365 176.944 611.565 181.164 611.625 185.554C611.715 192.424 614.535 197.584 620.075 201.044C626.685 205.174 630.295 207.034 635.075 211.234C642.345 217.644 650.685 226.564 654.135 235.654C657.085 243.444 659.495 251.624 661.385 260.194V260.204Z" fill="#FFE4C7"></path>
  <path d="M377.585 265.365C360.205 260.575 341.335 274.025 335.445 295.415C329.555 316.795 338.875 338.015 356.255 342.805C373.635 347.595 392.505 334.145 398.395 312.755C404.285 291.375 394.965 270.155 377.585 265.365ZM380.535 296.095C378.285 300.895 372.765 303.045 368.195 300.905C363.625 298.765 361.745 293.145 363.995 288.345C366.245 283.545 371.765 281.395 376.335 283.535C380.905 285.675 382.785 291.295 380.535 296.095Z" fill="#6E3821"></path>
  <path d="M380.531 296.096C382.778 291.299 380.898 285.677 376.331 283.538C371.765 281.399 366.242 283.554 363.995 288.35C361.749 293.146 363.629 298.768 368.195 300.907C372.761 303.046 378.284 300.892 380.531 296.096Z" fill="#FFF9F2"></path>
  <path d="M298.005 308.224C297.175 303.864 293.635 300.604 288.995 301.204C284.085 301.844 281.925 304.954 279.235 309.904C277.395 313.274 274.265 315.814 269.835 317.524C258.925 321.734 249.395 319.674 241.245 311.334C239.295 309.334 237.795 307.034 236.725 304.444C234.255 298.424 237.735 288.244 230.975 284.714C224.605 281.384 218.385 287.304 217.565 293.404C215.295 310.134 225.045 325.444 239.175 333.714C245.735 337.564 253.025 339.314 261.035 338.974C270.875 338.554 279.735 335.064 287.605 328.514C293.485 323.614 299.535 316.244 298.005 308.224Z" fill="#6E3821"></path>
</svg>