<svg width="852" height="834" viewBox="0 0 852 834" fill="none" xmlns="http://www.w3.org/2000/svg">
<path d="M99.8248 414.296C101.142 411.421 102.317 408.429 103.44 406.301C109.086 395.599 115.31 385.007 122.105 374.532C125.986 368.549 130.639 361.734 136.058 354.082C149.129 335.645 164.465 318.206 182.059 301.774C183.376 300.547 184.7 299.385 186.044 298.301C187.861 296.822 189.126 295.329 191.255 293.57C198.991 287.178 204.144 282.992 206.708 281.006C224.399 267.292 241.974 255.877 259.432 246.752C277.383 237.374 297.781 229.456 320.632 222.992C321.904 222.635 324.877 221.928 329.543 220.876C338.174 218.936 347.734 216.651 354.386 216.288C357.54 216.119 360.5 215.905 363.271 215.639C363.518 215.613 363.732 215.477 363.849 215.263L364.011 214.964C364.141 214.737 364.4 214.627 364.653 214.691C367.21 215.386 369.456 215.25 371.39 214.289C371.682 214.146 372 214.055 372.325 214.036C374.317 213.887 376.121 213.874 377.75 214.004C379.451 214.146 380.956 213.543 382.339 213.413C385.246 213.134 388.011 213.16 390.639 213.491C391.009 213.536 391.386 213.549 391.762 213.53C394.631 213.368 398.648 212.816 402.165 213.063C405.287 213.277 409.181 213.348 413.847 213.277C418.903 213.205 423.712 214.042 429.079 214.179C429.456 214.185 429.838 214.244 430.202 214.348C433.362 215.224 436.698 215.516 440.209 215.211C440.631 215.178 441.06 215.198 441.475 215.269C441.598 215.289 450.262 216.827 467.474 219.87C471.77 220.63 478.286 222.291 487.015 224.855C500.572 228.827 514.526 234.194 528.875 240.956C573.136 261.802 611.726 290.689 644.636 327.616C655.059 339.305 663.593 349.598 670.245 358.496C676.768 367.212 684.497 378.128 693.44 391.244C700.56 401.686 709.315 415.704 719.692 433.292C729.181 449.368 735.443 460.018 738.481 465.242C750.643 486.179 765.965 510.879 777.141 528.993C777.732 529.94 780.14 531.225 781.587 531.842C796.066 538.014 808.423 545.627 818.657 554.68C821.312 557.029 824.206 559.943 827.328 563.429C839.523 577.044 847.33 594.21 850.198 612.123C850.809 615.932 850.873 620.839 851.282 624.875C851.412 626.154 851.419 627.861 851.295 630.002C850.737 640.224 849.29 649.316 846.96 657.267C846.155 660.012 844.598 663.964 842.287 669.13C841.651 670.565 841.45 671.681 841.054 672.855C840.937 673.212 840.788 673.55 840.6 673.881C839.075 676.6 837.595 679.086 836.148 681.331C826.932 695.694 813.55 707.583 797.747 713.729C786.837 717.974 775.116 719.414 762.597 718.045C760.78 717.85 760.183 718.772 758.866 720.213C728.72 753.194 690.533 778.278 649.458 795.807C634.492 802.2 620.098 807.639 606.268 812.13C587.323 818.276 568.1 823.085 548.598 826.544C475.047 839.589 403.126 833.715 332.846 808.924C326.661 806.743 315.466 802.317 299.261 795.652C284.691 789.661 267.804 783.619 248.6 777.538C231.642 772.165 214.677 767.648 197.706 763.994C175.037 759.113 151.933 756.511 129.185 752.202C109.696 748.502 90.5897 741.934 73.7872 732.719C60.9306 725.664 49.6122 716.52 39.8318 705.292C35.1785 699.951 31.1353 693.39 27.6891 685.615C22.8736 674.744 19.8558 663.341 18.6357 651.419C18.2917 648.051 18.0191 644.254 17.8179 640.036C17.6687 637.005 17.7336 634.013 17.9996 631.06C18.2917 627.88 18.4929 623.48 19.1613 619.106C21.3225 604.977 25.7746 591.277 31.5247 578.096C31.6545 577.797 31.5247 577.44 31.2326 577.298C19.5962 571.632 11.0814 562.832 5.69472 550.897C3.81912 546.73 2.2875 541.72 1.11282 535.866C0.158795 531.109 -0.185172 525.891 0.0938956 520.206C1.72287 486.64 18.402 456.091 44.4202 435.083C54.0772 427.283 64.8505 421.63 76.7401 418.125C78.6027 417.574 80.4069 417.132 82.1527 416.801C86.1635 416.048 87.8898 415.51 91.2841 415.198C92.1213 415.114 93.3414 414.9 94.9379 414.543C95.6972 414.368 97.151 414.387 99.2862 414.601C99.5133 414.621 99.734 414.504 99.8248 414.296ZM463.709 816.504C473.321 816.686 481.44 816.692 488.079 816.523C502.26 816.166 517.187 814.849 532.847 812.565C581.074 805.542 626.542 791.011 669.246 768.978C696.465 754.94 721.302 736.717 742.349 715.001C742.478 714.871 742.478 714.664 742.349 714.54C742.349 714.54 742.336 714.527 742.329 714.521C742.05 714.281 741.797 714.17 741.57 714.203C723.677 707.168 707.842 697.355 694.057 684.771C692.298 683.162 687.827 678.417 680.629 670.545C678.494 668.209 677.001 665.652 675.171 663.491C672.796 660.687 670.972 657.215 668.577 654.113C667.831 653.146 666.955 651.796 665.949 650.076C664.125 646.935 662.276 643.774 660.4 640.587C655.87 632.527 652.366 624.006 649.88 615.024C648.952 611.668 648.485 608.826 648.478 606.502C648.472 603.815 649.517 601.525 651.626 599.629C655.37 597.793 658.758 598.208 661.795 600.889C662.685 601.674 663.23 602.42 663.437 603.134C666.222 612.824 669.94 622.299 674.607 631.56C677.118 636.551 679.961 640.477 683.31 645.864C683.933 646.863 686.574 650.361 691.234 656.365C692.24 657.663 693.272 658.857 694.33 659.953C697.01 662.731 699.742 665.996 702.416 668.618C713.183 679.19 725.338 687.646 738.87 693.974C749.974 699.166 761.663 701.651 773.948 701.424C779.99 701.314 785.481 700.308 790.413 698.393C801.621 694.052 810.694 687.159 817.625 677.703C821.811 671.999 825.011 666.508 827.237 661.232C829.515 655.826 831.345 648.869 832.715 640.373C833.649 634.552 833.61 627.342 833.305 622.227C832.397 606.788 827.237 590.563 817.346 578.576C813.355 573.735 809.532 569.75 805.885 566.622C798.331 560.138 789.894 554.732 780.574 550.416C775.512 548.073 768.873 545.497 760.663 542.674C746.178 537.702 732.315 534.114 717.499 533.503C713.78 533.348 708.504 533.549 701.676 534.107C697.536 534.451 695.29 534.075 692.071 531.985C691.247 531.446 691.059 530.914 691.5 530.375C691.63 530.213 691.649 529.986 691.545 529.804L690.708 528.389C690.598 528.208 690.377 528.117 690.169 528.169C689.864 528.247 689.572 528.409 689.3 528.649C689.066 517.973 697.776 516.136 706.226 515.533C721.01 514.41 735.463 516.61 749.682 520.738L751.869 521.393C752.09 521.458 752.317 521.328 752.382 521.108C752.415 520.997 752.402 520.881 752.343 520.783L713.52 454.936C699.08 428.762 683.07 403.594 665.495 379.432C648.984 356.724 631.137 335.976 610.57 316.441C601.608 307.92 593.06 300.573 584.935 294.394C556.886 273.062 525.325 255.306 492.33 244.396C472.945 237.99 452.975 233.486 432.421 230.897C421.337 229.502 409.116 228.859 395.766 228.976C354.302 229.346 314.96 238.243 277.74 255.669C223.595 281.025 176.971 321.97 143.366 371.119C121.54 403.043 103.647 438.16 89.7005 476.483C85.4886 488.054 80.5302 501.482 74.8386 516.753C70.9706 527.124 65.7981 539.202 62.2805 547.535C58.9317 555.472 55.5569 562.494 51.8122 570.516C47.4186 579.939 44.5046 587.383 41.4348 595.774C34.9708 613.46 32.641 631.573 34.4387 650.128C36.1455 667.728 42.7458 684.193 54.1811 697.4C72.1258 718.142 98.8254 729.571 125.103 735.347C134.111 737.327 141.523 738.741 147.338 739.592C166.334 742.376 177.321 744.031 180.3 744.556C212.841 750.293 245.07 758.841 276.981 770.205C287.449 773.936 297.865 777.902 308.243 782.114C322.391 787.857 332.061 791.621 337.259 793.419C378.561 807.678 420.396 815.738 463.709 816.504ZM90.4014 431.326C81.7504 433.747 76.5714 435.259 74.8645 435.856C67.4465 438.432 61.1188 441.736 55.8749 445.759C37.0736 460.187 24.561 479.079 18.3436 502.43C14.1576 518.135 14.3523 535.178 22.9839 549.449C26.5599 555.362 31.4663 559.905 37.6966 563.065C38.112 563.279 38.6312 563.111 38.8453 562.689C38.8453 562.689 38.8453 562.676 38.8518 562.669C48.2687 542.901 56.9263 522.458 64.4936 501.573C66.8754 495.012 70.5812 484.913 75.6109 471.278C81.1857 456.163 84.8201 446.603 86.5075 442.599C88.1494 438.698 89.5383 435.557 90.674 433.162C90.9271 432.637 90.9791 432.105 90.8428 431.579C90.7908 431.391 90.5962 431.274 90.4079 431.326H90.4014ZM822.986 695.927C822.908 695.843 822.668 695.94 822.447 696.141C822.227 696.343 822.116 696.576 822.194 696.661C822.272 696.745 822.512 696.648 822.733 696.446C822.954 696.245 823.064 696.012 822.986 695.927Z" fill="#553630"/>
<path d="M753.446 520.783L714.624 454.936C700.184 428.762 684.173 403.594 666.598 379.432C650.088 356.724 632.24 335.975 611.674 316.441C602.711 307.919 594.164 300.573 586.038 294.394C557.989 273.062 526.428 255.305 493.433 244.396C474.048 237.99 454.078 233.486 433.525 230.897C422.44 229.501 410.219 228.859 396.87 228.976C355.405 229.346 316.063 238.243 278.843 255.669C224.698 281.025 178.074 321.97 144.469 371.118C122.644 403.042 104.751 438.159 90.8039 476.483C86.5919 488.054 81.6336 501.482 75.9419 516.753C72.0739 527.124 66.9014 539.201 63.3838 547.534C60.035 555.472 56.6603 562.494 52.9156 570.515C48.5219 579.939 45.6079 587.383 42.5382 595.774C36.0742 613.459 33.7443 631.573 35.542 650.128C37.2488 667.728 43.8491 684.193 55.2844 697.4C73.2291 718.142 99.9287 729.571 126.206 735.347C135.215 737.326 142.626 738.741 148.441 739.591C167.437 742.376 178.425 744.03 181.403 744.556C213.944 750.293 246.173 758.841 278.084 770.204C288.552 773.936 298.969 777.902 309.346 782.113C323.494 787.857 333.164 791.621 338.363 793.419C379.665 807.677 421.499 815.738 464.813 816.504C466.182 816.439 466.565 816.101 465.961 815.485C458.972 815.238 451.982 814.946 444.999 814.609C438.275 814.284 431.279 813.272 425.802 812.785C422.031 812.447 418.416 811.643 414.821 811.312C413.328 811.175 411.861 810.987 410.421 810.734C386.589 806.6 361.804 800.545 338.83 792.582C326.421 788.279 313.091 782.477 300.909 777.759C294.828 775.396 284.444 771.6 269.758 766.362C260.542 763.079 252.631 760.969 244.246 758.347C238.255 756.472 233.771 755.167 230.792 754.427C227.099 753.512 224.769 752.844 223.815 752.415C223.517 752.279 223.192 752.195 222.868 752.162C222.03 752.078 220.947 751.877 219.629 751.565C205.157 748.126 195.428 745.984 190.45 745.14C183.383 743.94 177.399 742.882 172.499 741.96C171.74 741.817 169.786 741.61 166.632 741.344C162.407 740.987 158.507 739.929 154.12 739.449C152.205 739.234 150.472 738.929 148.928 738.521C146.838 737.969 144.437 738.034 141.951 737.534C130.178 735.185 123.429 733.789 121.702 733.342C110.352 730.408 100.279 726.962 91.4918 722.997C83.0224 719.174 74.7348 713.989 66.6288 707.44C59.0226 701.294 52.8182 693.785 47.9443 685.602C46.8345 683.739 45.8805 681.636 45.0822 679.293C45.8091 679.858 47.451 681.377 50.0146 683.843C50.8323 684.628 53.1752 686.452 57.0367 689.301C59.4055 691.047 61.8782 692.63 64.4612 694.038C76.7531 700.769 89.3696 705.402 102.311 707.953C105.912 708.66 111.39 709.53 118.743 710.549C121.456 710.925 124.182 711.114 126.927 711.12C130.587 711.127 134.098 711.782 137.856 711.808C144.794 711.866 150.797 712.418 157.825 712.58C165.646 712.762 169.449 712.613 176.14 713.288C180.677 713.748 185.096 713.748 190.171 714.521C194.864 715.228 202.58 716.604 213.308 718.648C220.83 720.083 228.436 721.952 236.114 724.262C250.333 728.533 259.808 731.544 264.546 733.303C274.378 736.95 282.53 740.156 289 742.914C291.836 744.128 299.709 747.665 312.611 753.532C335.209 763.799 358.767 772.314 383.286 779.07C398.038 783.139 412.556 786.196 426.834 788.24C438.808 789.953 448.257 790.395 461.23 790.875C467.201 791.102 472.815 790.563 478.273 790.544C485.529 790.518 492.22 789.512 499.417 788.746C512.78 787.318 526.032 784.054 540.849 779.349C548.455 776.928 554.809 774.475 559.91 771.976C565.342 769.315 571.319 766.038 577.835 762.144C597.48 750.404 614.386 735.405 628.554 717.149C634.966 708.894 640.288 700.541 644.526 692.085C646.414 688.314 648.705 683.298 651.399 677.048C653.287 672.667 654.494 669.688 655.565 665.411C657.194 658.934 658.953 651.86 660.854 644.189C660.913 643.936 660.945 643.67 660.939 643.404C660.906 642.307 661.095 641.366 661.503 640.587C656.973 632.527 653.469 624.006 650.983 615.023C650.055 611.668 649.588 608.826 649.581 606.502C649.575 603.815 650.62 601.524 652.729 599.629C652.151 589.901 652.885 581.036 654.923 573.02C656.448 567.017 659.154 560.67 663.055 553.966C669.577 542.751 678.695 534.314 690.403 528.649C690.17 517.973 698.879 516.136 707.329 515.533C709.081 507.693 710.503 499.801 711.586 491.857C713.027 481.298 713.215 470.739 713.988 459.498C714.02 458.986 714.091 458.635 714.189 458.46C714.215 458.408 714.26 458.363 714.312 458.337C714.468 458.246 714.663 458.298 714.753 458.454L751.032 519.654C751.136 519.829 751.136 520.05 751.045 520.231L750.786 520.738L752.973 521.393C753.083 521.425 753.2 521.412 753.297 521.354C753.492 521.237 753.563 520.984 753.446 520.783ZM125.317 459.875C127.556 434.181 139.245 410.817 159.065 394.463C164.075 390.329 168.826 387.356 173.323 385.546C189.892 378.88 207.292 380.749 221.102 392.405C229.182 399.226 234.381 407.916 236.698 418.475C239.819 432.727 238.723 448.375 234.621 462.283C233.265 466.897 231.279 472.212 228.663 478.228C223.789 489.462 216.981 499.249 208.239 507.595C201.087 514.429 192.787 519.258 183.344 522.087C180.105 523.061 177.289 523.541 174.901 523.535C170.838 523.522 167.418 523.716 164.737 523.366C153.503 521.893 143.625 515.572 136.753 506.615C134.131 503.202 131.807 499.074 129.789 494.233C128.153 490.319 126.914 485.737 126.064 480.5C124.967 473.679 124.714 466.8 125.317 459.875ZM363.407 676.873C359.539 680.195 354.808 679.495 351.343 675.867C346.975 671.291 344.34 668.572 343.444 667.696C329.744 654.294 313.305 644.118 295.354 637.595C291.401 636.161 288.643 635.305 287.073 635.025C282.108 634.149 278.246 633.513 275.495 633.104C273.359 632.786 269.732 632.371 266.616 632.365C260.795 632.365 257.861 632.358 257.816 632.358C244.174 632.462 230.584 636.252 218.279 642.106C214.392 643.949 209.31 647.136 204.553 648.966C202.249 649.848 199.9 649.55 197.518 648.07C195.149 646.597 193.929 644.403 193.845 641.489C193.663 635.155 199.549 632.131 204.949 628.925C213.899 623.616 223.225 619.469 232.914 616.484C247.581 611.96 262.969 610.792 279.084 612.966C280.433 613.148 284.691 614.089 291.849 615.796C293.874 616.276 295.724 616.847 297.405 617.516C297.865 617.697 299.092 618.093 301.091 618.697C301.85 618.924 303.07 619.365 304.738 620.008C327.291 628.665 346.397 642.145 362.044 660.44C363.349 661.965 364.608 664.178 365.815 667.073C367.399 670.869 366.594 674.134 363.407 676.873ZM492.726 711.295C489.883 716.877 483.471 717.597 478.987 713.398C477.721 712.217 476.086 709.945 474.911 708.18C465.28 693.714 455.026 680.643 443.441 667.839C428.891 651.75 412.9 637.427 395.461 624.869C391.327 621.89 386.486 618.651 380.943 615.16C376.939 612.635 371.87 609.747 365.744 606.483C355.34 600.947 349.324 597.812 342.231 594.593C341.225 594.139 339.933 594.093 338.35 594.463C331.873 595.975 321.846 598.189 313.941 598.299C299.949 598.481 286.391 596.358 273.366 592.004C264.65 589.09 256.096 583.833 248.808 578.187C247.971 577.544 247.186 577.064 246.452 576.746C244.2 575.785 241.565 576.402 237.554 576.817C225.847 578.037 214.93 579.939 203.495 584.099C190.457 588.836 178.665 593.749 167.476 600.473C159.857 605.042 153.996 609.721 146.514 615.264C143.515 617.483 138.557 621.494 135.013 625.122C130.367 629.892 123.721 636.726 116.53 631.488C111.65 627.932 112.954 621.39 116.517 617.334C117.821 615.848 118.97 614.641 119.957 613.712C150.323 585.092 190.171 564.434 231.837 558.126C231.895 558.12 231.954 558.1 232.012 558.068C232.285 557.925 232.388 557.587 232.246 557.315C228.41 550.079 225.808 542.187 224.445 533.633C223.828 529.752 223.627 526.507 223.854 523.905C224.536 516.11 225.198 510.964 225.84 508.472C226.599 505.525 227.807 501.754 229.461 497.16C230.772 493.512 232.7 489.878 236.075 487.924C238.216 486.685 240.345 486.587 242.454 487.645C247.01 489.93 247.082 494.518 245.2 498.769C243.973 501.54 243.227 503.299 242.974 504.045C237.658 519.543 238.294 534.347 244.895 548.456C247.224 553.434 250.19 557.782 253.786 561.494C261.022 568.971 269.693 574.189 279.505 577.706C281.478 578.414 283.438 578.972 285.379 579.368C288.5 580.01 290.603 580.86 293.342 580.951C296.444 581.062 299.89 581.775 303.311 581.814C310.91 581.892 315.33 581.892 316.582 581.808C336.37 580.51 352.251 571.93 364.212 556.075C365.893 553.843 367.373 551.344 368.651 548.579C370.326 544.958 372.941 538.994 374.194 533.717C374.239 533.529 374.804 531.044 375.901 526.248C376.984 521.529 378.315 518.804 382.696 517.519C382.923 517.454 383.163 517.441 383.396 517.473C389.607 518.362 390.814 522.191 390.328 528.078C388.816 546.243 381.91 561.942 369.618 575.175C367.353 577.609 365.01 579.757 362.59 581.613C362.479 581.698 362.395 581.795 362.324 581.905L362.194 582.113C362.012 582.405 362.077 582.781 362.343 582.989C363.258 583.716 364.368 584.423 365.672 585.111C375.933 590.517 383.5 594.742 388.387 597.799C394.799 601.81 401.302 605.723 406.884 609.844C419.532 619.209 430.487 628.347 439.742 637.271C458.751 655.605 475.249 674.958 489.851 697.491C492.752 701.969 495.497 705.857 492.726 711.295ZM520.445 554.589C515.623 561.021 509.821 566.563 503.051 571.216C493.154 578.011 480.33 580.263 468.57 579.601C456.33 578.913 445.408 573.838 436.01 566.096C422.693 555.128 414.665 537.105 412.53 520.251C411.595 512.872 411.375 505.181 411.861 497.192C413.854 464.496 434.771 432.552 469.901 429.515C475.606 429.022 481.265 429.606 486.879 431.274C494.361 433.493 500.871 436.771 506.42 441.112C523.015 454.105 532.068 475.86 533.879 496.595C535.631 516.681 532.736 538.189 520.445 554.589Z" fill="#FFBCBA"/>
<path d="M126.064 480.5C124.967 473.679 124.714 466.799 125.317 459.875C127.556 434.181 139.245 410.817 159.065 394.463C164.075 390.328 168.826 387.356 173.323 385.545C189.892 378.88 207.292 380.749 221.102 392.405C229.182 399.226 234.381 407.916 236.698 418.475C239.819 432.727 238.723 448.375 234.621 462.282C233.265 466.897 231.279 472.212 228.663 478.228C223.789 489.462 216.981 499.249 208.239 507.595C201.087 514.429 192.787 519.258 183.344 522.087C180.105 523.061 177.289 523.541 174.901 523.535C170.838 523.522 167.418 523.716 164.737 523.366C153.503 521.893 143.625 515.571 136.753 506.615C134.131 503.202 131.807 499.074 129.789 494.232C128.153 490.319 126.914 485.737 126.064 480.5ZM202.035 400.771C186.485 394.618 169.475 403.393 159.578 415.289C146.825 430.612 140.634 448.362 141.004 468.545C141.263 482.953 147.013 498.38 160.772 504.61C171.318 509.38 183.727 507.452 193.183 500.963C198.686 497.192 203.443 492.539 207.454 487.003C216.358 474.704 221.803 460.972 223.796 445.792C224.828 437.945 224.172 429.995 221.862 422.921C218.721 413.277 211.588 404.541 202.035 400.771Z" fill="#FFF4E9"/>
<path d="M202.035 400.771C211.588 404.542 218.721 413.277 221.862 422.921C224.172 429.995 224.828 437.945 223.796 445.792C221.803 460.972 216.358 474.704 207.454 487.003C203.443 492.539 198.686 497.192 193.183 500.963C183.727 507.453 171.318 509.38 160.772 504.61C147.013 498.38 141.263 482.953 141.004 468.545C140.634 448.362 146.825 430.612 159.578 415.289C169.475 403.393 186.485 394.618 202.035 400.771ZM213.074 409.5C212.977 409.435 212.893 409.409 212.834 409.422C212.789 409.429 212.756 409.461 212.75 409.506C212.73 409.604 212.821 409.656 213.022 409.662C213.074 409.662 213.113 409.623 213.12 409.578C213.12 409.545 213.107 409.513 213.074 409.5ZM203.313 420.325C196.201 418.787 189.023 424.083 187.277 432.156C185.531 440.23 189.879 448.018 196.992 449.556C204.105 451.094 211.283 445.798 213.029 437.725C214.775 429.651 210.426 421.863 203.313 420.325ZM217.552 465.813C217.494 465.885 217.468 465.949 217.475 466.021C217.475 466.06 217.507 466.092 217.546 466.099C217.611 466.112 217.656 466.034 217.682 465.872C217.689 465.833 217.663 465.794 217.624 465.787C217.598 465.787 217.572 465.787 217.552 465.813Z" fill="#553630"/>
<path d="M213.074 409.5C213.12 409.519 213.133 409.571 213.107 409.616C213.087 409.642 213.055 409.662 213.022 409.662C212.821 409.655 212.73 409.603 212.75 409.506C212.756 409.461 212.789 409.428 212.834 409.422C212.893 409.409 212.977 409.435 213.074 409.5Z" fill="#EB8788"/>
<path d="M213.029 437.721C214.775 429.649 210.424 421.859 203.312 420.321C196.201 418.784 189.021 424.081 187.275 432.152C185.53 440.224 189.881 448.014 196.993 449.552C204.104 451.089 211.284 445.792 213.029 437.721Z" fill="#FFF4E9"/>
<path d="M506.42 441.113C523.015 454.105 532.068 475.86 533.879 496.595C535.631 516.681 532.736 538.189 520.444 554.589C515.622 561.021 509.82 566.563 503.051 571.216C493.154 578.011 480.33 580.263 468.57 579.601C456.33 578.913 445.408 573.838 436.01 566.096C422.693 555.128 414.665 537.105 412.53 520.251C411.595 512.872 411.375 505.181 411.861 497.192C413.854 464.496 434.771 432.552 469.901 429.515C475.605 429.022 481.265 429.606 486.879 431.274C494.361 433.493 500.871 436.771 506.42 441.113ZM471.562 447.33C469.635 447.369 467.915 447.33 466.299 447.622C453.975 449.841 444.447 457.221 437.711 467.604C426.561 484.796 424.971 507.732 430.533 526.936C432.188 532.653 434.888 538.319 438.619 543.926C446.68 556.023 459.368 563.065 473.977 562.76C488.585 562.455 500.968 554.888 508.51 542.466C512.008 536.709 514.467 530.933 515.882 525.151C520.639 505.733 518.089 482.882 506.232 466.17C499.067 456.078 489.241 449.102 476.832 447.401C475.203 447.174 473.483 447.291 471.562 447.33Z" fill="#FFF4E9"/>
<path d="M91.2033 429.353C92.3549 429.157 93.5415 429.841 93.8742 431.046L93.9465 431.307V431.375C94.1153 432.276 93.9864 433.183 93.5842 434.024L93.5852 434.025C92.467 436.383 91.0901 439.495 89.4543 443.38V443.381C87.9965 446.841 85.0441 454.557 80.591 466.566L78.591 471.976C73.5617 485.61 69.8577 495.705 67.4777 502.261C60.3612 521.902 52.2844 541.15 43.5227 559.811L41.7609 563.536C41.1656 564.784 39.7726 565.402 38.4797 565.071H38.3215L37.8957 564.855C37.8736 564.844 37.8513 564.832 37.8293 564.821L37.6486 564.735L37.632 564.718C31.4002 561.501 26.421 556.942 22.7336 551.071L22.3762 550.49C13.3718 535.602 13.2423 517.951 17.5149 501.92L17.8156 500.81C24.2431 477.552 36.9016 458.65 55.7609 444.178L56.7941 443.405C61.6738 439.837 67.3826 436.863 73.9025 434.475L75.3117 433.972C77.0983 433.348 82.3526 431.816 90.966 429.406L90.9729 429.404L91.2033 429.353ZM38.0256 564.912C38.0338 564.915 38.043 564.917 38.051 564.92C38.0333 564.913 38.0149 564.906 37.9973 564.898C38.0071 564.902 38.0163 564.908 38.0256 564.912ZM38.8938 563.11C38.9214 563.12 38.9497 563.127 38.9777 563.134C38.9241 563.121 38.8712 563.102 38.8195 563.078L38.8938 563.11ZM39.8654 562.822C39.8491 562.843 39.8318 562.864 39.8137 562.883C39.8506 562.843 39.8851 562.799 39.9143 562.751L39.8654 562.822ZM37.6467 562.462C37.6596 562.47 37.6729 562.476 37.6858 562.483C37.4831 562.372 37.2818 562.26 37.0822 562.146L37.6467 562.462ZM39.427 561.226C39.4253 561.229 39.4247 561.232 39.4231 561.235C39.4354 561.21 39.4651 561.168 39.468 561.164L39.427 561.226ZM29.1037 555.983C29.2492 556.133 29.3961 556.281 29.5441 556.428L29.1037 555.982C28.9583 555.832 28.8139 555.681 28.6711 555.529L29.1037 555.983ZM73.7463 479.338L76.715 471.284C77.0889 470.27 77.4544 469.282 77.8108 468.318C77.4543 469.282 77.088 470.271 76.7141 471.285C75.6673 474.122 74.6783 476.807 73.7463 479.338ZM56.9787 445.765L56.1018 446.445L56.9787 445.766C57.3063 445.515 57.6378 445.266 57.9738 445.02L56.9787 445.765ZM87.6106 442.605C87.4196 443.058 87.2049 443.583 86.9641 444.178L87.6115 442.605C88.0219 441.63 88.4164 440.703 88.7951 439.823V439.822C88.4162 440.702 88.0211 441.63 87.6106 442.605ZM74.5891 436.354C73.6791 436.687 72.7863 437.032 71.9104 437.388L73.2375 436.863C74.1307 436.518 75.0408 436.184 75.968 435.862L74.5891 436.354ZM91.5051 431.332C87.6541 432.409 84.4908 433.308 82.0158 434.025C84.4908 433.308 87.654 432.41 91.5051 431.333C91.5285 431.326 91.5519 431.321 91.5754 431.32C91.552 431.321 91.5284 431.325 91.5051 431.332ZM89.6174 433.872L89.6945 433.921L89.6184 433.872C89.5941 433.856 89.5681 433.843 89.5383 433.834L89.6174 433.872Z" fill="#EB8788"/>
<path d="M473.977 562.76C459.368 563.065 446.68 556.023 438.619 543.926C434.888 538.319 432.188 532.653 430.533 526.936C424.971 507.732 426.561 484.796 437.711 467.605C444.447 457.221 453.975 449.842 466.299 447.622C467.915 447.33 469.635 447.369 471.562 447.33C473.483 447.291 475.203 447.174 476.832 447.401C489.241 449.102 499.067 456.078 506.232 466.17C518.089 482.882 520.639 505.733 515.882 525.151C514.467 530.933 512.008 536.709 508.51 542.466C500.968 554.888 488.585 562.455 473.977 562.76ZM487.32 470.343C479.551 470.493 473.386 477.3 473.548 485.543C473.704 493.791 480.129 500.353 487.897 500.203C495.666 500.054 501.831 493.246 501.669 485.004C501.513 476.755 495.088 470.194 487.32 470.343Z" fill="#553630"/>
<path d="M750.785 520.737C736.566 516.61 722.113 514.41 707.329 515.533C709.081 507.693 710.502 499.801 711.586 491.857C713.027 481.298 713.215 470.739 713.988 459.498C714.02 458.986 714.091 458.635 714.189 458.46C714.273 458.304 714.474 458.246 714.63 458.33C714.682 458.356 714.727 458.402 714.753 458.453L751.032 519.654C751.136 519.829 751.136 520.05 751.045 520.231L750.785 520.737Z" fill="#EB8788"/>
<path d="M217.552 465.813C217.552 465.813 217.63 465.781 217.663 465.813C217.682 465.826 217.689 465.852 217.682 465.878C217.656 466.04 217.611 466.118 217.546 466.105C217.507 466.099 217.481 466.066 217.474 466.027C217.468 465.956 217.494 465.891 217.552 465.82V465.813Z" fill="#EB8788"/>
<path d="M487.889 500.206C495.655 500.057 501.822 493.252 501.664 485.006C501.505 476.76 495.082 470.196 487.316 470.345C479.55 470.494 473.383 477.3 473.541 485.546C473.7 493.792 480.123 500.356 487.889 500.206Z" fill="#FFF4E9"/>
<path d="M691.101 526.88C691.767 526.77 692.443 527.047 692.84 527.594L692.921 527.716L692.928 527.728L693.766 529.143L693.771 529.152L693.776 529.16C694.081 529.693 694.085 530.33 693.825 530.857C693.842 530.869 693.86 530.883 693.88 530.896H693.881C695.399 531.881 696.617 532.418 697.899 532.688C699.199 532.962 700.65 532.981 702.672 532.813H702.673L703.939 532.713C710.179 532.229 715.095 532.058 718.657 532.207H718.656C733.182 532.805 746.772 536.232 760.826 540.982L762.188 541.446V541.447L763.714 541.974C770.746 544.425 776.595 546.694 781.244 548.792L782.223 549.239L783.104 549.651C792.18 553.946 800.425 559.278 807.833 565.636L808.533 566.244C812.036 569.333 815.677 573.172 819.451 577.75L819.921 578.328C829.717 590.512 834.798 606.748 835.704 622.15L835.758 623.141C836.013 628.214 835.995 634.995 835.099 640.58L834.835 642.167C833.487 650.013 831.723 656.548 829.536 661.736V661.737C827.263 667.124 824.007 672.702 819.775 678.47H819.776C812.694 688.132 803.417 695.176 791.985 699.604L791.023 699.964C786.183 701.706 780.86 702.617 775.075 702.722H775.076C762.982 702.946 751.45 700.581 740.483 695.636L739.423 695.15C725.757 688.76 713.481 680.218 702.611 669.545L702.097 669.035C700.9 667.83 699.7 666.521 698.517 665.217C697.156 663.716 695.822 662.225 694.499 660.855H694.498C693.407 659.723 692.344 658.493 691.311 657.16V657.159C686.68 651.193 683.979 647.623 683.311 646.551V646.55C680.019 641.255 677.096 637.203 674.55 632.144L673.68 630.392C669.384 621.619 665.926 612.654 663.294 603.497L663.242 603.348C663.092 602.981 662.743 602.484 662.039 601.862L661.785 601.644C660.509 600.585 659.223 600.015 657.92 599.854C656.527 599.682 654.997 599.962 653.3 600.795L651.548 601.654L651.433 599.707C650.849 589.868 651.588 580.866 653.664 572.701L653.815 572.125C655.4 566.153 658.11 559.886 661.933 553.314L662.246 552.78C668.85 541.653 678.009 533.238 689.693 527.551C690.059 527.259 690.481 527.032 690.951 526.912L690.958 526.91L691.101 526.88ZM779.479 701.174C778.037 701.313 776.562 701.397 775.051 701.425C774.284 701.439 773.519 701.442 772.757 701.435C773.519 701.442 774.284 701.439 775.051 701.425C776.939 701.39 778.774 701.268 780.554 701.058L779.479 701.174ZM769.336 701.333C769.714 701.352 770.093 701.368 770.472 701.383C769.713 701.354 768.957 701.316 768.203 701.266L769.336 701.333ZM764.941 700.983C765.65 701.059 766.361 701.127 767.075 701.184L765.949 701.086C765.612 701.054 765.276 701.019 764.941 700.983ZM798.565 695.177C796.317 696.371 793.968 697.444 791.516 698.393C788.742 699.47 785.791 700.26 782.664 700.764L783.701 700.586C786.445 700.081 789.051 699.351 791.517 698.394C794.319 697.309 796.987 696.063 799.522 694.659L798.565 695.177ZM757.255 699.769C758.29 699.986 759.329 700.183 760.373 700.358C759.329 700.183 758.29 699.986 757.255 699.769ZM752.973 698.742C754.265 699.091 755.565 699.406 756.871 699.687C755.565 699.406 754.265 699.091 752.973 698.742ZM739.974 693.974C740.321 694.136 740.668 694.296 741.016 694.453C740.668 694.296 740.32 694.136 739.973 693.973C739.652 693.823 739.333 693.672 739.014 693.519C739.333 693.672 739.653 693.824 739.974 693.974ZM803.224 692.432C802.323 693.019 801.404 693.583 800.466 694.125L801.399 693.576C802.324 693.019 803.231 692.44 804.118 691.839L803.224 692.432ZM734.38 691.193C734.673 691.347 734.965 691.501 735.259 691.653C734.965 691.501 734.673 691.347 734.38 691.193ZM808.402 688.643C807.576 689.32 806.732 689.974 805.869 690.605L806.727 689.967C807.577 689.32 808.408 688.651 809.221 687.96L808.402 688.643ZM730.77 689.219C731.213 689.471 731.657 689.72 732.104 689.967C731.657 689.72 731.213 689.471 730.77 689.219ZM815.323 681.948C813.897 683.571 812.397 685.104 810.822 686.547L811.604 685.818C813.154 684.345 814.629 682.782 816.029 681.13L815.323 681.948ZM723.004 684.448C723.236 684.602 723.47 684.754 723.703 684.907C723.083 684.501 722.466 684.09 721.853 683.674L723.004 684.448ZM817.404 679.446C817.179 679.732 816.952 680.015 816.723 680.296L817.404 679.447C817.629 679.161 817.852 678.873 818.073 678.583L817.404 679.446ZM820.209 675.634C819.73 676.32 819.237 677.011 818.729 677.704L819.454 676.704C819.71 676.347 819.961 675.989 820.209 675.634ZM821.072 674.378C821.267 674.089 821.46 673.801 821.65 673.513C821.46 673.801 821.267 674.089 821.072 674.378ZM821.773 673.327C821.95 673.058 822.124 672.789 822.296 672.521C822.124 672.789 821.95 673.058 821.773 673.327ZM822.485 672.226C822.646 671.974 822.804 671.722 822.961 671.47C822.804 671.722 822.646 671.974 822.485 672.226ZM823.122 671.212C823.261 670.987 823.4 670.763 823.535 670.539C823.4 670.763 823.262 670.987 823.122 671.212ZM823.806 670.088C823.919 669.899 824.03 669.711 824.14 669.523C824.03 669.711 823.919 669.899 823.806 670.088ZM703.949 669.035C704.22 669.299 704.491 669.562 704.764 669.823C704.491 669.562 704.22 669.299 703.949 669.035ZM824.387 669.101C824.488 668.926 824.588 668.751 824.688 668.577C824.588 668.751 824.488 668.926 824.387 669.101ZM824.964 668.088C825.074 667.891 825.183 667.694 825.29 667.498C825.183 667.694 825.074 667.891 824.964 668.088ZM701.878 666.94C702.174 667.252 702.468 667.56 702.763 667.86C702.468 667.56 702.174 667.252 701.878 666.94ZM825.479 667.154C825.618 666.898 825.754 666.642 825.889 666.386C825.754 666.642 825.618 666.898 825.479 667.154ZM826.507 665.188C826.803 664.601 827.085 664.016 827.358 663.433C827.085 664.016 826.803 664.601 826.507 665.188ZM828.34 661.232L828.736 660.266C828.741 660.254 828.744 660.241 828.749 660.229C828.614 660.569 828.479 660.904 828.34 661.232ZM828.868 659.923C828.963 659.681 829.058 659.437 829.151 659.19C829.058 659.437 828.963 659.681 828.868 659.923ZM829.361 658.616C829.418 658.458 829.477 658.3 829.534 658.14C829.477 658.3 829.418 658.458 829.361 658.616ZM692.715 656.847C693.096 657.326 693.481 657.789 693.868 658.238C693.352 657.639 692.841 657.015 692.337 656.365L692.715 656.847ZM829.735 657.557C829.796 657.379 829.858 657.2 829.918 657.019C829.858 657.2 829.796 657.379 829.735 657.557ZM830.059 656.59C830.138 656.349 830.218 656.106 830.295 655.86C830.218 656.106 830.138 656.349 830.059 656.59ZM830.458 655.334C830.517 655.141 830.577 654.948 830.635 654.753C830.577 654.948 830.517 655.141 830.458 655.334ZM830.805 654.174C830.875 653.934 830.945 653.693 831.013 653.45C830.945 653.693 830.875 653.934 830.805 654.174ZM831.13 653.028C831.208 652.746 831.285 652.461 831.362 652.174C831.285 652.461 831.208 652.746 831.13 653.028ZM831.474 651.747C831.542 651.484 831.61 651.218 831.677 650.951C831.61 651.218 831.542 651.484 831.474 651.747ZM831.826 650.347C831.876 650.145 831.925 649.94 831.974 649.735C831.925 649.94 831.876 650.145 831.826 650.347ZM832.133 649.059C832.202 648.763 832.269 648.465 832.336 648.164C832.269 648.465 832.202 648.763 832.133 649.059ZM832.416 647.801C832.495 647.443 832.572 647.081 832.649 646.717C832.572 647.081 832.495 647.443 832.416 647.801ZM832.737 646.295C832.791 646.028 832.844 645.76 832.898 645.49C832.844 645.76 832.791 646.028 832.737 646.295ZM683.18 643.908C683.406 644.262 683.631 644.624 683.862 644.99C683.219 643.969 682.599 642.997 681.993 642.058L683.18 643.908ZM834.123 638.132C834.079 638.514 834.033 638.892 833.982 639.266L834.124 638.133C834.168 637.75 834.208 637.364 834.245 636.975L834.123 638.132ZM678.166 636.005C678.337 636.29 678.51 636.575 678.684 636.859L678.166 636.004C677.996 635.718 677.826 635.432 677.659 635.143L678.166 636.005ZM834.576 626.402C834.615 628.26 834.612 630.237 834.544 632.227L834.578 631.035C834.622 629.054 834.604 627.108 834.547 625.302L834.576 626.402ZM834.042 617.892C834.201 619.341 834.324 620.788 834.409 622.227L834.313 620.801C834.24 619.833 834.149 618.863 834.042 617.892ZM833.775 615.728C833.742 615.485 833.71 615.241 833.675 614.997C833.71 615.241 833.742 615.485 833.775 615.728ZM833.603 614.523C833.553 614.193 833.505 613.862 833.451 613.532C833.505 613.862 833.553 614.193 833.603 614.523ZM833.392 613.178C833.331 612.81 833.269 612.441 833.202 612.072C833.269 612.441 833.331 612.81 833.392 613.178ZM833.134 611.706C833.069 611.354 833.004 611.002 832.935 610.65C833.004 611.002 833.069 611.354 833.134 611.706ZM832.825 610.107C832.764 609.81 832.704 609.512 832.64 609.215C832.704 609.512 832.764 609.81 832.825 610.107ZM832.495 608.562C832.437 608.299 832.379 608.035 832.318 607.772C832.379 608.035 832.437 608.299 832.495 608.562ZM832.168 607.149C832.103 606.879 832.039 606.61 831.971 606.341C832.039 606.61 832.103 606.879 832.168 607.149ZM831.788 605.637C831.729 605.408 831.671 605.177 831.609 604.948C831.671 605.177 831.729 605.408 831.788 605.637ZM831.418 604.263C831.343 603.993 831.268 603.722 831.19 603.452C831.268 603.722 831.343 603.993 831.418 604.263ZM831.02 602.881C830.939 602.608 830.858 602.334 830.774 602.062C830.858 602.334 830.939 602.608 831.02 602.881ZM663.754 601.757C663.912 601.946 664.049 602.132 664.164 602.317L663.975 602.038C663.838 601.851 663.681 601.662 663.501 601.47L663.754 601.757ZM830.576 601.438C830.491 601.173 830.407 600.908 830.32 600.644C830.407 600.908 830.491 601.173 830.576 601.438ZM661.859 600.071C662.015 600.18 662.17 600.293 662.325 600.413L662.035 600.194C661.976 600.152 661.917 600.112 661.859 600.071ZM830.107 600.011C830.024 599.766 829.94 599.521 829.855 599.277C829.94 599.521 830.024 599.766 830.107 600.011ZM661.449 599.799C661.499 599.83 661.549 599.863 661.599 599.896C661.451 599.799 661.303 599.706 661.153 599.62L661.449 599.799ZM659.642 598.927C660.052 599.068 660.456 599.244 660.855 599.455L660.555 599.302C660.153 599.109 659.746 598.951 659.333 598.828L659.642 598.927ZM658.71 598.671C658.815 598.693 658.919 598.717 659.023 598.743L658.71 598.67C658.606 598.648 658.501 598.629 658.396 598.611L658.71 598.671ZM829.618 598.615C829.526 598.358 829.433 598.101 829.338 597.845C829.433 598.101 829.526 598.358 829.618 598.615ZM656.791 598.514L657.117 598.508C657.224 598.507 657.332 598.509 657.439 598.513L657.117 598.507C657.008 598.507 656.9 598.51 656.791 598.514ZM829.145 597.336C829.037 597.052 828.929 596.77 828.818 596.488C828.929 596.77 829.037 597.052 829.145 597.336ZM828.576 595.887C828.475 595.635 828.373 595.383 828.269 595.133C828.373 595.383 828.475 595.635 828.576 595.887ZM827.998 594.496C827.896 594.256 827.794 594.016 827.689 593.777C827.794 594.016 827.896 594.256 827.998 594.496ZM827.242 592.776C827.197 592.678 827.151 592.581 827.106 592.484C827.151 592.581 827.197 592.678 827.242 592.776ZM826.621 591.458C826.563 591.338 826.504 591.218 826.446 591.098C826.504 591.218 826.563 591.338 826.621 591.458ZM826.264 590.728C826.225 590.651 826.186 590.573 826.147 590.496C826.186 590.573 826.225 590.651 826.264 590.728ZM825.959 590.123C825.911 590.028 825.863 589.933 825.814 589.839C825.863 589.933 825.911 590.028 825.959 590.123ZM825.047 588.393C825.247 588.759 825.444 589.127 825.637 589.497C825.444 589.127 825.247 588.759 825.047 588.393ZM823.985 586.516C824.192 586.869 824.396 587.224 824.597 587.581C824.396 587.224 824.192 586.869 823.985 586.516ZM822.039 583.414C822.535 584.156 823.016 584.91 823.481 585.675C823.016 584.91 822.535 584.156 822.039 583.414ZM819.363 579.713C820.106 580.661 820.82 581.634 821.507 582.629C820.682 581.433 819.816 580.269 818.91 579.141L819.363 579.713ZM816.065 575.763C815.902 575.576 815.739 575.391 815.576 575.207C815.739 575.391 815.902 575.576 816.065 575.763ZM815.268 574.859C815.132 574.707 814.997 574.555 814.862 574.405C814.997 574.555 815.132 574.707 815.268 574.859ZM814.558 574.069C814.418 573.915 814.278 573.761 814.138 573.609C814.278 573.761 814.418 573.915 814.558 574.069ZM813.891 573.341C813.734 573.17 813.577 573.002 813.42 572.835C813.577 573.002 813.734 573.17 813.891 573.341ZM813.159 572.556C813.022 572.411 812.886 572.267 812.749 572.125C812.886 572.267 813.022 572.411 813.159 572.556ZM812.43 571.791C812.301 571.657 812.172 571.525 812.043 571.393C812.172 571.525 812.301 571.657 812.43 571.791ZM811.777 571.12C811.64 570.981 811.504 570.843 811.368 570.707C811.504 570.843 811.64 570.981 811.777 571.12ZM811.024 570.363C810.913 570.253 810.801 570.144 810.691 570.035C810.801 570.144 810.913 570.253 811.024 570.363ZM655.879 569.686C655.867 569.726 655.856 569.766 655.843 569.805C655.856 569.766 655.867 569.726 655.879 569.686ZM810.366 569.716C810.213 569.568 810.061 569.421 809.91 569.276C810.061 569.421 810.213 569.568 810.366 569.716ZM809.723 569.097C809.546 568.929 809.369 568.763 809.193 568.598C809.369 568.763 809.546 568.929 809.723 569.097ZM656.254 568.552C656.208 568.688 656.164 568.823 656.119 568.958C656.164 568.823 656.208 568.688 656.254 568.552ZM803.382 563.662C804.606 564.622 805.807 565.609 806.988 566.622C807.439 567.009 807.893 567.409 808.35 567.822C808.124 567.618 807.899 567.416 807.674 567.218L806.989 566.622C805.572 565.406 804.124 564.228 802.646 563.089L803.382 563.662ZM656.658 567.405C656.61 567.535 656.566 567.666 656.52 567.796C656.566 567.666 656.61 567.535 656.658 567.405ZM657.09 566.244C657.042 566.37 656.997 566.496 656.95 566.622C656.997 566.496 657.042 566.37 657.09 566.244ZM657.552 565.072C657.476 565.26 657.403 565.449 657.329 565.636C657.403 565.449 657.476 565.26 657.552 565.072ZM658.016 563.949C657.946 564.115 657.878 564.282 657.809 564.448C657.878 564.282 657.946 564.115 658.016 563.949ZM658.545 562.731C658.467 562.907 658.391 563.082 658.315 563.258C658.391 563.082 658.467 562.907 658.545 562.731ZM800.603 561.552C800.976 561.826 801.348 562.102 801.717 562.381C801.348 562.102 800.976 561.826 800.603 561.552ZM659.08 561.551C658.987 561.751 658.897 561.952 658.806 562.152C658.897 561.952 658.987 561.751 659.08 561.551ZM659.649 560.352C659.567 560.522 659.487 560.691 659.407 560.86C659.487 560.691 659.567 560.522 659.649 560.352ZM797.344 559.255C797.603 559.43 797.861 559.606 798.118 559.783C797.604 559.428 797.087 559.078 796.567 558.732L797.344 559.255ZM660.231 559.172C660.13 559.373 660.03 559.574 659.931 559.775C660.03 559.574 660.13 559.373 660.231 559.172ZM660.821 558.018C660.755 558.144 660.691 558.271 660.626 558.396C660.691 558.271 660.755 558.144 660.821 558.018ZM661.497 556.744C661.396 556.932 661.295 557.12 661.196 557.307C661.295 557.12 661.396 556.932 661.497 556.744ZM662.16 555.539C662.053 555.73 661.947 555.921 661.842 556.112C661.947 555.921 662.053 555.73 662.16 555.539ZM662.693 554.594C662.657 554.657 662.623 554.72 662.587 554.782C662.742 554.511 662.896 554.239 663.054 553.967L662.693 554.594ZM787.375 553.25C787.544 553.34 787.713 553.43 787.881 553.521C787.713 553.43 787.544 553.34 787.375 553.25ZM785.694 552.373C785.886 552.471 786.078 552.57 786.27 552.67C786.078 552.57 785.886 552.471 785.694 552.373ZM783.993 551.52C784.141 551.593 784.29 551.666 784.438 551.74C784.29 551.666 784.141 551.593 783.993 551.52ZM778.285 548.913C779.485 549.425 780.616 549.925 781.677 550.417C781.813 550.48 781.949 550.544 782.085 550.607C781.95 550.544 781.814 550.48 781.678 550.417C780.616 549.925 779.485 549.425 778.285 548.913ZM759.973 542.067C760.569 542.268 761.168 542.468 761.766 542.674C765.956 544.115 769.738 545.492 773.109 546.806C769.738 545.492 765.957 544.114 761.767 542.674C761.168 542.468 760.57 542.268 759.973 542.067ZM756.684 540.982C756.595 540.954 756.507 540.925 756.418 540.896C756.507 540.925 756.595 540.954 756.684 540.982ZM755.693 540.665C755.522 540.611 755.352 540.556 755.181 540.503C755.352 540.556 755.522 540.611 755.693 540.665ZM754.544 540.304C754.268 540.218 753.993 540.132 753.717 540.048C753.993 540.132 754.268 540.218 754.544 540.304ZM753.494 539.979C753.138 539.87 752.781 539.761 752.425 539.654C752.781 539.761 753.138 539.87 753.494 539.979ZM751.935 539.508C751.688 539.434 751.441 539.36 751.195 539.288C751.441 539.36 751.688 539.434 751.935 539.508ZM750.339 539.04C750.203 539 750.067 538.961 749.931 538.922C750.067 538.961 750.203 539 750.339 539.04ZM748.947 538.642C748.849 538.615 748.751 538.587 748.653 538.559C748.751 538.587 748.849 538.615 748.947 538.642ZM747.834 538.334C747.606 538.271 747.379 538.209 747.151 538.147C747.379 538.209 747.606 538.271 747.834 538.334ZM746.731 538.035C746.417 537.951 746.103 537.867 745.788 537.785C746.103 537.867 746.417 537.951 746.731 538.035ZM745.425 537.691C745.096 537.606 744.766 537.521 744.437 537.438C744.766 537.521 745.096 537.606 745.425 537.691ZM744.112 537.356C743.803 537.279 743.494 537.203 743.186 537.128C743.494 537.203 743.803 537.279 744.112 537.356ZM742.74 537.019C742.456 536.951 742.173 536.883 741.889 536.816C742.173 536.883 742.456 536.951 742.74 537.019ZM741.36 536.693C741.115 536.637 740.871 536.58 740.626 536.525C740.871 536.58 741.115 536.637 741.36 536.693ZM740.032 536.392C739.767 536.334 739.502 536.276 739.237 536.218C739.502 536.276 739.767 536.334 740.032 536.392ZM738.721 536.108C738.494 536.06 738.266 536.013 738.038 535.966C738.266 536.013 738.494 536.06 738.721 536.108ZM737.352 535.825C737.1 535.774 736.848 535.724 736.596 535.675C736.848 535.724 737.1 535.774 737.352 535.825ZM736.12 535.582C735.86 535.532 735.599 535.483 735.338 535.434C735.599 535.483 735.86 535.532 736.12 535.582ZM734.682 535.314C734.494 535.28 734.305 535.247 734.117 535.214C734.305 535.247 734.494 535.28 734.682 535.314ZM733.358 535.082C733.193 535.054 733.029 535.027 732.865 535C733.029 535.027 733.193 535.054 733.358 535.082ZM731.963 534.852C731.852 534.835 731.741 534.818 731.629 534.801C731.741 534.818 731.852 534.835 731.963 534.852ZM730.72 534.661C730.466 534.623 730.212 534.588 729.957 534.551C730.212 534.588 730.466 534.623 730.72 534.661ZM729.462 534.481C729.153 534.439 728.843 534.398 728.534 534.358C728.843 534.398 729.153 534.439 729.462 534.481ZM728.11 534.303C727.898 534.277 727.685 534.252 727.473 534.226C727.685 534.252 727.898 534.277 728.11 534.303ZM726.66 534.13C726.53 534.115 726.401 534.102 726.272 534.088C726.401 534.102 726.53 534.115 726.66 534.13ZM725.41 533.994C725.115 533.964 724.819 533.936 724.523 533.908C724.819 533.936 725.115 533.964 725.41 533.994ZM724.067 533.864C723.726 533.833 723.385 533.806 723.044 533.778C723.385 533.806 723.726 533.833 724.067 533.864ZM722.718 533.751C722.539 533.737 722.36 533.724 722.181 533.711C722.36 533.724 722.539 533.737 722.718 533.751ZM692.378 530.844C692.375 530.871 692.373 530.897 692.372 530.924C692.373 530.897 692.375 530.871 692.378 530.844ZM692.682 530.23C692.688 530.213 692.694 530.196 692.699 530.178C692.694 530.196 692.688 530.213 692.682 530.23ZM692.702 530.162C692.706 530.143 692.709 530.124 692.711 530.105C692.709 530.124 692.706 530.143 692.702 530.162ZM692.713 530.09C692.714 530.073 692.714 530.057 692.713 530.041C692.714 530.057 692.714 530.073 692.713 530.09ZM692.712 530.01C692.711 529.997 692.709 529.984 692.706 529.97C692.709 529.984 692.711 529.997 692.712 530.01ZM691.623 528.215C691.699 528.255 691.765 528.314 691.811 528.389L692.649 529.804L691.812 528.389C691.766 528.313 691.699 528.255 691.623 528.215ZM820.478 675.246C820.642 675.008 820.805 674.772 820.966 674.535C820.805 674.772 820.642 675.008 820.478 675.246ZM825.996 666.183C826.145 665.9 826.29 665.617 826.433 665.335C826.29 665.617 826.145 665.9 825.996 666.183ZM833.013 644.911C833.091 644.507 833.168 644.099 833.244 643.687C833.168 644.099 833.091 644.507 833.013 644.911ZM834.02 617.704C833.973 617.283 833.924 616.863 833.87 616.442C833.924 616.863 833.973 617.283 834.02 617.704ZM824.966 588.245C824.893 588.111 824.818 587.977 824.743 587.843C824.818 587.977 824.893 588.111 824.966 588.245ZM817.763 577.75C817.747 577.731 817.732 577.713 817.716 577.694C817.732 577.713 817.747 577.731 817.763 577.75ZM817.508 577.448C817.328 577.234 817.149 577.022 816.97 576.812C817.149 577.022 817.328 577.234 817.508 577.448ZM816.868 576.692C816.662 576.451 816.456 576.213 816.251 575.977C816.456 576.213 816.662 576.451 816.868 576.692ZM655.217 571.907C655.124 572.243 655.036 572.579 654.951 572.913C655.036 572.579 655.124 572.243 655.217 571.907ZM692.393 530.766C692.386 530.792 692.382 530.818 692.378 530.844C692.382 530.818 692.386 530.792 692.393 530.766ZM692.471 530.571L692.467 530.577C692.456 530.598 692.447 530.619 692.438 530.639C692.448 530.617 692.459 530.594 692.471 530.571ZM692.603 530.376L692.642 530.32C692.643 530.318 692.644 530.315 692.645 530.313C692.632 530.335 692.619 530.356 692.603 530.376ZM692.656 530.291C692.663 530.276 692.671 530.261 692.677 530.246C692.671 530.261 692.663 530.276 692.656 530.291Z" fill="#EB8788"/>
<path d="M489.851 697.491C475.249 674.958 458.751 655.605 439.742 637.271C430.487 628.347 419.532 619.209 406.883 609.844C401.302 605.723 394.799 601.81 388.387 597.799C383.5 594.742 375.933 590.517 365.672 585.111C364.368 584.423 363.258 583.716 362.343 582.989C362.077 582.781 362.012 582.405 362.194 582.113L362.324 581.905C362.395 581.795 362.479 581.698 362.59 581.613C365.01 579.757 367.353 577.609 369.618 575.175C381.91 561.942 388.815 546.243 390.328 528.078C390.814 522.191 389.607 518.362 383.396 517.473C383.163 517.441 382.923 517.454 382.695 517.518C378.315 518.803 376.984 521.529 375.901 526.247C374.804 531.044 374.239 533.529 374.194 533.717C372.941 538.994 370.326 544.958 368.651 548.579C367.373 551.344 365.893 553.843 364.212 556.075C352.251 571.93 336.37 580.51 316.582 581.808C315.33 581.892 310.91 581.892 303.31 581.814C299.89 581.775 296.444 581.062 293.342 580.951C290.603 580.86 288.5 580.01 285.379 579.368C283.438 578.972 281.478 578.414 279.505 577.706C269.693 574.189 261.022 568.971 253.786 561.494C250.19 557.782 247.224 553.434 244.895 548.456C238.294 534.347 237.658 519.543 242.974 504.045C243.227 503.299 243.973 501.54 245.2 498.769C247.082 494.518 247.01 489.93 242.454 487.645C240.345 486.587 238.216 486.685 236.075 487.924C232.7 489.878 230.772 493.512 229.461 497.16C227.807 501.754 226.599 505.525 225.84 508.471C225.198 510.964 224.536 516.11 223.854 523.905C223.627 526.507 223.828 529.752 224.445 533.633C225.808 542.187 228.41 550.079 232.246 557.315C232.272 557.367 232.291 557.425 232.304 557.49C232.349 557.795 232.142 558.081 231.837 558.126C190.171 564.434 150.323 585.092 119.957 613.712C118.97 614.64 117.821 615.848 116.517 617.334C112.954 621.39 111.65 627.932 116.53 631.488C123.721 636.726 130.366 629.892 135.013 625.122C138.557 621.494 143.515 617.483 146.513 615.264C153.996 609.721 159.857 605.042 167.476 600.473C178.665 593.749 190.457 588.836 203.495 584.099C214.93 579.939 225.847 578.037 237.554 576.817C241.565 576.402 244.2 575.785 246.452 576.746C247.185 577.064 247.971 577.544 248.808 578.186C256.096 583.833 264.65 589.09 273.366 592.004C286.391 596.358 299.949 598.481 313.941 598.299C321.846 598.188 331.873 595.975 338.35 594.463C339.933 594.093 341.225 594.139 342.231 594.593C349.324 597.812 355.34 600.947 365.744 606.483C371.87 609.747 376.939 612.635 380.943 615.16C386.486 618.651 391.327 621.89 395.461 624.869C412.9 637.427 428.891 651.75 443.441 667.839C455.026 680.643 465.28 693.714 474.911 708.18C476.086 709.945 477.721 712.217 478.987 713.398C483.471 717.597 489.883 716.877 492.726 711.295C495.497 705.857 492.752 701.969 489.851 697.491ZM359.202 582.885C359.195 582.918 359.195 582.957 359.195 582.989C359.195 582.95 359.195 582.918 359.202 582.885ZM359.565 583.489C359.507 583.469 359.449 583.443 359.397 583.404C359.449 583.443 359.5 583.469 359.565 583.489ZM359.351 583.352C359.351 583.352 359.306 583.314 359.286 583.288C359.286 583.281 359.28 583.268 359.273 583.262C359.293 583.294 359.319 583.32 359.351 583.352ZM359.234 583.171C359.234 583.171 359.208 583.112 359.202 583.08C359.202 583.112 359.221 583.138 359.234 583.171ZM359.241 582.781C359.241 582.781 359.254 582.742 359.267 582.723C359.254 582.742 359.247 582.762 359.241 582.781ZM234.777 558.82C234.777 558.82 234.777 558.782 234.777 558.762C234.777 558.762 234.777 558.769 234.777 558.775C234.777 558.788 234.777 558.807 234.777 558.82ZM234.77 558.892C234.77 558.892 234.757 558.931 234.751 558.95C234.757 558.931 234.77 558.911 234.77 558.892ZM234.725 559.009C234.725 559.009 234.692 559.041 234.679 559.061C234.699 559.041 234.712 559.028 234.725 559.009ZM234.634 559.1C234.595 559.125 234.55 559.151 234.491 559.158C234.543 559.151 234.588 559.132 234.634 559.1Z" fill="#553630"/>
<path d="M362.045 660.44C346.397 642.145 327.291 628.665 304.738 620.008C303.07 619.365 301.85 618.924 301.091 618.697C299.092 618.093 297.865 617.697 297.405 617.515C295.724 616.847 293.874 616.276 291.849 615.796C284.691 614.089 280.433 613.148 279.084 612.966C262.969 610.792 247.581 611.96 232.914 616.484C223.225 619.469 213.899 623.616 204.949 628.925C199.549 632.131 193.663 635.155 193.845 641.489C193.929 644.403 195.149 646.597 197.518 648.07C199.9 649.55 202.249 649.848 204.553 648.966C209.31 647.136 214.392 643.949 218.279 642.106C230.584 636.252 244.174 632.462 257.816 632.358C257.861 632.358 260.795 632.358 266.616 632.364C269.732 632.371 273.359 632.786 275.495 633.104C278.246 633.513 282.108 634.149 287.073 635.025C288.643 635.304 291.401 636.161 295.354 637.595C313.305 644.118 329.744 654.294 343.444 667.696C344.34 668.572 346.975 671.291 351.343 675.867C354.808 679.494 359.539 680.195 363.407 676.872C366.594 674.134 367.399 670.869 365.815 667.073C364.608 664.178 363.349 661.965 362.045 660.44Z" fill="#553630"/>
<path d="M661.503 640.587C663.379 643.774 665.229 646.935 667.052 650.076C668.058 651.796 668.934 653.145 669.681 654.112C672.076 657.215 673.899 660.687 676.275 663.49C678.105 665.652 679.597 668.209 681.733 670.545C688.93 678.417 693.402 683.161 695.16 684.771C708.945 697.355 724.78 707.168 742.673 714.203C733.834 723.217 727.655 729.13 724.138 731.94C717.057 737.599 710.464 742.629 704.357 747.035C691.318 756.439 676.404 765.155 659.615 773.183C646.388 779.511 633.279 785.008 620.292 789.661C618.547 790.284 613.653 791.959 605.606 794.691C600.031 796.58 595.085 798.124 590.763 799.325C577.803 802.907 567.574 805.406 560.066 806.827C545.113 809.65 535.164 811.377 530.225 812.006C516.531 813.746 505.719 814.44 493.979 815.258C490.584 815.498 487.443 815.647 484.555 815.706C477.578 815.848 472.153 815.524 465.961 815.485C458.972 815.238 451.982 814.946 444.999 814.609C438.275 814.284 431.279 813.272 425.802 812.785C422.031 812.448 418.416 811.643 414.821 811.312C413.328 811.176 411.861 810.987 410.421 810.734C386.589 806.6 361.804 800.545 338.83 792.582C326.421 788.279 313.091 782.477 300.909 777.759C294.828 775.397 284.444 771.6 269.758 766.363C260.542 763.079 252.631 760.969 244.246 758.347C238.255 756.472 233.771 755.167 230.792 754.428C227.099 753.512 224.769 752.844 223.815 752.416C223.517 752.279 223.192 752.195 222.868 752.163C222.031 752.078 220.947 751.877 219.629 751.565C205.157 748.126 195.428 745.984 190.45 745.14C183.383 743.94 177.399 742.882 172.499 741.96C171.74 741.818 169.786 741.61 166.632 741.344C162.407 740.987 158.507 739.929 154.12 739.449C152.205 739.235 150.472 738.93 148.928 738.521C146.838 737.969 144.437 738.034 141.951 737.534C130.178 735.185 123.429 733.789 121.702 733.342C110.352 730.408 100.279 726.962 91.4918 722.997C83.0224 719.174 74.7348 713.989 66.6288 707.44C59.0226 701.294 52.8182 693.785 47.9443 685.602C46.8345 683.739 45.8805 681.636 45.0822 679.293C45.8091 679.858 47.451 681.377 50.0146 683.843C50.8323 684.628 53.1752 686.452 57.0367 689.301C59.4055 691.047 61.8782 692.63 64.4612 694.039C76.7531 700.769 89.3696 705.402 102.311 707.953C105.912 708.66 111.39 709.53 118.743 710.549C121.456 710.925 124.182 711.114 126.927 711.12C130.587 711.127 134.098 711.782 137.856 711.808C144.794 711.866 150.797 712.418 157.825 712.58C165.646 712.762 169.449 712.613 176.14 713.288C180.677 713.749 185.096 713.749 190.171 714.521C194.864 715.228 202.58 716.604 213.308 718.648C220.83 720.083 228.436 721.952 236.114 724.262C250.333 728.533 259.808 731.544 264.546 733.303C274.378 736.95 282.53 740.156 289 742.914C291.836 744.128 299.709 747.665 312.611 753.532C335.209 763.799 358.767 772.314 383.286 779.07C398.038 783.139 412.556 786.196 426.834 788.24C438.808 789.953 448.257 790.395 461.23 790.875C467.201 791.102 472.815 790.563 478.273 790.544C485.529 790.518 492.22 789.512 499.417 788.746C512.78 787.319 526.032 784.054 540.849 779.349C548.455 776.928 554.809 774.475 559.91 771.976C565.342 769.315 571.319 766.038 577.835 762.144C597.48 750.404 614.386 735.405 628.554 717.149C634.966 708.894 640.288 700.542 644.526 692.085C646.414 688.314 648.705 683.298 651.399 677.048C653.287 672.667 654.494 669.688 655.565 665.411C657.194 658.934 658.953 651.86 660.854 644.189C660.913 643.936 660.945 643.67 660.939 643.404C660.906 642.307 661.095 641.366 661.503 640.587Z" fill="#EB8788"/>
<path d="M823.834 696.448C824.052 696.246 824.166 696.014 824.088 695.93C824.01 695.846 823.77 695.941 823.552 696.143C823.333 696.345 823.219 696.578 823.297 696.662C823.375 696.746 823.615 696.65 823.834 696.448Z" fill="#EB8788"/>
<path d="M464.813 816.504C466.182 816.439 466.565 816.101 465.961 815.485C472.153 815.524 477.578 815.848 484.555 815.706C487.443 815.647 490.584 815.498 493.979 815.258C505.719 814.44 516.531 813.746 530.225 812.006C535.164 811.377 545.113 809.65 560.066 806.827C567.574 805.406 577.803 802.907 590.763 799.325C595.085 798.124 600.031 796.58 605.606 794.691C613.653 791.959 618.547 790.284 620.292 789.661C633.279 785.008 646.388 779.511 659.615 773.183C676.404 765.155 691.318 756.439 704.357 747.035C710.464 742.629 717.057 737.599 724.138 731.94C727.655 729.13 733.834 723.217 742.673 714.203C742.9 714.17 743.153 714.281 743.432 714.521C743.569 714.638 743.588 714.845 743.471 714.982C743.471 714.982 743.458 714.995 743.452 715.001C722.405 736.716 697.568 754.94 670.349 768.978C627.645 791.011 582.177 805.542 533.95 812.564C518.29 814.849 503.363 816.166 489.182 816.523C482.543 816.692 474.424 816.685 464.813 816.504Z" fill="#FFBCBA"/>
<path d="M639.047 254.664C637.988 252.607 636.898 250.673 635.777 248.863C635.592 248.567 635.574 248.191 635.734 247.877C639.762 239.858 640.821 230.09 640.298 221.134C639.626 209.74 635.937 199.657 629.224 190.88C627.308 188.38 625.393 186.101 623.471 184.044C623.2 183.754 623.095 183.348 623.2 182.966C625.793 173.253 626.378 163.349 624.955 153.248C622.867 138.442 613.801 125.23 601.772 116.718C599.758 115.296 598.058 114.212 596.673 113.466C596.494 113.374 596.383 113.183 596.389 112.986C596.402 112.524 596.285 110.738 596.044 107.627C594.486 87.5179 583.437 70.8698 565.397 61.9945C561.584 60.1159 556.854 58.5207 551.212 57.2027C550.479 57.0302 549.9 56.4513 549.475 55.4658C544.788 44.5826 537.865 35.9783 528.7 29.6406C517.238 21.7138 502.918 18.2708 489.042 19.8167C488.124 19.9214 487.403 19.6812 486.88 19.1084C473.816 4.87469 455.271 -2.14056 436.104 0.575614C426.89 1.88135 418.427 5.10258 410.71 10.2331C410.254 10.5411 409.669 10.5842 409.17 10.3502C403.695 7.75716 398.004 6.16811 392.109 5.59531C383.708 4.76998 374.79 5.2504 366.851 8.29301C354.619 12.9801 344.967 20.9008 337.903 32.0426C337.675 32.406 337.268 32.6154 336.843 32.5969C331.22 32.3814 325.523 33.2621 319.764 35.2515C302.697 41.1397 288.821 55.0901 283.635 72.6005C283.407 73.3704 282.834 73.9925 282.089 74.2819C269.173 79.3386 259.084 87.7089 252.63 100.058C248.971 107.073 247.025 114.329 246.791 121.83C246.674 125.594 246.68 128.735 246.797 131.26C246.828 131.913 246.526 132.529 246.002 132.911C242.393 135.516 238.919 138.54 235.575 141.983C227.839 149.972 222.524 160.756 220.522 171.522C218.945 180.028 219.604 189.673 221.421 198.148C221.545 198.733 221.372 199.337 220.966 199.768C208.543 212.832 204.558 231.74 208.413 249.22C211.536 263.367 218.188 275.562 228.381 285.805C231.676 288.854 235.107 291.588 238.661 294.015C239.215 294.391 239.634 294.933 239.862 295.555C247.967 317.438 269.98 329.8 292.99 324.78C293.305 324.712 293.637 324.835 293.828 325.106C295.879 327.989 298.355 330.73 301.256 333.323C314.609 345.253 330.155 349.373 347.899 345.69C350.357 345.179 352.9 344.163 354.693 343.701C355.056 343.609 355.438 343.75 355.653 344.058C356.627 345.438 357.686 346.725 358.832 347.92C371.852 361.525 387.669 367.044 406.288 364.463C409.805 363.977 412.786 363.047 416.216 361.913C416.61 361.784 417.042 361.901 417.306 362.215C427.635 374.404 443.169 382.152 459.318 382.041C467.171 381.992 474.057 380.717 479.982 378.223C480.752 377.896 481.768 377.946 483.024 378.371C486.615 379.59 490.292 380.428 494.043 380.877C509.096 382.694 522.572 379.128 534.472 370.179C535.747 369.224 537.071 368.134 538.457 366.908C538.912 366.508 539.516 366.311 540.119 366.36C548.213 367.056 556.33 366.44 563.826 363.521C577.117 358.341 587.379 350.242 593.759 337.788C593.987 337.345 594.388 337.012 594.868 336.87C596.075 336.519 597.911 335.916 600.38 335.06C611.861 331.075 621.463 324.737 629.187 316.034C632.346 312.474 635.278 307.99 637.976 302.582C644.88 287.979 646.642 269.403 639.047 254.664ZM582.26 334.813C574.568 347.563 559.231 355.976 544.339 355.151C542.86 355.071 540.692 354.818 537.841 354.381C534.81 353.925 532.414 356.524 530 358.865C525.165 363.558 518.532 366.884 511.954 368.658C504.089 370.77 496.328 370.518 488.666 367.9C484.318 366.41 481.645 365.092 477.309 366.865C459.903 373.985 440.613 370.388 427.685 356.561C427.007 355.834 425.966 354.559 424.562 352.73C423.225 350.993 422.135 349.959 421.279 349.62C418.378 348.468 415.921 349.755 412.281 351.006C406.719 352.921 400.818 353.617 395.066 353.34C381.251 352.662 369.819 345.358 362.576 333.908C360.039 329.886 357.187 330.366 352.907 331.949C336.554 337.998 320.928 335.774 308.407 324.17C305.278 321.269 303.757 318.88 300.64 314.685C298.503 311.803 296.452 312.191 292.935 312.868C287.601 313.897 282.859 314.223 278.701 313.854C266.328 312.745 255.993 305.028 251.188 293.769C249.679 290.233 249.008 287.215 245.516 284.992C242.11 282.818 238.938 280.354 236.006 277.589C228.012 269.68 222.388 259.247 219.814 248.438C218.2 241.65 217.978 234.814 219.142 227.934C220.664 218.929 225.098 212.105 230.962 205.361C233.29 202.688 233.906 200.618 232.951 197.421C229.397 185.565 229.989 171.898 235.729 160.947C240.41 152.01 247.019 145.075 255.555 140.135C258.469 138.448 258.536 136.089 258.216 132.64C257.631 126.339 257.631 121.442 258.21 117.956C260.52 104.031 267.83 93.831 280.136 87.3639C283.21 85.7441 286.154 84.5431 288.969 83.7485C291.18 83.1265 292.572 81.7468 293.138 79.6219C294.204 75.6308 295.417 72.2248 296.778 69.4039C304.958 52.4971 321.07 42.8211 339.8 44.0037C341.832 44.133 343.551 43.2399 344.955 41.3306C346.643 39.0394 347.93 36.2431 349.772 33.952C357.316 24.5778 366.832 18.9114 378.319 16.9466C382.994 16.1521 388.586 16.2383 395.097 17.2053C399.377 17.8397 403.812 20.02 407.741 21.9848C410.605 23.4137 412.749 22.5391 415.459 20.5928C421.636 16.1521 428.042 13.3127 435.599 12.0501C438.789 11.5142 442.91 11.391 447.967 11.6805C460.771 12.4135 472.258 18.7266 480.425 28.5134C483.338 31.9995 485.79 31.6484 490.538 31.0325C497.344 30.1518 503.984 30.7923 510.457 32.9419C522.818 37.0562 531.965 44.9029 537.896 56.4821C538.42 57.5045 539.436 60.0728 540.951 64.181C541.61 65.9733 543.027 67.1189 545.188 67.6239C549.611 68.6587 551.834 69.176 551.853 69.1822C571.045 74.1095 583.997 89.5073 584.816 109.457C584.878 110.966 584.909 113.238 584.915 116.287C584.915 119.995 586.763 121.165 590.058 122.927C595.213 125.68 599.617 129.006 603.269 132.917C610.346 140.493 614.041 149.608 614.356 160.263C614.694 164.723 614.38 169.256 613.426 173.863C612.957 176.123 612.188 179.141 611.11 182.917C610.389 185.46 611.005 187.635 612.957 189.445C614.959 191.299 617.035 193.572 619.19 196.264C628.509 207.91 631.028 223.296 627.074 237.647C626.224 240.739 624.863 243.683 623.791 246.571C622.886 248.992 623.687 251.024 625.3 253.396C626.594 255.293 627.616 256.931 628.361 258.317C631.878 264.809 633.313 271.83 632.679 279.387C631.909 288.62 628.83 297.132 623.453 304.929C619.104 311.218 613.783 315.646 607.494 319.422C601.908 322.778 595.693 324.879 589.239 326.566C585.851 327.447 584.053 331.845 582.26 334.813Z" fill="#6E3821"/>
<path d="M614.356 160.264C613.191 154.985 611.707 149.947 609.89 145.149C607.765 139.55 602.629 134.056 598.151 130.108C595.207 127.522 592.983 126.376 588.912 123.832C585.5 121.701 583.763 118.523 583.708 114.292C583.671 111.588 583.548 108.989 583.332 106.507C582.648 98.4936 579.439 90.9363 574.42 84.5185C572.141 81.6053 569.332 79.08 565.988 76.949C562.175 74.5161 558.794 72.7854 555.844 71.7691C551.446 70.2478 547.332 69.0714 543.507 68.2399C543.273 68.1907 543.039 68.3385 542.984 68.5725C542.971 68.6156 542.971 68.6649 542.977 68.708C544.092 80.7122 540.563 91.0226 532.39 99.6454C532.125 99.9287 532.137 100.372 532.421 100.637C532.47 100.686 532.525 100.723 532.587 100.754C545.41 107.19 553.965 119.207 554.729 133.57C555.554 149.042 546.796 162.333 532.802 168.942C532.575 169.046 532.476 169.317 532.587 169.545C532.605 169.588 532.63 169.625 532.661 169.662C541.893 179.566 545.478 191.367 543.415 205.059C542.676 209.955 540.933 214.47 538.192 218.615C532.039 227.922 523.404 233.502 512.299 235.343C512.058 235.386 511.892 235.614 511.935 235.855C511.941 235.904 511.96 235.953 511.985 235.996C519.856 250.039 519.111 266.872 508.523 279.159C501.767 287 492.934 291.656 482.02 293.141C481.675 293.184 479.6 293.35 475.787 293.627C475.547 293.646 475.344 293.812 475.276 294.046C474.845 295.58 474.537 297.452 474.032 298.813C470.909 307.294 465.255 313.146 457.07 316.367C447.092 320.296 435.39 318.295 427.894 310.688C427.703 310.491 427.395 310.466 427.173 310.626C416.727 318.171 403.282 319.372 391.598 314.199C384.25 310.947 378.553 305.521 374.5 297.92C374.371 297.674 374.069 297.581 373.823 297.711C373.798 297.723 373.78 297.735 373.761 297.754C366.543 303.063 359.478 306.654 350.307 306.401C340.613 306.136 332.612 302.54 326.299 295.61C322.985 291.97 320.657 287.819 319.308 283.144C319.222 282.849 318.914 282.676 318.612 282.763C318.545 282.781 318.483 282.812 318.428 282.855C300.64 296.547 274.088 290.893 266.623 268.849C266.543 268.615 266.291 268.486 266.05 268.566C266.026 268.572 266.001 268.584 265.977 268.603C262.324 270.715 258.302 271.849 253.917 271.996C242.837 272.372 233.604 268.59 226.232 260.651C226.164 260.571 226.041 260.565 225.961 260.633C225.924 260.664 225.905 260.707 225.899 260.756C225.782 261.581 225.942 262.4 226.379 263.207C228.652 267.426 231.448 271.424 234.768 275.187C235.23 275.704 235.643 276.505 236.006 277.589C228.012 269.681 222.388 259.247 219.814 248.438C218.2 241.65 217.978 234.814 219.142 227.934C220.664 218.929 225.098 212.105 230.962 205.361C233.29 202.688 233.906 200.618 232.951 197.422C229.397 185.565 229.989 171.898 235.729 160.947C240.41 152.01 247.019 145.075 255.555 140.135C258.469 138.448 258.536 136.089 258.216 132.64C257.631 126.339 257.631 121.443 258.216 117.956C260.526 104.031 267.837 93.8311 280.143 87.364C283.216 85.7442 286.16 84.5432 288.975 83.7486C291.186 83.1266 292.578 81.7469 293.144 79.622C294.21 75.6309 295.423 72.2249 296.784 69.404C304.964 52.4972 321.076 42.8212 339.806 44.0038C341.839 44.1331 343.557 43.24 344.961 41.3307C346.649 39.0395 347.936 36.2432 349.778 33.952C357.323 24.5778 366.838 18.9114 378.325 16.9467C383 16.1522 388.593 16.2384 395.103 17.2054C399.383 17.8398 403.818 20.0201 407.747 21.9848C410.611 23.4138 412.755 22.5392 415.465 20.5929C421.642 16.1522 428.048 13.3128 435.605 12.0502C438.796 11.5143 442.916 11.3911 447.973 11.6806C460.778 12.4136 472.264 18.7267 480.431 28.5135C483.345 31.9996 485.796 31.6485 490.545 31.0326C497.35 30.1519 503.99 30.7924 510.463 32.9419C522.825 37.0562 531.971 44.903 537.902 56.4822C538.426 57.5046 539.442 60.0729 540.957 64.1811C541.616 65.9734 543.033 67.119 545.195 67.624C549.617 68.6588 551.84 69.1761 551.859 69.1823C571.051 74.1096 584.003 89.5074 584.822 109.457C584.884 110.966 584.915 113.239 584.921 116.287C584.921 119.995 586.769 121.165 590.064 122.927C595.219 125.68 599.623 129.006 603.275 132.917C610.352 140.493 614.048 149.608 614.362 160.264H614.356ZM321.396 135.067C312.232 132.283 301.786 139.945 298.072 152.183C294.352 164.421 298.768 176.598 307.933 179.381C317.097 182.165 327.543 174.503 331.257 162.265C334.977 150.027 330.561 137.85 321.396 135.067ZM439.559 163.442C428.855 160.491 417.232 168.775 413.605 181.95C409.977 195.118 415.717 208.188 426.422 211.138C437.126 214.088 448.749 205.804 452.376 192.63C456.004 179.462 450.264 166.392 439.559 163.442ZM349.26 175.36C345.337 173.309 341.506 176.955 341.001 180.712C339.603 191.016 345.608 200.446 354.311 205.539C358.351 207.911 362.841 208.988 367.775 208.779C373.835 208.52 379.292 206.371 384.139 202.337C387.761 199.319 391.487 194.779 390.545 189.84C390.034 187.154 387.853 185.146 384.996 185.516C381.971 185.91 380.641 187.826 378.984 190.874C377.851 192.95 375.923 194.514 373.195 195.568C366.475 198.161 360.605 196.892 355.586 191.755C354.385 190.523 353.461 189.107 352.802 187.512C351.28 183.804 353.424 177.534 349.26 175.36Z" fill="#FFF9F2"/>
<path d="M321.396 135.066C312.232 132.282 301.786 139.944 298.072 152.183C294.352 164.421 298.768 176.597 307.933 179.381C317.097 182.165 327.543 174.503 331.257 162.265C334.977 150.027 330.561 137.85 321.396 135.066ZM319.74 145.075C322.4 145.993 323.743 149.097 322.739 152.016C321.735 154.936 318.767 156.556 316.106 155.638C313.445 154.72 312.102 151.616 313.106 148.696C314.11 145.777 317.079 144.157 319.74 145.075ZM312.533 148.641C312.583 148.487 312.638 148.339 312.7 148.198C312.638 148.345 312.583 148.493 312.533 148.641ZM323.343 152.109C322.813 153.753 321.735 155.04 320.411 155.804C321.735 155.04 322.819 153.747 323.343 152.109Z" fill="#6E3821"/>
<path d="M322.732 152.015C323.736 149.098 322.394 145.991 319.734 145.075C317.075 144.159 314.104 145.781 313.1 148.698C312.095 151.616 313.437 154.723 316.097 155.639C318.757 156.555 321.727 154.932 322.732 152.015Z" fill="#FFF9F2"/>
<path d="M614.356 160.263C614.694 164.723 614.38 169.256 613.425 173.863C612.957 176.123 612.187 179.141 611.11 182.917C610.389 185.46 611.005 187.635 612.957 189.445C614.959 191.299 617.035 193.572 619.19 196.264C628.509 207.91 631.028 223.296 627.074 237.647C626.224 240.739 624.863 243.683 623.791 246.571C622.886 248.992 623.687 251.024 625.3 253.396C626.594 255.293 627.616 256.931 628.361 258.317C631.878 264.809 633.313 271.83 632.679 279.387C631.909 288.62 628.829 297.132 623.453 304.929C619.104 311.218 613.783 315.646 607.494 319.422C601.908 322.778 595.693 324.879 589.239 326.566C585.851 327.447 584.053 331.845 582.26 334.813C574.568 347.563 559.231 355.976 544.338 355.151C542.86 355.071 540.692 354.818 537.841 354.381C534.81 353.925 532.414 356.524 530 358.865C525.165 363.558 518.532 366.884 511.954 368.658C504.089 370.77 496.328 370.518 488.666 367.9C484.318 366.41 481.645 365.092 477.309 366.865C459.903 373.985 440.613 370.388 427.684 356.561C427.007 355.834 425.966 354.559 424.562 352.73C423.225 350.993 422.135 349.959 421.279 349.62C418.378 348.468 415.921 349.755 412.281 351.006C406.719 352.921 400.818 353.617 395.066 353.34C381.251 352.662 369.819 345.358 362.576 333.908C360.039 329.886 357.187 330.366 352.906 331.949C336.554 337.998 320.928 335.774 308.407 324.17C305.278 321.269 303.757 318.88 300.64 314.685C298.503 311.803 296.452 312.191 292.935 312.868C287.601 313.897 282.859 314.223 278.701 313.854C266.328 312.745 255.993 305.028 251.188 293.769C249.679 290.233 249.008 287.215 245.516 284.992C242.11 282.818 238.938 280.354 236.006 277.589C235.643 276.505 235.23 275.704 234.768 275.187C231.448 271.423 228.652 267.426 226.379 263.207C225.942 262.4 225.782 261.581 225.899 260.756C225.911 260.651 226.004 260.577 226.108 260.59C226.158 260.59 226.201 260.62 226.232 260.651C233.604 268.59 242.837 272.372 253.917 271.996C258.302 271.848 262.324 270.715 265.976 268.603C266.192 268.479 266.469 268.559 266.586 268.775C266.599 268.8 266.611 268.824 266.623 268.849C274.088 290.892 300.64 296.547 318.428 282.855C318.674 282.664 319.025 282.713 319.216 282.96C319.259 283.015 319.29 283.077 319.308 283.144C320.657 287.819 322.985 291.97 326.299 295.61C332.612 302.539 340.613 306.136 350.307 306.401C359.478 306.654 366.543 303.063 373.761 297.754C373.983 297.587 374.297 297.637 374.457 297.852C374.47 297.871 374.488 297.895 374.5 297.914C378.553 305.514 384.25 310.94 391.598 314.192C403.282 319.366 416.727 318.165 427.173 310.62C427.395 310.46 427.703 310.485 427.894 310.682C435.39 318.288 447.092 320.29 457.07 316.361C465.255 313.139 470.909 307.288 474.032 298.807C474.537 297.446 474.845 295.573 475.276 294.04C475.344 293.806 475.547 293.639 475.787 293.621C479.6 293.344 481.675 293.178 482.02 293.134C492.934 291.65 501.767 286.994 508.523 279.153C519.111 266.866 519.856 250.033 511.985 235.99C511.868 235.774 511.941 235.503 512.157 235.386C512.2 235.362 512.249 235.343 512.299 235.337C523.404 233.496 532.039 227.915 538.192 218.609C540.932 214.464 542.676 209.949 543.415 205.053C545.478 191.361 541.893 179.56 532.661 169.656C532.488 169.471 532.501 169.182 532.685 169.009C532.722 168.979 532.759 168.954 532.802 168.936C546.796 162.327 555.554 149.035 554.729 133.564C553.965 119.201 545.41 107.184 532.587 100.748C532.242 100.575 532.1 100.15 532.273 99.8054C532.304 99.7438 532.34 99.6884 532.39 99.6391C540.563 91.0163 544.092 80.7059 542.977 68.7018C542.953 68.4616 543.131 68.246 543.372 68.2275C543.415 68.2275 543.464 68.2275 543.507 68.2337C547.332 69.0652 551.446 70.2416 555.844 71.7629C558.794 72.7791 562.175 74.5099 565.988 76.9427C569.332 79.0738 572.141 81.599 574.42 84.5123C579.439 90.9301 582.648 98.4874 583.332 106.5C583.548 108.983 583.671 111.582 583.708 114.286C583.763 118.517 585.5 121.695 588.912 123.826C592.983 126.37 595.207 127.515 598.151 130.102C602.629 134.05 607.765 139.544 609.89 145.143C611.707 149.941 613.191 154.979 614.356 160.257V160.263Z" fill="#FFE4C7"/>
<path d="M439.559 163.442C428.855 160.492 417.233 168.776 413.605 181.95C409.977 195.118 415.717 208.188 426.422 211.138C437.127 214.088 448.749 205.804 452.377 192.63C456.004 179.462 450.264 166.392 439.559 163.442ZM441.376 182.369C439.991 185.325 436.591 186.649 433.776 185.331C430.961 184.013 429.803 180.552 431.189 177.595C432.575 174.639 435.975 173.315 438.79 174.633C441.604 175.951 442.762 179.412 441.376 182.369Z" fill="#6E3821"/>
<path d="M441.374 182.369C442.758 179.415 441.6 175.952 438.787 174.635C435.975 173.318 432.573 174.644 431.19 177.598C429.806 180.553 430.964 184.015 433.776 185.333C436.589 186.65 439.99 185.323 441.374 182.369Z" fill="#FFF9F2"/>
<path d="M390.545 189.84C390.034 187.154 387.854 185.146 384.996 185.516C381.972 185.91 380.641 187.826 378.984 190.874C377.851 192.95 375.923 194.514 373.195 195.568C366.475 198.161 360.606 196.892 355.586 191.755C354.385 190.523 353.461 189.107 352.802 187.511C351.281 183.804 353.424 177.534 349.26 175.359C345.337 173.308 341.506 176.955 341.001 180.712C339.603 191.016 345.608 200.446 354.311 205.539C358.351 207.91 362.841 208.988 367.775 208.779C373.835 208.52 379.292 206.371 384.14 202.336C387.761 199.318 391.487 194.779 390.545 189.84Z" fill="#6E3821"/>
</svg>
