<svg width="577" height="506" viewBox="0 0 577 506" fill="none" xmlns="http://www.w3.org/2000/svg">
<g clip-path="url(#clip0_1_487)">
<path d="M383.25 21.4002C378.74 22.4702 374.19 23.4102 369.61 24.2002C363.12 25.3302 358.56 26.2102 355.93 26.8402C326.67 33.8302 298.58 42.3302 270.73 54.3602C218.72 76.8102 174.05 108.96 136.71 150.81C115.41 174.69 97.19 200.58 82.06 228.47C70.36 250.04 60.03 271.97 51.07 294.26C47.48 303.17 43.43 313.68 38.9 325.79C38.68 326.38 38.03 327.67 36.95 329.67C35.26 328.37 33.74 326.94 32.39 325.39C29.52 322.07 26.95 318.52 24.68 314.75C24.41 314.3 24.07 313.89 23.67 313.55L20.96 311.21C19.64 304.68 18.91 298.09 18.78 291.44L18.59 282.91C19.41 261.68 23.61 241.11 31.18 221.2C39.51 199.2 50.62 178.36 64.51 158.68C74.33 144.76 84.93 132.03 96.32 120.49C119.64 96.8502 145.99 77.0802 175.36 61.1802C232.65 31.2302 293.86 17.2902 358.99 19.3402C367.12 19.6002 375.21 20.2902 383.25 21.4002Z" fill="#F75E29"/>
<path d="M383.25 21.3999C398.8 22.9299 414.19 25.9699 429.44 30.4999C425.87 31.2199 418.74 32.2999 408.05 33.7299C343.91 42.3599 284.89 64.9499 231 101.49C215.35 112.1 201.03 123.53 188.04 135.78C173.39 149.59 160.94 163.04 150.67 176.11C136.6 194.03 124.77 210.96 115.19 226.89C93.32 263.26 74.1 302.41 57.51 344.32C50.2 340.27 43.35 335.38 36.95 329.67C38.03 327.67 38.68 326.38 38.9 325.79C43.43 313.68 47.48 303.17 51.07 294.26C60.03 271.97 70.36 250.04 82.06 228.47C97.19 200.58 115.41 174.69 136.71 150.81C174.05 108.96 218.72 76.8099 270.73 54.3599C298.58 42.3299 326.67 33.8299 355.93 26.8399C358.56 26.2099 363.12 25.3299 369.61 24.1999C374.19 23.4099 378.74 22.4699 383.25 21.3999Z" fill="#FF8157"/>
<path d="M501.9 63.86C497.31 65.01 492.73 65.87 488.16 66.45C479.41 67.56 474.97 68.13 474.85 68.15C405.45 79.86 344.15 115.46 296.09 166.78C272.3 192.18 250.73 221.16 232 250.69C208.87 287.16 185.86 328.71 160.23 368.73C160.12 368.9 160 369.05 159.87 369.2C159.24 369.87 158.66 370.61 158.15 371.4C140.94 369.91 123.15 366.86 104.79 362.24C88.04 358.02 72.28 352.05 57.51 344.32C74.1 302.41 93.32 263.26 115.19 226.89C124.77 210.96 136.6 194.03 150.67 176.11C160.94 163.04 173.39 149.59 188.04 135.78C201.03 123.53 215.35 112.1 231 101.49C284.89 64.95 343.91 42.36 408.05 33.73C418.74 32.3 425.87 31.22 429.44 30.5C455.07 37.2 479.23 48.32 501.9 63.86Z" fill="#F75E29"/>
<path d="M501.9 63.8599C508.42 68.1899 515.05 73.4099 521.8 79.5399C517.45 79.8499 513.29 80.2299 509.32 80.6999C461.6 86.3499 418.45 102.2 379.86 128.23C331.5 160.86 294.24 206.78 261.96 254.88C243.75 282.02 230.34 304.57 209.39 338.98C202.74 349.89 195.78 360.27 188.69 370.88C188.51 371.15 188.2 371.84 187.77 372.97C187.22 373.18 186.65 373.28 186.05 373.26C176.9 372.94 167.6 372.32 158.15 371.4C158.66 370.61 159.24 369.87 159.87 369.2C160 369.05 160.12 368.9 160.23 368.73C185.86 328.71 208.87 287.16 232 250.69C250.73 221.16 272.3 192.18 296.09 166.78C344.15 115.46 405.45 79.8599 474.85 68.1499C474.97 68.1299 479.41 67.5599 488.16 66.4499C492.73 65.8699 497.31 65.0099 501.9 63.8599Z" fill="#FF8157"/>
<path d="M542.22 101.93C543.81 110.91 543.04 118.92 539.89 125.97C537.73 130.8 534.27 135.36 529.5 139.65C525.06 143.63 520.33 146.91 515.3 149.5C501.8 156.43 484.45 161.82 467.98 166.82C460.73 169.02 454.9 171 450.47 172.76C433.84 179.38 418.29 188.29 403.82 199.5C384.96 214.11 368.19 230.29 353.05 247.99C341.89 261.04 330.7 274.88 319.47 289.49C311.17 300.3 305.17 307.91 301.46 312.33C288.17 328.19 277.31 340.63 265.52 350.94C249.78 364.7 230 371.82 209.05 373.11C204.4 373.4 197.87 373.54 189.46 373.54C189.34 373.54 189.23 373.52 189.12 373.47L187.77 372.97C188.2 371.84 188.51 371.15 188.69 370.88C195.78 360.27 202.74 349.89 209.39 338.98C230.34 304.57 243.75 282.02 261.96 254.88C294.24 206.78 331.5 160.86 379.86 128.23C418.45 102.2 461.6 86.35 509.32 80.7C513.29 80.23 517.45 79.85 521.8 79.54C529.71 86.52 536.51 93.98 542.22 101.93Z" fill="#F75E29"/>
<path d="M517.07 182.41C513.16 183.26 505.21 185.09 493.24 187.91C481.7 190.62 471.24 194.07 461.85 198.25C449.38 203.2 437.42 209.76 425.97 217.91C404.33 233.32 385.7 250.6 370.08 269.77C353.04 290.67 336.74 314.38 321.77 334.46C314.63 344.05 306.97 353.3 298.8 362.22C290.51 371.28 282 378.86 273.27 384.95C249.58 401.49 221.7 404.16 193.55 401.01C158.14 397.04 122.92 389.01 87.87 376.91C71.9 371.4 56.84 364 44.19 352.7C32.07 341.87 24.2 327.16 20.96 311.21L23.67 313.55C24.07 313.89 24.41 314.3 24.68 314.75C26.95 318.52 29.52 322.07 32.39 325.39C33.74 326.94 35.26 328.37 36.95 329.67C43.35 335.38 50.2 340.27 57.51 344.32C72.28 352.05 88.04 358.02 104.79 362.24C123.15 366.86 140.94 369.91 158.15 371.4C167.6 372.32 176.9 372.94 186.05 373.26C186.65 373.28 187.22 373.18 187.77 372.97L189.12 373.47C189.23 373.52 189.34 373.54 189.46 373.54C197.87 373.54 204.4 373.4 209.05 373.11C230 371.82 249.78 364.7 265.52 350.94C277.31 340.63 288.17 328.19 301.46 312.33C305.17 307.91 311.17 300.3 319.47 289.49C330.7 274.88 341.89 261.04 353.05 247.99C368.19 230.29 384.96 214.11 403.82 199.5C418.29 188.29 433.84 179.38 450.47 172.76C454.9 171 460.73 169.02 467.98 166.82C484.45 161.82 501.8 156.43 515.3 149.5C520.33 146.91 525.06 143.63 529.5 139.65C534.27 135.36 537.73 130.8 539.89 125.97C543.04 118.92 543.81 110.91 542.22 101.93C546.73 107.66 550.66 114.69 554 123C562.71 144.69 556.91 166.85 534.33 176.51C528.8 178.88 523.05 180.84 517.07 182.41Z" fill="#E85F1D"/>
<path d="M575.74 133.75C574.16 122.76 570.4 112.19 564.46 102.04C561.47 96.9398 559.3 93.5298 557.95 91.7998C554.66 87.5998 552.55 84.1598 549.42 81.0898C546.93 78.6398 544.07 74.8798 541.47 72.3398C528.34 59.5098 514.71 48.8598 500.59 40.4098C474.2 24.6098 445.5 13.5698 414.48 7.27978C399.44 4.22978 386.44 2.27978 375.47 1.41978C372.86 1.20978 371.12 1.10978 370.26 1.10978C365.61 1.10978 362.15 0.439776 357.11 0.359776C347.1 0.199776 339.56 -0.420224 329.04 0.469776C324.27 0.879776 318.73 0.879776 315.06 1.22978C293.63 3.23978 275.54 5.92978 260.8 9.28978C224.48 17.5598 189.9 30.9998 157.07 49.5898C136.56 61.1998 118.07 74.4498 101.61 89.3198C90.9 98.9898 80.8 109.22 71.31 119.99C67.28 124.56 61.73 131.6 54.66 141.09C38.47 162.8 25.54 185.62 15.85 209.55C8.76 227.08 3.97001 245.19 1.48001 263.9C-0.0399948 275.37 -0.389995 286.56 0.440005 297.47C2.18001 320.45 10.82 343.51 26.46 361.03C29.58 364.54 30.46 367.05 30.34 371.5C30.19 377.17 30.2 382.39 30.37 387.18C30.47 389.91 31.13 392.84 31.69 396.28C32.47 401.03 34.48 406.01 36.41 410.99C38.67 416.8 42.07 422.64 46.6 428.53C49.28 432.01 53.79 436.18 56.23 438.68C58.66 441.16 60.71 442.24 63.07 444.33C63.86 445.02 65.61 446.19 68.33 447.83C76.63 452.83 86.46 455.91 96.14 457.13C97.19 457.26 98.14 457.82 98.76 458.69L102.97 464.6C103.06 464.73 103.17 464.86 103.28 464.99L109.18 471.44C109.27 471.53 109.36 471.62 109.46 471.69C111.05 472.84 112.39 473.99 113.49 475.15C114.48 476.19 115.88 477.33 117.69 478.58C123.88 482.83 129.81 485.98 135.49 488.03C150.62 493.46 165.78 493.91 180.99 489.36C181.71 489.15 182.48 489.28 183.07 489.73C187.15 492.8 189.33 494.94 192.81 496.44C193.16 496.59 194.37 497.25 196.44 498.42C204.22 502.81 213.35 504.9 222.66 505.78C225.1 506.01 227.86 505.99 230.95 505.7C235.74 505.25 238.5 504.97 239.22 504.85C248.11 503.32 256.35 500.21 263.96 495.53C264.75 495.04 265.74 494.98 266.59 495.36C278.65 500.8 291.4 502.36 304.51 501.3C314.9 500.46 325.13 496.91 335.2 490.66C339.33 488.1 343.23 484.98 346.88 481.31C347.34 480.85 348.75 479.34 351.11 476.78C351.59 476.26 352.28 475.99 352.98 476.05C364.6 477.02 376.64 475.96 387.5 471.6C401.43 466.01 412.81 457.08 421.62 444.81C423.93 441.6 425.88 438.22 427.47 434.69C427.81 433.94 428.55 433.46 429.37 433.47C447.56 433.56 463.73 427.92 477.9 416.55C490.47 406.47 499.69 392.45 503.48 376.61C503.6 376.07 504.01 375.64 504.54 375.47C508.19 374.32 514.56 373.41 518.72 371.72C529.12 367.5 537.75 361.61 544.62 354.04C553.08 344.72 558.72 333.45 561.55 320.23C561.89 318.62 562.34 314.95 562.9 309.24C563.31 304.97 562.48 301.4 562.23 297.23C561.83 290.57 559.65 283.56 557.31 277.23C556.84 275.94 557.07 274.49 557.93 273.42C563.74 266.16 567.59 257.9 569.48 248.65C570.28 244.71 571.2 239.32 571.05 234.77C570.49 217.91 564.71 203.26 553.72 190.82C552.93 189.93 552.5 189.24 552.42 188.73C552.07 186.47 554.65 185.85 555.81 184.95C565.72 177.34 572.06 167.57 574.83 155.64C575.56 152.51 575.96 148.87 576.03 144.74C576.12 139.35 576.02 135.68 575.74 133.75ZM64.51 158.68C74.33 144.76 84.93 132.03 96.32 120.49C119.64 96.8498 145.99 77.0798 175.36 61.1798C232.65 31.2298 293.86 17.2898 358.99 19.3398C367.12 19.5998 375.21 20.2898 383.25 21.3998C398.8 22.9298 414.19 25.9698 429.44 30.4998C455.07 37.1998 479.23 48.3198 501.9 63.8598C508.42 68.1898 515.05 73.4098 521.8 79.5398C529.71 86.5198 536.51 93.9798 542.22 101.93C546.73 107.66 550.66 114.69 554 123C562.71 144.69 556.91 166.85 534.33 176.51C528.8 178.88 523.05 180.84 517.07 182.41C513.16 183.26 505.21 185.09 493.24 187.91C481.7 190.62 471.24 194.07 461.85 198.25C449.38 203.2 437.42 209.76 425.97 217.91C404.33 233.32 385.7 250.6 370.08 269.77C353.04 290.67 336.74 314.38 321.77 334.46C314.63 344.05 306.97 353.3 298.8 362.22C290.51 371.28 282 378.86 273.27 384.95C249.58 401.49 221.7 404.16 193.55 401.01C158.14 397.04 122.92 389.01 87.87 376.91C71.9 371.4 56.84 364 44.19 352.7C32.07 341.87 24.2 327.16 20.96 311.21C19.64 304.68 18.91 298.09 18.78 291.44L18.59 282.91C19.41 261.68 23.61 241.11 31.18 221.2C39.51 199.2 50.62 178.36 64.51 158.68ZM537.42 275.99C537.52 276.91 538.54 280.24 540.48 285.98C543.77 295.71 544.73 304.97 543.35 313.77C539.74 336.77 522.55 354.28 499.27 356.97C495.34 357.42 492.76 358.03 491.55 358.8C486.9 361.74 486.33 366.87 485.15 372.2C479.49 397.82 451.8 416.88 425.86 413.84C423.29 413.54 421.61 413.49 420.81 413.7C416.84 414.72 414.24 416.85 413.03 420.09C406.99 436.25 396.32 447.38 381.01 453.47C370.71 457.56 360.48 458.3 349.62 456.05C345.89 455.28 342.9 456.22 340.63 458.88C337.92 462.06 336.4 464.67 333.42 467.63C315.66 485.31 289.53 487.2 267.97 475.31C264.14 473.19 260.48 475.09 256.67 477.55C250.87 481.28 245.88 483.65 241.71 484.68C222.2 489.47 205.31 485.02 191.06 471.32C188.19 468.56 184.75 467.95 180.72 469.49C168.64 474.11 156.47 474.64 144.07 470.74C130.64 466.51 120.16 457.84 112.62 444.74C108.27 437.19 101.81 439.01 94.55 437.42C67.34 431.49 49.05 408.49 48.83 380.83C48.83 380.77 48.85 380.71 48.88 380.66C48.97 380.52 49.17 380.48 49.31 380.57C52.24 382.49 55.42 384.29 58.83 385.96C70.56 391.72 83.21 396.73 96.78 401C121.31 408.71 146.98 414.62 173.78 418.75C190.57 421.34 206.49 422.35 221.54 421.76C240.37 421.03 257.89 416.13 274.1 407.04C284.9 400.98 294.97 393.46 304.3 384.47C327.06 362.55 344.63 337.16 363.92 309.86C364.63 308.85 368.6 303.56 375.82 293.99C387.44 278.58 399.82 264.89 412.96 252.92C433.25 234.41 456.01 220.82 481.22 212.15C499.09 206 515.99 203.21 533.09 197.85C533.64 197.68 534.23 197.82 534.65 198.2C540.47 203.55 545.07 209.99 548.44 217.53C553.29 228.37 553.54 243.15 547.25 253.7C543.35 260.23 536.49 267.17 537.42 275.99ZM49.36 379.45C49.29 379.45 49.22 379.46 49.15 379.47C49.22 379.47 49.29 379.45 49.36 379.45ZM48.12 379.99C48.12 379.99 48.06 380.07 48.03 380.1C48.06 380.06 48.09 380.02 48.12 379.99ZM47.9 380.27C47.9 380.27 47.87 380.32 47.86 380.34C47.86 380.32 47.87 380.3 47.88 380.29C47.88 380.29 47.89 380.28 47.9 380.27ZM48.38 379.77C48.38 379.77 48.29 379.84 48.25 379.88C48.29 379.84 48.34 379.8 48.38 379.77ZM18.46 284.88C18.46 284.88 18.46 284.88 18.46 284.89C18.46 284.89 18.45 284.89 18.44 284.9C18.44 284.9 18.46 284.89 18.46 284.88ZM47.71 380.69C47.71 380.69 47.69 380.76 47.68 380.8C47.68 380.76 47.7 380.73 47.71 380.69Z" fill="#553630"/>
<path d="M533.09 197.85C533.64 197.68 534.23 197.82 534.65 198.2C540.47 203.55 545.07 209.99 548.44 217.53C553.29 228.37 553.54 243.15 547.25 253.7C543.35 260.23 536.49 267.17 537.42 275.99C537.52 276.911 538.54 280.241 540.479 285.98C543.769 295.71 544.729 304.97 543.35 313.77C539.74 336.77 522.55 354.28 499.27 356.97C495.34 357.42 492.76 358.03 491.55 358.8C486.9 361.74 486.33 366.87 485.15 372.2C479.49 397.82 451.8 416.88 425.86 413.84C423.29 413.54 421.61 413.49 420.81 413.7C416.84 414.72 414.24 416.85 413.03 420.09C406.99 436.25 396.32 447.38 381.01 453.47C370.71 457.56 360.48 458.3 349.62 456.05C345.89 455.28 342.9 456.22 340.63 458.88C337.92 462.06 336.4 464.67 333.42 467.63C315.66 485.31 289.53 487.2 267.97 475.31C264.14 473.19 260.48 475.09 256.67 477.55C250.87 481.28 245.88 483.65 241.71 484.68C222.2 489.47 205.31 485.02 191.06 471.32C188.19 468.56 184.75 467.95 180.72 469.49C168.64 474.11 156.47 474.64 144.07 470.74C130.64 466.51 120.16 457.84 112.62 444.74C108.27 437.19 101.81 439.01 94.5498 437.42C67.3399 431.49 49.0501 408.49 48.8301 380.83C48.8301 380.66 48.9698 380.521 49.1396 380.521C49.1996 380.521 49.2596 380.54 49.3096 380.57C52.2396 382.49 55.4201 384.29 58.8301 385.96C70.5601 391.72 83.2103 396.73 96.7803 401C121.31 408.71 146.98 414.62 173.78 418.75C190.57 421.34 206.49 422.35 221.54 421.76C240.37 421.03 257.89 416.13 274.1 407.04C284.9 400.98 294.97 393.46 304.3 384.47C327.06 362.55 344.63 337.16 363.92 309.86C364.63 308.85 368.6 303.56 375.82 293.99C387.44 278.58 399.82 264.89 412.96 252.92C433.25 234.41 456.01 220.82 481.22 212.15C499.09 206 515.99 203.21 533.09 197.85ZM280.434 451.465C280.628 451.526 280.824 451.584 281.021 451.642C280.796 451.575 280.572 451.508 280.35 451.438L280.434 451.465ZM294.276 438.813C294.103 438.837 293.929 438.858 293.755 438.877L294.277 438.813C294.451 438.79 294.623 438.765 294.795 438.738L294.276 438.813ZM283.911 437.963C284.075 438.013 284.239 438.061 284.403 438.107L283.911 437.962C283.747 437.912 283.584 437.861 283.421 437.808L283.911 437.963ZM280.544 436.675C280.701 436.747 280.859 436.817 281.017 436.887C280.701 436.748 280.387 436.603 280.075 436.452L280.544 436.675ZM275.158 433.551C275.25 433.604 275.342 433.657 275.433 433.713L275.158 433.55C275.066 433.497 274.973 433.446 274.88 433.396L275.158 433.551ZM308.099 432.614C308.008 432.669 307.918 432.726 307.828 432.783L308.099 432.615C308.189 432.561 308.28 432.507 308.372 432.455L308.099 432.614ZM403.979 371.91C403.714 372.124 403.447 372.334 403.179 372.54C403.447 372.334 403.715 372.124 403.98 371.91C404.167 371.76 404.353 371.606 404.538 371.449L403.979 371.91ZM373.229 365.811C373.674 365.874 374.121 365.94 374.567 366.002L373.229 365.81C373.007 365.778 372.785 365.747 372.564 365.718L373.229 365.811ZM388.291 364.789C388.13 364.848 387.968 364.907 387.805 364.963L388.291 364.79C388.453 364.731 388.613 364.669 388.773 364.606L388.291 364.789ZM390.653 363.778C390.5 363.854 390.346 363.928 390.19 364L390.653 363.779C390.807 363.704 390.959 363.626 391.11 363.548L390.653 363.778ZM406.45 346.546C406.393 346.59 406.338 346.636 406.282 346.683L406.45 346.547C406.507 346.503 406.565 346.46 406.623 346.418L406.45 346.546ZM461.429 338.564C461.282 338.581 461.135 338.597 460.988 338.611C461.282 338.583 461.576 338.549 461.871 338.509L461.429 338.564ZM464.969 337.896C464.086 338.124 463.199 338.309 462.313 338.445L462.757 338.373C463.79 338.196 464.825 337.952 465.851 337.653L464.969 337.896ZM483.518 325.479C482.08 327.395 480.509 329.103 478.939 330.49C476.192 332.914 472.472 335.218 468.462 336.768L469.317 336.425C473 334.889 476.389 332.741 478.94 330.49C480.707 328.929 482.473 326.963 484.051 324.751L483.518 325.479ZM486.024 321.67C485.72 322.203 485.402 322.728 485.072 323.242L485.558 322.464C485.875 321.94 486.181 321.406 486.472 320.864L486.024 321.67ZM489.226 313.675C489.193 313.819 489.16 313.963 489.125 314.106L489.227 313.675C489.259 313.531 489.289 313.386 489.318 313.242L489.226 313.675ZM475.492 311.917C475.341 312.236 475.185 312.551 475.024 312.863L475.262 312.394C475.34 312.236 475.416 312.077 475.492 311.918V311.917ZM489.595 311.517C489.578 311.66 489.56 311.804 489.54 311.947L489.596 311.517C489.612 311.373 489.627 311.229 489.641 311.086L489.595 311.517ZM489.719 309.375H489.72C489.719 308.95 489.701 308.527 489.667 308.107L489.695 308.528C489.711 308.809 489.718 309.092 489.719 309.375ZM477.332 307.42C477.083 308.113 476.827 308.795 476.559 309.465L476.953 308.451C477.082 308.111 477.208 307.767 477.332 307.421V307.42ZM489.437 306.445C489.518 306.856 489.581 307.271 489.627 307.688L489.575 307.271C489.518 306.856 489.443 306.444 489.35 306.036L489.437 306.445ZM489.172 305.354C489.199 305.444 489.226 305.536 489.25 305.63L489.173 305.354C489.145 305.263 489.116 305.174 489.086 305.086L489.172 305.354ZM478.735 303.869C478.555 304.156 478.394 304.466 478.254 304.797L478.363 304.553C478.476 304.313 478.6 304.085 478.735 303.87V303.869ZM488.776 304.336C488.815 304.415 488.852 304.495 488.888 304.577L488.777 304.336C488.739 304.257 488.699 304.18 488.658 304.104L488.776 304.336ZM479.66 302.728C479.431 302.948 479.217 303.191 479.02 303.456L479.171 303.262C479.377 303.008 479.599 302.777 479.835 302.567L479.66 302.728ZM480.975 301.776C480.639 301.954 480.316 302.167 480.014 302.414L480.198 302.271C480.509 302.037 480.837 301.837 481.179 301.674L480.975 301.776ZM481.594 301.494C481.524 301.521 481.454 301.55 481.385 301.58L481.594 301.495C481.664 301.468 481.735 301.442 481.806 301.418L481.594 301.494Z" fill="#FFF4E9"/>
<path d="M302.091 417.086C304.491 415.366 308.281 416.436 311.811 416.816C324.431 418.176 334.001 411.846 339.811 400.686C341.391 397.646 342.641 396.326 345.641 396.026C348.901 395.696 351.121 398.526 351.231 401.636C351.501 409.696 345.861 417.736 339.891 422.556C330.481 430.146 319.571 432.526 307.141 429.706C303.391 428.856 301.091 426.676 300.251 423.186C299.601 420.476 300.211 418.436 302.091 417.086Z" fill="#FFE9D3"/>
<path d="M407.084 374.985C400.045 378.896 390.773 380.683 383.164 378.432C379.555 377.368 375.752 373.955 376.452 369.804C377.093 366.078 380.68 365.166 384.07 365.554C389.773 366.219 395.215 365.462 400.24 362.664C405.266 359.867 408.787 355.645 411.237 350.461C412.701 347.377 415.365 344.814 418.869 346.239C422.757 347.834 423.649 352.866 422.648 356.487C420.532 364.138 414.122 371.074 407.084 374.985Z" fill="#FFE9D3"/>
<path d="M481.884 316.703C475.781 321.956 467.06 325.579 459.154 324.913C455.405 324.599 450.99 322.025 450.837 317.818C450.712 314.04 454.041 312.421 457.439 312.117C463.158 311.615 468.335 309.774 472.692 306.019C477.048 302.264 479.644 297.418 480.996 291.846C481.807 288.529 483.898 285.481 487.617 286.168C491.747 286.945 493.638 291.693 493.389 295.442C492.863 303.362 487.987 311.45 481.884 316.703Z" fill="#FFE9D3"/>
</g>
<defs>
<clipPath id="clip0_1_487">
<rect width="576.06" height="505.94" fill="white"/>
</clipPath>
</defs>
</svg>
