<?xml version="1.0" encoding="UTF-8"?>
<svg xmlns="http://www.w3.org/2000/svg" width="491" height="905" viewBox="0 0 491 905" fill="none">
  <g clip-path="url(#clip0_3_722)">
    <path d="M212.21 209.65L211.97 209.3C211.86 209.12 211.63 209.07 211.46 209.19C211.35 209.26 211.28 209.38 211.28 209.51C211.28 210.82 211.61 212.12 212.28 213.39C212.46 213.72 212.33 214.13 211.99 214.31C211.91 214.35 211.83 214.38 211.74 214.39C195.85 215.95 182.62 223.29 170.98 234.3C166.83 238.23 163.25 242.49 160.24 247.06C158.65 245.83 157.19 245.13 155.87 244.94C125.77 240.65 98.01 229.99 72.6 212.94C57.97 203.13 44.91 192.76 32.91 180.16C27.2 174.17 22.8 167.51 19.71 160.18C19.11 158.77 18.09 154.52 18.57 152.88C19.7 149.01 25.5 148.85 28.76 149.23C35.43 150 42.98 151.66 49.28 153.83C70.64 161.16 90.87 170.92 109.96 183.13C116.95 187.59 123.95 192.29 130.98 197.24C131.14 197.35 131.37 197.31 131.48 197.15C131.56 197.04 131.57 196.89 131.5 196.77C130.77 195.47 129.53 194.41 128.55 193.1C116.69 177.13 105.65 161.31 95.42 145.63C94.81 144.7 92.47 140.8 88.38 133.91C81.23 121.86 75.78 109.82 72.03 97.81C70.13 91.72 68.92 85.83 68.41 80.13C68.18 77.56 68.54 70.63 72.48 70.96C82.23 71.78 92.95 77.35 100.85 82.72C112.57 90.69 123.33 100.02 133.12 110.7C147.38 126.23 160.31 143.4 171.92 162.2C172.04 162.42 172.32 162.5 172.55 162.38C172.71 162.29 172.8 162.12 172.78 161.94C172.73 160.87 172.08 159.48 171.8 158.35C167.79 141.88 164.38 126.52 161.57 112.26C156.97 88.98 154.11 65.41 155.68 41.59C155.96 37.29 156.98 32.11 158.73 26.06C159.62 23 161.14 20.52 163.3 18.63C165.7 16.52 170.14 18.47 172.42 20.16C180.51 26.14 187.35 35.43 192.55 44.41C209.6 73.85 218.21 108.13 219.81 142.14C220.32 152.85 219.93 163.63 218.64 174.47C217.31 185.76 215.36 196.38 212.79 206.31C212.52 207.32 212.33 208.44 212.21 209.65Z" fill="#F75E29"></path>
    <path d="M212.21 209.65C213.32 213.38 216 215.39 220.23 215.67C233.94 216.59 246.08 220.51 256.65 227.43C274.23 238.94 284.36 255.04 287.04 275.72C287.49 279.17 288.73 281.46 292.06 281.99C295.71 282.57 300.68 282.73 304.02 283.38C332.16 288.9 354.55 313.34 351.04 343.19C350.4 348.65 350.07 351.61 350.04 352.07C349.69 357.33 352.41 358.86 357.45 359.76C367.18 361.49 376.19 364.51 384.59 369.99C408.93 385.87 420.17 413.96 413.29 442.11C413.14 442.7 412.04 446.1 409.97 452.31C408.76 455.96 409.68 458.72 412.73 460.59C416.58 462.93 422.27 465.86 427.04 469.58C439.43 479.24 448.74 493.68 452.24 509.1C456.49 527.78 453.25 545.69 442.52 562.83C441.3 564.78 440.95 566.69 441.47 568.58C441.79 569.74 443.02 571.23 445.15 573.06C465.86 590.74 474.74 613.12 471.79 640.2C470.18 655.01 463.83 668.03 452.74 679.27C448.17 683.9 440.51 687.55 444.05 695.49C443.27 697.58 442.48 701.07 441.68 705.97C439.99 716.31 433.94 730.15 425.03 737.61C419.32 742.4 413.02 746.16 406.13 748.91C405.65 749.1 405.33 749.57 405.34 750.09C405.45 759.35 403.68 768.37 400.04 777.14C393.51 792.85 375.76 805.64 359.14 807.96C349.99 809.24 341.11 808.86 332.49 806.81C332.01 806.69 331.51 806.94 331.3 807.4C323.31 825.03 310.71 836.59 293.5 842.09C273.46 848.49 253.02 844.16 237.78 830.02C237.37 829.64 236.75 829.58 236.27 829.88C232.58 832.21 228.92 834.28 225.27 836.1C206.15 845.66 185.23 843.41 168.08 830.74C159.8 824.62 154.11 816.68 151.02 806.91C150.82 806.29 150.16 805.94 149.54 806.14C149.52 806.14 149.5 806.15 149.48 806.16C142.04 808.93 134.4 811.31 126.56 810.98C116.32 810.56 106.82 808.18 98.46 802.1C88.29 794.69 80.82 785.14 76.04 773.46C75.98 773.29 75.8 773.21 75.63 773.27C75.51 773.31 75.43 773.42 75.42 773.55C75.2 775.61 75.09 777.64 75.1 779.63C75.1 780.62 75.38 782.62 75.95 785.62C76.73 789.71 77.14 793.84 77.18 798C74.01 787.43 73.02 776.86 74.21 766.31C75.12 758.22 77.57 750.6 81.58 743.43C83.49 740.01 83.32 736.69 81.07 733.46C72.38 721.01 68.62 707.22 69.79 692.11C72.02 663.35 90.91 638.29 119.49 632.13C123.04 631.36 125.15 629.39 125.81 626.2C126.01 625.24 125.5 622.57 124.29 618.18C121.24 607.09 121.55 596.48 125.23 586.33C132.1 567.38 145.18 553.89 164.47 545.87C167.17 544.74 169.12 542.94 170.33 540.45C173.94 533.01 166.03 527.99 162.36 521.8C146.63 495.22 154.01 463.95 179.35 446.42C182.98 443.92 184.54 438.6 182.19 434.7C181.75 433.98 179.78 432.43 176.27 430.04C173.29 428.01 169.53 424.38 166.82 420.95C148.33 397.49 150.29 366.13 169.71 344.07C172.46 340.94 170.73 337.47 167.61 335.01C156.95 326.6 149.5 315.53 146.88 301.63C144.33 288.06 146.42 275.08 153.17 262.67C154.84 259.6 157.48 256.22 159.52 253.07C160.37 251.75 160.61 249.75 160.24 247.06C163.25 242.49 166.83 238.23 170.98 234.3C182.62 223.29 195.85 215.95 211.74 214.39C212.12 214.35 212.39 214.01 212.36 213.64C212.36 213.55 212.33 213.47 212.28 213.39C211.61 212.12 211.28 210.82 211.28 209.51C211.28 209.3 211.45 209.13 211.65 209.13C211.78 209.13 211.9 209.19 211.97 209.3L212.21 209.65ZM374.73 480.75C377.88 475.36 379.9 469.26 380.78 462.43C382.77 446.93 379.14 432.64 369.91 419.56C361.04 407 346.04 398.3 330.3 397.66C329.8 397.64 329.41 397.23 329.43 396.72C329.43 396.67 329.43 396.61 329.45 396.56C332.45 382.26 330.58 369.3 323.83 357.69C316.16 344.48 300.91 334.26 285.35 334.89C277.66 335.2 270.58 339.95 270.41 348.47C270.28 354.59 274.89 360.3 280.02 363.07C283.83 365.14 290.84 367.38 294.31 370.27C303.55 377.97 301.17 391.53 295.45 401.08C287.74 413.96 300.16 424.03 312.08 424.69C316.17 424.92 321.66 424.07 326.31 424.84C338.74 426.91 346.4 434.6 349.3 447.91C351.42 457.63 348.15 465.57 343.03 474.31C340.89 477.96 340.14 482.3 340.77 487.33C341.49 493.04 344.48 497.28 349.74 500.05C352.31 501.4 356.42 503.32 362.09 505.79C367.17 508 370.68 510.06 372.63 511.97C380.59 519.74 383.31 531.76 379.06 542.05C376.98 547.09 372.16 550.66 370.64 555.77C369.74 558.8 369.8 561.86 370.83 564.97C373.81 574.01 383.78 575.04 391.15 570.94C402.27 564.76 409.38 554.58 411.41 541.79C414.38 522.99 407.35 504.72 393.53 491.79C388.16 486.77 382.01 483.36 375.07 481.55C374.78 481.47 374.6 481.18 374.67 480.89C374.68 480.84 374.7 480.8 374.73 480.75ZM187.34 657.99C170.46 656.96 155.73 673.25 154.44 694.38C153.15 715.51 165.78 733.48 182.66 734.51C199.54 735.54 214.27 719.25 215.56 698.12C216.85 676.99 204.22 659.02 187.34 657.99ZM349.78 658.26C333.64 658.09 320.38 674.58 320.16 695.09C319.95 715.6 332.86 732.37 349 732.53C365.14 732.7 378.4 716.21 378.62 695.7C378.83 675.19 365.92 658.43 349.78 658.26ZM239.1 712.97C230.97 712.02 228.91 720.49 232.37 726.19C238.94 737.01 248.16 743.63 260.03 746.04C276.42 749.37 294.09 742.23 302.43 727.54C304.38 724.11 305.49 719.69 302.99 716.34C300.7 713.26 296.09 712.39 293.03 715.02C291.07 716.7 289.8 720.73 288.46 722.51C284.09 728.28 278.76 731.54 272.47 732.3C262.07 733.54 251.47 729.25 245.73 719.94C244.25 717.55 242.67 713.39 239.1 712.97Z" fill="#FF9738"></path>
    <path d="M374.73 480.75C374.58 481.01 374.67 481.34 374.93 481.49C374.97 481.52 375.02 481.53 375.07 481.55C382.01 483.36 388.16 486.77 393.53 491.79C407.35 504.72 414.38 522.99 411.41 541.79C409.38 554.58 402.27 564.76 391.15 570.94C383.78 575.04 373.81 574.01 370.83 564.97C369.8 561.86 369.74 558.8 370.64 555.77C372.16 550.66 376.98 547.09 379.06 542.05C383.31 531.76 380.59 519.74 372.63 511.97C370.68 510.06 367.17 508 362.09 505.79C356.42 503.32 352.31 501.4 349.74 500.05C344.48 497.28 341.49 493.04 340.77 487.33C340.14 482.3 340.89 477.96 343.03 474.31C348.15 465.57 351.42 457.63 349.3 447.91C346.4 434.6 338.74 426.91 326.31 424.84C321.66 424.07 316.17 424.92 312.08 424.69C300.16 424.03 287.74 413.96 295.45 401.08C301.17 391.53 303.55 377.97 294.31 370.27C290.84 367.38 283.83 365.14 280.02 363.07C274.89 360.3 270.28 354.59 270.41 348.47C270.58 339.95 277.66 335.2 285.35 334.89C300.91 334.26 316.16 344.48 323.83 357.69C330.58 369.3 332.45 382.26 329.45 396.56C329.34 397.05 329.65 397.53 330.14 397.64C330.19 397.65 330.25 397.66 330.3 397.66C346.04 398.3 361.04 407 369.91 419.56C379.14 432.64 382.77 446.93 380.78 462.43C379.9 469.26 377.88 475.36 374.73 480.75Z" fill="#FFAF51"></path>
    <path d="M343.51 695.178C348.18 695.023 351.836 691.005 351.677 686.203C351.518 681.4 347.603 677.633 342.933 677.788C338.263 677.943 334.607 681.961 334.766 686.764C334.926 691.566 338.84 695.333 343.51 695.178Z" fill="white"></path>
    <path d="M195.14 695.591C199.622 694.289 202.152 689.437 200.791 684.754C199.431 680.071 194.695 677.33 190.213 678.632C185.732 679.934 183.202 684.786 184.562 689.469C185.923 694.152 190.659 696.893 195.14 695.591Z" fill="white"></path>
    <path d="M77.18 798C77.14 793.84 76.73 789.71 75.95 785.62C75.38 782.62 75.1 780.62 75.1 779.63C75.1 777.64 75.2 775.61 75.42 773.55C75.43 773.37 75.58 773.24 75.76 773.25C75.89 773.25 76 773.34 76.04 773.46C80.82 785.14 88.29 794.69 98.46 802.1C106.82 808.18 116.32 810.56 126.56 810.98C134.4 811.31 142.04 808.93 149.48 806.16C150.09 805.93 150.77 806.24 151 806.85C151 806.87 151.01 806.89 151.02 806.91C154.11 816.68 159.8 824.62 168.08 830.74C185.23 843.41 206.15 845.66 225.27 836.1C228.92 834.28 232.58 832.21 236.27 829.88C236.75 829.58 237.37 829.64 237.78 830.02C253.02 844.16 273.46 848.49 293.5 842.09C310.71 836.59 323.31 825.03 331.3 807.4C331.51 806.94 332.01 806.69 332.49 806.81C341.11 808.86 349.99 809.24 359.14 807.96C375.76 805.64 393.51 792.85 400.04 777.14C403.68 768.37 405.45 759.35 405.34 750.09C405.34 749.57 405.65 749.1 406.13 748.91C413.02 746.16 419.32 742.4 425.03 737.61C433.94 730.15 439.99 716.31 441.68 705.97C442.48 701.07 443.27 697.58 444.05 695.49C457.55 714.48 459.81 739.32 453.03 761.14C446.43 782.41 430.07 798.51 409.87 807.22C407.5 808.24 406.2 810.11 405.96 812.82C404.64 827.48 400.01 840.8 389.17 850.79C375.54 863.34 359.27 868.72 340.34 866.91C336.01 866.5 331.55 865.41 326.95 863.63C322.66 861.97 320.03 861.1 317.13 864.73C315.12 867.24 313.53 869.13 312.35 870.39C294.92 888.98 267.15 892.49 245.4 879.73C244.78 879.37 241.81 877.08 236.48 872.85C234.39 871.2 231.95 871.01 229.16 872.28C223.69 874.79 218.85 876.51 214.64 877.45C209.89 878.51 203.93 878.78 196.76 878.25C187.78 877.58 179.41 874.79 171.64 869.88C161.44 863.42 155.59 854.69 150.92 843.91C149.54 840.71 146.99 840.08 143.48 840.12C137.82 840.17 131.09 840.36 125.24 839.18C101.64 834.41 85.62 820.68 77.18 798Z" fill="#FF822B"></path>
    <path d="M490.15 621.65C487.58 599.2 478.2 580.42 462.03 565.32C461.67 564.98 461.59 564.45 461.83 564.03C466.94 554.97 470.01 545.32 471.06 535.07C471.65 529.27 472.11 526.24 471.88 521.41C470.92 501.3 464.15 483.83 451.57 469C445.68 462.05 438.53 456.09 430.14 451.13C430.13 450.38 430.22 449.8 430.41 449.37L433.14 435.9C433.15 435.83 433.16 435.75 433.17 435.68C433.39 424.74 433.38 418.37 433.14 416.57C429.85 392.22 418.11 372.65 397.94 357.84C389.83 351.88 381.2 347.75 372.05 345.45C371.76 345.06 371.09 344.93 370.02 345.07C369.75 344.99 369.53 344.85 369.36 344.64C369.2 344.45 369.13 344.2 369.14 343.89C369.35 339.56 369.73 333.5 368.77 328.72C368.32 326.51 367.96 324.78 367.69 323.53C363.69 305.6 354.18 291.06 339.15 279.91C333.77 275.92 327.84 272.7 321.35 270.25C316.78 268.52 311.03 267.09 304.12 265.94C303.8 265.89 303.54 265.64 303.48 265.32C301.36 254.45 296.99 244.4 290.36 235.17C282.58 224.35 272.61 215.67 260.45 209.14C253.36 205.33 245.33 202.38 236.35 200.27C235.74 200.12 235.1 200.09 234.44 200.17C233.8 200.15 233.12 200 232.39 199.71C234.47 191.28 235.7 185.08 236.08 181.13C236.41 177.68 236.7 175.6 236.93 174.91C237.01 174.66 237.05 174.4 237.06 174.13C237.17 169.04 238.17 162.68 238.16 156.86C238.14 150.69 238.31 147.38 237.65 140.81C237.38 138.16 237.21 134.51 237.12 129.88C237.12 129.36 237.04 128.84 236.91 128.34C236.13 125.26 236.28 122.14 235.7 118.46C235.26 115.68 234.72 112.41 234.08 108.66C229.79 83.5499 221.52 59.7599 209.27 37.2899C205.34 30.0799 200.66 23.2799 195.21 16.8699C188.48 8.94993 179.5 1.51993 169.47 0.259926C164.98 -0.300074 161.22 0.0499264 158.19 1.30993C153.5 3.24993 149.58 6.36993 146.44 10.6799C144.53 13.2899 142.76 17.1199 141.13 22.1599C140.28 24.7999 139.34 28.9399 138.33 34.5799C137.89 37.0099 137.53 39.2699 137.34 41.5399C135.95 58.2599 136.82 74.9999 139.97 91.7599L136.52 88.7899C134.71 86.8199 131.21 83.6499 126.03 79.2799C115.9 70.7299 106.3 64.3599 97.25 60.1799C90.42 57.0299 84.43 55.0699 79.26 54.3099C74.17 53.5599 70.08 53.5199 66.98 54.1899C58.49 56.0299 53.25 61.1599 51.28 69.5799C50.23 74.0499 49.92 78.2099 50.34 82.0699C50.62 84.6999 51.09 87.8299 51.75 91.4599C52.29 94.4499 53.04 97.5199 54 100.68C58.45 115.33 64.9 129.33 73.35 142.68C73.88 143.62 73.12 143.67 71.07 142.84C66.78 141.37 62.49 139.81 58.21 138.16C55.37 137.06 49.37 135.53 40.22 133.58C35.02 132.47 29.62 131.99 24.03 132.14C21.99 132.19 20.22 132.79 18.72 132.92C12.25 133.48 4.68999 138.13 1.96999 144.13C-3.72001 156.68 3.93999 172.27 11.74 182.59C16.38 188.72 22.24 195.01 29.32 201.44C32.27 204.12 37.48 208.86 41.73 212.23C57.06 224.43 73.39 234.8 90.74 243.34C105.01 250.36 119.75 255.63 134.98 259.15C135.01 259.15 135.05 259.17 135.08 259.19C135.29 259.3 135.37 259.55 135.26 259.75C132.28 265.48 130.25 271.67 129.18 278.31C129.04 279.18 128.8 280.25 128.45 281.52C128.34 281.93 128.27 282.36 128.25 282.79C128.04 287.26 128.04 292.47 128.25 298.4C128.35 301.15 129.05 302.78 129.21 305.02C129.29 306.15 129.62 307.78 130.2 309.93C132.39 317.99 135.93 325.42 140.81 332.23C142.68 334.84 144.52 337.26 146.32 339.47C147.01 340.33 147.83 340.88 148.76 341.13C149.1 341.36 149.33 341.67 149.44 342.06C148.41 343.08 147.53 344.19 146.79 345.4C142.76 351.97 139.93 358.7 138.29 365.6C137.08 370.71 136.43 373.86 136.34 375.07C135.75 382.97 135.59 391.71 137.37 399.62C138.52 404.69 139.59 408.49 140.59 411C144.8 421.59 151.07 430.89 159.4 438.9C159.77 439.26 159.77 439.85 159.41 440.22C154.87 444.84 152.4 447.02 149.51 451.27C143.92 459.5 140.18 467.27 138.28 474.59C133.01 494.91 136.18 514.18 147.79 532.39C148.62 532.98 148.75 533.5 148.2 533.95C145.09 535.49 143.02 536.61 141.99 537.31C122.95 550.26 110.75 567.97 105.38 590.46C105.32 590.72 105.29 590.98 105.28 591.25C105.24 593.83 104.5 595.93 104.34 598.45C103.92 605.46 104.23 611.86 105.26 617.65C105.39 618.36 104.98 619.06 104.29 619.3C84.89 626.02 69.42 641.38 60.15 659.53C56.74 666.22 54.27 673.57 52.74 681.59C48.93 701.59 52.24 720.11 62.68 737.16C63.19 737.64 63.39 738.75 63.27 740.48C57.87 751.5 55.27 763.2 55.47 775.57C55.65 787.06 57.68 797.64 61.55 807.33C64.67 815.12 69.19 822.45 75.12 829.33C90.94 847.67 112.99 857.26 137.28 857.13C137.57 857.13 137.84 857.3 137.98 857.56C141.71 864.85 145.59 870.56 149.63 874.67C160.1 885.34 172.82 892.13 187.77 895.04C202.52 897.91 216.77 896.57 230.52 891.04C230.95 890.87 231.43 890.94 231.78 891.22C236.37 894.91 241.46 897.84 247.05 900C255.46 903.25 264.41 904.9 273.89 904.93C276.66 904.93 278.88 904.45 281.22 904.29C283.21 904.16 285.04 903.94 286.7 903.65C302.29 900.87 315.39 893.55 325.99 881.69C326.07 881.63 326.15 881.57 326.22 881.51C332.11 883.42 337.29 884.55 341.78 884.9C360.2 886.37 377.27 881.8 392.99 871.17C395.67 869.36 397.63 867.08 400.14 865.25C401 864.63 401.78 863.91 402.48 863.11C404.37 860.96 405.94 859.1 407.2 857.52C414.27 848.62 419.12 838.37 421.73 826.78C422.14 824.93 422.32 823.22 422.26 821.63C422.22 820.77 422.72 819.97 423.52 819.63C433.78 815.23 442.9 808.58 450.87 799.69C461.75 787.56 468.8 773.73 472.03 758.18C473.33 751.91 474.07 747.13 474.24 743.82C474.53 738.51 474.57 729.62 473.6 722.86C472.1 712.41 469.05 702.65 464.44 693.58C464.29 693.28 464.35 692.92 464.59 692.69C478.07 679.91 486.25 664.2 489.13 645.55C489.6 642.54 489.9 640.76 490.03 640.21C490.14 639.76 490.19 639.31 490.2 638.84C490.38 629.29 490.36 623.56 490.14 621.65H490.15ZM149.59 532.63C149.57 532.64 149.55 532.64 149.53 532.65C149.55 532.65 149.57 532.64 149.59 532.63ZM149.47 532.68C149.47 532.68 149.38 532.66 149.35 532.62C149.38 532.66 149.43 532.68 149.47 532.68ZM71.34 144.12C71.4 144.06 71.43 143.98 71.44 143.9C71.44 143.98 71.4 144.06 71.34 144.12ZM371.75 346.4C371.75 346.4 371.76 346.46 371.78 346.49C371.77 346.46 371.76 346.43 371.75 346.4ZM371.82 346.56C371.82 346.56 371.85 346.61 371.88 346.63C371.86 346.61 371.84 346.58 371.82 346.56ZM452.74 679.27C448.17 683.9 440.51 687.55 444.05 695.49C457.55 714.48 459.81 739.32 453.03 761.14C446.43 782.41 430.07 798.51 409.87 807.22C407.5 808.24 406.2 810.11 405.96 812.82C404.64 827.48 400.01 840.8 389.17 850.79C375.54 863.34 359.27 868.72 340.34 866.91C336.01 866.5 331.55 865.41 326.95 863.63C322.66 861.97 320.03 861.1 317.13 864.73C315.12 867.24 313.53 869.13 312.35 870.39C294.92 888.98 267.15 892.49 245.4 879.73C244.78 879.37 241.81 877.08 236.48 872.85C234.39 871.2 231.95 871.01 229.16 872.28C223.69 874.79 218.85 876.51 214.64 877.45C209.89 878.51 203.93 878.78 196.76 878.25C187.78 877.58 179.41 874.79 171.64 869.88C161.44 863.42 155.59 854.69 150.92 843.91C149.54 840.71 146.99 840.08 143.48 840.12C137.82 840.17 131.09 840.36 125.24 839.18C101.64 834.41 85.62 820.68 77.18 798C74.01 787.43 73.02 776.86 74.21 766.31C75.12 758.22 77.57 750.6 81.58 743.43C83.49 740.01 83.32 736.69 81.07 733.46C72.38 721.01 68.62 707.22 69.79 692.11C72.02 663.35 90.91 638.29 119.49 632.13C123.04 631.36 125.15 629.39 125.81 626.2C126.01 625.24 125.5 622.57 124.29 618.18C121.24 607.09 121.55 596.48 125.23 586.33C132.1 567.38 145.18 553.89 164.47 545.87C167.17 544.74 169.12 542.94 170.33 540.45C173.94 533.01 166.03 527.99 162.36 521.8C146.63 495.22 154.01 463.95 179.35 446.42C182.98 443.92 184.54 438.6 182.19 434.7C181.75 433.98 179.78 432.43 176.27 430.04C173.29 428.01 169.53 424.38 166.82 420.95C148.33 397.49 150.29 366.13 169.71 344.07C172.46 340.94 170.73 337.47 167.61 335.01C156.95 326.6 149.5 315.53 146.88 301.63C144.33 288.06 146.42 275.08 153.17 262.67C154.84 259.6 157.48 256.22 159.52 253.07C160.37 251.75 160.61 249.75 160.24 247.06C158.65 245.83 157.19 245.13 155.87 244.94C125.77 240.65 98.01 229.99 72.6 212.94C57.97 203.13 44.91 192.76 32.91 180.16C27.2 174.17 22.8 167.51 19.71 160.18C19.11 158.77 18.09 154.52 18.57 152.88C19.7 149.01 25.5 148.85 28.76 149.23C35.43 150 42.98 151.66 49.28 153.83C70.64 161.16 90.87 170.92 109.96 183.13C116.95 187.59 123.95 192.29 130.98 197.24C131.09 197.32 131.24 197.33 131.36 197.26C131.53 197.16 131.6 196.94 131.5 196.77C130.77 195.47 129.53 194.41 128.55 193.1C116.69 177.13 105.65 161.31 95.42 145.63C94.81 144.7 92.47 140.8 88.38 133.91C81.23 121.86 75.78 109.82 72.03 97.8099C70.13 91.7199 68.92 85.8299 68.41 80.1299C68.18 77.5599 68.54 70.6299 72.48 70.9599C82.23 71.7799 92.95 77.3499 100.85 82.7199C112.57 90.6899 123.33 100.02 133.12 110.7C147.38 126.23 160.31 143.4 171.92 162.2C172.01 162.36 172.18 162.45 172.36 162.43C172.61 162.41 172.8 162.19 172.78 161.94C172.73 160.87 172.08 159.48 171.8 158.35C167.79 141.88 164.38 126.52 161.57 112.26C156.97 88.9799 154.11 65.4099 155.68 41.5899C155.96 37.2899 156.98 32.1099 158.73 26.0599C159.62 22.9999 161.14 20.5199 163.3 18.6299C165.7 16.5199 170.14 18.4699 172.42 20.1599C180.51 26.1399 187.35 35.4299 192.55 44.4099C209.6 73.8499 218.21 108.13 219.81 142.14C220.32 152.85 219.93 163.63 218.64 174.47C217.31 185.76 215.36 196.38 212.79 206.31C212.52 207.32 212.33 208.44 212.21 209.65C213.32 213.38 216 215.39 220.23 215.67C233.94 216.59 246.08 220.51 256.65 227.43C274.23 238.94 284.36 255.04 287.04 275.72C287.49 279.17 288.73 281.46 292.06 281.99C295.71 282.57 300.68 282.73 304.02 283.38C332.16 288.9 354.55 313.34 351.04 343.19C350.4 348.65 350.07 351.61 350.04 352.07C349.69 357.33 352.41 358.86 357.45 359.76C367.18 361.49 376.19 364.51 384.59 369.99C408.93 385.87 420.17 413.96 413.29 442.11C413.14 442.7 412.04 446.1 409.97 452.31C408.76 455.96 409.68 458.72 412.73 460.59C416.58 462.93 422.27 465.86 427.04 469.58C439.43 479.24 448.74 493.68 452.24 509.1C456.49 527.78 453.25 545.69 442.52 562.83C441.3 564.78 440.95 566.69 441.47 568.58C441.79 569.74 443.02 571.23 445.15 573.06C465.86 590.74 474.74 613.12 471.79 640.2C470.18 655.01 463.83 668.03 452.74 679.27ZM126.29 192.08C126.29 192.08 126.29 192.04 126.29 192.02C126.29 192.04 126.29 192.06 126.29 192.08ZM126.26 192.22C126.26 192.22 126.26 192.24 126.26 192.25C126.26 192.26 126.24 192.27 126.24 192.28C126.25 192.26 126.26 192.24 126.27 192.22H126.26ZM126.18 192.36C126.18 192.36 126.14 192.4 126.12 192.42C126.14 192.4 126.16 192.38 126.18 192.36ZM126.06 192.45C126.06 192.45 125.97 192.49 125.93 192.49C125.98 192.49 126.02 192.47 126.06 192.45ZM125.87 192.51C125.8 192.51 125.74 192.51 125.68 192.47C125.74 192.5 125.81 192.51 125.87 192.51ZM169.57 154.62C169.57 154.62 169.54 154.66 169.52 154.69C169.54 154.67 169.56 154.65 169.57 154.62ZM169.39 154.83C169.39 154.83 169.38 154.85 169.36 154.86C169.34 154.88 169.31 154.88 169.29 154.89C169.32 154.87 169.36 154.85 169.39 154.83ZM169.17 154.95C169.17 154.95 169.08 154.97 169.04 154.97C169.09 154.97 169.13 154.97 169.17 154.95ZM168.92 154.97C168.85 154.97 168.79 154.94 168.73 154.92C168.79 154.95 168.85 154.97 168.92 154.97ZM372.06 346.75C372.06 346.75 372.02 346.74 372 346.73C371.98 346.73 371.97 346.7 371.95 346.69C371.98 346.71 372.02 346.74 372.06 346.75ZM371.74 346.21C371.74 346.21 371.73 346.27 371.73 346.3C371.73 346.27 371.73 346.24 371.74 346.21ZM71.4 143.68C71.44 143.74 71.45 143.8 71.45 143.87C71.45 143.78 71.42 143.69 71.36 143.62C71.38 143.64 71.39 143.66 71.41 143.68H71.4Z" fill="#553630"></path>
    <path d="M187.34 657.99C170.46 656.96 155.73 673.25 154.44 694.38C153.15 715.51 165.78 733.48 182.66 734.51C199.54 735.54 214.27 719.25 215.56 698.12C216.85 676.99 204.22 659.02 187.34 657.99ZM190.22 678.63C194.7 677.33 199.44 680.07 200.8 684.75C202.16 689.43 199.63 694.28 195.15 695.59C190.67 696.9 185.93 694.15 184.57 689.47C183.21 684.79 185.74 679.94 190.22 678.63ZM201.01 664.61C201.69 665.15 202.36 665.73 203 666.34C202.36 665.73 201.69 665.16 201.01 664.61ZM187.12 659.19C189.86 659.34 192.47 659.98 194.94 661.01C192.48 659.98 189.86 659.34 187.12 659.19C186.62 659.16 186.11 659.15 185.61 659.15C186.11 659.15 186.61 659.15 187.12 659.19ZM199.14 663.27C198.25 662.68 197.32 662.15 196.38 661.67C197.33 662.14 198.25 662.67 199.14 663.27ZM155.82 694.63C156.11 689.51 157.2 684.68 158.92 680.32C157.19 684.67 156.1 689.51 155.82 694.63ZM156.8 707.12C156.59 706.18 156.41 705.22 156.27 704.25C156.42 705.22 156.6 706.18 156.8 707.12ZM159.65 715.65C159.27 714.83 158.92 713.99 158.6 713.13C158.93 713.99 159.27 714.83 159.65 715.65C161.53 719.71 164.02 723.27 166.98 726.11C164.02 723.27 161.53 719.72 159.65 715.65ZM182.97 733.35C176.96 733.01 171.51 730.4 167.09 726.2C171.51 730.4 176.97 733.02 182.97 733.35C183.47 733.38 183.98 733.39 184.48 733.39C183.98 733.39 183.48 733.39 182.97 733.35ZM202.03 725.92C202.77 725.23 203.47 724.5 204.16 723.73C203.48 724.5 202.77 725.23 202.03 725.92ZM205.28 722.41C206.3 721.15 207.25 719.79 208.12 718.36C207.25 719.8 206.3 721.15 205.28 722.41Z" fill="#553630"></path>
    <path d="M349.78 658.26C333.64 658.09 320.38 674.58 320.16 695.09C319.95 715.6 332.86 732.37 349 732.53C365.14 732.7 378.4 716.21 378.62 695.7C378.83 675.19 365.92 658.42 349.78 658.26ZM372.57 674.69C370.9 671.63 368.88 668.91 366.57 666.64C368.88 668.9 370.91 671.62 372.57 674.69ZM349.76 659.29C351.34 659.31 352.88 659.5 354.38 659.83C352.88 659.5 351.33 659.31 349.76 659.29ZM334.77 686.76C334.61 681.96 338.27 677.94 342.94 677.78C347.61 677.63 351.52 681.39 351.68 686.19C351.84 690.99 348.18 695.01 343.51 695.17C338.84 695.32 334.93 691.56 334.77 686.76ZM355.09 730.74C355.71 730.57 356.33 730.38 356.94 730.16C356.33 730.38 355.71 730.58 355.09 730.74ZM357.96 729.76C359.25 729.22 360.5 728.57 361.71 727.81C360.51 728.57 359.25 729.22 357.96 729.76ZM377.59 695.7C377.57 697.66 377.42 699.59 377.17 701.46C377.43 699.58 377.57 697.66 377.59 695.7ZM371.43 717.78C371.7 717.35 371.96 716.9 372.21 716.46C371.96 716.91 371.69 717.35 371.43 717.78ZM372.93 715.14C373.41 714.2 373.86 713.24 374.27 712.25C373.86 713.24 373.41 714.21 372.93 715.14ZM375.58 708.63C376.01 707.26 376.37 705.84 376.67 704.39C376.37 705.84 376.01 707.25 375.58 708.63ZM374.75 679.44C374.92 679.88 375.08 680.33 375.24 680.79C375.08 680.34 374.92 679.89 374.75 679.44Z" fill="#553630"></path>
    <path d="M293.03 715.02C291.07 716.7 289.8 720.73 288.46 722.51C284.09 728.28 278.76 731.54 272.47 732.3C262.07 733.54 251.47 729.25 245.73 719.94C244.25 717.55 242.67 713.39 239.1 712.97C230.97 712.02 228.91 720.49 232.37 726.19C238.94 737.01 248.16 743.63 260.03 746.04C276.42 749.37 294.09 742.23 302.43 727.54C304.38 724.11 305.49 719.69 302.99 716.34C300.7 713.26 296.09 712.39 293.03 715.02Z" fill="#553630"></path>
  </g>
  <defs>
    <clipPath id="clip0_3_722">
      <rect width="490.33" height="904.93" fill="white"></rect>
    </clipPath>
  </defs>
</svg>