<svg width="1801" height="942" viewBox="0 0 1801 942" fill="none" xmlns="http://www.w3.org/2000/svg">
<g clip-path="url(#clip0_2_618)">
<path d="M1495.09 366.06C1525.53 344.67 1562.32 334.97 1597.38 339.1C1632.44 343.23 1662.88 360.85 1682.02 388.08C1701.16 415.31 1707.42 449.93 1699.43 484.31C1691.44 518.69 1669.85 550.03 1639.41 571.42C1608.97 592.81 1572.18 602.51 1537.12 598.38C1502.07 594.25 1471.62 576.63 1452.48 549.4C1433.34 522.17 1427.08 487.56 1435.07 453.17C1443.06 418.79 1464.65 387.45 1495.09 366.06ZM1491 409.92C1486.09 422.28 1487.17 434.9 1499.52 437.82C1508.3 439.9 1517.53 433.9 1524.05 427.22C1522.67 427.39 1521.26 427.48 1519.83 427.48C1506.69 427.48 1495.47 420.19 1491 409.92Z" fill="#553630"/>
<path d="M1401.96 717.38C1358.66 673.95 1335.79 611.39 1339.28 549.51C1344.31 460.51 1390.76 381.04 1462.35 328.76C1499.06 301.94 1540.15 285.97 1585.62 280.83C1638.43 274.86 1696.51 288.98 1733.02 331.37C1750.4 351.52 1762.68 374.44 1769.88 400.13C1774.99 418.34 1777.94 437.25 1778.76 456.85C1779.57 476.36 1779.58 493.81 1778.79 509.2C1776.2 559.37 1763 611.99 1738.98 656.47C1710.23 709.74 1668.3 745.61 1613.21 764.08C1539.93 788.66 1457.22 772.8 1401.96 717.38ZM1682.02 388.08C1662.88 360.85 1632.43 343.23 1597.38 339.1C1562.32 334.97 1525.53 344.67 1495.09 366.06C1464.65 387.45 1443.06 418.79 1435.07 453.17C1427.08 487.55 1433.34 522.17 1452.48 549.4C1471.62 576.63 1502.06 594.25 1537.12 598.38C1572.18 602.51 1608.97 592.81 1639.41 571.42C1669.85 550.03 1691.44 518.69 1699.43 484.31C1707.42 449.93 1701.16 415.31 1682.02 388.08ZM1361.32 650.57C1361.24 650.59 1361.17 650.63 1361.11 650.69C1361.05 650.74 1361.01 650.81 1360.98 650.88C1360.95 650.95 1360.93 651.03 1360.93 651.11C1360.93 651.19 1360.96 651.27 1360.99 651.34C1363.53 656.16 1365.93 661.02 1368.17 665.92C1371.16 672.46 1373.63 677.25 1375.59 680.29C1405.7 727.35 1450.44 759.43 1506.11 769.07C1525.09 772.34 1542.93 773.33 1559.64 772.04C1598.48 769.02 1640.81 754.43 1673.23 730.03C1683.25 722.49 1691.39 715.39 1697.64 708.73C1723.61 681.06 1743.09 648.72 1756.08 611.73C1762.65 593.03 1768.28 569.56 1772.97 541.32C1773.37 538.9 1773.76 535.24 1774.14 530.32C1774.72 522.56 1776.06 512.95 1775.48 504.36C1775.48 504.22 1775.43 504.09 1775.33 503.99C1775.24 503.89 1775.11 503.84 1774.97 503.83C1774.84 503.83 1774.7 503.88 1774.61 503.97C1774.51 504.07 1774.45 504.2 1774.45 504.33C1773.44 512.41 1771.47 520.78 1768.54 529.45C1765.54 538.36 1761.93 548.04 1757.69 558.5C1746.13 587.03 1730.57 612.8 1711 635.81C1701.36 647.14 1690.41 658.33 1678.15 669.37C1662.14 683.79 1642.22 695.72 1623.97 705.03C1607.55 713.4 1589.6 719.81 1570.12 724.27C1558.94 726.83 1543.68 728 1535.83 728.73C1503.33 731.82 1466.76 724.61 1436.91 713.33C1416.98 705.81 1401.08 693.07 1384.84 678.77C1375.72 670.74 1368.13 661.33 1362.07 650.55C1362.05 650.5 1362 650.46 1361.95 650.44C1361.9 650.42 1361.84 650.41 1361.78 650.43L1361.32 650.57Z" fill="black"/>
<path d="M1741.8 693.69C1711.8 735.7 1672.78 767.34 1623.59 783.65C1599.22 791.74 1571.82 797.16 1546.22 796.89C1522.71 796.63 1499.8 793.19 1477.49 786.57C1432.27 773.15 1395.64 747.84 1367.6 710.65C1353.17 691.5 1341.65 670.92 1333.04 648.9C1332.98 648.73 1332.87 648.57 1332.73 648.45C1332.59 648.33 1332.42 648.24 1332.24 648.2C1332.05 648.16 1331.86 648.16 1331.68 648.2C1331.5 648.25 1331.33 648.34 1331.19 648.46C1321.61 657.27 1309.91 661.86 1296.08 662.21C1295.82 662.21 1295.57 662.33 1295.39 662.51C1295.21 662.7 1295.12 662.94 1295.12 663.2C1295.31 684.08 1289.82 703.21 1278.64 720.59C1268.29 736.71 1251.29 750.38 1232.03 752.99C1226.99 753.66 1222.35 754.06 1218.1 754.16C1217.54 754.18 1216.98 754.32 1216.47 754.58C1215.97 754.84 1215.53 755.21 1215.19 755.66C1208.18 764.83 1200.59 772.19 1190.79 777.67C1167.2 790.85 1143.11 790.57 1118.51 776.81C1114.66 774.66 1112.6 773.51 1112.35 773.38C1111.46 772.91 1110.44 772.76 1109.45 772.95C1105.05 773.81 1100.55 774.56 1095.94 775.22C1076.73 777.98 1056.11 769.07 1041.53 756.89C1041.39 756.77 1041.21 756.68 1041.03 756.63C1040.85 756.58 1040.65 756.57 1040.47 756.6C1040.28 756.63 1040.1 756.7 1039.94 756.8C1039.78 756.9 1039.64 757.04 1039.54 757.2C1031.43 769.94 1020.51 778.53 1006.78 782.99C1006.2 783.18 1005.67 783.49 1005.22 783.91C1004.77 784.33 1004.42 784.84 1004.19 785.41C993.35 811.84 974.56 828.18 947.81 834.42C946.96 834.62 946.21 835.12 945.71 835.83C942.47 840.41 939.7 846.15 936.27 850.99C921.17 872.28 900.39 884.52 873.93 887.71C872.88 887.84 871.93 888.38 871.29 889.2C854.65 910.24 832.81 920.22 805.78 919.14C800.7 918.95 793.75 917.32 788.9 916.55C786.31 916.14 783.67 916.31 781.16 917.03C756.52 924.15 735.39 918.21 714.14 905.05C713.09 904.39 711.85 904.09 710.6 904.17C704.53 904.63 699.52 904.81 695.56 904.7C670.16 904.01 650.47 893.37 636.47 872.79C636.24 872.46 635.95 872.18 635.61 871.98C635.27 871.77 634.89 871.65 634.5 871.6C614.46 869.26 597.89 861.1 584.78 847.12C572.74 834.29 565.67 817.33 564.16 800.71C563.68 795.46 563.45 788.16 563.47 778.82C563.47 777.39 562.97 775.78 561.98 773.98C561.89 773.82 561.76 773.68 561.61 773.57C561.46 773.46 561.29 773.39 561.11 773.35C560.93 773.31 560.74 773.32 560.57 773.36C560.39 773.4 560.22 773.48 560.08 773.6C548.53 782.66 534.93 788.88 520.3 790.54C498.73 793.01 479.32 789.44 462.07 779.83C461.63 779.58 461.11 779.48 460.61 779.55C460.11 779.62 459.64 779.84 459.27 780.19C445.48 793.39 432.47 800.02 413.12 802.3C391.45 804.88 371.45 799.98 353.1 787.62C352.78 787.4 352.39 787.3 352 787.31C351.61 787.32 351.24 787.46 350.93 787.69C320.59 811.12 277.74 809.82 248.15 786.21C247.84 785.97 247.45 785.84 247.06 785.86C246.67 785.88 246.29 786.03 246 786.3C231.77 799.35 213.98 802.92 194.72 801.65C178.02 800.53 164.93 794.44 152.74 784.5C148.24 780.84 144.55 776.4 141.1 773.15C140.77 772.85 140.38 772.63 139.94 772.51C139.51 772.4 139.06 772.4 138.62 772.51C103.51 781.46 68.8798 766.69 51.8698 734.86C46.1898 724.54 42.8998 713.71 41.9998 702.4C41.8898 701.11 41.2898 699.91 40.3298 699.05C26.4398 686.5 17.4998 670.58 13.5098 651.31C12.5098 646.52 12.0398 639.73 12.0998 630.97C12.2398 612.31 18.9198 594.71 30.1898 580.57C30.4398 580.26 30.5898 579.89 30.6298 579.5C30.6698 579.11 30.5998 578.72 30.4198 578.37C9.34982 537.58 21.7198 488.87 58.3698 461.73C58.8698 461.36 59.2398 460.86 59.4598 460.28C59.6698 459.7 59.7098 459.07 59.5798 458.47C51.4398 423.34 64.3998 386.93 92.9698 365.06C100.22 359.51 108.13 355.62 116.71 353.39C117.08 353.29 117.41 353.07 117.65 352.76C117.88 352.45 118.01 352.08 118 351.69C117.63 329.81 123.53 310.21 135.7 292.89C150.38 272 170.4 261.19 195.75 260.46C196.01 260.45 196.25 260.36 196.45 260.21C196.65 260.06 196.8 259.84 196.86 259.6C203.36 237 216.76 219.31 237.05 206.55C256.68 194.19 277.78 191.02 300.36 197.04C300.84 197.17 301.34 197.15 301.81 196.99C302.27 196.83 302.68 196.54 302.97 196.15C326.1 165.32 372.33 148.13 407.9 168.92C408.13 169.05 408.39 169.11 408.66 169.1C408.92 169.09 409.18 169 409.39 168.85C434.8 151.16 461.53 146.85 489.58 155.92C507.71 161.79 524.65 173.89 534.97 189.86C535.14 190.12 535.4 190.32 535.69 190.43C535.98 190.53 536.3 190.54 536.6 190.45C578.78 177.18 623.68 208.55 630.13 251.46C630.16 251.66 630.27 251.84 630.42 251.97C630.57 252.1 630.77 252.18 630.97 252.18C658.64 251.96 681.89 265.09 696.24 288.75C705.99 304.8 709.95 323.18 708.1 343.89C708.06 344.31 708.16 344.74 708.38 345.1C708.6 345.46 708.93 345.75 709.32 345.91C740.6 358.92 757.22 394.01 755.23 426.6C755.23 426.7 755.25 426.8 755.29 426.89C755.33 426.98 755.4 427.05 755.47 427.11C755.55 427.17 755.64 427.2 755.74 427.21C755.84 427.22 755.93 427.21 756.02 427.17C790.64 413.17 827.54 407.54 866.72 410.28C866.81 410.28 866.9 410.26 866.98 410.22C867.06 410.18 867.12 410.11 867.16 410.03C867.2 409.95 867.22 409.86 867.22 409.77C867.22 409.68 867.18 409.59 867.13 409.52C848.01 383.15 843.39 346.19 860.31 317.38C860.53 317.02 860.63 316.6 860.59 316.18C860.56 315.76 860.39 315.36 860.12 315.03C843.3 295.17 836.7 264.01 847.54 239.99C847.6 239.87 847.62 239.73 847.62 239.59C847.62 239.45 847.59 239.32 847.53 239.19C847.47 239.07 847.39 238.95 847.28 238.86C847.17 238.77 847.05 238.7 846.92 238.66C828.1 233.45 809.91 225.84 792.34 215.83C776.34 206.71 763.39 198.51 752.8 185.39C741.98 171.98 735.68 152.46 747.15 137.73C759.55 121.83 785.54 123.5 803.39 127.65C803.53 127.68 803.68 127.67 803.81 127.62C803.94 127.57 804.06 127.48 804.14 127.36C804.22 127.24 804.27 127.11 804.28 126.96C804.28 126.82 804.25 126.68 804.18 126.55C796.03 112.93 790.37 98.2801 787.2 82.6001C783.59 64.7801 786.05 39.4401 801.91 27.1101C831.95 3.81008 865.64 40.0401 880.8 63.2701C880.89 63.4001 881.01 63.5001 881.16 63.5701C881.31 63.6301 881.47 63.6501 881.62 63.6201C881.78 63.5901 881.92 63.5201 882.03 63.4101C882.14 63.3001 882.22 63.1601 882.26 63.0001C885.09 49.9201 889.44 37.2401 895.33 24.9701C901.15 12.8201 911.19 2.43008 924.77 0.400077C945.7 -2.71992 960.22 12.1901 968.15 30.1201C977.95 52.2701 979.58 79.0301 976.98 103.17C974.4 126.9 968.89 149.27 960.45 170.28C960.41 170.38 960.39 170.49 960.4 170.6C960.4 170.71 960.44 170.81 960.5 170.9C960.56 170.99 960.63 171.07 960.73 171.13C960.82 171.19 960.93 171.22 961.03 171.23C967.51 171.73 973.53 173.26 979.11 175.81C1001.94 186.3 1019.28 206.44 1022.27 231.81C1022.31 232.12 1022.44 232.4 1022.66 232.62C1022.87 232.84 1023.15 232.98 1023.46 233.03C1038.33 235.11 1051.89 241 1064.13 250.69C1086.49 268.43 1098.94 291.86 1101.48 320.98C1101.52 321.35 1101.69 321.69 1101.96 321.94C1102.23 322.19 1102.58 322.32 1102.94 322.32H1113.88C1114.13 322.32 1114.37 322.24 1114.56 322.08C1114.75 321.92 1114.88 321.7 1114.93 321.46C1116.25 314.57 1117.52 309.79 1118.74 307.11C1126.58 289.69 1140.25 270.73 1156.58 261.12C1171.31 252.42 1188.16 248.76 1207.15 250.13C1242.24 252.65 1262.83 287.71 1263.62 320.02C1263.62 320.09 1263.64 320.17 1263.68 320.23C1263.72 320.29 1263.78 320.34 1263.85 320.37C1263.92 320.4 1264 320.41 1264.07 320.4C1264.14 320.39 1264.21 320.36 1264.27 320.31C1269.27 316.04 1275.05 312.1 1281.61 308.5C1293.42 302.03 1305.03 296.48 1318.25 296.58C1340.79 296.74 1358.88 314.56 1365.51 334.85C1371.52 353.32 1372.63 372.39 1368.84 392.04C1368.81 392.22 1368.83 392.4 1368.92 392.56C1369 392.72 1369.14 392.85 1369.31 392.92C1369.48 392.99 1369.66 393 1369.84 392.95C1370.01 392.9 1370.16 392.79 1370.27 392.64C1396.42 354.93 1428.77 323.74 1467.33 299.09C1513.03 269.87 1563.34 256.19 1618.26 258.06C1652.92 259.24 1684 268.3 1711.5 285.25C1751.86 310.16 1779.55 351.76 1791.43 397.77C1800.84 434.17 1802.04 470.79 1800.24 508.26C1798.74 539.39 1793.47 570.66 1784.43 602.07C1774.88 635.22 1760.65 665.75 1741.75 693.68L1741.8 693.69ZM864.07 180.01C862.06 182.85 859.07 183.71 855.11 182.59C846.16 177.97 841.34 169.52 833.48 165.32C815.47 155.66 797.58 147.17 777.19 148.46C769.53 148.94 762.32 151.33 764.43 160.34C765.22 163.74 766.99 167.03 769.73 170.21C772.36 174.12 774.88 177.04 777.28 178.97C798 195.51 821.15 207.53 846.74 215.02C853.41 216.98 860.14 218.8 866.91 220.48C867.7 220.68 868.46 221.03 869.14 221.49L872.3 223.67C878.02 228.49 876.44 236.34 872.68 241.73C868.07 246.79 865.32 252.29 864.42 258.24C862.24 272.83 866.36 292.71 878.67 302.55C882.64 305.72 885.17 307.9 886.24 309.07C889.88 313 891.12 318.68 886.93 322.53C884.41 324.85 880.97 327.01 878.86 329.88C874.12 336.28 871.59 344.31 871.26 353.97C870.74 369.44 874.78 383.19 883.36 395.21C890.47 405.15 902.95 414.75 913.49 418.33C929.96 423.94 942.49 428.72 951.07 432.68C972.16 442.42 992.15 454.9 1011.02 470.12C1023.39 480.09 1034.31 492.19 1043.8 506.41C1060.74 531.78 1070.79 570.21 1049.94 595.99C1049.7 596.3 1049.56 596.68 1049.56 597.07C1049.56 597.46 1049.7 597.85 1049.94 598.15C1058.37 608.42 1063.61 621.16 1064.23 634.92C1065.19 656.26 1061.64 674.94 1049.63 693.1C1049.11 693.89 1048.75 694.78 1048.58 695.72C1048.41 696.65 1048.42 697.62 1048.62 698.55C1050.89 708.87 1051.32 719.58 1049.93 730.65C1049.41 734.84 1049.86 735.64 1052.64 738.34C1064.57 749.89 1081.26 757.24 1097.74 753.46C1099.11 753.15 1102.84 751.95 1108.93 749.87C1109.53 749.67 1110.17 749.58 1110.8 749.61C1117.86 750 1124.69 756.19 1128.71 758.49C1150.87 771.19 1177.6 767.73 1194.6 748.15C1197.43 744.9 1200.38 741.27 1203.44 737.26C1205.69 734.34 1208.64 732.81 1212.3 732.66C1220.61 732.32 1227.17 733.04 1235.03 730.62C1245.28 727.48 1253.78 720.72 1260.54 710.31C1271.6 693.35 1278.6 669.73 1270.12 651.37C1268.77 648.45 1267.87 645.17 1268.96 642.67C1273.08 633.15 1276.24 624.72 1278.45 617.4C1284.75 596.49 1279.34 574.7 1271.19 555.01C1265.87 542.17 1258.14 530.87 1246.38 524.11C1245.82 523.79 1245.23 523.53 1244.61 523.34C1240.18 521.95 1237.42 520.58 1236.34 519.22C1234.04 516.36 1232.94 513.86 1233.04 511.72C1233.52 501.6 1233.47 492.32 1232.89 483.87C1232.79 482.6 1232.26 480.73 1231.29 478.27C1229.43 465.12 1222.12 454.37 1209.35 446.03C1198.61 439.04 1186.5 434.73 1173.02 433.12C1163.68 431.99 1156.87 430.48 1157.88 420.07C1158.89 409.58 1159.85 397.97 1157.23 388.57C1151.53 368.17 1137.26 355.09 1118.32 346.97C1113.7 344.99 1110.09 344.03 1107.49 344.09C1097.46 344.31 1088.49 346.06 1083.39 339.56C1082.39 338.3 1081.78 334.86 1081.57 329.24C1081.1 317.03 1078.15 305.34 1072.71 294.17C1063.2 274.67 1041.81 255.88 1018.35 256.42C1011.72 256.57 1007.77 256.31 1006.51 255.65C1002.07 253.26 1000.13 249.53 1000.71 244.46C1002.41 229.23 998.06 216.71 987.64 206.91C978.64 198.46 968.21 193.32 956.34 191.49C954.72 191.25 951.12 191.11 945.54 191.06C941.81 191.04 938.21 190.79 934.74 190.32C931.06 185.95 930.31 181.52 932.49 177.05C939.41 162.89 945.95 149.15 949.07 133.6C954.94 111.47 956.78 89.0301 954.6 66.3001C953.49 54.8201 950.64 44.4101 946.05 35.0501C943.11 29.0801 935.46 21.8501 927.99 23.9601C919.71 26.2901 915.63 33.4501 912.37 41.5101C909.15 49.4401 906.71 57.4401 905.04 65.4901C903.48 72.9901 902.58 81.2901 902.33 90.4001C902.17 95.9701 901.87 108.52 901.44 128.03C901.34 132.94 897.11 136.85 892.31 134.28C886.92 131.4 885.08 123.76 883.67 119.33C878.86 104.12 872.36 90.3801 864.15 78.1301C854.83 64.1901 845.52 51.9801 831.53 45.1501C817.98 38.5401 809.02 51.1601 808.52 63.3701C808.02 75.7001 810.57 87.6901 816.18 99.3501C823.6 114.75 832.92 130.02 844.16 145.14C847.79 150 854.42 158.69 864.04 171.18C865.87 173.56 865.88 176.5 864.06 179.99L864.07 180.01ZM548.19 754.9C548.42 754.67 548.57 754.38 548.62 754.06C548.67 753.74 548.62 753.42 548.47 753.13C541.92 740.36 538.53 726.97 538.29 712.97C538.16 705.62 539.4 694.9 542 680.81C544.39 667.84 547.05 657.39 549.97 649.46C568.08 600.12 594.37 555.88 628.86 516.75C643.05 500.65 660.08 485.21 679.95 470.45C696.06 458.48 712.28 448.13 728.6 439.39C730.01 438.63 731.06 437.34 731.52 435.8C734.34 426.2 734.68 416.48 732.55 406.65C728.36 387.32 714.99 367.87 693.85 365.53C690.53 365.16 687.9 363.33 685.97 360.02C684.84 358.06 684.72 354.81 685.61 350.25C691.53 320.09 680.19 288.55 650.85 276.87C641.73 273.24 632.43 272.25 622.95 273.9C615.98 275.12 610.33 269.97 610.04 262.84C608.65 228.54 579.81 204.44 545.75 210.43C540.34 211.39 532.36 216.37 527.11 213.64C524.32 212.2 521.94 209.86 519.99 206.62C500.52 174.59 460.92 163.34 427.94 182.48C420.39 186.86 411.87 198.72 403.03 192.06C390.8 182.84 377.23 179.74 362.33 182.77C341.81 186.95 326.64 197.98 316.82 215.87C311.26 226.02 304.49 222.39 296.25 218.96C283.36 213.59 267.61 215.32 255.48 221.09C236.45 230.14 223.87 244.9 217.76 265.37C215.75 272.05 217.4 279.23 209.31 282.35C207.87 282.9 204.99 282.95 200.67 282.49C185.1 280.84 170.57 286.47 159.31 298.08C146.45 311.33 139.84 327.78 139.48 347.42C139.42 350.52 139.52 355.52 139.79 362.42C140.13 371.26 133.63 372.76 126.69 373.85C115.44 375.64 105.38 381.28 97.4498 389.73C81.7698 406.47 75.9998 426.44 80.1298 449.63C80.7398 453.03 81.6298 456.4 82.8098 459.74C84.3598 464.08 84.8698 467.2 84.3598 469.11C83.3898 472.72 81.4498 475.13 78.5398 476.35C68.4198 480.62 60.3398 487.24 54.2798 496.2C40.9598 515.93 38.0398 537.1 45.5398 559.7C47.1498 564.6 49.8398 569.45 53.6098 574.26C55.6698 576.88 56.3998 580.1 55.7898 583.91C55.5398 585.51 53.5898 588.11 49.9398 591.69C42.0198 599.47 37.0098 608.81 34.8998 619.71C29.8298 646.09 37.0798 667.62 56.6498 684.3C59.5498 686.77 62.1398 689.45 62.2598 692.82C62.9298 712.79 70.6898 731.34 86.8298 743.12C102.35 754.44 120.13 756.51 140.17 749.33C144.45 747.8 148.65 748.8 152.77 752.34C153.08 752.6 153.35 752.91 153.58 753.25C164.33 769.28 178.15 779.33 197.67 780.82C215.68 782.19 226.82 775.69 239.99 764.84C243.21 762.18 246.94 761.26 251.2 762.08C253.1 762.43 256.28 764.62 260.75 768.62C281.33 787.11 315.81 788.71 337.1 770.94C341.09 767.6 343.83 765.42 345.31 764.42C352.52 759.47 357.53 763.32 364.2 768.8C373.93 776.81 385.68 781.05 399.45 781.5C419.63 782.18 436.26 775.17 449.34 760.49C460.04 748.46 468.45 760.37 479.07 764.58C500.77 773.18 530.71 772.41 548.24 754.9H548.19ZM1187.82 414.11C1196.91 416.71 1205.79 420.09 1214.46 424.26C1244.61 438.73 1256.39 470.37 1255.14 502.37C1255.12 502.88 1255.23 503.39 1255.47 503.84C1255.7 504.29 1256.05 504.68 1256.47 504.96C1272.18 515.36 1283.51 529.35 1290.47 546.92C1294.9 558.11 1298.1 568.64 1300.06 578.49C1304.09 598.68 1302.1 618.42 1294.07 637.7C1293.98 637.92 1293.95 638.15 1293.97 638.39C1293.99 638.63 1294.07 638.85 1294.2 639.05C1294.32 639.25 1294.49 639.41 1294.7 639.53C1294.9 639.65 1295.13 639.72 1295.36 639.73C1301.73 640.05 1307.57 638.34 1312.87 634.6C1316.44 632.08 1320.51 629.16 1322.91 625.96C1323.64 625 1324.14 623.89 1324.37 622.72C1324.6 621.54 1324.56 620.33 1324.25 619.17C1317.48 593.6 1315.45 567.59 1318.18 541.12C1320.59 517.68 1325.17 494.96 1331.91 472.96C1334.41 464.8 1337.78 455.16 1342.02 444.03L1346.45 434.98C1346.53 434.81 1346.57 434.62 1346.55 434.43C1346.54 434.24 1346.48 434.06 1346.38 433.9C1346.27 433.74 1346.13 433.61 1345.96 433.53C1345.79 433.45 1345.61 433.41 1345.42 433.42C1334.47 433.94 1330.67 430.18 1335.45 419.51C1340.88 407.41 1344.51 398.01 1346.33 391.3C1351.48 372.4 1350.73 335.74 1332.48 323.68C1325.54 319.1 1318.45 317.4 1310.57 319.94C1297.18 324.28 1285.33 331.18 1275.03 340.64C1268.43 346.69 1262.5 351.91 1257.25 356.28C1248.94 363.2 1242.62 354.27 1242.69 346.55C1242.72 342.51 1242.39 333.24 1241.68 318.74C1240.89 302.49 1234.95 289.32 1223.87 279.24C1220.04 275.74 1214.91 272.82 1209.9 272.13C1198.41 270.56 1186.79 271.99 1175.05 276.42C1163.54 280.75 1154.93 289.85 1147.73 299.63C1141.41 308.2 1137.43 317.7 1135.77 328.11C1135.62 329 1135.74 329.92 1136.12 330.75C1136.5 331.58 1137.12 332.27 1137.9 332.75C1155.7 343.67 1169.14 356.2 1175.85 376.63C1179.75 388.45 1181.1 399.88 1179.91 410.9C1179.86 411.36 1179.98 411.81 1180.26 412.18C1180.53 412.55 1180.93 412.8 1181.38 412.89L1187.82 414.11ZM1401.96 717.38C1457.22 772.8 1539.93 788.66 1613.21 764.08C1668.31 745.61 1710.23 709.74 1738.98 656.47C1763 611.99 1776.2 559.37 1778.79 509.2C1779.58 493.82 1779.57 476.37 1778.76 456.85C1777.95 437.24 1774.99 418.34 1769.88 400.13C1762.68 374.45 1750.4 351.53 1733.02 331.37C1696.51 288.98 1638.43 274.85 1585.62 280.83C1540.15 285.97 1499.06 301.95 1462.35 328.76C1390.76 381.04 1344.31 460.51 1339.28 549.51C1335.79 611.38 1358.66 673.94 1401.96 717.38ZM1011.21 499.35L993.29 483.21C979.82 473.05 966.42 464.69 953.1 458.14C938.44 451.03 923.38 444.88 907.93 439.68C897.64 436.22 888.36 434.38 880.08 434.14C874.4 432.57 868.54 431.74 862.48 431.65C838.59 431.26 819.29 432.43 804.57 435.15C795.55 436.82 788.14 438.67 782.34 440.69C771.12 444.63 756.86 450.53 739.56 458.41C720.94 466.88 702.13 479.27 683.13 495.58C657.19 517.86 633.7 541.66 615.47 568.15C592.97 600.86 576.24 636.36 565.27 674.64C563.29 681.55 561.77 689.52 560.7 698.55C557.92 722.07 563.48 742.22 577.39 759.02C583.57 766.48 592.42 773.92 603.95 781.34C634.32 800.88 669.74 814.18 704.86 820.6C715.87 822.61 726.42 822.95 736.64 822.28C754.53 821.1 770.28 814.58 783.89 802.73C799.77 788.9 814.21 772.16 827.22 752.5C845.43 725.01 863.68 699.64 881.97 676.4C899.76 653.8 921.05 635.88 945.85 622.66C961.15 614.51 978.81 607.32 998.81 601.1C1015.63 595.86 1038.65 588.52 1040.73 567.79C1043.2 543.03 1028.49 516.89 1011.2 499.34L1011.21 499.35ZM585.4 796.41C586.66 817.11 596.27 832.8 614.23 843.47C620.64 847.29 629.37 849.5 640.43 850.1C641.17 850.15 641.9 850.29 642.59 850.53C646.07 851.7 648.44 852.97 649.71 854.34C652.87 857.79 656.23 864.92 660.42 868.86C671.12 878.95 684.41 883.88 700.3 883.62C702.49 883.59 707.19 883.08 714.41 882.11C715.06 882.03 715.71 882.04 716.35 882.14C724.25 883.44 730.79 889.95 734.87 892.22C747.57 899.26 762.56 901.29 776.21 896.22C779.54 895 782.2 894.25 784.18 893.97C785.6 893.78 787.03 893.86 788.4 894.23C795.74 896.16 801.83 897.28 806.67 897.59C823.41 898.66 837.88 893.23 850.05 881.32C851.02 880.37 854.03 876.81 859.08 870.64C861.46 867.73 863.89 866.26 866.36 866.21C890.65 865.72 909.23 854.99 922.1 834.02C924.66 829.85 926.53 826.45 927.7 823.82C930.21 818.21 934.02 814.07 939.6 813.31C959.48 810.62 973.8 800.05 982.56 781.6C985.98 774.42 985.58 765.15 995.49 763.23C1005.23 761.34 1013.01 756.66 1018.84 749.19C1025.54 740.57 1029.18 731.07 1029.74 720.67C1029.86 718.5 1029.52 714.06 1028.71 707.37C1027.64 698.6 1027.14 688.5 1031.3 682.54C1041.63 667.75 1045.65 651.11 1043.35 632.62C1042.33 624.33 1038.91 617.19 1033.09 611.18C1032.72 610.8 1032.23 610.55 1031.7 610.48C1031.17 610.41 1030.64 610.52 1030.18 610.8C1017.27 618.63 1006.42 621.26 987.62 627.49C981.37 629.56 971.76 633.84 958.79 640.32C935.5 651.96 915.61 667.98 899.13 688.37C878.06 714.47 864.71 734.72 840.02 770.84C829.34 786.46 818.42 798.65 805.82 811.34C794.6 822.6 782 831.33 768.02 837.52C744.52 847.91 717.46 845.5 693.2 840.25C654.84 831.96 619.4 817.06 586.9 795.53C586.75 795.43 586.57 795.38 586.39 795.37C586.21 795.37 586.03 795.41 585.87 795.5C585.71 795.59 585.59 795.72 585.5 795.88C585.41 796.04 585.37 796.22 585.38 796.4L585.4 796.41Z" fill="#553630"/>
<path d="M949.08 133.62L945.15 133.59C944.89 133.59 944.63 133.64 944.4 133.77C944.17 133.89 943.97 134.07 943.83 134.3C931.5 153.44 914.63 166.49 893.22 173.46C884.44 176.32 874.72 178.51 864.07 180.02C865.89 176.53 865.88 173.59 864.05 171.21C854.43 158.71 847.8 150.03 844.17 145.17C832.93 130.05 823.6 114.79 816.19 99.3802C810.58 87.7202 808.03 75.7202 808.53 63.4002C809.03 51.1902 817.99 38.5802 831.54 45.1802C845.53 52.0102 854.84 64.2202 864.16 78.1602C872.37 90.4202 878.87 104.15 883.68 119.36C885.09 123.79 886.93 131.43 892.32 134.31C897.13 136.88 901.35 132.97 901.45 128.06C901.88 108.55 902.18 96.0002 902.34 90.4302C902.59 81.3202 903.5 73.0202 905.05 65.5202C906.72 57.4602 909.16 49.4702 912.38 41.5402C915.64 33.4902 919.73 26.3302 928 23.9902C935.47 21.8802 943.12 29.1102 946.06 35.0802C950.65 44.4302 953.5 54.8502 954.61 66.3302C956.8 89.0602 954.95 111.49 949.08 133.63V133.62Z" fill="black"/>
<path d="M949.08 133.62C945.96 149.17 939.42 162.91 932.5 177.07C930.31 181.55 931.06 185.97 934.75 190.34C933.81 190.4 932.88 190.61 931.95 190.98C930.78 191.45 929.87 191.73 929.22 191.84C923.49 192.82 916.42 195.04 908.04 198.48C894.89 203.88 884.4 211.85 876.57 222.39C876.42 222.59 876.23 222.74 876.01 222.84C875.79 222.94 875.54 222.97 875.3 222.94C873.58 222.73 872.59 222.97 872.31 223.66L869.15 221.48C868.47 221.01 867.71 220.67 866.92 220.47C860.14 218.79 853.42 216.97 846.75 215.01C821.16 207.51 798 195.5 777.29 178.96C774.89 177.04 772.37 174.12 769.74 170.2C779.45 172.66 794.99 176.28 816.37 181.07C829.64 184.02 842.55 184.53 855.12 182.58C859.08 183.7 862.07 182.84 864.08 180C874.74 178.49 884.45 176.3 893.23 173.44C914.64 166.47 931.51 153.42 943.84 134.28C943.98 134.06 944.18 133.88 944.41 133.76C944.64 133.64 944.9 133.58 945.16 133.58L949.09 133.62H949.08Z" fill="black"/>
<path d="M855.1 182.58C842.53 184.53 829.62 184.02 816.35 181.07C794.97 176.29 779.43 172.66 769.72 170.2C766.97 167.02 765.2 163.73 764.42 160.33C762.31 151.32 769.52 148.93 777.18 148.45C797.58 147.16 815.46 155.64 833.47 165.31C841.33 169.52 846.16 177.96 855.1 182.58Z" fill="black"/>
<path d="M1231.29 478.3C1225.77 488.56 1219.51 496.47 1212.51 502.06C1209.97 504.09 1207.89 505.68 1206.29 506.83C1194.74 515.16 1176.8 518.61 1162.99 518.54C1154.48 518.51 1147.78 513.61 1141.95 508.22C1141.09 507.44 1140.05 506.9 1138.91 506.66C1137.78 506.42 1136.6 506.49 1135.51 506.87C1134.79 507.11 1131.25 508.44 1124.88 510.85C1117.48 513.67 1107.78 510.39 1098.36 506.7C1097.2 506.25 1096.17 505.54 1095.34 504.62C1090.08 498.86 1085.95 492.64 1082.94 485.96C1082.86 485.79 1082.75 485.65 1082.62 485.53C1082.48 485.41 1082.31 485.33 1082.14 485.28C1081.96 485.23 1081.78 485.22 1081.6 485.26C1081.42 485.29 1081.25 485.36 1081.1 485.47C1076.77 488.5 1072.46 490.73 1068.19 492.15C1061.7 494.3 1055.13 491.14 1049.79 487.43C1047.79 486.03 1044.76 482.47 1040.72 476.73C1037.06 471.5 1033.34 465.01 1029.57 457.26C1028.77 455.64 1027.49 454.33 1025.89 453.5C1018.13 449.52 1007.4 443.4 1002.2 436.5C996.52 428.98 992.72 420.97 990.8 412.48C989.38 406.23 990.68 396.89 990.32 392.48C990.3 392.24 990.21 392 990.05 391.81C989.89 391.62 989.68 391.49 989.45 391.43C989.03 391.33 988.59 391.55 988.13 392.1C987.7 392.63 987.02 393.01 986.1 393.25C981.64 394.47 977.42 395.82 973.46 397.28C962.39 401.4 945.01 402.86 935.45 394.28C929.78 389.2 925.7 383.92 923.19 378.45C922.67 377.31 922.33 376.1 922.2 374.86C920.93 363.25 920.51 355.42 920.95 351.36C922.51 336.8 925.77 322.75 930.74 309.21C930.89 308.81 930.95 308.39 930.93 307.97C930.91 307.55 930.81 307.14 930.62 306.76C930.44 306.38 930.18 306.04 929.86 305.76C929.54 305.48 929.18 305.27 928.77 305.14C925.19 303.94 920.02 301.94 913.27 299.13C905.46 295.87 898.51 290.86 892.81 286.17C883.69 278.67 878.09 268.79 876 256.52C875.15 251.52 874.05 246.59 872.69 241.72C876.45 236.33 878.03 228.48 872.31 223.66C872.58 222.97 873.58 222.73 875.3 222.94C875.54 222.97 875.78 222.94 876.01 222.84C876.23 222.74 876.43 222.59 876.57 222.39C884.4 211.85 894.89 203.88 908.04 198.48C916.43 195.03 923.49 192.82 929.22 191.84C929.87 191.74 930.78 191.45 931.95 190.98C932.88 190.61 933.81 190.4 934.75 190.34C938.22 190.81 941.82 191.06 945.55 191.08C951.12 191.13 954.72 191.27 956.35 191.51C968.22 193.34 978.65 198.48 987.65 206.93C998.07 216.73 1002.42 229.24 1000.72 244.48C1000.14 249.55 1002.08 253.28 1006.52 255.67C1007.78 256.33 1011.73 256.59 1018.36 256.44C1041.82 255.91 1063.21 274.69 1072.72 294.19C1078.15 305.36 1081.11 317.05 1081.58 329.26C1081.79 334.88 1082.4 338.32 1083.4 339.58C1088.5 346.09 1097.47 344.34 1107.5 344.11C1110.1 344.05 1113.71 345.01 1118.33 346.99C1137.27 355.11 1151.54 368.19 1157.24 388.59C1159.86 398 1158.9 409.6 1157.89 420.09C1156.88 430.49 1163.69 432.01 1173.03 433.14C1186.51 434.75 1198.62 439.06 1209.36 446.05C1222.13 454.39 1229.44 465.14 1231.3 478.29L1231.29 478.3Z" fill="black"/>
<path d="M872.68 241.73C874.04 246.59 875.15 251.53 875.99 256.53C878.07 268.8 883.67 278.68 892.8 286.18C898.5 290.87 905.45 295.88 913.26 299.14C920.01 301.94 925.18 303.95 928.76 305.15C929.16 305.28 929.53 305.49 929.84 305.77C930.16 306.05 930.41 306.39 930.6 306.77C930.78 307.15 930.89 307.56 930.91 307.98C930.93 308.4 930.86 308.82 930.72 309.22C925.75 322.76 922.49 336.81 920.93 351.37C920.5 355.43 920.91 363.27 922.18 374.87C922.32 376.11 922.65 377.32 923.17 378.46C925.68 383.93 929.76 389.21 935.43 394.29C944.99 402.87 962.37 401.41 973.44 397.29C977.4 395.83 981.61 394.48 986.08 393.26C987 393.02 987.67 392.64 988.11 392.11C988.57 391.56 989.01 391.34 989.43 391.44C989.66 391.5 989.88 391.63 990.03 391.82C990.19 392.01 990.28 392.24 990.3 392.49C990.66 396.9 989.36 406.24 990.78 412.49C992.7 420.98 996.5 428.99 1002.18 436.51C1007.38 443.41 1018.11 449.52 1025.87 453.51C1027.47 454.34 1028.75 455.65 1029.55 457.27C1033.32 465.02 1037.04 471.51 1040.71 476.74C1044.75 482.47 1047.77 486.04 1049.77 487.44C1055.11 491.15 1061.68 494.31 1068.17 492.16C1072.44 490.74 1076.75 488.51 1081.08 485.48C1081.23 485.37 1081.4 485.3 1081.58 485.27C1081.76 485.24 1081.94 485.25 1082.12 485.29C1082.3 485.34 1082.46 485.42 1082.6 485.54C1082.74 485.66 1082.85 485.8 1082.92 485.97C1085.93 492.65 1090.06 498.87 1095.32 504.63C1096.15 505.55 1097.19 506.26 1098.34 506.71C1107.76 510.4 1117.46 513.68 1124.86 510.86C1131.23 508.44 1134.77 507.12 1135.49 506.88C1136.59 506.51 1137.76 506.43 1138.89 506.67C1140.03 506.91 1141.08 507.45 1141.93 508.23C1147.76 513.62 1154.46 518.51 1162.98 518.55C1176.78 518.62 1194.72 515.17 1206.27 506.84C1207.88 505.68 1209.95 504.09 1212.49 502.07C1219.49 496.49 1225.75 488.57 1231.27 478.31C1232.24 480.77 1232.77 482.64 1232.87 483.91C1233.45 492.36 1233.5 501.64 1233.02 511.76C1232.92 513.9 1234.02 516.4 1236.32 519.26C1237.4 520.62 1240.16 522 1244.59 523.38C1245.21 523.57 1245.8 523.83 1246.36 524.15C1258.12 530.91 1265.85 542.21 1271.17 555.05C1279.32 574.74 1284.73 596.53 1278.43 617.44C1276.22 624.77 1273.06 633.19 1268.94 642.71C1267.85 645.22 1268.75 648.5 1270.1 651.41C1278.58 669.76 1271.58 693.39 1260.52 710.35C1253.76 720.75 1245.26 727.52 1235.01 730.66C1227.15 733.08 1220.59 732.36 1212.28 732.7C1208.62 732.85 1205.67 734.38 1203.42 737.3C1200.36 741.31 1197.41 744.93 1194.58 748.19C1177.59 767.76 1150.85 771.23 1128.69 758.53C1124.67 756.23 1117.84 750.05 1110.78 749.65C1110.15 749.62 1109.51 749.7 1108.91 749.91C1102.82 751.99 1099.09 753.19 1097.72 753.5C1081.24 757.28 1064.55 749.93 1052.62 738.38C1049.84 735.68 1049.39 734.88 1049.91 730.69C1051.3 719.61 1050.87 708.91 1048.6 698.59C1048.4 697.66 1048.39 696.7 1048.56 695.77C1048.74 694.84 1049.09 693.95 1049.62 693.15C1061.62 674.99 1065.17 656.31 1064.21 634.97C1063.59 621.2 1058.35 608.46 1049.92 598.2C1049.68 597.89 1049.54 597.51 1049.54 597.12C1049.54 596.73 1049.68 596.34 1049.92 596.04C1070.77 570.25 1060.72 531.83 1043.78 506.46C1034.29 492.23 1023.37 480.14 1011 470.17C992.13 454.95 972.15 442.47 951.05 432.73C942.47 428.77 929.94 423.99 913.47 418.38C902.93 414.79 890.45 405.2 883.34 395.26C874.76 383.24 870.72 369.5 871.24 354.02C871.57 344.36 874.11 336.33 878.85 329.93C880.96 327.06 884.39 324.9 886.92 322.58C891.11 318.73 889.87 313.05 886.23 309.12C885.15 307.94 882.63 305.77 878.66 302.6C866.35 292.76 862.23 272.88 864.41 258.29C865.3 252.34 868.06 246.83 872.67 241.78L872.68 241.73Z" fill="black"/>
<path d="M1342.02 444.04C1328.68 449.91 1315.36 453.37 1302.07 454.41C1292.84 455.13 1284.84 455.51 1276.85 452.01C1276.4 451.81 1276.02 451.47 1275.76 451.04C1275.5 450.61 1275.39 450.11 1275.43 449.61C1276.39 437.97 1279.67 429.37 1285.34 416.96C1290.61 405.41 1293.59 397.58 1296.92 387C1297.82 384.18 1298.26 381.71 1298.26 379.57C1298.26 378.97 1298.1 378.38 1297.78 377.86C1297.47 377.35 1297.02 376.93 1296.48 376.65C1295.95 376.38 1295.34 376.26 1294.74 376.3C1294.14 376.34 1293.56 376.56 1293.08 376.92C1283.83 383.67 1275.25 392.46 1267.33 403.29C1265.32 406.01 1259.25 411.4 1249.09 419.44C1248.85 419.63 1248.57 419.77 1248.27 419.84C1247.97 419.91 1247.66 419.91 1247.36 419.84C1230.74 415.94 1220.42 398.17 1215.68 382.53C1212.56 372.21 1208.71 363.05 1205.98 352.52C1203.68 343.61 1200.08 334.03 1190.79 330.66C1190.53 330.57 1190.25 330.54 1189.98 330.58C1189.71 330.62 1189.45 330.72 1189.23 330.88C1183.29 335.05 1180.63 346.18 1179.2 353.39C1177.23 363.3 1175.1 367.88 1177.38 375.07C1181.49 387.96 1184.16 396.07 1183.43 408.55C1183.41 408.82 1183.45 409.08 1183.54 409.34C1183.63 409.59 1183.77 409.83 1183.96 410.03L1187.82 414.12L1181.38 412.9C1180.93 412.81 1180.53 412.56 1180.26 412.19C1179.99 411.82 1179.86 411.36 1179.91 410.91C1181.1 399.89 1179.75 388.47 1175.86 376.64C1169.14 356.21 1155.7 343.68 1137.9 332.76C1137.12 332.28 1136.5 331.59 1136.12 330.76C1135.74 329.93 1135.62 329.02 1135.77 328.12C1137.43 317.71 1141.42 308.21 1147.73 299.64C1154.93 289.85 1163.55 280.76 1175.05 276.43C1186.79 272 1198.41 270.57 1209.9 272.14C1214.91 272.83 1220.05 275.75 1223.87 279.25C1234.95 289.33 1240.89 302.5 1241.68 318.75C1242.39 333.25 1242.72 342.52 1242.69 346.56C1242.62 354.29 1248.94 363.21 1257.25 356.29C1262.5 351.92 1268.43 346.7 1275.03 340.65C1285.34 331.18 1297.18 324.28 1310.57 319.94C1318.45 317.4 1325.54 319.1 1332.48 323.68C1350.73 335.75 1351.48 372.4 1346.33 391.3C1344.51 398.01 1340.88 407.41 1335.45 419.51C1330.68 430.17 1334.47 433.93 1345.42 433.42C1345.61 433.41 1345.8 433.45 1345.96 433.53C1346.13 433.61 1346.27 433.74 1346.38 433.9C1346.48 434.06 1346.54 434.24 1346.56 434.43C1346.56 434.62 1346.53 434.81 1346.45 434.98L1342.02 444.03V444.04Z" fill="black"/>
<path d="M635.89 504.95C635.75 505.05 635.58 505.11 635.41 505.11C635.24 505.11 635.07 505.08 634.91 504.99C634.76 504.9 634.63 504.78 634.55 504.62C634.47 504.47 634.42 504.29 634.43 504.12C634.92 494.77 634.16 483.82 632.15 471.26C632.03 470.5 632.11 469.72 632.4 469C632.69 468.28 633.17 467.66 633.79 467.19C634.74 466.48 636.56 465.16 639.25 463.22C649.04 456.22 656.39 446.8 661.31 434.98C670.91 411.91 668.57 391.26 654.29 373.04C649.55 367.01 643.49 362.03 639.34 357.04C639.14 356.8 639.02 356.5 639.01 356.18C638.99 355.87 639.08 355.56 639.25 355.3C647.71 342.63 653.88 329.36 650.94 313.94C648.3 300.01 641.92 288.23 631.81 278.61C631.7 278.51 631.63 278.38 631.59 278.24C631.55 278.1 631.55 277.95 631.59 277.8C631.63 277.66 631.7 277.52 631.81 277.41C631.91 277.3 632.04 277.22 632.19 277.18C635.45 276.27 639.3 276.12 643.18 277.58C652.5 281.08 659.58 284.22 665.7 290.63C668.58 293.63 671.26 296.16 673.72 298.23C674.23 298.66 674.67 299.19 675.01 299.78C679.53 307.82 682.2 314.13 683.01 318.72C684.24 325.67 684.24 335.5 683.03 348.23C682.02 358.79 684.37 366.36 695.17 368.3C703.96 369.88 711.06 373.8 716.46 380.06C728.86 394.4 735.21 414.83 729.3 433.02C728.56 435.3 726.55 437.33 723.29 439.11C707.13 447.9 693.25 456.76 681.64 465.7C675.4 470.52 664.61 479.28 649.26 491.97C646.49 494.27 644.23 496.41 642.5 498.37C639.38 501.89 637.18 504.08 635.91 504.93L635.89 504.95Z" fill="black"/>
<path d="M1342.02 444.04C1337.78 455.16 1334.41 464.81 1331.91 472.97C1325.17 494.97 1320.59 517.69 1318.18 541.13C1315.45 567.59 1317.48 593.61 1324.25 619.18C1324.56 620.34 1324.6 621.56 1324.37 622.73C1324.14 623.91 1323.64 625.02 1322.91 625.97C1320.51 629.16 1316.44 632.08 1312.87 634.61C1307.57 638.35 1301.74 640.06 1295.36 639.74C1295.13 639.73 1294.9 639.66 1294.7 639.54C1294.49 639.42 1294.32 639.26 1294.2 639.06C1294.07 638.86 1293.99 638.64 1293.97 638.4C1293.95 638.17 1293.99 637.93 1294.07 637.71C1302.1 618.43 1304.09 598.69 1300.06 578.5C1298.1 568.65 1294.9 558.12 1290.47 546.93C1283.51 529.36 1272.18 515.38 1256.47 504.97C1256.05 504.69 1255.7 504.3 1255.47 503.85C1255.24 503.4 1255.12 502.89 1255.14 502.38C1256.39 470.38 1244.61 438.74 1214.46 424.27C1205.79 420.1 1196.91 416.72 1187.82 414.12L1183.96 410.03C1183.77 409.83 1183.63 409.59 1183.54 409.34C1183.45 409.09 1183.41 408.82 1183.43 408.55C1184.16 396.07 1181.49 387.97 1177.38 375.07C1175.1 367.88 1177.23 363.29 1179.2 353.39C1180.63 346.18 1183.29 335.05 1189.23 330.88C1189.45 330.72 1189.71 330.62 1189.98 330.58C1190.25 330.54 1190.53 330.57 1190.79 330.66C1200.08 334.03 1203.68 343.61 1205.98 352.52C1208.71 363.04 1212.56 372.21 1215.68 382.53C1220.42 398.17 1230.74 415.94 1247.36 419.84C1247.66 419.91 1247.97 419.91 1248.27 419.84C1248.57 419.77 1248.85 419.64 1249.09 419.44C1259.24 411.39 1265.32 406.01 1267.33 403.29C1275.25 392.46 1283.83 383.67 1293.08 376.92C1293.56 376.56 1294.14 376.35 1294.74 376.3C1295.34 376.25 1295.94 376.37 1296.48 376.65C1297.02 376.93 1297.47 377.34 1297.78 377.86C1298.1 378.37 1298.26 378.97 1298.26 379.57C1298.26 381.71 1297.82 384.19 1296.92 387C1293.59 397.58 1290.6 405.4 1285.33 416.96C1279.67 429.37 1276.39 437.97 1275.43 449.61C1275.39 450.11 1275.5 450.61 1275.76 451.04C1276.01 451.47 1276.4 451.81 1276.85 452.01C1284.84 455.51 1292.84 455.13 1302.07 454.41C1315.36 453.37 1328.68 449.91 1342.02 444.04Z" fill="black"/>
<path d="M953.1 458.15C948.13 459.12 943.48 458.59 939.14 456.55C926.65 450.7 918.55 447.14 914.83 445.85C914.29 445.66 913.71 445.62 913.17 445.73C884.6 451.57 858.33 460.61 833.55 475.34C824.62 480.64 812.59 486.88 801.15 493.92C793.27 498.78 786.56 504.91 777.94 511.22C764.79 520.89 748.15 536.37 740.15 544.37C726.53 558 712.36 573.66 697.64 591.36C691.17 599.14 684.89 608.06 678.79 618.11C673.15 627.38 665.28 640.15 655.18 656.43C647.01 669.6 639.87 688.98 634.11 701.65C629.54 711.69 624.93 724.01 620.26 738.63C619.44 741.19 619.14 744.01 619.37 747.08C619.39 747.3 619.34 747.52 619.23 747.71C619.12 747.9 618.96 748.06 618.76 748.16C618.56 748.26 618.34 748.31 618.11 748.29C617.89 748.27 617.67 748.19 617.5 748.05L602.79 736.48C602.46 736.22 602.22 735.87 602.11 735.47C602 735.07 602.01 734.64 602.16 734.25C608.88 716.14 612.25 707.05 612.27 706.97C621.92 680.94 633.74 656.24 647.72 632.87C651.02 627.36 654.56 621.86 658.36 616.37C663.63 608.73 667.51 601.31 672.82 594.53C680.13 585.22 688.67 572.04 697.58 562.06C704.84 553.96 709.27 547.83 716.65 541.39C726.13 533.1 735.31 522.45 744.93 514.3C771.93 491.38 800.89 471.7 831.82 455.28C836.19 452.96 843.21 449.95 852.87 446.25C861.93 442.77 871.01 438.73 880.1 434.13C888.38 434.37 897.66 436.22 907.95 439.68C923.4 444.88 938.46 451.03 953.12 458.13L953.1 458.15Z" fill="#553630"/>
<path d="M993.29 483.21L1011.21 499.35C986.33 505.3 967.92 510.54 955.97 515.08C953.26 516.11 943.58 520.54 926.92 528.37C915.56 533.7 906.12 538.61 898.61 543.08C876.31 556.37 856.11 571.1 837.99 587.29C831.22 593.35 825.46 599.02 820.7 604.32C811.27 614.83 798.14 626.84 788.39 640.37C780.08 651.93 772.62 663.46 766.02 674.95C758.06 688.79 750.96 702.02 744.7 714.66C736.79 730.61 730.95 748.45 726.07 762.52C724.15 768.06 723.17 772.48 723.15 775.77C723.15 776.05 723.05 776.33 722.87 776.54C722.69 776.76 722.44 776.9 722.16 776.95C715.54 778.13 708.38 777.99 700.67 776.54C700.55 776.52 700.43 776.46 700.34 776.38C700.25 776.3 700.18 776.18 700.15 776.06C700.12 775.94 700.12 775.81 700.17 775.68C700.21 775.56 700.28 775.45 700.38 775.37C701.58 774.35 702.41 773.21 702.87 771.95C707.33 759.81 711.15 748.64 714.3 738.44C717.46 728.19 722.2 719.56 726.66 709.41C741.58 675.49 762.32 643.45 786.21 613.63C792.53 605.74 798.04 599.66 802.74 595.38C811.17 587.67 816.77 581.29 824.96 574.73C832.72 568.52 843.35 558.28 852.81 551.69C869.6 539.98 880.15 532.85 884.45 530.3C899.74 521.23 919.6 511.36 944.04 500.67C950.75 497.74 967.16 491.92 993.3 483.21H993.29Z" fill="#553630"/>
<path d="M1361.32 650.57L1361.78 650.43C1361.84 650.41 1361.9 650.42 1361.95 650.44C1362 650.46 1362.05 650.5 1362.07 650.55C1368.13 661.33 1375.72 670.74 1384.84 678.77C1401.08 693.07 1416.98 705.81 1436.91 713.33C1466.76 724.61 1503.33 731.82 1535.83 728.73C1543.68 727.99 1558.94 726.82 1570.12 724.27C1589.6 719.81 1607.55 713.39 1623.97 705.03C1642.22 695.73 1662.14 683.79 1678.15 669.37C1690.41 658.33 1701.36 647.14 1711 635.81C1730.57 612.8 1746.13 587.04 1757.69 558.5C1761.93 548.04 1765.54 538.36 1768.54 529.45C1771.47 520.79 1773.44 512.41 1774.45 504.33C1774.45 504.19 1774.51 504.06 1774.61 503.97C1774.7 503.87 1774.84 503.82 1774.97 503.83C1775.11 503.83 1775.24 503.89 1775.33 503.99C1775.43 504.09 1775.48 504.22 1775.48 504.36C1776.06 512.94 1774.72 522.56 1774.14 530.32C1773.76 535.24 1773.37 538.91 1772.97 541.32C1768.28 569.56 1762.65 593.02 1756.08 611.73C1743.09 648.72 1723.61 681.05 1697.64 708.73C1691.39 715.39 1683.25 722.49 1673.23 730.03C1640.81 754.43 1598.48 769.02 1559.64 772.04C1542.93 773.33 1525.09 772.34 1506.11 769.07C1450.44 759.44 1405.7 727.35 1375.59 680.29C1373.63 677.25 1371.16 672.46 1368.17 665.92C1365.93 661.02 1363.53 656.16 1360.99 651.35C1360.96 651.28 1360.94 651.2 1360.93 651.12C1360.93 651.04 1360.95 650.96 1360.98 650.89C1361.01 650.82 1361.05 650.75 1361.11 650.7C1361.17 650.65 1361.24 650.61 1361.32 650.58V650.57Z" fill="black"/>
<path d="M390.78 554.65C370.71 554.77 347.72 543.11 343.21 522.18C341.3 513.32 348.62 503.9 357.48 510.45C360.31 512.54 361.69 518.62 363.58 522.23C367.85 530.44 382.28 535.11 390.69 535.07C399.1 535.02 413.47 530.19 417.68 521.94C419.52 518.32 420.82 512.22 423.64 510.09C432.43 503.45 439.83 512.79 438.03 521.66C433.74 542.64 410.89 554.54 390.8 554.64L390.78 554.65Z" fill="#553630"/>
<path d="M48.5702 603.01C48.9102 622.56 53.3102 641.98 67.2802 655.78C78.5502 666.9 91.6602 671.24 106.61 668.79C112.31 667.85 117.51 664.21 122.42 662.97C122.61 662.92 122.81 662.91 123.01 662.95C123.21 662.98 123.39 663.06 123.56 663.17C123.73 663.28 123.87 663.42 123.98 663.59C124.09 663.76 124.16 663.94 124.19 664.14C125.51 672.07 128.77 679.73 133.98 687.11C146.87 705.38 168.56 711.88 189.47 704.28C200.03 700.43 206.31 695.99 213.88 689.14C214.06 688.97 214.28 688.85 214.52 688.77C214.76 688.7 215.01 688.67 215.25 688.7C215.5 688.73 215.73 688.81 215.95 688.94C216.16 689.07 216.35 689.24 216.49 689.45C223.94 700.08 231.98 708.73 243.68 713.93C262.27 722.22 283.2 716.02 296.47 702.43C298.89 699.96 301.99 696.92 305.78 693.31C306.15 692.96 306.64 692.77 307.15 692.78C307.66 692.79 308.14 693.01 308.49 693.37C321.39 706.91 336.75 713.37 354.57 712.75C374 712.06 387.75 701.76 400.6 688.94C401.14 688.4 401.85 688.07 402.61 688C403.37 687.93 404.13 688.14 404.75 688.58C427.87 704.68 459.38 705.68 480.7 685.87C488.87 678.28 494.79 669.49 498.47 659.48C498.67 658.92 499.03 658.43 499.51 658.06C499.98 657.7 500.55 657.47 501.14 657.42C504.55 657.11 508.83 657.07 513.97 657.28C523.5 657.69 535.96 652.73 545.34 648.3C545.56 648.2 545.81 648.16 546.06 648.21C546.3 648.25 546.53 648.37 546.7 648.54C546.87 648.71 546.99 648.94 547.03 649.18C547.07 649.42 547.03 649.67 546.94 649.9C546.14 651.58 545.48 653.46 544.95 655.53C541.59 668.8 538.93 682.27 537 695.94C534.21 715.73 536.61 734.37 544.19 751.86C544.31 752.15 544.35 752.47 544.29 752.78C544.23 753.09 544.07 753.36 543.85 753.57C525.93 770.45 495.37 770.36 474.68 759.39C471.06 757.47 467.23 755.22 463.86 754.45C449.15 751.1 441.78 765.3 431.81 770.71C414.05 780.32 395.69 781.29 376.75 773.61C371 771.28 362.36 763.14 355.63 761.95C341.36 759.44 333.77 771.17 322.55 775.58C305.67 782.23 289.53 781.85 274.14 774.45C261.87 768.54 253.73 754.86 239.12 762.31C233.75 765.06 226.4 771.56 219.96 773.83C201.44 780.32 180.56 778.12 165.47 764.1C161.33 760.24 156.51 752.08 151.13 749.39C142.67 745.15 132.66 748.14 124.09 749.72C103.06 753.6 81.5302 740.64 72.2602 722.32C68.1902 714.29 66.9202 705.05 64.1102 693.44C62.2202 685.63 55.5902 680.15 50.8602 674.93C42.2902 665.51 38.1602 655.79 37.2502 641.44C36.5302 630.14 38.0302 619.67 41.7702 610.02C42.6602 607.71 44.6802 605.25 47.8302 602.64C47.9002 602.59 47.9802 602.55 48.0702 602.54C48.1602 602.53 48.2502 602.54 48.3302 602.58C48.4102 602.62 48.4802 602.67 48.5302 602.75C48.5802 602.82 48.6102 602.91 48.6102 603L48.5702 603.01Z" fill="black"/>
<path d="M585.4 796.41C585.39 796.23 585.43 796.05 585.52 795.89C585.61 795.73 585.73 795.6 585.89 795.51C586.05 795.42 586.23 795.37 586.41 795.38C586.59 795.38 586.77 795.44 586.92 795.54C619.43 817.07 654.86 831.98 693.22 840.26C717.48 845.51 744.54 847.92 768.04 837.53C782.03 831.34 794.63 822.61 805.84 811.35C818.44 798.66 829.36 786.47 840.04 770.85C864.73 734.73 878.08 714.47 899.15 688.38C915.63 667.98 935.52 651.97 958.81 640.33C971.78 633.85 981.39 629.58 987.64 627.51C1006.44 621.28 1017.29 618.65 1030.2 610.82C1030.66 610.55 1031.19 610.43 1031.72 610.5C1032.25 610.57 1032.73 610.81 1033.1 611.2C1038.93 617.21 1042.35 624.36 1043.37 632.64C1045.67 651.14 1041.65 667.78 1031.32 682.57C1027.16 688.53 1027.66 698.62 1028.73 707.39C1029.54 714.09 1029.88 718.52 1029.76 720.69C1029.2 731.08 1025.56 740.59 1018.86 749.21C1013.03 756.68 1005.25 761.37 995.51 763.25C985.6 765.17 986 774.44 982.58 781.62C973.82 800.07 959.51 810.64 939.62 813.33C934.04 814.09 930.23 818.22 927.72 823.84C926.55 826.47 924.69 829.87 922.12 834.04C909.24 855.01 890.66 865.74 866.38 866.23C863.91 866.28 861.48 867.75 859.1 870.66C854.05 876.83 851.04 880.39 850.07 881.34C837.89 893.25 823.43 898.68 806.69 897.62C801.85 897.31 795.76 896.19 788.42 894.26C787.05 893.9 785.61 893.81 784.2 894C782.22 894.27 779.56 895.02 776.23 896.25C762.58 901.31 747.59 899.29 734.89 892.25C730.8 889.98 724.26 883.48 716.37 882.17C715.73 882.07 715.08 882.06 714.43 882.14C707.21 883.11 702.5 883.62 700.32 883.65C684.43 883.9 671.14 878.98 660.44 868.89C656.25 864.94 652.89 857.82 649.73 854.37C648.46 853 646.09 851.73 642.61 850.56C641.91 850.32 641.19 850.18 640.45 850.13C629.39 849.54 620.66 847.33 614.25 843.5C596.29 832.83 586.68 817.15 585.42 796.44L585.4 796.41ZM776.73 858.18C777.01 864.27 780.18 868.54 786.24 871C801.46 877.19 816.16 876.38 830.33 868.56C837.39 864.66 844.99 853.11 851.98 852.77C859.69 852.38 866.29 851.82 871.76 851.1C893.55 848.2 904.62 833.45 917.65 814.55C921.91 808.39 922.2 804.71 931.13 802.17C935.98 800.8 942.31 798.15 950.1 794.24C958.82 789.86 965.57 784.12 970.36 777.04C975.13 769.98 976.49 764.63 980.39 754.7C981.18 752.7 982.64 751.05 984.53 750.01C988.17 748.02 993.04 746.18 996.2 743.95C1010.31 733.96 1015.12 715.09 1013.37 698.49C1013.17 696.58 1012.75 693.04 1012.08 687.86C1011.45 682.86 1013.54 679.41 1016.46 674.97C1017.24 673.78 1017.56 672.33 1017.33 670.92C1016.27 664.32 1014.27 659.47 1011.33 656.38C1003.65 648.33 986.74 649.36 976.73 653.53C962.99 659.25 950.35 666.65 938.84 675.73C921.72 689.25 905.8 704.9 891.1 722.7C879.37 736.9 865.42 758.56 857.95 769.93C847.61 785.66 839.18 797.35 832.65 805.02C816.84 823.55 799.07 839.53 779.34 852.97C778.5 853.54 777.82 854.32 777.37 855.23C776.92 856.14 776.7 857.15 776.75 858.17L776.73 858.18Z" fill="black"/>
<path d="M1741.8 693.69C1741.81 694.32 1741.86 694.66 1741.95 694.7C1742.33 694.85 1742.74 694.87 1743.13 694.76C1743.52 694.64 1743.85 694.4 1744.08 694.07L1749.06 686.84C1749.37 686.39 1749.84 686.08 1750.38 685.97C1750.91 685.86 1751.47 685.97 1751.92 686.27C1761.02 692.19 1768.09 697.01 1773.13 700.73C1776.97 703.57 1781.77 709.07 1787.51 717.25C1795.31 728.29 1795.84 742.52 1789.92 754.74C1783.89 767.15 1770.79 776.03 1759.19 782.72C1738.2 794.83 1715.48 804.28 1691.03 811.08C1669.63 817.03 1649 821.59 1629.14 824.75C1602.98 828.9 1575.1 830.87 1545.51 830.66C1536.61 830.6 1529.93 830.31 1525.48 829.78C1516.35 828.7 1508.72 829.16 1498.78 827.74C1479.36 824.95 1466.14 822.89 1459.11 821.58C1445.79 819.09 1426.59 814.75 1410.32 808.99C1395.4 803.69 1386.08 800.32 1382.33 798.86C1365.78 792.43 1349.98 784.46 1334.93 774.95C1328.15 770.67 1322.31 765.96 1317.44 760.82C1317.15 760.52 1316.79 760.28 1316.39 760.14C1316 759.99 1315.58 759.94 1315.16 759.98C1314.74 760.02 1314.33 760.16 1313.98 760.38C1313.62 760.6 1313.32 760.91 1313.09 761.26C1306.19 772.33 1297.18 779.13 1285.83 787.51C1280.94 791.1 1275.54 794.41 1269.63 797.42C1252.41 806.18 1234.87 812.96 1216.99 817.78C1208.81 819.98 1196.63 822.83 1180.47 826.33C1176.87 827.11 1166.02 828.49 1147.92 830.47C1136.2 831.75 1125.29 832.44 1115.2 832.53C1088.73 832.78 1067.35 831.96 1051.06 830.06C1047.28 829.63 1043.9 829.42 1040.91 829.46C1040.44 829.46 1039.99 829.63 1039.62 829.91C1039.24 830.2 1038.98 830.6 1038.85 831.05C1036.27 840.28 1031.92 848.38 1025.82 855.38C1018.17 864.16 1007.39 873.26 993.5 882.68C976.96 893.92 957.04 904.05 933.74 913.08C902.23 925.29 869.71 933.37 836.19 937.32C799.12 941.68 765.68 942.72 735.88 940.44C702.56 937.9 671.57 933.12 642.9 926.1C628.01 922.45 607.42 915.2 581.13 904.35C565.78 898.02 549.63 888.87 536.94 880.26C531.8 876.77 525.29 871.47 517.42 864.36C512.92 860.31 509.38 856.06 506.79 851.62C506.35 850.86 505.69 850.24 504.9 849.84C504.11 849.44 503.23 849.28 502.36 849.37C496.75 849.95 487.16 850.98 473.59 852.46C412.96 859.02 351.39 860.69 288.86 857.49C272.12 856.63 261.29 856.58 246.82 855.17C211.83 851.78 182.44 847.86 158.63 843.41C130.1 838.08 102.57 830.73 76.0401 821.37C56.1101 814.35 38.2501 804.92 22.4401 793.06C16.1001 788.32 8.55007 781.7 4.83007 774.78C-2.23993 761.63 -1.51993 748.88 7.01007 736.55C14.5101 725.7 25.1001 716.17 38.7901 707.95C38.8601 707.91 38.9301 707.89 39.0101 707.88C39.0901 707.88 39.1701 707.88 39.2401 707.91C39.3101 707.94 39.3801 707.98 39.4301 708.04C39.4801 708.1 39.5201 708.16 39.5501 708.24L46.7601 732.1C46.9701 732.8 47.4301 733.39 48.0601 733.77C49.1701 734.43 50.4501 734.8 51.9101 734.87C68.9201 766.7 103.55 781.46 138.66 772.52C139.09 772.41 139.54 772.41 139.98 772.52C140.41 772.63 140.81 772.85 141.14 773.16C144.59 776.4 148.28 780.85 152.78 784.51C164.97 794.45 178.05 800.55 194.76 801.66C214.02 802.93 231.81 799.36 246.04 786.31C246.33 786.04 246.7 785.88 247.1 785.87C247.49 785.85 247.88 785.98 248.19 786.23C277.79 809.84 320.64 811.14 350.97 787.71C351.28 787.48 351.65 787.34 352.04 787.33C352.43 787.32 352.81 787.43 353.14 787.64C371.49 800 391.49 804.89 413.16 802.32C432.51 800.04 445.52 793.41 459.31 780.21C459.68 779.86 460.14 779.63 460.65 779.57C461.15 779.5 461.67 779.6 462.11 779.85C479.36 789.46 498.77 793.03 520.34 790.56C534.97 788.89 548.56 782.68 560.12 773.61C560.26 773.5 560.43 773.41 560.61 773.37C560.79 773.33 560.97 773.32 561.16 773.36C561.34 773.39 561.51 773.47 561.66 773.58C561.81 773.69 561.94 773.83 562.03 773.99C563.03 775.79 563.52 777.4 563.52 778.83C563.5 788.17 563.73 795.47 564.21 800.72C565.72 817.34 572.79 834.3 584.83 847.13C597.93 861.12 614.51 869.28 634.55 871.61C634.94 871.65 635.32 871.78 635.66 871.99C636 872.2 636.29 872.47 636.52 872.8C650.52 893.39 670.22 904.03 695.61 904.71C699.57 904.81 704.58 904.64 710.65 904.18C711.9 904.09 713.14 904.4 714.19 905.06C735.44 918.23 756.58 924.17 781.21 917.04C783.72 916.32 786.36 916.15 788.95 916.56C793.79 917.33 800.74 918.96 805.83 919.15C832.86 920.23 854.7 910.25 871.34 889.21C871.99 888.39 872.94 887.85 873.98 887.72C900.44 884.53 921.22 872.29 936.32 851C939.75 846.16 942.52 840.42 945.76 835.84C946.26 835.13 947 834.63 947.85 834.43C974.6 828.18 993.39 811.84 1004.23 785.42C1004.46 784.85 1004.82 784.34 1005.26 783.92C1005.71 783.5 1006.24 783.19 1006.82 783C1020.55 778.55 1031.47 769.95 1039.58 757.21C1039.68 757.05 1039.82 756.91 1039.98 756.81C1040.14 756.71 1040.32 756.64 1040.51 756.61C1040.69 756.58 1040.89 756.59 1041.07 756.64C1041.25 756.69 1041.43 756.78 1041.57 756.9C1056.15 769.09 1076.77 778 1095.98 775.24C1100.59 774.59 1105.09 773.83 1109.49 772.97C1110.48 772.78 1111.5 772.93 1112.39 773.4C1112.64 773.54 1114.7 774.68 1118.55 776.83C1143.15 790.59 1167.24 790.87 1190.83 777.69C1200.63 772.21 1208.22 764.85 1215.23 755.68C1215.57 755.23 1216.01 754.86 1216.51 754.6C1217.02 754.34 1217.58 754.2 1218.14 754.18C1222.39 754.08 1227.03 753.69 1232.07 753.01C1251.33 750.4 1268.33 736.73 1278.68 720.61C1289.86 703.22 1295.35 684.09 1295.16 663.22C1295.16 662.96 1295.25 662.72 1295.43 662.53C1295.61 662.34 1295.86 662.23 1296.12 662.23C1309.95 661.88 1321.65 657.29 1331.23 648.48C1331.37 648.36 1331.54 648.27 1331.72 648.22C1331.9 648.17 1332.09 648.17 1332.28 648.22C1332.46 648.26 1332.63 648.35 1332.77 648.47C1332.91 648.59 1333.02 648.75 1333.08 648.92C1341.69 670.94 1353.21 691.53 1367.64 710.67C1395.68 747.86 1432.31 773.16 1477.53 786.59C1499.84 793.2 1522.75 796.64 1546.26 796.91C1571.86 797.19 1599.26 791.76 1623.63 783.67C1672.82 767.36 1711.84 735.72 1741.84 693.71L1741.8 693.69Z" fill="black"/>
<path d="M776.73 858.18C776.68 857.16 776.9 856.15 777.35 855.24C777.8 854.33 778.48 853.55 779.32 852.98C799.05 839.54 816.82 823.56 832.63 805.03C839.16 797.36 847.6 785.67 857.93 769.94C865.4 758.58 879.36 736.91 891.08 722.71C905.79 704.91 921.7 689.25 938.82 675.74C950.33 666.66 962.96 659.26 976.71 653.54C986.72 649.37 1003.63 648.34 1011.31 656.39C1014.25 659.48 1016.25 664.33 1017.31 670.93C1017.54 672.34 1017.22 673.79 1016.44 674.98C1013.52 679.43 1011.43 682.88 1012.06 687.87C1012.73 693.04 1013.15 696.59 1013.35 698.5C1015.1 715.1 1010.29 733.97 996.18 743.96C993.02 746.19 988.15 748.03 984.51 750.02C982.62 751.05 981.16 752.71 980.37 754.71C976.47 764.63 975.12 769.99 970.34 777.05C965.56 784.14 958.8 789.87 950.08 794.25C942.29 798.16 935.96 800.81 931.11 802.18C922.18 804.72 921.89 808.39 917.63 814.56C904.6 833.46 893.53 848.21 871.74 851.11C866.27 851.83 859.68 852.39 851.96 852.78C844.97 853.12 837.37 864.68 830.31 868.57C816.14 876.39 801.45 877.2 786.22 871.01C780.15 868.55 776.98 864.27 776.71 858.18H776.73ZM966.15 725.21C974 717.35 983.44 700.8 974.12 691.2C973.75 690.82 973.29 690.53 972.79 690.37C972.28 690.2 971.75 690.16 971.22 690.25C970.69 690.34 970.2 690.55 969.78 690.87C969.36 691.19 969.01 691.61 968.79 692.09C966.38 697.21 963.2 702.93 959.28 709.26C954.86 716.39 956.3 721.84 963.61 725.6C964.02 725.81 964.49 725.89 964.95 725.82C965.41 725.75 965.84 725.53 966.16 725.21H966.15ZM940.17 744.2C940 743.62 939.66 743.11 939.2 742.72C938.74 742.33 938.19 742.07 937.59 741.98C937 741.89 936.39 741.98 935.84 742.22C935.29 742.46 934.82 742.86 934.49 743.36C929.05 751.53 922.95 757.8 916.19 762.16C915.46 762.63 914.83 763.24 914.33 763.95C913.83 764.67 913.49 765.47 913.3 766.33C913.12 767.18 913.11 768.06 913.27 768.92C913.43 769.78 913.76 770.6 914.23 771.33L915.6 773.42C916.08 774.16 916.71 774.8 917.45 775.3C918.19 775.8 919.02 776.14 919.89 776.31C920.76 776.48 921.66 776.48 922.53 776.29C923.4 776.11 924.23 775.76 924.96 775.25C931.55 770.71 936.62 764.32 940.17 756.09C941.53 752.93 941.73 749.39 940.74 746.1L940.17 744.19V744.2ZM887.66 790.31L880.6 798.91C879.85 799.82 879 800.65 878.08 801.38C871.53 806.45 866.78 810.21 863.81 812.66C862.49 813.75 861.43 815.45 860.63 817.76C860.54 818.03 860.51 818.31 860.53 818.59C860.55 818.87 860.63 819.14 860.76 819.39C862.51 822.65 868.74 828.78 872.83 826.89C886.1 820.78 897.42 805.16 890.15 790.6C890.04 790.38 889.87 790.18 889.66 790.04C889.45 789.89 889.21 789.8 888.97 789.77C888.72 789.74 888.47 789.77 888.24 789.87C888.01 789.96 887.81 790.11 887.65 790.31H887.66Z" fill="black"/>
<path d="M966.15 725.21C965.82 725.54 965.39 725.75 964.93 725.82C964.47 725.89 964 725.82 963.59 725.6C956.29 721.83 954.85 716.39 959.26 709.26C963.19 702.93 966.36 697.21 968.77 692.09C969 691.61 969.34 691.19 969.76 690.87C970.18 690.55 970.68 690.34 971.2 690.25C971.73 690.16 972.26 690.2 972.77 690.37C973.28 690.54 973.73 690.82 974.11 691.2C983.43 700.8 973.99 717.35 966.14 725.21H966.15Z" fill="black"/>
<path d="M940.17 744.2L940.74 746.11C941.74 749.4 941.54 752.94 940.17 756.1C936.62 764.33 931.55 770.72 924.96 775.26C924.23 775.77 923.4 776.12 922.53 776.3C921.66 776.48 920.76 776.49 919.89 776.31C919.02 776.14 918.19 775.8 917.45 775.3C916.71 774.8 916.09 774.16 915.6 773.42L914.23 771.32C913.75 770.59 913.43 769.77 913.27 768.91C913.11 768.05 913.12 767.17 913.3 766.32C913.48 765.47 913.83 764.66 914.33 763.94C914.83 763.22 915.46 762.61 916.19 762.14C922.95 757.78 929.05 751.51 934.49 743.34C934.82 742.84 935.29 742.44 935.84 742.2C936.39 741.96 937 741.87 937.59 741.96C938.19 742.05 938.74 742.3 939.2 742.7C939.66 743.09 939.99 743.61 940.16 744.18L940.17 744.2Z" fill="black"/>
<path d="M887.66 790.31C887.82 790.12 888.02 789.97 888.25 789.87C888.48 789.78 888.73 789.74 888.98 789.77C889.23 789.8 889.47 789.89 889.67 790.04C889.88 790.18 890.04 790.38 890.16 790.6C897.42 805.16 886.11 820.78 872.84 826.89C868.75 828.78 862.52 822.65 860.77 819.39C860.64 819.14 860.56 818.87 860.54 818.59C860.52 818.31 860.54 818.03 860.64 817.76C861.44 815.45 862.5 813.75 863.82 812.66C866.78 810.21 871.54 806.45 878.09 801.38C879.01 800.65 879.86 799.82 880.61 798.91L887.67 790.31H887.66Z" fill="black"/>
<path d="M1505.45 490.25C1505.3 485.93 1501.55 482.54 1497.06 482.69C1492.56 482.84 1489.04 486.46 1489.18 490.79C1489.33 495.11 1493.08 498.5 1497.57 498.35C1502.07 498.2 1505.59 494.58 1505.45 490.25Z" fill="black"/>
<path d="M1528.41 413.75C1528.41 429.87 1514.57 442.94 1497.51 442.94C1480.45 442.94 1466.6 429.87 1466.6 413.75C1466.6 397.63 1480.44 384.56 1497.51 384.56C1514.58 384.56 1528.41 397.63 1528.41 413.75Z" fill="#553630"/>
<path d="M1625.21 519.76C1601.32 565.05 1547.81 583.75 1505.69 561.53C1463.58 539.31 1448.79 484.59 1472.68 439.3C1496.57 394.01 1550.08 375.31 1592.2 397.53C1634.32 419.75 1649.1 474.47 1625.21 519.76Z" fill="black"/>
<path d="M1536.19 441.7C1530.72 451.47 1518.91 455.27 1509.81 450.17C1500.71 445.08 1497.76 433.03 1503.22 423.26C1508.69 413.49 1520.5 409.69 1529.6 414.79C1538.7 419.88 1541.65 431.93 1536.19 441.7Z" fill="black"/>
<path d="M1725.72 24.0898C1727.89 24.6698 1729.52 27.5098 1730.59 32.6098C1735.33 55.0498 1740.17 76.0598 1761.1 89.1298C1768.02 93.4398 1777.46 96.1898 1784.22 99.5198C1786.28 100.53 1787.91 101.99 1789.1 103.9C1789.5 104.53 1789.66 105.29 1789.56 106.05C1789.03 109.88 1785.92 112.85 1780.26 114.94C1770.54 118.53 1760.53 121.76 1751.62 131.4C1738.18 145.94 1735.21 162.3 1730.97 181.89C1730.82 182.6 1730.14 184.07 1728.94 186.3C1728.54 187.05 1727.85 187.62 1727.02 187.88C1724.32 188.71 1721.43 188.91 1718.35 188.46C1718.04 188.42 1717.75 188.3 1717.49 188.12C1717.23 187.94 1717.01 187.7 1716.86 187.43C1714.02 182.3 1713.73 178.37 1711.62 167.86C1707.71 148.22 1697.37 133.14 1680.62 122.61C1673.1 117.89 1663.26 116.98 1657.4 110.44C1657.15 110.16 1656.97 109.84 1656.85 109.49C1656.73 109.14 1656.68 108.77 1656.72 108.4C1657.13 103.51 1659.12 100.42 1662.69 99.1298C1686.33 90.5798 1702.13 78.5598 1710.76 53.9798C1711.37 52.2598 1713.02 44.6598 1715.71 31.1798C1715.97 29.8398 1717.19 27.6898 1719.38 24.7398C1719.54 24.5298 1719.75 24.3498 1719.99 24.2298C1720.22 24.1098 1720.49 24.0498 1720.75 24.0498H1725.3C1725.44 24.0498 1725.58 24.0698 1725.72 24.0998V24.0898Z" fill="#FFC0CB"/>
<path d="M1564.38 141.1C1561.02 143.8 1557.52 145.13 1551.03 148.33C1538.56 154.48 1530.17 164.98 1526.42 178.53C1524.21 186.53 1522.61 198.58 1515.09 202.65C1514.54 202.95 1513.91 203.06 1513.29 202.95C1512.67 202.85 1512.1 202.54 1511.68 202.08C1505.29 195.11 1505.55 184.28 1503.47 176.88C1499.09 161.41 1489.18 151.76 1473.74 147.95C1471.98 147.53 1469.68 145.99 1466.83 143.33C1466.6 143.11 1466.41 142.84 1466.3 142.54C1466.18 142.24 1466.13 141.92 1466.15 141.6C1466.41 137.58 1468.33 134.84 1471.92 133.38C1488.69 126.48 1500.65 118.77 1505.77 100.74C1506.09 99.6198 1507.22 93.7998 1509.15 83.2998C1509.25 82.6998 1509.53 82.1298 1509.96 81.6898C1515.11 76.1598 1521.2 79.8998 1522.75 85.5498C1524.83 93.1798 1526.5 98.9398 1527.75 102.82C1532.88 118.84 1543.56 125.36 1558.13 131.54C1560.97 132.74 1563.3 134.85 1564.97 137.43C1565.34 138.01 1565.49 138.7 1565.38 139.38C1565.27 140.06 1564.92 140.67 1564.38 141.1Z" fill="#FFC0CB"/>
<path d="M96.2699 194.7C92.5799 191.92 90.4799 176.64 89.9699 174.06C86.7799 158.15 80.3199 146.2 67.8099 135.55C60.9899 129.75 51.9799 127.1 42.8099 124.27C42.1999 124.08 41.6499 123.71 41.2499 123.21C39.6699 121.2 38.6099 119.35 38.0599 117.66C37.6799 116.51 37.6899 115.27 38.0899 114.13C38.4899 112.99 39.2599 112.01 40.2799 111.36C40.7399 111.06 42.1599 110.38 44.5499 109.32C51.6899 106.11 60.9499 103.33 67.7099 98.33C77.8999 90.81 84.9599 81.06 88.9099 69.08C90.6999 63.67 91.7099 51.95 96.5999 41.34C96.8799 40.75 97.3499 40.29 97.9399 40.04C103.48 37.64 106.94 43.59 108.53 48.14C110.99 55.18 112.44 67.08 115.74 74.46C122.26 89.1 133.4 99.53 149.15 105.76C153.7 107.55 159.73 108.64 161.99 113.4C164.6 118.88 160.26 123.92 154.92 125.42C126.87 133.25 114.8 154.59 109.99 181.64C108.82 188.23 105.44 195.62 97.7699 195.25C97.2299 195.22 96.7099 195.03 96.2799 194.7H96.2699Z" fill="#FFC0CB"/>
<path d="M732.54 406.66C728.35 387.33 714.98 367.88 693.84 365.54C690.52 365.17 687.89 363.34 685.96 360.03C684.83 358.07 684.71 354.82 685.6 350.26C691.52 320.1 680.18 288.56 650.83 276.88C641.71 273.25 632.41 272.26 622.93 273.91C615.96 275.13 610.31 269.98 610.02 262.85C608.63 228.55 579.79 204.44 545.73 210.44C540.32 211.4 532.34 216.38 527.09 213.65C524.3 212.21 521.92 209.87 519.97 206.63C500.5 174.59 460.9 163.35 427.92 182.49C420.37 186.87 411.85 198.73 403.01 192.07C390.78 182.85 377.21 179.75 362.3 182.78C341.78 186.96 326.61 197.99 316.79 215.88C311.23 226.03 304.46 222.4 296.22 218.97C283.33 213.6 267.58 215.33 255.45 221.1C236.42 230.15 223.84 244.91 217.73 265.38C215.72 272.06 217.37 279.23 209.28 282.36C207.84 282.91 204.96 282.96 200.64 282.5C185.07 280.85 170.54 286.48 159.28 298.09C146.42 311.34 139.81 327.79 139.45 347.43C139.39 350.53 139.5 355.53 139.76 362.44C140.1 371.28 133.6 372.77 126.66 373.87C115.42 375.66 105.35 381.3 97.42 389.75C81.74 406.49 75.97 426.46 80.1 449.65C80.71 453.05 81.6 456.42 82.78 459.76C84.33 464.1 84.84 467.22 84.33 469.13C83.36 472.73 81.42 475.15 78.51 476.37C68.39 480.64 60.31 487.26 54.25 496.22C40.93 515.95 38.01 537.12 45.51 559.72C47.12 564.62 49.81 569.47 53.58 574.28C55.64 576.9 56.37 580.12 55.76 583.93C55.51 585.53 53.56 588.12 49.91 591.71C41.99 599.49 36.98 608.83 34.87 619.73C29.8 646.11 37.05 667.64 56.62 684.32C59.52 686.79 62.11 689.47 62.23 692.84C62.9 712.81 70.66 731.37 86.8 743.14C102.32 754.46 120.1 756.53 140.14 749.36C144.42 747.83 148.62 748.83 152.74 752.36C153.05 752.62 153.32 752.93 153.55 753.27C164.3 769.3 178.12 779.35 197.64 780.84C215.65 782.21 226.79 775.71 239.96 764.86C243.18 762.2 246.91 761.28 251.17 762.1C253.07 762.45 256.25 764.64 260.71 768.64C281.29 787.13 315.77 788.73 337.06 770.96C341.05 767.62 343.79 765.44 345.27 764.44C352.48 759.5 357.49 763.34 364.16 768.82C373.89 776.83 385.64 781.07 399.41 781.52C419.59 782.2 436.22 775.19 449.3 760.51C460 748.48 468.41 760.39 479.03 764.6C500.73 773.2 530.67 772.43 548.2 754.92C548.43 754.69 548.58 754.4 548.63 754.08C548.68 753.76 548.63 753.44 548.48 753.15C541.93 740.38 538.54 726.99 538.3 712.99C538.18 705.64 539.41 694.92 542.01 680.83C544.4 667.86 547.06 657.41 549.98 649.48C568.09 600.14 594.38 555.9 628.87 516.77C643.06 500.67 660.09 485.23 679.96 470.47C696.07 458.5 712.29 448.15 728.61 439.41C730.02 438.65 731.07 437.36 731.53 435.82C734.35 426.22 734.69 416.5 732.56 406.67L732.54 406.66ZM357.48 510.46C360.31 512.55 361.69 518.63 363.57 522.24C367.84 530.45 382.27 535.12 390.68 535.08C399.09 535.03 413.46 530.2 417.67 521.95C419.51 518.33 420.81 512.23 423.63 510.1C432.42 503.46 439.82 512.8 438.02 521.67C433.73 542.65 410.88 554.55 390.79 554.65C370.72 554.77 347.73 543.11 343.22 522.19C341.31 513.33 348.63 503.91 357.49 510.46H357.48ZM546.92 649.91C546.12 651.59 545.46 653.47 544.93 655.54C541.57 668.81 538.92 682.28 536.98 695.95C534.19 715.74 536.59 734.38 544.17 751.87C544.3 752.16 544.33 752.48 544.27 752.79C544.21 753.1 544.05 753.37 543.83 753.58C525.91 770.46 495.35 770.37 474.66 759.4C471.04 757.48 467.21 755.23 463.84 754.46C449.13 751.11 441.76 765.31 431.79 770.72C414.03 780.33 395.67 781.3 376.73 773.62C370.98 771.29 362.34 763.15 355.61 761.96C341.34 759.45 333.76 771.18 322.53 775.59C305.65 782.24 289.51 781.86 274.12 774.46C261.84 768.56 253.71 754.87 239.1 762.32C233.73 765.07 226.38 771.57 219.94 773.84C201.42 780.33 180.54 778.13 165.45 764.11C161.31 760.25 156.49 752.09 151.12 749.4C142.66 745.16 132.65 748.15 124.08 749.73C103.05 753.61 81.52 740.65 72.25 722.33C68.18 714.3 66.91 705.06 64.1 693.45C62.21 685.64 55.58 680.16 50.85 674.94C42.28 665.52 38.15 655.8 37.24 641.45C36.52 630.15 38.02 619.68 41.76 610.03C42.65 607.72 44.67 605.26 47.82 602.65C47.89 602.6 47.97 602.56 48.06 602.55C48.15 602.55 48.24 602.55 48.32 602.59C48.4 602.63 48.47 602.69 48.52 602.76C48.57 602.83 48.6 602.92 48.6 603.01C48.94 622.56 53.34 641.98 67.31 655.78C78.58 666.9 91.69 671.24 106.64 668.79C112.34 667.84 117.54 664.21 122.45 662.97C122.64 662.92 122.84 662.92 123.04 662.95C123.24 662.98 123.42 663.06 123.59 663.17C123.76 663.28 123.9 663.42 124.01 663.59C124.12 663.76 124.19 663.95 124.22 664.14C125.54 672.07 128.8 679.73 134.01 687.11C146.9 705.38 168.59 711.88 189.5 704.28C200.06 700.43 206.34 695.99 213.91 689.14C214.09 688.97 214.31 688.85 214.55 688.77C214.79 688.7 215.04 688.67 215.28 688.7C215.53 688.73 215.77 688.81 215.98 688.94C216.19 689.07 216.38 689.24 216.52 689.45C223.97 700.08 232.01 708.73 243.71 713.93C262.3 722.22 283.23 716.03 296.5 702.43C298.92 699.96 302.02 696.92 305.81 693.31C306.18 692.96 306.67 692.77 307.18 692.78C307.69 692.79 308.17 693.01 308.52 693.37C321.42 706.91 336.78 713.37 354.6 712.75C374.03 712.06 387.79 701.76 400.63 688.94C401.17 688.4 401.88 688.07 402.64 688C403.4 687.93 404.16 688.14 404.78 688.58C427.9 704.68 459.41 705.68 480.73 685.87C488.9 678.28 494.83 669.49 498.5 659.48C498.7 658.92 499.06 658.43 499.53 658.06C500 657.69 500.56 657.47 501.16 657.42C504.57 657.11 508.85 657.07 513.98 657.28C523.51 657.69 535.97 652.73 545.35 648.3C545.57 648.2 545.82 648.16 546.07 648.21C546.31 648.25 546.54 648.37 546.71 648.54C546.88 648.71 547 648.94 547.04 649.18C547.08 649.42 547.04 649.67 546.95 649.9L546.92 649.91ZM729.28 433.03C728.54 435.31 726.53 437.34 723.27 439.12C707.11 447.91 693.23 456.77 681.62 465.71C675.38 470.53 664.59 479.28 649.24 491.98C646.47 494.28 644.21 496.41 642.48 498.38C639.36 501.9 637.16 504.09 635.89 504.94C635.75 505.04 635.58 505.1 635.41 505.1C635.24 505.1 635.07 505.07 634.91 504.98C634.76 504.89 634.63 504.77 634.55 504.61C634.47 504.46 634.42 504.28 634.43 504.11C634.92 494.76 634.16 483.81 632.15 471.25C632.03 470.49 632.11 469.71 632.4 468.99C632.69 468.27 633.17 467.65 633.79 467.18C634.74 466.47 636.56 465.15 639.25 463.21C649.04 456.2 656.39 446.79 661.31 434.97C670.91 411.9 668.57 391.25 654.29 373.03C649.55 367 643.49 362.02 639.34 357.03C639.14 356.79 639.02 356.49 639.01 356.17C638.99 355.86 639.08 355.55 639.25 355.29C647.71 342.62 653.88 329.35 650.94 313.93C648.3 300 641.92 288.22 631.82 278.6C631.71 278.5 631.64 278.37 631.59 278.23C631.55 278.09 631.55 277.94 631.59 277.79C631.63 277.65 631.7 277.51 631.81 277.4C631.91 277.29 632.04 277.21 632.19 277.17C635.45 276.26 639.3 276.11 643.18 277.56C652.5 281.06 659.58 284.2 665.7 290.61C668.58 293.61 671.26 296.14 673.72 298.22C674.23 298.65 674.67 299.17 675.01 299.76C679.53 307.8 682.2 314.11 683.01 318.7C684.24 325.65 684.24 335.48 683.03 348.21C682.02 358.77 684.37 366.34 695.17 368.28C703.96 369.86 711.06 373.78 716.46 380.04C728.86 394.38 735.21 414.81 729.3 433L729.28 433.03Z" fill="black"/>
<path d="M228.33 458.83C261.46 466.38 285.87 466.67 302.34 465.01C318.75 463.35 327.38 459.78 329.89 458.99L334.5 473.74C332.43 474.39 322.18 478.54 303.89 480.38C285.67 482.22 259.57 481.8 224.89 473.9L228.32 458.83H228.33Z" fill="#553630"/>
<path d="M455.06 455.42C513.25 469.55 552.63 456.77 556.52 455.55L561.13 470.3C555.86 471.95 513.4 485.49 451.42 470.43L455.07 455.42H455.06Z" fill="#553630"/>
<path d="M613.45 390.43C584.73 390.43 580.41 384.48 580.41 376.36C580.41 367.84 585.94 361.07 600.64 344.17C610.08 332.81 613.18 329.29 613.18 327.94C613.18 326.59 612.51 326.05 611.29 326.05H591.6C584.18 326.05 581.76 322.53 581.76 316.72C581.76 306.98 586.35 301.7 615.2 301.7C644.05 301.7 648.37 306.16 648.37 316.99C648.37 326.32 643.11 333.63 627.74 349.72C618.03 360.81 616.14 362.57 616.14 364.06C616.14 365.28 616.95 365.82 618.16 365.82C623.69 365.82 630.97 365.69 638.12 365.69C645.27 365.69 647.69 369.34 647.69 375.16C647.69 385.04 642.97 390.45 613.44 390.45L613.45 390.43Z" fill="#FFC0CB"/>
<path d="M686.59 350.44C668.18 352.29 665.04 348.77 664.52 343.58C663.97 338.14 667.08 333.46 675.42 321.71C680.74 313.84 682.5 311.4 682.41 310.53C682.32 309.67 681.86 309.36 681.08 309.44C677.54 309.8 672.96 310.26 668.46 310.71C663.71 311.19 661.93 309.1 661.55 305.38C660.93 299.16 663.52 295.49 682.02 293.64C700.94 291.74 703.56 294.36 704.26 301.27C704.86 307.23 701.96 312.24 693.14 323.51C687.63 331.22 686.53 332.47 686.63 333.42C686.71 334.2 687.26 334.49 688.04 334.41C691.58 334.05 696.24 333.5 700.82 333.04C705.4 332.58 707.19 334.76 707.56 338.47C708.19 344.78 705.52 348.54 686.59 350.44Z" fill="#FFC0CB"/>
<path d="M735.88 323.68C719.34 321.14 717.37 317.35 718.09 312.69C718.84 307.8 722.62 304.4 732.57 295.99C739.01 290.3 741.1 288.55 741.22 287.78C741.34 287 741 286.63 740.3 286.53C737.12 286.04 733 285.41 728.96 284.79C724.69 284.14 723.6 281.9 724.11 278.56C724.97 272.97 728.07 270.34 744.69 272.89C761.7 275.5 763.41 278.38 762.45 284.59C761.63 289.95 757.96 293.68 747.69 301.57C741.12 307.08 739.88 307.92 739.75 308.78C739.64 309.48 740.06 309.86 740.76 309.97C743.94 310.46 748.15 311.02 752.27 311.65C756.39 312.28 757.46 314.59 756.95 317.93C756.08 323.6 752.89 326.29 735.88 323.68Z" fill="#FFC0CB"/>
<path d="M1011.21 499.35C986.33 505.3 967.92 510.54 955.97 515.08C953.26 516.11 943.58 520.54 926.92 528.37C915.55 533.7 906.12 538.61 898.61 543.08C876.31 556.37 856.11 571.1 837.99 587.29C831.22 593.34 825.46 599.02 820.7 604.32C811.28 614.83 798.14 626.84 788.39 640.37C780.08 651.93 772.62 663.46 766.02 674.95C758.06 688.79 750.96 702.02 744.7 714.66C736.79 730.61 730.95 748.45 726.07 762.52C724.15 768.06 723.17 772.48 723.15 775.77C723.15 776.05 723.05 776.33 722.87 776.54C722.69 776.76 722.44 776.9 722.16 776.95C715.55 778.13 708.38 777.99 700.67 776.54C700.55 776.52 700.43 776.46 700.34 776.38C700.25 776.3 700.18 776.18 700.15 776.06C700.12 775.94 700.12 775.81 700.16 775.68C700.2 775.56 700.27 775.45 700.37 775.37C701.57 774.35 702.4 773.21 702.86 771.95C707.32 759.81 711.14 748.64 714.29 738.44C717.45 728.19 722.19 719.55 726.65 709.41C741.57 675.49 762.31 643.45 786.21 613.63C792.53 605.74 798.04 599.66 802.74 595.38C811.17 587.67 816.77 581.29 824.96 574.73C832.72 568.52 843.35 558.28 852.81 551.69C869.6 539.98 880.15 532.85 884.45 530.3C899.74 521.23 919.6 511.36 944.04 500.67C950.75 497.74 967.16 491.92 993.3 483.21C979.83 473.05 966.43 464.69 953.11 458.14C953.01 458.16 952.91 458.17 952.81 458.19C942.81 453.1 930.46 447.7 915.76 442.69L915.71 442.82C909.9 442.63 885.42 447.72 851.95 465.55C845.72 468.5 839.59 471.75 833.54 475.34C824.61 480.64 812.58 486.88 801.14 493.92C793.26 498.78 786.55 504.91 777.93 511.22C764.78 520.89 748.14 536.37 740.14 544.37C726.52 558 712.35 573.66 697.63 591.36C691.16 599.14 684.88 608.06 678.78 618.11C673.14 627.38 665.27 640.15 655.17 656.43C647 669.6 639.86 688.98 634.1 701.65C629.53 711.69 624.92 724.01 620.25 738.63C619.43 741.19 619.13 744.01 619.36 747.08C619.38 747.3 619.33 747.52 619.22 747.71C619.11 747.9 618.95 748.06 618.75 748.16C618.55 748.26 618.33 748.31 618.11 748.29C617.89 748.27 617.67 748.19 617.49 748.05L602.78 736.48C602.45 736.22 602.21 735.87 602.1 735.46C601.99 735.06 602 734.63 602.15 734.24C608.87 716.13 612.24 707.04 612.26 706.96C621.91 680.93 633.73 656.24 647.71 632.86C651.01 627.35 654.55 621.86 658.35 616.36C663.62 608.72 667.5 601.3 672.81 594.52C680.12 585.22 688.66 572.03 697.57 562.06C704.83 553.96 709.26 547.83 716.64 541.39C726.12 533.1 735.3 522.45 744.92 514.3C771.92 491.38 800.88 471.7 831.81 455.28C836.18 452.96 843.2 449.95 852.86 446.25C861.93 442.77 871 438.73 880.09 434.13C874.41 432.56 868.55 431.73 862.49 431.64C838.6 431.25 819.3 432.42 804.58 435.14C795.56 436.81 788.15 438.66 782.35 440.68C771.13 444.62 756.87 450.52 739.57 458.4C720.95 466.87 702.14 479.26 683.14 495.57C657.2 517.85 633.71 541.65 615.48 568.14C592.98 600.85 576.25 636.35 565.28 674.63C563.3 681.54 561.78 689.52 560.71 698.55C557.93 722.07 563.49 742.22 577.4 759.01C583.58 766.47 592.43 773.91 603.96 781.33C634.33 800.87 669.75 814.17 704.87 820.59C715.88 822.6 726.43 822.94 736.65 822.27C754.54 821.09 770.29 814.57 783.9 802.72C799.78 788.89 814.22 772.15 827.23 752.49C845.44 725 863.69 699.63 881.98 676.38C899.77 653.78 921.06 635.86 945.86 622.64C961.16 614.49 978.82 607.3 998.82 601.08C1015.64 595.84 1038.66 588.5 1040.74 567.77C1043.21 543.01 1028.5 516.87 1011.21 499.32V499.35Z" fill="black"/>
</g>
<defs>
<clipPath id="clip0_2_618">
<rect width="1801" height="941.62" fill="white"/>
</clipPath>
</defs>
</svg>
