<svg width="1801" height="942" viewBox="0 0 1801 942" fill="none" xmlns="http://www.w3.org/2000/svg">
<g clip-path="url(#clip0_2_660)">
<path d="M953 454.5C948.03 455.47 949.34 451.04 945 449C932.51 443.15 925.72 445.79 922 444.5C921.46 444.31 913.71 445.62 913.17 445.73C884.6 451.57 858.33 460.61 833.55 475.34C824.62 480.64 812.59 486.88 801.15 493.92C793.27 498.78 786.56 504.91 777.94 511.22C764.79 520.89 748.15 536.37 740.15 544.37C726.53 558 712.36 573.66 697.64 591.36C691.17 599.14 684.89 608.06 678.79 618.11C673.15 627.38 665.28 640.15 655.18 656.43C647.01 669.6 639.87 688.98 634.11 701.65C629.54 711.69 624.93 724.01 620.26 738.63C619.44 741.19 619.14 744.01 619.37 747.08C619.39 747.3 619.34 747.52 619.23 747.71C619.12 747.9 618.96 748.06 618.76 748.16C618.56 748.26 618.34 748.31 618.11 748.29C617.89 748.27 617.67 748.19 617.5 748.05L602.79 736.48C602.46 736.22 602.22 735.87 602.11 735.47C602 735.07 602.01 734.64 602.16 734.25C608.88 716.14 612.25 707.05 612.27 706.97C621.92 680.94 633.74 656.24 647.72 632.87C651.02 627.36 654.56 621.86 658.36 616.37C663.63 608.73 667.51 601.31 672.82 594.53C680.13 585.22 688.67 572.04 697.58 562.06C704.84 553.96 709.27 547.83 716.65 541.39C726.13 533.1 735.31 522.45 744.93 514.3C771.93 491.38 800.89 471.7 831.82 455.28C836.19 452.96 843.21 449.95 852.87 446.25C861.93 442.77 871.01 438.73 880.1 434.13C888.38 434.37 897.66 436.22 907.95 439.68C923.4 444.88 934.34 447.4 949 454.5H953Z" fill="#553630"/>
<path d="M993.29 483.21L1011.21 499.35C986.33 505.3 967.92 510.54 955.97 515.08C953.26 516.11 943.58 520.54 926.92 528.37C915.56 533.7 906.12 538.61 898.61 543.08C876.31 556.37 856.11 571.1 837.99 587.29C831.22 593.35 825.46 599.02 820.7 604.32C811.27 614.83 798.14 626.84 788.39 640.37C780.08 651.93 772.62 663.46 766.02 674.95C758.06 688.79 750.96 702.02 744.7 714.66C736.79 730.61 730.95 748.45 726.07 762.52C724.15 768.06 723.17 772.48 723.15 775.77C723.15 776.05 723.05 776.33 722.87 776.54C722.69 776.76 722.44 776.9 722.16 776.95C715.54 778.13 708.38 777.99 700.67 776.54C700.55 776.52 700.43 776.46 700.34 776.38C700.25 776.3 700.18 776.18 700.15 776.06C700.12 775.94 700.12 775.81 700.17 775.68C700.21 775.56 700.28 775.45 700.38 775.37C701.58 774.35 702.41 773.21 702.87 771.95C707.33 759.81 711.15 748.64 714.3 738.44C717.46 728.19 722.2 719.56 726.66 709.41C741.58 675.49 762.32 643.45 786.21 613.63C792.53 605.74 798.04 599.66 802.74 595.38C811.17 587.67 816.77 581.29 824.96 574.73C832.72 568.52 843.35 558.28 852.81 551.69C869.6 539.98 880.15 532.85 884.45 530.3C899.74 521.23 919.6 511.36 944.04 500.67C950.75 497.74 967.16 491.92 993.3 483.21H993.29Z" fill="#553630"/>
<path d="M390.78 554.65C370.71 554.77 347.72 543.11 343.21 522.18C341.3 513.32 348.62 503.9 357.48 510.45C360.31 512.54 361.69 518.62 363.58 522.23C367.85 530.44 382.28 535.11 390.69 535.07C399.1 535.02 413.47 530.19 417.68 521.94C419.52 518.32 420.82 512.22 423.64 510.09C432.43 503.45 439.83 512.79 438.03 521.66C433.74 542.64 410.89 554.54 390.8 554.64L390.78 554.65Z" fill="#553630"/>
<path d="M1741.8 693.69C1741.81 694.32 1741.86 694.66 1741.95 694.7C1742.33 694.85 1742.74 694.87 1743.13 694.76C1743.52 694.64 1743.85 694.4 1744.08 694.07L1749.06 686.84C1749.37 686.39 1749.84 686.08 1750.38 685.97C1750.91 685.86 1751.47 685.97 1751.92 686.27C1761.02 692.19 1768.09 697.01 1773.13 700.73C1776.97 703.57 1781.77 709.07 1787.51 717.25C1795.31 728.29 1795.84 742.52 1789.92 754.74C1783.89 767.15 1770.79 776.03 1759.19 782.72C1738.2 794.83 1715.48 804.28 1691.03 811.08C1669.63 817.03 1649 821.59 1629.14 824.75C1602.98 828.9 1575.1 830.87 1545.51 830.66C1536.61 830.6 1529.93 830.31 1525.48 829.78C1516.35 828.7 1508.72 829.16 1498.78 827.74C1479.36 824.95 1466.14 822.89 1459.11 821.58C1445.79 819.09 1426.59 814.75 1410.32 808.99C1395.4 803.69 1386.08 800.32 1382.33 798.86C1365.78 792.43 1349.98 784.46 1334.93 774.95C1328.15 770.67 1322.31 765.96 1317.44 760.82C1317.15 760.52 1316.79 760.28 1316.39 760.14C1316 759.99 1315.58 759.94 1315.16 759.98C1314.74 760.02 1314.33 760.16 1313.98 760.38C1313.62 760.6 1313.32 760.91 1313.09 761.26C1306.19 772.33 1297.18 779.13 1285.83 787.51C1280.94 791.1 1275.54 794.41 1269.63 797.42C1252.41 806.18 1234.87 812.96 1216.99 817.78C1208.81 819.98 1196.63 822.83 1180.47 826.33C1176.87 827.11 1166.02 828.49 1147.92 830.47C1136.2 831.75 1125.29 832.44 1115.2 832.53C1088.73 832.78 1067.35 831.96 1051.06 830.06C1047.28 829.63 1043.9 829.42 1040.91 829.46C1040.44 829.46 1039.99 829.63 1039.62 829.91C1039.24 830.2 1038.98 830.6 1038.85 831.05C1036.27 840.28 1031.92 848.38 1025.82 855.38C1018.17 864.16 1007.39 873.26 993.5 882.68C976.96 893.92 957.04 904.05 933.74 913.08C902.23 925.29 869.71 933.37 836.19 937.32C799.12 941.68 765.68 942.72 735.88 940.44C702.56 937.9 671.57 933.12 642.9 926.1C628.01 922.45 607.42 915.2 581.13 904.35C565.78 898.02 549.63 888.87 536.94 880.26C531.8 876.77 525.29 871.47 517.42 864.36C512.92 860.31 509.38 856.06 506.79 851.62C506.35 850.86 505.69 850.24 504.9 849.84C504.11 849.44 503.23 849.28 502.36 849.37C496.75 849.95 487.16 850.98 473.59 852.46C412.96 859.02 351.39 860.69 288.86 857.49C272.12 856.63 261.29 856.58 246.82 855.17C211.83 851.78 182.44 847.86 158.63 843.41C130.1 838.08 102.57 830.73 76.0401 821.37C56.1101 814.35 38.2501 804.92 22.4401 793.06C16.1001 788.32 8.55007 781.7 4.83007 774.78C-2.23993 761.63 -1.51993 748.88 7.01007 736.55C14.5101 725.7 25.1001 716.17 38.7901 707.95C38.8601 707.91 38.9301 707.89 39.0101 707.88C39.0901 707.88 39.1701 707.88 39.2401 707.91C39.3101 707.94 39.3801 707.98 39.4301 708.04C39.4801 708.1 39.5201 708.16 39.5501 708.24L46.7601 732.1C46.9701 732.8 47.4301 733.39 48.0601 733.77C49.1701 734.43 50.4501 734.8 51.9101 734.87C68.9201 766.7 103.55 781.46 138.66 772.52C139.09 772.41 139.54 772.41 139.98 772.52C140.41 772.63 140.81 772.85 141.14 773.16C144.59 776.4 148.28 780.85 152.78 784.51C164.97 794.45 178.05 800.55 194.76 801.66C214.02 802.93 231.81 799.36 246.04 786.31C246.33 786.04 246.7 785.88 247.1 785.87C247.49 785.85 247.88 785.98 248.19 786.23C277.79 809.84 320.64 811.14 350.97 787.71C351.28 787.48 351.65 787.34 352.04 787.33C352.43 787.32 352.81 787.43 353.14 787.64C371.49 800 391.49 804.89 413.16 802.32C432.51 800.04 445.52 793.41 459.31 780.21C459.68 779.86 460.14 779.63 460.65 779.57C461.15 779.5 461.67 779.6 462.11 779.85C479.36 789.46 498.77 793.03 520.34 790.56C534.97 788.89 548.56 782.68 560.12 773.61C560.26 773.5 560.43 773.41 560.61 773.37C560.79 773.33 560.97 773.32 561.16 773.36C561.34 773.39 561.51 773.47 561.66 773.58C561.81 773.69 561.94 773.83 562.03 773.99C563.03 775.79 563.52 777.4 563.52 778.83C563.5 788.17 563.73 795.47 564.21 800.72C565.72 817.34 572.79 834.3 584.83 847.13C597.93 861.12 614.51 869.28 634.55 871.61C634.94 871.65 635.32 871.78 635.66 871.99C636 872.2 636.29 872.47 636.52 872.8C650.52 893.39 670.22 904.03 695.61 904.71C699.57 904.81 704.58 904.64 710.65 904.18C711.9 904.09 713.14 904.4 714.19 905.06C735.44 918.23 756.58 924.17 781.21 917.04C783.72 916.32 786.36 916.15 788.95 916.56C793.79 917.33 800.74 918.96 805.83 919.15C832.86 920.23 854.7 910.25 871.34 889.21C871.99 888.39 872.94 887.85 873.98 887.72C900.44 884.53 921.22 872.29 936.32 851C939.75 846.16 942.52 840.42 945.76 835.84C946.26 835.13 947 834.63 947.85 834.43C974.6 828.18 993.39 811.84 1004.23 785.42C1004.46 784.85 1004.82 784.34 1005.26 783.92C1005.71 783.5 1006.24 783.19 1006.82 783C1020.55 778.55 1031.47 769.95 1039.58 757.21C1039.68 757.05 1039.82 756.91 1039.98 756.81C1040.14 756.71 1040.32 756.64 1040.51 756.61C1040.69 756.58 1040.89 756.59 1041.07 756.64C1041.25 756.69 1041.43 756.78 1041.57 756.9C1056.15 769.09 1076.77 778 1095.98 775.24C1100.59 774.59 1105.09 773.83 1109.49 772.97C1110.48 772.78 1111.5 772.93 1112.39 773.4C1112.64 773.54 1114.7 774.68 1118.55 776.83C1143.15 790.59 1167.24 790.87 1190.83 777.69C1200.63 772.21 1208.22 764.85 1215.23 755.68C1215.57 755.23 1216.01 754.86 1216.51 754.6C1217.02 754.34 1217.58 754.2 1218.14 754.18C1222.39 754.08 1227.03 753.69 1232.07 753.01C1251.33 750.4 1268.33 736.73 1278.68 720.61C1289.86 703.22 1295.35 684.09 1295.16 663.22C1295.16 662.96 1295.25 662.72 1295.43 662.53C1295.61 662.34 1295.86 662.23 1296.12 662.23C1309.95 661.88 1321.65 657.29 1331.23 648.48C1331.37 648.36 1331.54 648.27 1331.72 648.22C1331.9 648.17 1332.09 648.17 1332.28 648.22C1332.46 648.26 1332.63 648.35 1332.77 648.47C1332.91 648.59 1333.02 648.75 1333.08 648.92C1341.69 670.94 1353.21 691.53 1367.64 710.67C1395.68 747.86 1432.31 773.16 1477.53 786.59C1499.84 793.2 1522.75 796.64 1546.26 796.91C1571.86 797.19 1599.26 791.76 1623.63 783.67C1672.82 767.36 1711.84 735.72 1741.84 693.71L1741.8 693.69Z" fill="black" fill-opacity="0.3"/>
<path d="M1725.72 24.0898C1727.89 24.6698 1729.52 27.5098 1730.59 32.6098C1735.33 55.0498 1740.17 76.0598 1761.1 89.1298C1768.02 93.4398 1777.46 96.1898 1784.22 99.5198C1786.28 100.53 1787.91 101.99 1789.1 103.9C1789.5 104.53 1789.66 105.29 1789.56 106.05C1789.03 109.88 1785.92 112.85 1780.26 114.94C1770.54 118.53 1760.53 121.76 1751.62 131.4C1738.18 145.94 1735.21 162.3 1730.97 181.89C1730.82 182.6 1730.14 184.07 1728.94 186.3C1728.54 187.05 1727.85 187.62 1727.02 187.88C1724.32 188.71 1721.43 188.91 1718.35 188.46C1718.04 188.42 1717.75 188.3 1717.49 188.12C1717.23 187.94 1717.01 187.7 1716.86 187.43C1714.02 182.3 1713.73 178.37 1711.62 167.86C1707.71 148.22 1697.37 133.14 1680.62 122.61C1673.1 117.89 1663.26 116.98 1657.4 110.44C1657.15 110.16 1656.97 109.84 1656.85 109.49C1656.73 109.14 1656.68 108.77 1656.72 108.4C1657.13 103.51 1659.12 100.42 1662.69 99.1298C1686.33 90.5798 1702.13 78.5598 1710.76 53.9798C1711.37 52.2598 1713.02 44.6598 1715.71 31.1798C1715.97 29.8398 1717.19 27.6898 1719.38 24.7398C1719.54 24.5298 1719.75 24.3498 1719.99 24.2298C1720.22 24.1098 1720.49 24.0498 1720.75 24.0498H1725.3C1725.44 24.0498 1725.58 24.0698 1725.72 24.0998V24.0898Z" fill="#FFC0CB"/>
<path d="M1564.38 141.1C1561.02 143.8 1557.52 145.13 1551.03 148.33C1538.56 154.48 1530.17 164.98 1526.42 178.53C1524.21 186.53 1522.61 198.58 1515.09 202.65C1514.54 202.95 1513.91 203.06 1513.29 202.95C1512.67 202.85 1512.1 202.54 1511.68 202.08C1505.29 195.11 1505.55 184.28 1503.47 176.88C1499.09 161.41 1489.18 151.76 1473.74 147.95C1471.98 147.53 1469.68 145.99 1466.83 143.33C1466.6 143.11 1466.41 142.84 1466.3 142.54C1466.18 142.24 1466.13 141.92 1466.15 141.6C1466.41 137.58 1468.33 134.84 1471.92 133.38C1488.69 126.48 1500.65 118.77 1505.77 100.74C1506.09 99.6198 1507.22 93.7998 1509.15 83.2998C1509.25 82.6998 1509.53 82.1298 1509.96 81.6898C1515.11 76.1598 1521.2 79.8998 1522.75 85.5498C1524.83 93.1798 1526.5 98.9398 1527.75 102.82C1532.88 118.84 1543.56 125.36 1558.13 131.54C1560.97 132.74 1563.3 134.85 1564.97 137.43C1565.34 138.01 1565.49 138.7 1565.38 139.38C1565.27 140.06 1564.92 140.67 1564.38 141.1Z" fill="#FFC0CB"/>
<path d="M96.2699 194.7C92.5799 191.92 90.4799 176.64 89.9699 174.06C86.7799 158.15 80.3199 146.2 67.8099 135.55C60.9899 129.75 51.9799 127.1 42.8099 124.27C42.1999 124.08 41.6499 123.71 41.2499 123.21C39.6699 121.2 38.6099 119.35 38.0599 117.66C37.6799 116.51 37.6899 115.27 38.0899 114.13C38.4899 112.99 39.2599 112.01 40.2799 111.36C40.7399 111.06 42.1599 110.38 44.5499 109.32C51.6899 106.11 60.9499 103.33 67.7099 98.33C77.8999 90.81 84.9599 81.06 88.9099 69.08C90.6999 63.67 91.7099 51.95 96.5999 41.34C96.8799 40.75 97.3499 40.29 97.9399 40.04C103.48 37.64 106.94 43.59 108.53 48.14C110.99 55.18 112.44 67.08 115.74 74.46C122.26 89.1 133.4 99.53 149.15 105.76C153.7 107.55 159.73 108.64 161.99 113.4C164.6 118.88 160.26 123.92 154.92 125.42C126.87 133.25 114.8 154.59 109.99 181.64C108.82 188.23 105.44 195.62 97.7699 195.25C97.2299 195.22 96.7099 195.03 96.2799 194.7H96.2699Z" fill="#FFC0CB"/>
<path d="M228.33 458.83C261.46 466.38 285.87 466.67 302.34 465.01C318.75 463.35 327.38 459.78 329.89 458.99L334.5 473.74C332.43 474.39 322.18 478.54 303.89 480.38C285.67 482.22 259.57 481.8 224.89 473.9L228.32 458.83H228.33Z" fill="#553630"/>
<path d="M455.06 455.42C513.25 469.55 552.63 456.77 556.52 455.55L561.13 470.3C555.86 471.95 513.4 485.49 451.42 470.43L455.07 455.42H455.06Z" fill="#553630"/>
<path d="M613.45 390.43C584.73 390.43 580.41 384.48 580.41 376.36C580.41 367.84 585.94 361.07 600.64 344.17C610.08 332.81 613.18 329.29 613.18 327.94C613.18 326.59 612.51 326.05 611.29 326.05H591.6C584.18 326.05 581.76 322.53 581.76 316.72C581.76 306.98 586.35 301.7 615.2 301.7C644.05 301.7 648.37 306.16 648.37 316.99C648.37 326.32 643.11 333.63 627.74 349.72C618.03 360.81 616.14 362.57 616.14 364.06C616.14 365.28 616.95 365.82 618.16 365.82C623.69 365.82 630.97 365.69 638.12 365.69C645.27 365.69 647.69 369.34 647.69 375.16C647.69 385.04 642.97 390.45 613.44 390.45L613.45 390.43Z" fill="#FFC0CB"/>
<path d="M686.59 350.44C668.18 352.29 665.04 348.77 664.52 343.58C663.97 338.14 667.08 333.46 675.42 321.71C680.74 313.84 682.5 311.4 682.41 310.53C682.32 309.67 681.86 309.36 681.08 309.44C677.54 309.8 672.96 310.26 668.46 310.71C663.71 311.19 661.93 309.1 661.55 305.38C660.93 299.16 663.52 295.49 682.02 293.64C700.94 291.74 703.56 294.36 704.26 301.27C704.86 307.23 701.96 312.24 693.14 323.51C687.63 331.22 686.53 332.47 686.63 333.42C686.71 334.2 687.26 334.49 688.04 334.41C691.58 334.05 696.24 333.5 700.82 333.04C705.4 332.58 707.19 334.76 707.56 338.47C708.19 344.78 705.52 348.54 686.59 350.44Z" fill="#FFC0CB"/>
<path d="M735.88 323.68C719.34 321.14 717.37 317.35 718.09 312.69C718.84 307.8 722.62 304.4 732.57 295.99C739.01 290.3 741.1 288.55 741.22 287.78C741.34 287 741 286.63 740.3 286.53C737.12 286.04 733 285.41 728.96 284.79C724.69 284.14 723.6 281.9 724.11 278.56C724.97 272.97 728.07 270.34 744.69 272.89C761.7 275.5 763.41 278.38 762.45 284.59C761.63 289.95 757.96 293.68 747.69 301.57C741.12 307.08 739.88 307.92 739.75 308.78C739.64 309.48 740.06 309.86 740.76 309.97C743.94 310.46 748.15 311.02 752.27 311.65C756.39 312.28 757.46 314.59 756.95 317.93C756.08 323.6 752.89 326.29 735.88 323.68Z" fill="#FFC0CB"/>
<path d="M1495.09 366.06C1525.53 344.67 1562.32 334.97 1597.38 339.1C1632.44 343.23 1662.88 360.851 1682.02 388.081C1701.16 415.31 1707.42 449.93 1699.43 484.31C1691.44 518.69 1669.85 550.03 1639.41 571.42C1608.97 592.81 1572.18 602.51 1537.12 598.38C1502.07 594.25 1471.62 576.63 1452.48 549.4C1433.34 522.17 1427.08 487.56 1435.07 453.17C1443.06 418.791 1464.65 387.45 1495.09 366.06ZM1592.2 397.53C1550.08 375.31 1496.57 394.01 1472.68 439.3C1448.79 484.59 1463.58 539.31 1505.69 561.53C1547.81 583.75 1601.32 565.05 1625.21 519.76C1649.1 474.47 1634.32 419.75 1592.2 397.53Z" fill="#553630"/>
<path d="M1741.8 693.69C1711.8 735.7 1672.78 767.34 1623.59 783.65C1599.22 791.74 1571.82 797.16 1546.22 796.89C1522.71 796.63 1499.8 793.19 1477.49 786.57C1432.27 773.15 1395.64 747.84 1367.6 710.65C1353.17 691.5 1341.65 670.92 1333.04 648.9C1332.98 648.73 1332.87 648.57 1332.73 648.45C1332.59 648.33 1332.42 648.24 1332.24 648.2C1332.05 648.16 1331.86 648.16 1331.68 648.2C1331.5 648.25 1331.33 648.34 1331.19 648.46C1321.61 657.27 1309.91 661.86 1296.08 662.21C1295.82 662.21 1295.57 662.33 1295.39 662.51C1295.21 662.7 1295.12 662.94 1295.12 663.2C1295.31 684.08 1289.82 703.21 1278.64 720.59C1268.29 736.71 1251.29 750.38 1232.03 752.99C1226.99 753.66 1222.35 754.06 1218.1 754.16C1217.54 754.18 1216.98 754.32 1216.47 754.58C1215.97 754.84 1215.53 755.21 1215.19 755.66C1208.18 764.83 1200.59 772.19 1190.79 777.67C1167.2 790.85 1143.11 790.57 1118.51 776.81C1114.66 774.66 1112.6 773.51 1112.35 773.38C1111.46 772.91 1110.44 772.76 1109.45 772.95C1105.05 773.81 1100.55 774.56 1095.94 775.22C1076.73 777.98 1056.11 769.07 1041.53 756.89C1041.39 756.77 1041.21 756.68 1041.03 756.63C1040.85 756.58 1040.65 756.57 1040.47 756.6C1040.28 756.63 1040.1 756.7 1039.94 756.8C1039.78 756.9 1039.64 757.04 1039.54 757.2C1031.43 769.94 1020.51 778.53 1006.78 782.99C1006.2 783.18 1005.67 783.49 1005.22 783.91C1004.77 784.33 1004.42 784.84 1004.19 785.41C993.35 811.84 974.56 828.18 947.81 834.42C946.96 834.62 946.21 835.12 945.71 835.83C942.47 840.41 939.7 846.15 936.27 850.99C921.17 872.28 900.39 884.52 873.93 887.71C872.88 887.84 871.93 888.38 871.29 889.2C854.65 910.24 832.81 920.22 805.78 919.14C800.7 918.95 793.75 917.32 788.9 916.55C786.31 916.14 783.67 916.31 781.16 917.03C756.52 924.15 735.39 918.21 714.14 905.05C713.09 904.39 711.85 904.09 710.6 904.17C704.53 904.63 699.52 904.81 695.56 904.7C670.16 904.01 650.47 893.37 636.47 872.79C636.24 872.46 635.95 872.18 635.61 871.98C635.27 871.77 634.89 871.65 634.5 871.6C614.46 869.26 597.89 861.1 584.78 847.12C572.74 834.29 565.67 817.33 564.16 800.71C563.68 795.46 563.45 788.16 563.47 778.82C563.47 777.39 562.97 775.78 561.98 773.98C561.89 773.82 561.76 773.68 561.61 773.57C561.46 773.46 561.29 773.39 561.11 773.35C560.93 773.31 560.74 773.32 560.57 773.36C560.39 773.4 560.22 773.48 560.08 773.6C548.53 782.66 534.93 788.88 520.3 790.54C498.73 793.01 479.32 789.44 462.07 779.83C461.63 779.58 461.11 779.48 460.61 779.55C460.11 779.62 459.64 779.84 459.27 780.19C445.48 793.39 432.47 800.02 413.12 802.3C391.45 804.88 371.45 799.98 353.1 787.62C352.78 787.4 352.39 787.3 352 787.31C351.61 787.32 351.24 787.46 350.93 787.69C320.59 811.12 277.74 809.82 248.15 786.21C247.84 785.97 247.45 785.84 247.06 785.86C246.67 785.88 246.29 786.03 246 786.3C231.77 799.35 213.98 802.92 194.72 801.65C178.02 800.53 164.93 794.44 152.74 784.5C148.24 780.84 144.55 776.4 141.1 773.15C140.77 772.85 140.38 772.63 139.94 772.51C139.51 772.4 139.06 772.4 138.62 772.51C103.51 781.46 68.8798 766.69 51.8698 734.86C46.1898 724.54 42.8998 713.71 41.9998 702.4C41.8898 701.11 41.2898 699.91 40.3298 699.05C26.4398 686.5 17.4998 670.58 13.5098 651.31C12.5098 646.52 12.0398 639.73 12.0998 630.97C12.2398 612.31 18.9198 594.71 30.1898 580.57C30.4398 580.26 30.5898 579.89 30.6298 579.5C30.6698 579.11 30.5998 578.72 30.4198 578.37C9.34982 537.58 21.7198 488.87 58.3698 461.73C58.8698 461.36 59.2398 460.86 59.4598 460.28C59.6698 459.7 59.7098 459.07 59.5798 458.47C51.4398 423.34 64.3998 386.93 92.9698 365.06C100.22 359.51 108.13 355.62 116.71 353.39C117.08 353.29 117.41 353.07 117.65 352.76C117.88 352.45 118.01 352.08 118 351.69C117.63 329.81 123.53 310.21 135.7 292.89C150.38 272 170.4 261.19 195.75 260.46C196.01 260.45 196.25 260.36 196.45 260.21C196.65 260.06 196.8 259.84 196.86 259.6C203.36 237 216.76 219.31 237.05 206.55C256.68 194.19 277.78 191.02 300.36 197.04C300.84 197.17 301.34 197.15 301.81 196.99C302.27 196.83 302.68 196.54 302.97 196.15C326.1 165.32 372.33 148.13 407.9 168.92C408.13 169.05 408.39 169.11 408.66 169.1C408.92 169.09 409.18 169 409.39 168.85C434.8 151.16 461.53 146.85 489.58 155.92C507.71 161.79 524.65 173.89 534.97 189.86C535.14 190.12 535.4 190.32 535.69 190.43C535.98 190.53 536.3 190.54 536.6 190.45C578.78 177.18 623.68 208.55 630.13 251.46C630.16 251.66 630.27 251.84 630.42 251.97C630.57 252.1 630.77 252.18 630.97 252.18C658.64 251.96 681.89 265.09 696.24 288.75C705.99 304.8 709.95 323.18 708.1 343.89C708.06 344.31 708.16 344.74 708.38 345.1C708.6 345.46 708.93 345.75 709.32 345.91C740.6 358.92 757.22 394.01 755.23 426.6C755.23 426.7 755.25 426.8 755.29 426.89C755.33 426.98 755.4 427.05 755.47 427.11C755.55 427.17 755.64 427.2 755.74 427.21C755.84 427.22 755.93 427.21 756.02 427.17C790.64 413.17 827.54 407.54 866.72 410.28C866.81 410.28 866.9 410.26 866.98 410.22C867.06 410.18 867.12 410.11 867.16 410.03C867.2 409.95 867.22 409.86 867.22 409.77C867.22 409.68 867.18 409.59 867.13 409.52C848.01 383.15 843.39 346.19 860.31 317.38C860.53 317.02 860.63 316.6 860.59 316.18C860.56 315.76 860.39 315.36 860.12 315.03C843.3 295.17 836.7 264.01 847.54 239.99C847.6 239.87 847.62 239.73 847.62 239.59C847.62 239.45 847.59 239.32 847.53 239.19C847.47 239.07 847.39 238.95 847.28 238.86C847.17 238.77 847.05 238.7 846.92 238.66C828.1 233.45 809.91 225.84 792.34 215.83C776.34 206.71 763.39 198.51 752.8 185.39C741.98 171.98 735.68 152.46 747.15 137.73C759.55 121.83 785.54 123.5 803.39 127.65C803.53 127.68 803.68 127.67 803.81 127.62C803.94 127.57 804.06 127.48 804.14 127.36C804.22 127.24 804.27 127.11 804.28 126.96C804.28 126.82 804.25 126.68 804.18 126.55C796.03 112.93 790.37 98.2801 787.2 82.6001C783.59 64.7801 786.05 39.4401 801.91 27.1101C831.95 3.81008 865.64 40.0401 880.8 63.2701C880.89 63.4001 881.01 63.5001 881.16 63.5701C881.31 63.6301 881.47 63.6501 881.62 63.6201C881.78 63.5901 881.92 63.5201 882.03 63.4101C882.14 63.3001 882.22 63.1601 882.26 63.0001C885.09 49.9201 889.44 37.2401 895.33 24.9701C901.15 12.8201 911.19 2.43008 924.77 0.400077C945.7 -2.71992 960.22 12.1901 968.15 30.1201C977.95 52.2701 979.58 79.0301 976.98 103.17C974.4 126.9 968.89 149.27 960.45 170.28C960.41 170.38 960.39 170.49 960.4 170.6C960.4 170.71 960.44 170.81 960.5 170.9C960.56 170.99 960.63 171.07 960.73 171.13C960.82 171.19 960.93 171.22 961.03 171.23C967.51 171.73 973.53 173.26 979.11 175.81C1001.94 186.3 1019.28 206.44 1022.27 231.81C1022.31 232.12 1022.44 232.4 1022.66 232.62C1022.87 232.84 1023.15 232.98 1023.46 233.03C1038.33 235.11 1051.89 241 1064.13 250.69C1086.49 268.43 1098.94 291.86 1101.48 320.98C1101.52 321.35 1101.69 321.69 1101.96 321.94C1102.23 322.19 1102.58 322.32 1102.94 322.32H1113.88C1114.13 322.32 1114.37 322.24 1114.56 322.08C1114.75 321.92 1114.88 321.7 1114.93 321.46C1116.25 314.57 1117.52 309.79 1118.74 307.11C1126.58 289.69 1140.25 270.73 1156.58 261.12C1171.31 252.42 1188.16 248.76 1207.15 250.13C1242.24 252.65 1262.83 287.71 1263.62 320.02C1263.62 320.09 1263.64 320.17 1263.68 320.23C1263.72 320.29 1263.78 320.34 1263.85 320.37C1263.92 320.4 1264 320.41 1264.07 320.4C1264.14 320.39 1264.21 320.36 1264.27 320.31C1269.27 316.04 1275.05 312.1 1281.61 308.5C1293.42 302.03 1305.03 296.48 1318.25 296.58C1340.79 296.74 1358.88 314.56 1365.51 334.85C1371.52 353.32 1372.63 372.39 1368.84 392.04C1368.81 392.22 1368.83 392.4 1368.92 392.56C1369 392.72 1369.14 392.85 1369.31 392.92C1369.48 392.99 1369.66 393 1369.84 392.95C1370.01 392.9 1370.16 392.79 1370.27 392.64C1396.42 354.93 1428.77 323.74 1467.33 299.09C1513.03 269.87 1563.34 256.19 1618.26 258.06C1652.92 259.24 1684 268.3 1711.5 285.25C1751.86 310.16 1779.55 351.76 1791.43 397.77C1800.84 434.17 1802.04 470.79 1800.24 508.26C1798.74 539.39 1793.47 570.66 1784.43 602.07C1774.88 635.22 1760.65 665.75 1741.75 693.68L1741.8 693.69ZM864.07 180.01C862.06 182.85 859.07 183.71 855.11 182.59C846.16 177.97 841.34 169.52 833.48 165.32C815.47 155.66 797.58 147.17 777.19 148.46C769.53 148.94 762.32 151.33 764.43 160.34C765.22 163.74 766.99 167.03 769.73 170.21C772.36 174.12 774.88 177.04 777.28 178.97C798 195.51 821.15 207.53 846.74 215.02C853.41 216.98 860.14 218.8 866.91 220.48C867.7 220.68 868.46 221.03 869.14 221.49L872.3 223.67C878.02 228.49 876.44 236.34 872.68 241.73C868.07 246.79 865.32 252.29 864.42 258.24C862.24 272.83 866.36 292.71 878.67 302.55C882.64 305.72 885.17 307.9 886.24 309.07C889.88 313 891.12 318.68 886.93 322.53C884.41 324.85 880.97 327.01 878.86 329.88C874.12 336.28 871.59 344.31 871.26 353.97C870.74 369.44 874.78 383.19 883.36 395.21C890.47 405.15 902.95 414.75 913.49 418.33C929.96 423.94 942.49 428.72 951.07 432.68C972.16 442.42 992.15 454.9 1011.02 470.12C1023.39 480.09 1034.31 492.19 1043.8 506.41C1060.74 531.78 1070.79 570.21 1049.94 595.99C1049.7 596.3 1049.56 596.68 1049.56 597.07C1049.56 597.46 1049.7 597.85 1049.94 598.15C1058.37 608.42 1063.61 621.16 1064.23 634.92C1065.19 656.26 1061.64 674.94 1049.63 693.1C1049.11 693.89 1048.75 694.78 1048.58 695.72C1048.41 696.65 1048.42 697.62 1048.62 698.55C1050.89 708.87 1051.32 719.58 1049.93 730.65C1049.41 734.84 1049.86 735.64 1052.64 738.34C1064.57 749.89 1081.26 757.24 1097.74 753.46C1099.11 753.15 1102.84 751.95 1108.93 749.87C1109.53 749.67 1110.17 749.58 1110.8 749.61C1117.86 750 1124.69 756.19 1128.71 758.49C1150.87 771.19 1177.6 767.73 1194.6 748.15C1197.43 744.9 1200.38 741.27 1203.44 737.26C1205.69 734.34 1208.64 732.81 1212.3 732.66C1220.61 732.32 1227.17 733.04 1235.03 730.62C1245.28 727.48 1253.78 720.72 1260.54 710.31C1271.6 693.35 1278.6 669.73 1270.12 651.37C1268.77 648.45 1267.87 645.17 1268.96 642.67C1273.08 633.15 1276.24 624.72 1278.45 617.4C1284.75 596.49 1279.34 574.7 1271.19 555.01C1265.87 542.17 1258.14 530.87 1246.38 524.11C1245.82 523.79 1245.23 523.53 1244.61 523.34C1240.18 521.95 1237.42 520.58 1236.34 519.22C1234.04 516.36 1232.94 513.86 1233.04 511.72C1233.52 501.6 1233.47 492.32 1232.89 483.87C1232.79 482.6 1232.26 480.73 1231.29 478.27C1229.43 465.12 1222.12 454.37 1209.35 446.03C1198.61 439.04 1186.5 434.73 1173.02 433.12C1163.68 431.99 1156.87 430.48 1157.88 420.07C1158.89 409.58 1159.85 397.97 1157.23 388.57C1151.53 368.17 1137.26 355.09 1118.32 346.97C1113.7 344.99 1110.09 344.03 1107.49 344.09C1097.46 344.31 1088.49 346.06 1083.39 339.56C1082.39 338.3 1081.78 334.86 1081.57 329.24C1081.1 317.03 1078.15 305.34 1072.71 294.17C1063.2 274.67 1041.81 255.88 1018.35 256.42C1011.72 256.57 1007.77 256.31 1006.51 255.65C1002.07 253.26 1000.13 249.53 1000.71 244.46C1002.41 229.23 998.06 216.71 987.64 206.91C978.64 198.46 968.21 193.32 956.34 191.49C954.72 191.25 951.12 191.11 945.54 191.06C941.81 191.04 938.21 190.79 934.74 190.32C931.06 185.95 930.31 181.52 932.49 177.05C939.41 162.89 945.95 149.15 949.07 133.6C954.94 111.47 956.78 89.0301 954.6 66.3001C953.49 54.8201 950.64 44.4101 946.05 35.0501C943.11 29.0801 935.46 21.8501 927.99 23.9601C919.71 26.2901 915.63 33.4501 912.37 41.5101C909.15 49.4401 906.71 57.4401 905.04 65.4901C903.48 72.9901 902.58 81.2901 902.33 90.4001C902.17 95.9701 901.87 108.52 901.44 128.03C901.34 132.94 897.11 136.85 892.31 134.28C886.92 131.4 885.08 123.76 883.67 119.33C878.86 104.12 872.36 90.3801 864.15 78.1301C854.83 64.1901 845.52 51.9801 831.53 45.1501C817.98 38.5401 809.02 51.1601 808.52 63.3701C808.02 75.7001 810.57 87.6901 816.18 99.3501C823.6 114.75 832.92 130.02 844.16 145.14C847.79 150 854.42 158.69 864.04 171.18C865.87 173.56 865.88 176.5 864.06 179.99L864.07 180.01ZM548.19 754.9C548.42 754.67 548.57 754.38 548.62 754.06C548.67 753.74 548.62 753.42 548.47 753.13C541.92 740.36 538.53 726.97 538.29 712.97C538.16 705.62 539.4 694.9 542 680.81C544.39 667.84 547.05 657.39 549.97 649.46C568.08 600.12 594.37 555.88 628.86 516.75C643.05 500.65 660.08 485.21 679.95 470.45C696.06 458.48 712.28 448.13 728.6 439.39C730.01 438.63 731.06 437.34 731.52 435.8C734.34 426.2 734.68 416.48 732.55 406.65C728.36 387.32 714.99 367.87 693.85 365.53C690.53 365.16 687.9 363.33 685.97 360.02C684.84 358.06 684.72 354.81 685.61 350.25C691.53 320.09 680.19 288.55 650.85 276.87C641.73 273.24 632.43 272.25 622.95 273.9C615.98 275.12 610.33 269.97 610.04 262.84C608.65 228.54 579.81 204.44 545.75 210.43C540.34 211.39 532.36 216.37 527.11 213.64C524.32 212.2 521.94 209.86 519.99 206.62C500.52 174.59 460.92 163.34 427.94 182.48C420.39 186.86 411.87 198.72 403.03 192.06C390.8 182.84 377.23 179.74 362.33 182.77C341.81 186.95 326.64 197.98 316.82 215.87C311.26 226.02 304.49 222.39 296.25 218.96C283.36 213.59 267.61 215.32 255.48 221.09C236.45 230.14 223.87 244.9 217.76 265.37C215.75 272.05 217.4 279.23 209.31 282.35C207.87 282.9 204.99 282.95 200.67 282.49C185.1 280.84 170.57 286.47 159.31 298.08C146.45 311.33 139.84 327.78 139.48 347.42C139.42 350.52 139.52 355.52 139.79 362.42C140.13 371.26 133.63 372.76 126.69 373.85C115.44 375.64 105.38 381.28 97.4498 389.73C81.7698 406.47 75.9998 426.44 80.1298 449.63C80.7398 453.03 81.6298 456.4 82.8098 459.74C84.3598 464.08 84.8698 467.2 84.3598 469.11C83.3898 472.72 81.4498 475.13 78.5398 476.35C68.4198 480.62 60.3398 487.24 54.2798 496.2C40.9598 515.93 38.0398 537.1 45.5398 559.7C47.1498 564.6 49.8398 569.45 53.6098 574.26C55.6698 576.88 56.3998 580.1 55.7898 583.91C55.5398 585.51 53.5898 588.11 49.9398 591.69C42.0198 599.47 37.0098 608.81 34.8998 619.71C29.8298 646.09 37.0798 667.62 56.6498 684.3C59.5498 686.77 62.1398 689.45 62.2598 692.82C62.9298 712.79 70.6898 731.34 86.8298 743.12C102.35 754.44 120.13 756.51 140.17 749.33C144.45 747.8 148.65 748.8 152.77 752.34C153.08 752.6 153.35 752.91 153.58 753.25C164.33 769.28 178.15 779.33 197.67 780.82C215.68 782.19 226.82 775.69 239.99 764.84C243.21 762.18 246.94 761.26 251.2 762.08C253.1 762.43 256.28 764.62 260.75 768.62C281.33 787.11 315.81 788.71 337.1 770.94C341.09 767.6 343.83 765.42 345.31 764.42C352.52 759.47 357.53 763.32 364.2 768.8C373.93 776.81 385.68 781.05 399.45 781.5C419.63 782.18 436.26 775.17 449.34 760.49C460.04 748.46 468.45 760.37 479.07 764.58C500.77 773.18 530.71 772.41 548.24 754.9H548.19ZM1187.82 414.11C1196.91 416.71 1205.79 420.09 1214.46 424.26C1244.61 438.73 1256.39 470.37 1255.14 502.37C1255.12 502.88 1255.23 503.39 1255.47 503.84C1255.7 504.29 1256.05 504.68 1256.47 504.96C1272.18 515.36 1283.51 529.35 1290.47 546.92C1294.9 558.11 1298.1 568.64 1300.06 578.49C1304.09 598.68 1302.1 618.42 1294.07 637.7C1293.98 637.92 1293.95 638.15 1293.97 638.39C1293.99 638.63 1294.07 638.85 1294.2 639.05C1294.32 639.25 1294.49 639.41 1294.7 639.53C1294.9 639.65 1295.13 639.72 1295.36 639.73C1301.73 640.05 1307.57 638.34 1312.87 634.6C1316.44 632.08 1320.51 629.16 1322.91 625.96C1323.64 625 1324.14 623.89 1324.37 622.72C1324.6 621.54 1324.56 620.33 1324.25 619.17C1317.48 593.6 1315.45 567.59 1318.18 541.12C1320.59 517.68 1325.17 494.96 1331.91 472.96C1334.41 464.8 1337.78 455.16 1342.02 444.03L1346.45 434.98C1346.53 434.81 1346.57 434.62 1346.55 434.43C1346.54 434.24 1346.48 434.06 1346.38 433.9C1346.27 433.74 1346.13 433.61 1345.96 433.53C1345.79 433.45 1345.61 433.41 1345.42 433.42C1334.47 433.94 1330.67 430.18 1335.45 419.51C1340.88 407.41 1344.51 398.01 1346.33 391.3C1351.48 372.4 1350.73 335.74 1332.48 323.68C1325.54 319.1 1318.45 317.4 1310.57 319.94C1297.18 324.28 1285.33 331.18 1275.03 340.64C1268.43 346.69 1262.5 351.91 1257.25 356.28C1248.94 363.2 1242.62 354.27 1242.69 346.55C1242.72 342.51 1242.39 333.24 1241.68 318.74C1240.89 302.49 1234.95 289.32 1223.87 279.24C1220.04 275.74 1214.91 272.82 1209.9 272.13C1198.41 270.56 1186.79 271.99 1175.05 276.42C1163.54 280.75 1154.93 289.85 1147.73 299.63C1141.41 308.2 1137.43 317.7 1135.77 328.11C1135.62 329 1135.74 329.92 1136.12 330.75C1136.5 331.58 1137.12 332.27 1137.9 332.75C1155.7 343.67 1169.14 356.2 1175.85 376.63C1179.75 388.45 1181.1 399.88 1179.91 410.9C1179.86 411.36 1179.98 411.81 1180.26 412.18C1180.53 412.55 1180.93 412.8 1181.38 412.89L1187.82 414.11ZM1401.96 717.38C1457.22 772.8 1539.93 788.66 1613.21 764.08C1668.31 745.61 1710.23 709.74 1738.98 656.47C1763 611.99 1776.2 559.37 1778.79 509.2C1779.58 493.82 1779.57 476.37 1778.76 456.85C1777.95 437.24 1774.99 418.34 1769.88 400.13C1762.68 374.45 1750.4 351.53 1733.02 331.37C1696.51 288.98 1638.43 274.85 1585.62 280.83C1540.15 285.97 1499.06 301.95 1462.35 328.76C1390.76 381.04 1344.31 460.51 1339.28 549.51C1335.79 611.38 1358.66 673.94 1401.96 717.38ZM1011.21 499.35L993.29 483.21C979.82 473.05 966.42 464.69 953.1 458.14C938.44 451.03 923.38 444.88 907.93 439.68C897.64 436.22 888.36 434.38 880.08 434.14C874.4 432.57 868.54 431.74 862.48 431.65C838.59 431.26 819.29 432.43 804.57 435.15C795.55 436.82 788.14 438.67 782.34 440.69C771.12 444.63 756.86 450.53 739.56 458.41C720.94 466.88 702.13 479.27 683.13 495.58C657.19 517.86 633.7 541.66 615.47 568.15C592.97 600.86 576.24 636.36 565.27 674.64C563.29 681.55 561.77 689.52 560.7 698.55C557.92 722.07 563.48 742.22 577.39 759.02C583.57 766.48 592.42 773.92 603.95 781.34C634.32 800.88 669.74 814.18 704.86 820.6C715.87 822.61 726.42 822.95 736.64 822.28C754.53 821.1 770.28 814.58 783.89 802.73C799.77 788.9 814.21 772.16 827.22 752.5C845.43 725.01 863.68 699.64 881.97 676.4C899.76 653.8 921.05 635.88 945.85 622.66C961.15 614.51 978.81 607.32 998.81 601.1C1015.63 595.86 1038.65 588.52 1040.73 567.79C1043.2 543.03 1028.49 516.89 1011.2 499.34L1011.21 499.35ZM585.4 796.41C586.66 817.11 596.27 832.8 614.23 843.47C620.64 847.29 629.37 849.5 640.43 850.1C641.17 850.15 641.9 850.29 642.59 850.53C646.07 851.7 648.44 852.97 649.71 854.34C652.87 857.79 656.23 864.92 660.42 868.86C671.12 878.95 684.41 883.88 700.3 883.62C702.49 883.59 707.19 883.08 714.41 882.11C715.06 882.03 715.71 882.04 716.35 882.14C724.25 883.44 730.79 889.95 734.87 892.22C747.57 899.26 762.56 901.29 776.21 896.22C779.54 895 782.2 894.25 784.18 893.97C785.6 893.78 787.03 893.86 788.4 894.23C795.74 896.16 801.83 897.28 806.67 897.59C823.41 898.66 837.88 893.23 850.05 881.32C851.02 880.37 854.03 876.81 859.08 870.64C861.46 867.73 863.89 866.26 866.36 866.21C890.65 865.72 909.23 854.99 922.1 834.02C924.66 829.85 926.53 826.45 927.7 823.82C930.21 818.21 934.02 814.07 939.6 813.31C959.48 810.62 973.8 800.05 982.56 781.6C985.98 774.42 985.58 765.15 995.49 763.23C1005.23 761.34 1013.01 756.66 1018.84 749.19C1025.54 740.57 1029.18 731.07 1029.74 720.67C1029.86 718.5 1029.52 714.06 1028.71 707.37C1027.64 698.6 1027.14 688.5 1031.3 682.54C1041.63 667.75 1045.65 651.11 1043.35 632.62C1042.33 624.33 1038.91 617.19 1033.09 611.18C1032.72 610.8 1032.23 610.55 1031.7 610.48C1031.17 610.41 1030.64 610.52 1030.18 610.8C1017.27 618.63 1006.42 621.26 987.62 627.49C981.37 629.56 971.76 633.84 958.79 640.32C935.5 651.96 915.61 667.98 899.13 688.37C878.06 714.47 864.71 734.72 840.02 770.84C829.34 786.46 818.42 798.65 805.82 811.34C794.6 822.6 782 831.33 768.02 837.52C744.52 847.91 717.46 845.5 693.2 840.25C654.84 831.96 619.4 817.06 586.9 795.53C586.75 795.43 586.57 795.38 586.39 795.37C586.21 795.37 586.03 795.41 585.87 795.5C585.71 795.59 585.59 795.72 585.5 795.88C585.41 796.04 585.37 796.22 585.38 796.4L585.4 796.41Z" fill="#553630"/>
</g>
<defs>
<clipPath id="clip0_2_660">
<rect width="1801" height="941.62" fill="white"/>
</clipPath>
</defs>
</svg>
