<svg width="997" height="260" viewBox="0 0 997 260" fill="none" xmlns="http://www.w3.org/2000/svg">
<path d="M29.268 100.864C12.312 100.864 7.452 98.596 6.264 90.82C5.184 84.772 4.86 76.456 4.86 65.116C4.86 54.856 5.292 46.648 6.264 40.6C7.452 32.824 12.204 30.016 27.432 30.016C46.44 30.016 52.272 38.656 52.272 48.16C52.272 54.424 49.788 58.744 45.144 61.444C43.632 62.416 42.768 62.848 42.768 63.604C42.768 64.36 43.416 64.684 45.144 65.224C51.732 67.492 55.944 72.676 55.944 81.316C55.944 91.144 48.276 100.864 29.268 100.864ZM28.512 88.984C36.72 88.984 41.796 85.636 41.796 79.048C41.796 72.784 36.612 69.652 23.652 69.652C19.332 69.652 18.684 70.3 18.684 73.216C18.684 76.564 18.792 79.588 19.008 83.044C19.116 88.228 20.304 88.984 28.512 88.984ZM23.652 58.636C33.912 58.636 38.664 54.964 38.664 50.32C38.664 44.38 34.884 41.788 27.432 41.788C20.736 41.788 19.44 42.544 19.224 46.648C19.116 49.132 18.9 51.724 18.9 54.856C18.9 57.988 19.656 58.636 23.652 58.636ZM87.0497 101.08C72.2537 101.08 60.5897 90.172 60.5897 72.568C60.5897 54.964 72.1457 44.92 87.0497 44.92C101.954 44.92 113.942 54.856 113.942 72.46C113.942 90.064 101.846 101.08 87.0497 101.08ZM87.0497 88.12C94.6097 88.12 99.7937 81.748 99.7937 72.46C99.7937 63.604 94.5017 57.88 87.0497 57.88C79.8137 57.88 74.7377 63.712 74.7377 72.568C74.7377 81.856 79.5977 88.12 87.0497 88.12ZM129.84 100.648C125.088 100.648 123.144 97.948 121.956 91.9C121.2 88.444 120.66 83.584 120.66 75.7C120.66 66.52 121.2 59.068 122.172 53.776C123.36 47.08 125.196 45.352 128.004 45.352C130.704 45.352 131.46 46.864 131.784 48.7C132.108 52.156 132.324 52.48 133.08 52.48C133.836 52.48 134.376 52.156 134.916 51.508C137.832 47.728 140.64 44.92 145.5 44.92C150.9 44.92 152.952 48.16 152.952 52.156C152.952 55.936 151.008 58.528 148.308 58.528C147.444 58.528 146.364 58.312 145.176 58.312C140.964 58.312 135.024 62.632 135.024 74.296C135.024 80.452 136.428 85.96 136.428 92.116C136.428 98.596 133.728 100.648 129.84 100.648ZM165.144 100.648C162.228 100.648 160.284 99.568 159.204 97.408C157.584 94.168 157.476 84.556 157.476 73.324C157.476 62.524 157.692 51.508 159.096 48.376C160.176 46.216 162.228 45.136 165.144 45.136C168.06 45.136 170.004 46.216 171.084 48.484C172.704 51.832 172.704 62.524 172.704 73.324C172.704 84.556 172.596 93.952 170.976 97.516C170.004 99.676 167.952 100.648 165.144 100.648ZM165.036 39.412C160.176 39.412 157.476 36.496 157.476 32.392C157.476 28.072 160.176 25.264 165.036 25.264C170.112 25.264 172.812 28.072 172.812 32.392C172.812 36.496 170.112 39.412 165.036 39.412ZM191.107 100.648C186.895 100.648 184.951 98.704 184.087 95.464C182.791 89.632 182.359 81.1 182.359 73C182.359 64.144 182.791 56.26 183.763 50.752C184.843 47.08 186.895 45.352 190.135 45.352C193.051 45.352 194.995 47.08 195.751 49.996C196.183 51.832 196.723 52.48 197.479 52.48C198.127 52.48 198.667 52.156 199.315 51.292C202.771 46.972 206.443 44.92 212.491 44.92C223.615 44.92 229.555 53.992 229.555 66.952C229.555 76.888 229.447 86.392 228.259 94.492C227.611 98.812 225.775 100.648 221.563 100.648C216.919 100.648 214.975 97.624 214.867 93.952C214.651 89.092 214.759 83.044 214.759 76.996C214.867 73.972 214.867 70.948 214.867 68.032C214.867 62.308 212.059 58.636 207.199 58.636C203.527 58.636 197.371 61.984 197.371 70.732C197.371 78.292 197.911 85.528 197.911 92.98C197.911 98.596 194.779 100.648 191.107 100.648ZM259.747 114.904C245.707 114.904 239.875 111.448 239.875 106.48C239.875 103.024 242.899 101.296 246.139 101.296C249.703 101.296 253.267 103.132 260.179 103.132C268.171 103.132 272.707 98.92 272.707 92.224C272.707 90.28 271.627 89.524 270.331 89.524C267.091 89.524 263.959 92.764 256.831 92.764C243.763 92.764 235.663 83.26 235.663 69.652C235.663 54.64 245.275 44.92 257.695 44.92C263.527 44.92 267.415 46.54 270.763 50.752C271.411 51.616 271.951 51.94 272.707 51.94C273.463 51.94 274.003 51.184 274.651 49.348C275.407 46.648 277.027 45.352 280.159 45.352C283.615 45.352 285.019 47.296 285.883 50.752C287.287 58.852 287.503 66.952 287.503 83.8C287.503 103.348 280.375 114.904 259.747 114.904ZM261.367 81.964C267.739 81.964 273.139 78.076 273.139 69.436C273.139 61.12 268.063 57.232 261.691 57.232C254.131 57.232 249.811 62.524 249.811 70.084C249.811 76.888 254.131 81.964 261.367 81.964ZM309.644 100.648C304.46 100.648 300.356 97.84 298.736 91.9C297.008 85.636 296.792 76.024 296.792 64.684C296.792 54.1 296.9 44.056 298.088 35.956C298.952 31.528 301.22 29.368 305.108 29.368C309.428 29.368 311.264 31.744 311.264 37.252C311.696 45.676 311.372 57.88 311.048 68.032C310.832 73.324 310.724 78.076 310.724 81.316C310.724 85.528 312.236 87.148 314.72 87.364C317.96 87.472 319.04 89.092 319.04 92.332C319.04 96.436 316.232 100.648 309.644 100.648ZM332.518 114.904C324.526 114.904 318.694 111.34 318.91 106.048C318.91 102.916 321.394 101.188 324.202 101.188C327.442 101.188 329.926 102.592 333.922 102.592C339.322 102.592 341.374 100.972 341.374 98.056C341.374 94.816 336.622 87.364 330.358 75.592C327.118 69.436 322.366 58.96 322.366 51.076C322.366 47.512 324.094 45.352 328.09 45.352C333.058 45.352 337.162 54.532 346.774 81.316C347.314 82.936 347.53 83.26 348.07 83.26C348.61 83.26 348.826 83.044 349.366 81.424C356.386 58.312 359.086 45.352 365.782 45.352C369.886 45.352 371.074 47.62 371.074 51.94C371.074 58.744 364.918 79.372 357.25 95.464C351.31 107.884 344.074 114.904 332.518 114.904ZM413.917 100.864C401.281 100.864 397.501 99.136 395.881 96.22C394.801 93.844 393.829 80.344 393.829 65.008C393.829 48.7 394.801 36.28 395.881 34.012C397.501 30.88 401.281 30.016 412.945 30.016C430.657 30.016 435.625 31.528 435.625 36.928C435.625 40.816 433.681 42.76 429.145 42.76C424.609 42.76 416.941 42.436 411.757 42.436C409.273 42.436 408.625 42.76 408.517 45.568C408.301 48.484 408.301 51.508 408.301 54.208C408.301 57.016 409.273 57.232 411.433 57.232C417.697 57.232 421.045 57.016 426.769 57.016C432.493 57.016 434.113 59.068 434.113 63.28C434.113 67.492 431.953 69.544 427.093 69.544C422.449 69.544 415.969 69.328 410.461 69.328C409.057 69.328 408.517 69.976 408.517 71.164C408.517 77.428 408.625 84.772 408.733 85.636C408.949 87.472 409.381 88.228 411.325 88.228H429.685C432.709 88.228 435.193 89.416 435.193 93.412C435.193 98.38 431.737 100.864 413.917 100.864ZM461.036 100.972C448.832 100.864 439.436 90.388 439.436 72.568C439.436 55.072 448.832 44.92 461.252 44.92C466.868 44.92 470.972 46.648 474.212 50.644C474.968 51.508 475.292 51.94 476.156 51.94C476.912 51.94 477.452 51.184 478.1 49.348C478.964 46.54 480.908 45.352 483.824 45.352C487.496 45.352 489.008 47.188 489.764 50.32C491.06 56.26 491.384 64.468 491.384 72.568C491.384 81.1 491.168 89.092 490.304 94.6C489.44 98.704 486.956 100.648 483.716 100.648C480.692 100.648 478.748 98.812 477.884 95.788C477.452 93.952 476.912 93.196 476.156 93.196C475.508 93.196 474.968 93.628 474.32 94.492C470.864 98.812 466.76 100.972 461.036 100.972ZM465.248 88.012C470.108 88.012 477.56 83.908 477.56 72.784C477.56 62.092 470.108 57.88 465.248 57.88C457.796 57.88 453.368 63.604 453.368 72.784C453.368 82.18 457.796 88.012 465.248 88.012ZM505.845 101.08C500.013 101.08 497.853 98.812 497.853 95.464C497.853 92.116 500.877 90.712 503.793 90.388C513.189 89.308 518.157 88.12 518.157 84.016C518.157 76.132 498.393 77.32 498.393 62.092C498.393 50.428 510.057 44.92 522.261 44.92C528.309 44.92 530.361 47.08 530.361 50.428C530.361 53.344 528.309 55.18 524.961 55.396C516.213 56.044 512.649 57.664 512.649 60.904C512.649 68.464 532.413 67.816 532.413 82.612C532.413 95.356 517.617 101.08 505.845 101.08ZM546.514 114.904C538.522 114.904 532.69 111.34 532.906 106.048C532.906 102.916 535.39 101.188 538.198 101.188C541.438 101.188 543.922 102.592 547.918 102.592C553.318 102.592 555.37 100.972 555.37 98.056C555.37 94.816 550.618 87.364 544.354 75.592C541.114 69.436 536.362 58.96 536.362 51.076C536.362 47.512 538.09 45.352 542.086 45.352C547.054 45.352 551.158 54.532 560.77 81.316C561.31 82.936 561.526 83.26 562.066 83.26C562.606 83.26 562.822 83.044 563.362 81.424C570.382 58.312 573.082 45.352 579.778 45.352C583.882 45.352 585.07 47.62 585.07 51.94C585.07 58.744 578.914 79.372 571.246 95.464C565.306 107.884 558.07 114.904 546.514 114.904ZM592.665 115.66C589.533 115.66 588.129 114.04 588.129 111.556C588.129 107.668 593.313 105.292 593.313 99.028C593.313 96.328 591.477 94.708 591.477 88.984C591.477 84.448 594.069 80.992 599.361 80.992C604.761 80.992 608.001 85.204 608.001 93.088C608.001 105.508 600.225 115.66 592.665 115.66ZM12.744 230.648C9.72 230.648 7.452 228.812 6.588 224.708C5.292 218.984 4.86 209.048 4.86 195.116C4.86 182.156 5.292 172.328 6.588 166.604C8.1 161.636 11.772 159.908 18.144 159.908C25.164 159.908 29.592 161.528 36.504 188.636C42.444 210.884 42.552 212.288 43.848 212.288C44.604 212.288 44.604 211.532 44.604 209.912C44.604 198.248 44.172 187.772 44.172 169.52C44.172 162.716 47.088 160.232 50.652 160.232C53.136 160.232 55.512 161.204 56.484 165.092C57.24 170.168 57.996 179.348 57.996 195.116C57.996 208.94 57.456 219.956 56.16 224.816C54.648 229.244 51.192 230.972 45.252 230.972C37.8 230.972 33.804 227.192 25.812 197.6C20.628 178.7 20.52 177.512 19.656 177.512C19.008 177.512 18.792 177.836 18.792 179.996C18.792 190.688 19.116 207.104 19.116 221.252C19.116 227.84 16.74 230.648 12.744 230.648ZM91.4794 231.08C76.6834 231.08 65.0194 220.172 65.0194 202.568C65.0194 184.964 76.5754 174.92 91.4794 174.92C106.383 174.92 118.371 184.856 118.371 202.46C118.371 220.064 106.275 231.08 91.4794 231.08ZM91.4794 218.12C99.0394 218.12 104.223 211.748 104.223 202.46C104.223 193.604 98.9314 187.88 91.4794 187.88C84.2434 187.88 79.1674 193.712 79.1674 202.568C79.1674 211.856 84.0274 218.12 91.4794 218.12ZM147.337 231.08C132.541 231.08 128.869 220.496 128.869 206.78V189.716C128.869 188.096 128.329 187.232 127.141 187.124C124.549 186.8 121.525 185.936 121.525 181.4C121.525 177.62 124.549 176 127.573 176C128.977 176 129.625 175.676 129.841 173.84C129.949 172.436 130.057 170.924 130.165 169.736C130.597 165.848 133.081 164.12 136.645 164.12C141.289 164.12 142.261 166.064 143.125 174.272C143.233 175.568 143.665 176 145.069 176H152.305C156.733 176 159.973 177.296 159.973 181.4C159.973 186.044 156.193 187.232 152.305 187.232H144.421C143.449 187.232 142.909 187.556 142.909 188.744C142.801 194.36 142.909 199.652 142.909 203.432C142.909 204.944 142.909 206.132 142.909 207.104C142.909 215.744 145.933 218.336 150.469 218.336C153.169 218.336 154.249 217.58 155.977 217.58C158.893 217.58 160.513 219.416 160.513 223.088C160.513 227.516 157.489 231.08 147.337 231.08ZM174.759 230.648C170.547 230.648 168.603 228.704 167.739 225.464C166.443 219.524 166.011 210.992 166.011 199.868C166.011 189.932 166.119 176.648 167.415 166.28C168.279 161.528 170.439 159.152 174.759 159.152C179.187 159.152 181.239 161.852 181.239 166.712C181.239 170.708 180.915 175.676 180.915 179.024C180.915 181.292 181.455 182.156 182.211 182.156C182.967 182.156 183.291 181.832 183.939 181.076C187.179 176.972 191.067 174.92 196.575 174.92C207.267 174.92 213.207 183.992 213.207 196.952C213.207 206.888 213.099 216.392 211.911 224.492C211.155 228.812 209.427 230.648 205.215 230.648C200.571 230.648 198.627 227.624 198.519 223.952C198.195 219.092 198.303 213.044 198.411 206.996C198.519 203.972 198.519 200.948 198.519 198.032C198.519 192.308 195.711 188.636 190.851 188.636C187.179 188.636 181.023 191.876 181.023 200.408C181.023 208.184 181.563 215.42 181.563 222.98C181.563 228.596 178.431 230.648 174.759 230.648ZM230.113 230.648C227.197 230.648 225.253 229.568 224.173 227.408C222.553 224.168 222.445 214.556 222.445 203.324C222.445 192.524 222.661 181.508 224.065 178.376C225.145 176.216 227.197 175.136 230.113 175.136C233.029 175.136 234.973 176.216 236.053 178.484C237.673 181.832 237.673 192.524 237.673 203.324C237.673 214.556 237.565 223.952 235.945 227.516C234.973 229.676 232.921 230.648 230.113 230.648ZM230.005 169.412C225.145 169.412 222.445 166.496 222.445 162.392C222.445 158.072 225.145 155.264 230.005 155.264C235.081 155.264 237.781 158.072 237.781 162.392C237.781 166.496 235.081 169.412 230.005 169.412ZM256.076 230.648C251.864 230.648 249.92 228.704 249.056 225.464C247.76 219.632 247.328 211.1 247.328 203C247.328 194.144 247.76 186.26 248.732 180.752C249.812 177.08 251.864 175.352 255.104 175.352C258.02 175.352 259.964 177.08 260.72 179.996C261.152 181.832 261.692 182.48 262.448 182.48C263.096 182.48 263.636 182.156 264.284 181.292C267.74 176.972 271.412 174.92 277.46 174.92C288.584 174.92 294.524 183.992 294.524 196.952C294.524 206.888 294.416 216.392 293.228 224.492C292.58 228.812 290.744 230.648 286.532 230.648C281.888 230.648 279.944 227.624 279.836 223.952C279.62 219.092 279.728 213.044 279.728 206.996C279.836 203.972 279.836 200.948 279.836 198.032C279.836 192.308 277.028 188.636 272.168 188.636C268.496 188.636 262.34 191.984 262.34 200.732C262.34 208.292 262.88 215.528 262.88 222.98C262.88 228.596 259.748 230.648 256.076 230.648ZM324.716 244.904C310.676 244.904 304.844 241.448 304.844 236.48C304.844 233.024 307.868 231.296 311.108 231.296C314.672 231.296 318.236 233.132 325.148 233.132C333.14 233.132 337.676 228.92 337.676 222.224C337.676 220.28 336.596 219.524 335.3 219.524C332.06 219.524 328.928 222.764 321.8 222.764C308.732 222.764 300.632 213.26 300.632 199.652C300.632 184.64 310.244 174.92 322.664 174.92C328.496 174.92 332.384 176.54 335.732 180.752C336.38 181.616 336.92 181.94 337.676 181.94C338.432 181.94 338.972 181.184 339.62 179.348C340.376 176.648 341.996 175.352 345.128 175.352C348.584 175.352 349.988 177.296 350.852 180.752C352.256 188.852 352.472 196.952 352.472 213.8C352.472 233.348 345.344 244.904 324.716 244.904ZM326.336 211.964C332.708 211.964 338.108 208.076 338.108 199.436C338.108 191.12 333.032 187.232 326.66 187.232C319.1 187.232 314.78 192.524 314.78 200.084C314.78 206.888 319.1 211.964 326.336 211.964ZM397.009 230.648C392.257 230.648 389.233 228.164 389.233 220.82C389.233 211.208 389.557 180.428 389.557 175.244C389.557 173.084 389.017 172.436 387.073 172.436H379.945C377.029 172.436 374.329 171.248 374.329 166.712C374.329 161.42 377.137 160.016 396.793 160.016C416.557 160.016 419.473 161.42 419.473 166.712C419.473 171.248 416.665 172.436 413.857 172.436H406.621C404.677 172.436 404.029 173.084 404.029 175.244C404.029 180.428 404.461 211.208 404.461 220.82C404.461 228.164 401.653 230.648 397.009 230.648ZM448.913 231.08C434.117 231.08 422.453 220.172 422.453 202.568C422.453 184.964 434.009 174.92 448.913 174.92C463.817 174.92 475.805 184.856 475.805 202.46C475.805 220.064 463.709 231.08 448.913 231.08ZM448.913 218.12C456.473 218.12 461.657 211.748 461.657 202.46C461.657 193.604 456.365 187.88 448.913 187.88C441.677 187.88 436.601 193.712 436.601 202.568C436.601 211.856 441.461 218.12 448.913 218.12ZM529.651 231.08C511.183 231.08 496.495 217.256 496.495 194.792C496.495 172.436 511.075 159.8 529.651 159.8C548.227 159.8 563.239 172.328 563.239 194.684C563.239 217.148 548.119 231.08 529.651 231.08ZM529.651 217.58C540.667 217.58 548.011 208.616 548.011 194.9C548.011 181.184 540.235 173.3 529.651 173.3C519.067 173.3 511.723 181.184 511.723 194.9C511.723 208.616 518.743 217.58 529.651 217.58ZM590.579 231.08C583.451 231.08 579.023 223.628 573.839 210.236C570.383 201.704 567.251 189.068 567.251 183.128C567.251 177.944 568.223 175.352 573.731 175.352C577.835 175.352 579.887 178.268 581.291 184.748C582.911 191.876 584.315 197.492 585.719 203.432C587.771 211.208 589.283 214.448 590.579 214.448C591.875 214.448 593.387 211.208 595.439 203.432C596.843 197.384 598.247 191.876 599.975 184.748C601.271 178.268 603.323 175.352 607.427 175.352C612.935 175.352 614.015 177.944 614.015 183.128C614.015 189.068 610.991 201.704 607.427 210.236C602.135 223.628 597.707 231.08 590.579 231.08ZM646.617 231.08C625.125 231.08 617.889 214.88 617.889 203C617.889 191.444 624.369 174.92 644.133 174.92C658.821 174.92 665.733 184.1 665.733 197.384C665.733 203.756 662.277 207.86 656.121 207.86C648.345 207.86 640.137 207.644 635.277 207.644C633.765 207.644 633.333 208.292 633.333 209.372C633.333 213.26 636.789 218.876 646.617 218.876C652.125 218.876 653.745 217.688 659.253 217.688C663.789 217.688 665.085 219.74 665.085 222.872C665.085 227.624 659.145 231.08 646.617 231.08ZM643.917 197.6C651.909 197.6 652.773 197.06 652.773 194.36C652.773 190.148 649.533 186.584 644.025 186.584C637.437 186.584 633.333 190.796 633.333 195.116C633.333 197.168 634.305 197.6 643.917 197.6ZM681.863 230.648C677.111 230.648 675.167 227.948 673.979 221.9C673.223 218.444 672.683 213.584 672.683 205.7C672.683 196.52 673.223 189.068 674.195 183.776C675.383 177.08 677.219 175.352 680.027 175.352C682.727 175.352 683.483 176.864 683.807 178.7C684.131 182.156 684.347 182.48 685.103 182.48C685.859 182.48 686.399 182.156 686.939 181.508C689.855 177.728 692.663 174.92 697.523 174.92C702.923 174.92 704.975 178.16 704.975 182.156C704.975 185.936 703.031 188.528 700.331 188.528C699.467 188.528 698.387 188.312 697.199 188.312C692.987 188.312 687.047 192.632 687.047 204.296C687.047 210.452 688.451 215.96 688.451 222.116C688.451 228.596 685.751 230.648 681.863 230.648ZM731.423 231.08C716.627 231.08 712.955 220.496 712.955 206.78V189.716C712.955 188.096 712.415 187.232 711.227 187.124C708.635 186.8 705.611 185.936 705.611 181.4C705.611 177.62 708.635 176 711.659 176C713.063 176 713.711 175.676 713.927 173.84C714.035 172.436 714.143 170.924 714.251 169.736C714.683 165.848 717.167 164.12 720.731 164.12C725.375 164.12 726.347 166.064 727.211 174.272C727.319 175.568 727.751 176 729.155 176H736.391C740.819 176 744.059 177.296 744.059 181.4C744.059 186.044 740.279 187.232 736.391 187.232H728.507C727.535 187.232 726.995 187.556 726.995 188.744C726.887 194.36 726.995 199.652 726.995 203.432C726.995 204.944 726.995 206.132 726.995 207.104C726.995 215.744 730.019 218.336 734.555 218.336C737.255 218.336 738.335 217.58 740.063 217.58C742.979 217.58 744.599 219.416 744.599 223.088C744.599 227.516 741.575 231.08 731.423 231.08ZM758.845 230.648C754.633 230.648 752.689 228.704 751.825 225.464C750.529 219.524 750.097 210.992 750.097 199.868C750.097 189.932 750.205 176.648 751.501 166.28C752.365 161.528 754.525 159.152 758.845 159.152C763.273 159.152 765.325 161.852 765.325 166.712C765.325 170.708 765.001 175.676 765.001 179.024C765.001 181.292 765.541 182.156 766.297 182.156C767.053 182.156 767.377 181.832 768.025 181.076C771.265 176.972 775.153 174.92 780.661 174.92C791.353 174.92 797.293 183.992 797.293 196.952C797.293 206.888 797.185 216.392 795.997 224.492C795.241 228.812 793.513 230.648 789.301 230.648C784.657 230.648 782.713 227.624 782.605 223.952C782.281 219.092 782.389 213.044 782.497 206.996C782.605 203.972 782.605 200.948 782.605 198.032C782.605 192.308 779.797 188.636 774.937 188.636C771.265 188.636 765.109 191.876 765.109 200.408C765.109 208.184 765.649 215.42 765.649 222.98C765.649 228.596 762.517 230.648 758.845 230.648ZM814.199 230.648C811.283 230.648 809.339 229.568 808.259 227.408C806.639 224.168 806.531 214.556 806.531 203.324C806.531 192.524 806.747 181.508 808.151 178.376C809.231 176.216 811.283 175.136 814.199 175.136C817.115 175.136 819.059 176.216 820.139 178.484C821.759 181.832 821.759 192.524 821.759 203.324C821.759 214.556 821.651 223.952 820.031 227.516C819.059 229.676 817.007 230.648 814.199 230.648ZM814.091 169.412C809.231 169.412 806.531 166.496 806.531 162.392C806.531 158.072 809.231 155.264 814.091 155.264C819.167 155.264 821.867 158.072 821.867 162.392C821.867 166.496 819.167 169.412 814.091 169.412ZM840.162 230.648C835.95 230.648 834.006 228.704 833.142 225.464C831.846 219.632 831.414 211.1 831.414 203C831.414 194.144 831.846 186.26 832.818 180.752C833.898 177.08 835.95 175.352 839.19 175.352C842.106 175.352 844.05 177.08 844.806 179.996C845.238 181.832 845.778 182.48 846.534 182.48C847.182 182.48 847.722 182.156 848.37 181.292C851.826 176.972 855.498 174.92 861.546 174.92C872.67 174.92 878.61 183.992 878.61 196.952C878.61 206.888 878.502 216.392 877.314 224.492C876.666 228.812 874.83 230.648 870.618 230.648C865.974 230.648 864.03 227.624 863.922 223.952C863.706 219.092 863.814 213.044 863.814 206.996C863.922 203.972 863.922 200.948 863.922 198.032C863.922 192.308 861.114 188.636 856.254 188.636C852.582 188.636 846.426 191.984 846.426 200.732C846.426 208.292 846.966 215.528 846.966 222.98C846.966 228.596 843.834 230.648 840.162 230.648ZM894.869 230.648C891.197 230.648 889.361 228.596 888.605 224.708C887.525 218.12 887.309 208.94 887.309 192.416C887.309 179.996 887.525 172.436 888.605 165.524C889.253 161.528 891.629 159.368 895.409 159.368C898.973 159.368 901.025 161.204 901.565 165.308C902.213 171.14 902.213 182.048 902.213 187.664C902.213 189.716 902.645 190.796 904.265 190.796C906.101 190.796 907.613 188.852 910.961 185.288C914.741 181.184 919.061 175.568 923.705 175.568C927.161 175.568 929.861 177.62 929.645 180.86C929.537 185.612 924.569 188.96 920.681 192.524C916.577 196.304 915.389 197.384 915.389 199.004C915.389 200.516 917.333 202.568 922.085 208.724C926.729 214.772 931.157 220.064 931.157 224.6C931.157 227.84 928.997 230.648 924.353 230.648C919.709 230.648 917.765 227.408 916.145 224.924C910.097 215.744 907.289 210.668 905.777 207.968C905.021 206.564 904.481 205.808 903.293 205.808C902.105 205.808 901.781 206.996 901.781 209.156C901.565 212.504 901.673 220.28 901.349 224.708C900.809 228.596 898.865 230.648 894.869 230.648Z" fill="#553630"/>
</svg>
