<svg width="1049" height="549" viewBox="0 0 1049 549" fill="none" xmlns="http://www.w3.org/2000/svg">
<g clip-path="url(#clip0_39_4775)">
<path d="M870.861 213.227C888.59 200.766 910.023 195.116 930.443 197.521C950.862 199.926 968.597 210.188 979.744 226.049C990.892 241.911 994.54 262.074 989.886 282.101C985.232 302.127 972.656 320.379 954.926 332.84C937.196 345.3 915.763 350.95 895.344 348.545C874.925 346.14 857.19 335.878 846.042 320.017C834.895 304.155 831.246 283.993 835.901 263.966C840.555 243.939 853.131 225.687 870.861 213.227ZM868.477 238.772C865.618 245.973 866.248 253.319 873.444 255.023C878.558 256.237 883.935 252.74 887.731 248.851C886.926 248.949 886.104 249.001 885.269 249.001C877.617 249.001 871.081 244.756 868.477 238.772Z" fill="#553630"/>
<path d="M816.612 417.862C791.392 392.562 778.072 356.122 780.102 320.082C783.032 268.242 810.092 221.952 851.792 191.502C873.172 175.882 897.105 166.575 923.592 163.582C954.352 160.102 988.182 168.332 1009.45 193.022C1019.57 204.762 1026.73 218.112 1030.92 233.072C1033.9 243.679 1035.62 254.692 1036.09 266.112C1036.57 277.479 1036.57 287.642 1036.11 296.602C1034.6 325.822 1026.91 356.472 1012.92 382.382C996.175 413.409 971.755 434.302 939.662 445.062C896.982 459.382 848.802 450.142 816.612 417.862ZM979.743 226.048C968.595 210.187 950.861 199.925 930.441 197.52C910.021 195.115 888.589 200.764 870.859 213.225C853.129 225.686 840.554 243.938 835.899 263.965C831.245 283.992 834.893 304.154 846.041 320.016C857.189 335.877 874.923 346.139 895.343 348.544C915.762 350.949 937.195 345.3 954.925 332.839C972.655 320.378 985.23 302.126 989.884 282.099C994.539 262.072 990.891 241.91 979.743 226.048ZM792.942 378.942C792.897 378.956 792.857 378.979 792.822 379.011C792.788 379.042 792.761 379.08 792.742 379.123C792.724 379.166 792.716 379.212 792.717 379.259C792.719 379.305 792.731 379.351 792.752 379.392C794.232 382.199 795.625 385.029 796.932 387.882C798.672 391.689 800.112 394.479 801.252 396.252C818.792 423.662 844.852 442.352 877.282 447.962C888.335 449.869 898.728 450.445 908.462 449.692C931.082 447.932 955.742 439.432 974.622 425.222C980.462 420.829 985.202 416.692 988.842 412.812C1003.97 396.692 1015.32 377.859 1022.88 356.312C1026.71 345.419 1029.99 331.749 1032.72 315.302C1032.96 313.895 1033.18 311.759 1033.4 308.892C1033.74 304.372 1034.52 298.772 1034.18 293.772C1034.18 293.692 1034.15 293.616 1034.1 293.558C1034.04 293.501 1033.97 293.468 1033.89 293.467C1033.81 293.466 1033.73 293.496 1033.67 293.551C1033.62 293.607 1033.58 293.683 1033.58 293.762C1033 298.469 1031.85 303.345 1030.14 308.392C1028.4 313.579 1026.29 319.219 1023.82 325.312C1017.09 341.932 1008.02 356.942 996.622 370.342C991.008 376.942 984.632 383.459 977.492 389.892C968.162 398.292 956.562 405.242 945.932 410.662C936.365 415.535 925.909 419.272 914.562 421.872C908.052 423.362 899.162 424.042 894.592 424.472C875.662 426.272 854.362 422.072 836.972 415.502C825.362 411.122 816.102 403.702 806.642 395.372C801.328 390.692 796.908 385.212 793.382 378.932C793.365 378.903 793.34 378.881 793.309 378.868C793.278 378.855 793.244 378.853 793.212 378.862L792.942 378.942Z" fill="black"/>
<path d="M1014.56 404.062C997.092 428.532 974.362 446.962 945.712 456.462C931.512 461.172 915.552 464.332 900.642 464.172C886.949 464.019 873.606 462.016 860.612 458.162C834.272 450.342 812.936 435.602 796.602 413.942C788.196 402.789 781.486 390.799 776.472 377.972C776.433 377.872 776.37 377.782 776.288 377.711C776.206 377.64 776.108 377.591 776.002 377.566C775.896 377.542 775.785 377.543 775.679 377.57C775.573 377.597 775.474 377.65 775.392 377.722C769.812 382.856 762.996 385.526 754.942 385.732C754.79 385.738 754.646 385.801 754.542 385.91C754.437 386.018 754.38 386.163 754.382 386.312C754.496 398.472 751.296 409.616 744.782 419.742C738.752 429.132 728.852 437.092 717.632 438.612C714.699 439.006 711.996 439.232 709.522 439.292C709.191 439.302 708.867 439.385 708.573 439.535C708.279 439.686 708.022 439.9 707.822 440.162C703.742 445.502 699.322 449.792 693.612 452.982C679.872 460.662 665.839 460.496 651.512 452.482C649.266 451.229 648.069 450.562 647.922 450.482C647.405 450.211 646.809 450.122 646.232 450.232C643.672 450.732 641.049 451.172 638.362 451.552C627.172 453.162 615.162 447.972 606.672 440.872C606.587 440.801 606.488 440.749 606.381 440.719C606.274 440.689 606.161 440.682 606.052 440.699C605.942 440.716 605.837 440.757 605.744 440.818C605.651 440.878 605.572 440.959 605.512 441.052C600.786 448.472 594.426 453.479 586.432 456.072C586.094 456.182 585.784 456.365 585.523 456.608C585.262 456.852 585.057 457.15 584.922 457.482C578.609 472.876 567.662 482.392 552.082 486.032C551.587 486.148 551.152 486.44 550.862 486.852C548.972 489.522 547.362 492.862 545.362 495.682C536.569 508.082 524.466 515.212 509.052 517.072C508.443 517.15 507.89 517.462 507.512 517.942C497.819 530.196 485.099 536.009 469.352 535.382C466.392 535.272 462.342 534.322 459.522 533.872C458.014 533.635 456.475 533.731 455.012 534.152C440.662 538.302 428.352 534.842 415.972 527.172C415.362 526.789 414.64 526.61 413.912 526.662C410.379 526.929 407.459 527.032 405.152 526.972C390.359 526.572 378.886 520.376 370.732 508.382C370.6 508.191 370.429 508.03 370.231 507.911C370.033 507.792 369.811 507.717 369.582 507.692C357.909 506.332 348.256 501.579 340.622 493.432C333.612 485.962 329.492 476.082 328.612 466.402C328.332 463.342 328.199 459.092 328.212 453.652C328.212 452.819 327.922 451.879 327.342 450.832C327.288 450.738 327.215 450.657 327.128 450.594C327.04 450.531 326.94 450.487 326.834 450.466C326.729 450.445 326.621 450.448 326.517 450.473C326.413 450.498 326.316 450.546 326.232 450.612C319.502 455.892 311.582 459.512 303.062 460.482C290.496 461.922 279.189 459.842 269.142 454.242C268.884 454.098 268.586 454.04 268.293 454.078C267.999 454.116 267.726 454.247 267.512 454.452C259.482 462.142 251.902 466.002 240.632 467.332C228.012 468.832 216.359 465.982 205.672 458.782C205.483 458.657 205.26 458.594 205.034 458.601C204.808 458.608 204.591 458.685 204.412 458.822C186.742 472.472 161.782 471.712 144.542 457.962C144.362 457.82 144.137 457.747 143.908 457.756C143.679 457.765 143.46 457.856 143.292 458.012C135.002 465.612 124.642 467.692 113.422 466.952C103.692 466.302 96.0723 462.752 88.9723 456.962C86.3523 454.832 84.2023 452.242 82.1923 450.352C82.002 450.174 81.7702 450.047 81.5185 449.983C81.2668 449.918 81.0033 449.918 80.7523 449.982C60.3023 455.192 40.1323 446.592 30.2223 428.052C26.9156 422.039 24.999 415.736 24.4723 409.142C24.4078 408.39 24.0608 407.693 23.5023 407.192C15.409 399.879 10.2023 390.609 7.88229 379.382C7.30229 376.589 7.02895 372.639 7.06229 367.532C7.14229 356.662 11.0323 346.412 17.6023 338.172C17.745 337.993 17.8332 337.777 17.8563 337.55C17.8794 337.323 17.8363 337.095 17.7323 336.892C5.4623 313.132 12.6623 284.762 34.0123 268.952C34.301 268.738 34.521 268.444 34.6453 268.107C34.7696 267.769 34.7929 267.403 34.7123 267.052C29.9723 246.592 37.5223 225.382 54.1623 212.642C58.3823 209.409 62.9923 207.142 67.9923 205.842C68.2097 205.784 68.4016 205.656 68.5375 205.476C68.6733 205.297 68.7454 205.077 68.7423 204.852C68.529 192.106 71.9656 180.689 79.0523 170.602C87.6056 158.436 99.2656 152.139 114.032 151.712C114.181 151.706 114.324 151.655 114.441 151.565C114.558 151.475 114.642 151.352 114.682 151.212C118.469 138.046 126.272 127.746 138.092 120.312C149.526 113.112 161.819 111.266 174.972 114.772C175.251 114.846 175.544 114.836 175.815 114.743C176.085 114.65 176.321 114.48 176.492 114.252C189.962 96.2924 216.892 86.2824 237.612 98.3924C237.748 98.4675 237.901 98.5035 238.055 98.4965C238.208 98.4894 238.356 98.4395 238.482 98.3524C253.282 88.0457 268.852 85.5357 285.192 90.8224C295.752 94.2424 305.622 101.292 311.632 110.592C311.733 110.745 311.881 110.861 312.052 110.923C312.224 110.984 312.41 110.988 312.582 110.932C337.152 103.202 363.302 121.472 367.062 146.472C367.081 146.589 367.141 146.695 367.23 146.772C367.32 146.849 367.434 146.892 367.552 146.892C383.672 146.762 397.212 154.412 405.572 168.192C411.252 177.539 413.556 188.246 412.482 200.312C412.459 200.559 412.515 200.807 412.643 201.019C412.771 201.231 412.963 201.397 413.192 201.492C431.412 209.072 441.092 229.512 439.932 248.492C439.93 248.55 439.942 248.607 439.967 248.658C439.992 248.71 440.029 248.754 440.075 248.787C440.121 248.82 440.174 248.84 440.23 248.847C440.285 248.853 440.341 248.844 440.392 248.822C460.559 240.669 482.052 237.389 504.872 238.982C504.924 238.984 504.976 238.972 505.021 238.946C505.066 238.92 505.104 238.882 505.128 238.837C505.153 238.791 505.165 238.739 505.162 238.687C505.159 238.635 505.142 238.585 505.112 238.542C493.972 223.182 491.282 201.652 501.142 184.872C501.269 184.662 501.326 184.417 501.306 184.172C501.287 183.926 501.191 183.692 501.032 183.502C491.232 171.932 487.392 153.782 493.702 139.792C493.735 139.72 493.752 139.641 493.751 139.561C493.75 139.481 493.732 139.402 493.698 139.329C493.664 139.256 493.615 139.191 493.553 139.138C493.492 139.085 493.42 139.046 493.342 139.022C482.382 135.989 471.786 131.556 461.552 125.722C452.232 120.412 444.692 115.632 438.522 107.992C432.222 100.182 428.552 88.8124 435.232 80.2324C442.452 70.9724 457.592 71.9424 467.992 74.3624C468.074 74.38 468.159 74.3733 468.237 74.3432C468.315 74.3131 468.383 74.2609 468.432 74.1929C468.481 74.125 468.509 74.0443 468.512 73.9607C468.516 73.8771 468.495 73.7943 468.452 73.7224C463.706 65.789 460.409 57.2557 458.562 48.1224C456.462 37.7424 457.892 22.9824 467.132 15.8024C484.632 2.23239 504.252 23.3324 513.082 36.8624C513.133 36.9391 513.206 36.999 513.291 37.0348C513.376 37.0705 513.47 37.0805 513.56 37.0634C513.651 37.0464 513.734 37.003 513.801 36.9388C513.867 36.8746 513.913 36.7924 513.932 36.7024C515.579 29.0824 518.116 21.6991 521.542 14.5524C524.932 7.47239 530.782 1.42239 538.692 0.242393C550.882 -1.57761 559.342 7.11239 563.962 17.5524C569.672 30.4524 570.622 46.0424 569.102 60.1024C567.602 73.9224 564.392 86.9524 559.472 99.1924C559.449 99.2507 559.439 99.3139 559.444 99.3767C559.449 99.4396 559.469 99.5002 559.502 99.5539C559.536 99.6075 559.581 99.6525 559.635 99.6853C559.689 99.718 559.749 99.7376 559.812 99.7424C563.586 100.036 567.096 100.926 570.342 102.412C583.642 108.522 593.742 120.252 595.482 135.032C595.503 135.21 595.581 135.377 595.706 135.505C595.831 135.634 595.995 135.717 596.172 135.742C604.839 136.956 612.736 140.386 619.862 146.032C632.889 156.366 640.142 170.012 641.622 186.972C641.642 187.186 641.741 187.385 641.898 187.529C642.055 187.673 642.26 187.753 642.472 187.752H648.842C648.986 187.753 649.126 187.703 649.237 187.612C649.348 187.521 649.424 187.394 649.452 187.252C650.226 183.239 650.966 180.452 651.672 178.892C656.242 168.742 664.202 157.702 673.712 152.102C682.292 147.036 692.112 144.902 703.172 145.702C723.612 147.172 735.602 167.592 736.062 186.412C736.063 186.456 736.076 186.499 736.1 186.535C736.125 186.571 736.159 186.6 736.198 186.618C736.238 186.636 736.282 186.642 736.326 186.636C736.369 186.629 736.409 186.611 736.442 186.582C739.356 184.096 742.722 181.802 746.542 179.702C753.422 175.932 760.182 172.702 767.882 172.762C781.012 172.852 791.552 183.232 795.412 195.052C798.912 205.812 799.559 216.916 797.352 228.362C797.332 228.466 797.348 228.574 797.398 228.667C797.447 228.761 797.527 228.834 797.625 228.875C797.722 228.916 797.831 228.922 797.933 228.893C798.034 228.863 798.122 228.799 798.182 228.712C813.416 206.746 832.262 188.582 854.722 174.222C881.342 157.202 910.646 149.236 942.632 150.322C962.826 151.009 980.929 156.289 996.942 166.162C1020.45 180.672 1036.58 204.902 1043.5 231.702C1048.98 252.902 1049.68 274.232 1048.63 296.062C1047.76 314.196 1044.69 332.409 1039.42 350.702C1033.86 370.009 1025.58 387.796 1014.56 404.062ZM503.302 104.852C502.129 106.506 500.389 107.006 498.082 106.352C492.872 103.662 490.062 98.7424 485.482 96.2924C474.992 90.6624 464.572 85.7224 452.692 86.4724C448.232 86.7524 444.032 88.1424 445.262 93.3924C445.722 95.3724 446.752 97.2891 448.352 99.1424C449.886 101.422 451.352 103.122 452.752 104.242C464.819 113.876 478.306 120.876 493.212 125.242C497.099 126.382 501.016 127.442 504.962 128.422C505.425 128.541 505.865 128.741 506.262 129.012L508.102 130.282C511.432 133.092 510.512 137.662 508.322 140.802C505.636 143.749 504.032 146.956 503.512 150.422C502.242 158.922 504.642 170.502 511.812 176.232C514.126 178.079 515.596 179.346 516.222 180.032C518.342 182.322 519.062 185.632 516.622 187.872C515.152 189.222 513.152 190.482 511.922 192.152C509.162 195.879 507.686 200.556 507.492 206.182C507.192 215.196 509.542 223.202 514.542 230.202C518.682 235.992 525.952 241.582 532.092 243.672C541.686 246.939 548.982 249.726 553.982 252.032C566.269 257.706 577.909 264.976 588.902 273.842C596.102 279.649 602.466 286.696 607.992 294.982C617.862 309.762 623.712 332.142 611.572 347.162C611.428 347.341 611.349 347.563 611.349 347.792C611.349 348.022 611.428 348.244 611.572 348.422C616.482 354.402 619.532 361.822 619.892 369.842C620.452 382.272 618.382 393.152 611.392 403.732C611.088 404.195 610.88 404.713 610.778 405.257C610.677 405.802 610.685 406.361 610.802 406.902C612.122 412.916 612.376 419.149 611.562 425.602C611.262 428.042 611.522 428.512 613.142 430.082C620.092 436.812 629.812 441.092 639.412 438.892C640.212 438.712 642.386 438.016 645.932 436.802C646.283 436.683 646.653 436.633 647.022 436.652C651.132 436.882 655.112 440.482 657.452 441.822C670.362 449.222 685.932 447.202 695.832 435.802C697.479 433.909 699.196 431.796 700.982 429.462C702.289 427.762 704.009 426.869 706.142 426.782C710.982 426.582 714.802 427.002 719.382 425.592C725.349 423.766 730.302 419.822 734.242 413.762C740.682 403.882 744.762 390.122 739.822 379.432C739.032 377.732 738.512 375.822 739.142 374.362C741.542 368.816 743.386 363.909 744.672 359.642C748.342 347.462 745.192 334.772 740.442 323.302C737.342 315.822 732.842 309.242 725.992 305.302C725.667 305.116 725.321 304.965 724.962 304.852C722.382 304.046 720.776 303.246 720.142 302.452C718.802 300.786 718.162 299.329 718.222 298.082C718.502 292.189 718.472 286.782 718.132 281.862C718.079 281.122 717.769 280.036 717.202 278.602C716.122 270.942 711.862 264.682 704.422 259.822C698.169 255.749 691.116 253.242 683.262 252.302C677.822 251.642 673.852 250.762 674.442 244.702C675.032 238.592 675.592 231.832 674.062 226.352C670.742 214.472 662.432 206.852 651.402 202.122C648.709 200.969 646.606 200.409 645.092 200.442C639.252 200.572 634.022 201.592 631.052 197.802C630.472 197.069 630.119 195.066 629.992 191.792C629.719 184.679 627.999 177.869 624.832 171.362C619.292 160.002 606.832 149.062 593.172 149.372C589.306 149.459 587.006 149.309 586.272 148.922C583.686 147.529 582.559 145.356 582.892 142.402C583.886 133.529 581.349 126.239 575.282 120.532C570.042 115.612 563.966 112.619 557.052 111.552C556.106 111.412 554.009 111.329 550.762 111.302C548.589 111.289 546.492 111.146 544.472 110.872C542.326 108.326 541.889 105.749 543.162 103.142C547.192 94.8924 551.002 86.8924 552.822 77.8324C556.242 64.9391 557.316 51.8724 556.042 38.6324C555.396 31.9457 553.736 25.8791 551.062 20.4324C549.352 16.9524 544.892 12.7424 540.542 13.9724C535.722 15.3324 533.342 19.5024 531.442 24.1924C529.569 28.8124 528.146 33.469 527.172 38.1624C526.266 42.529 525.739 47.3657 525.592 52.6724C525.499 55.9191 525.326 63.2257 525.072 74.5924C525.012 77.4524 522.552 79.7324 519.752 78.2324C516.612 76.5524 515.542 72.1024 514.722 69.5224C511.922 60.6624 508.132 52.6624 503.352 45.5224C497.922 37.4024 492.502 30.2924 484.352 26.3124C476.462 22.4624 471.242 29.8124 470.952 36.9224C470.659 44.1024 472.146 51.089 475.412 57.8824C479.732 66.8557 485.166 75.7457 491.712 84.5524C493.826 87.3857 497.686 92.4424 503.292 99.7224C504.359 101.109 504.362 102.819 503.302 104.852ZM319.312 439.712C319.446 439.579 319.534 439.407 319.563 439.222C319.591 439.036 319.56 438.847 319.472 438.682C315.659 431.242 313.682 423.446 313.542 415.292C313.469 411.012 314.189 404.769 315.702 396.562C317.096 389.009 318.642 382.922 320.342 378.302C330.889 349.562 346.206 323.796 366.292 301.002C374.559 291.622 384.479 282.632 396.052 274.032C405.439 267.059 414.886 261.029 424.392 255.942C425.212 255.5 425.824 254.748 426.092 253.852C427.732 248.259 427.932 242.599 426.692 236.872C424.252 225.612 416.462 214.282 404.152 212.922C402.219 212.709 400.689 211.639 399.562 209.712C398.902 208.572 398.832 206.676 399.352 204.022C402.802 186.452 396.192 168.082 379.102 161.282C373.789 159.169 368.372 158.592 362.852 159.552C358.792 160.262 355.502 157.262 355.332 153.112C354.522 133.132 337.722 119.092 317.882 122.582C314.732 123.142 310.082 126.042 307.022 124.452C305.396 123.612 304.012 122.249 302.872 120.362C291.532 101.702 268.462 95.1524 249.252 106.302C244.852 108.852 239.892 115.762 234.742 111.882C227.616 106.509 219.712 104.706 211.032 106.472C199.079 108.906 190.242 115.332 184.522 125.752C181.282 131.662 177.342 129.552 172.542 127.552C165.032 124.422 155.862 125.432 148.792 128.792C137.706 134.066 130.382 142.662 126.822 154.582C125.652 158.472 126.612 162.652 121.902 164.472C121.062 164.792 119.386 164.819 116.872 164.552C107.802 163.592 99.3423 166.872 92.7823 173.632C85.289 181.352 81.439 190.932 81.2323 202.372C81.199 204.179 81.259 207.092 81.4123 211.112C81.6123 216.262 77.8223 217.132 73.7823 217.772C67.2323 218.812 61.3723 222.102 56.7523 227.022C47.619 236.776 44.2556 248.406 46.6623 261.912C47.0156 263.892 47.5356 265.856 48.2223 267.802C49.1223 270.329 49.4223 272.149 49.1223 273.262C48.5556 275.362 47.4256 276.769 45.7323 277.482C39.839 279.969 35.129 283.822 31.6023 289.042C23.8423 300.536 22.1456 312.866 26.5123 326.032C27.4523 328.886 29.019 331.712 31.2123 334.512C32.4123 336.039 32.8356 337.912 32.4823 340.132C32.3356 341.066 31.199 342.576 29.0723 344.662C24.459 349.196 21.539 354.636 20.3123 360.982C17.359 376.349 21.5823 388.889 32.9823 398.602C34.6723 400.042 36.1823 401.602 36.2523 403.562C36.6423 415.192 41.1623 426.002 50.5623 432.862C59.6023 439.456 69.959 440.662 81.6323 436.482C84.1256 435.589 86.5723 436.172 88.9723 438.232C89.1515 438.385 89.3097 438.563 89.4423 438.762C95.7023 448.102 103.752 453.952 115.122 454.822C125.612 455.622 132.102 451.832 139.772 445.512C141.646 443.966 143.822 443.429 146.302 443.902C147.409 444.109 149.262 445.379 151.862 447.712C163.852 458.482 183.932 459.412 196.332 449.062C198.659 447.116 200.252 445.849 201.112 445.262C205.312 442.382 208.232 444.622 212.112 447.812C217.779 452.479 224.622 454.946 232.642 455.212C244.396 455.606 254.082 451.526 261.702 442.972C267.932 435.962 272.832 442.902 279.022 445.352C291.662 450.362 309.102 449.912 319.312 439.712ZM691.882 241.212C697.176 242.726 702.349 244.696 707.402 247.122C724.962 255.552 731.822 273.982 731.092 292.622C731.083 292.92 731.15 293.214 731.287 293.478C731.423 293.743 731.625 293.968 731.872 294.132C741.019 300.192 747.619 308.339 751.672 318.572C754.252 325.092 756.116 331.222 757.262 336.962C759.609 348.722 758.446 360.219 753.772 371.452C753.721 371.579 753.701 371.716 753.714 371.852C753.726 371.988 753.771 372.12 753.844 372.235C753.918 372.35 754.017 372.447 754.135 372.516C754.253 372.585 754.386 372.625 754.522 372.632C758.236 372.819 761.636 371.822 764.722 369.642C766.802 368.172 769.172 366.472 770.572 364.612C770.995 364.055 771.286 363.409 771.421 362.723C771.556 362.036 771.533 361.328 771.352 360.652C767.406 345.759 766.226 330.606 767.812 315.192C769.219 301.539 771.886 288.306 775.812 275.492C777.266 270.739 779.229 265.122 781.702 258.642L784.282 253.372C784.329 253.272 784.35 253.162 784.342 253.051C784.334 252.941 784.298 252.835 784.238 252.743C784.177 252.651 784.094 252.577 783.997 252.528C783.9 252.479 783.791 252.456 783.682 252.462C777.302 252.762 775.092 250.572 777.872 244.362C781.039 237.316 783.152 231.839 784.212 227.932C787.212 216.922 786.772 195.572 776.142 188.542C772.102 185.872 767.972 184.882 763.382 186.362C755.582 188.889 748.682 192.909 742.682 198.422C738.836 201.949 735.382 204.986 732.322 207.532C727.482 211.562 723.802 206.362 723.842 201.862C723.862 199.509 723.666 194.109 723.252 185.662C722.792 176.196 719.336 168.526 712.882 162.652C710.652 160.612 707.662 158.912 704.742 158.512C698.049 157.599 691.282 158.432 684.442 161.012C677.742 163.532 672.722 168.832 668.532 174.532C664.852 179.526 662.529 185.056 661.562 191.122C661.476 191.643 661.548 192.178 661.769 192.659C661.99 193.139 662.35 193.545 662.802 193.822C673.172 200.182 681.002 207.482 684.912 219.382C687.179 226.269 687.966 232.922 687.272 239.342C687.245 239.608 687.318 239.875 687.477 240.089C687.636 240.304 687.87 240.451 688.132 240.502L691.882 241.212ZM816.612 417.862C848.802 450.142 896.982 459.382 939.662 445.062C971.756 434.302 996.176 413.409 1012.92 382.382C1026.91 356.472 1034.6 325.822 1036.11 296.602C1036.57 287.642 1036.57 277.479 1036.09 266.112C1035.62 254.692 1033.9 243.679 1030.92 233.072C1026.73 218.112 1019.57 204.762 1009.45 193.022C988.182 168.332 954.352 160.102 923.592 163.582C897.106 166.576 873.172 175.882 851.792 191.502C810.092 221.952 783.032 268.242 780.102 320.082C778.072 356.122 791.392 392.562 816.612 417.862ZM589.012 290.862L578.572 281.462C570.726 275.542 562.922 270.676 555.162 266.862C546.622 262.722 537.852 259.139 528.852 256.112C522.859 254.099 517.452 253.022 512.632 252.882C509.326 251.969 505.909 251.486 502.382 251.432C488.469 251.206 477.226 251.886 468.652 253.472C463.399 254.446 459.082 255.522 455.702 256.702C449.169 258.996 440.862 262.436 430.782 267.022C419.936 271.956 408.979 279.172 397.912 288.672C382.802 301.652 369.122 315.512 358.502 330.942C345.396 349.996 335.649 370.672 329.262 392.972C328.109 396.999 327.222 401.642 326.602 406.902C324.982 420.602 328.222 432.342 336.322 442.122C339.922 446.469 345.079 450.802 351.792 455.122C369.482 466.502 390.112 474.252 410.572 477.992C416.982 479.162 423.132 479.362 429.082 478.972C439.502 478.286 448.676 474.489 456.602 467.582C465.849 459.529 474.262 449.776 481.842 438.322C492.449 422.309 503.079 407.532 513.732 393.992C524.092 380.826 536.496 370.392 550.942 362.692C559.856 357.946 570.139 353.759 581.792 350.132C591.592 347.082 605.002 342.802 606.212 330.732C607.652 316.312 599.082 301.082 589.012 290.862ZM340.982 463.892C341.716 475.952 347.312 485.089 357.772 491.302C361.506 493.529 366.592 494.816 373.032 495.162C373.464 495.189 373.888 495.273 374.292 495.412C376.319 496.092 377.702 496.832 378.442 497.632C380.282 499.642 382.242 503.792 384.682 506.092C390.916 511.972 398.659 514.839 407.912 514.692C409.186 514.672 411.926 514.379 416.132 513.812C416.51 513.766 416.891 513.773 417.262 513.832C421.862 514.592 425.672 518.382 428.052 519.702C435.452 523.802 444.182 524.982 452.132 522.032C454.072 521.319 455.619 520.882 456.772 520.722C457.598 520.61 458.434 520.661 459.232 520.872C463.506 521.999 467.052 522.652 469.872 522.832C479.626 523.452 488.049 520.292 495.142 513.352C495.709 512.799 497.462 510.726 500.402 507.132C501.789 505.439 503.202 504.579 504.642 504.552C518.789 504.266 529.612 498.016 537.112 485.802C538.606 483.376 539.692 481.396 540.372 479.862C541.832 476.592 544.052 474.182 547.302 473.742C558.882 472.176 567.222 466.019 572.322 455.272C574.312 451.092 574.082 445.692 579.852 444.572C585.526 443.472 590.059 440.746 593.452 436.392C597.359 431.372 599.476 425.836 599.802 419.782C599.876 418.516 599.676 415.932 599.202 412.032C598.582 406.922 598.292 401.042 600.712 397.572C606.732 388.959 609.072 379.266 607.732 368.492C607.139 363.666 605.146 359.502 601.752 356.002C601.537 355.78 601.253 355.638 600.946 355.598C600.639 355.558 600.327 355.623 600.062 355.782C592.542 360.342 586.222 361.872 575.272 365.502C571.632 366.709 566.036 369.199 558.482 372.972C544.916 379.752 533.332 389.082 523.732 400.962C511.462 416.162 503.682 427.962 489.302 449.002C483.082 458.102 476.722 465.202 469.382 472.592C462.849 479.152 455.509 484.236 447.362 487.842C433.672 493.892 417.912 492.492 403.782 489.432C381.436 484.606 360.796 475.922 341.862 463.382C341.774 463.325 341.671 463.293 341.566 463.29C341.461 463.288 341.357 463.314 341.266 463.367C341.174 463.42 341.1 463.497 341.05 463.59C341 463.682 340.976 463.787 340.982 463.892Z" fill="#553630"/>
<path d="M552.822 77.8324L550.532 77.8124C550.38 77.8089 550.228 77.8448 550.094 77.9166C549.959 77.9884 549.845 78.0937 549.762 78.2224C542.582 89.3691 532.756 96.9724 520.282 101.032C515.169 102.699 509.509 103.972 503.302 104.852C504.362 102.819 504.359 101.109 503.292 99.7224C497.686 92.4424 493.826 87.3857 491.712 84.5524C485.166 75.7457 479.732 66.8557 475.412 57.8824C472.146 51.0891 470.659 44.1024 470.952 36.9224C471.242 29.8124 476.462 22.4624 484.352 26.3124C492.502 30.2924 497.922 37.4024 503.352 45.5224C508.132 52.6624 511.922 60.6624 514.722 69.5224C515.542 72.1024 516.612 76.5524 519.752 78.2324C522.552 79.7324 525.012 77.4524 525.072 74.5924C525.326 63.2257 525.499 55.9191 525.592 52.6724C525.739 47.3657 526.266 42.5291 527.172 38.1624C528.146 33.4691 529.569 28.8124 531.442 24.1924C533.342 19.5024 535.722 15.3324 540.542 13.9724C544.892 12.7424 549.352 16.9524 551.062 20.4324C553.736 25.8791 555.396 31.9457 556.042 38.6324C557.316 51.8724 556.242 64.9391 552.822 77.8324Z" fill="black"/>
<path d="M552.822 77.8322C551.002 86.8922 547.192 94.8922 543.162 103.142C541.888 105.749 542.325 108.326 544.472 110.872C543.925 110.906 543.382 111.029 542.842 111.242C542.162 111.516 541.632 111.682 541.252 111.742C537.912 112.316 533.798 113.606 528.912 115.612C521.252 118.759 515.142 123.402 510.582 129.542C510.497 129.657 510.384 129.747 510.254 129.804C510.124 129.86 509.981 129.88 509.842 129.862C508.842 129.742 508.262 129.882 508.102 130.282L506.262 129.012C505.865 128.741 505.425 128.541 504.962 128.422C501.015 127.442 497.098 126.382 493.212 125.242C478.305 120.876 464.818 113.876 452.752 104.242C451.352 103.122 449.885 101.422 448.352 99.1422C454.005 100.576 463.058 102.686 475.512 105.472C483.238 107.192 490.762 107.486 498.082 106.352C500.388 107.006 502.128 106.506 503.302 104.852C509.508 103.972 515.168 102.699 520.282 101.032C532.755 96.9722 542.582 89.3689 549.762 78.2222C549.844 78.0935 549.958 77.9882 550.093 77.9164C550.228 77.8446 550.379 77.8087 550.532 77.8122L552.822 77.8322Z" fill="black"/>
<path d="M498.082 106.352C490.762 107.485 483.239 107.192 475.512 105.472C463.059 102.685 454.005 100.575 448.352 99.1421C446.752 97.2888 445.722 95.3721 445.262 93.3921C444.032 88.1421 448.232 86.7521 452.692 86.4721C464.572 85.7221 474.992 90.6621 485.482 96.2921C490.062 98.7421 492.872 103.662 498.082 106.352Z" fill="black"/>
<path d="M319.312 439.712C309.102 449.912 291.662 450.362 279.022 445.352C272.832 442.902 267.932 435.962 261.702 442.972C254.082 451.526 244.395 455.606 232.642 455.212C224.622 454.946 217.779 452.479 212.112 447.812C208.232 444.622 205.312 442.382 201.112 445.262C200.252 445.849 198.659 447.116 196.332 449.062C183.932 459.412 163.852 458.482 151.862 447.712C149.262 445.379 147.409 444.109 146.302 443.902C143.822 443.429 141.645 443.966 139.772 445.512C132.102 451.832 125.612 455.622 115.122 454.822C103.752 453.952 95.7019 448.102 89.4419 438.762C89.3093 438.563 89.1511 438.385 88.9719 438.232C86.5719 436.172 84.1252 435.589 81.6319 436.482C69.9586 440.662 59.6019 439.456 50.5619 432.862C41.1619 426.002 36.6419 415.192 36.2519 403.562C36.1819 401.602 34.6719 400.042 32.9819 398.602C21.5819 388.889 17.3586 376.349 20.3119 360.982C21.5386 354.636 24.4586 349.196 29.0719 344.662C31.1986 342.576 32.3352 341.066 32.4819 340.132C32.8352 337.912 32.4119 336.039 31.2119 334.512C29.0186 331.712 27.4519 328.886 26.5119 326.032C22.1452 312.866 23.8419 300.536 31.6019 289.042C35.1286 283.822 39.8386 279.969 45.7319 277.482C47.4252 276.769 48.5552 275.362 49.1219 273.262C49.4219 272.149 49.1219 270.329 48.2219 267.802C47.5352 265.856 47.0152 263.892 46.6619 261.912C44.2552 248.406 47.6186 236.776 56.7519 227.022C61.3719 222.102 67.2319 218.812 73.7819 217.772C77.8219 217.132 81.6119 216.262 81.4119 211.112C81.2586 207.092 81.1986 204.179 81.2319 202.372C81.4386 190.932 85.2886 181.352 92.7819 173.632C99.3419 166.872 107.802 163.592 116.872 164.552C119.385 164.819 121.062 164.792 121.902 164.472C126.612 162.652 125.652 158.472 126.822 154.582C130.382 142.662 137.705 134.066 148.792 128.792C155.862 125.432 165.032 124.422 172.542 127.552C177.342 129.552 181.282 131.662 184.522 125.752C190.242 115.332 199.079 108.906 211.032 106.472C219.712 104.706 227.615 106.509 234.742 111.882C239.892 115.762 244.852 108.852 249.252 106.302C268.462 95.1523 291.532 101.702 302.872 120.362C304.012 122.249 305.395 123.612 307.022 124.452C310.082 126.042 314.732 123.142 317.882 122.582C337.722 119.092 354.522 133.132 355.332 153.112C355.502 157.262 358.792 160.262 362.852 159.552C368.372 158.592 373.789 159.169 379.102 161.282C396.192 168.082 402.802 186.452 399.352 204.022C398.832 206.676 398.902 208.572 399.562 209.712C400.689 211.639 402.219 212.709 404.152 212.922C416.462 214.282 424.252 225.612 426.692 236.872C427.932 242.599 427.732 248.259 426.092 253.852C425.824 254.748 425.212 255.5 424.392 255.942C414.885 261.029 405.439 267.059 396.052 274.032C384.479 282.632 374.559 291.622 366.292 301.002C346.205 323.796 330.889 349.562 320.342 378.302C318.642 382.922 317.095 389.009 315.702 396.562C314.189 404.769 313.469 411.012 313.542 415.292C313.682 423.446 315.659 431.242 319.472 438.682C319.559 438.847 319.591 439.036 319.562 439.222C319.533 439.407 319.446 439.579 319.312 439.712ZM370.392 294.122C371.132 293.629 372.412 292.356 374.232 290.302C375.245 289.156 376.559 287.912 378.172 286.572C387.112 279.179 393.399 274.079 397.032 271.272C403.792 266.066 411.879 260.902 421.292 255.782C423.192 254.742 424.359 253.559 424.792 252.232C428.232 241.632 424.532 229.732 417.312 221.382C414.165 217.736 410.032 215.452 404.912 214.532C398.622 213.402 397.252 208.992 397.842 202.842C398.549 195.429 398.545 189.699 397.832 185.652C397.359 182.979 395.805 179.302 393.172 174.622C392.973 174.278 392.72 173.974 392.422 173.722C390.989 172.516 389.432 171.039 387.752 169.292C384.182 165.562 380.062 163.732 374.632 161.692C372.372 160.842 370.132 160.932 368.232 161.462C368.148 161.488 368.072 161.534 368.012 161.597C367.951 161.66 367.908 161.738 367.887 161.822C367.865 161.906 367.867 161.993 367.89 162.076C367.914 162.159 367.96 162.233 368.022 162.292C373.909 167.899 377.622 174.759 379.162 182.872C380.872 191.852 377.282 199.582 372.352 206.962C372.25 207.112 372.2 207.292 372.209 207.474C372.218 207.656 372.286 207.831 372.402 207.972C374.822 210.882 378.352 213.782 381.112 217.292C389.432 227.906 390.795 239.932 385.202 253.372C382.335 260.259 378.052 265.742 372.352 269.822C370.785 270.949 369.725 271.719 369.172 272.132C368.81 272.404 368.529 272.768 368.36 273.186C368.191 273.604 368.14 274.059 368.212 274.502C369.385 281.816 369.829 288.196 369.542 293.642C369.538 293.744 369.562 293.846 369.612 293.935C369.661 294.025 369.735 294.099 369.823 294.148C369.911 294.198 370.011 294.222 370.112 294.218C370.212 294.213 370.309 294.18 370.392 294.122ZM295.855 251.523C290.019 251.36 284.345 254.005 280.08 258.876C275.814 263.747 273.308 270.446 273.111 277.498C273.013 280.989 273.485 284.463 274.501 287.72C275.517 290.977 277.055 293.953 279.029 296.479C281.003 299.006 283.374 301.032 286.006 302.443C288.638 303.853 291.48 304.621 294.369 304.702C300.204 304.865 305.879 302.22 310.144 297.349C314.409 292.477 316.916 285.779 317.113 278.727C317.211 275.235 316.738 271.762 315.723 268.505C314.707 265.248 313.168 262.271 311.194 259.745C309.22 257.219 306.85 255.193 304.218 253.782C301.586 252.371 298.744 251.603 295.855 251.523ZM160.742 306.052C172.402 305.742 179.682 296.352 180.952 285.352C181.942 276.652 179.862 267.392 173.872 260.642C169.532 255.756 164.689 253.382 159.342 253.522C153.995 253.662 149.289 256.289 145.222 261.402C139.592 268.462 138.012 277.822 139.462 286.462C141.312 297.372 149.082 306.362 160.742 306.052ZM227.562 311.672C222.662 311.692 214.262 308.972 211.772 304.192C210.672 302.092 209.872 298.552 208.222 297.332C203.062 293.512 198.802 299.002 199.912 304.162C202.542 316.352 215.932 323.142 227.622 323.072C239.322 323.012 252.632 316.082 255.132 303.862C256.182 298.692 251.872 293.252 246.752 297.122C245.112 298.362 244.352 301.912 243.282 304.022C240.832 308.832 232.462 311.642 227.562 311.672ZM27.8419 351.032C26.0086 352.552 24.8319 353.986 24.3119 355.332C22.1386 360.952 21.2619 367.052 21.6819 373.632C22.2119 381.992 24.6219 387.652 29.6119 393.142C32.3719 396.182 36.2319 399.372 37.3319 403.922C38.9719 410.682 39.7119 416.062 42.0819 420.742C47.4819 431.412 60.0219 438.962 72.2719 436.702C77.2619 435.782 83.0919 434.042 88.0219 436.512C91.1519 438.082 93.9619 442.832 96.3719 445.082C105.162 453.252 117.322 454.532 128.112 450.752C131.862 449.432 136.142 445.642 139.272 444.042C147.782 439.702 152.522 447.672 159.672 451.112C168.639 455.426 178.039 455.646 187.872 451.772C194.412 449.202 198.832 442.372 207.142 443.832C211.062 444.522 216.092 449.262 219.442 450.622C230.475 455.096 241.165 454.532 251.512 448.932C257.322 445.782 261.612 437.512 270.182 439.462C272.142 439.912 274.372 441.222 276.482 442.342C288.532 448.732 306.332 448.782 316.772 438.952C316.904 438.83 316.993 438.668 317.029 438.489C317.065 438.31 317.045 438.123 316.972 437.952C312.552 427.766 311.155 416.909 312.782 405.382C313.909 397.416 315.452 389.569 317.412 381.842C317.719 380.636 318.105 379.542 318.572 378.562C318.632 378.432 318.652 378.286 318.627 378.145C318.602 378.004 318.534 377.873 318.432 377.772C318.331 377.67 318.2 377.603 318.059 377.578C317.918 377.553 317.772 377.572 317.642 377.632C312.182 380.212 304.922 383.102 299.372 382.862C296.379 382.736 293.889 382.762 291.902 382.942C291.557 382.975 291.229 383.105 290.954 383.317C290.68 383.529 290.471 383.816 290.352 384.142C288.212 389.969 284.762 395.092 280.002 399.512C267.582 411.052 249.232 410.472 235.762 401.092C235.398 400.837 234.956 400.719 234.514 400.757C234.071 400.795 233.656 400.988 233.342 401.302C225.862 408.772 217.852 414.772 206.532 415.172C196.152 415.532 187.205 411.769 179.692 403.882C179.487 403.668 179.206 403.544 178.91 403.536C178.614 403.529 178.327 403.639 178.112 403.842C175.905 405.942 174.099 407.712 172.692 409.152C164.962 417.072 152.772 420.682 141.942 415.852C135.122 412.822 130.442 407.782 126.102 401.592C126.02 401.473 125.913 401.373 125.789 401.298C125.665 401.223 125.526 401.176 125.383 401.159C125.239 401.142 125.093 401.156 124.955 401.199C124.817 401.243 124.69 401.316 124.582 401.412C120.172 405.402 116.512 407.992 110.362 410.232C98.1819 414.662 85.5519 410.872 78.0419 400.232C75.0086 395.932 73.1086 391.472 72.3419 386.852C72.3232 386.738 72.281 386.629 72.218 386.531C72.155 386.434 72.0725 386.351 71.9757 386.287C71.879 386.223 71.7701 386.18 71.6558 386.16C71.5416 386.14 71.4245 386.145 71.3119 386.172C68.4519 386.892 65.4219 389.012 62.1019 389.562C53.3952 390.989 45.7586 388.462 39.1919 381.982C31.0519 373.942 28.4919 362.632 28.2919 351.242C28.2897 351.191 28.2734 351.142 28.245 351.099C28.2166 351.056 28.177 351.022 28.1306 351.001C28.0842 350.979 28.0328 350.971 27.9819 350.976C27.931 350.982 27.8826 351.001 27.8419 351.032Z" fill="black"/>
<path d="M717.202 278.602C713.988 284.575 710.342 289.189 706.262 292.442C704.782 293.622 703.575 294.549 702.642 295.222C695.912 300.072 685.462 302.082 677.422 302.042C672.462 302.022 668.562 299.172 665.162 296.032C664.665 295.575 664.055 295.261 663.395 295.122C662.735 294.983 662.05 295.024 661.412 295.242C660.992 295.382 658.928 296.155 655.222 297.562C650.912 299.202 645.262 297.292 639.772 295.142C639.1 294.879 638.498 294.465 638.012 293.932C634.952 290.579 632.545 286.955 630.792 283.062C630.748 282.966 630.683 282.88 630.602 282.812C630.522 282.743 630.427 282.693 630.325 282.666C630.223 282.638 630.116 282.633 630.011 282.652C629.907 282.67 629.808 282.711 629.722 282.772C627.195 284.539 624.688 285.835 622.202 286.662C618.422 287.912 614.592 286.072 611.482 283.912C610.315 283.099 608.555 281.022 606.202 277.682C604.068 274.635 601.902 270.855 599.702 266.342C599.241 265.4 598.49 264.633 597.562 264.152C593.042 261.832 586.792 258.272 583.762 254.252C580.455 249.872 578.242 245.209 577.122 240.262C576.292 236.622 577.052 231.182 576.842 228.612C576.83 228.469 576.774 228.333 576.683 228.224C576.592 228.115 576.469 228.037 576.332 228.002C576.085 227.942 575.828 228.072 575.562 228.392C575.308 228.699 574.915 228.922 574.382 229.062C571.782 229.775 569.328 230.559 567.022 231.412C560.572 233.812 550.452 234.662 544.882 229.662C541.582 226.702 539.202 223.629 537.742 220.442C537.437 219.78 537.241 219.074 537.162 218.352C536.422 211.592 536.178 207.029 536.432 204.662C537.338 196.182 539.238 187.999 542.132 180.112C542.217 179.882 542.254 179.637 542.243 179.392C542.231 179.147 542.17 178.907 542.064 178.685C541.957 178.464 541.808 178.267 541.624 178.105C541.439 177.943 541.224 177.819 540.992 177.742C538.905 177.042 535.895 175.875 531.962 174.242C527.412 172.342 523.362 169.422 520.042 166.692C514.728 162.325 511.465 156.569 510.252 149.422C509.758 146.509 509.115 143.635 508.322 140.802C510.512 137.662 511.432 133.092 508.102 130.282C508.262 129.882 508.842 129.742 509.842 129.862C509.981 129.88 510.124 129.86 510.254 129.803C510.384 129.747 510.497 129.657 510.582 129.542C515.142 123.402 521.252 118.759 528.912 115.612C533.798 113.605 537.912 112.315 541.252 111.742C541.632 111.682 542.162 111.515 542.842 111.242C543.382 111.029 543.925 110.905 544.472 110.872C546.492 111.145 548.588 111.289 550.762 111.302C554.008 111.329 556.105 111.412 557.052 111.552C563.965 112.619 570.042 115.612 575.282 120.532C581.348 126.239 583.885 133.529 582.892 142.402C582.558 145.355 583.685 147.529 586.272 148.922C587.005 149.309 589.305 149.459 593.172 149.372C606.832 149.062 619.292 160.002 624.832 171.362C627.998 177.869 629.718 184.679 629.992 191.792C630.118 195.065 630.472 197.069 631.052 197.802C634.022 201.592 639.252 200.572 645.092 200.442C646.605 200.409 648.708 200.969 651.402 202.122C662.432 206.852 670.742 214.472 674.062 226.352C675.592 231.832 675.032 238.592 674.442 244.702C673.852 250.762 677.822 251.642 683.262 252.302C691.115 253.242 698.168 255.749 704.422 259.822C711.862 264.682 716.122 270.942 717.202 278.602Z" fill="black"/>
<path d="M508.322 140.802C509.115 143.636 509.758 146.509 510.252 149.422C511.465 156.569 514.728 162.326 520.042 166.692C523.362 169.422 527.412 172.342 531.962 174.242C535.895 175.876 538.905 177.042 540.992 177.742C541.224 177.82 541.439 177.943 541.624 178.105C541.808 178.267 541.957 178.465 542.064 178.686C542.17 178.907 542.231 179.147 542.243 179.392C542.254 179.637 542.217 179.882 542.132 180.112C539.238 187.999 537.338 196.182 536.432 204.662C536.178 207.029 536.422 211.592 537.162 218.352C537.241 219.074 537.437 219.78 537.742 220.442C539.202 223.629 541.582 226.702 544.882 229.662C550.452 234.662 560.572 233.812 567.022 231.412C569.328 230.559 571.782 229.776 574.382 229.062C574.915 228.922 575.308 228.699 575.562 228.392C575.828 228.072 576.085 227.942 576.332 228.002C576.469 228.037 576.592 228.115 576.683 228.224C576.774 228.334 576.83 228.469 576.842 228.612C577.052 231.182 576.292 236.622 577.122 240.262C578.242 245.209 580.455 249.872 583.762 254.252C586.792 258.272 593.042 261.832 597.562 264.152C598.49 264.633 599.241 265.401 599.702 266.342C601.902 270.856 604.068 274.636 606.202 277.682C608.555 281.022 610.315 283.099 611.482 283.912C614.592 286.072 618.422 287.912 622.202 286.662C624.688 285.836 627.195 284.539 629.722 282.772C629.808 282.711 629.907 282.67 630.011 282.652C630.116 282.633 630.223 282.638 630.325 282.666C630.427 282.694 630.522 282.743 630.602 282.812C630.683 282.88 630.748 282.966 630.792 283.062C632.545 286.956 634.952 290.579 638.012 293.932C638.498 294.465 639.1 294.879 639.772 295.142C645.262 297.292 650.912 299.202 655.222 297.562C658.928 296.156 660.992 295.382 661.412 295.242C662.05 295.025 662.735 294.983 663.395 295.122C664.055 295.261 664.665 295.576 665.162 296.032C668.562 299.172 672.462 302.022 677.422 302.042C685.462 302.082 695.912 300.072 702.642 295.222C703.575 294.549 704.782 293.622 706.262 292.442C710.342 289.189 713.988 284.576 717.202 278.602C717.768 280.036 718.078 281.122 718.132 281.862C718.472 286.782 718.502 292.189 718.222 298.082C718.162 299.329 718.802 300.786 720.142 302.452C720.775 303.246 722.382 304.046 724.962 304.852C725.321 304.965 725.666 305.116 725.992 305.302C732.842 309.242 737.342 315.822 740.442 323.302C745.192 334.772 748.342 347.462 744.672 359.642C743.385 363.909 741.542 368.816 739.142 374.362C738.512 375.822 739.032 377.732 739.822 379.432C744.762 390.122 740.682 403.882 734.242 413.762C730.302 419.822 725.348 423.766 719.382 425.592C714.802 427.002 710.982 426.582 706.142 426.782C704.008 426.869 702.288 427.762 700.982 429.462C699.195 431.796 697.478 433.909 695.832 435.802C685.932 447.202 670.362 449.222 657.452 441.822C655.112 440.482 651.132 436.882 647.022 436.652C646.652 436.632 646.282 436.683 645.932 436.802C642.385 438.016 640.212 438.712 639.412 438.892C629.812 441.092 620.092 436.812 613.142 430.082C611.522 428.512 611.262 428.042 611.562 425.602C612.375 419.149 612.122 412.916 610.802 406.902C610.684 406.361 610.676 405.801 610.778 405.257C610.879 404.713 611.088 404.194 611.392 403.732C618.382 393.152 620.452 382.272 619.892 369.842C619.532 361.822 616.482 354.402 611.572 348.422C611.427 348.244 611.348 348.022 611.348 347.792C611.348 347.563 611.427 347.34 611.572 347.162C623.712 332.142 617.862 309.762 607.992 294.982C602.465 286.696 596.102 279.649 588.902 273.842C577.908 264.976 566.268 257.706 553.982 252.032C548.982 249.726 541.685 246.939 532.092 243.672C525.952 241.582 518.682 235.992 514.542 230.202C509.542 223.202 507.192 215.196 507.492 206.182C507.685 200.556 509.162 195.879 511.922 192.152C513.152 190.482 515.152 189.222 516.622 187.872C519.062 185.632 518.342 182.322 516.222 180.032C515.595 179.346 514.125 178.079 511.812 176.232C504.642 170.502 502.242 158.922 503.512 150.422C504.032 146.956 505.635 143.749 508.322 140.802Z" fill="black"/>
<path d="M781.702 258.642C773.929 262.062 766.172 264.076 758.432 264.682C753.052 265.102 748.392 265.322 743.742 263.282C743.476 263.165 743.253 262.967 743.104 262.716C742.956 262.466 742.888 262.174 742.912 261.882C743.472 255.102 745.382 250.092 748.682 242.862C751.752 236.132 753.492 231.572 755.432 225.412C755.952 223.772 756.212 222.329 756.212 221.082C756.213 220.731 756.116 220.387 755.933 220.087C755.75 219.787 755.488 219.544 755.175 219.385C754.862 219.225 754.511 219.155 754.161 219.183C753.811 219.211 753.476 219.335 753.192 219.542C747.805 223.476 742.805 228.596 738.192 234.902C737.025 236.489 733.485 239.626 727.572 244.312C727.432 244.424 727.268 244.503 727.093 244.543C726.918 244.583 726.737 244.583 726.562 244.542C716.882 242.272 710.872 231.922 708.112 222.812C706.292 216.802 704.052 211.462 702.462 205.332C701.122 200.142 699.022 194.562 693.612 192.602C693.461 192.55 693.299 192.534 693.141 192.557C692.983 192.579 692.832 192.64 692.702 192.732C689.242 195.162 687.692 201.642 686.862 205.842C685.712 211.612 684.472 214.282 685.802 218.472C688.192 225.982 689.752 230.702 689.322 237.972C689.313 238.127 689.335 238.283 689.388 238.431C689.442 238.579 689.524 238.715 689.632 238.832L691.882 241.212L688.132 240.502C687.87 240.451 687.636 240.304 687.477 240.089C687.318 239.875 687.244 239.608 687.272 239.342C687.965 232.922 687.179 226.269 684.912 219.382C681.002 207.482 673.172 200.182 662.802 193.822C662.349 193.545 661.989 193.14 661.768 192.659C661.547 192.178 661.476 191.643 661.562 191.122C662.529 185.056 664.852 179.526 668.532 174.532C672.722 168.832 677.742 163.532 684.442 161.012C691.282 158.432 698.049 157.599 704.742 158.512C707.662 158.912 710.652 160.612 712.882 162.652C719.335 168.526 722.792 176.196 723.252 185.662C723.665 194.109 723.862 199.509 723.842 201.862C723.802 206.362 727.482 211.562 732.322 207.532C735.382 204.986 738.835 201.949 742.682 198.422C748.682 192.909 755.582 188.889 763.382 186.362C767.972 184.882 772.102 185.872 776.142 188.542C786.772 195.572 787.212 216.922 784.212 227.932C783.152 231.839 781.039 237.316 777.872 244.362C775.092 250.572 777.302 252.762 783.682 252.462C783.791 252.456 783.899 252.479 783.997 252.528C784.094 252.577 784.177 252.652 784.237 252.743C784.298 252.835 784.334 252.941 784.341 253.051C784.349 253.162 784.329 253.272 784.282 253.372L781.702 258.642Z" fill="black"/>
<path d="M370.392 294.122C370.31 294.18 370.213 294.213 370.112 294.218C370.012 294.223 369.912 294.199 369.823 294.149C369.735 294.099 369.662 294.025 369.612 293.936C369.563 293.846 369.538 293.745 369.542 293.642C369.829 288.196 369.386 281.816 368.212 274.502C368.14 274.059 368.191 273.604 368.361 273.186C368.53 272.768 368.811 272.404 369.172 272.132C369.726 271.719 370.786 270.949 372.352 269.822C378.052 265.742 382.336 260.259 385.202 253.372C390.796 239.932 389.432 227.906 381.112 217.292C378.352 213.782 374.822 210.882 372.402 207.972C372.286 207.831 372.218 207.656 372.209 207.474C372.2 207.292 372.251 207.112 372.352 206.962C377.282 199.582 380.872 191.852 379.162 182.872C377.622 174.759 373.909 167.899 368.022 162.292C367.96 162.233 367.915 162.159 367.891 162.076C367.867 161.994 367.866 161.906 367.887 161.822C367.908 161.738 367.951 161.66 368.012 161.597C368.073 161.534 368.149 161.488 368.232 161.462C370.132 160.932 372.372 160.842 374.632 161.692C380.062 163.732 384.182 165.562 387.752 169.292C389.432 171.039 390.989 172.516 392.422 173.722C392.72 173.974 392.974 174.278 393.172 174.622C395.806 179.302 397.359 182.979 397.832 185.652C398.546 189.699 398.549 195.429 397.842 202.842C397.252 208.992 398.622 213.402 404.912 214.532C410.032 215.452 414.166 217.736 417.312 221.382C424.532 229.732 428.232 241.632 424.792 252.232C424.359 253.559 423.192 254.742 421.292 255.782C411.879 260.902 403.792 266.066 397.032 271.272C393.399 274.079 387.112 279.179 378.172 286.572C376.559 287.912 375.246 289.156 374.232 290.302C372.412 292.356 371.132 293.629 370.392 294.122Z" fill="black"/>
<path d="M781.702 258.642C779.228 265.122 777.265 270.739 775.812 275.492C771.885 288.306 769.218 301.539 767.812 315.192C766.225 330.606 767.405 345.759 771.352 360.652C771.532 361.328 771.556 362.036 771.42 362.723C771.285 363.409 770.995 364.055 770.572 364.612C769.172 366.472 766.802 368.172 764.722 369.642C761.635 371.822 758.235 372.819 754.522 372.632C754.385 372.625 754.253 372.585 754.135 372.516C754.017 372.446 753.917 372.35 753.844 372.235C753.77 372.119 753.726 371.988 753.713 371.852C753.701 371.716 753.721 371.579 753.772 371.452C758.445 360.219 759.608 348.722 757.262 336.962C756.115 331.222 754.252 325.092 751.672 318.572C747.618 308.339 741.018 300.192 731.872 294.132C731.624 293.968 731.423 293.742 731.286 293.478C731.15 293.214 731.083 292.919 731.092 292.622C731.822 273.982 724.962 255.552 707.402 247.122C702.349 244.696 697.175 242.726 691.882 241.212L689.632 238.832C689.524 238.715 689.442 238.579 689.388 238.431C689.335 238.283 689.312 238.127 689.322 237.972C689.752 230.702 688.192 225.982 685.802 218.472C684.472 214.282 685.712 211.612 686.862 205.842C687.692 201.642 689.242 195.162 692.702 192.732C692.832 192.639 692.983 192.579 693.141 192.556C693.299 192.534 693.461 192.55 693.612 192.602C699.022 194.562 701.122 200.142 702.462 205.332C704.052 211.462 706.292 216.802 708.112 222.812C710.872 231.922 716.882 242.272 726.562 244.542C726.737 244.582 726.918 244.583 727.093 244.543C727.268 244.503 727.432 244.424 727.572 244.312C733.485 239.626 737.025 236.489 738.192 234.902C742.805 228.596 747.805 223.476 753.192 219.542C753.475 219.335 753.811 219.211 754.161 219.183C754.511 219.155 754.862 219.225 755.175 219.384C755.488 219.544 755.75 219.787 755.933 220.087C756.116 220.386 756.213 220.731 756.212 221.082C756.212 222.329 755.952 223.772 755.432 225.412C753.492 231.572 751.752 236.132 748.682 242.862C745.382 250.092 743.472 255.102 742.912 261.882C742.888 262.174 742.956 262.465 743.104 262.716C743.253 262.967 743.476 263.165 743.742 263.282C748.392 265.322 753.052 265.102 758.432 264.682C766.172 264.076 773.928 262.062 781.702 258.642Z" fill="black"/>
<path d="M295.854 251.523C298.744 251.603 301.585 252.371 304.217 253.782C306.849 255.193 309.22 257.219 311.194 259.745C313.168 262.271 314.707 265.248 315.722 268.505C316.738 271.762 317.211 275.235 317.113 278.727C316.916 285.779 314.409 292.477 310.144 297.349C305.878 302.22 300.204 304.865 294.369 304.702C291.48 304.621 288.638 303.854 286.006 302.443C283.374 301.032 281.003 299.006 279.029 296.479C277.055 293.953 275.516 290.977 274.501 287.72C273.485 284.463 273.013 280.99 273.11 277.498C273.307 270.446 275.814 263.747 280.079 258.876C284.345 254.005 290.019 251.36 295.854 251.523ZM302.227 263.784C300.769 263.812 299.385 264.63 298.381 266.058C297.377 267.486 296.834 269.407 296.873 271.398C296.892 272.384 297.053 273.358 297.346 274.263C297.64 275.169 298.061 275.989 298.585 276.676C299.109 277.364 299.726 277.905 300.4 278.27C301.075 278.634 301.794 278.815 302.516 278.801C303.974 278.773 305.358 277.955 306.362 276.527C307.366 275.099 307.909 273.178 307.871 271.187C307.852 270.201 307.691 269.227 307.397 268.321C307.103 267.416 306.682 266.596 306.158 265.908C305.634 265.221 305.017 264.679 304.343 264.315C303.668 263.95 302.95 263.77 302.227 263.784Z" fill="#553630"/>
<path d="M512.632 252.882C507.339 255.562 502.052 257.915 496.772 259.942C491.146 262.095 487.059 263.849 484.512 265.202C466.499 274.769 449.629 286.229 433.902 299.582C428.302 304.332 422.952 310.532 417.432 315.362C413.132 319.112 410.552 322.682 406.322 327.402C401.132 333.212 396.162 340.892 391.902 346.312C388.812 350.262 386.552 354.582 383.482 359.032C381.269 362.232 379.202 365.436 377.282 368.642C369.136 382.256 362.252 396.642 356.632 411.802C356.619 411.849 354.656 417.145 350.742 427.692C350.658 427.919 350.648 428.167 350.714 428.401C350.781 428.634 350.92 428.842 351.112 428.992L359.682 435.732C359.786 435.811 359.91 435.859 360.041 435.871C360.171 435.882 360.301 435.856 360.416 435.796C360.531 435.736 360.626 435.644 360.689 435.532C360.752 435.419 360.781 435.291 360.772 435.162C360.639 433.375 360.812 431.735 361.292 430.242C364.012 421.729 366.702 414.549 369.362 408.702C372.712 401.322 376.872 390.032 381.632 382.362C387.512 372.882 392.096 365.442 395.382 360.042C398.936 354.189 402.596 348.995 406.362 344.462C414.936 334.155 423.189 325.032 431.122 317.092C435.782 312.432 445.472 303.412 453.132 297.782C458.152 294.102 462.062 290.532 466.652 287.702C473.312 283.602 480.322 279.972 485.522 276.882C499.962 268.302 515.262 263.032 531.902 259.632C532.223 259.567 532.558 259.591 532.872 259.702C535.039 260.449 539.759 262.525 547.032 265.932C549.559 267.119 552.269 267.429 555.162 266.862C562.922 270.675 570.726 275.542 578.572 281.462C563.352 286.535 553.789 289.925 549.882 291.632C535.649 297.859 524.079 303.612 515.172 308.892C512.666 310.379 506.522 314.532 496.742 321.352C491.232 325.192 485.042 331.152 480.522 334.772C475.752 338.592 472.492 342.312 467.582 346.802C464.842 349.295 461.632 352.839 457.952 357.432C444.032 374.802 431.952 393.462 423.262 413.222C420.662 419.132 417.902 424.162 416.062 430.132C414.222 436.072 412.002 442.579 409.402 449.652C409.136 450.385 408.652 451.049 407.952 451.642C407.895 451.69 407.852 451.753 407.828 451.824C407.805 451.895 407.802 451.971 407.82 452.043C407.838 452.114 407.876 452.179 407.929 452.228C407.983 452.278 408.05 452.311 408.122 452.322C412.616 453.169 416.789 453.249 420.642 452.562C420.805 452.534 420.952 452.449 421.058 452.323C421.164 452.197 421.222 452.037 421.222 451.872C421.236 449.952 421.802 447.379 422.922 444.152C425.762 435.952 429.162 425.562 433.772 416.272C437.419 408.912 441.559 401.202 446.192 393.142C450.039 386.449 454.382 379.735 459.222 373.002C464.902 365.122 472.552 358.122 478.042 352.002C480.816 348.915 484.172 345.609 488.112 342.082C498.666 332.655 510.436 324.072 523.422 316.332C527.796 313.725 533.292 310.869 539.912 307.762C549.612 303.202 555.252 300.622 556.832 300.022C563.792 297.382 574.519 294.329 589.012 290.862C599.082 301.082 607.652 316.312 606.212 330.732C605.002 342.802 591.592 347.082 581.792 350.132C570.139 353.759 559.856 357.945 550.942 362.692C536.496 370.392 524.092 380.825 513.732 393.992C503.079 407.532 492.449 422.309 481.842 438.322C474.262 449.775 465.849 459.529 456.602 467.582C448.676 474.489 439.502 478.285 429.082 478.972C423.132 479.362 416.982 479.162 410.572 477.992C390.112 474.252 369.482 466.502 351.792 455.122C345.079 450.802 339.922 446.469 336.322 442.122C328.222 432.342 324.982 420.602 326.602 406.902C327.222 401.642 328.109 396.999 329.262 392.972C335.649 370.672 345.396 349.995 358.502 330.942C369.122 315.512 382.802 301.652 397.912 288.672C408.979 279.172 419.936 271.955 430.782 267.022C440.862 262.435 449.169 258.996 455.702 256.702C459.082 255.522 463.399 254.445 468.652 253.472C477.226 251.885 488.469 251.205 502.382 251.432C505.909 251.485 509.326 251.969 512.632 252.882Z" fill="black"/>
<path d="M555.162 266.862C552.269 267.429 549.559 267.119 547.032 265.932C539.759 262.526 535.039 260.449 532.872 259.702C532.558 259.591 532.223 259.567 531.902 259.632C515.262 263.032 499.962 268.302 485.522 276.882C480.322 279.972 473.312 283.602 466.652 287.702C462.062 290.532 458.152 294.102 453.132 297.782C445.472 303.412 435.782 312.432 431.122 317.092C423.189 325.032 414.936 334.156 406.362 344.462C402.596 348.996 398.936 354.189 395.382 360.042C392.096 365.442 387.512 372.882 381.632 382.362C376.872 390.032 372.712 401.322 369.362 408.702C366.702 414.549 364.012 421.729 361.292 430.242C360.812 431.736 360.639 433.376 360.772 435.162C360.781 435.291 360.752 435.419 360.689 435.532C360.626 435.644 360.531 435.736 360.416 435.796C360.301 435.856 360.171 435.882 360.041 435.871C359.911 435.86 359.786 435.811 359.682 435.732L351.112 428.992C350.92 428.842 350.781 428.635 350.715 428.401C350.648 428.167 350.658 427.919 350.742 427.692C354.656 417.146 356.619 411.849 356.632 411.802C362.252 396.642 369.136 382.256 377.282 368.642C379.202 365.436 381.269 362.232 383.482 359.032C386.552 354.582 388.812 350.262 391.902 346.312C396.162 340.892 401.132 333.212 406.322 327.402C410.552 322.682 413.132 319.112 417.432 315.362C422.952 310.532 428.302 304.332 433.902 299.582C449.629 286.229 466.499 274.769 484.512 265.202C487.059 263.849 491.146 262.096 496.772 259.942C502.052 257.916 507.339 255.562 512.632 252.882C517.452 253.022 522.859 254.099 528.852 256.112C537.852 259.139 546.622 262.722 555.162 266.862Z" fill="#553630"/>
<path d="M159.341 253.522C164.688 253.382 169.531 255.756 173.871 260.643C179.861 267.393 181.941 276.652 180.951 285.352C179.681 296.352 172.401 305.742 160.741 306.052C149.081 306.362 141.311 297.372 139.461 286.462C138.011 277.822 139.591 268.462 145.221 261.402C149.288 256.289 153.995 253.662 159.341 253.522ZM168.239 265.633C166.887 265.616 165.58 266.358 164.607 267.695C163.635 269.031 163.075 270.853 163.052 272.76C163.04 273.704 163.161 274.641 163.406 275.516C163.652 276.392 164.018 277.189 164.483 277.862C164.949 278.536 165.504 279.072 166.119 279.441C166.733 279.81 167.394 280.004 168.064 280.012C169.416 280.028 170.722 279.287 171.695 277.95C172.668 276.614 173.228 274.792 173.251 272.885C173.262 271.941 173.142 271.004 172.896 270.129C172.651 269.253 172.285 268.456 171.819 267.783C171.354 267.109 170.798 266.573 170.184 266.204C169.57 265.835 168.909 265.641 168.239 265.633Z" fill="#553630"/>
<path d="M307.87 271.186C307.791 267.04 305.264 263.725 302.227 263.783C299.19 263.842 296.793 267.251 296.872 271.398C296.952 275.545 299.479 278.859 302.516 278.801C305.553 278.742 307.95 275.333 307.87 271.186Z" fill="black"/>
<path d="M173.252 272.884C173.3 268.914 171.057 265.667 168.24 265.633C165.424 265.598 163.101 268.789 163.053 272.76C163.004 276.73 165.248 279.977 168.064 280.012C170.881 280.046 173.203 276.855 173.252 272.884Z" fill="black"/>
<path d="M578.572 281.462L589.012 290.862C574.518 294.329 563.792 297.382 556.832 300.022C555.252 300.622 549.612 303.202 539.912 307.762C533.292 310.869 527.795 313.726 523.422 316.332C510.435 324.072 498.665 332.656 488.112 342.082C484.172 345.609 480.815 348.916 478.042 352.002C472.552 358.122 464.902 365.122 459.222 373.002C454.382 379.736 450.038 386.449 446.192 393.142C441.558 401.202 437.418 408.912 433.772 416.272C429.162 425.562 425.762 435.952 422.922 444.152C421.802 447.379 421.235 449.952 421.222 451.872C421.222 452.037 421.164 452.197 421.058 452.323C420.951 452.449 420.804 452.534 420.642 452.562C416.788 453.249 412.615 453.169 408.122 452.322C408.049 452.311 407.982 452.278 407.929 452.229C407.875 452.179 407.837 452.115 407.819 452.043C407.801 451.971 407.804 451.895 407.828 451.824C407.851 451.753 407.894 451.69 407.952 451.642C408.652 451.049 409.135 450.386 409.402 449.652C412.002 442.579 414.222 436.072 416.062 430.132C417.902 424.162 420.662 419.132 423.262 413.222C431.952 393.462 444.032 374.802 457.952 357.432C461.632 352.839 464.842 349.296 467.582 346.802C472.492 342.312 475.752 338.592 480.522 334.772C485.042 331.152 491.232 325.192 496.742 321.352C506.522 314.532 512.665 310.379 515.172 308.892C524.078 303.612 535.648 297.859 549.882 291.632C553.788 289.926 563.352 286.536 578.572 281.462Z" fill="#553630"/>
<path d="M792.942 378.942L793.212 378.862C793.244 378.853 793.278 378.856 793.309 378.868C793.34 378.881 793.366 378.903 793.382 378.932C796.909 385.212 801.329 390.692 806.642 395.372C816.102 403.702 825.362 411.122 836.972 415.502C854.362 422.072 875.662 426.272 894.592 424.472C899.162 424.042 908.052 423.362 914.562 421.872C925.909 419.272 936.366 415.536 945.932 410.662C956.562 405.242 968.162 398.292 977.492 389.892C984.632 383.459 991.009 376.942 996.622 370.342C1008.02 356.942 1017.09 341.932 1023.82 325.312C1026.29 319.219 1028.4 313.579 1030.14 308.392C1031.85 303.346 1033 298.469 1033.58 293.762C1033.58 293.683 1033.62 293.607 1033.67 293.552C1033.73 293.496 1033.81 293.466 1033.89 293.467C1033.97 293.469 1034.04 293.502 1034.1 293.559C1034.15 293.616 1034.18 293.693 1034.18 293.772C1034.52 298.772 1033.74 304.372 1033.4 308.892C1033.18 311.759 1032.96 313.896 1032.72 315.302C1029.99 331.749 1026.71 345.419 1022.88 356.312C1015.32 377.859 1003.97 396.692 988.842 412.812C985.202 416.692 980.462 420.829 974.622 425.222C955.742 439.432 931.082 447.932 908.462 449.692C898.729 450.446 888.336 449.869 877.282 447.962C844.852 442.352 818.792 423.662 801.252 396.252C800.112 394.479 798.672 391.689 796.932 387.882C795.626 385.029 794.232 382.199 792.752 379.392C792.731 379.351 792.72 379.305 792.718 379.259C792.716 379.212 792.725 379.166 792.743 379.123C792.761 379.08 792.788 379.042 792.823 379.011C792.857 378.98 792.898 378.956 792.942 378.942Z" fill="black"/>
<path d="M227.622 323.072C215.932 323.142 202.542 316.352 199.912 304.162C198.802 299.002 203.062 293.512 208.222 297.332C209.872 298.552 210.672 302.092 211.772 304.192C214.262 308.972 222.662 311.692 227.562 311.672C232.462 311.642 240.832 308.832 243.282 304.022C244.352 301.912 245.112 298.362 246.752 297.122C251.872 293.252 256.182 298.692 255.132 303.862C252.632 316.082 239.322 323.012 227.622 323.072Z" fill="#553630"/>
<path d="M28.2921 351.242C28.4921 362.632 31.0521 373.942 39.1921 381.982C45.7588 388.462 53.3954 390.989 62.1021 389.562C65.4221 389.012 68.4521 386.892 71.3121 386.172C71.4247 386.145 71.5418 386.14 71.656 386.16C71.7702 386.18 71.8792 386.223 71.9759 386.287C72.0727 386.351 72.1552 386.434 72.2182 386.531C72.2812 386.629 72.3234 386.738 72.3421 386.852C73.1088 391.472 75.0088 395.932 78.0421 400.232C85.5521 410.872 98.1821 414.662 110.362 410.232C116.512 407.992 120.172 405.402 124.582 401.412C124.69 401.316 124.817 401.243 124.955 401.199C125.093 401.156 125.239 401.142 125.383 401.159C125.527 401.176 125.665 401.224 125.789 401.298C125.913 401.373 126.02 401.473 126.102 401.592C130.442 407.782 135.122 412.822 141.942 415.852C152.772 420.682 164.962 417.072 172.692 409.152C174.099 407.712 175.905 405.942 178.112 403.842C178.327 403.639 178.614 403.529 178.91 403.536C179.206 403.544 179.488 403.668 179.692 403.882C187.205 411.769 196.152 415.532 206.532 415.172C217.852 414.772 225.862 408.772 233.342 401.302C233.656 400.989 234.071 400.795 234.514 400.757C234.956 400.719 235.398 400.837 235.762 401.092C249.232 410.472 267.582 411.052 280.002 399.512C284.762 395.092 288.212 389.969 290.352 384.142C290.471 383.816 290.68 383.529 290.955 383.317C291.229 383.105 291.558 382.975 291.902 382.942C293.889 382.762 296.379 382.736 299.372 382.862C304.922 383.102 312.182 380.212 317.642 377.632C317.772 377.572 317.918 377.553 318.059 377.578C318.201 377.603 318.331 377.67 318.432 377.772C318.534 377.873 318.602 378.004 318.627 378.145C318.652 378.287 318.633 378.432 318.572 378.562C318.105 379.542 317.719 380.636 317.412 381.842C315.452 389.569 313.909 397.416 312.782 405.382C311.155 416.909 312.552 427.766 316.972 437.952C317.045 438.123 317.065 438.31 317.029 438.489C316.994 438.668 316.904 438.83 316.772 438.952C306.332 448.782 288.532 448.732 276.482 442.342C274.372 441.222 272.142 439.912 270.182 439.462C261.612 437.512 257.322 445.782 251.512 448.932C241.165 454.532 230.475 455.096 219.442 450.622C216.092 449.262 211.062 444.522 207.142 443.832C198.832 442.372 194.412 449.202 187.872 451.772C178.039 455.646 168.639 455.426 159.672 451.112C152.522 447.672 147.782 439.702 139.272 444.042C136.142 445.642 131.862 449.432 128.112 450.752C117.322 454.532 105.162 453.252 96.3721 445.082C93.9621 442.832 91.1521 438.082 88.0221 436.512C83.0921 434.042 77.2621 435.782 72.2721 436.702C60.0221 438.962 47.4821 431.412 42.0821 420.742C39.7121 416.062 38.9721 410.682 37.3321 403.922C36.2321 399.372 32.3721 396.182 29.6121 393.142C24.6221 387.652 22.2121 381.992 21.6821 373.632C21.2621 367.052 22.1388 360.952 24.3121 355.332C24.8321 353.986 26.0088 352.552 27.8421 351.032C27.8828 351.001 27.9312 350.982 27.9821 350.976C28.0329 350.971 28.0844 350.979 28.1308 351.001C28.1772 351.023 28.2167 351.056 28.2452 351.099C28.2736 351.142 28.2899 351.191 28.2921 351.242Z" fill="black"/>
<path d="M340.981 463.892C340.975 463.787 340.999 463.682 341.049 463.589C341.099 463.497 341.173 463.42 341.265 463.367C341.356 463.314 341.46 463.287 341.565 463.29C341.671 463.293 341.773 463.325 341.861 463.382C360.795 475.922 381.435 484.606 403.781 489.432C417.911 492.492 433.671 493.892 447.361 487.842C455.508 484.235 462.848 479.152 469.381 472.592C476.721 465.202 483.081 458.102 489.301 449.002C503.681 427.962 511.461 416.162 523.731 400.962C533.331 389.082 544.915 379.752 558.481 372.972C566.035 369.199 571.631 366.709 575.271 365.502C586.221 361.872 592.541 360.342 600.061 355.782C600.327 355.623 600.638 355.557 600.945 355.597C601.252 355.637 601.536 355.78 601.751 356.002C605.145 359.502 607.138 363.666 607.731 368.492C609.071 379.266 606.731 388.959 600.711 397.572C598.291 401.042 598.581 406.922 599.201 412.032C599.675 415.932 599.875 418.515 599.801 419.782C599.475 425.835 597.358 431.372 593.451 436.392C590.058 440.746 585.525 443.472 579.851 444.572C574.081 445.692 574.311 451.092 572.321 455.272C567.221 466.019 558.881 472.176 547.301 473.742C544.051 474.182 541.831 476.592 540.371 479.862C539.691 481.396 538.605 483.376 537.111 485.802C529.611 498.016 518.788 504.266 504.641 504.552C503.201 504.579 501.788 505.439 500.401 507.132C497.461 510.726 495.708 512.799 495.141 513.352C488.048 520.292 479.625 523.452 469.871 522.832C467.051 522.652 463.505 521.999 459.231 520.872C458.433 520.661 457.597 520.61 456.771 520.722C455.618 520.882 454.071 521.319 452.131 522.032C444.181 524.982 435.451 523.802 428.051 519.702C425.671 518.382 421.861 514.592 417.261 513.832C416.89 513.772 416.509 513.766 416.131 513.812C411.925 514.379 409.185 514.672 407.911 514.692C398.658 514.839 390.915 511.972 384.681 506.092C382.241 503.792 380.281 499.642 378.441 497.632C377.701 496.832 376.318 496.092 374.291 495.412C373.887 495.273 373.463 495.189 373.031 495.162C366.591 494.815 361.505 493.529 357.771 491.302C347.311 485.089 341.715 475.952 340.981 463.892ZM452.431 499.872C452.591 503.419 454.438 505.909 457.971 507.342C466.838 510.949 475.398 510.475 483.651 505.922C487.761 503.652 492.191 496.922 496.261 496.722C500.755 496.495 504.595 496.172 507.781 495.752C520.471 494.062 526.921 485.472 534.511 474.462C536.991 470.872 537.161 468.732 542.361 467.252C545.188 466.452 548.871 464.912 553.411 462.632C558.491 460.079 562.425 456.739 565.211 452.612C567.991 448.502 568.781 445.382 571.051 439.602C571.51 438.44 572.362 437.474 573.461 436.872C575.581 435.712 578.421 434.642 580.261 433.342C588.481 427.522 591.281 416.532 590.261 406.862C590.148 405.749 589.898 403.686 589.511 400.672C589.141 397.762 590.361 395.752 592.061 393.162C592.518 392.467 592.7 391.626 592.571 390.802C591.951 386.956 590.785 384.132 589.071 382.332C584.601 377.642 574.751 378.242 568.921 380.672C560.915 384.006 553.558 388.315 546.851 393.602C536.878 401.475 527.608 410.595 519.041 420.962C512.211 429.232 504.081 441.852 499.731 448.472C493.711 457.632 488.798 464.445 484.991 468.912C475.785 479.705 465.435 489.015 453.941 496.842C453.453 497.175 453.057 497.628 452.793 498.158C452.529 498.689 452.404 499.279 452.431 499.872Z" fill="black"/>
<path d="M1014.56 404.063C1014.57 404.429 1014.6 404.626 1014.65 404.653C1014.87 404.741 1015.11 404.752 1015.34 404.685C1015.56 404.617 1015.76 404.476 1015.89 404.283L1018.79 400.073C1018.97 399.811 1019.25 399.63 1019.56 399.568C1019.87 399.507 1020.2 399.569 1020.46 399.743C1025.76 403.189 1029.88 405.996 1032.81 408.163C1035.05 409.816 1037.85 413.023 1041.19 417.783C1045.73 424.213 1046.04 432.503 1042.59 439.623C1039.08 446.853 1031.45 452.023 1024.69 455.923C1012.47 462.976 999.232 468.483 984.992 472.443C972.525 475.909 960.509 478.563 948.942 480.403C933.702 482.823 917.465 483.969 900.232 483.843C895.045 483.809 891.155 483.639 888.562 483.333C883.242 482.703 878.802 482.973 873.012 482.143C861.699 480.516 853.995 479.319 849.902 478.553C842.142 477.103 830.962 474.573 821.482 471.223C812.795 468.136 807.362 466.169 805.182 465.323C795.542 461.576 786.339 456.933 777.572 451.393C773.619 448.899 770.222 446.156 767.382 443.163C767.213 442.985 767.005 442.849 766.774 442.764C766.544 442.679 766.298 442.648 766.053 442.673C765.809 442.698 765.574 442.779 765.366 442.909C765.158 443.039 764.982 443.214 764.852 443.423C760.832 449.873 755.582 453.833 748.972 458.713C746.125 460.806 742.979 462.729 739.532 464.483C729.505 469.583 719.285 473.536 708.872 476.343C704.105 477.623 697.015 479.283 687.602 481.323C685.502 481.776 679.182 482.579 668.642 483.733C661.815 484.479 655.462 484.879 649.582 484.933C634.162 485.079 621.709 484.599 612.222 483.493C610.022 483.239 608.052 483.123 606.312 483.143C606.038 483.146 605.773 483.239 605.556 483.407C605.34 483.574 605.184 483.808 605.112 484.073C603.605 489.446 601.075 494.169 597.522 498.243C593.062 503.356 586.785 508.656 578.692 514.143C569.059 520.689 557.455 526.593 543.882 531.853C525.529 538.966 506.589 543.673 487.062 545.973C465.469 548.513 445.992 549.119 428.632 547.793C409.225 546.313 391.172 543.529 374.472 539.443C365.799 537.316 353.805 533.093 338.492 526.773C329.552 523.083 320.142 517.753 312.752 512.743C309.759 510.709 305.969 507.623 301.382 503.483C298.762 501.123 296.699 498.649 295.192 496.063C294.933 495.619 294.552 495.259 294.094 495.026C293.636 494.794 293.122 494.699 292.612 494.753C289.345 495.093 283.759 495.693 275.852 496.553C240.539 500.373 204.672 501.349 168.252 499.483C158.502 498.983 152.192 498.953 143.762 498.133C123.382 496.159 106.259 493.876 92.3921 491.283C75.7721 488.176 59.7354 483.896 44.2821 478.443C32.6754 474.356 22.2687 468.859 13.0621 461.953C9.37208 459.193 4.97208 455.333 2.80208 451.303C-1.31792 443.643 -0.894581 436.219 4.07209 429.033C8.43875 422.713 14.6087 417.159 22.5821 412.373C22.6211 412.349 22.6649 412.335 22.7102 412.332C22.7555 412.328 22.801 412.334 22.8434 412.351C22.8858 412.367 22.9239 412.393 22.9548 412.426C22.9858 412.459 23.0088 412.499 23.0221 412.543L27.2221 426.443C27.3441 426.848 27.6153 427.194 27.9821 427.413C28.6288 427.799 29.3754 428.013 30.2221 428.053C40.1321 446.593 60.3021 455.193 80.7521 449.983C81.0031 449.918 81.2666 449.918 81.5183 449.983C81.77 450.047 82.0018 450.175 82.1921 450.353C84.2021 452.243 86.3521 454.833 88.9721 456.963C96.0721 462.753 103.692 466.303 113.422 466.953C124.642 467.693 135.002 465.613 143.292 458.013C143.46 457.856 143.678 457.765 143.908 457.756C144.137 457.747 144.362 457.82 144.542 457.963C161.782 471.713 186.742 472.473 204.412 458.823C204.591 458.686 204.808 458.608 205.034 458.601C205.26 458.594 205.483 458.657 205.672 458.783C216.359 465.983 228.012 468.833 240.632 467.333C251.902 466.003 259.482 462.143 267.512 454.453C267.725 454.247 267.999 454.116 268.292 454.078C268.586 454.041 268.884 454.098 269.142 454.243C279.189 459.843 290.495 461.923 303.062 460.483C311.582 459.513 319.502 455.893 326.232 450.613C326.315 450.546 326.413 450.498 326.516 450.473C326.62 450.448 326.729 450.446 326.834 450.467C326.94 450.487 327.04 450.531 327.127 450.594C327.215 450.657 327.288 450.739 327.342 450.833C327.922 451.879 328.212 452.819 328.212 453.653C328.199 459.093 328.332 463.343 328.612 466.403C329.492 476.083 333.612 485.963 340.622 493.433C348.255 501.579 357.909 506.333 369.582 507.693C369.811 507.718 370.032 507.792 370.231 507.911C370.429 508.03 370.6 508.191 370.732 508.383C378.885 520.376 390.359 526.573 405.152 526.973C407.459 527.033 410.379 526.929 413.912 526.663C414.64 526.611 415.361 526.789 415.972 527.173C428.352 534.843 440.662 538.303 455.012 534.153C456.474 533.731 458.014 533.635 459.522 533.873C462.342 534.323 466.392 535.273 469.352 535.383C485.099 536.009 497.819 530.196 507.512 517.943C507.889 517.462 508.443 517.15 509.052 517.073C524.465 515.213 536.569 508.083 545.362 495.683C547.362 492.863 548.972 489.523 550.862 486.853C551.152 486.44 551.586 486.149 552.082 486.033C567.662 482.393 578.609 472.876 584.922 457.483C585.057 457.15 585.262 456.852 585.523 456.608C585.784 456.365 586.094 456.182 586.432 456.073C594.425 453.479 600.785 448.473 605.512 441.053C605.572 440.959 605.65 440.879 605.743 440.818C605.836 440.757 605.941 440.717 606.051 440.699C606.161 440.682 606.273 440.689 606.38 440.719C606.487 440.749 606.587 440.801 606.672 440.873C615.162 447.973 627.172 453.163 638.362 451.553C641.049 451.173 643.672 450.733 646.232 450.233C646.809 450.123 647.405 450.211 647.922 450.483C648.069 450.563 649.265 451.229 651.512 452.483C665.839 460.496 679.872 460.663 693.612 452.983C699.322 449.793 703.742 445.503 707.822 440.163C708.022 439.9 708.279 439.686 708.573 439.535C708.867 439.385 709.191 439.302 709.522 439.293C711.995 439.233 714.699 439.006 717.632 438.613C728.852 437.093 738.752 429.133 744.782 419.743C751.295 409.616 754.495 398.473 754.382 386.313C754.379 386.163 754.437 386.019 754.541 385.91C754.646 385.802 754.79 385.738 754.942 385.733C762.995 385.526 769.812 382.856 775.392 377.723C775.474 377.65 775.572 377.598 775.679 377.57C775.785 377.543 775.896 377.542 776.002 377.566C776.108 377.591 776.206 377.641 776.288 377.711C776.37 377.782 776.433 377.872 776.472 377.973C781.485 390.799 788.195 402.789 796.602 413.943C812.935 435.603 834.272 450.343 860.612 458.163C873.605 462.016 886.949 464.019 900.642 464.173C915.552 464.333 931.512 461.173 945.712 456.463C974.362 446.963 997.092 428.533 1014.56 404.063Z" fill="black"/>
<path d="M452.431 499.872C452.404 499.279 452.529 498.689 452.793 498.158C453.057 497.628 453.453 497.175 453.941 496.842C465.435 489.016 475.785 479.706 484.991 468.912C488.798 464.446 493.711 457.632 499.731 448.472C504.081 441.852 512.211 429.232 519.041 420.962C527.608 410.596 536.878 401.476 546.851 393.602C553.558 388.316 560.915 384.006 568.921 380.672C574.751 378.242 584.601 377.642 589.071 382.332C590.785 384.132 591.951 386.956 592.571 390.802C592.7 391.626 592.518 392.467 592.061 393.162C590.361 395.752 589.141 397.762 589.511 400.672C589.898 403.686 590.148 405.749 590.261 406.862C591.281 416.532 588.481 427.522 580.261 433.342C578.421 434.642 575.581 435.712 573.461 436.872C572.363 437.474 571.51 438.44 571.051 439.602C568.781 445.382 567.991 448.502 565.211 452.612C562.425 456.739 558.491 460.079 553.411 462.632C548.871 464.912 545.188 466.452 542.361 467.252C537.161 468.732 536.991 470.872 534.511 474.462C526.921 485.472 520.471 494.062 507.781 495.752C504.595 496.172 500.755 496.496 496.261 496.722C492.191 496.922 487.761 503.652 483.651 505.922C475.398 510.476 466.838 510.949 457.971 507.342C454.438 505.909 452.591 503.419 452.431 499.872ZM562.761 422.422C567.331 417.842 572.831 408.202 567.401 402.612C567.185 402.391 566.918 402.225 566.624 402.128C566.329 402.032 566.016 402.008 565.711 402.059C565.405 402.111 565.116 402.235 564.869 402.422C564.622 402.608 564.424 402.852 564.291 403.132C562.885 406.112 561.038 409.446 558.751 413.132C556.178 417.286 557.018 420.459 561.271 422.652C561.512 422.777 561.786 422.821 562.054 422.78C562.322 422.739 562.569 422.613 562.761 422.422ZM547.631 433.482C547.53 433.147 547.335 432.847 547.069 432.618C546.804 432.389 546.479 432.24 546.132 432.188C545.785 432.137 545.43 432.185 545.11 432.328C544.789 432.47 544.516 432.701 544.321 432.992C541.155 437.752 537.601 441.402 533.661 443.942C533.235 444.216 532.866 444.571 532.577 444.988C532.289 445.405 532.086 445.876 531.98 446.372C531.874 446.868 531.867 447.381 531.96 447.881C532.053 448.38 532.244 448.857 532.521 449.282L533.321 450.502C533.603 450.936 533.969 451.308 534.398 451.598C534.827 451.887 535.31 452.088 535.818 452.187C536.326 452.287 536.849 452.284 537.356 452.178C537.863 452.073 538.345 451.867 538.771 451.572C542.611 448.926 545.565 445.206 547.631 440.412C548.426 438.572 548.543 436.51 547.961 434.592L547.631 433.482ZM517.041 460.342L512.931 465.352C512.493 465.884 512 466.367 511.461 466.792C507.648 469.746 504.878 471.936 503.151 473.362C502.385 473.996 501.768 474.986 501.301 476.332C501.251 476.487 501.231 476.652 501.245 476.815C501.259 476.978 501.305 477.137 501.381 477.282C502.401 479.182 506.031 482.752 508.411 481.652C516.141 478.092 522.731 468.992 518.501 460.512C518.435 460.381 518.338 460.268 518.218 460.184C518.097 460.099 517.958 460.046 517.813 460.029C517.668 460.013 517.521 460.032 517.386 460.087C517.252 460.142 517.133 460.229 517.041 460.342Z" fill="black"/>
<path d="M562.762 422.422C562.57 422.614 562.322 422.739 562.054 422.78C561.787 422.821 561.513 422.777 561.272 422.652C557.019 420.459 556.179 417.286 558.752 413.132C561.039 409.446 562.885 406.112 564.292 403.132C564.424 402.852 564.623 402.609 564.87 402.422C565.117 402.235 565.405 402.111 565.711 402.059C566.017 402.008 566.33 402.032 566.624 402.128C566.919 402.225 567.186 402.391 567.402 402.612C572.832 408.202 567.332 417.842 562.762 422.422Z" fill="black"/>
<path d="M547.632 433.482L547.962 434.592C548.543 436.51 548.426 438.572 547.632 440.412C545.565 445.206 542.612 448.926 538.772 451.572C538.345 451.867 537.864 452.073 537.357 452.178C536.849 452.284 536.326 452.287 535.818 452.187C535.31 452.088 534.828 451.887 534.399 451.598C533.97 451.308 533.604 450.936 533.322 450.502L532.522 449.282C532.244 448.857 532.054 448.38 531.961 447.881C531.868 447.381 531.874 446.868 531.98 446.372C532.086 445.875 532.289 445.405 532.578 444.988C532.867 444.571 533.235 444.216 533.662 443.942C537.602 441.402 541.155 437.752 544.322 432.992C544.517 432.701 544.79 432.47 545.111 432.328C545.431 432.185 545.786 432.137 546.132 432.188C546.479 432.24 546.805 432.389 547.07 432.618C547.336 432.847 547.531 433.147 547.632 433.482Z" fill="black"/>
<path d="M517.042 460.342C517.133 460.229 517.252 460.142 517.387 460.087C517.522 460.032 517.668 460.012 517.814 460.029C517.959 460.046 518.098 460.099 518.218 460.184C518.338 460.268 518.436 460.381 518.502 460.512C522.732 468.992 516.142 478.092 508.412 481.652C506.032 482.752 502.402 479.182 501.382 477.282C501.306 477.137 501.259 476.978 501.246 476.815C501.232 476.651 501.251 476.487 501.302 476.332C501.768 474.986 502.385 473.996 503.152 473.362C504.879 471.936 507.649 469.746 511.462 466.792C512 466.367 512.493 465.884 512.932 465.352L517.042 460.342Z" fill="black"/>
<path d="M876.895 285.559C876.811 283.041 874.623 281.07 872.006 281.157C869.39 281.244 867.336 283.355 867.42 285.874C867.504 288.392 869.692 290.363 872.309 290.276C874.925 290.189 876.978 288.077 876.895 285.559Z" fill="black"/>
<ellipse cx="872.269" cy="241" rx="18" ry="17" fill="#3B3B3B"/>
<ellipse cx="902.231" cy="279.319" rx="50.2236" ry="54" transform="rotate(27.8101 902.231 279.319)" fill="black"/>
<ellipse cx="885.198" cy="251.913" rx="11" ry="11.8078" transform="rotate(29.2187 885.198 251.913)" fill="black"/>
<path d="M1005.2 14.03C1006.46 14.37 1007.41 16.0233 1008.04 18.99C1010.8 32.06 1013.62 44.3 1025.81 51.91C1029.84 54.42 1035.34 56.02 1039.28 57.96C1040.48 58.5466 1041.42 59.3967 1042.12 60.51C1042.35 60.8783 1042.44 61.3207 1042.39 61.76C1042.07 63.9933 1040.27 65.72 1036.97 66.94C1031.31 69.03 1025.48 70.91 1020.29 76.53C1012.46 85 1010.73 94.53 1008.26 105.94C1008.17 106.353 1007.78 107.21 1007.08 108.51C1006.84 108.946 1006.44 109.276 1005.96 109.43C1004.38 109.917 1002.7 110.03 1000.91 109.77C1000.73 109.745 1000.55 109.678 1000.4 109.574C1000.25 109.47 1000.13 109.332 1000.04 109.17C998.386 106.18 998.216 103.89 996.986 97.77C994.706 86.33 988.686 77.5433 978.926 71.41C974.546 68.66 968.816 68.13 965.406 64.32C965.261 64.1588 965.15 63.9699 965.081 63.7651C965.013 63.5604 964.987 63.3442 965.006 63.13C965.246 60.2833 966.406 58.4833 968.486 57.73C982.256 52.75 991.456 45.75 996.486 31.43C996.839 30.43 997.799 26.0033 999.366 18.15C999.519 17.37 1000.23 16.12 1001.51 14.4C1001.6 14.2758 1001.72 14.175 1001.86 14.1056C1002 14.0362 1002.15 14 1002.31 14H1004.96C1005.04 14 1005.12 14.01 1005.2 14.03Z" fill="#FFC0CB"/>
<path d="M911.223 101.191C909.263 102.761 907.223 103.541 903.443 105.401C896.183 108.981 891.293 115.101 889.113 122.991C887.823 127.651 886.893 134.671 882.513 137.041C882.193 137.215 881.824 137.277 881.463 137.217C881.103 137.157 880.772 136.979 880.523 136.711C876.803 132.651 876.953 126.341 875.743 122.031C873.189 113.017 867.416 107.401 858.423 105.181C857.403 104.934 856.063 104.037 854.403 102.491C854.265 102.362 854.159 102.205 854.089 102.031C854.02 101.856 853.99 101.668 854.003 101.481C854.156 99.1407 855.276 97.544 857.363 96.6906C867.133 92.6706 874.103 88.1806 877.083 77.6806C877.269 77.0273 877.926 73.6407 879.053 67.5207C879.111 67.169 879.275 66.8417 879.523 66.5807C882.523 63.3607 886.073 65.5407 886.973 68.8307C888.186 73.2773 889.156 76.6307 889.883 78.8907C892.873 88.2207 899.093 92.0206 907.583 95.6206C909.233 96.3206 910.593 97.5506 911.563 99.0506C911.781 99.3877 911.867 99.7933 911.804 100.189C911.742 100.584 911.534 100.941 911.223 101.191Z" fill="#FFC0CB"/>
<path d="M56.0735 113.411C53.9235 111.791 52.7035 102.891 52.4035 101.391C50.5435 92.1213 46.7835 85.1613 39.4935 78.9613C35.5235 75.5813 30.2735 74.0413 24.9335 72.3913C24.5754 72.2807 24.2584 72.0647 24.0235 71.7713C23.1035 70.598 22.4835 69.5214 22.1635 68.5414C21.9402 67.8732 21.9458 67.1498 22.1794 66.4852C22.413 65.8206 22.8613 65.2528 23.4535 64.8714C23.7202 64.698 24.5502 64.3014 25.9435 63.6814C30.1035 61.8114 35.4935 60.1913 39.4335 57.2813C45.3668 52.9013 49.4835 47.2214 51.7835 40.2414C52.8235 37.0914 53.4135 30.2613 56.2635 24.0813C56.4245 23.74 56.7017 23.4698 57.0435 23.3213C60.2735 21.9213 62.2835 25.3914 63.2135 28.0414C64.6435 32.1414 65.4935 39.0714 67.4135 43.3714C71.2135 51.898 77.7002 57.9747 86.8735 61.6013C89.5235 62.6413 93.0335 63.2814 94.3535 66.0514C95.8735 69.2414 93.3435 72.1814 90.2335 73.0514C73.8935 77.6114 66.8635 90.0414 64.0635 105.801C63.3835 109.641 61.4135 113.941 56.9435 113.731C56.6302 113.712 56.3279 113.601 56.0735 113.411Z" fill="#FFC0CB"/>
</g>
<defs>
<clipPath id="clip0_39_4775">
<rect width="1049" height="549" fill="white"/>
</clipPath>
</defs>
</svg>
