<svg width="1393" height="549" viewBox="0 0 1393 549" fill="none" xmlns="http://www.w3.org/2000/svg">
<path d="M967.592 213.226C985.322 200.766 1006.75 195.115 1027.17 197.52C1047.59 199.925 1065.33 210.187 1076.48 226.048C1087.62 241.91 1091.27 262.073 1086.62 282.1C1081.96 302.127 1069.39 320.379 1051.66 332.84C1033.93 345.3 1012.49 350.949 992.075 348.545C971.656 346.14 953.921 335.878 942.774 320.016C931.626 304.155 927.978 283.992 932.632 263.965C937.286 243.939 949.862 225.687 967.592 213.226ZM965.208 238.771C962.35 245.972 962.98 253.318 970.175 255.022C975.289 256.237 980.666 252.74 984.462 248.85C983.657 248.948 982.835 249.001 982 249.001C974.349 249 967.813 244.756 965.208 238.771Z" fill="#E94822"/>
<path d="M913.343 417.862C888.123 392.562 874.803 356.122 876.833 320.082C879.763 268.242 906.823 221.952 948.523 191.502C969.903 175.882 993.837 166.575 1020.32 163.582C1051.08 160.102 1084.91 168.332 1106.18 193.022C1116.3 204.762 1123.46 218.112 1127.65 233.072C1130.63 243.679 1132.35 254.692 1132.82 266.112C1133.3 277.479 1133.3 287.642 1132.84 296.602C1131.33 325.822 1123.64 356.472 1109.65 382.382C1092.91 413.409 1068.49 434.302 1036.39 445.062C993.713 459.382 945.533 450.142 913.343 417.862ZM1076.47 226.048C1065.33 210.187 1047.59 199.925 1027.17 197.52C1006.75 195.115 985.32 200.764 967.59 213.225C949.86 225.686 937.285 243.938 932.631 263.965C927.976 283.992 931.624 304.154 942.772 320.016C953.92 335.877 971.654 346.139 992.074 348.544C1012.49 350.949 1033.93 345.3 1051.66 332.839C1069.39 320.378 1081.96 302.126 1086.62 282.099C1091.27 262.072 1087.62 241.91 1076.47 226.048ZM889.673 378.942C889.629 378.956 889.588 378.979 889.554 379.011C889.519 379.042 889.492 379.08 889.474 379.123C889.456 379.166 889.447 379.212 889.449 379.259C889.451 379.305 889.462 379.351 889.483 379.392C890.963 382.199 892.357 385.029 893.663 387.882C895.403 391.689 896.843 394.479 897.983 396.252C915.523 423.662 941.583 442.352 974.013 447.962C985.067 449.869 995.46 450.445 1005.19 449.692C1027.81 447.932 1052.47 439.432 1071.35 425.222C1077.19 420.829 1081.93 416.692 1085.57 412.812C1100.7 396.692 1112.05 377.859 1119.61 356.312C1123.44 345.419 1126.72 331.749 1129.45 315.302C1129.69 313.895 1129.91 311.759 1130.13 308.892C1130.47 304.372 1131.25 298.772 1130.91 293.772C1130.91 293.692 1130.88 293.616 1130.83 293.558C1130.77 293.501 1130.7 293.468 1130.62 293.467C1130.54 293.466 1130.46 293.496 1130.4 293.551C1130.35 293.607 1130.31 293.683 1130.31 293.762C1129.73 298.469 1128.58 303.345 1126.87 308.392C1125.13 313.579 1123.02 319.219 1120.55 325.312C1113.82 341.932 1104.75 356.942 1093.35 370.342C1087.74 376.942 1081.36 383.459 1074.22 389.892C1064.89 398.292 1053.29 405.242 1042.66 410.662C1033.1 415.535 1022.64 419.272 1011.29 421.872C1004.78 423.362 995.893 424.042 991.323 424.472C972.393 426.272 951.093 422.072 933.703 415.502C922.093 411.122 912.833 403.702 903.373 395.372C898.06 390.692 893.64 385.212 890.113 378.932C890.097 378.903 890.071 378.881 890.04 378.868C890.009 378.855 889.975 378.853 889.943 378.862L889.673 378.942Z" fill="#FFF4E9"/>
<path d="M1111.29 404.062C1093.82 428.532 1071.09 446.962 1042.44 456.462C1028.24 461.172 1012.28 464.332 997.374 464.172C983.68 464.019 970.337 462.016 957.344 458.162C931.004 450.342 909.667 435.602 893.334 413.942C884.927 402.789 878.217 390.799 873.204 377.972C873.165 377.872 873.101 377.782 873.02 377.711C872.938 377.64 872.839 377.591 872.733 377.566C872.627 377.542 872.516 377.543 872.41 377.57C872.304 377.597 872.206 377.65 872.124 377.722C866.544 382.856 859.727 385.526 851.674 385.732C851.522 385.738 851.378 385.801 851.273 385.91C851.168 386.018 851.111 386.163 851.114 386.312C851.227 398.472 848.027 409.616 841.514 419.742C835.484 429.132 825.584 437.092 814.364 438.612C811.43 439.006 808.727 439.232 806.254 439.292C805.923 439.302 805.598 439.385 805.304 439.535C805.01 439.686 804.754 439.9 804.554 440.162C800.474 445.502 796.054 449.792 790.344 452.982C776.604 460.662 762.57 460.496 748.244 452.482C745.997 451.229 744.8 450.562 744.654 450.482C744.136 450.211 743.541 450.122 742.964 450.232C740.404 450.732 737.78 451.172 735.094 451.552C723.904 453.162 711.894 447.972 703.404 440.872C703.319 440.801 703.219 440.749 703.112 440.719C703.005 440.689 702.893 440.682 702.783 440.699C702.673 440.716 702.568 440.757 702.475 440.818C702.382 440.878 702.303 440.959 702.244 441.052C697.517 448.472 691.157 453.479 683.164 456.072C682.826 456.182 682.515 456.365 682.255 456.608C681.994 456.852 681.789 457.15 681.654 457.482C675.34 472.876 664.394 482.392 648.814 486.032C648.318 486.148 647.884 486.44 647.594 486.852C645.704 489.522 644.094 492.862 642.094 495.682C633.3 508.082 621.197 515.212 605.784 517.072C605.174 517.15 604.621 517.462 604.244 517.942C594.55 530.196 581.83 536.009 566.084 535.382C563.124 535.272 559.074 534.322 556.254 533.872C554.745 533.635 553.206 533.731 551.744 534.152C537.394 538.302 525.084 534.842 512.704 527.172C512.093 526.789 511.372 526.61 510.644 526.662C507.11 526.929 504.19 527.032 501.884 526.972C487.09 526.572 475.617 520.376 467.464 508.382C467.332 508.191 467.161 508.03 466.962 507.911C466.764 507.792 466.543 507.717 466.314 507.692C454.64 506.332 444.987 501.579 437.354 493.432C430.344 485.962 426.224 476.082 425.344 466.402C425.064 463.342 424.93 459.092 424.944 453.652C424.944 452.819 424.654 451.879 424.074 450.832C424.02 450.738 423.947 450.657 423.859 450.594C423.771 450.531 423.671 450.487 423.566 450.466C423.46 450.445 423.352 450.448 423.248 450.473C423.144 450.498 423.047 450.546 422.964 450.612C416.234 455.892 408.314 459.512 399.794 460.482C387.227 461.922 375.92 459.842 365.874 454.242C365.615 454.098 365.318 454.04 365.024 454.078C364.731 454.116 364.457 454.247 364.244 454.452C356.214 462.142 348.634 466.002 337.364 467.332C324.744 468.832 313.09 465.982 302.404 458.782C302.215 458.657 301.991 458.594 301.765 458.601C301.54 458.608 301.322 458.685 301.144 458.822C283.474 472.472 258.514 471.712 241.274 457.962C241.094 457.82 240.869 457.747 240.639 457.756C240.41 457.765 240.192 457.856 240.024 458.012C231.734 465.612 221.374 467.692 210.154 466.952C200.424 466.302 192.804 462.752 185.704 456.962C183.084 454.832 180.934 452.242 178.924 450.352C178.733 450.174 178.502 450.047 178.25 449.983C177.998 449.918 177.735 449.918 177.484 449.982C157.034 455.192 136.864 446.592 126.954 428.052C123.647 422.039 121.73 415.736 121.204 409.142C121.139 408.39 120.792 407.693 120.234 407.192C112.14 399.879 106.934 390.609 104.614 379.382C104.034 376.589 103.76 372.639 103.794 367.532C103.874 356.662 107.764 346.412 114.334 338.172C114.476 337.993 114.565 337.777 114.588 337.55C114.611 337.323 114.568 337.095 114.464 336.892C102.194 313.132 109.394 284.762 130.744 268.952C131.032 268.738 131.252 268.444 131.377 268.107C131.501 267.769 131.524 267.403 131.444 267.052C126.704 246.592 134.254 225.382 150.894 212.642C155.114 209.409 159.724 207.142 164.724 205.842C164.941 205.784 165.133 205.656 165.269 205.476C165.405 205.297 165.477 205.077 165.474 204.852C165.26 192.106 168.697 180.689 175.784 170.602C184.337 158.436 195.997 152.139 210.764 151.712C210.913 151.706 211.056 151.655 211.173 151.565C211.289 151.475 211.374 151.352 211.414 151.212C215.2 138.046 223.004 127.746 234.824 120.312C246.257 113.112 258.55 111.266 271.704 114.772C271.982 114.846 272.275 114.836 272.546 114.743C272.817 114.65 273.053 114.48 273.224 114.252C286.694 96.2924 313.624 86.2824 334.344 98.3924C334.479 98.4675 334.632 98.5035 334.786 98.4965C334.94 98.4894 335.088 98.4395 335.214 98.3524C350.014 88.0457 365.584 85.5357 381.924 90.8224C392.484 94.2424 402.354 101.292 408.364 110.592C408.465 110.745 408.612 110.861 408.783 110.923C408.955 110.984 409.141 110.988 409.314 110.932C433.884 103.202 460.034 121.472 463.794 146.472C463.813 146.589 463.872 146.695 463.962 146.772C464.052 146.849 464.166 146.892 464.284 146.892C480.404 146.762 493.944 154.412 502.304 168.192C507.984 177.539 510.287 188.246 509.214 200.312C509.19 200.559 509.247 200.807 509.375 201.019C509.502 201.231 509.695 201.397 509.924 201.492C528.144 209.072 537.824 229.512 536.664 248.492C536.662 248.55 536.674 248.607 536.699 248.658C536.723 248.71 536.761 248.754 536.807 248.787C536.853 248.82 536.906 248.84 536.961 248.847C537.017 248.853 537.073 248.844 537.124 248.822C557.29 240.669 578.784 237.389 601.604 238.982C601.656 238.984 601.707 238.972 601.753 238.946C601.798 238.92 601.835 238.882 601.86 238.837C601.885 238.791 601.897 238.739 601.894 238.687C601.891 238.635 601.874 238.585 601.844 238.542C590.704 223.182 588.014 201.652 597.874 184.872C598 184.662 598.058 184.417 598.038 184.172C598.018 183.926 597.922 183.692 597.764 183.502C587.964 171.932 584.124 153.782 590.434 139.792C590.467 139.72 590.483 139.641 590.483 139.561C590.482 139.481 590.464 139.402 590.43 139.329C590.396 139.256 590.346 139.191 590.285 139.138C590.223 139.085 590.152 139.046 590.074 139.022C579.114 135.989 568.517 131.556 558.284 125.722C548.964 120.412 541.424 115.632 535.254 107.992C528.954 100.182 525.284 88.8124 531.964 80.2324C539.184 70.9724 554.324 71.9424 564.724 74.3624C564.806 74.38 564.891 74.3733 564.969 74.3432C565.047 74.3131 565.114 74.2609 565.163 74.1929C565.212 74.125 565.24 74.0443 565.244 73.9607C565.247 73.8771 565.226 73.7943 565.184 73.7224C560.437 65.789 557.14 57.2557 555.294 48.1224C553.194 37.7424 554.624 22.9824 563.864 15.8024C581.364 2.23239 600.984 23.3324 609.814 36.8624C609.865 36.9391 609.938 36.999 610.022 37.0348C610.107 37.0705 610.201 37.0805 610.292 37.0634C610.382 37.0464 610.466 37.003 610.532 36.9388C610.598 36.8746 610.644 36.7924 610.664 36.7024C612.31 29.0824 614.847 21.6991 618.274 14.5524C621.664 7.47239 627.514 1.42239 635.424 0.242393C647.614 -1.57761 656.074 7.11239 660.694 17.5524C666.404 30.4524 667.354 46.0424 665.834 60.1024C664.334 73.9224 661.124 86.9524 656.204 99.1924C656.18 99.2507 656.17 99.3139 656.175 99.3767C656.181 99.4396 656.201 99.5002 656.234 99.5539C656.267 99.6075 656.312 99.6525 656.366 99.6853C656.42 99.718 656.481 99.7376 656.544 99.7424C660.317 100.036 663.827 100.926 667.074 102.412C680.374 108.522 690.474 120.252 692.214 135.032C692.234 135.21 692.313 135.377 692.438 135.505C692.563 135.634 692.726 135.717 692.904 135.742C701.57 136.956 709.467 140.386 716.594 146.032C729.62 156.366 736.874 170.012 738.354 186.972C738.374 187.186 738.472 187.385 738.629 187.529C738.787 187.673 738.992 187.753 739.204 187.752H745.574C745.718 187.753 745.857 187.703 745.969 187.612C746.08 187.521 746.156 187.394 746.184 187.252C746.957 183.239 747.697 180.452 748.404 178.892C752.974 168.742 760.934 157.702 770.444 152.102C779.024 147.036 788.844 144.902 799.904 145.702C820.344 147.172 832.334 167.592 832.794 186.412C832.795 186.456 832.808 186.499 832.832 186.535C832.856 186.571 832.89 186.6 832.93 186.618C832.97 186.636 833.014 186.642 833.057 186.636C833.1 186.629 833.141 186.611 833.174 186.582C836.087 184.096 839.454 181.802 843.274 179.702C850.154 175.932 856.914 172.702 864.614 172.762C877.744 172.852 888.284 183.232 892.144 195.052C895.644 205.812 896.29 216.916 894.084 228.362C894.063 228.466 894.079 228.574 894.129 228.667C894.179 228.761 894.259 228.834 894.356 228.875C894.454 228.916 894.562 228.922 894.664 228.893C894.766 228.863 894.854 228.799 894.914 228.712C910.147 206.746 928.994 188.582 951.454 174.222C978.074 157.202 1007.38 149.236 1039.36 150.322C1059.56 151.009 1077.66 156.289 1093.67 166.162C1117.18 180.672 1133.31 204.902 1140.23 231.702C1145.71 252.902 1146.41 274.232 1145.36 296.062C1144.49 314.196 1141.42 332.409 1136.15 350.702C1130.59 370.009 1122.31 387.796 1111.29 404.062ZM600.034 104.852C598.86 106.506 597.12 107.006 594.814 106.352C589.604 103.662 586.794 98.7424 582.214 96.2924C571.724 90.6624 561.304 85.7224 549.424 86.4724C544.964 86.7524 540.764 88.1424 541.994 93.3924C542.454 95.3724 543.484 97.2891 545.084 99.1424C546.617 101.422 548.084 103.122 549.484 104.242C561.55 113.876 575.037 120.876 589.944 125.242C593.83 126.382 597.747 127.442 601.694 128.422C602.157 128.541 602.597 128.741 602.994 129.012L604.834 130.282C608.164 133.092 607.244 137.662 605.054 140.802C602.367 143.749 600.764 146.956 600.244 150.422C598.974 158.922 601.374 170.502 608.544 176.232C610.857 178.079 612.327 179.346 612.954 180.032C615.074 182.322 615.794 185.632 613.354 187.872C611.884 189.222 609.884 190.482 608.654 192.152C605.894 195.879 604.417 200.556 604.224 206.182C603.924 215.196 606.274 223.202 611.274 230.202C615.414 235.992 622.684 241.582 628.824 243.672C638.417 246.939 645.714 249.726 650.714 252.032C663 257.706 674.64 264.976 685.634 273.842C692.834 279.649 699.197 286.696 704.724 294.982C714.594 309.762 720.444 332.142 708.304 347.162C708.159 347.341 708.08 347.563 708.08 347.792C708.08 348.022 708.159 348.244 708.304 348.422C713.214 354.402 716.264 361.822 716.624 369.842C717.184 382.272 715.114 393.152 708.124 403.732C707.82 404.195 707.611 404.713 707.51 405.257C707.408 405.802 707.417 406.361 707.534 406.902C708.854 412.916 709.107 419.149 708.294 425.602C707.994 428.042 708.254 428.512 709.874 430.082C716.824 436.812 726.544 441.092 736.144 438.892C736.944 438.712 739.117 438.016 742.664 436.802C743.014 436.683 743.384 436.633 743.754 436.652C747.864 436.882 751.844 440.482 754.184 441.822C767.094 449.222 782.664 447.202 792.564 435.802C794.21 433.909 795.927 431.796 797.714 429.462C799.02 427.762 800.74 426.869 802.874 426.782C807.714 426.582 811.534 427.002 816.114 425.592C822.08 423.766 827.034 419.822 830.974 413.762C837.414 403.882 841.494 390.122 836.554 379.432C835.764 377.732 835.244 375.822 835.874 374.362C838.274 368.816 840.117 363.909 841.404 359.642C845.074 347.462 841.924 334.772 837.174 323.302C834.074 315.822 829.574 309.242 822.724 305.302C822.398 305.116 822.053 304.965 821.694 304.852C819.114 304.046 817.507 303.246 816.874 302.452C815.534 300.786 814.894 299.329 814.954 298.082C815.234 292.189 815.204 286.782 814.864 281.862C814.81 281.122 814.5 280.036 813.934 278.602C812.854 270.942 808.594 264.682 801.154 259.822C794.9 255.749 787.847 253.242 779.994 252.302C774.554 251.642 770.584 250.762 771.174 244.702C771.764 238.592 772.324 231.832 770.794 226.352C767.474 214.472 759.164 206.852 748.134 202.122C745.44 200.969 743.337 200.409 741.824 200.442C735.984 200.572 730.754 201.592 727.784 197.802C727.204 197.069 726.85 195.066 726.724 191.792C726.45 184.679 724.73 177.869 721.564 171.362C716.024 160.002 703.564 149.062 689.904 149.372C686.037 149.459 683.737 149.309 683.004 148.922C680.417 147.529 679.29 145.356 679.624 142.402C680.617 133.529 678.08 126.239 672.014 120.532C666.774 115.612 660.697 112.619 653.784 111.552C652.837 111.412 650.74 111.329 647.494 111.302C645.32 111.289 643.224 111.146 641.204 110.872C639.057 108.326 638.62 105.749 639.894 103.142C643.924 94.8924 647.734 86.8924 649.554 77.8324C652.974 64.9391 654.047 51.8724 652.774 38.6324C652.127 31.9457 650.467 25.8791 647.794 20.4324C646.084 16.9524 641.624 12.7424 637.274 13.9724C632.454 15.3324 630.074 19.5024 628.174 24.1924C626.3 28.8124 624.877 33.469 623.904 38.1624C622.997 42.529 622.47 47.3657 622.324 52.6724C622.23 55.9191 622.057 63.2257 621.804 74.5924C621.744 77.4524 619.284 79.7324 616.484 78.2324C613.344 76.5524 612.274 72.1024 611.454 69.5224C608.654 60.6624 604.864 52.6624 600.084 45.5224C594.654 37.4024 589.234 30.2924 581.084 26.3124C573.194 22.4624 567.974 29.8124 567.684 36.9224C567.39 44.1024 568.877 51.089 572.144 57.8824C576.464 66.8557 581.897 75.7457 588.444 84.5524C590.557 87.3857 594.417 92.4424 600.024 99.7224C601.09 101.109 601.094 102.819 600.034 104.852ZM416.044 439.712C416.178 439.579 416.265 439.407 416.294 439.222C416.323 439.036 416.291 438.847 416.204 438.682C412.39 431.242 410.414 423.446 410.274 415.292C410.2 411.012 410.92 404.769 412.434 396.562C413.827 389.009 415.374 382.922 417.074 378.302C427.62 349.562 442.937 323.796 463.024 301.002C471.29 291.622 481.21 282.632 492.784 274.032C502.17 267.059 511.617 261.029 521.124 255.942C521.944 255.5 522.555 254.748 522.824 253.852C524.464 248.259 524.664 242.599 523.424 236.872C520.984 225.612 513.194 214.282 500.884 212.922C498.95 212.709 497.42 211.639 496.294 209.712C495.634 208.572 495.564 206.676 496.084 204.022C499.534 186.452 492.924 168.082 475.834 161.282C470.52 159.169 465.104 158.592 459.584 159.552C455.524 160.262 452.234 157.262 452.064 153.112C451.254 133.132 434.454 119.092 414.614 122.582C411.464 123.142 406.814 126.042 403.754 124.452C402.127 123.612 400.744 122.249 399.604 120.362C388.264 101.702 365.194 95.1524 345.984 106.302C341.584 108.852 336.624 115.762 331.474 111.882C324.347 106.509 316.444 104.706 307.764 106.472C295.81 108.906 286.974 115.332 281.254 125.752C278.014 131.662 274.074 129.552 269.274 127.552C261.764 124.422 252.594 125.432 245.524 128.792C234.437 134.066 227.114 142.662 223.554 154.582C222.384 158.472 223.344 162.652 218.634 164.472C217.794 164.792 216.117 164.819 213.604 164.552C204.534 163.592 196.074 166.872 189.514 173.632C182.02 181.352 178.17 190.932 177.964 202.372C177.93 204.179 177.99 207.092 178.144 211.112C178.344 216.262 174.554 217.132 170.514 217.772C163.964 218.812 158.104 222.102 153.484 227.022C144.35 236.776 140.987 248.406 143.394 261.912C143.747 263.892 144.267 265.856 144.954 267.802C145.854 270.329 146.154 272.149 145.854 273.262C145.287 275.362 144.157 276.769 142.464 277.482C136.57 279.969 131.86 283.822 128.334 289.042C120.574 300.536 118.877 312.866 123.244 326.032C124.184 328.886 125.75 331.712 127.944 334.512C129.144 336.039 129.567 337.912 129.214 340.132C129.067 341.066 127.93 342.576 125.804 344.662C121.19 349.196 118.27 354.636 117.044 360.982C114.09 376.349 118.314 388.889 129.714 398.602C131.404 400.042 132.914 401.602 132.984 403.562C133.374 415.192 137.894 426.002 147.294 432.862C156.334 439.456 166.69 440.662 178.364 436.482C180.857 435.589 183.304 436.172 185.704 438.232C185.883 438.385 186.041 438.563 186.174 438.762C192.434 448.102 200.484 453.952 211.854 454.822C222.344 455.622 228.834 451.832 236.504 445.512C238.377 443.966 240.554 443.429 243.034 443.902C244.14 444.109 245.994 445.379 248.594 447.712C260.584 458.482 280.664 459.412 293.064 449.062C295.39 447.116 296.984 445.849 297.844 445.262C302.044 442.382 304.964 444.622 308.844 447.812C314.51 452.479 321.354 454.946 329.374 455.212C341.127 455.606 350.814 451.526 358.434 442.972C364.664 435.962 369.564 442.902 375.754 445.352C388.394 450.362 405.834 449.912 416.044 439.712ZM788.614 241.212C793.907 242.726 799.08 244.696 804.134 247.122C821.694 255.552 828.554 273.982 827.824 292.622C827.815 292.92 827.882 293.214 828.018 293.478C828.155 293.743 828.356 293.968 828.604 294.132C837.75 300.192 844.35 308.339 848.404 318.572C850.984 325.092 852.847 331.222 853.994 336.962C856.34 348.722 855.177 360.219 850.504 371.452C850.453 371.579 850.433 371.716 850.445 371.852C850.458 371.988 850.502 372.12 850.576 372.235C850.649 372.35 850.749 372.447 850.867 372.516C850.985 372.585 851.117 372.625 851.254 372.632C854.967 372.819 858.367 371.822 861.454 369.642C863.534 368.172 865.904 366.472 867.304 364.612C867.727 364.055 868.017 363.409 868.152 362.723C868.288 362.036 868.264 361.328 868.084 360.652C864.137 345.759 862.957 330.606 864.544 315.192C865.95 301.539 868.617 288.306 872.544 275.492C873.997 270.739 875.96 265.122 878.434 258.642L881.014 253.372C881.061 253.272 881.081 253.162 881.073 253.051C881.066 252.941 881.03 252.835 880.969 252.743C880.909 252.651 880.826 252.577 880.728 252.528C880.631 252.479 880.523 252.456 880.414 252.462C874.034 252.762 871.824 250.572 874.604 244.362C877.77 237.316 879.884 231.839 880.944 227.932C883.944 216.922 883.504 195.572 872.874 188.542C868.834 185.872 864.704 184.882 860.114 186.362C852.314 188.889 845.414 192.909 839.414 198.422C835.567 201.949 832.114 204.986 829.054 207.532C824.214 211.562 820.534 206.362 820.574 201.862C820.594 199.509 820.397 194.109 819.984 185.662C819.524 176.196 816.067 168.526 809.614 162.652C807.384 160.612 804.394 158.912 801.474 158.512C794.78 157.599 788.014 158.432 781.174 161.012C774.474 163.532 769.454 168.832 765.264 174.532C761.584 179.526 759.26 185.056 758.294 191.122C758.207 191.643 758.279 192.178 758.5 192.659C758.721 193.139 759.081 193.545 759.534 193.822C769.904 200.182 777.734 207.482 781.644 219.382C783.91 226.269 784.697 232.922 784.004 239.342C783.976 239.608 784.049 239.875 784.209 240.089C784.368 240.304 784.601 240.451 784.864 240.502L788.614 241.212ZM913.344 417.862C945.534 450.142 993.714 459.382 1036.39 445.062C1068.49 434.302 1092.91 413.409 1109.65 382.382C1123.64 356.472 1131.33 325.822 1132.84 296.602C1133.3 287.642 1133.3 277.479 1132.82 266.112C1132.35 254.692 1130.63 243.679 1127.65 233.072C1123.46 218.112 1116.3 204.762 1106.18 193.022C1084.91 168.332 1051.08 160.102 1020.32 163.582C993.837 166.576 969.904 175.882 948.524 191.502C906.824 221.952 879.764 268.242 876.834 320.082C874.804 356.122 888.124 392.562 913.344 417.862ZM685.744 290.862L675.304 281.462C667.457 275.542 659.654 270.676 651.894 266.862C643.354 262.722 634.584 259.139 625.584 256.112C619.59 254.099 614.184 253.022 609.364 252.882C606.057 251.969 602.64 251.486 599.114 251.432C585.2 251.206 573.957 251.886 565.384 253.472C560.13 254.446 555.814 255.522 552.434 256.702C545.9 258.996 537.594 262.436 527.514 267.022C516.667 271.956 505.71 279.172 494.644 288.672C479.534 301.652 465.854 315.512 455.234 330.942C442.127 349.996 432.38 370.672 425.994 392.972C424.84 396.999 423.954 401.642 423.334 406.902C421.714 420.602 424.954 432.342 433.054 442.122C436.654 446.469 441.81 450.802 448.524 455.122C466.214 466.502 486.844 474.252 507.304 477.992C513.714 479.162 519.864 479.362 525.814 478.972C536.234 478.286 545.407 474.489 553.334 467.582C562.58 459.529 570.994 449.776 578.574 438.322C589.18 422.309 599.81 407.532 610.464 393.992C620.824 380.826 633.227 370.392 647.674 362.692C656.587 357.946 666.87 353.759 678.524 350.132C688.324 347.082 701.734 342.802 702.944 330.732C704.384 316.312 695.814 301.082 685.744 290.862ZM437.714 463.892C438.447 475.952 444.044 485.089 454.504 491.302C458.237 493.529 463.324 494.816 469.764 495.162C470.195 495.189 470.619 495.273 471.024 495.412C473.05 496.092 474.434 496.832 475.174 497.632C477.014 499.642 478.974 503.792 481.414 506.092C487.647 511.972 495.39 514.839 504.644 514.692C505.917 514.672 508.657 514.379 512.864 513.812C513.242 513.766 513.622 513.773 513.994 513.832C518.594 514.592 522.404 518.382 524.784 519.702C532.184 523.802 540.914 524.982 548.864 522.032C550.804 521.319 552.35 520.882 553.504 520.722C554.329 520.61 555.165 520.661 555.964 520.872C560.237 521.999 563.784 522.652 566.604 522.832C576.357 523.452 584.78 520.292 591.874 513.352C592.44 512.799 594.194 510.726 597.134 507.132C598.52 505.439 599.934 504.579 601.374 504.552C615.52 504.266 626.344 498.016 633.844 485.802C635.337 483.376 636.424 481.396 637.104 479.862C638.564 476.592 640.784 474.182 644.034 473.742C655.614 472.176 663.954 466.019 669.054 455.272C671.044 451.092 670.814 445.692 676.584 444.572C682.257 443.472 686.79 440.746 690.184 436.392C694.09 431.372 696.207 425.836 696.534 419.782C696.607 418.516 696.407 415.932 695.934 412.032C695.314 406.922 695.024 401.042 697.444 397.572C703.464 388.959 705.804 379.266 704.464 368.492C703.87 363.666 701.877 359.502 698.484 356.002C698.268 355.78 697.984 355.638 697.677 355.598C697.37 355.558 697.059 355.623 696.794 355.782C689.274 360.342 682.954 361.872 672.004 365.502C668.364 366.709 662.767 369.199 655.214 372.972C641.647 379.752 630.064 389.082 620.464 400.962C608.194 416.162 600.414 427.962 586.034 449.002C579.814 458.102 573.454 465.202 566.114 472.592C559.58 479.152 552.24 484.236 544.094 487.842C530.404 493.892 514.644 492.492 500.514 489.432C478.167 484.606 457.527 475.922 438.594 463.382C438.505 463.325 438.403 463.293 438.298 463.29C438.192 463.288 438.088 463.314 437.997 463.367C437.906 463.42 437.831 463.497 437.781 463.59C437.731 463.682 437.708 463.787 437.714 463.892Z" fill="#553630"/>
<path d="M649.554 77.8324L647.264 77.8124C647.111 77.8089 646.96 77.8448 646.825 77.9166C646.69 77.9884 646.576 78.0937 646.494 78.2224C639.314 89.3691 629.487 96.9724 617.014 101.032C611.9 102.699 606.24 103.972 600.034 104.852C601.094 102.819 601.09 101.109 600.024 99.7224C594.417 92.4424 590.557 87.3857 588.444 84.5524C581.897 75.7457 576.464 66.8557 572.144 57.8824C568.877 51.0891 567.39 44.1024 567.684 36.9224C567.974 29.8124 573.194 22.4624 581.084 26.3124C589.234 30.2924 594.654 37.4024 600.084 45.5224C604.864 52.6624 608.654 60.6624 611.454 69.5224C612.274 72.1024 613.344 76.5524 616.484 78.2324C619.284 79.7324 621.744 77.4524 621.804 74.5924C622.057 63.2257 622.23 55.9191 622.324 52.6724C622.47 47.3657 622.997 42.5291 623.904 38.1624C624.877 33.4691 626.3 28.8124 628.174 24.1924C630.074 19.5024 632.454 15.3324 637.274 13.9724C641.624 12.7424 646.084 16.9524 647.794 20.4324C650.467 25.8791 652.127 31.9457 652.774 38.6324C654.047 51.8724 652.974 64.9391 649.554 77.8324Z" fill="#FA7116"/>
<path d="M649.553 77.8322C647.733 86.8922 643.923 94.8922 639.893 103.142C638.62 105.749 639.056 108.326 641.203 110.872C640.656 110.906 640.113 111.029 639.573 111.242C638.893 111.516 638.363 111.682 637.983 111.742C634.643 112.316 630.53 113.606 625.643 115.612C617.983 118.759 611.873 123.402 607.313 129.542C607.229 129.657 607.115 129.747 606.985 129.804C606.855 129.86 606.713 129.88 606.573 129.862C605.573 129.742 604.993 129.882 604.833 130.282L602.993 129.012C602.596 128.741 602.156 128.541 601.693 128.422C597.746 127.442 593.83 126.382 589.943 125.242C575.036 120.876 561.55 113.876 549.483 104.242C548.083 103.122 546.616 101.422 545.083 99.1422C550.736 100.576 559.79 102.686 572.243 105.472C579.97 107.192 587.493 107.486 594.813 106.352C597.12 107.006 598.86 106.506 600.033 104.852C606.24 103.972 611.9 102.699 617.013 101.032C629.486 96.9722 639.313 89.3689 646.493 78.2222C646.575 78.0935 646.689 77.9882 646.824 77.9164C646.959 77.8446 647.11 77.8087 647.263 77.8122L649.553 77.8322Z" fill="#FA7116"/>
<path d="M594.814 106.352C587.494 107.485 579.97 107.192 572.244 105.472C559.79 102.685 550.737 100.575 545.083 99.1421C543.483 97.2888 542.454 95.3721 541.994 93.3921C540.764 88.1421 544.964 86.7521 549.424 86.4721C561.304 85.7221 571.723 90.6621 582.213 96.2921C586.793 98.7421 589.604 103.662 594.814 106.352Z" fill="#FA7116"/>
<path d="M416.043 439.712C405.833 449.912 388.393 450.362 375.753 445.352C369.563 442.902 364.663 435.962 358.433 442.972C350.813 451.526 341.127 455.606 329.373 455.212C321.353 454.946 314.51 452.479 308.843 447.812C304.963 444.622 302.043 442.382 297.843 445.262C296.983 445.849 295.39 447.116 293.063 449.062C280.663 459.412 260.583 458.482 248.593 447.712C245.993 445.379 244.14 444.109 243.033 443.902C240.553 443.429 238.377 443.966 236.503 445.512C228.833 451.832 222.343 455.622 211.853 454.822C200.483 453.952 192.433 448.102 186.173 438.762C186.041 438.563 185.883 438.385 185.703 438.232C183.303 436.172 180.857 435.589 178.363 436.482C166.69 440.662 156.333 439.456 147.293 432.862C137.893 426.002 133.373 415.192 132.983 403.562C132.913 401.602 131.403 400.042 129.713 398.602C118.313 388.889 114.09 376.349 117.043 360.982C118.27 354.636 121.19 349.196 125.803 344.662C127.93 342.576 129.067 341.066 129.213 340.132C129.567 337.912 129.143 336.039 127.943 334.512C125.75 331.712 124.183 328.886 123.243 326.032C118.877 312.866 120.573 300.536 128.333 289.042C131.86 283.822 136.57 279.969 142.463 277.482C144.157 276.769 145.287 275.362 145.853 273.262C146.153 272.149 145.853 270.329 144.953 267.802C144.267 265.856 143.747 263.892 143.393 261.912C140.987 248.406 144.35 236.776 153.483 227.022C158.103 222.102 163.963 218.812 170.513 217.772C174.553 217.132 178.343 216.262 178.143 211.112C177.99 207.092 177.93 204.179 177.963 202.372C178.17 190.932 182.02 181.352 189.513 173.632C196.073 166.872 204.533 163.592 213.603 164.552C216.117 164.819 217.793 164.792 218.633 164.472C223.343 162.652 222.383 158.472 223.553 154.582C227.113 142.662 234.437 134.066 245.523 128.792C252.593 125.432 261.763 124.422 269.273 127.552C274.073 129.552 278.013 131.662 281.253 125.752C286.973 115.332 295.81 108.906 307.763 106.472C316.443 104.706 324.347 106.509 331.473 111.882C336.623 115.762 341.583 108.852 345.983 106.302C365.193 95.1523 388.263 101.702 399.603 120.362C400.743 122.249 402.127 123.612 403.753 124.452C406.813 126.042 411.463 123.142 414.613 122.582C434.453 119.092 451.253 133.132 452.063 153.112C452.233 157.262 455.523 160.262 459.583 159.552C465.103 158.592 470.52 159.169 475.833 161.282C492.923 168.082 499.533 186.452 496.083 204.022C495.563 206.676 495.633 208.572 496.293 209.712C497.42 211.639 498.95 212.709 500.883 212.922C513.193 214.282 520.983 225.612 523.423 236.872C524.663 242.599 524.463 248.259 522.823 253.852C522.555 254.748 521.943 255.5 521.123 255.942C511.617 261.029 502.17 267.059 492.783 274.032C481.21 282.632 471.29 291.622 463.023 301.002C442.937 323.796 427.62 349.562 417.073 378.302C415.373 382.922 413.827 389.009 412.433 396.562C410.92 404.769 410.2 411.012 410.273 415.292C410.413 423.446 412.39 431.242 416.203 438.682C416.291 438.847 416.323 439.036 416.294 439.222C416.265 439.407 416.177 439.579 416.043 439.712ZM467.123 294.122C467.863 293.629 469.143 292.356 470.963 290.302C471.977 289.156 473.29 287.912 474.903 286.572C483.843 279.179 490.13 274.079 493.763 271.272C500.523 266.066 508.61 260.902 518.023 255.782C519.923 254.742 521.09 253.559 521.523 252.232C524.963 241.632 521.263 229.732 514.043 221.382C510.897 217.736 506.763 215.452 501.643 214.532C495.353 213.402 493.983 208.992 494.573 202.842C495.28 195.429 495.277 189.699 494.563 185.652C494.09 182.979 492.537 179.302 489.903 174.622C489.705 174.278 489.451 173.974 489.153 173.722C487.72 172.516 486.163 171.039 484.483 169.292C480.913 165.562 476.793 163.732 471.363 161.692C469.103 160.842 466.863 160.932 464.963 161.462C464.88 161.488 464.804 161.534 464.743 161.597C464.682 161.66 464.639 161.738 464.618 161.822C464.597 161.906 464.598 161.993 464.622 162.076C464.646 162.159 464.691 162.233 464.753 162.292C470.64 167.899 474.353 174.759 475.893 182.872C477.603 191.852 474.013 199.582 469.083 206.962C468.982 207.112 468.931 207.292 468.94 207.474C468.949 207.656 469.017 207.831 469.133 207.972C471.553 210.882 475.083 213.782 477.843 217.292C486.163 227.906 487.527 239.932 481.933 253.372C479.067 260.259 474.783 265.742 469.083 269.822C467.517 270.949 466.457 271.719 465.903 272.132C465.542 272.404 465.261 272.768 465.092 273.186C464.922 273.604 464.871 274.059 464.943 274.502C466.117 281.816 466.56 288.196 466.273 293.642C466.269 293.744 466.294 293.846 466.343 293.935C466.393 294.025 466.466 294.099 466.554 294.148C466.643 294.198 466.743 294.222 466.843 294.218C466.944 294.213 467.041 294.18 467.123 294.122ZM392.586 251.523C386.751 251.36 381.077 254.005 376.811 258.876C372.546 263.747 370.039 270.446 369.842 277.498C369.744 280.989 370.217 284.463 371.232 287.72C372.248 290.977 373.787 293.953 375.761 296.479C377.735 299.006 380.106 301.032 382.738 302.443C385.37 303.853 388.211 304.621 391.101 304.702C396.936 304.865 402.61 302.22 406.875 297.349C411.141 292.477 413.648 285.779 413.845 278.727C413.942 275.235 413.47 271.762 412.454 268.505C411.439 265.248 409.9 262.271 407.926 259.745C405.952 257.219 403.581 255.193 400.949 253.782C398.317 252.371 395.475 251.603 392.586 251.523ZM257.473 306.052C269.133 305.742 276.413 296.352 277.683 285.352C278.673 276.652 276.593 267.392 270.603 260.642C266.263 255.756 261.42 253.382 256.073 253.522C250.727 253.662 246.02 256.289 241.953 261.402C236.323 268.462 234.743 277.822 236.193 286.462C238.043 297.372 245.813 306.362 257.473 306.052ZM324.293 311.672C319.393 311.692 310.993 308.972 308.503 304.192C307.403 302.092 306.603 298.552 304.953 297.332C299.793 293.512 295.533 299.002 296.643 304.162C299.273 316.352 312.663 323.142 324.353 323.072C336.053 323.012 349.363 316.082 351.863 303.862C352.913 298.692 348.603 293.252 343.483 297.122C341.843 298.362 341.083 301.912 340.013 304.022C337.563 308.832 329.193 311.642 324.293 311.672ZM124.573 351.032C122.74 352.552 121.563 353.986 121.043 355.332C118.87 360.952 117.993 367.052 118.413 373.632C118.943 381.992 121.353 387.652 126.343 393.142C129.103 396.182 132.963 399.372 134.063 403.922C135.703 410.682 136.443 416.062 138.813 420.742C144.213 431.412 156.753 438.962 169.003 436.702C173.993 435.782 179.823 434.042 184.753 436.512C187.883 438.082 190.693 442.832 193.103 445.082C201.893 453.252 214.053 454.532 224.843 450.752C228.593 449.432 232.873 445.642 236.003 444.042C244.513 439.702 249.253 447.672 256.403 451.112C265.37 455.426 274.77 455.646 284.603 451.772C291.143 449.202 295.563 442.372 303.873 443.832C307.793 444.522 312.823 449.262 316.173 450.622C327.207 455.096 337.897 454.532 348.243 448.932C354.053 445.782 358.343 437.512 366.913 439.462C368.873 439.912 371.103 441.222 373.213 442.342C385.263 448.732 403.063 448.782 413.503 438.952C413.635 438.83 413.725 438.668 413.761 438.489C413.797 438.31 413.776 438.123 413.703 437.952C409.283 427.766 407.887 416.909 409.513 405.382C410.64 397.416 412.183 389.569 414.143 381.842C414.45 380.636 414.837 379.542 415.303 378.562C415.364 378.432 415.383 378.286 415.358 378.145C415.333 378.004 415.265 377.873 415.164 377.772C415.062 377.67 414.932 377.603 414.791 377.578C414.649 377.553 414.504 377.572 414.373 377.632C408.913 380.212 401.653 383.102 396.103 382.862C393.11 382.736 390.62 382.762 388.633 382.942C388.289 382.975 387.96 383.105 387.686 383.317C387.412 383.529 387.203 383.816 387.083 384.142C384.943 389.969 381.493 395.092 376.733 399.512C364.313 411.052 345.963 410.472 332.493 401.092C332.13 400.837 331.688 400.719 331.245 400.757C330.803 400.795 330.388 400.988 330.073 401.302C322.593 408.772 314.583 414.772 303.263 415.172C292.883 415.532 283.937 411.769 276.423 403.882C276.219 403.668 275.938 403.544 275.642 403.536C275.346 403.529 275.058 403.639 274.843 403.842C272.637 405.942 270.83 407.712 269.423 409.152C261.693 417.072 249.503 420.682 238.673 415.852C231.853 412.822 227.173 407.782 222.833 401.592C222.751 401.473 222.644 401.373 222.52 401.298C222.396 401.223 222.258 401.176 222.114 401.159C221.97 401.142 221.824 401.156 221.686 401.199C221.548 401.243 221.421 401.316 221.313 401.412C216.903 405.402 213.243 407.992 207.093 410.232C194.913 414.662 182.283 410.872 174.773 400.232C171.74 395.932 169.84 391.472 169.073 386.852C169.055 386.738 169.012 386.629 168.949 386.531C168.886 386.434 168.804 386.351 168.707 386.287C168.61 386.223 168.501 386.18 168.387 386.16C168.273 386.14 168.156 386.145 168.043 386.172C165.183 386.892 162.153 389.012 158.833 389.562C150.127 390.989 142.49 388.462 135.923 381.982C127.783 373.942 125.223 362.632 125.023 351.242C125.021 351.191 125.005 351.142 124.976 351.099C124.948 351.056 124.908 351.022 124.862 351.001C124.816 350.979 124.764 350.971 124.713 350.976C124.662 350.982 124.614 351.001 124.573 351.032Z" fill="#FFF4E9"/>
<path d="M813.933 278.602C810.72 284.575 807.073 289.189 802.993 292.442C801.513 293.622 800.306 294.549 799.373 295.222C792.643 300.072 782.193 302.082 774.153 302.042C769.193 302.022 765.293 299.172 761.893 296.032C761.397 295.575 760.787 295.261 760.127 295.122C759.467 294.983 758.781 295.024 758.143 295.242C757.723 295.382 755.66 296.155 751.953 297.562C747.643 299.202 741.993 297.292 736.503 295.142C735.832 294.879 735.23 294.465 734.743 293.932C731.683 290.579 729.276 286.955 727.523 283.062C727.479 282.966 727.415 282.88 727.334 282.812C727.253 282.743 727.158 282.693 727.056 282.666C726.954 282.638 726.847 282.633 726.743 282.652C726.638 282.67 726.54 282.711 726.453 282.772C723.926 284.539 721.42 285.835 718.933 286.662C715.153 287.912 711.323 286.072 708.213 283.912C707.046 283.099 705.286 281.022 702.933 277.682C700.8 274.635 698.633 270.855 696.433 266.342C695.972 265.4 695.222 264.633 694.293 264.152C689.773 261.832 683.523 258.272 680.493 254.252C677.186 249.872 674.973 245.209 673.853 240.262C673.023 236.622 673.783 231.182 673.573 228.612C673.561 228.469 673.506 228.333 673.414 228.224C673.323 228.115 673.2 228.037 673.063 228.002C672.816 227.942 672.56 228.072 672.293 228.392C672.04 228.699 671.646 228.922 671.113 229.062C668.513 229.775 666.06 230.559 663.753 231.412C657.303 233.812 647.183 234.662 641.613 229.662C638.313 226.702 635.933 223.629 634.473 220.442C634.168 219.78 633.972 219.074 633.893 218.352C633.153 211.592 632.91 207.029 633.163 204.662C634.07 196.182 635.97 187.999 638.863 180.112C638.948 179.882 638.986 179.637 638.974 179.392C638.962 179.147 638.902 178.907 638.795 178.685C638.689 178.464 638.539 178.267 638.355 178.105C638.171 177.943 637.956 177.819 637.723 177.742C635.636 177.042 632.626 175.875 628.693 174.242C624.143 172.342 620.093 169.422 616.773 166.692C611.46 162.325 608.196 156.569 606.983 149.422C606.49 146.509 605.846 143.635 605.053 140.802C607.243 137.662 608.163 133.092 604.833 130.282C604.993 129.882 605.573 129.742 606.573 129.862C606.713 129.88 606.855 129.86 606.985 129.803C607.115 129.747 607.229 129.657 607.313 129.542C611.873 123.402 617.983 118.759 625.643 115.612C630.53 113.605 634.643 112.315 637.983 111.742C638.363 111.682 638.893 111.515 639.573 111.242C640.113 111.029 640.656 110.905 641.203 110.872C643.223 111.145 645.32 111.289 647.493 111.302C650.74 111.329 652.836 111.412 653.783 111.552C660.696 112.619 666.773 115.612 672.013 120.532C678.08 126.239 680.616 133.529 679.623 142.402C679.29 145.355 680.416 147.529 683.003 148.922C683.736 149.309 686.036 149.459 689.903 149.372C703.563 149.062 716.023 160.002 721.563 171.362C724.73 177.869 726.45 184.679 726.723 191.792C726.85 195.065 727.203 197.069 727.783 197.802C730.753 201.592 735.983 200.572 741.823 200.442C743.336 200.409 745.44 200.969 748.133 202.122C759.163 206.852 767.473 214.472 770.793 226.352C772.323 231.832 771.763 238.592 771.173 244.702C770.583 250.762 774.553 251.642 779.993 252.302C787.846 253.242 794.9 255.749 801.153 259.822C808.593 264.682 812.853 270.942 813.933 278.602Z" fill="#FF9738"/>
<path d="M34.0735 204.432C31.9235 202.812 30.7035 193.912 30.4035 192.412C28.5435 183.142 24.7835 176.182 17.4935 169.982C13.5235 166.602 8.27351 165.062 2.93351 163.412C2.57544 163.302 2.25844 163.086 2.02351 162.792C1.10351 161.619 0.483507 160.542 0.163507 159.562C-0.0598115 158.894 -0.054229 158.171 0.17937 157.506C0.412969 156.842 0.861276 156.274 1.45351 155.892C1.72017 155.719 2.55018 155.322 3.94351 154.702C8.10351 152.832 13.4935 151.212 17.4335 148.302C23.3668 143.922 27.4835 138.242 29.7835 131.262C30.8235 128.112 31.4135 121.282 34.2635 115.102C34.4245 114.761 34.7017 114.491 35.0435 114.342C38.2735 112.942 40.2835 116.412 41.2135 119.062C42.6435 123.162 43.4935 130.092 45.4135 134.392C49.2135 142.919 55.7002 148.996 64.8735 152.622C67.5235 153.662 71.0335 154.302 72.3535 157.072C73.8735 160.262 71.3435 163.202 68.2335 164.072C51.8935 168.632 44.8635 181.062 42.0635 196.822C41.3835 200.662 39.4135 204.962 34.9435 204.752C34.6302 204.733 34.3279 204.622 34.0735 204.432Z" fill="#FFF4E9"/>
<path d="M605.053 140.802C605.846 143.636 606.49 146.509 606.983 149.422C608.196 156.569 611.46 162.326 616.773 166.692C620.093 169.422 624.143 172.342 628.693 174.242C632.626 175.876 635.636 177.042 637.723 177.742C637.956 177.82 638.171 177.943 638.355 178.105C638.539 178.267 638.689 178.465 638.795 178.686C638.902 178.907 638.962 179.147 638.974 179.392C638.986 179.637 638.948 179.882 638.863 180.112C635.97 187.999 634.07 196.182 633.163 204.662C632.91 207.029 633.153 211.592 633.893 218.352C633.973 219.074 634.168 219.78 634.473 220.442C635.933 223.629 638.313 226.702 641.613 229.662C647.183 234.662 657.303 233.812 663.753 231.412C666.06 230.559 668.513 229.776 671.113 229.062C671.646 228.922 672.04 228.699 672.293 228.392C672.56 228.072 672.816 227.942 673.063 228.002C673.2 228.037 673.323 228.115 673.414 228.224C673.506 228.334 673.561 228.469 673.573 228.612C673.783 231.182 673.023 236.622 673.853 240.262C674.973 245.209 677.186 249.872 680.493 254.252C683.523 258.272 689.773 261.832 694.293 264.152C695.222 264.633 695.972 265.401 696.433 266.342C698.633 270.856 700.8 274.636 702.933 277.682C705.286 281.022 707.046 283.099 708.213 283.912C711.323 286.072 715.153 287.912 718.933 286.662C721.42 285.836 723.926 284.539 726.453 282.772C726.54 282.711 726.639 282.67 726.743 282.652C726.847 282.633 726.954 282.638 727.056 282.666C727.158 282.694 727.253 282.743 727.334 282.812C727.415 282.88 727.479 282.966 727.523 283.062C729.276 286.956 731.683 290.579 734.743 293.932C735.23 294.465 735.832 294.879 736.503 295.142C741.993 297.292 747.643 299.202 751.953 297.562C755.66 296.156 757.723 295.382 758.143 295.242C758.781 295.025 759.467 294.983 760.127 295.122C760.787 295.261 761.397 295.576 761.893 296.032C765.293 299.172 769.193 302.022 774.153 302.042C782.193 302.082 792.643 300.072 799.373 295.222C800.306 294.549 801.513 293.622 802.993 292.442C807.073 289.189 810.72 284.576 813.933 278.602C814.5 280.036 814.81 281.122 814.863 281.862C815.203 286.782 815.233 292.189 814.953 298.082C814.893 299.329 815.533 300.786 816.873 302.452C817.506 303.246 819.113 304.046 821.693 304.852C822.052 304.965 822.397 305.116 822.723 305.302C829.573 309.242 834.073 315.822 837.173 323.302C841.923 334.772 845.073 347.462 841.403 359.642C840.116 363.909 838.273 368.816 835.873 374.362C835.243 375.822 835.763 377.732 836.553 379.432C841.493 390.122 837.413 403.882 830.973 413.762C827.033 419.822 822.08 423.766 816.113 425.592C811.533 427.002 807.713 426.582 802.873 426.782C800.74 426.869 799.02 427.762 797.713 429.462C795.926 431.796 794.21 433.909 792.563 435.802C782.663 447.202 767.093 449.222 754.183 441.822C751.843 440.482 747.863 436.882 743.753 436.652C743.383 436.632 743.013 436.683 742.663 436.802C739.116 438.016 736.943 438.712 736.143 438.892C726.543 441.092 716.823 436.812 709.873 430.082C708.253 428.512 707.993 428.042 708.293 425.602C709.106 419.149 708.853 412.916 707.533 406.902C707.416 406.361 707.408 405.801 707.509 405.257C707.61 404.713 707.819 404.194 708.123 403.732C715.113 393.152 717.183 382.272 716.623 369.842C716.263 361.822 713.213 354.402 708.303 348.422C708.159 348.244 708.08 348.022 708.08 347.792C708.08 347.563 708.159 347.34 708.303 347.162C720.443 332.142 714.593 309.762 704.723 294.982C699.196 286.696 692.833 279.649 685.633 273.842C674.64 264.976 663 257.706 650.713 252.032C645.713 249.726 638.416 246.939 628.823 243.672C622.683 241.582 615.413 235.992 611.273 230.202C606.273 223.202 603.923 215.196 604.223 206.182C604.416 200.556 605.893 195.879 608.653 192.152C609.883 190.482 611.883 189.222 613.353 187.872C615.793 185.632 615.073 182.322 612.953 180.032C612.326 179.346 610.856 178.079 608.543 176.232C601.373 170.502 598.973 158.922 600.243 150.422C600.763 146.956 602.366 143.749 605.053 140.802Z" fill="#FF822B"/>
<path d="M878.433 258.642C870.66 262.062 862.903 264.076 855.163 264.682C849.783 265.102 845.123 265.322 840.473 263.282C840.207 263.165 839.985 262.967 839.836 262.716C839.687 262.466 839.62 262.174 839.643 261.882C840.203 255.102 842.113 250.092 845.413 242.862C848.483 236.132 850.223 231.572 852.163 225.412C852.683 223.772 852.943 222.329 852.943 221.082C852.944 220.731 852.848 220.387 852.665 220.087C852.482 219.787 852.219 219.544 851.906 219.385C851.594 219.225 851.243 219.155 850.893 219.183C850.542 219.211 850.207 219.335 849.923 219.542C844.537 223.476 839.537 228.596 834.923 234.902C833.757 236.489 830.217 239.626 824.303 244.312C824.163 244.424 824 244.503 823.825 244.543C823.65 244.583 823.468 244.583 823.293 244.542C813.613 242.272 807.603 231.922 804.843 222.812C803.023 216.802 800.783 211.462 799.193 205.332C797.853 200.142 795.753 194.562 790.343 192.602C790.192 192.55 790.031 192.534 789.872 192.557C789.714 192.579 789.564 192.64 789.433 192.732C785.973 195.162 784.423 201.642 783.593 205.842C782.443 211.612 781.203 214.282 782.533 218.472C784.923 225.982 786.483 230.702 786.053 237.972C786.044 238.127 786.067 238.283 786.12 238.431C786.173 238.579 786.256 238.715 786.363 238.832L788.613 241.212L784.863 240.502C784.601 240.451 784.367 240.304 784.208 240.089C784.049 239.875 783.976 239.608 784.003 239.342C784.697 232.922 783.91 226.269 781.643 219.382C777.733 207.482 769.903 200.182 759.533 193.822C759.081 193.545 758.721 193.14 758.5 192.659C758.279 192.178 758.207 191.643 758.293 191.122C759.26 185.056 761.583 179.526 765.263 174.532C769.453 168.832 774.473 163.532 781.173 161.012C788.013 158.432 794.78 157.599 801.473 158.512C804.393 158.912 807.383 160.612 809.613 162.652C816.067 168.526 819.523 176.196 819.983 185.662C820.397 194.109 820.593 199.509 820.573 201.862C820.533 206.362 824.213 211.562 829.053 207.532C832.113 204.986 835.567 201.949 839.413 198.422C845.413 192.909 852.313 188.889 860.113 186.362C864.703 184.882 868.833 185.872 872.873 188.542C883.503 195.572 883.943 216.922 880.943 227.932C879.883 231.839 877.77 237.316 874.603 244.362C871.823 250.572 874.033 252.762 880.413 252.462C880.522 252.456 880.631 252.479 880.728 252.528C880.825 252.577 880.908 252.652 880.969 252.743C881.029 252.835 881.065 252.941 881.073 253.051C881.081 253.162 881.06 253.272 881.013 253.372L878.433 258.642Z" fill="#759724"/>
<path d="M467.124 294.122C467.041 294.18 466.944 294.213 466.844 294.218C466.743 294.223 466.643 294.199 466.555 294.149C466.466 294.099 466.393 294.025 466.344 293.936C466.294 293.846 466.27 293.745 466.274 293.642C466.56 288.196 466.117 281.816 464.944 274.502C464.872 274.059 464.923 273.604 465.092 273.186C465.261 272.768 465.542 272.404 465.904 272.132C466.457 271.719 467.517 270.949 469.084 269.822C474.784 265.742 479.067 260.259 481.934 253.372C487.527 239.932 486.164 227.906 477.844 217.292C475.084 213.782 471.554 210.882 469.134 207.972C469.018 207.831 468.95 207.656 468.941 207.474C468.932 207.292 468.982 207.112 469.084 206.962C474.014 199.582 477.604 191.852 475.894 182.872C474.354 174.759 470.64 167.899 464.754 162.292C464.691 162.233 464.646 162.159 464.622 162.076C464.599 161.994 464.597 161.906 464.619 161.822C464.64 161.738 464.683 161.66 464.743 161.597C464.804 161.534 464.88 161.488 464.964 161.462C466.864 160.932 469.104 160.842 471.364 161.692C476.794 163.732 480.914 165.562 484.484 169.292C486.164 171.039 487.72 172.516 489.154 173.722C489.451 173.974 489.705 174.278 489.904 174.622C492.537 179.302 494.09 182.979 494.564 185.652C495.277 189.699 495.28 195.429 494.574 202.842C493.984 208.992 495.354 213.402 501.644 214.532C506.764 215.452 510.897 217.736 514.044 221.382C521.264 229.732 524.964 241.632 521.524 252.232C521.09 253.559 519.924 254.742 518.024 255.782C508.61 260.902 500.524 266.066 493.764 271.272C490.13 274.079 483.844 279.179 474.904 286.572C473.29 287.912 471.977 289.156 470.964 290.302C469.144 292.356 467.864 293.629 467.124 294.122Z" fill="#FFE9D3"/>
<path d="M878.433 258.642C875.96 265.122 873.997 270.739 872.543 275.492C868.617 288.306 865.95 301.539 864.543 315.192C862.957 330.606 864.137 345.759 868.083 360.652C868.264 361.328 868.287 362.036 868.152 362.723C868.017 363.409 867.726 364.055 867.303 364.612C865.903 366.472 863.533 368.172 861.453 369.642C858.367 371.822 854.967 372.819 851.253 372.632C851.117 372.625 850.984 372.585 850.866 372.516C850.748 372.446 850.648 372.35 850.575 372.235C850.502 372.119 850.457 371.988 850.445 371.852C850.432 371.716 850.452 371.579 850.503 371.452C855.177 360.219 856.34 348.722 853.993 336.962C852.847 331.222 850.983 325.092 848.403 318.572C844.35 308.339 837.75 300.192 828.603 294.132C828.356 293.968 828.154 293.742 828.018 293.478C827.881 293.214 827.814 292.919 827.823 292.622C828.553 273.982 821.693 255.552 804.133 247.122C799.08 244.696 793.907 242.726 788.613 241.212L786.363 238.832C786.256 238.715 786.173 238.579 786.12 238.431C786.067 238.283 786.044 238.127 786.053 237.972C786.483 230.702 784.923 225.982 782.533 218.472C781.203 214.282 782.443 211.612 783.593 205.842C784.423 201.642 785.973 195.162 789.433 192.732C789.564 192.639 789.714 192.579 789.872 192.556C790.031 192.534 790.192 192.55 790.343 192.602C795.753 194.562 797.853 200.142 799.193 205.332C800.783 211.462 803.023 216.802 804.843 222.812C807.603 231.922 813.613 242.272 823.293 244.542C823.468 244.582 823.65 244.583 823.825 244.543C824 244.503 824.163 244.424 824.303 244.312C830.217 239.626 833.757 236.489 834.923 234.902C839.537 228.596 844.537 223.476 849.923 219.542C850.207 219.335 850.542 219.211 850.893 219.183C851.243 219.155 851.594 219.225 851.906 219.384C852.219 219.544 852.482 219.787 852.665 220.087C852.848 220.386 852.944 220.731 852.943 221.082C852.943 222.329 852.683 223.772 852.163 225.412C850.223 231.572 848.483 236.132 845.413 242.862C842.113 250.092 840.203 255.102 839.643 261.882C839.62 262.174 839.687 262.465 839.836 262.716C839.985 262.967 840.207 263.165 840.473 263.282C845.123 265.322 849.783 265.102 855.163 264.682C862.903 264.076 870.66 262.062 878.433 258.642Z" fill="#759724"/>
<path d="M1277.3 239.902C1278.57 240.242 1279.52 241.895 1280.14 244.862C1282.9 257.932 1285.72 270.172 1297.91 277.782C1301.94 280.292 1307.44 281.892 1311.38 283.832C1312.58 284.419 1313.53 285.269 1314.22 286.382C1314.46 286.75 1314.55 287.193 1314.49 287.632C1314.18 289.865 1312.37 291.592 1309.07 292.812C1303.41 294.902 1297.58 296.782 1292.39 302.402C1284.56 310.872 1282.83 320.402 1280.36 331.812C1280.28 332.225 1279.88 333.082 1279.18 334.382C1278.95 334.818 1278.55 335.148 1278.06 335.302C1276.49 335.789 1274.81 335.902 1273.01 335.642C1272.83 335.617 1272.66 335.55 1272.51 335.446C1272.36 335.342 1272.23 335.204 1272.14 335.042C1270.49 332.052 1270.32 329.762 1269.09 323.642C1266.81 312.202 1260.79 303.415 1251.03 297.282C1246.65 294.532 1240.92 294.002 1237.51 290.192C1237.37 290.031 1237.26 289.842 1237.19 289.637C1237.12 289.432 1237.09 289.216 1237.11 289.002C1237.35 286.155 1238.51 284.355 1240.59 283.602C1254.36 278.622 1263.56 271.622 1268.59 257.302C1268.95 256.302 1269.91 251.875 1271.47 244.022C1271.63 243.242 1272.34 241.992 1273.61 240.272C1273.71 240.148 1273.83 240.047 1273.97 239.978C1274.11 239.908 1274.26 239.872 1274.41 239.872H1277.06C1277.14 239.872 1277.22 239.882 1277.3 239.902Z" fill="#FFF4E9"/>
<path d="M392.586 251.523C395.475 251.603 398.317 252.371 400.949 253.782C403.581 255.193 405.952 257.219 407.926 259.745C409.9 262.271 411.438 265.248 412.454 268.505C413.469 271.762 413.942 275.235 413.844 278.727C413.647 285.779 411.141 292.477 406.875 297.349C402.61 302.22 396.935 304.865 391.1 304.702C388.211 304.621 385.369 303.854 382.737 302.443C380.105 301.032 377.735 299.006 375.761 296.479C373.786 293.953 372.248 290.977 371.232 287.72C370.217 284.463 369.744 280.99 369.842 277.498C370.039 270.446 372.546 263.747 376.811 258.876C381.076 254.005 386.751 251.36 392.586 251.523ZM398.959 263.784C397.5 263.812 396.117 264.63 395.113 266.058C394.108 267.486 393.566 269.407 393.604 271.398C393.623 272.384 393.784 273.358 394.078 274.263C394.372 275.169 394.793 275.989 395.317 276.676C395.841 277.364 396.457 277.905 397.132 278.27C397.806 278.634 398.525 278.815 399.247 278.801C400.706 278.773 402.089 277.955 403.093 276.527C404.098 275.099 404.64 273.178 404.602 271.187C404.583 270.201 404.422 269.227 404.128 268.321C403.834 267.416 403.413 266.596 402.889 265.908C402.365 265.221 401.749 264.679 401.074 264.315C400.4 263.95 399.681 263.77 398.959 263.784Z" fill="#553630"/>
<path d="M609.364 252.882C604.07 255.562 598.784 257.915 593.504 259.942C587.877 262.095 583.79 263.849 581.244 265.202C563.23 274.769 546.36 286.229 530.634 299.582C525.034 304.332 519.684 310.532 514.164 315.362C509.864 319.112 507.284 322.682 503.054 327.402C497.864 333.212 492.894 340.892 488.634 346.312C485.544 350.262 483.284 354.582 480.214 359.032C478 362.232 475.934 365.436 474.014 368.642C465.867 382.256 458.984 396.642 453.364 411.802C453.35 411.849 451.387 417.145 447.474 427.692C447.389 427.919 447.379 428.167 447.446 428.401C447.512 428.634 447.652 428.842 447.844 428.992L456.414 435.732C456.517 435.811 456.642 435.859 456.772 435.871C456.902 435.882 457.033 435.856 457.148 435.796C457.263 435.736 457.358 435.644 457.421 435.532C457.484 435.419 457.513 435.291 457.504 435.162C457.37 433.375 457.544 431.735 458.024 430.242C460.744 421.729 463.434 414.549 466.094 408.702C469.444 401.322 473.604 390.032 478.364 382.362C484.244 372.882 488.827 365.442 492.114 360.042C495.667 354.189 499.327 348.995 503.094 344.462C511.667 334.155 519.92 325.032 527.854 317.092C532.514 312.432 542.204 303.412 549.864 297.782C554.884 294.102 558.794 290.532 563.384 287.702C570.044 283.602 577.054 279.972 582.254 276.882C596.694 268.302 611.994 263.032 628.634 259.632C628.954 259.567 629.289 259.591 629.604 259.702C631.77 260.449 636.49 262.525 643.764 265.932C646.29 267.119 649 267.429 651.894 266.862C659.654 270.675 667.457 275.542 675.304 281.462C660.084 286.535 650.52 289.925 646.614 291.632C632.38 297.859 620.81 303.612 611.904 308.892C609.397 310.379 603.254 314.532 593.474 321.352C587.964 325.192 581.774 331.152 577.254 334.772C572.484 338.592 569.224 342.312 564.314 346.802C561.574 349.295 558.364 352.839 554.684 357.432C540.764 374.802 528.684 393.462 519.994 413.222C517.394 419.132 514.634 424.162 512.794 430.132C510.954 436.072 508.734 442.579 506.134 449.652C505.867 450.385 505.384 451.049 504.684 451.642C504.626 451.69 504.583 451.753 504.56 451.824C504.536 451.895 504.533 451.971 504.551 452.043C504.569 452.114 504.607 452.179 504.661 452.228C504.714 452.278 504.781 452.311 504.854 452.322C509.347 453.169 513.52 453.249 517.374 452.562C517.536 452.534 517.683 452.449 517.79 452.323C517.896 452.197 517.954 452.037 517.954 451.872C517.967 449.952 518.534 447.379 519.654 444.152C522.494 435.952 525.894 425.562 530.504 416.272C534.15 408.912 538.29 401.202 542.924 393.142C546.77 386.449 551.114 379.735 555.954 373.002C561.634 365.122 569.284 358.122 574.774 352.002C577.547 348.915 580.904 345.609 584.844 342.082C595.397 332.655 607.167 324.072 620.154 316.332C624.527 313.725 630.024 310.869 636.644 307.762C646.344 303.202 651.984 300.622 653.564 300.022C660.524 297.382 671.25 294.329 685.744 290.862C695.814 301.082 704.384 316.312 702.944 330.732C701.734 342.802 688.324 347.082 678.524 350.132C666.87 353.759 656.587 357.945 647.674 362.692C633.227 370.392 620.824 380.825 610.464 393.992C599.81 407.532 589.18 422.309 578.574 438.322C570.994 449.775 562.58 459.529 553.334 467.582C545.407 474.489 536.234 478.285 525.814 478.972C519.864 479.362 513.714 479.162 507.304 477.992C486.844 474.252 466.214 466.502 448.524 455.122C441.81 450.802 436.654 446.469 433.054 442.122C424.954 432.342 421.714 420.602 423.334 406.902C423.954 401.642 424.84 396.999 425.994 392.972C432.38 370.672 442.127 349.995 455.234 330.942C465.854 315.512 479.534 301.652 494.644 288.672C505.71 279.172 516.667 271.955 527.514 267.022C537.594 262.435 545.9 258.996 552.434 256.702C555.814 255.522 560.13 254.445 565.384 253.472C573.957 251.885 585.2 251.205 599.114 251.432C602.64 251.485 606.057 251.969 609.364 252.882Z" fill="#FA7116"/>
<path d="M651.894 266.862C649 267.429 646.29 267.119 643.764 265.932C636.49 262.526 631.77 260.449 629.604 259.702C629.289 259.591 628.954 259.567 628.634 259.632C611.994 263.032 596.694 268.302 582.254 276.882C577.054 279.972 570.044 283.602 563.384 287.702C558.794 290.532 554.884 294.102 549.864 297.782C542.204 303.412 532.514 312.432 527.854 317.092C519.92 325.032 511.667 334.156 503.094 344.462C499.327 348.996 495.667 354.189 492.114 360.042C488.827 365.442 484.244 372.882 478.364 382.362C473.604 390.032 469.444 401.322 466.094 408.702C463.434 414.549 460.744 421.729 458.024 430.242C457.544 431.736 457.37 433.376 457.504 435.162C457.513 435.291 457.484 435.419 457.421 435.532C457.358 435.644 457.263 435.736 457.148 435.796C457.033 435.856 456.902 435.882 456.772 435.871C456.642 435.86 456.518 435.811 456.414 435.732L447.844 428.992C447.652 428.842 447.513 428.635 447.446 428.401C447.379 428.167 447.389 427.919 447.474 427.692C451.387 417.146 453.35 411.849 453.364 411.802C458.984 396.642 465.867 382.256 474.014 368.642C475.934 365.436 478 362.232 480.214 359.032C483.284 354.582 485.544 350.262 488.634 346.312C492.894 340.892 497.864 333.212 503.054 327.402C507.284 322.682 509.864 319.112 514.164 315.362C519.684 310.532 525.034 304.332 530.634 299.582C546.36 286.229 563.23 274.769 581.244 265.202C583.79 263.849 587.877 262.096 593.504 259.942C598.784 257.916 604.07 255.562 609.364 252.882C614.184 253.022 619.59 254.099 625.584 256.112C634.584 259.139 643.354 262.722 651.894 266.862Z" fill="#FF8157"/>
<path d="M256.073 253.522C261.419 253.382 266.263 255.756 270.603 260.643C276.593 267.393 278.673 276.652 277.683 285.352C276.413 296.352 269.133 305.742 257.473 306.052C245.813 306.362 238.043 297.372 236.193 286.462C234.743 277.822 236.323 268.462 241.953 261.402C246.019 256.289 250.726 253.662 256.073 253.522ZM264.971 265.633C263.618 265.616 262.312 266.358 261.339 267.695C260.366 269.031 259.806 270.853 259.783 272.76C259.772 273.704 259.892 274.641 260.138 275.516C260.383 276.392 260.749 277.189 261.215 277.862C261.68 278.536 262.236 279.072 262.85 279.441C263.464 279.81 264.125 280.004 264.795 280.012C266.147 280.028 267.454 279.287 268.427 277.95C269.399 276.614 269.959 274.792 269.982 272.885C269.994 271.941 269.873 271.004 269.628 270.129C269.382 269.253 269.016 268.456 268.551 267.783C268.085 267.109 267.53 266.573 266.915 266.204C266.301 265.835 265.64 265.641 264.971 265.633Z" fill="#553630"/>
<path d="M404.602 271.186C404.522 267.04 401.996 263.725 398.959 263.783C395.922 263.842 393.524 267.251 393.604 271.398C393.683 275.545 396.21 278.859 399.247 278.801C402.284 278.742 404.681 275.333 404.602 271.186Z" fill="#FFF4E9"/>
<path d="M269.983 272.884C270.032 268.914 267.788 265.667 264.972 265.633C262.155 265.598 259.833 268.789 259.784 272.76C259.736 276.73 261.979 279.977 264.796 280.012C267.612 280.046 269.935 276.855 269.983 272.884Z" fill="#FFF4E9"/>
<path d="M675.303 281.462L685.743 290.862C671.25 294.329 660.523 297.382 653.563 300.022C651.983 300.622 646.343 303.202 636.643 307.762C630.023 310.869 624.526 313.726 620.153 316.332C607.166 324.072 595.396 332.656 584.843 342.082C580.903 345.609 577.546 348.916 574.773 352.002C569.283 358.122 561.633 365.122 555.953 373.002C551.113 379.736 546.77 386.449 542.923 393.142C538.29 401.202 534.15 408.912 530.503 416.272C525.893 425.562 522.493 435.952 519.653 444.152C518.533 447.379 517.966 449.952 517.953 451.872C517.953 452.037 517.895 452.197 517.789 452.323C517.683 452.449 517.536 452.534 517.373 452.562C513.52 453.249 509.346 453.169 504.853 452.322C504.781 452.311 504.714 452.278 504.66 452.229C504.607 452.179 504.569 452.115 504.551 452.043C504.533 451.971 504.536 451.895 504.559 451.824C504.583 451.753 504.626 451.69 504.683 451.642C505.383 451.049 505.866 450.386 506.133 449.652C508.733 442.579 510.953 436.072 512.793 430.132C514.633 424.162 517.393 419.132 519.993 413.222C528.683 393.462 540.763 374.802 554.683 357.432C558.363 352.839 561.573 349.296 564.313 346.802C569.223 342.312 572.483 338.592 577.253 334.772C581.773 331.152 587.963 325.192 593.473 321.352C603.253 314.532 609.396 310.379 611.903 308.892C620.81 303.612 632.38 297.859 646.613 291.632C650.52 289.926 660.083 286.536 675.303 281.462Z" fill="#FF8157"/>
<path d="M889.674 378.942L889.944 378.862C889.976 378.853 890.01 378.856 890.041 378.868C890.071 378.881 890.097 378.903 890.114 378.932C893.64 385.212 898.06 390.692 903.374 395.372C912.834 403.702 922.094 411.122 933.704 415.502C951.094 422.072 972.394 426.272 991.324 424.472C995.894 424.042 1004.78 423.362 1011.29 421.872C1022.64 419.272 1033.1 415.536 1042.66 410.662C1053.29 405.242 1064.89 398.292 1074.22 389.892C1081.36 383.459 1087.74 376.942 1093.35 370.342C1104.75 356.942 1113.82 341.932 1120.55 325.312C1123.02 319.219 1125.13 313.579 1126.87 308.392C1128.58 303.346 1129.73 298.469 1130.31 293.762C1130.32 293.683 1130.35 293.607 1130.41 293.552C1130.46 293.496 1130.54 293.466 1130.62 293.467C1130.7 293.469 1130.77 293.502 1130.83 293.559C1130.88 293.616 1130.92 293.693 1130.91 293.772C1131.25 298.772 1130.47 304.372 1130.13 308.892C1129.91 311.759 1129.69 313.896 1129.45 315.302C1126.72 331.749 1123.44 345.419 1119.61 356.312C1112.05 377.859 1100.7 396.692 1085.57 412.812C1081.93 416.692 1077.19 420.829 1071.35 425.222C1052.47 439.432 1027.81 447.932 1005.19 449.692C995.46 450.446 985.067 449.869 974.014 447.962C941.584 442.352 915.524 423.662 897.984 396.252C896.844 394.479 895.404 391.689 893.664 387.882C892.357 385.029 890.964 382.199 889.484 379.392C889.463 379.351 889.451 379.305 889.449 379.259C889.448 379.212 889.456 379.166 889.474 379.123C889.492 379.08 889.52 379.042 889.554 379.011C889.589 378.98 889.629 378.956 889.674 378.942Z" fill="#FFDABB"/>
<path d="M324.353 323.072C312.663 323.142 299.273 316.352 296.643 304.162C295.533 299.002 299.793 293.512 304.953 297.332C306.603 298.552 307.403 302.092 308.503 304.192C310.993 308.972 319.393 311.692 324.293 311.672C329.193 311.642 337.563 308.832 340.013 304.022C341.083 301.912 341.843 298.362 343.483 297.122C348.603 293.252 352.913 298.692 351.863 303.862C349.363 316.082 336.053 323.012 324.353 323.072Z" fill="#553630"/>
<path d="M125.024 351.242C125.224 362.632 127.784 373.942 135.924 381.982C142.49 388.462 150.127 390.989 158.834 389.562C162.154 389.012 165.184 386.892 168.044 386.172C168.156 386.145 168.273 386.14 168.387 386.16C168.502 386.18 168.611 386.223 168.707 386.287C168.804 386.351 168.887 386.434 168.95 386.531C169.013 386.629 169.055 386.738 169.074 386.852C169.84 391.472 171.74 395.932 174.774 400.232C182.284 410.872 194.914 414.662 207.094 410.232C213.244 407.992 216.904 405.402 221.314 401.412C221.421 401.316 221.549 401.243 221.687 401.199C221.825 401.156 221.97 401.142 222.114 401.159C222.258 401.176 222.396 401.224 222.521 401.298C222.645 401.373 222.751 401.473 222.834 401.592C227.174 407.782 231.854 412.822 238.674 415.852C249.504 420.682 261.694 417.072 269.424 409.152C270.83 407.712 272.637 405.942 274.844 403.842C275.059 403.639 275.346 403.529 275.642 403.536C275.938 403.544 276.219 403.668 276.424 403.882C283.937 411.769 292.884 415.532 303.264 415.172C314.584 414.772 322.594 408.772 330.074 401.302C330.388 400.989 330.803 400.795 331.245 400.757C331.688 400.719 332.13 400.837 332.494 401.092C345.964 410.472 364.314 411.052 376.734 399.512C381.494 395.092 384.944 389.969 387.084 384.142C387.203 383.816 387.412 383.529 387.686 383.317C387.96 383.105 388.289 382.975 388.634 382.942C390.62 382.762 393.11 382.736 396.104 382.862C401.654 383.102 408.914 380.212 414.374 377.632C414.504 377.572 414.649 377.553 414.791 377.578C414.932 377.603 415.062 377.67 415.164 377.772C415.265 377.873 415.333 378.004 415.358 378.145C415.383 378.287 415.364 378.432 415.304 378.562C414.837 379.542 414.45 380.636 414.144 381.842C412.184 389.569 410.64 397.416 409.514 405.382C407.887 416.909 409.284 427.766 413.704 437.952C413.777 438.123 413.797 438.31 413.761 438.489C413.725 438.668 413.635 438.83 413.504 438.952C403.064 448.782 385.264 448.732 373.214 442.342C371.104 441.222 368.874 439.912 366.914 439.462C358.344 437.512 354.054 445.782 348.244 448.932C337.897 454.532 327.207 455.096 316.174 450.622C312.824 449.262 307.794 444.522 303.874 443.832C295.564 442.372 291.144 449.202 284.604 451.772C274.77 455.646 265.37 455.426 256.404 451.112C249.254 447.672 244.514 439.702 236.004 444.042C232.874 445.642 228.594 449.432 224.844 450.752C214.054 454.532 201.894 453.252 193.104 445.082C190.694 442.832 187.884 438.082 184.754 436.512C179.824 434.042 173.994 435.782 169.004 436.702C156.754 438.962 144.214 431.412 138.814 420.742C136.444 416.062 135.704 410.682 134.064 403.922C132.964 399.372 129.104 396.182 126.344 393.142C121.354 387.652 118.944 381.992 118.414 373.632C117.994 367.052 118.87 360.952 121.044 355.332C121.564 353.986 122.74 352.552 124.574 351.032C124.614 351.001 124.663 350.982 124.713 350.976C124.764 350.971 124.816 350.979 124.862 351.001C124.909 351.023 124.948 351.056 124.977 351.099C125.005 351.142 125.021 351.191 125.024 351.242Z" fill="#FFE9D3"/>
<path d="M437.713 463.892C437.707 463.787 437.73 463.682 437.78 463.589C437.83 463.497 437.905 463.42 437.996 463.367C438.087 463.314 438.191 463.287 438.297 463.29C438.402 463.293 438.505 463.325 438.593 463.382C457.526 475.922 478.166 484.606 500.513 489.432C514.643 492.492 530.403 493.892 544.093 487.842C552.239 484.235 559.579 479.152 566.113 472.592C573.453 465.202 579.813 458.102 586.033 449.002C600.413 427.962 608.193 416.162 620.463 400.962C630.063 389.082 641.646 379.752 655.213 372.972C662.766 369.199 668.363 366.709 672.003 365.502C682.953 361.872 689.273 360.342 696.793 355.782C697.058 355.623 697.369 355.557 697.676 355.597C697.983 355.637 698.267 355.78 698.483 356.002C701.876 359.502 703.869 363.666 704.463 368.492C705.803 379.266 703.463 388.959 697.443 397.572C695.023 401.042 695.313 406.922 695.933 412.032C696.406 415.932 696.606 418.515 696.533 419.782C696.206 425.835 694.09 431.372 690.183 436.392C686.789 440.746 682.256 443.472 676.583 444.572C670.813 445.692 671.043 451.092 669.053 455.272C663.953 466.019 655.613 472.176 644.033 473.742C640.783 474.182 638.563 476.592 637.103 479.862C636.423 481.396 635.336 483.376 633.843 485.802C626.343 498.016 615.52 504.266 601.373 504.552C599.933 504.579 598.52 505.439 597.133 507.132C594.193 510.726 592.439 512.799 591.873 513.352C584.779 520.292 576.356 523.452 566.603 522.832C563.783 522.652 560.236 521.999 555.963 520.872C555.164 520.661 554.328 520.61 553.503 520.722C552.35 520.882 550.803 521.319 548.863 522.032C540.913 524.982 532.183 523.802 524.783 519.702C522.403 518.382 518.593 514.592 513.993 513.832C513.621 513.772 513.241 513.766 512.863 513.812C508.656 514.379 505.916 514.672 504.643 514.692C495.39 514.839 487.646 511.972 481.413 506.092C478.973 503.792 477.013 499.642 475.173 497.632C474.433 496.832 473.049 496.092 471.023 495.412C470.618 495.273 470.194 495.189 469.763 495.162C463.323 494.815 458.236 493.529 454.503 491.302C444.043 485.089 438.446 475.952 437.713 463.892ZM549.163 499.872C549.323 503.419 551.17 505.909 554.703 507.342C563.57 510.949 572.13 510.475 580.383 505.922C584.493 503.652 588.923 496.922 592.993 496.722C597.486 496.495 601.326 496.172 604.513 495.752C617.203 494.062 623.653 485.472 631.243 474.462C633.723 470.872 633.893 468.732 639.093 467.252C641.919 466.452 645.603 464.912 650.143 462.632C655.223 460.079 659.156 456.739 661.943 452.612C664.723 448.502 665.513 445.382 667.783 439.602C668.241 438.44 669.094 437.474 670.193 436.872C672.313 435.712 675.153 434.642 676.993 433.342C685.213 427.522 688.013 416.532 686.993 406.862C686.88 405.749 686.63 403.686 686.243 400.672C685.873 397.762 687.093 395.752 688.793 393.162C689.25 392.467 689.431 391.626 689.303 390.802C688.683 386.956 687.516 384.132 685.803 382.332C681.333 377.642 671.483 378.242 665.653 380.672C657.646 384.006 650.289 388.315 643.583 393.602C633.609 401.475 624.339 410.595 615.773 420.962C608.943 429.232 600.813 441.852 596.463 448.472C590.443 457.632 585.529 464.445 581.723 468.912C572.516 479.705 562.166 489.015 550.673 496.842C550.184 497.175 549.789 497.628 549.524 498.158C549.26 498.689 549.136 499.279 549.163 499.872Z" fill="#FFF4E9"/>
<path d="M1392.27 400.352C1390.31 401.922 1388.27 402.702 1384.49 404.562C1377.23 408.142 1372.34 414.262 1370.16 422.152C1368.87 426.812 1367.94 433.832 1363.56 436.202C1363.24 436.376 1362.87 436.438 1362.51 436.378C1362.15 436.319 1361.82 436.141 1361.57 435.872C1357.85 431.812 1358 425.502 1356.79 421.192C1354.24 412.179 1348.47 406.562 1339.47 404.342C1338.45 404.096 1337.11 403.199 1335.45 401.652C1335.32 401.524 1335.21 401.367 1335.14 401.192C1335.07 401.018 1335.04 400.83 1335.05 400.642C1335.21 398.302 1336.33 396.706 1338.41 395.852C1348.18 391.832 1355.15 387.342 1358.13 376.842C1358.32 376.189 1358.98 372.802 1360.1 366.682C1360.16 366.331 1360.33 366.003 1360.57 365.742C1363.57 362.522 1367.12 364.702 1368.02 367.992C1369.24 372.439 1370.21 375.792 1370.93 378.052C1373.92 387.382 1380.14 391.182 1388.63 394.782C1390.28 395.482 1391.64 396.712 1392.61 398.212C1392.83 398.549 1392.92 398.955 1392.86 399.35C1392.79 399.746 1392.59 400.103 1392.27 400.352Z" fill="#FFF4E9"/>
<path d="M1111.29 404.063C1111.3 404.429 1111.33 404.626 1111.38 404.653C1111.6 404.741 1111.85 404.752 1112.07 404.685C1112.3 404.617 1112.49 404.476 1112.62 404.283L1115.52 400.073C1115.7 399.811 1115.98 399.63 1116.29 399.568C1116.6 399.507 1116.93 399.569 1117.19 399.743C1122.49 403.189 1126.61 405.996 1129.54 408.163C1131.78 409.816 1134.58 413.023 1137.92 417.783C1142.46 424.213 1142.77 432.503 1139.32 439.623C1135.81 446.853 1128.18 452.023 1121.42 455.923C1109.2 462.976 1095.96 468.483 1081.72 472.443C1069.26 475.909 1057.24 478.563 1045.67 480.403C1030.43 482.823 1014.2 483.969 996.964 483.843C991.777 483.809 987.887 483.639 985.294 483.333C979.974 482.703 975.534 482.973 969.744 482.143C958.43 480.516 950.727 479.319 946.634 478.553C938.874 477.103 927.693 474.573 918.214 471.223C909.527 468.136 904.094 466.169 901.914 465.323C892.273 461.576 883.07 456.933 874.304 451.393C870.35 448.899 866.954 446.156 864.114 443.163C863.944 442.985 863.736 442.849 863.506 442.764C863.276 442.679 863.029 442.648 862.785 442.673C862.541 442.698 862.306 442.779 862.097 442.909C861.889 443.039 861.713 443.214 861.583 443.423C857.563 449.873 852.314 453.833 845.704 458.713C842.857 460.806 839.71 462.729 836.264 464.483C826.237 469.583 816.017 473.536 805.604 476.343C800.837 477.623 793.747 479.283 784.333 481.323C782.234 481.776 775.914 482.579 765.374 483.733C758.547 484.479 752.194 484.879 746.314 484.933C730.894 485.079 718.44 484.599 708.954 483.493C706.754 483.239 704.784 483.123 703.044 483.143C702.77 483.146 702.504 483.239 702.288 483.407C702.071 483.574 701.915 483.808 701.844 484.073C700.337 489.446 697.807 494.169 694.254 498.243C689.794 503.356 683.517 508.656 675.424 514.143C665.79 520.689 654.187 526.593 640.614 531.853C622.26 538.966 603.32 543.673 583.794 545.973C562.2 548.513 542.724 549.119 525.364 547.793C505.957 546.313 487.904 543.529 471.204 539.443C462.53 537.316 450.537 533.093 435.224 526.773C426.284 523.083 416.874 517.753 409.484 512.743C406.49 510.709 402.7 507.623 398.114 503.483C395.494 501.123 393.43 498.649 391.924 496.063C391.664 495.619 391.283 495.259 390.825 495.026C390.368 494.794 389.853 494.699 389.344 494.753C386.077 495.093 380.49 495.693 372.584 496.553C337.27 500.373 301.404 501.349 264.984 499.483C255.234 498.983 248.924 498.953 240.494 498.133C220.114 496.159 202.99 493.876 189.124 491.283C172.504 488.176 156.467 483.896 141.014 478.443C129.407 474.356 119 468.859 109.794 461.953C106.104 459.193 101.704 455.333 99.5335 451.303C95.4135 443.643 95.8369 436.219 100.804 429.033C105.17 422.713 111.34 417.159 119.314 412.373C119.353 412.349 119.396 412.335 119.442 412.332C119.487 412.328 119.532 412.334 119.575 412.351C119.617 412.367 119.655 412.393 119.686 412.426C119.717 412.459 119.74 412.499 119.754 412.543L123.954 426.443C124.076 426.848 124.347 427.194 124.714 427.413C125.36 427.799 126.107 428.013 126.954 428.053C136.864 446.593 157.034 455.193 177.484 449.983C177.735 449.918 177.998 449.918 178.25 449.983C178.501 450.047 178.733 450.175 178.924 450.353C180.934 452.243 183.084 454.833 185.704 456.963C192.804 462.753 200.424 466.303 210.154 466.953C221.374 467.693 231.734 465.613 240.024 458.013C240.192 457.856 240.41 457.765 240.639 457.756C240.869 457.747 241.094 457.82 241.274 457.963C258.514 471.713 283.474 472.473 301.144 458.823C301.322 458.686 301.539 458.608 301.765 458.601C301.991 458.594 302.214 458.657 302.404 458.783C313.09 465.983 324.744 468.833 337.364 467.333C348.634 466.003 356.214 462.143 364.244 454.453C364.457 454.247 364.73 454.116 365.024 454.078C365.317 454.041 365.615 454.098 365.874 454.243C375.92 459.843 387.227 461.923 399.794 460.483C408.314 459.513 416.234 455.893 422.964 450.613C423.047 450.546 423.144 450.498 423.248 450.473C423.352 450.448 423.46 450.446 423.566 450.467C423.671 450.487 423.771 450.531 423.859 450.594C423.946 450.657 424.02 450.739 424.074 450.833C424.654 451.879 424.944 452.819 424.944 453.653C424.93 459.093 425.064 463.343 425.344 466.403C426.224 476.083 430.344 485.963 437.354 493.433C444.987 501.579 454.64 506.333 466.314 507.693C466.543 507.718 466.764 507.792 466.962 507.911C467.161 508.03 467.332 508.191 467.464 508.383C475.617 520.376 487.09 526.573 501.884 526.973C504.19 527.033 507.11 526.929 510.644 526.663C511.371 526.611 512.093 526.789 512.704 527.173C525.084 534.843 537.394 538.303 551.744 534.153C553.206 533.731 554.745 533.635 556.254 533.873C559.074 534.323 563.124 535.273 566.083 535.383C581.83 536.009 594.55 530.196 604.244 517.943C604.621 517.462 605.174 517.15 605.784 517.073C621.197 515.213 633.3 508.083 642.094 495.683C644.094 492.863 645.703 489.523 647.594 486.853C647.884 486.44 648.318 486.149 648.814 486.033C664.394 482.393 675.34 472.876 681.654 457.483C681.788 457.15 681.993 456.852 682.254 456.608C682.515 456.365 682.826 456.182 683.164 456.073C691.157 453.479 697.517 448.473 702.244 441.053C702.303 440.959 702.382 440.879 702.475 440.818C702.568 440.757 702.673 440.717 702.783 440.699C702.893 440.682 703.005 440.689 703.112 440.719C703.219 440.749 703.318 440.801 703.404 440.873C711.893 447.973 723.904 453.163 735.094 451.553C737.78 451.173 740.404 450.733 742.964 450.233C743.54 450.123 744.136 450.211 744.654 450.483C744.8 450.563 745.997 451.229 748.244 452.483C762.57 460.496 776.604 460.663 790.344 452.983C796.054 449.793 800.474 445.503 804.554 440.163C804.753 439.9 805.01 439.686 805.304 439.535C805.598 439.385 805.923 439.302 806.254 439.293C808.727 439.233 811.43 439.006 814.364 438.613C825.583 437.093 835.484 429.133 841.514 419.743C848.027 409.616 851.227 398.473 851.114 386.313C851.111 386.163 851.168 386.019 851.273 385.91C851.378 385.802 851.521 385.738 851.674 385.733C859.727 385.526 866.544 382.856 872.124 377.723C872.206 377.65 872.304 377.598 872.41 377.57C872.516 377.543 872.627 377.542 872.733 377.566C872.839 377.591 872.937 377.641 873.019 377.711C873.101 377.782 873.164 377.872 873.204 377.973C878.217 390.799 884.927 402.789 893.333 413.943C909.667 435.603 931.003 450.343 957.344 458.163C970.337 462.016 983.68 464.019 997.374 464.173C1012.28 464.333 1028.24 461.173 1042.44 456.463C1071.09 446.963 1093.82 428.533 1111.29 404.063Z" fill="#FFBCBA"/>
<path d="M549.163 499.872C549.136 499.279 549.26 498.689 549.524 498.158C549.789 497.628 550.184 497.175 550.673 496.842C562.166 489.016 572.516 479.706 581.723 468.912C585.53 464.446 590.443 457.632 596.463 448.472C600.813 441.852 608.943 429.232 615.773 420.962C624.34 410.596 633.61 401.476 643.583 393.602C650.29 388.316 657.646 384.006 665.653 380.672C671.483 378.242 681.333 377.642 685.803 382.332C687.516 384.132 688.683 386.956 689.303 390.802C689.431 391.626 689.25 392.467 688.793 393.162C687.093 395.752 685.873 397.762 686.243 400.672C686.63 403.686 686.88 405.749 686.993 406.862C688.013 416.532 685.213 427.522 676.993 433.342C675.153 434.642 672.313 435.712 670.193 436.872C669.094 437.474 668.241 438.44 667.783 439.602C665.513 445.382 664.723 448.502 661.943 452.612C659.156 456.739 655.223 460.079 650.143 462.632C645.603 464.912 641.92 466.452 639.093 467.252C633.893 468.732 633.723 470.872 631.243 474.462C623.653 485.472 617.203 494.062 604.513 495.752C601.326 496.172 597.486 496.496 592.993 496.722C588.923 496.922 584.493 503.652 580.383 505.922C572.13 510.476 563.57 510.949 554.703 507.342C551.17 505.909 549.323 503.419 549.163 499.872ZM659.493 422.422C664.063 417.842 669.563 408.202 664.133 402.612C663.917 402.391 663.65 402.225 663.355 402.128C663.061 402.032 662.748 402.008 662.442 402.059C662.136 402.111 661.848 402.235 661.601 402.422C661.354 402.608 661.155 402.852 661.023 403.132C659.616 406.112 657.77 409.446 655.483 413.132C652.91 417.286 653.75 420.459 658.003 422.652C658.244 422.777 658.518 422.821 658.785 422.78C659.053 422.739 659.301 422.613 659.493 422.422ZM644.363 433.482C644.261 433.147 644.066 432.847 643.801 432.618C643.535 432.389 643.21 432.24 642.863 432.188C642.516 432.137 642.162 432.185 641.841 432.328C641.521 432.47 641.247 432.701 641.053 432.992C637.886 437.752 634.333 441.402 630.393 443.942C629.966 444.216 629.598 444.571 629.309 444.988C629.02 445.405 628.817 445.876 628.711 446.372C628.605 446.868 628.598 447.381 628.691 447.881C628.784 448.38 628.975 448.857 629.253 449.282L630.053 450.502C630.335 450.936 630.701 451.308 631.13 451.598C631.558 451.887 632.041 452.088 632.549 452.187C633.057 452.287 633.58 452.284 634.088 452.178C634.595 452.073 635.076 451.867 635.503 451.572C639.343 448.926 642.296 445.206 644.363 440.412C645.157 438.572 645.274 436.51 644.693 434.592L644.363 433.482ZM613.773 460.342L609.663 465.352C609.224 465.884 608.731 466.367 608.193 466.792C604.38 469.746 601.61 471.936 599.883 473.362C599.116 473.996 598.5 474.986 598.033 476.332C597.982 476.487 597.963 476.652 597.977 476.815C597.99 476.978 598.037 477.137 598.113 477.282C599.133 479.182 602.763 482.752 605.143 481.652C612.873 478.092 619.463 468.992 615.233 460.512C615.167 460.381 615.069 460.268 614.949 460.184C614.829 460.099 614.69 460.046 614.545 460.029C614.399 460.013 614.253 460.032 614.118 460.087C613.983 460.142 613.864 460.229 613.773 460.342Z" fill="#FFF4E9"/>
<path d="M659.493 422.422C659.301 422.614 659.054 422.739 658.786 422.78C658.518 422.821 658.244 422.777 658.003 422.652C653.75 420.459 652.91 417.286 655.483 413.132C657.77 409.446 659.617 406.112 661.023 403.132C661.156 402.852 661.354 402.609 661.601 402.422C661.848 402.235 662.137 402.111 662.442 402.059C662.748 402.008 663.061 402.032 663.356 402.128C663.65 402.225 663.917 402.391 664.133 402.612C669.563 408.202 664.063 417.842 659.493 422.422Z" fill="#FFDABB"/>
<path d="M644.364 433.482L644.694 434.592C645.275 436.51 645.158 438.572 644.364 440.412C642.297 445.206 639.344 448.926 635.504 451.572C635.077 451.867 634.596 452.073 634.088 452.178C633.581 452.284 633.058 452.287 632.55 452.187C632.042 452.088 631.559 451.887 631.13 451.598C630.702 451.308 630.335 450.936 630.054 450.502L629.254 449.282C628.976 448.857 628.785 448.38 628.692 447.881C628.599 447.381 628.606 446.868 628.712 446.372C628.818 445.875 629.021 445.405 629.31 444.988C629.598 444.571 629.967 444.216 630.394 443.942C634.334 441.402 637.887 437.752 641.054 432.992C641.248 432.701 641.522 432.47 641.842 432.328C642.163 432.185 642.517 432.137 642.864 432.188C643.211 432.24 643.536 432.389 643.802 432.618C644.067 432.847 644.262 433.147 644.364 433.482Z" fill="#FFDABB"/>
<path d="M613.773 460.342C613.865 460.229 613.983 460.142 614.118 460.087C614.253 460.032 614.4 460.012 614.545 460.029C614.69 460.046 614.829 460.099 614.95 460.184C615.07 460.268 615.167 460.381 615.233 460.512C619.463 468.992 612.873 478.092 605.143 481.652C602.763 482.752 599.133 479.182 598.113 477.282C598.037 477.137 597.991 476.978 597.977 476.815C597.963 476.651 597.982 476.487 598.033 476.332C598.5 474.986 599.117 473.996 599.883 473.362C601.61 471.936 604.38 469.746 608.193 466.792C608.732 466.367 609.225 465.884 609.663 465.352L613.773 460.342Z" fill="#FFDABB"/>
<path d="M973.626 285.559C973.543 283.041 971.354 281.07 968.738 281.157C966.121 281.244 964.068 283.355 964.151 285.874C964.235 288.392 966.424 290.363 969.04 290.276C971.657 290.189 973.71 288.077 973.626 285.559Z" fill="#FFF4E9"/>
<ellipse cx="969" cy="241" rx="18" ry="17" fill="#E94822"/>
<ellipse cx="998.963" cy="279.319" rx="50.2236" ry="54" transform="rotate(27.8101 998.963 279.319)" fill="#FF822B"/>
<ellipse cx="981.929" cy="251.913" rx="11" ry="11.8078" transform="rotate(29.2187 981.929 251.913)" fill="#FFF4E9"/>
</svg>
