<svg width="1049" height="549" viewBox="0 0 1049 549" fill="none" xmlns="http://www.w3.org/2000/svg">
<g clip-path="url(#clip0_39_4739)">
<path d="M870.592 213.226C888.322 200.766 909.75 195.115 930.17 197.52C950.59 199.925 968.33 210.187 979.48 226.048C990.62 241.91 994.27 262.073 989.62 282.1C984.96 302.127 972.39 320.379 954.66 332.84C936.93 345.3 915.49 350.949 895.075 348.545C874.656 346.14 856.921 335.878 845.774 320.016C834.626 304.155 830.978 283.992 835.632 263.965C840.286 243.939 852.862 225.687 870.592 213.226ZM868.208 238.771C865.35 245.972 865.98 253.318 873.175 255.022C878.289 256.237 883.666 252.74 887.462 248.85C886.657 248.948 885.835 249.001 885 249.001C877.349 249 870.813 244.756 868.208 238.771Z" fill="#E94822"/>
<path d="M816.343 417.862C791.123 392.562 777.803 356.122 779.833 320.082C782.763 268.242 809.823 221.952 851.523 191.502C872.903 175.882 896.837 166.575 923.32 163.582C954.08 160.102 987.91 168.332 1009.18 193.022C1019.3 204.762 1026.46 218.112 1030.65 233.072C1033.63 243.679 1035.35 254.692 1035.82 266.112C1036.3 277.479 1036.3 287.642 1035.84 296.602C1034.33 325.822 1026.64 356.472 1012.65 382.382C995.91 413.409 971.49 434.302 939.39 445.062C896.713 459.382 848.533 450.142 816.343 417.862ZM979.47 226.048C968.33 210.187 950.59 199.925 930.17 197.52C909.75 195.115 888.32 200.764 870.59 213.225C852.86 225.686 840.285 243.938 835.631 263.965C830.976 283.992 834.624 304.154 845.772 320.016C856.92 335.877 874.654 346.139 895.074 348.544C915.49 350.949 936.93 345.3 954.66 332.839C972.39 320.378 984.96 302.126 989.62 282.099C994.27 262.072 990.62 241.91 979.47 226.048ZM792.673 378.942C792.629 378.956 792.588 378.979 792.554 379.011C792.519 379.042 792.492 379.08 792.474 379.123C792.456 379.166 792.447 379.212 792.449 379.259C792.451 379.305 792.462 379.351 792.483 379.392C793.963 382.199 795.357 385.029 796.663 387.882C798.403 391.689 799.843 394.479 800.983 396.252C818.523 423.662 844.583 442.352 877.013 447.962C888.067 449.869 898.46 450.445 908.19 449.692C930.81 447.932 955.47 439.432 974.35 425.222C980.19 420.829 984.93 416.692 988.57 412.812C1003.7 396.692 1015.05 377.859 1022.61 356.312C1026.44 345.419 1029.72 331.749 1032.45 315.302C1032.69 313.895 1032.91 311.759 1033.13 308.892C1033.47 304.372 1034.25 298.772 1033.91 293.772C1033.91 293.692 1033.88 293.616 1033.83 293.558C1033.77 293.501 1033.7 293.468 1033.62 293.467C1033.54 293.466 1033.46 293.496 1033.4 293.551C1033.35 293.607 1033.31 293.683 1033.31 293.762C1032.73 298.469 1031.58 303.345 1029.87 308.392C1028.13 313.579 1026.02 319.219 1023.55 325.312C1016.82 341.932 1007.75 356.942 996.35 370.342C990.74 376.942 984.36 383.459 977.22 389.892C967.89 398.292 956.29 405.242 945.66 410.662C936.1 415.535 925.64 419.272 914.29 421.872C907.78 423.362 898.893 424.042 894.323 424.472C875.393 426.272 854.093 422.072 836.703 415.502C825.093 411.122 815.833 403.702 806.373 395.372C801.06 390.692 796.64 385.212 793.113 378.932C793.097 378.903 793.071 378.881 793.04 378.868C793.009 378.855 792.975 378.853 792.943 378.862L792.673 378.942Z" fill="#FFF4E9"/>
<path d="M1014.29 404.062C996.82 428.532 974.09 446.962 945.44 456.462C931.24 461.172 915.28 464.332 900.374 464.172C886.68 464.019 873.337 462.016 860.344 458.162C834.004 450.342 812.667 435.602 796.334 413.942C787.927 402.789 781.217 390.799 776.204 377.972C776.165 377.872 776.101 377.782 776.02 377.711C775.938 377.64 775.839 377.591 775.733 377.566C775.627 377.542 775.516 377.543 775.41 377.57C775.304 377.597 775.206 377.65 775.124 377.722C769.544 382.856 762.727 385.526 754.674 385.732C754.522 385.738 754.378 385.801 754.273 385.91C754.168 386.018 754.111 386.163 754.114 386.312C754.227 398.472 751.027 409.616 744.514 419.742C738.484 429.132 728.584 437.092 717.364 438.612C714.43 439.006 711.727 439.232 709.254 439.292C708.923 439.302 708.598 439.385 708.304 439.535C708.01 439.686 707.754 439.9 707.554 440.162C703.474 445.502 699.054 449.792 693.344 452.982C679.604 460.662 665.57 460.496 651.244 452.482C648.997 451.229 647.8 450.562 647.654 450.482C647.136 450.211 646.541 450.122 645.964 450.232C643.404 450.732 640.78 451.172 638.094 451.552C626.904 453.162 614.894 447.972 606.404 440.872C606.319 440.801 606.219 440.749 606.112 440.719C606.005 440.689 605.893 440.682 605.783 440.699C605.673 440.716 605.568 440.757 605.475 440.818C605.382 440.878 605.303 440.959 605.244 441.052C600.517 448.472 594.157 453.479 586.164 456.072C585.826 456.182 585.515 456.365 585.255 456.608C584.994 456.852 584.789 457.15 584.654 457.482C578.34 472.876 567.394 482.392 551.814 486.032C551.318 486.148 550.884 486.44 550.594 486.852C548.704 489.522 547.094 492.862 545.094 495.682C536.3 508.082 524.197 515.212 508.784 517.072C508.174 517.15 507.621 517.462 507.244 517.942C497.55 530.196 484.83 536.009 469.084 535.382C466.124 535.272 462.074 534.322 459.254 533.872C457.745 533.635 456.206 533.731 454.744 534.152C440.394 538.302 428.084 534.842 415.704 527.172C415.093 526.789 414.372 526.61 413.644 526.662C410.11 526.929 407.19 527.032 404.884 526.972C390.09 526.572 378.617 520.376 370.464 508.382C370.332 508.191 370.161 508.03 369.962 507.911C369.764 507.792 369.543 507.717 369.314 507.692C357.64 506.332 347.987 501.579 340.354 493.432C333.344 485.962 329.224 476.082 328.344 466.402C328.064 463.342 327.93 459.092 327.944 453.652C327.944 452.819 327.654 451.879 327.074 450.832C327.02 450.738 326.947 450.657 326.859 450.594C326.771 450.531 326.671 450.487 326.566 450.466C326.46 450.445 326.352 450.448 326.248 450.473C326.144 450.498 326.047 450.546 325.964 450.612C319.234 455.892 311.314 459.512 302.794 460.482C290.227 461.922 278.92 459.842 268.874 454.242C268.615 454.098 268.318 454.04 268.024 454.078C267.731 454.116 267.457 454.247 267.244 454.452C259.214 462.142 251.634 466.002 240.364 467.332C227.744 468.832 216.09 465.982 205.404 458.782C205.215 458.657 204.991 458.594 204.765 458.601C204.54 458.608 204.322 458.685 204.144 458.822C186.474 472.472 161.514 471.712 144.274 457.962C144.094 457.82 143.869 457.747 143.639 457.756C143.41 457.765 143.192 457.856 143.024 458.012C134.734 465.612 124.374 467.692 113.154 466.952C103.424 466.302 95.8038 462.752 88.7038 456.962C86.0838 454.832 83.9338 452.242 81.9238 450.352C81.7328 450.174 81.5018 450.047 81.2498 449.983C80.9978 449.918 80.7348 449.918 80.4838 449.982C60.0338 455.192 39.8638 446.592 29.9538 428.052C26.6468 422.039 24.7298 415.736 24.2038 409.142C24.1388 408.39 23.7918 407.693 23.2338 407.192C15.1398 399.879 9.93383 390.609 7.61383 379.382C7.03383 376.589 6.75983 372.639 6.79383 367.532C6.87383 356.662 10.7638 346.412 17.3338 338.172C17.4758 337.993 17.5648 337.777 17.5878 337.55C17.6108 337.323 17.5678 337.095 17.4638 336.892C5.19383 313.132 12.3938 284.762 33.7438 268.952C34.0318 268.738 34.2518 268.444 34.3768 268.107C34.5008 267.769 34.5238 267.403 34.4438 267.052C29.7038 246.592 37.2538 225.382 53.8938 212.642C58.1138 209.409 62.7238 207.142 67.7238 205.842C67.9408 205.784 68.1328 205.656 68.2688 205.476C68.4048 205.297 68.4768 205.077 68.4738 204.852C68.2598 192.106 71.6968 180.689 78.7838 170.602C87.3368 158.436 98.9968 152.139 113.764 151.712C113.913 151.706 114.056 151.655 114.173 151.565C114.289 151.475 114.374 151.352 114.414 151.212C118.2 138.046 126.004 127.746 137.824 120.312C149.257 113.112 161.55 111.266 174.704 114.772C174.982 114.846 175.275 114.836 175.546 114.743C175.817 114.65 176.053 114.48 176.224 114.252C189.694 96.2924 216.624 86.2824 237.344 98.3924C237.479 98.4675 237.632 98.5035 237.786 98.4965C237.94 98.4894 238.088 98.4395 238.214 98.3524C253.014 88.0457 268.584 85.5357 284.924 90.8224C295.484 94.2424 305.354 101.292 311.364 110.592C311.465 110.745 311.612 110.861 311.783 110.923C311.955 110.984 312.141 110.988 312.314 110.932C336.884 103.202 363.034 121.472 366.794 146.472C366.813 146.589 366.872 146.695 366.962 146.772C367.052 146.849 367.166 146.892 367.284 146.892C383.404 146.762 396.944 154.412 405.304 168.192C410.984 177.539 413.287 188.246 412.214 200.312C412.19 200.559 412.247 200.807 412.375 201.019C412.502 201.231 412.695 201.397 412.924 201.492C431.144 209.072 440.824 229.512 439.664 248.492C439.662 248.55 439.674 248.607 439.699 248.658C439.723 248.71 439.761 248.754 439.807 248.787C439.853 248.82 439.906 248.84 439.961 248.847C440.017 248.853 440.073 248.844 440.124 248.822C460.29 240.669 481.784 237.389 504.604 238.982C504.656 238.984 504.707 238.972 504.753 238.946C504.798 238.92 504.835 238.882 504.86 238.837C504.885 238.791 504.897 238.739 504.894 238.687C504.891 238.635 504.874 238.585 504.844 238.542C493.704 223.182 491.014 201.652 500.874 184.872C501 184.662 501.058 184.417 501.038 184.172C501.018 183.926 500.922 183.692 500.764 183.502C490.964 171.932 487.124 153.782 493.434 139.792C493.467 139.72 493.483 139.641 493.483 139.561C493.482 139.481 493.464 139.402 493.43 139.329C493.396 139.256 493.346 139.191 493.285 139.138C493.223 139.085 493.152 139.046 493.074 139.022C482.114 135.989 471.517 131.556 461.284 125.722C451.964 120.412 444.424 115.632 438.254 107.992C431.954 100.182 428.284 88.8124 434.964 80.2324C442.184 70.9724 457.324 71.9424 467.724 74.3624C467.806 74.38 467.891 74.3733 467.969 74.3432C468.047 74.3131 468.114 74.2609 468.163 74.1929C468.212 74.125 468.24 74.0443 468.244 73.9607C468.247 73.8771 468.226 73.7943 468.184 73.7224C463.437 65.789 460.14 57.2557 458.294 48.1224C456.194 37.7424 457.624 22.9824 466.864 15.8024C484.364 2.23239 503.984 23.3324 512.814 36.8624C512.865 36.9391 512.938 36.999 513.022 37.0348C513.107 37.0705 513.201 37.0805 513.292 37.0634C513.382 37.0464 513.466 37.003 513.532 36.9388C513.598 36.8746 513.644 36.7924 513.664 36.7024C515.31 29.0824 517.847 21.6991 521.274 14.5524C524.664 7.47239 530.514 1.42239 538.424 0.242394C550.614 -1.57761 559.074 7.11239 563.694 17.5524C569.404 30.4524 570.354 46.0424 568.834 60.1024C567.334 73.9224 564.124 86.9524 559.204 99.1924C559.18 99.2507 559.17 99.3139 559.175 99.3767C559.181 99.4396 559.201 99.5002 559.234 99.5539C559.267 99.6075 559.312 99.6525 559.366 99.6853C559.42 99.718 559.481 99.7376 559.544 99.7424C563.317 100.036 566.827 100.926 570.074 102.412C583.374 108.522 593.474 120.252 595.214 135.032C595.234 135.21 595.313 135.377 595.438 135.505C595.563 135.634 595.726 135.717 595.904 135.742C604.57 136.956 612.467 140.386 619.594 146.032C632.62 156.366 639.874 170.012 641.354 186.972C641.374 187.186 641.472 187.385 641.629 187.529C641.787 187.673 641.992 187.753 642.204 187.752H648.574C648.718 187.753 648.857 187.703 648.969 187.612C649.08 187.521 649.156 187.394 649.184 187.252C649.957 183.239 650.697 180.452 651.404 178.892C655.974 168.742 663.934 157.702 673.444 152.102C682.024 147.036 691.844 144.902 702.904 145.702C723.344 147.172 735.334 167.592 735.794 186.412C735.795 186.456 735.808 186.499 735.832 186.535C735.856 186.571 735.89 186.6 735.93 186.618C735.97 186.636 736.014 186.642 736.057 186.636C736.1 186.629 736.141 186.611 736.174 186.582C739.087 184.096 742.454 181.802 746.274 179.702C753.154 175.932 759.914 172.702 767.614 172.762C780.744 172.852 791.284 183.232 795.144 195.052C798.644 205.812 799.29 216.916 797.084 228.362C797.063 228.466 797.079 228.574 797.129 228.667C797.179 228.761 797.259 228.834 797.356 228.875C797.454 228.916 797.562 228.922 797.664 228.893C797.766 228.863 797.854 228.799 797.914 228.712C813.147 206.746 831.994 188.582 854.454 174.222C881.074 157.202 910.38 149.236 942.36 150.322C962.56 151.009 980.66 156.289 996.67 166.162C1020.18 180.672 1036.31 204.902 1043.23 231.702C1048.71 252.902 1049.41 274.232 1048.36 296.062C1047.49 314.196 1044.42 332.409 1039.15 350.702C1033.59 370.009 1025.31 387.796 1014.29 404.062ZM503.034 104.852C501.86 106.506 500.12 107.006 497.814 106.352C492.604 103.662 489.794 98.7424 485.214 96.2924C474.724 90.6624 464.304 85.7224 452.424 86.4724C447.964 86.7524 443.764 88.1424 444.994 93.3924C445.454 95.3724 446.484 97.2891 448.084 99.1424C449.617 101.422 451.084 103.122 452.484 104.242C464.55 113.876 478.037 120.876 492.944 125.242C496.83 126.382 500.747 127.442 504.694 128.422C505.157 128.541 505.597 128.741 505.994 129.012L507.834 130.282C511.164 133.092 510.244 137.662 508.054 140.802C505.367 143.749 503.764 146.956 503.244 150.422C501.974 158.922 504.374 170.502 511.544 176.232C513.857 178.079 515.327 179.346 515.954 180.032C518.074 182.322 518.794 185.632 516.354 187.872C514.884 189.222 512.884 190.482 511.654 192.152C508.894 195.879 507.417 200.556 507.224 206.182C506.924 215.196 509.274 223.202 514.274 230.202C518.414 235.992 525.684 241.582 531.824 243.672C541.417 246.939 548.714 249.726 553.714 252.032C566 257.706 577.64 264.976 588.634 273.842C595.834 279.649 602.197 286.696 607.724 294.982C617.594 309.762 623.444 332.142 611.304 347.162C611.159 347.341 611.08 347.563 611.08 347.792C611.08 348.022 611.159 348.244 611.304 348.422C616.214 354.402 619.264 361.822 619.624 369.842C620.184 382.272 618.114 393.152 611.124 403.732C610.82 404.195 610.611 404.713 610.51 405.257C610.408 405.802 610.417 406.361 610.534 406.902C611.854 412.916 612.107 419.149 611.294 425.602C610.994 428.042 611.254 428.512 612.874 430.082C619.824 436.812 629.544 441.092 639.144 438.892C639.944 438.712 642.117 438.016 645.664 436.802C646.014 436.683 646.384 436.633 646.754 436.652C650.864 436.882 654.844 440.482 657.184 441.822C670.094 449.222 685.664 447.202 695.564 435.802C697.21 433.909 698.927 431.796 700.714 429.462C702.02 427.762 703.74 426.869 705.874 426.782C710.714 426.582 714.534 427.002 719.114 425.592C725.08 423.766 730.034 419.822 733.974 413.762C740.414 403.882 744.494 390.122 739.554 379.432C738.764 377.732 738.244 375.822 738.874 374.362C741.274 368.816 743.117 363.909 744.404 359.642C748.074 347.462 744.924 334.772 740.174 323.302C737.074 315.822 732.574 309.242 725.724 305.302C725.398 305.116 725.053 304.965 724.694 304.852C722.114 304.046 720.507 303.246 719.874 302.452C718.534 300.786 717.894 299.329 717.954 298.082C718.234 292.189 718.204 286.782 717.864 281.862C717.81 281.122 717.5 280.036 716.934 278.602C715.854 270.942 711.594 264.682 704.154 259.822C697.9 255.749 690.847 253.242 682.994 252.302C677.554 251.642 673.584 250.762 674.174 244.702C674.764 238.592 675.324 231.832 673.794 226.352C670.474 214.472 662.164 206.852 651.134 202.122C648.44 200.969 646.337 200.409 644.824 200.442C638.984 200.572 633.754 201.592 630.784 197.802C630.204 197.069 629.85 195.066 629.724 191.792C629.45 184.679 627.73 177.869 624.564 171.362C619.024 160.002 606.564 149.062 592.904 149.372C589.037 149.459 586.737 149.309 586.004 148.922C583.417 147.529 582.29 145.356 582.624 142.402C583.617 133.529 581.08 126.239 575.014 120.532C569.774 115.612 563.697 112.619 556.784 111.552C555.837 111.412 553.74 111.329 550.494 111.302C548.32 111.289 546.224 111.146 544.204 110.872C542.057 108.326 541.62 105.749 542.894 103.142C546.924 94.8924 550.734 86.8924 552.554 77.8324C555.974 64.9391 557.047 51.8724 555.774 38.6324C555.127 31.9457 553.467 25.8791 550.794 20.4324C549.084 16.9524 544.624 12.7424 540.274 13.9724C535.454 15.3324 533.074 19.5024 531.174 24.1924C529.3 28.8124 527.877 33.469 526.904 38.1624C525.997 42.529 525.47 47.3657 525.324 52.6724C525.23 55.9191 525.057 63.2257 524.804 74.5924C524.744 77.4524 522.284 79.7324 519.484 78.2324C516.344 76.5524 515.274 72.1024 514.454 69.5224C511.654 60.6624 507.864 52.6624 503.084 45.5224C497.654 37.4024 492.234 30.2924 484.084 26.3124C476.194 22.4624 470.974 29.8124 470.684 36.9224C470.39 44.1024 471.877 51.089 475.144 57.8824C479.464 66.8557 484.897 75.7457 491.444 84.5524C493.557 87.3857 497.417 92.4424 503.024 99.7224C504.09 101.109 504.094 102.819 503.034 104.852ZM319.044 439.712C319.178 439.579 319.265 439.407 319.294 439.222C319.323 439.036 319.291 438.847 319.204 438.682C315.39 431.242 313.414 423.446 313.274 415.292C313.2 411.012 313.92 404.769 315.434 396.562C316.827 389.009 318.374 382.922 320.074 378.302C330.62 349.562 345.937 323.796 366.024 301.002C374.29 291.622 384.21 282.632 395.784 274.032C405.17 267.059 414.617 261.029 424.124 255.942C424.944 255.5 425.555 254.748 425.824 253.852C427.464 248.259 427.664 242.599 426.424 236.872C423.984 225.612 416.194 214.282 403.884 212.922C401.95 212.709 400.42 211.639 399.294 209.712C398.634 208.572 398.564 206.676 399.084 204.022C402.534 186.452 395.924 168.082 378.834 161.282C373.52 159.169 368.104 158.592 362.584 159.552C358.524 160.262 355.234 157.262 355.064 153.112C354.254 133.132 337.454 119.092 317.614 122.582C314.464 123.142 309.814 126.042 306.754 124.452C305.127 123.612 303.744 122.249 302.604 120.362C291.264 101.702 268.194 95.1524 248.984 106.302C244.584 108.852 239.624 115.762 234.474 111.882C227.347 106.509 219.444 104.706 210.764 106.472C198.81 108.906 189.974 115.332 184.254 125.752C181.014 131.662 177.074 129.552 172.274 127.552C164.764 124.422 155.594 125.432 148.524 128.792C137.437 134.066 130.114 142.662 126.554 154.582C125.384 158.472 126.344 162.652 121.634 164.472C120.794 164.792 119.117 164.819 116.604 164.552C107.534 163.592 99.0738 166.872 92.5138 173.632C85.0198 181.352 81.1698 190.932 80.9638 202.372C80.9298 204.179 80.9898 207.092 81.1438 211.112C81.3438 216.262 77.5538 217.132 73.5138 217.772C66.9638 218.812 61.1038 222.102 56.4838 227.022C47.3498 236.776 43.9868 248.406 46.3938 261.912C46.7468 263.892 47.2668 265.856 47.9538 267.802C48.8538 270.329 49.1538 272.149 48.8538 273.262C48.2868 275.362 47.1568 276.769 45.4638 277.482C39.5698 279.969 34.8598 283.822 31.3338 289.042C23.5738 300.536 21.8768 312.866 26.2438 326.032C27.1838 328.886 28.7498 331.712 30.9438 334.512C32.1438 336.039 32.5668 337.912 32.2138 340.132C32.0668 341.066 30.9298 342.576 28.8038 344.662C24.1898 349.196 21.2698 354.636 20.0438 360.982C17.0898 376.349 21.3138 388.889 32.7138 398.602C34.4038 400.042 35.9138 401.602 35.9838 403.562C36.3738 415.192 40.8938 426.002 50.2938 432.862C59.3338 439.456 69.6898 440.662 81.3638 436.482C83.8568 435.589 86.3038 436.172 88.7038 438.232C88.8828 438.385 89.0408 438.563 89.1738 438.762C95.4338 448.102 103.484 453.952 114.854 454.822C125.344 455.622 131.834 451.832 139.504 445.512C141.377 443.966 143.554 443.429 146.034 443.902C147.14 444.109 148.994 445.379 151.594 447.712C163.584 458.482 183.664 459.412 196.064 449.062C198.39 447.116 199.984 445.849 200.844 445.262C205.044 442.382 207.964 444.622 211.844 447.812C217.51 452.479 224.354 454.946 232.374 455.212C244.127 455.606 253.814 451.526 261.434 442.972C267.664 435.962 272.564 442.902 278.754 445.352C291.394 450.362 308.834 449.912 319.044 439.712ZM691.614 241.212C696.907 242.726 702.08 244.696 707.134 247.122C724.694 255.552 731.554 273.982 730.824 292.622C730.815 292.92 730.882 293.214 731.018 293.478C731.155 293.743 731.356 293.968 731.604 294.132C740.75 300.192 747.35 308.339 751.404 318.572C753.984 325.092 755.847 331.222 756.994 336.962C759.34 348.722 758.177 360.219 753.504 371.452C753.453 371.579 753.433 371.716 753.445 371.852C753.458 371.988 753.502 372.12 753.576 372.235C753.649 372.35 753.749 372.447 753.867 372.516C753.985 372.585 754.117 372.625 754.254 372.632C757.967 372.819 761.367 371.822 764.454 369.642C766.534 368.172 768.904 366.472 770.304 364.612C770.727 364.055 771.017 363.409 771.152 362.723C771.288 362.036 771.264 361.328 771.084 360.652C767.137 345.759 765.957 330.606 767.544 315.192C768.95 301.539 771.617 288.306 775.544 275.492C776.997 270.739 778.96 265.122 781.434 258.642L784.014 253.372C784.061 253.272 784.081 253.162 784.073 253.051C784.066 252.941 784.03 252.835 783.969 252.743C783.909 252.651 783.826 252.577 783.728 252.528C783.631 252.479 783.523 252.456 783.414 252.462C777.034 252.762 774.824 250.572 777.604 244.362C780.77 237.316 782.884 231.839 783.944 227.932C786.944 216.922 786.504 195.572 775.874 188.542C771.834 185.872 767.704 184.882 763.114 186.362C755.314 188.889 748.414 192.909 742.414 198.422C738.567 201.949 735.114 204.986 732.054 207.532C727.214 211.562 723.534 206.362 723.574 201.862C723.594 199.509 723.397 194.109 722.984 185.662C722.524 176.196 719.067 168.526 712.614 162.652C710.384 160.612 707.394 158.912 704.474 158.512C697.78 157.599 691.014 158.432 684.174 161.012C677.474 163.532 672.454 168.832 668.264 174.532C664.584 179.526 662.26 185.056 661.294 191.122C661.207 191.643 661.279 192.178 661.5 192.659C661.721 193.139 662.081 193.545 662.534 193.822C672.904 200.182 680.734 207.482 684.644 219.382C686.91 226.269 687.697 232.922 687.004 239.342C686.976 239.608 687.049 239.875 687.209 240.089C687.368 240.304 687.601 240.451 687.864 240.502L691.614 241.212ZM816.344 417.862C848.534 450.142 896.714 459.382 939.39 445.062C971.49 434.302 995.91 413.409 1012.65 382.382C1026.64 356.472 1034.33 325.822 1035.84 296.602C1036.3 287.642 1036.3 277.479 1035.82 266.112C1035.35 254.692 1033.63 243.679 1030.65 233.072C1026.46 218.112 1019.3 204.762 1009.18 193.022C987.91 168.332 954.08 160.102 923.32 163.582C896.837 166.576 872.904 175.882 851.524 191.502C809.824 221.952 782.764 268.242 779.834 320.082C777.804 356.122 791.124 392.562 816.344 417.862ZM588.744 290.862L578.304 281.462C570.457 275.542 562.654 270.676 554.894 266.862C546.354 262.722 537.584 259.139 528.584 256.112C522.59 254.099 517.184 253.022 512.364 252.882C509.057 251.969 505.64 251.486 502.114 251.432C488.2 251.206 476.957 251.886 468.384 253.472C463.13 254.446 458.814 255.522 455.434 256.702C448.9 258.996 440.594 262.436 430.514 267.022C419.667 271.956 408.71 279.172 397.644 288.672C382.534 301.652 368.854 315.512 358.234 330.942C345.127 349.996 335.38 370.672 328.994 392.972C327.84 396.999 326.954 401.642 326.334 406.902C324.714 420.602 327.954 432.342 336.054 442.122C339.654 446.469 344.81 450.802 351.524 455.122C369.214 466.502 389.844 474.252 410.304 477.992C416.714 479.162 422.864 479.362 428.814 478.972C439.234 478.286 448.407 474.489 456.334 467.582C465.58 459.529 473.994 449.776 481.574 438.322C492.18 422.309 502.81 407.532 513.464 393.992C523.824 380.826 536.227 370.392 550.674 362.692C559.587 357.946 569.87 353.759 581.524 350.132C591.324 347.082 604.734 342.802 605.944 330.732C607.384 316.312 598.814 301.082 588.744 290.862ZM340.714 463.892C341.447 475.952 347.044 485.089 357.504 491.302C361.237 493.529 366.324 494.816 372.764 495.162C373.195 495.189 373.619 495.273 374.024 495.412C376.05 496.092 377.434 496.832 378.174 497.632C380.014 499.642 381.974 503.792 384.414 506.092C390.647 511.972 398.39 514.839 407.644 514.692C408.917 514.672 411.657 514.379 415.864 513.812C416.242 513.766 416.622 513.773 416.994 513.832C421.594 514.592 425.404 518.382 427.784 519.702C435.184 523.802 443.914 524.982 451.864 522.032C453.804 521.319 455.35 520.882 456.504 520.722C457.329 520.61 458.165 520.661 458.964 520.872C463.237 521.999 466.784 522.652 469.604 522.832C479.357 523.452 487.78 520.292 494.874 513.352C495.44 512.799 497.194 510.726 500.134 507.132C501.52 505.439 502.934 504.579 504.374 504.552C518.52 504.266 529.344 498.016 536.844 485.802C538.337 483.376 539.424 481.396 540.104 479.862C541.564 476.592 543.784 474.182 547.034 473.742C558.614 472.176 566.954 466.019 572.054 455.272C574.044 451.092 573.814 445.692 579.584 444.572C585.257 443.472 589.79 440.746 593.184 436.392C597.09 431.372 599.207 425.836 599.534 419.782C599.607 418.516 599.407 415.932 598.934 412.032C598.314 406.922 598.024 401.042 600.444 397.572C606.464 388.959 608.804 379.266 607.464 368.492C606.87 363.666 604.877 359.502 601.484 356.002C601.268 355.78 600.984 355.638 600.677 355.598C600.37 355.558 600.059 355.623 599.794 355.782C592.274 360.342 585.954 361.872 575.004 365.502C571.364 366.709 565.767 369.199 558.214 372.972C544.647 379.752 533.064 389.082 523.464 400.962C511.194 416.162 503.414 427.962 489.034 449.002C482.814 458.102 476.454 465.202 469.114 472.592C462.58 479.152 455.24 484.236 447.094 487.842C433.404 493.892 417.644 492.492 403.514 489.432C381.167 484.606 360.527 475.922 341.594 463.382C341.505 463.325 341.403 463.293 341.298 463.29C341.192 463.288 341.088 463.314 340.997 463.367C340.906 463.42 340.831 463.497 340.781 463.59C340.731 463.682 340.708 463.787 340.714 463.892Z" fill="#553630"/>
<path d="M552.554 77.8324L550.264 77.8124C550.111 77.8089 549.96 77.8448 549.825 77.9166C549.69 77.9884 549.576 78.0937 549.494 78.2224C542.314 89.3691 532.487 96.9724 520.014 101.032C514.9 102.699 509.24 103.972 503.034 104.852C504.094 102.819 504.09 101.109 503.024 99.7224C497.417 92.4424 493.557 87.3857 491.444 84.5524C484.897 75.7457 479.464 66.8557 475.144 57.8824C471.877 51.0891 470.39 44.1024 470.684 36.9224C470.974 29.8124 476.194 22.4624 484.084 26.3124C492.234 30.2924 497.654 37.4024 503.084 45.5224C507.864 52.6624 511.654 60.6624 514.454 69.5224C515.274 72.1024 516.344 76.5524 519.484 78.2324C522.284 79.7324 524.744 77.4524 524.804 74.5924C525.057 63.2257 525.23 55.9191 525.324 52.6724C525.47 47.3657 525.997 42.5291 526.904 38.1624C527.877 33.4691 529.3 28.8124 531.174 24.1924C533.074 19.5024 535.454 15.3324 540.274 13.9724C544.624 12.7424 549.084 16.9524 550.794 20.4324C553.467 25.8791 555.127 31.9457 555.774 38.6324C557.047 51.8724 555.974 64.9391 552.554 77.8324Z" fill="#FA7116"/>
<path d="M552.553 77.8322C550.733 86.8922 546.923 94.8922 542.893 103.142C541.62 105.749 542.056 108.326 544.203 110.872C543.656 110.906 543.113 111.029 542.573 111.242C541.893 111.516 541.363 111.682 540.983 111.742C537.643 112.316 533.53 113.606 528.643 115.612C520.983 118.759 514.873 123.402 510.313 129.542C510.229 129.657 510.115 129.747 509.985 129.804C509.855 129.86 509.713 129.88 509.573 129.862C508.573 129.742 507.993 129.882 507.833 130.282L505.993 129.012C505.596 128.741 505.156 128.541 504.693 128.422C500.746 127.442 496.83 126.382 492.943 125.242C478.036 120.876 464.55 113.876 452.483 104.242C451.083 103.122 449.616 101.422 448.083 99.1422C453.736 100.576 462.79 102.686 475.243 105.472C482.97 107.192 490.493 107.486 497.813 106.352C500.12 107.006 501.86 106.506 503.033 104.852C509.24 103.972 514.9 102.699 520.013 101.032C532.486 96.9722 542.313 89.3689 549.493 78.2222C549.575 78.0935 549.689 77.9882 549.824 77.9164C549.959 77.8446 550.11 77.8087 550.263 77.8122L552.553 77.8322Z" fill="#FA7116"/>
<path d="M497.815 106.352C490.495 107.485 482.971 107.192 475.245 105.472C462.791 102.685 453.737 100.575 448.083 99.1421C446.483 97.2888 445.455 95.3721 444.995 93.3921C443.765 88.1421 447.964 86.7521 452.424 86.4721C464.304 85.7221 474.723 90.6621 485.213 96.2921C489.793 98.7421 492.605 103.662 497.815 106.352Z" fill="#FA7116"/>
<path d="M319.043 439.712C308.833 449.912 291.393 450.362 278.753 445.352C272.563 442.902 267.663 435.962 261.433 442.972C253.813 451.526 244.127 455.606 232.373 455.212C224.353 454.946 217.51 452.479 211.843 447.812C207.963 444.622 205.043 442.382 200.843 445.262C199.983 445.849 198.39 447.116 196.063 449.062C183.663 459.412 163.583 458.482 151.593 447.712C148.993 445.379 147.14 444.109 146.033 443.902C143.553 443.429 141.377 443.966 139.503 445.512C131.833 451.832 125.343 455.622 114.853 454.822C103.483 453.952 95.4332 448.102 89.1732 438.762C89.0412 438.563 88.8832 438.385 88.7032 438.232C86.3032 436.172 83.8572 435.589 81.3632 436.482C69.6902 440.662 59.3332 439.456 50.2932 432.862C40.8932 426.002 36.3732 415.192 35.9832 403.562C35.9132 401.602 34.4032 400.042 32.7132 398.602C21.3132 388.889 17.0902 376.349 20.0432 360.982C21.2702 354.636 24.1902 349.196 28.8032 344.662C30.9302 342.576 32.0672 341.066 32.2132 340.132C32.5672 337.912 32.1432 336.039 30.9432 334.512C28.7502 331.712 27.1832 328.886 26.2432 326.032C21.8772 312.866 23.5732 300.536 31.3332 289.042C34.8602 283.822 39.5702 279.969 45.4632 277.482C47.1572 276.769 48.2872 275.362 48.8532 273.262C49.1532 272.149 48.8532 270.329 47.9532 267.802C47.2672 265.856 46.7472 263.892 46.3932 261.912C43.9872 248.406 47.3502 236.776 56.4832 227.022C61.1032 222.102 66.9632 218.812 73.5132 217.772C77.5532 217.132 81.3432 216.262 81.1432 211.112C80.9902 207.092 80.9302 204.179 80.9632 202.372C81.1702 190.932 85.0202 181.352 92.5132 173.632C99.0732 166.872 107.533 163.592 116.603 164.552C119.117 164.819 120.793 164.792 121.633 164.472C126.343 162.652 125.383 158.472 126.553 154.582C130.113 142.662 137.437 134.066 148.523 128.792C155.593 125.432 164.763 124.422 172.273 127.552C177.073 129.552 181.013 131.662 184.253 125.752C189.973 115.332 198.81 108.906 210.763 106.472C219.443 104.706 227.347 106.509 234.473 111.882C239.623 115.762 244.583 108.852 248.983 106.302C268.193 95.1525 291.263 101.702 302.603 120.362C303.743 122.249 305.127 123.612 306.753 124.452C309.813 126.042 314.463 123.142 317.613 122.582C337.453 119.092 354.253 133.132 355.063 153.112C355.233 157.262 358.523 160.262 362.583 159.552C368.103 158.592 373.52 159.169 378.833 161.282C395.923 168.082 402.533 186.452 399.083 204.022C398.563 206.676 398.633 208.572 399.293 209.712C400.42 211.639 401.95 212.709 403.883 212.922C416.193 214.282 423.983 225.612 426.423 236.872C427.663 242.599 427.463 248.259 425.823 253.852C425.555 254.748 424.943 255.5 424.123 255.942C414.617 261.029 405.17 267.059 395.783 274.032C384.21 282.632 374.29 291.622 366.023 301.002C345.937 323.796 330.62 349.562 320.073 378.302C318.373 382.922 316.827 389.009 315.433 396.562C313.92 404.769 313.2 411.012 313.273 415.292C313.413 423.446 315.39 431.242 319.203 438.682C319.291 438.847 319.323 439.036 319.294 439.222C319.265 439.407 319.177 439.579 319.043 439.712ZM370.123 294.122C370.863 293.629 372.143 292.356 373.963 290.302C374.977 289.156 376.29 287.912 377.903 286.572C386.843 279.179 393.13 274.079 396.763 271.272C403.523 266.066 411.61 260.902 421.023 255.782C422.923 254.742 424.09 253.559 424.523 252.232C427.963 241.632 424.263 229.732 417.043 221.382C413.897 217.736 409.763 215.452 404.643 214.532C398.353 213.402 396.983 208.992 397.573 202.842C398.28 195.429 398.277 189.699 397.563 185.652C397.09 182.979 395.537 179.302 392.903 174.622C392.705 174.278 392.451 173.974 392.153 173.722C390.72 172.516 389.163 171.039 387.483 169.292C383.913 165.562 379.793 163.732 374.363 161.692C372.103 160.842 369.863 160.932 367.963 161.462C367.88 161.488 367.804 161.534 367.743 161.597C367.682 161.66 367.639 161.738 367.618 161.822C367.597 161.906 367.598 161.993 367.622 162.076C367.646 162.159 367.691 162.233 367.753 162.292C373.64 167.899 377.353 174.759 378.893 182.872C380.603 191.852 377.013 199.582 372.083 206.962C371.982 207.112 371.931 207.292 371.94 207.474C371.949 207.656 372.017 207.831 372.133 207.972C374.553 210.882 378.083 213.782 380.843 217.292C389.163 227.906 390.527 239.932 384.933 253.372C382.067 260.259 377.783 265.742 372.083 269.822C370.517 270.949 369.457 271.719 368.903 272.132C368.542 272.404 368.261 272.768 368.092 273.186C367.922 273.604 367.871 274.059 367.943 274.502C369.117 281.816 369.56 288.196 369.273 293.642C369.269 293.744 369.294 293.846 369.343 293.935C369.393 294.025 369.466 294.099 369.554 294.148C369.643 294.198 369.743 294.222 369.843 294.218C369.944 294.213 370.041 294.18 370.123 294.122ZM295.586 251.523C289.751 251.36 284.077 254.005 279.811 258.876C275.546 263.747 273.039 270.446 272.842 277.498C272.744 280.989 273.217 284.463 274.232 287.72C275.248 290.977 276.787 293.953 278.761 296.479C280.735 299.006 283.106 301.032 285.738 302.443C288.37 303.853 291.211 304.621 294.101 304.702C299.936 304.865 305.61 302.22 309.875 297.349C314.141 292.477 316.648 285.779 316.845 278.727C316.942 275.235 316.47 271.762 315.454 268.505C314.439 265.248 312.9 262.271 310.926 259.745C308.952 257.219 306.581 255.193 303.949 253.782C301.317 252.371 298.475 251.603 295.586 251.523ZM160.473 306.052C172.133 305.742 179.413 296.352 180.683 285.352C181.673 276.652 179.593 267.392 173.603 260.642C169.263 255.756 164.42 253.382 159.073 253.522C153.727 253.662 149.02 256.289 144.953 261.402C139.323 268.462 137.743 277.822 139.193 286.462C141.043 297.372 148.813 306.362 160.473 306.052ZM227.293 311.672C222.393 311.692 213.993 308.972 211.503 304.192C210.403 302.092 209.603 298.552 207.953 297.332C202.793 293.512 198.533 299.002 199.643 304.162C202.273 316.352 215.663 323.142 227.353 323.072C239.053 323.012 252.363 316.082 254.863 303.862C255.913 298.692 251.603 293.252 246.483 297.122C244.843 298.362 244.083 301.912 243.013 304.022C240.563 308.832 232.193 311.642 227.293 311.672ZM27.5732 351.032C25.7402 352.552 24.5632 353.986 24.0432 355.332C21.8702 360.952 20.9932 367.052 21.4132 373.632C21.9432 381.992 24.3532 387.652 29.3432 393.142C32.1032 396.182 35.9632 399.372 37.0632 403.922C38.7032 410.682 39.4432 416.062 41.8132 420.742C47.2132 431.412 59.7532 438.962 72.0032 436.702C76.9932 435.782 82.8232 434.042 87.7532 436.512C90.8832 438.082 93.6932 442.832 96.1032 445.082C104.893 453.252 117.053 454.532 127.843 450.752C131.593 449.432 135.873 445.642 139.003 444.042C147.513 439.702 152.253 447.672 159.403 451.112C168.37 455.426 177.77 455.646 187.603 451.772C194.143 449.202 198.563 442.372 206.873 443.832C210.793 444.522 215.823 449.262 219.173 450.622C230.207 455.096 240.897 454.532 251.243 448.932C257.053 445.782 261.343 437.512 269.913 439.462C271.873 439.912 274.103 441.222 276.213 442.342C288.263 448.732 306.063 448.782 316.503 438.952C316.635 438.83 316.725 438.668 316.761 438.489C316.797 438.31 316.776 438.123 316.703 437.952C312.283 427.766 310.887 416.909 312.513 405.382C313.64 397.416 315.183 389.569 317.143 381.842C317.45 380.636 317.837 379.542 318.303 378.562C318.364 378.432 318.383 378.286 318.358 378.145C318.333 378.004 318.265 377.873 318.164 377.772C318.062 377.67 317.932 377.603 317.791 377.578C317.649 377.553 317.504 377.572 317.373 377.632C311.913 380.212 304.653 383.102 299.103 382.862C296.11 382.736 293.62 382.762 291.633 382.942C291.289 382.975 290.96 383.105 290.686 383.317C290.412 383.529 290.203 383.816 290.083 384.142C287.943 389.969 284.493 395.092 279.733 399.512C267.313 411.052 248.963 410.472 235.493 401.092C235.13 400.837 234.688 400.719 234.245 400.757C233.803 400.795 233.388 400.988 233.073 401.302C225.593 408.772 217.583 414.772 206.263 415.172C195.883 415.532 186.937 411.769 179.423 403.882C179.219 403.668 178.938 403.544 178.642 403.536C178.346 403.529 178.058 403.639 177.843 403.842C175.637 405.942 173.83 407.712 172.423 409.152C164.693 417.072 152.503 420.682 141.673 415.852C134.853 412.822 130.173 407.782 125.833 401.592C125.751 401.473 125.644 401.373 125.52 401.298C125.396 401.223 125.258 401.176 125.114 401.159C124.97 401.142 124.824 401.156 124.686 401.199C124.548 401.243 124.421 401.316 124.313 401.412C119.903 405.402 116.243 407.992 110.093 410.232C97.9132 414.662 85.2832 410.872 77.7732 400.232C74.7402 395.932 72.8402 391.472 72.0732 386.852C72.0552 386.738 72.0122 386.629 71.9492 386.531C71.8862 386.434 71.8042 386.351 71.7072 386.287C71.6102 386.223 71.5012 386.18 71.3872 386.16C71.2732 386.14 71.1562 386.145 71.0432 386.172C68.1832 386.892 65.1532 389.012 61.8332 389.562C53.1272 390.989 45.4902 388.462 38.9232 381.982C30.7832 373.942 28.2232 362.632 28.0232 351.242C28.0212 351.191 28.0052 351.142 27.9762 351.099C27.9482 351.056 27.9082 351.022 27.8622 351.001C27.8162 350.979 27.7642 350.971 27.7132 350.976C27.6622 350.982 27.6142 351.001 27.5732 351.032Z" fill="#FFF4E9"/>
<path d="M716.933 278.602C713.72 284.575 710.073 289.189 705.993 292.442C704.513 293.622 703.306 294.549 702.373 295.222C695.643 300.072 685.193 302.082 677.153 302.042C672.193 302.022 668.293 299.172 664.893 296.032C664.397 295.575 663.787 295.261 663.127 295.122C662.467 294.983 661.781 295.024 661.143 295.242C660.723 295.382 658.66 296.155 654.953 297.562C650.643 299.202 644.993 297.292 639.503 295.142C638.832 294.879 638.23 294.465 637.743 293.932C634.683 290.579 632.276 286.955 630.523 283.062C630.479 282.966 630.415 282.88 630.334 282.812C630.253 282.743 630.158 282.693 630.056 282.666C629.954 282.638 629.847 282.633 629.743 282.652C629.638 282.67 629.54 282.711 629.453 282.772C626.926 284.539 624.42 285.835 621.933 286.662C618.153 287.912 614.323 286.072 611.213 283.912C610.046 283.099 608.286 281.022 605.933 277.682C603.8 274.635 601.633 270.855 599.433 266.342C598.972 265.4 598.222 264.633 597.293 264.152C592.773 261.832 586.523 258.272 583.493 254.252C580.186 249.872 577.973 245.209 576.853 240.262C576.023 236.622 576.783 231.182 576.573 228.612C576.561 228.469 576.506 228.333 576.414 228.224C576.323 228.115 576.2 228.037 576.063 228.002C575.816 227.942 575.56 228.072 575.293 228.392C575.04 228.699 574.646 228.922 574.113 229.062C571.513 229.775 569.06 230.559 566.753 231.412C560.303 233.812 550.183 234.662 544.613 229.662C541.313 226.702 538.933 223.629 537.473 220.442C537.168 219.78 536.972 219.074 536.893 218.352C536.153 211.592 535.91 207.029 536.163 204.662C537.07 196.182 538.97 187.999 541.863 180.112C541.948 179.882 541.986 179.637 541.974 179.392C541.962 179.147 541.902 178.907 541.795 178.685C541.689 178.464 541.539 178.267 541.355 178.105C541.171 177.943 540.956 177.819 540.723 177.742C538.636 177.042 535.626 175.875 531.693 174.242C527.143 172.342 523.093 169.422 519.773 166.692C514.46 162.325 511.196 156.569 509.983 149.422C509.49 146.509 508.846 143.635 508.053 140.802C510.243 137.662 511.163 133.092 507.833 130.282C507.993 129.882 508.573 129.742 509.573 129.862C509.713 129.88 509.855 129.86 509.985 129.803C510.115 129.747 510.229 129.657 510.313 129.542C514.873 123.402 520.983 118.759 528.643 115.612C533.53 113.605 537.643 112.315 540.983 111.742C541.363 111.682 541.893 111.515 542.573 111.242C543.113 111.029 543.656 110.905 544.203 110.872C546.223 111.145 548.32 111.289 550.493 111.302C553.74 111.329 555.836 111.412 556.783 111.552C563.696 112.619 569.773 115.612 575.013 120.532C581.08 126.239 583.616 133.529 582.623 142.402C582.29 145.355 583.416 147.529 586.003 148.922C586.736 149.309 589.036 149.459 592.903 149.372C606.563 149.062 619.023 160.002 624.563 171.362C627.73 177.869 629.45 184.679 629.723 191.792C629.85 195.065 630.203 197.069 630.783 197.802C633.753 201.592 638.983 200.572 644.823 200.442C646.336 200.409 648.44 200.969 651.133 202.122C662.163 206.852 670.473 214.472 673.793 226.352C675.323 231.832 674.763 238.592 674.173 244.702C673.583 250.762 677.553 251.642 682.993 252.302C690.846 253.242 697.9 255.749 704.153 259.822C711.593 264.682 715.853 270.942 716.933 278.602Z" fill="#FF9738"/>
<path d="M508.053 140.802C508.846 143.636 509.49 146.509 509.983 149.422C511.196 156.569 514.46 162.326 519.773 166.692C523.093 169.422 527.143 172.342 531.693 174.242C535.626 175.876 538.636 177.042 540.723 177.742C540.956 177.82 541.171 177.943 541.355 178.105C541.539 178.267 541.689 178.465 541.795 178.686C541.902 178.907 541.962 179.147 541.974 179.392C541.986 179.637 541.948 179.882 541.863 180.112C538.97 187.999 537.07 196.182 536.163 204.662C535.91 207.029 536.153 211.592 536.893 218.352C536.973 219.074 537.168 219.78 537.473 220.442C538.933 223.629 541.313 226.702 544.613 229.662C550.183 234.662 560.303 233.812 566.753 231.412C569.06 230.559 571.513 229.776 574.113 229.062C574.646 228.922 575.04 228.699 575.293 228.392C575.56 228.072 575.816 227.942 576.063 228.002C576.2 228.037 576.323 228.115 576.414 228.224C576.506 228.334 576.561 228.469 576.573 228.612C576.783 231.182 576.023 236.622 576.853 240.262C577.973 245.209 580.186 249.872 583.493 254.252C586.523 258.272 592.773 261.832 597.293 264.152C598.222 264.633 598.972 265.401 599.433 266.342C601.633 270.856 603.8 274.636 605.933 277.682C608.286 281.022 610.046 283.099 611.213 283.912C614.323 286.072 618.153 287.912 621.933 286.662C624.42 285.836 626.926 284.539 629.453 282.772C629.54 282.711 629.639 282.67 629.743 282.652C629.847 282.633 629.954 282.638 630.056 282.666C630.158 282.694 630.253 282.743 630.334 282.812C630.415 282.88 630.479 282.966 630.523 283.062C632.276 286.956 634.683 290.579 637.743 293.932C638.23 294.465 638.832 294.879 639.503 295.142C644.993 297.292 650.643 299.202 654.953 297.562C658.66 296.156 660.723 295.382 661.143 295.242C661.781 295.025 662.467 294.983 663.127 295.122C663.787 295.261 664.397 295.576 664.893 296.032C668.293 299.172 672.193 302.022 677.153 302.042C685.193 302.082 695.643 300.072 702.373 295.222C703.306 294.549 704.513 293.622 705.993 292.442C710.073 289.189 713.72 284.576 716.933 278.602C717.5 280.036 717.81 281.122 717.863 281.862C718.203 286.782 718.233 292.189 717.953 298.082C717.893 299.329 718.533 300.786 719.873 302.452C720.506 303.246 722.113 304.046 724.693 304.852C725.052 304.965 725.397 305.116 725.723 305.302C732.573 309.242 737.073 315.822 740.173 323.302C744.923 334.772 748.073 347.462 744.403 359.642C743.116 363.909 741.273 368.816 738.873 374.362C738.243 375.822 738.763 377.732 739.553 379.432C744.493 390.122 740.413 403.882 733.973 413.762C730.033 419.822 725.08 423.766 719.113 425.592C714.533 427.002 710.713 426.582 705.873 426.782C703.74 426.869 702.02 427.762 700.713 429.462C698.926 431.796 697.21 433.909 695.563 435.802C685.663 447.202 670.093 449.222 657.183 441.822C654.843 440.482 650.863 436.882 646.753 436.652C646.383 436.632 646.013 436.683 645.663 436.802C642.116 438.016 639.943 438.712 639.143 438.892C629.543 441.092 619.823 436.812 612.873 430.082C611.253 428.512 610.993 428.042 611.293 425.602C612.106 419.149 611.853 412.916 610.533 406.902C610.416 406.361 610.408 405.801 610.509 405.257C610.61 404.713 610.819 404.194 611.123 403.732C618.113 393.152 620.183 382.272 619.623 369.842C619.263 361.822 616.213 354.402 611.303 348.422C611.159 348.244 611.08 348.022 611.08 347.792C611.08 347.563 611.159 347.34 611.303 347.162C623.443 332.142 617.593 309.762 607.723 294.982C602.196 286.696 595.833 279.649 588.633 273.842C577.64 264.976 566 257.706 553.713 252.032C548.713 249.726 541.416 246.939 531.823 243.672C525.683 241.582 518.413 235.992 514.273 230.202C509.273 223.202 506.923 215.196 507.223 206.182C507.416 200.556 508.893 195.879 511.653 192.152C512.883 190.482 514.883 189.222 516.353 187.872C518.793 185.632 518.073 182.322 515.953 180.032C515.326 179.346 513.856 178.079 511.543 176.232C504.373 170.502 501.973 158.922 503.243 150.422C503.763 146.956 505.366 143.749 508.053 140.802Z" fill="#FF822B"/>
<path d="M781.433 258.642C773.66 262.062 765.903 264.076 758.163 264.682C752.783 265.102 748.123 265.322 743.473 263.282C743.207 263.165 742.985 262.967 742.836 262.716C742.687 262.466 742.62 262.174 742.643 261.882C743.203 255.102 745.113 250.092 748.413 242.862C751.483 236.132 753.223 231.572 755.163 225.412C755.683 223.772 755.943 222.329 755.943 221.082C755.944 220.731 755.848 220.387 755.665 220.087C755.482 219.787 755.219 219.544 754.906 219.385C754.594 219.225 754.243 219.155 753.893 219.183C753.542 219.211 753.207 219.335 752.923 219.542C747.537 223.476 742.537 228.596 737.923 234.902C736.757 236.489 733.217 239.626 727.303 244.312C727.163 244.424 727 244.503 726.825 244.543C726.65 244.583 726.468 244.583 726.293 244.542C716.613 242.272 710.603 231.922 707.843 222.812C706.023 216.802 703.783 211.462 702.193 205.332C700.853 200.142 698.753 194.562 693.343 192.602C693.192 192.55 693.031 192.534 692.872 192.557C692.714 192.579 692.564 192.64 692.433 192.732C688.973 195.162 687.423 201.642 686.593 205.842C685.443 211.612 684.203 214.282 685.533 218.472C687.923 225.982 689.483 230.702 689.053 237.972C689.044 238.127 689.067 238.283 689.12 238.431C689.173 238.579 689.256 238.715 689.363 238.832L691.613 241.212L687.863 240.502C687.601 240.451 687.367 240.304 687.208 240.089C687.049 239.875 686.976 239.608 687.003 239.342C687.697 232.922 686.91 226.269 684.643 219.382C680.733 207.482 672.903 200.182 662.533 193.822C662.081 193.545 661.721 193.14 661.5 192.659C661.279 192.178 661.207 191.643 661.293 191.122C662.26 185.056 664.583 179.526 668.263 174.532C672.453 168.832 677.473 163.532 684.173 161.012C691.013 158.432 697.78 157.599 704.473 158.512C707.393 158.912 710.383 160.612 712.613 162.652C719.067 168.526 722.523 176.196 722.983 185.662C723.397 194.109 723.593 199.509 723.573 201.862C723.533 206.362 727.213 211.562 732.053 207.532C735.113 204.986 738.567 201.949 742.413 198.422C748.413 192.909 755.313 188.889 763.113 186.362C767.703 184.882 771.833 185.872 775.873 188.542C786.503 195.572 786.943 216.922 783.943 227.932C782.883 231.839 780.77 237.316 777.603 244.362C774.823 250.572 777.033 252.762 783.413 252.462C783.522 252.456 783.631 252.479 783.728 252.528C783.825 252.577 783.908 252.652 783.969 252.743C784.029 252.835 784.065 252.941 784.073 253.051C784.081 253.162 784.06 253.272 784.013 253.372L781.433 258.642Z" fill="#759724"/>
<path d="M370.124 294.122C370.041 294.18 369.944 294.213 369.844 294.218C369.743 294.223 369.643 294.199 369.555 294.149C369.466 294.099 369.393 294.025 369.344 293.936C369.294 293.846 369.27 293.745 369.274 293.642C369.56 288.196 369.117 281.816 367.944 274.502C367.872 274.059 367.923 273.604 368.092 273.186C368.261 272.768 368.542 272.404 368.904 272.132C369.457 271.719 370.517 270.949 372.084 269.822C377.784 265.742 382.067 260.259 384.934 253.372C390.527 239.932 389.164 227.906 380.844 217.292C378.084 213.782 374.554 210.882 372.134 207.972C372.018 207.831 371.95 207.656 371.941 207.474C371.932 207.292 371.982 207.112 372.084 206.962C377.014 199.582 380.604 191.852 378.894 182.872C377.354 174.759 373.64 167.899 367.754 162.292C367.691 162.233 367.646 162.159 367.622 162.076C367.599 161.994 367.597 161.906 367.619 161.822C367.64 161.738 367.683 161.66 367.743 161.597C367.804 161.534 367.88 161.488 367.964 161.462C369.864 160.932 372.104 160.842 374.364 161.692C379.794 163.732 383.914 165.562 387.484 169.292C389.164 171.039 390.72 172.516 392.154 173.722C392.451 173.974 392.705 174.278 392.904 174.622C395.537 179.302 397.09 182.979 397.564 185.652C398.277 189.699 398.28 195.429 397.574 202.842C396.984 208.992 398.354 213.402 404.644 214.532C409.764 215.452 413.897 217.736 417.044 221.382C424.264 229.732 427.964 241.632 424.524 252.232C424.09 253.559 422.924 254.742 421.024 255.782C411.61 260.902 403.524 266.066 396.764 271.272C393.13 274.079 386.844 279.179 377.904 286.572C376.29 287.912 374.977 289.156 373.964 290.302C372.144 292.356 370.864 293.629 370.124 294.122Z" fill="#FFE9D3"/>
<path d="M781.433 258.642C778.96 265.122 776.997 270.739 775.543 275.492C771.617 288.306 768.95 301.539 767.543 315.192C765.957 330.606 767.137 345.759 771.083 360.652C771.264 361.328 771.287 362.036 771.152 362.723C771.017 363.409 770.726 364.055 770.303 364.612C768.903 366.472 766.533 368.172 764.453 369.642C761.367 371.822 757.967 372.819 754.253 372.632C754.117 372.625 753.984 372.585 753.866 372.516C753.748 372.446 753.648 372.35 753.575 372.235C753.502 372.119 753.457 371.988 753.445 371.852C753.432 371.716 753.452 371.579 753.503 371.452C758.177 360.219 759.34 348.722 756.993 336.962C755.847 331.222 753.983 325.092 751.403 318.572C747.35 308.339 740.75 300.192 731.603 294.132C731.356 293.968 731.154 293.742 731.018 293.478C730.881 293.214 730.814 292.919 730.823 292.622C731.553 273.982 724.693 255.552 707.133 247.122C702.08 244.696 696.907 242.726 691.613 241.212L689.363 238.832C689.256 238.715 689.173 238.579 689.12 238.431C689.067 238.283 689.044 238.127 689.053 237.972C689.483 230.702 687.923 225.982 685.533 218.472C684.203 214.282 685.443 211.612 686.593 205.842C687.423 201.642 688.973 195.162 692.433 192.732C692.564 192.639 692.714 192.579 692.872 192.556C693.031 192.534 693.192 192.55 693.343 192.602C698.753 194.562 700.853 200.142 702.193 205.332C703.783 211.462 706.023 216.802 707.843 222.812C710.603 231.922 716.613 242.272 726.293 244.542C726.468 244.582 726.65 244.583 726.825 244.543C727 244.503 727.163 244.424 727.303 244.312C733.217 239.626 736.757 236.489 737.923 234.902C742.537 228.596 747.537 223.476 752.923 219.542C753.207 219.335 753.542 219.211 753.893 219.183C754.243 219.155 754.594 219.225 754.906 219.384C755.219 219.544 755.482 219.787 755.665 220.087C755.848 220.386 755.944 220.731 755.943 221.082C755.943 222.329 755.683 223.772 755.163 225.412C753.223 231.572 751.483 236.132 748.413 242.862C745.113 250.092 743.203 255.102 742.643 261.882C742.62 262.174 742.687 262.465 742.836 262.716C742.985 262.967 743.207 263.165 743.473 263.282C748.123 265.322 752.783 265.102 758.163 264.682C765.903 264.076 773.66 262.062 781.433 258.642Z" fill="#759724"/>
<path d="M295.586 251.523C298.475 251.603 301.317 252.371 303.949 253.782C306.581 255.193 308.952 257.219 310.926 259.745C312.9 262.271 314.438 265.248 315.454 268.505C316.469 271.762 316.942 275.235 316.844 278.727C316.647 285.779 314.141 292.477 309.875 297.349C305.61 302.22 299.935 304.865 294.1 304.702C291.211 304.621 288.369 303.854 285.737 302.443C283.105 301.032 280.735 299.006 278.761 296.479C276.786 293.953 275.248 290.977 274.232 287.72C273.217 284.463 272.744 280.99 272.842 277.498C273.039 270.446 275.546 263.747 279.811 258.876C284.076 254.005 289.751 251.36 295.586 251.523ZM301.959 263.784C300.5 263.812 299.117 264.63 298.113 266.058C297.108 267.486 296.566 269.407 296.604 271.398C296.623 272.384 296.784 273.358 297.078 274.263C297.372 275.169 297.793 275.989 298.317 276.676C298.841 277.364 299.457 277.905 300.132 278.27C300.806 278.634 301.525 278.815 302.247 278.801C303.706 278.773 305.089 277.955 306.093 276.527C307.098 275.099 307.64 273.178 307.602 271.187C307.583 270.201 307.422 269.227 307.128 268.321C306.834 267.416 306.413 266.596 305.889 265.908C305.365 265.221 304.749 264.679 304.074 264.315C303.4 263.95 302.681 263.77 301.959 263.784Z" fill="#553630"/>
<path d="M512.364 252.882C507.07 255.562 501.784 257.915 496.504 259.942C490.877 262.095 486.79 263.849 484.244 265.202C466.23 274.769 449.36 286.229 433.634 299.582C428.034 304.332 422.684 310.532 417.164 315.362C412.864 319.112 410.284 322.682 406.054 327.402C400.864 333.212 395.894 340.892 391.634 346.312C388.544 350.262 386.284 354.582 383.214 359.032C381 362.232 378.934 365.436 377.014 368.642C368.867 382.256 361.984 396.642 356.364 411.802C356.35 411.849 354.387 417.145 350.474 427.692C350.389 427.919 350.379 428.167 350.446 428.401C350.512 428.634 350.652 428.842 350.844 428.992L359.414 435.732C359.517 435.811 359.642 435.859 359.772 435.871C359.902 435.882 360.033 435.856 360.148 435.796C360.263 435.736 360.358 435.644 360.421 435.532C360.484 435.419 360.513 435.291 360.504 435.162C360.37 433.375 360.544 431.735 361.024 430.242C363.744 421.729 366.434 414.549 369.094 408.702C372.444 401.322 376.604 390.032 381.364 382.362C387.244 372.882 391.827 365.442 395.114 360.042C398.667 354.189 402.327 348.995 406.094 344.462C414.667 334.155 422.92 325.032 430.854 317.092C435.514 312.432 445.204 303.412 452.864 297.782C457.884 294.102 461.794 290.532 466.384 287.702C473.044 283.602 480.054 279.972 485.254 276.882C499.694 268.302 514.994 263.032 531.634 259.632C531.954 259.567 532.289 259.591 532.604 259.702C534.77 260.449 539.49 262.525 546.764 265.932C549.29 267.119 552 267.429 554.894 266.862C562.654 270.675 570.457 275.542 578.304 281.462C563.084 286.535 553.52 289.925 549.614 291.632C535.38 297.859 523.81 303.612 514.904 308.892C512.397 310.379 506.254 314.532 496.474 321.352C490.964 325.192 484.774 331.152 480.254 334.772C475.484 338.592 472.224 342.312 467.314 346.802C464.574 349.295 461.364 352.839 457.684 357.432C443.764 374.802 431.684 393.462 422.994 413.222C420.394 419.132 417.634 424.162 415.794 430.132C413.954 436.072 411.734 442.579 409.134 449.652C408.867 450.385 408.384 451.049 407.684 451.642C407.626 451.69 407.583 451.753 407.56 451.824C407.536 451.895 407.533 451.971 407.551 452.043C407.569 452.114 407.607 452.179 407.661 452.228C407.714 452.278 407.781 452.311 407.854 452.322C412.347 453.169 416.52 453.249 420.374 452.562C420.536 452.534 420.683 452.449 420.79 452.323C420.896 452.197 420.954 452.037 420.954 451.872C420.967 449.952 421.534 447.379 422.654 444.152C425.494 435.952 428.894 425.562 433.504 416.272C437.15 408.912 441.29 401.202 445.924 393.142C449.77 386.449 454.114 379.735 458.954 373.002C464.634 365.122 472.284 358.122 477.774 352.002C480.547 348.915 483.904 345.609 487.844 342.082C498.397 332.655 510.167 324.072 523.154 316.332C527.527 313.725 533.024 310.869 539.644 307.762C549.344 303.202 554.984 300.622 556.564 300.022C563.524 297.382 574.25 294.329 588.744 290.862C598.814 301.082 607.384 316.312 605.944 330.732C604.734 342.802 591.324 347.082 581.524 350.132C569.87 353.759 559.587 357.945 550.674 362.692C536.227 370.392 523.824 380.825 513.464 393.992C502.81 407.532 492.18 422.309 481.574 438.322C473.994 449.775 465.58 459.529 456.334 467.582C448.407 474.489 439.234 478.285 428.814 478.972C422.864 479.362 416.714 479.162 410.304 477.992C389.844 474.252 369.214 466.502 351.524 455.122C344.81 450.802 339.654 446.469 336.054 442.122C327.954 432.342 324.714 420.602 326.334 406.902C326.954 401.642 327.84 396.999 328.994 392.972C335.38 370.672 345.127 349.995 358.234 330.942C368.854 315.512 382.534 301.652 397.644 288.672C408.71 279.172 419.667 271.955 430.514 267.022C440.594 262.435 448.9 258.996 455.434 256.702C458.814 255.522 463.13 254.445 468.384 253.472C476.957 251.885 488.2 251.205 502.114 251.432C505.64 251.485 509.057 251.969 512.364 252.882Z" fill="#FA7116"/>
<path d="M554.894 266.862C552 267.429 549.29 267.119 546.764 265.932C539.49 262.526 534.77 260.449 532.604 259.702C532.289 259.591 531.954 259.567 531.634 259.632C514.994 263.032 499.694 268.302 485.254 276.882C480.054 279.972 473.044 283.602 466.384 287.702C461.794 290.532 457.884 294.102 452.864 297.782C445.204 303.412 435.514 312.432 430.854 317.092C422.92 325.032 414.667 334.156 406.094 344.462C402.327 348.996 398.667 354.189 395.114 360.042C391.827 365.442 387.244 372.882 381.364 382.362C376.604 390.032 372.444 401.322 369.094 408.702C366.434 414.549 363.744 421.729 361.024 430.242C360.544 431.736 360.37 433.376 360.504 435.162C360.513 435.291 360.484 435.419 360.421 435.532C360.358 435.644 360.263 435.736 360.148 435.796C360.033 435.856 359.902 435.882 359.772 435.871C359.642 435.86 359.518 435.811 359.414 435.732L350.844 428.992C350.652 428.842 350.513 428.635 350.446 428.401C350.379 428.167 350.389 427.919 350.474 427.692C354.387 417.146 356.35 411.849 356.364 411.802C361.984 396.642 368.867 382.256 377.014 368.642C378.934 365.436 381 362.232 383.214 359.032C386.284 354.582 388.544 350.262 391.634 346.312C395.894 340.892 400.864 333.212 406.054 327.402C410.284 322.682 412.864 319.112 417.164 315.362C422.684 310.532 428.034 304.332 433.634 299.582C449.36 286.229 466.23 274.769 484.244 265.202C486.79 263.849 490.877 262.096 496.504 259.942C501.784 257.916 507.07 255.562 512.364 252.882C517.184 253.022 522.59 254.099 528.584 256.112C537.584 259.139 546.354 262.722 554.894 266.862Z" fill="#FF8157"/>
<path d="M159.073 253.522C164.419 253.382 169.263 255.756 173.603 260.643C179.593 267.393 181.673 276.652 180.683 285.352C179.413 296.352 172.133 305.742 160.473 306.052C148.813 306.362 141.043 297.372 139.193 286.462C137.743 277.822 139.323 268.462 144.953 261.402C149.019 256.289 153.726 253.662 159.073 253.522ZM167.971 265.633C166.618 265.616 165.312 266.358 164.339 267.695C163.366 269.031 162.806 270.853 162.783 272.76C162.772 273.704 162.892 274.641 163.138 275.516C163.383 276.392 163.749 277.189 164.215 277.862C164.68 278.536 165.236 279.072 165.85 279.441C166.464 279.81 167.125 280.004 167.795 280.012C169.147 280.028 170.454 279.287 171.427 277.95C172.399 276.614 172.959 274.792 172.982 272.885C172.994 271.941 172.873 271.004 172.628 270.129C172.382 269.253 172.016 268.456 171.551 267.783C171.085 267.109 170.53 266.573 169.915 266.204C169.301 265.835 168.64 265.641 167.971 265.633Z" fill="#553630"/>
<path d="M307.601 271.186C307.521 267.04 304.996 263.725 301.959 263.783C298.922 263.842 296.524 267.251 296.604 271.398C296.683 275.545 299.21 278.859 302.247 278.801C305.284 278.742 307.68 275.333 307.601 271.186Z" fill="#FFF4E9"/>
<path d="M172.983 272.884C173.032 268.914 170.788 265.667 167.972 265.633C165.155 265.598 162.833 268.789 162.784 272.76C162.736 276.73 164.979 279.977 167.796 280.012C170.612 280.046 172.935 276.855 172.983 272.884Z" fill="#FFF4E9"/>
<path d="M578.303 281.462L588.743 290.862C574.25 294.329 563.523 297.382 556.563 300.022C554.983 300.622 549.343 303.202 539.643 307.762C533.023 310.869 527.526 313.726 523.153 316.332C510.166 324.072 498.396 332.656 487.843 342.082C483.903 345.609 480.546 348.916 477.773 352.002C472.283 358.122 464.633 365.122 458.953 373.002C454.113 379.736 449.77 386.449 445.923 393.142C441.29 401.202 437.15 408.912 433.503 416.272C428.893 425.562 425.493 435.952 422.653 444.152C421.533 447.379 420.966 449.952 420.953 451.872C420.953 452.037 420.895 452.197 420.789 452.323C420.683 452.449 420.536 452.534 420.373 452.562C416.52 453.249 412.346 453.169 407.853 452.322C407.781 452.311 407.714 452.278 407.66 452.229C407.607 452.179 407.569 452.115 407.551 452.043C407.533 451.971 407.536 451.895 407.559 451.824C407.583 451.753 407.626 451.69 407.683 451.642C408.383 451.049 408.866 450.386 409.133 449.652C411.733 442.579 413.953 436.072 415.793 430.132C417.633 424.162 420.393 419.132 422.993 413.222C431.683 393.462 443.763 374.802 457.683 357.432C461.363 352.839 464.573 349.296 467.313 346.802C472.223 342.312 475.483 338.592 480.253 334.772C484.773 331.152 490.963 325.192 496.473 321.352C506.253 314.532 512.396 310.379 514.903 308.892C523.81 303.612 535.38 297.859 549.613 291.632C553.52 289.926 563.083 286.536 578.303 281.462Z" fill="#FF8157"/>
<path d="M792.674 378.942L792.944 378.862C792.976 378.853 793.01 378.856 793.041 378.868C793.071 378.881 793.097 378.903 793.114 378.932C796.64 385.212 801.06 390.692 806.374 395.372C815.834 403.702 825.094 411.122 836.704 415.502C854.094 422.072 875.394 426.272 894.324 424.472C898.894 424.042 907.78 423.362 914.29 421.872C925.64 419.272 936.1 415.536 945.66 410.662C956.29 405.242 967.89 398.292 977.22 389.892C984.36 383.459 990.74 376.942 996.35 370.342C1007.75 356.942 1016.82 341.932 1023.55 325.312C1026.02 319.219 1028.13 313.579 1029.87 308.392C1031.58 303.346 1032.73 298.469 1033.31 293.762C1033.32 293.683 1033.35 293.607 1033.41 293.552C1033.46 293.496 1033.54 293.466 1033.62 293.467C1033.7 293.469 1033.77 293.502 1033.83 293.559C1033.88 293.616 1033.92 293.693 1033.91 293.772C1034.25 298.772 1033.47 304.372 1033.13 308.892C1032.91 311.759 1032.69 313.896 1032.45 315.302C1029.72 331.749 1026.44 345.419 1022.61 356.312C1015.05 377.859 1003.7 396.692 988.57 412.812C984.93 416.692 980.19 420.829 974.35 425.222C955.47 439.432 930.81 447.932 908.19 449.692C898.46 450.446 888.067 449.869 877.014 447.962C844.584 442.352 818.524 423.662 800.984 396.252C799.844 394.479 798.404 391.689 796.664 387.882C795.357 385.029 793.964 382.199 792.484 379.392C792.463 379.351 792.451 379.305 792.449 379.259C792.448 379.212 792.456 379.166 792.474 379.123C792.492 379.08 792.52 379.042 792.554 379.011C792.589 378.98 792.629 378.956 792.674 378.942Z" fill="#FFDABB"/>
<path d="M227.353 323.072C215.663 323.142 202.273 316.352 199.643 304.162C198.533 299.002 202.793 293.512 207.953 297.332C209.603 298.552 210.403 302.092 211.503 304.192C213.993 308.972 222.393 311.692 227.293 311.672C232.193 311.642 240.563 308.832 243.013 304.022C244.083 301.912 244.843 298.362 246.483 297.122C251.603 293.252 255.913 298.692 254.863 303.862C252.363 316.082 239.053 323.012 227.353 323.072Z" fill="#553630"/>
<path d="M28.0236 351.242C28.2236 362.632 30.7836 373.942 38.9236 381.982C45.4896 388.462 53.1266 390.989 61.8336 389.562C65.1536 389.012 68.1836 386.892 71.0436 386.172C71.1556 386.145 71.2726 386.14 71.3866 386.16C71.5016 386.18 71.6106 386.223 71.7066 386.287C71.8036 386.351 71.8866 386.434 71.9496 386.531C72.0126 386.629 72.0546 386.738 72.0736 386.852C72.8396 391.472 74.7396 395.932 77.7736 400.232C85.2836 410.872 97.9136 414.662 110.094 410.232C116.244 407.992 119.904 405.402 124.314 401.412C124.421 401.316 124.549 401.243 124.687 401.199C124.825 401.156 124.97 401.142 125.114 401.159C125.258 401.176 125.396 401.224 125.521 401.298C125.645 401.373 125.751 401.473 125.834 401.592C130.174 407.782 134.854 412.822 141.674 415.852C152.504 420.682 164.694 417.072 172.424 409.152C173.83 407.712 175.637 405.942 177.844 403.842C178.059 403.639 178.346 403.529 178.642 403.536C178.938 403.544 179.219 403.668 179.424 403.882C186.937 411.769 195.884 415.532 206.264 415.172C217.584 414.772 225.594 408.772 233.074 401.302C233.388 400.989 233.803 400.795 234.245 400.757C234.688 400.719 235.13 400.837 235.494 401.092C248.964 410.472 267.314 411.052 279.734 399.512C284.494 395.092 287.944 389.969 290.084 384.142C290.203 383.816 290.412 383.529 290.686 383.317C290.96 383.105 291.289 382.975 291.634 382.942C293.62 382.762 296.11 382.736 299.104 382.862C304.654 383.102 311.914 380.212 317.374 377.632C317.504 377.572 317.649 377.553 317.791 377.578C317.932 377.603 318.062 377.67 318.164 377.772C318.265 377.873 318.333 378.004 318.358 378.145C318.383 378.287 318.364 378.432 318.304 378.562C317.837 379.542 317.45 380.636 317.144 381.842C315.184 389.569 313.64 397.416 312.514 405.382C310.887 416.909 312.284 427.766 316.704 437.952C316.777 438.123 316.797 438.31 316.761 438.489C316.725 438.668 316.635 438.83 316.504 438.952C306.064 448.782 288.264 448.732 276.214 442.342C274.104 441.222 271.874 439.912 269.914 439.462C261.344 437.512 257.054 445.782 251.244 448.932C240.897 454.532 230.207 455.096 219.174 450.622C215.824 449.262 210.794 444.522 206.874 443.832C198.564 442.372 194.144 449.202 187.604 451.772C177.77 455.646 168.37 455.426 159.404 451.112C152.254 447.672 147.514 439.702 139.004 444.042C135.874 445.642 131.594 449.432 127.844 450.752C117.054 454.532 104.894 453.252 96.1036 445.082C93.6936 442.832 90.8836 438.082 87.7536 436.512C82.8236 434.042 76.9936 435.782 72.0036 436.702C59.7536 438.962 47.2136 431.412 41.8136 420.742C39.4436 416.062 38.7036 410.682 37.0636 403.922C35.9636 399.372 32.1036 396.182 29.3436 393.142C24.3536 387.652 21.9436 381.992 21.4136 373.632C20.9936 367.052 21.8696 360.952 24.0436 355.332C24.5636 353.986 25.7396 352.552 27.5736 351.032C27.6136 351.001 27.6626 350.982 27.7126 350.976C27.7636 350.971 27.8156 350.979 27.8616 351.001C27.9086 351.023 27.9476 351.056 27.9766 351.099C28.0046 351.142 28.0206 351.191 28.0236 351.242Z" fill="#FFE9D3"/>
<path d="M340.713 463.892C340.707 463.787 340.73 463.682 340.78 463.589C340.83 463.497 340.905 463.42 340.996 463.367C341.087 463.314 341.191 463.287 341.297 463.29C341.402 463.293 341.505 463.325 341.593 463.382C360.526 475.922 381.166 484.606 403.513 489.432C417.643 492.492 433.403 493.892 447.093 487.842C455.239 484.235 462.579 479.152 469.113 472.592C476.453 465.202 482.813 458.102 489.033 449.002C503.413 427.962 511.193 416.162 523.463 400.962C533.063 389.082 544.646 379.752 558.213 372.972C565.766 369.199 571.363 366.709 575.003 365.502C585.953 361.872 592.273 360.342 599.793 355.782C600.058 355.623 600.369 355.557 600.676 355.597C600.983 355.637 601.267 355.78 601.483 356.002C604.876 359.502 606.869 363.666 607.463 368.492C608.803 379.266 606.463 388.959 600.443 397.572C598.023 401.042 598.313 406.922 598.933 412.032C599.406 415.932 599.606 418.515 599.533 419.782C599.206 425.835 597.09 431.372 593.183 436.392C589.789 440.746 585.256 443.472 579.583 444.572C573.813 445.692 574.043 451.092 572.053 455.272C566.953 466.019 558.613 472.176 547.033 473.742C543.783 474.182 541.563 476.592 540.103 479.862C539.423 481.396 538.336 483.376 536.843 485.802C529.343 498.016 518.52 504.266 504.373 504.552C502.933 504.579 501.52 505.439 500.133 507.132C497.193 510.726 495.439 512.799 494.873 513.352C487.779 520.292 479.356 523.452 469.603 522.832C466.783 522.652 463.236 521.999 458.963 520.872C458.164 520.661 457.328 520.61 456.503 520.722C455.35 520.882 453.803 521.319 451.863 522.032C443.913 524.982 435.183 523.802 427.783 519.702C425.403 518.382 421.593 514.592 416.993 513.832C416.621 513.772 416.241 513.766 415.863 513.812C411.656 514.379 408.916 514.672 407.643 514.692C398.39 514.839 390.646 511.972 384.413 506.092C381.973 503.792 380.013 499.642 378.173 497.632C377.433 496.832 376.049 496.092 374.023 495.412C373.618 495.273 373.194 495.189 372.763 495.162C366.323 494.815 361.236 493.529 357.503 491.302C347.043 485.089 341.446 475.952 340.713 463.892ZM452.163 499.872C452.323 503.419 454.17 505.909 457.703 507.342C466.57 510.949 475.13 510.475 483.383 505.922C487.493 503.652 491.923 496.922 495.993 496.722C500.486 496.495 504.326 496.172 507.513 495.752C520.203 494.062 526.653 485.472 534.243 474.462C536.723 470.872 536.893 468.732 542.093 467.252C544.919 466.452 548.603 464.912 553.143 462.632C558.223 460.079 562.156 456.739 564.943 452.612C567.723 448.502 568.513 445.382 570.783 439.602C571.241 438.44 572.094 437.474 573.193 436.872C575.313 435.712 578.153 434.642 579.993 433.342C588.213 427.522 591.013 416.532 589.993 406.862C589.88 405.749 589.63 403.686 589.243 400.672C588.873 397.762 590.093 395.752 591.793 393.162C592.25 392.467 592.431 391.626 592.303 390.802C591.683 386.956 590.516 384.132 588.803 382.332C584.333 377.642 574.483 378.242 568.653 380.672C560.646 384.006 553.289 388.315 546.583 393.602C536.609 401.475 527.339 410.595 518.773 420.962C511.943 429.232 503.813 441.852 499.463 448.472C493.443 457.632 488.529 464.445 484.723 468.912C475.516 479.705 465.166 489.015 453.673 496.842C453.184 497.175 452.789 497.628 452.524 498.158C452.26 498.689 452.136 499.279 452.163 499.872Z" fill="#FFF4E9"/>
<path d="M1014.29 404.063C1014.3 404.429 1014.33 404.626 1014.38 404.653C1014.6 404.741 1014.85 404.752 1015.07 404.685C1015.3 404.617 1015.49 404.476 1015.62 404.283L1018.52 400.073C1018.7 399.811 1018.98 399.63 1019.29 399.568C1019.6 399.507 1019.93 399.569 1020.19 399.743C1025.49 403.189 1029.61 405.996 1032.54 408.163C1034.78 409.816 1037.58 413.023 1040.92 417.783C1045.46 424.213 1045.77 432.503 1042.32 439.623C1038.81 446.853 1031.18 452.023 1024.42 455.923C1012.2 462.976 998.96 468.483 984.72 472.443C972.26 475.909 960.24 478.563 948.67 480.403C933.43 482.823 917.2 483.969 899.964 483.843C894.777 483.809 890.887 483.639 888.294 483.333C882.974 482.703 878.534 482.973 872.744 482.143C861.43 480.516 853.727 479.319 849.634 478.553C841.874 477.103 830.693 474.573 821.214 471.223C812.527 468.136 807.094 466.169 804.914 465.323C795.273 461.576 786.07 456.933 777.304 451.393C773.35 448.899 769.954 446.156 767.114 443.163C766.944 442.985 766.736 442.849 766.506 442.764C766.276 442.679 766.029 442.648 765.785 442.673C765.541 442.698 765.306 442.779 765.097 442.909C764.889 443.039 764.713 443.214 764.583 443.423C760.563 449.873 755.314 453.833 748.704 458.713C745.857 460.806 742.71 462.729 739.264 464.483C729.237 469.583 719.017 473.536 708.604 476.343C703.837 477.623 696.747 479.283 687.333 481.323C685.234 481.776 678.914 482.579 668.374 483.733C661.547 484.479 655.194 484.879 649.314 484.933C633.894 485.079 621.44 484.599 611.954 483.493C609.754 483.239 607.784 483.123 606.044 483.143C605.77 483.146 605.504 483.239 605.288 483.407C605.071 483.574 604.915 483.808 604.844 484.073C603.337 489.446 600.807 494.169 597.254 498.243C592.794 503.356 586.517 508.656 578.424 514.143C568.79 520.689 557.187 526.593 543.614 531.853C525.26 538.966 506.32 543.673 486.794 545.973C465.2 548.513 445.724 549.119 428.364 547.793C408.957 546.313 390.904 543.529 374.204 539.443C365.53 537.316 353.537 533.093 338.224 526.773C329.284 523.083 319.874 517.753 312.484 512.743C309.49 510.709 305.7 507.623 301.114 503.483C298.494 501.123 296.43 498.649 294.924 496.063C294.664 495.619 294.283 495.259 293.825 495.026C293.368 494.794 292.853 494.699 292.344 494.753C289.077 495.093 283.49 495.693 275.584 496.553C240.27 500.373 204.404 501.349 167.984 499.483C158.234 498.983 151.924 498.953 143.494 498.133C123.114 496.159 105.99 493.876 92.124 491.283C75.504 488.176 59.467 483.896 44.014 478.443C32.407 474.356 22 468.859 12.794 461.953C9.10396 459.193 4.70396 455.333 2.53346 451.303C-1.58654 443.643 -1.16314 436.219 3.80396 429.033C8.16996 422.713 14.34 417.159 22.314 412.373C22.353 412.349 22.396 412.335 22.442 412.332C22.487 412.328 22.532 412.334 22.575 412.351C22.617 412.367 22.655 412.393 22.686 412.426C22.717 412.459 22.74 412.499 22.754 412.543L26.954 426.443C27.076 426.848 27.347 427.194 27.714 427.413C28.36 427.799 29.107 428.013 29.954 428.053C39.864 446.593 60.034 455.193 80.484 449.983C80.735 449.918 80.998 449.918 81.25 449.983C81.501 450.047 81.733 450.175 81.924 450.353C83.934 452.243 86.084 454.833 88.704 456.963C95.804 462.753 103.424 466.303 113.154 466.953C124.374 467.693 134.734 465.613 143.024 458.013C143.192 457.856 143.41 457.765 143.639 457.756C143.869 457.747 144.094 457.82 144.274 457.963C161.514 471.713 186.474 472.473 204.144 458.823C204.322 458.686 204.539 458.608 204.765 458.601C204.991 458.594 205.214 458.657 205.404 458.783C216.09 465.983 227.744 468.833 240.364 467.333C251.634 466.003 259.214 462.143 267.244 454.453C267.457 454.247 267.73 454.116 268.024 454.078C268.317 454.041 268.615 454.098 268.874 454.243C278.92 459.843 290.227 461.923 302.794 460.483C311.314 459.513 319.234 455.893 325.964 450.613C326.047 450.546 326.144 450.498 326.248 450.473C326.352 450.448 326.46 450.446 326.566 450.467C326.671 450.487 326.771 450.531 326.859 450.594C326.946 450.657 327.02 450.739 327.074 450.833C327.654 451.879 327.944 452.819 327.944 453.653C327.93 459.093 328.064 463.343 328.344 466.403C329.224 476.083 333.344 485.963 340.354 493.433C347.987 501.579 357.64 506.333 369.314 507.693C369.543 507.718 369.764 507.792 369.962 507.911C370.161 508.03 370.332 508.191 370.464 508.383C378.617 520.376 390.09 526.573 404.884 526.973C407.19 527.033 410.11 526.929 413.644 526.663C414.371 526.611 415.093 526.789 415.704 527.173C428.084 534.843 440.394 538.303 454.744 534.153C456.206 533.731 457.745 533.635 459.254 533.873C462.074 534.323 466.124 535.273 469.083 535.383C484.83 536.009 497.55 530.196 507.244 517.943C507.621 517.462 508.174 517.15 508.784 517.073C524.197 515.213 536.3 508.083 545.094 495.683C547.094 492.863 548.703 489.523 550.594 486.853C550.884 486.44 551.318 486.149 551.814 486.033C567.394 482.393 578.34 472.876 584.654 457.483C584.788 457.15 584.993 456.852 585.254 456.608C585.515 456.365 585.826 456.182 586.164 456.073C594.157 453.479 600.517 448.473 605.244 441.053C605.303 440.959 605.382 440.879 605.475 440.818C605.568 440.757 605.673 440.717 605.783 440.699C605.893 440.682 606.005 440.689 606.112 440.719C606.219 440.749 606.318 440.801 606.404 440.873C614.893 447.973 626.904 453.163 638.094 451.553C640.78 451.173 643.404 450.733 645.964 450.233C646.54 450.123 647.136 450.211 647.654 450.483C647.8 450.563 648.997 451.229 651.244 452.483C665.57 460.496 679.604 460.663 693.344 452.983C699.054 449.793 703.474 445.503 707.554 440.163C707.753 439.9 708.01 439.686 708.304 439.535C708.598 439.385 708.923 439.302 709.254 439.293C711.727 439.233 714.43 439.006 717.364 438.613C728.583 437.093 738.484 429.133 744.514 419.743C751.027 409.616 754.227 398.473 754.114 386.313C754.111 386.163 754.168 386.019 754.273 385.91C754.378 385.802 754.521 385.738 754.674 385.733C762.727 385.526 769.544 382.856 775.124 377.723C775.206 377.65 775.304 377.598 775.41 377.57C775.516 377.543 775.627 377.542 775.733 377.566C775.839 377.591 775.937 377.641 776.019 377.711C776.101 377.782 776.164 377.872 776.204 377.973C781.217 390.799 787.927 402.789 796.333 413.943C812.667 435.603 834.003 450.343 860.344 458.163C873.337 462.016 886.68 464.019 900.374 464.173C915.28 464.333 931.24 461.173 945.44 456.463C974.09 446.963 996.82 428.533 1014.29 404.063Z" fill="#FFBCBA"/>
<path d="M452.163 499.872C452.136 499.279 452.26 498.689 452.524 498.158C452.789 497.628 453.184 497.175 453.673 496.842C465.166 489.016 475.516 479.706 484.723 468.912C488.53 464.446 493.443 457.632 499.463 448.472C503.813 441.852 511.943 429.232 518.773 420.962C527.34 410.596 536.61 401.476 546.583 393.602C553.29 388.316 560.646 384.006 568.653 380.672C574.483 378.242 584.333 377.642 588.803 382.332C590.516 384.132 591.683 386.956 592.303 390.802C592.431 391.626 592.25 392.467 591.793 393.162C590.093 395.752 588.873 397.762 589.243 400.672C589.63 403.686 589.88 405.749 589.993 406.862C591.013 416.532 588.213 427.522 579.993 433.342C578.153 434.642 575.313 435.712 573.193 436.872C572.094 437.474 571.241 438.44 570.783 439.602C568.513 445.382 567.723 448.502 564.943 452.612C562.156 456.739 558.223 460.079 553.143 462.632C548.603 464.912 544.92 466.452 542.093 467.252C536.893 468.732 536.723 470.872 534.243 474.462C526.653 485.472 520.203 494.062 507.513 495.752C504.326 496.172 500.486 496.496 495.993 496.722C491.923 496.922 487.493 503.652 483.383 505.922C475.13 510.476 466.57 510.949 457.703 507.342C454.17 505.909 452.323 503.419 452.163 499.872ZM562.493 422.422C567.063 417.842 572.563 408.202 567.133 402.612C566.917 402.391 566.65 402.225 566.355 402.128C566.061 402.032 565.748 402.008 565.442 402.059C565.136 402.111 564.848 402.235 564.601 402.422C564.354 402.608 564.155 402.852 564.023 403.132C562.616 406.112 560.77 409.446 558.483 413.132C555.91 417.286 556.75 420.459 561.003 422.652C561.244 422.777 561.518 422.821 561.785 422.78C562.053 422.739 562.301 422.613 562.493 422.422ZM547.363 433.482C547.261 433.147 547.066 432.847 546.801 432.618C546.535 432.389 546.21 432.24 545.863 432.188C545.516 432.137 545.162 432.185 544.841 432.328C544.521 432.47 544.247 432.701 544.053 432.992C540.886 437.752 537.333 441.402 533.393 443.942C532.966 444.216 532.598 444.571 532.309 444.988C532.02 445.405 531.817 445.876 531.711 446.372C531.605 446.868 531.598 447.381 531.691 447.881C531.784 448.38 531.975 448.857 532.253 449.282L533.053 450.502C533.335 450.936 533.701 451.308 534.13 451.598C534.558 451.887 535.041 452.088 535.549 452.187C536.057 452.287 536.58 452.284 537.088 452.178C537.595 452.073 538.076 451.867 538.503 451.572C542.343 448.926 545.296 445.206 547.363 440.412C548.157 438.572 548.274 436.51 547.693 434.592L547.363 433.482ZM516.773 460.342L512.663 465.352C512.224 465.884 511.731 466.367 511.193 466.792C507.38 469.746 504.61 471.936 502.883 473.362C502.116 473.996 501.5 474.986 501.033 476.332C500.982 476.487 500.963 476.652 500.977 476.815C500.99 476.978 501.037 477.137 501.113 477.282C502.133 479.182 505.763 482.752 508.143 481.652C515.873 478.092 522.463 468.992 518.233 460.512C518.167 460.381 518.069 460.268 517.949 460.184C517.829 460.099 517.69 460.046 517.545 460.029C517.399 460.013 517.253 460.032 517.118 460.087C516.983 460.142 516.864 460.229 516.773 460.342Z" fill="#FFF4E9"/>
<path d="M562.493 422.422C562.301 422.614 562.054 422.739 561.786 422.78C561.518 422.821 561.244 422.777 561.003 422.652C556.75 420.459 555.91 417.286 558.483 413.132C560.77 409.446 562.617 406.112 564.023 403.132C564.156 402.852 564.354 402.609 564.601 402.422C564.848 402.235 565.137 402.111 565.442 402.059C565.748 402.008 566.061 402.032 566.356 402.128C566.65 402.225 566.917 402.391 567.133 402.612C572.563 408.202 567.063 417.842 562.493 422.422Z" fill="#FFDABB"/>
<path d="M547.364 433.482L547.694 434.592C548.275 436.51 548.158 438.572 547.364 440.412C545.297 445.206 542.344 448.926 538.504 451.572C538.077 451.867 537.596 452.073 537.088 452.178C536.581 452.284 536.058 452.287 535.55 452.187C535.042 452.088 534.559 451.887 534.13 451.598C533.702 451.308 533.335 450.936 533.054 450.502L532.254 449.282C531.976 448.857 531.785 448.38 531.692 447.881C531.599 447.381 531.606 446.868 531.712 446.372C531.818 445.875 532.021 445.405 532.31 444.988C532.598 444.571 532.967 444.216 533.394 443.942C537.334 441.402 540.887 437.752 544.054 432.992C544.248 432.701 544.522 432.47 544.842 432.328C545.163 432.185 545.517 432.137 545.864 432.188C546.211 432.24 546.536 432.389 546.802 432.618C547.067 432.847 547.262 433.147 547.364 433.482Z" fill="#FFDABB"/>
<path d="M516.773 460.342C516.865 460.229 516.983 460.142 517.118 460.087C517.253 460.032 517.4 460.012 517.545 460.029C517.69 460.046 517.829 460.099 517.95 460.184C518.07 460.268 518.167 460.381 518.233 460.512C522.463 468.992 515.873 478.092 508.143 481.652C505.763 482.752 502.133 479.182 501.113 477.282C501.037 477.137 500.991 476.978 500.977 476.815C500.963 476.651 500.982 476.487 501.033 476.332C501.5 474.986 502.117 473.996 502.883 473.362C504.61 471.936 507.38 469.746 511.193 466.792C511.732 466.367 512.225 465.884 512.663 465.352L516.773 460.342Z" fill="#FFDABB"/>
<path d="M876.626 285.559C876.543 283.041 874.354 281.07 871.738 281.157C869.121 281.244 867.068 283.355 867.151 285.874C867.235 288.392 869.424 290.363 872.04 290.276C874.657 290.189 876.71 288.077 876.626 285.559Z" fill="#FFF4E9"/>
<path d="M872 258C881.941 258 890 250.389 890 241C890 231.611 881.941 224 872 224C862.059 224 854 231.611 854 241C854 250.389 862.059 258 872 258Z" fill="#E94822"/>
<path d="M876.77 327.082C901.304 340.023 932.472 329.129 946.386 302.75C960.299 276.372 951.69 244.497 927.156 231.556C902.622 218.615 871.454 229.509 857.54 255.887C843.626 282.266 852.236 314.141 876.77 327.082Z" fill="#FF822B"/>
<path d="M879.165 262.218C884.467 265.184 891.346 262.974 894.53 257.282C897.713 251.591 895.995 244.573 890.693 241.607C885.391 238.642 878.512 240.852 875.329 246.543C872.146 252.235 873.863 259.253 879.165 262.218Z" fill="#FFF4E9"/>
<path d="M532 262C555.5 270 568.275 279.802 569.5 281.5" stroke="#FA7116" stroke-width="9"/>
<path d="M494 277.4C515.38 265.246 531.137 262.12 533.222 262.305" stroke="#FA7116" stroke-width="9"/>
</g>
<defs>
<clipPath id="clip0_39_4739">
<rect width="1049" height="549" fill="white"/>
</clipPath>
</defs>
</svg>
