<svg width="1803" height="1713" viewBox="0 0 1803 1713" fill="none" xmlns="http://www.w3.org/2000/svg">
<path d="M1778.14 1248.75C1767.01 1271.06 1754.93 1289.56 1741.88 1304.25C1710.02 1340.15 1670.4 1366.32 1623.03 1382.75C1612.85 1386.27 1605.27 1388.76 1600.29 1390.22C1599.31 1390.51 1598.4 1390.99 1597.61 1391.64C1596.82 1392.3 1596.18 1393.1 1595.71 1394.01C1569.39 1445.39 1527.05 1478.8 1472.21 1500.18C1441.29 1512.22 1407.79 1514.76 1374.4 1511.89C1373.17 1511.79 1371.92 1511.93 1370.74 1512.32C1369.56 1512.71 1368.47 1513.33 1367.54 1514.15C1361.83 1519.2 1356.35 1523.7 1351.1 1527.65C1302.01 1564.58 1246.4 1579.29 1184.3 1571.79C1168.81 1569.92 1153.66 1566.48 1138.84 1561.44C1133.65 1559.7 1129.47 1559.5 1126.28 1560.83C1101.84 1571.13 1073.42 1576.39 1041.03 1576.59C974.398 1577.05 910.31 1545.08 867.694 1494.79C867.16 1494.16 866.446 1493.7 865.644 1493.48C864.843 1493.26 863.99 1493.28 863.196 1493.54C849.042 1498.22 836.743 1502.06 822.233 1504.06C745.422 1514.7 680.156 1491.95 626.435 1435.81C621.709 1430.88 617.338 1425.57 613.323 1419.87C612.891 1419.25 612.28 1418.78 611.572 1418.52C610.863 1418.25 610.091 1418.21 609.359 1418.4C601.964 1420.31 591.469 1424.5 581.33 1426.61C508.127 1441.81 443.979 1424.8 388.887 1375.58C376.91 1364.88 366.694 1353.58 358.24 1341.68C357.855 1341.14 357.322 1340.73 356.708 1340.49C356.093 1340.25 355.424 1340.19 354.784 1340.34C259.846 1361.05 169.025 1310.05 135.583 1219.76C134.642 1217.18 132.908 1214.96 130.628 1213.4C115.957 1203.39 101.819 1192.1 88.2156 1179.53C46.1677 1137.28 18.7061 1086.96 5.83085 1028.59C-10.0769 956.467 6.36451 878.453 57.6199 824.555C58.4509 823.676 59.0561 822.609 59.3836 821.445C59.7112 820.281 59.7512 819.055 59.5004 817.872C52.0039 782.905 49.2849 743.11 55.7903 708.017C64.0491 663.597 85.9794 619.101 117.896 586.142C131.687 571.929 146.027 559.451 160.918 548.711C161.987 547.939 162.846 546.912 163.418 545.723C163.991 544.534 164.258 543.22 164.197 541.9C163.705 531.482 163.697 518.513 164.171 502.995C165.137 472.044 173.167 442.1 188.261 413.165C214.893 362.214 256.517 327.68 309.806 306.817C311.325 306.223 312.69 305.289 313.795 304.087C314.9 302.885 315.717 301.446 316.184 299.879C337.581 227.634 394.833 170.076 465.249 145.783C489.017 137.583 512.506 133.932 535.716 134.83C536.579 134.869 537.438 134.678 538.206 134.276C538.973 133.874 539.622 133.277 540.087 132.543C569.242 86.5649 609.054 53.9024 659.521 34.5556C692.277 22.0022 729.073 20.0201 763.735 23.4253C788.062 25.797 811.526 32.3363 834.125 43.0431C835.134 43.5156 836.249 43.7194 837.362 43.6348C838.475 43.5502 839.548 43.1802 840.478 42.5603C872.311 21.3839 907.235 8.10203 945.251 2.71475C1024.33 -8.49182 1100.85 20.4521 1154.74 79.1786C1156.91 81.5503 1159.89 82.5245 1163.66 82.1009C1220.92 75.7226 1280 89.9277 1327.29 122.633C1365.1 148.773 1393.67 184.29 1413 229.184C1414.75 233.25 1417.14 235.638 1420.17 236.35C1443.45 241.788 1462.95 248.378 1478.69 256.12C1553.12 292.739 1598.71 361.426 1605.14 444.396C1606.14 457.22 1606.62 464.589 1606.56 466.504C1606.56 466.908 1606.66 467.307 1606.87 467.657C1607.07 468.007 1607.37 468.294 1607.73 468.486C1613.46 471.552 1620.47 476.025 1628.77 481.903C1678.4 517.022 1715.81 571.53 1724.42 632.62C1730.3 674.295 1727.89 715.166 1717.18 755.232C1716.97 756.009 1716.97 756.826 1717.16 757.604C1717.36 758.383 1717.75 759.097 1718.3 759.679C1726.23 768.166 1734.14 777.569 1742.03 787.886C1769.73 824.089 1784.96 865.696 1787.72 912.708C1789.88 949.657 1785.51 989.96 1768.89 1023.05C1768.57 1023.68 1768.41 1024.39 1768.45 1025.1C1768.48 1025.81 1768.69 1026.51 1769.07 1027.11C1773.7 1034.58 1778.2 1042.56 1782.57 1051.05C1813.9 1111.86 1806.63 1188.5 1778.14 1248.75ZM137.794 1217.37C157.717 1274.34 205.237 1320.92 263.429 1335.89C293.466 1343.63 323.774 1344.16 354.352 1337.49C355.223 1337.3 356.127 1337.35 356.962 1337.64C357.798 1337.94 358.531 1338.46 359.079 1339.14C364.28 1345.63 368.803 1351.08 372.649 1355.48C399.196 1385.98 430.791 1407.21 467.434 1419.19C512.235 1433.83 563.567 1431.54 608.19 1415.94C609.538 1415.46 611.004 1415.44 612.369 1415.87C613.735 1416.3 614.925 1417.16 615.763 1418.32C657.362 1475.93 726.812 1507.04 797.1 1503.94C819.446 1502.95 840.165 1498.96 859.258 1491.94C862.07 1490.91 864.84 1490.78 867.567 1491.56C868.396 1491.81 869.13 1492.3 869.676 1492.96C874.504 1498.75 879.002 1504.62 884.847 1510.16C922.439 1545.54 966.444 1566.34 1016.86 1572.57C1050.49 1576.72 1086.1 1572.42 1123.69 1559.66C1128.6 1557.99 1132.74 1556.72 1136.98 1558.11C1169.24 1568.82 1201.84 1572.78 1234.79 1569.98C1284.01 1565.8 1327.82 1546.63 1366.25 1512.48C1368.72 1510.27 1371.49 1509.27 1374.56 1509.48C1403.73 1511.51 1435.16 1510.14 1464.44 1500.15C1497.69 1488.83 1526.44 1472.22 1550.68 1450.32C1565.88 1436.58 1579.85 1418.32 1592.59 1395.56C1595.43 1390.45 1597.67 1387.86 1603.03 1386.43C1652.28 1373.44 1695.07 1348.66 1731.41 1312.1C1767.01 1276.3 1789.5 1227.05 1797.38 1177.07C1805.74 1123.78 1796.24 1073.84 1767.12 1028.66C1766.54 1027.76 1766.19 1026.73 1766.11 1025.66C1766.02 1024.59 1766.2 1023.51 1766.63 1022.51C1804.73 936.036 1785.69 830.806 1718.99 764.609C1715.56 761.203 1713.57 757.925 1714.79 753.402C1723.98 719.401 1727.01 684.604 1723.89 649.011C1720.08 605.557 1705.09 567.05 1678.91 533.489C1659.4 508.433 1635.31 486.477 1606.74 471.18C1605.58 470.56 1604.62 469.63 1603.96 468.494C1603.3 467.358 1602.97 466.061 1603.01 464.75C1603.72 440.474 1600.19 415.926 1592.41 391.107C1566.85 309.51 1501.08 255.637 1418.39 238.688C1417.07 238.419 1415.84 237.847 1414.79 237.017C1413.74 236.187 1412.9 235.122 1412.34 233.91C1406.22 220.62 1400.45 206.923 1393.16 195.386C1362.89 147.358 1319.21 112.366 1265.21 95.4166C1229.61 84.2355 1197.64 79.8901 1161.73 84.6675C1158.62 85.0741 1155.84 83.9051 1153.4 81.1607C1108.34 30.3373 1036.22 -1.32572 969.849 3.98533C968.85 4.07004 964.758 4.20558 957.575 4.39193C953.628 4.49357 949.562 4.84933 945.378 5.45922C906.752 11.0667 871.447 24.5265 839.462 45.8384C838.903 46.2116 838.255 46.4353 837.579 46.4886C836.904 46.5419 836.222 46.4231 835.599 46.1433C813.677 36.1311 790.019 29.414 764.624 25.9919C751.944 24.2639 740.559 25.3058 729.073 24.8738C704.729 23.9589 676.573 30.2102 655.1 39.0027C607.038 58.6544 569.361 90.2327 542.069 133.738C541.467 134.682 540.641 135.462 539.665 136.008C538.689 136.553 537.594 136.847 536.478 136.863C478.37 137.541 427.919 157.243 385.126 195.971C352.921 225.093 330.669 260.169 318.369 301.201C317.833 302.997 316.883 304.643 315.594 306.006C314.306 307.37 312.715 308.413 310.949 309.053C287.062 317.71 265.284 330.128 245.616 346.306C198.096 385.39 170.346 440.609 166.712 501.267C165.831 516.057 165.772 529.686 166.534 542.155C166.619 543.652 166.326 545.146 165.682 546.501C165.038 547.855 164.064 549.026 162.85 549.905C143.249 564.034 125.181 580.806 108.647 600.22C88.3342 624.039 72.9686 654.059 62.5498 690.279C50.7842 731.218 52.7917 775.891 61.9399 817.084C62.2616 818.526 62.2284 820.025 61.8433 821.451C61.4582 822.876 60.7326 824.185 59.7291 825.266C30.9461 856.353 13.0308 893.226 5.98332 935.883C4.47556 945.066 3.61155 956.34 3.39131 969.706C3.12025 985.784 3.4252 997.109 4.30614 1003.68C9.74424 1044.09 22.9668 1082.48 43.9738 1118.87C65.1841 1155.6 94.3059 1186.17 131.339 1210.58C134.88 1212.92 137.032 1215.18 137.794 1217.37Z" fill="#553630"/>
<path d="M137.789 1217.37C137.027 1215.18 134.875 1212.92 131.335 1210.58C94.3013 1186.17 65.1795 1155.6 43.9692 1118.87C22.9622 1082.48 9.73961 1044.08 4.30151 1003.68C3.42057 997.107 3.11562 985.781 3.38668 969.704C3.60692 956.338 4.47093 945.063 5.97869 935.881C13.0262 893.224 30.9415 856.351 59.7245 825.264C60.728 824.183 61.4536 822.874 61.8387 821.449C62.2238 820.023 62.257 818.524 61.9353 817.082C52.7871 775.889 50.7796 731.215 62.5452 690.277C72.964 654.057 88.3296 624.037 108.642 600.218C125.177 580.804 143.244 564.032 162.845 549.903C164.06 549.023 165.034 547.853 165.678 546.498C166.322 545.144 166.615 543.65 166.53 542.152C165.768 529.684 165.827 516.055 166.708 501.265C170.342 440.607 198.091 385.388 245.611 346.304C265.28 330.126 287.058 317.708 310.945 309.051C312.71 308.411 314.301 307.368 315.59 306.004C316.878 304.641 317.829 302.995 318.365 301.199C330.664 260.167 352.916 225.091 385.121 195.969C427.915 157.241 478.365 137.539 536.473 136.861C537.59 136.845 538.685 136.551 539.661 136.005C540.636 135.46 541.462 134.68 542.064 133.735C569.356 90.2306 607.033 58.6523 655.095 39.0006C676.568 30.2081 704.724 23.9568 729.069 24.8717C740.555 25.3037 751.939 24.2618 764.62 25.9898C790.015 29.4119 813.673 36.129 835.595 46.1413C836.218 46.421 836.899 46.5398 837.575 46.4865C838.25 46.4332 838.898 46.2095 839.457 45.8363C871.442 24.5244 906.748 11.0646 945.373 5.45713C949.558 4.84725 953.624 4.49149 957.571 4.38984C964.754 4.20349 968.845 4.06795 969.845 3.98324C1036.22 -1.3278 1108.34 30.3352 1153.39 81.1586C1155.83 83.903 1158.61 85.072 1161.73 84.6654C1197.64 79.888 1229.6 84.2334 1265.21 95.4145C1319.2 112.364 1362.89 147.356 1393.15 195.384C1400.45 206.921 1406.21 220.618 1412.34 233.908C1412.9 235.12 1413.74 236.184 1414.79 237.014C1415.84 237.844 1417.07 238.417 1418.39 238.686C1501.08 255.635 1566.84 309.508 1592.41 391.105C1600.18 415.924 1603.71 440.472 1603 464.748C1602.96 466.059 1603.29 467.356 1603.95 468.492C1604.61 469.628 1605.58 470.558 1606.74 471.177C1635.3 486.475 1659.39 508.431 1678.91 533.487C1705.08 567.047 1720.07 605.555 1723.89 649.009C1727 684.602 1723.97 719.399 1714.79 753.4C1713.57 757.923 1715.55 761.201 1718.98 764.606C1785.69 830.804 1804.72 936.034 1766.63 1022.51C1766.2 1023.5 1766.02 1024.58 1766.1 1025.66C1766.19 1026.73 1766.53 1027.76 1767.11 1028.66C1796.23 1073.84 1805.74 1123.78 1797.38 1177.06C1789.5 1227.05 1767.01 1276.3 1731.41 1312.1C1695.07 1348.66 1652.28 1373.44 1603.03 1386.43C1597.67 1387.85 1595.43 1390.45 1592.58 1395.55C1579.84 1418.32 1565.88 1436.58 1550.68 1450.32C1526.44 1472.22 1497.69 1488.83 1464.43 1500.15C1435.16 1510.13 1403.72 1511.51 1374.55 1509.47C1371.49 1509.27 1368.72 1510.27 1366.24 1512.47C1327.82 1546.63 1284 1565.8 1234.79 1569.98C1201.84 1572.77 1169.23 1568.82 1136.98 1558.11C1132.73 1556.71 1128.59 1557.99 1123.69 1559.66C1086.09 1572.42 1050.48 1576.72 1016.86 1572.57C966.44 1566.34 922.435 1545.53 884.843 1510.16C878.998 1504.62 874.5 1498.75 869.672 1492.96C869.125 1492.29 868.391 1491.81 867.563 1491.56C864.835 1490.78 862.065 1490.91 859.253 1491.94C840.16 1498.95 819.441 1502.95 797.096 1503.93C726.807 1507.03 657.357 1475.93 615.758 1418.32C614.921 1417.16 613.73 1416.3 612.365 1415.87C610.999 1415.43 609.533 1415.46 608.185 1415.93C563.562 1431.54 512.231 1433.82 467.43 1419.19C430.786 1407.21 399.191 1385.97 372.644 1355.48C368.799 1351.07 364.275 1345.63 359.074 1339.14C358.526 1338.45 357.793 1337.93 356.958 1337.64C356.123 1337.35 355.218 1337.3 354.348 1337.49C323.769 1344.16 293.461 1343.63 263.425 1335.89C205.232 1320.92 157.712 1274.34 137.789 1217.37ZM1668.64 760.566C1671.84 747.022 1677.92 729.589 1680.23 716.502C1684.48 692.446 1685.44 669.702 1683.1 648.272C1676.47 587.284 1639.95 538.137 1586.41 508.024C1570.65 499.156 1561.96 496.208 1561.66 479.106C1561.54 472.804 1561.44 464.198 1561.35 453.288C1560.77 383.914 1518.2 321.934 1455.28 294.49C1435.85 286.002 1416.97 280.395 1398.64 277.667C1388.51 276.143 1381.96 270.764 1379 261.531C1364.33 215.841 1336.95 180.205 1296.87 154.624C1261.97 132.363 1221.97 122.198 1176.87 124.13C1173.32 124.282 1168.78 125.011 1163.25 126.315C1145.74 130.483 1135.94 125.019 1125.21 111.399C1118.13 102.403 1109.13 93.7797 1098.2 85.5294C1055.71 53.4937 1007.87 40.2203 954.674 45.7093C921.554 49.1314 890.035 61.2527 860.117 82.0734C849.165 89.6969 841.973 94.2456 830.436 89.0108C817.68 83.217 806.244 76.9148 794.656 73.5097C753.456 61.3629 713.813 62.032 675.73 75.5172C636.68 89.375 605.255 113.211 581.452 147.026C578.86 150.719 575.176 156.699 570.398 164.966C565.621 173.276 558.633 179.705 549.942 179.07C516.957 176.715 485.811 182.5 456.503 196.426C420.91 213.316 393.126 239.753 373.152 275.736C365.038 290.322 359.371 304.18 356.152 317.31C353.645 327.576 351.053 334.107 348.376 336.902C348.36 336.934 348.342 336.961 348.325 336.978C346.546 339.282 343.599 341.171 339.482 342.645C329.538 346.203 322.448 348.846 318.212 350.574C246.628 379.695 202.513 446.096 206.757 523.297C207.536 537.375 208.256 547.201 208.917 552.774C210.136 563.193 208.129 571.172 199.438 576.306C161.422 598.753 132.825 629.586 113.648 668.804C104.017 688.473 97.6133 711.216 96.114 731.673C94.962 747.343 95.4449 765.276 97.5625 785.469C98.7314 796.625 102.467 807.349 105.338 818.683C107.761 828.203 105.635 836.699 98.9601 844.17C73.5992 872.53 55.0487 901.067 47.3489 938.931C45.5701 947.605 44.6892 957.727 44.7061 969.298C44.74 985.765 45.0026 995.912 45.4939 999.741C51.4911 1045.33 68.7033 1086.6 97.1305 1123.55C110.192 1140.52 124.634 1154.64 140.457 1165.91C146.505 1170.23 154.171 1175.59 163.455 1181.99C164.381 1182.62 165.204 1183.37 165.895 1184.23C169.3 1188.38 171.612 1192.24 172.832 1195.82C180.574 1218.62 192.577 1238.78 208.84 1256.3C226.629 1275.46 249.626 1288.54 277.833 1295.53C284.915 1297.3 294.444 1298.3 306.421 1298.56C318.534 1298.83 328.131 1298.42 335.213 1297.34C348.037 1295.37 356.211 1293.92 359.735 1292.97C369.188 1290.43 378.286 1291.95 383.775 1299.32C393.38 1312.25 399.31 1320.08 401.563 1322.83C430.651 1358.27 467.506 1379.16 512.129 1385.52C522.683 1387.01 533.466 1387.11 544.478 1385.82C557.811 1384.26 568.526 1382.64 576.624 1380.94C588.161 1378.53 598.148 1374.28 612.378 1369.05C619.019 1366.59 625.05 1366.82 630.471 1369.74C633.538 1371.38 637.578 1375.86 642.593 1383.18C676.772 1433.06 726.807 1462.41 788.761 1461.34C806.786 1461.04 823.804 1458.42 839.813 1453.49C848.334 1450.87 858.652 1447.44 870.765 1443.23C871.521 1442.96 872.321 1442.83 873.128 1442.84C881.446 1443.07 887.968 1446.47 892.695 1453.06C920.851 1492.26 958.672 1517.33 1006.16 1528.25C1021.96 1531.91 1039.3 1532.73 1058.18 1530.72C1078.89 1528.53 1098.26 1523.7 1116.27 1516.21C1137.16 1507.54 1152.33 1519.21 1172.25 1524.39C1231.26 1539.77 1296.77 1520.68 1339.76 1477.48C1347.28 1469.91 1356.05 1463.25 1365.71 1465.03C1413.35 1473.8 1457.2 1464.63 1497.26 1437.51C1523.15 1419.97 1543.29 1397.54 1557.69 1370.19C1563.46 1359.21 1570.27 1351.49 1581.45 1348.9C1611.47 1341.99 1641.48 1329.69 1667.27 1311.24C1682.04 1300.68 1692.42 1292.31 1698.4 1286.13C1720.08 1263.67 1736.72 1236.45 1748.31 1204.48C1754.36 1187.8 1758.01 1168.69 1759.26 1147.18C1761.6 1106.34 1748.1 1071.1 1724.34 1039.43C1723.94 1038.88 1723.62 1038.27 1723.4 1037.63C1720.54 1029.36 1720.11 1022.92 1722.11 1018.29C1728.66 1003.03 1733.32 990.339 1736.08 980.225C1743.01 954.932 1745.03 929.037 1742.13 902.541C1736.9 854.691 1712.4 813.524 1676.82 780.717C1671.45 775.771 1668.66 769.757 1668.44 762.675C1668.4 761.967 1668.47 761.257 1668.64 760.566Z" fill="#553630"/>
<path d="M1668.45 762.668C1668.67 769.75 1671.46 775.764 1676.83 780.711C1712.41 813.517 1736.91 854.684 1742.14 902.534C1745.04 929.03 1743.02 954.925 1736.09 980.218C1733.33 990.332 1728.67 1003.02 1722.12 1018.28C1720.12 1022.91 1720.55 1029.36 1723.41 1037.62C1723.63 1038.26 1723.95 1038.87 1724.35 1039.43C1748.11 1071.09 1761.61 1106.34 1759.27 1147.17C1758.02 1168.69 1754.37 1187.79 1748.32 1204.48C1736.73 1236.44 1720.09 1263.66 1698.41 1286.12C1692.43 1292.31 1682.05 1300.68 1667.28 1311.23C1641.49 1329.68 1611.48 1341.98 1581.46 1348.89C1570.28 1351.48 1563.47 1359.21 1557.7 1370.19C1543.3 1397.53 1523.16 1419.97 1497.28 1437.5C1457.21 1464.62 1413.36 1473.8 1365.72 1465.02C1356.06 1463.24 1347.3 1469.9 1339.77 1477.47C1296.78 1520.67 1231.27 1539.76 1172.26 1524.38C1152.34 1519.2 1137.17 1507.54 1116.28 1516.2C1098.27 1523.69 1078.91 1528.53 1058.19 1530.71C1039.31 1532.73 1021.97 1531.91 1006.17 1528.25C958.683 1517.32 920.862 1492.26 892.706 1453.05C887.979 1446.46 881.457 1443.06 873.139 1442.84C872.332 1442.82 871.531 1442.95 870.775 1443.22C858.662 1447.44 848.345 1450.86 839.824 1453.49C823.814 1458.42 806.797 1461.03 788.772 1461.34C726.818 1462.41 676.782 1433.05 642.604 1383.17C637.589 1375.85 633.549 1371.37 630.482 1369.73C625.061 1366.81 619.03 1366.59 612.389 1369.04C598.159 1374.28 588.172 1378.52 576.635 1380.94C568.537 1382.63 557.822 1384.26 544.489 1385.81C533.477 1387.1 522.694 1387 512.14 1385.51C467.517 1379.16 430.662 1358.26 401.574 1322.82C399.32 1320.07 393.391 1312.24 383.785 1299.31C378.296 1291.94 369.199 1290.42 359.746 1292.96C356.222 1293.91 348.048 1295.37 335.224 1297.33C328.142 1298.41 318.545 1298.82 306.432 1298.55C294.455 1298.3 284.925 1297.29 277.844 1295.53C249.637 1288.53 226.639 1275.45 208.851 1256.29C192.588 1238.77 180.585 1218.61 172.843 1195.81C171.623 1192.24 169.311 1188.37 165.905 1184.22C165.215 1183.36 164.392 1182.61 163.466 1181.99C154.182 1175.58 146.516 1170.22 140.468 1165.9C124.645 1154.64 110.203 1140.52 97.1414 1123.54C68.7142 1086.59 51.502 1045.32 45.5048 999.734C45.0135 995.905 44.7509 985.758 44.717 969.291C44.7001 957.72 45.581 947.598 47.3598 938.924C55.0596 901.061 73.6101 872.523 98.971 844.164C105.646 836.693 107.772 828.197 105.349 818.676C102.478 807.342 98.7423 796.618 97.5734 785.463C95.4557 765.269 94.9729 747.337 96.1249 731.666C97.6242 711.21 104.028 688.466 113.659 668.798C132.836 629.579 161.433 598.746 199.449 576.299C208.14 571.166 210.147 563.186 208.927 552.768C208.267 547.194 207.547 537.368 206.767 523.29C202.524 446.089 246.638 379.688 318.223 350.567C322.459 348.839 329.548 346.196 339.493 342.638C343.61 341.164 346.557 339.275 348.336 336.971C348.353 336.954 348.371 336.928 348.387 336.895C351.064 334.1 353.656 327.569 356.163 317.303C359.382 304.173 365.049 290.315 373.163 275.729C393.137 239.746 420.92 213.31 456.514 196.419C485.822 182.494 516.968 176.708 549.953 179.063C558.643 179.698 565.632 173.269 570.409 164.96C575.186 156.692 578.871 150.712 581.463 147.019C605.265 113.204 636.691 89.3682 675.741 75.5103C713.824 62.0252 753.466 61.356 794.667 73.5028C806.255 76.908 817.69 83.2101 830.447 89.004C841.984 94.2388 849.175 89.6901 860.128 82.0665C890.046 61.2459 921.565 49.1245 954.685 45.7024C1007.88 40.2135 1055.72 53.4868 1098.21 85.5225C1109.14 93.7729 1118.14 102.396 1125.22 111.392C1135.95 125.012 1145.76 130.476 1163.26 126.308C1168.79 125.004 1173.33 124.275 1176.88 124.123C1221.98 122.192 1261.98 132.356 1296.88 154.617C1336.96 180.198 1364.34 215.834 1379.01 261.524C1381.97 270.757 1388.52 276.136 1398.65 277.66C1416.98 280.388 1435.86 285.995 1455.3 294.483C1518.21 321.928 1560.78 383.907 1561.36 453.281C1561.45 464.191 1561.55 472.797 1561.67 479.099C1561.97 496.201 1570.66 499.149 1586.42 508.018C1639.96 538.13 1676.48 587.277 1683.11 648.265C1685.45 669.695 1684.49 692.439 1680.24 716.495C1677.93 729.582 1671.85 747.015 1668.65 760.559C1668.48 761.25 1668.42 761.961 1668.45 762.668ZM119.682 1145.62C131.778 1157.02 144.856 1167.21 158.917 1176.17C173.326 1185.34 176.096 1197.79 182.321 1212.38C202.143 1258.83 244.783 1290.67 295.836 1295.25C312.98 1296.77 332.555 1295.42 354.562 1291.18C369.072 1288.39 377.534 1286.78 386.352 1298.68C399.21 1315.98 405.487 1325.84 418.396 1337.81C470.058 1385.69 534.528 1394.86 601.996 1369.91C619.657 1363.38 631.422 1361.39 641.892 1377.99C671.776 1425.23 718.94 1455.37 775.939 1458.16C799.673 1459.3 824.018 1456.43 846.965 1448.53C861.983 1443.37 872.122 1438.06 884.091 1442.81C887.615 1444.2 892.13 1448.48 897.635 1455.65C903.429 1463.18 907.724 1468.45 910.519 1471.45C963.858 1528.5 1043.45 1543.34 1115.26 1513.97C1133.15 1506.65 1144.18 1512.09 1162.12 1518.23C1193.73 1529.04 1225.76 1530.09 1258.2 1521.36C1285.34 1514.04 1312.71 1500.32 1332.66 1480.96C1342.62 1471.3 1352.51 1460.58 1365.01 1462.46C1376.78 1464.25 1385.72 1465.31 1391.82 1465.63C1453.26 1469.04 1516.54 1434.33 1548.28 1381.72C1555.67 1369.47 1563.09 1351.33 1577.07 1347.7C1603.7 1340.73 1629.34 1332.07 1652.39 1318.22C1678.33 1302.64 1700.29 1284.37 1718.23 1258.43C1740.42 1226.25 1753.11 1191.13 1756.3 1153.04C1758.92 1121.87 1752.99 1092.89 1738.48 1066.11C1735.4 1060.4 1731.19 1053.63 1725.85 1045.81C1719.2 1036.02 1715.89 1027.64 1719.63 1017.65C1724.05 1005.73 1729.67 993.585 1733.17 980.828C1749.49 921.619 1739.09 858.14 1700.65 810.087C1691.75 798.973 1683.18 789.596 1674.93 781.956C1666.86 774.485 1664.32 765.506 1667.31 755.019C1671.74 739.434 1674.93 726.982 1676.86 717.664C1680.81 698.656 1682.09 679.953 1680.7 661.555C1679.41 617.593 1664.16 579.984 1634.96 548.727C1619.88 532.599 1601.71 518.86 1580.45 507.509C1566.85 500.242 1559.23 495.413 1559.23 480.116C1559.21 467.545 1559.08 458.151 1558.82 451.934C1555.44 369.625 1502 306.096 1422.82 285.767C1422.73 285.75 1413.57 283.607 1395.32 279.338C1386.4 277.254 1380.57 272.519 1377.84 265.133C1371.59 248.174 1367.39 237.586 1365.24 233.368C1340.76 185.594 1303.02 153.219 1252.03 136.244C1225.33 127.367 1197.93 124.741 1169.85 128.367C1150.25 130.908 1140.14 132.356 1128.12 117.973C1094.42 77.5941 1047.03 51.5471 994.2 48.5231C973.346 47.3372 956.337 47.8455 943.173 50.0478C911.993 55.2572 885.565 66.972 860.077 85.2938C848.896 93.3239 840.053 96.9324 828.236 91.0369C812.023 82.9305 793.727 73.9348 776.066 71.3174C749.214 67.3193 726.14 66.9635 706.844 70.2501C659.443 78.348 620.182 101.735 589.061 140.412C581.463 149.865 576.152 161.402 569.189 170.855C563.395 178.733 556.305 182.409 547.92 181.884C470.643 177.005 404.166 216.927 370.419 286.682C364.794 298.32 359.788 312.373 355.401 328.84C353.063 337.615 347.328 343.29 338.197 345.865C326.575 349.135 314.428 354.107 301.756 360.782C250.984 387.464 220.829 429.538 211.291 487.002C208.902 501.385 208.911 521.579 211.316 547.584C212.638 561.814 212.358 571.547 200.338 578.51C165.118 598.89 137.851 627.512 118.538 664.376C94.8543 709.558 92.4148 765.946 107.077 814.864C111.016 828.053 108.475 836.591 98.8694 847.62C74.6774 875.446 56.381 903.602 50.1043 940.754C45.293 969.147 46.2163 997.345 52.8742 1025.35C63.4963 1069.95 86.6972 1112.99 119.682 1145.62Z" fill="#553630"/>
<path d="M1680.67 661.547C1675.88 639.761 1669.74 618.974 1662.25 599.187C1653.48 576.088 1632.29 553.42 1613.82 537.132C1601.67 526.459 1592.5 521.732 1575.7 511.237C1561.62 502.445 1554.46 489.324 1554.23 471.874C1554.07 460.71 1553.56 450.003 1552.68 439.754C1549.86 406.693 1536.62 375.513 1515.91 349.034C1506.5 337.006 1494.91 326.596 1481.12 317.803C1465.38 307.757 1451.43 300.633 1439.26 296.432C1421.12 290.147 1404.15 285.293 1388.36 281.871C1388.09 281.81 1387.8 281.815 1387.52 281.886C1387.25 281.957 1386.99 282.092 1386.78 282.281C1386.57 282.469 1386.4 282.705 1386.3 282.969C1386.19 283.234 1386.15 283.519 1386.18 283.802C1390.79 333.321 1376.23 375.869 1342.5 411.445C1342.19 411.774 1341.96 412.17 1341.83 412.603C1341.7 413.035 1341.68 413.492 1341.75 413.936C1341.83 414.381 1342.02 414.8 1342.29 415.162C1342.56 415.524 1342.91 415.817 1343.31 416.019C1396.22 442.575 1431.51 492.153 1434.66 551.413C1438.07 615.247 1401.93 670.086 1344.2 697.352C1343.93 697.478 1343.7 697.665 1343.52 697.897C1343.34 698.13 1343.21 698.402 1343.15 698.691C1343.1 698.981 1343.11 699.279 1343.19 699.563C1343.27 699.847 1343.41 700.108 1343.61 700.326C1381.7 741.188 1396.49 789.868 1387.98 846.367C1384.93 866.561 1377.75 885.204 1366.43 902.298C1341.04 940.703 1305.43 963.709 1259.6 971.316C1259.31 971.365 1259.04 971.482 1258.81 971.658C1258.57 971.834 1258.38 972.063 1258.26 972.327C1258.13 972.591 1258.07 972.882 1258.08 973.174C1258.09 973.467 1258.16 973.754 1258.31 974.01C1290.78 1031.95 1287.71 1101.4 1244.03 1152.1C1216.16 1184.44 1179.71 1203.66 1134.68 1209.78C1133.26 1209.97 1124.68 1210.64 1108.96 1211.79C1108.48 1211.83 1108.01 1212.01 1107.64 1212.32C1107.26 1212.63 1106.99 1213.05 1106.85 1213.52C1105.07 1219.84 1103.8 1227.57 1101.72 1233.18C1088.83 1268.17 1065.5 1292.31 1031.74 1305.61C990.569 1321.82 942.287 1313.56 911.361 1282.18C910.981 1281.79 910.472 1281.55 909.927 1281.5C909.383 1281.46 908.837 1281.61 908.388 1281.92C865.29 1313.05 809.816 1318.01 761.61 1296.66C731.302 1283.24 707.788 1260.86 691.067 1229.5C690.928 1229.24 690.734 1229.01 690.498 1228.83C690.262 1228.65 689.99 1228.52 689.7 1228.45C689.41 1228.39 689.11 1228.39 688.82 1228.45C688.529 1228.51 688.256 1228.64 688.018 1228.81C658.235 1250.72 629.088 1265.53 591.25 1264.49C551.252 1263.39 518.234 1248.55 492.195 1219.97C478.524 1204.96 468.909 1187.82 463.353 1168.54C463.249 1168.17 463.058 1167.84 462.796 1167.57C462.534 1167.3 462.21 1167.1 461.852 1166.98C461.494 1166.86 461.112 1166.83 460.74 1166.89C460.368 1166.96 460.018 1167.11 459.719 1167.34C386.33 1223.83 276.78 1200.5 245.981 1109.56C245.893 1109.3 245.749 1109.06 245.56 1108.87C245.371 1108.67 245.14 1108.52 244.886 1108.42C244.631 1108.32 244.358 1108.28 244.086 1108.3C243.814 1108.33 243.55 1108.41 243.313 1108.54C228.235 1117.26 211.65 1121.93 193.557 1122.54C147.833 1124.1 109.757 1108.5 79.3311 1075.73C79.2302 1075.62 79.0985 1075.54 78.9519 1075.5C78.8052 1075.46 78.6499 1075.46 78.5048 1075.5C78.3597 1075.55 78.2309 1075.64 78.134 1075.75C78.0371 1075.87 77.9763 1076.01 77.9588 1076.16C77.4845 1079.57 78.1452 1082.94 79.9409 1086.28C89.3094 1103.69 100.846 1120.17 114.552 1135.7C116.449 1137.84 118.152 1141.14 119.659 1145.62C86.675 1112.99 63.4741 1069.94 52.852 1025.34C46.1942 997.338 45.2709 969.139 50.0822 940.746C56.3589 903.594 74.6553 875.438 98.8472 847.612C108.453 836.583 110.994 828.045 107.055 814.856C92.3927 765.939 94.8322 709.55 118.516 664.368C137.829 627.504 165.096 598.882 200.316 578.502C212.336 571.539 212.615 561.806 211.294 547.576C208.888 521.571 208.88 501.377 211.269 486.994C220.807 429.53 250.962 387.457 301.734 360.774C314.406 354.099 326.553 349.127 338.175 345.858C347.306 343.283 353.041 337.607 355.378 328.832C359.766 312.365 364.772 298.312 370.397 286.674C404.143 216.919 470.62 176.997 547.897 181.876C556.283 182.401 563.373 178.725 569.167 170.847C576.13 161.394 581.441 149.857 589.039 140.404C620.16 101.727 659.421 78.34 706.822 70.2422C726.118 66.9556 749.192 67.3114 776.044 71.3095C793.705 73.9269 812.001 82.9226 828.214 91.0289C840.03 96.9245 848.874 93.316 860.055 85.2859C885.543 66.9641 911.971 55.2493 943.151 50.0399C956.314 47.8375 973.323 47.3293 994.178 48.5152C1047.01 51.5392 1094.4 77.5862 1128.1 117.965C1140.12 132.348 1150.23 130.9 1169.82 128.359C1197.91 124.733 1225.31 127.359 1252 136.236C1303 153.211 1340.73 185.586 1365.21 233.36C1367.37 237.578 1371.57 248.167 1377.82 265.125C1380.55 272.511 1386.37 277.246 1395.3 279.33C1413.55 283.599 1422.71 285.742 1422.8 285.759C1501.98 306.088 1555.42 369.618 1558.8 451.926C1559.05 458.143 1559.19 467.537 1559.21 480.108C1559.21 495.406 1566.83 500.234 1580.43 507.501C1601.69 518.852 1619.86 532.591 1634.93 548.719C1664.14 579.976 1679.39 617.585 1680.67 661.547ZM471.968 557.572C462.977 554.84 453.355 554.5 443.652 556.57C433.949 558.641 424.355 563.082 415.418 569.639C406.481 576.197 398.375 584.743 391.565 594.789C384.754 604.836 379.371 616.186 375.723 628.191C372.076 640.197 370.235 652.623 370.306 664.76C370.377 676.898 372.358 688.508 376.137 698.929C379.915 709.35 385.417 718.378 392.329 725.496C399.24 732.614 407.425 737.684 416.416 740.416C425.408 743.147 435.03 743.488 444.733 741.417C454.436 739.347 464.029 734.906 472.967 728.348C481.904 721.791 490.009 713.245 496.82 703.199C503.631 693.152 509.014 681.802 512.661 669.796C516.309 657.791 518.15 645.365 518.079 633.227C518.008 621.09 516.027 609.48 512.248 599.059C508.469 588.638 502.967 579.61 496.056 572.492C489.145 565.374 480.96 560.304 471.968 557.572ZM959.477 674.639C938.263 668.796 915.062 673.558 894.978 687.877C874.895 702.197 859.574 724.901 852.386 750.995C848.827 763.916 847.372 777.28 848.104 790.325C848.836 803.369 851.741 815.838 856.652 827.021C861.563 838.203 868.385 847.879 876.728 855.497C885.071 863.114 894.771 868.524 905.276 871.418C926.491 877.261 949.692 872.499 969.775 858.18C989.858 843.86 1005.18 821.156 1012.37 795.061C1015.93 782.141 1017.38 768.777 1016.65 755.732C1015.92 742.688 1013.01 730.219 1008.1 719.036C1003.19 707.854 996.368 698.178 988.026 690.56C979.683 682.943 969.982 677.533 959.477 674.639ZM586.93 723.831C570.743 715.369 554.937 730.413 552.853 745.914C547.084 788.428 571.861 827.333 607.767 848.349C624.438 858.124 642.954 862.579 663.317 861.715C688.323 860.648 710.829 851.788 730.836 835.135C745.778 822.683 761.153 803.955 757.265 783.574C755.155 772.495 746.16 764.211 734.369 765.735C721.891 767.362 716.402 775.265 709.567 787.843C704.891 796.416 696.929 802.87 685.68 807.207C657.964 817.914 633.747 812.671 613.028 791.477C608.081 786.395 604.252 780.559 601.542 773.969C595.265 758.671 604.108 732.802 586.93 723.831Z" fill="#FFF4E9"/>
<path d="M1680.69 661.572C1682.07 679.97 1680.8 698.673 1676.85 717.681C1674.92 726.999 1671.73 739.451 1667.29 755.037C1664.31 765.523 1666.85 774.502 1674.92 781.973C1683.17 789.613 1691.74 798.99 1700.63 810.104C1739.08 858.157 1749.47 921.636 1733.16 980.845C1729.65 993.602 1724.04 1005.75 1719.62 1017.67C1715.88 1027.65 1719.18 1036.04 1725.84 1045.82C1731.18 1053.65 1735.39 1060.42 1738.47 1066.13C1752.97 1092.91 1758.91 1121.89 1756.28 1153.06C1753.1 1191.14 1740.41 1226.27 1718.22 1258.44C1700.28 1284.39 1678.32 1302.66 1652.38 1318.24C1629.33 1332.09 1603.69 1340.75 1577.06 1347.71C1563.08 1351.35 1555.66 1369.49 1548.26 1381.74C1516.53 1434.34 1453.25 1469.05 1391.8 1465.65C1385.71 1465.33 1376.77 1464.27 1365 1462.47C1352.49 1460.59 1342.61 1471.32 1332.65 1480.97C1312.7 1500.34 1285.33 1514.06 1258.19 1521.38C1225.75 1530.1 1193.72 1529.06 1162.11 1518.25C1144.17 1512.1 1133.14 1506.66 1115.25 1513.98C1043.44 1543.36 963.846 1528.52 910.507 1471.47C907.712 1468.47 903.417 1463.2 897.623 1455.66C892.118 1448.5 887.603 1444.22 884.079 1442.83C872.11 1438.08 861.971 1443.39 846.953 1448.55C824.006 1456.45 799.661 1459.32 775.927 1458.18C718.928 1455.38 671.764 1425.24 641.88 1378C631.41 1361.41 619.645 1363.39 601.984 1369.92C534.516 1394.88 470.046 1385.7 418.384 1337.83C405.475 1325.86 399.198 1316 386.34 1298.69C377.522 1286.8 369.06 1288.4 354.55 1291.2C332.543 1295.43 312.968 1296.79 295.824 1295.26C244.771 1290.69 202.131 1258.85 182.309 1212.4C176.084 1197.81 173.314 1185.36 158.905 1176.18C144.844 1167.22 131.766 1157.04 119.67 1145.64C118.162 1141.17 116.459 1137.86 114.562 1135.73C100.856 1120.19 89.3195 1103.72 79.9511 1086.3C78.1553 1082.97 77.4946 1079.59 77.969 1076.19C77.9864 1076.04 78.0473 1075.9 78.1442 1075.78C78.2411 1075.66 78.3699 1075.57 78.515 1075.53C78.6601 1075.48 78.8154 1075.48 78.962 1075.52C79.1086 1075.56 79.2404 1075.64 79.3412 1075.76C109.768 1108.52 147.843 1124.12 193.567 1122.57C211.66 1121.96 228.245 1117.29 243.323 1108.56C243.56 1108.43 243.824 1108.35 244.096 1108.33C244.368 1108.31 244.641 1108.35 244.896 1108.45C245.151 1108.54 245.381 1108.69 245.57 1108.89C245.759 1109.09 245.903 1109.32 245.991 1109.58C276.79 1200.53 386.34 1223.86 459.729 1167.37C460.028 1167.14 460.378 1166.98 460.75 1166.92C461.122 1166.86 461.504 1166.88 461.862 1167C462.22 1167.12 462.545 1167.32 462.806 1167.6C463.068 1167.87 463.259 1168.2 463.363 1168.56C468.92 1187.84 478.534 1204.98 492.205 1219.99C518.244 1248.57 551.262 1263.41 591.26 1264.52C629.098 1265.56 658.245 1250.74 688.028 1228.84C688.266 1228.66 688.539 1228.54 688.83 1228.47C689.12 1228.41 689.421 1228.41 689.71 1228.48C690 1228.54 690.272 1228.67 690.508 1228.85C690.744 1229.03 690.938 1229.26 691.077 1229.52C707.798 1260.88 731.312 1283.27 761.62 1296.69C809.826 1318.03 865.3 1313.08 908.398 1281.95C908.847 1281.63 909.393 1281.48 909.938 1281.53C910.482 1281.57 910.991 1281.81 911.371 1282.2C942.297 1313.59 990.579 1321.84 1031.75 1305.63C1065.51 1292.33 1088.84 1268.19 1101.73 1233.21C1103.81 1227.59 1105.08 1219.87 1106.86 1213.54C1107 1213.07 1107.27 1212.65 1107.65 1212.35C1108.02 1212.04 1108.49 1211.85 1108.97 1211.81C1124.69 1210.66 1133.27 1209.99 1134.69 1209.8C1179.72 1203.69 1216.17 1184.46 1244.04 1152.12C1287.72 1101.42 1290.79 1031.97 1258.32 974.035C1258.17 973.779 1258.1 973.492 1258.09 973.199C1258.08 972.907 1258.14 972.616 1258.27 972.352C1258.39 972.088 1258.58 971.859 1258.82 971.683C1259.05 971.507 1259.32 971.39 1259.61 971.341C1305.44 963.734 1341.05 940.728 1366.44 902.323C1377.76 885.229 1384.94 866.585 1387.99 846.392C1396.5 789.893 1381.71 741.213 1343.62 700.351C1343.42 700.133 1343.28 699.872 1343.2 699.588C1343.12 699.304 1343.11 699.006 1343.16 698.716C1343.22 698.427 1343.35 698.155 1343.53 697.922C1343.71 697.69 1343.94 697.503 1344.21 697.377C1401.94 670.111 1438.08 615.272 1434.67 551.438C1431.52 492.178 1396.23 442.6 1343.32 416.044C1342.92 415.842 1342.57 415.549 1342.3 415.187C1342.03 414.825 1341.84 414.406 1341.76 413.961C1341.69 413.517 1341.71 413.061 1341.84 412.628C1341.97 412.195 1342.2 411.799 1342.51 411.47C1376.24 375.894 1390.8 333.346 1386.19 283.827C1386.16 283.544 1386.2 283.259 1386.31 282.994C1386.41 282.73 1386.58 282.494 1386.79 282.306C1387 282.117 1387.26 281.982 1387.53 281.911C1387.81 281.84 1388.1 281.835 1388.37 281.896C1404.16 285.318 1421.13 290.172 1439.27 296.457C1451.44 300.658 1465.39 307.782 1481.13 317.828C1494.92 326.621 1506.51 337.031 1515.92 349.059C1536.63 375.538 1549.87 406.718 1552.69 439.779C1553.57 450.028 1554.08 460.735 1554.24 471.899C1554.47 489.349 1561.63 502.47 1575.71 511.262C1592.51 521.757 1601.68 526.484 1613.83 537.157C1632.3 553.446 1653.49 576.113 1662.26 599.212C1669.75 618.999 1675.89 639.786 1680.69 661.572Z" fill="#FFE9D3"/>
<path d="M471.991 557.585C480.982 560.317 489.167 565.386 496.078 572.505C502.99 579.623 508.492 588.65 512.27 599.071C516.049 609.492 518.03 621.103 518.101 633.24C518.172 645.377 516.331 657.803 512.684 669.809C509.036 681.815 503.653 693.165 496.842 703.211C490.032 713.258 481.926 721.803 472.989 728.361C464.052 734.919 454.458 739.359 444.755 741.43C435.052 743.5 425.43 743.16 416.439 740.428C407.447 737.696 399.262 732.627 392.351 725.508C385.44 718.39 379.938 709.363 376.159 698.942C372.38 688.521 370.399 676.91 370.328 664.773C370.257 652.636 372.098 640.21 375.746 628.204C379.393 616.198 384.776 604.848 391.587 594.802C398.398 584.756 406.503 576.21 415.44 569.652C424.378 563.094 433.972 558.654 443.675 556.583C453.377 554.513 462.999 554.853 471.991 557.585ZM404.979 581.03C388.953 597.904 379.169 618.597 375.629 643.111C373.291 659.307 373.316 673.749 375.705 686.438C379.745 707.886 390.291 726.817 410.951 735.279C439.844 747.096 471.685 734.187 489.295 709.664C507.439 684.422 516.045 656.215 515.113 625.043C514.173 593.584 498.494 566.774 466.323 559.786C444.215 554.983 419.819 565.402 404.979 581.03Z" fill="#553630"/>
<path d="M404.972 581.045C419.812 565.416 444.207 554.998 466.316 559.8C498.487 566.789 514.166 593.598 515.106 625.058C516.038 656.229 507.432 684.436 489.288 709.679C471.678 734.201 439.837 747.11 410.944 735.294C390.284 726.832 379.738 707.9 375.698 686.452C373.309 673.763 373.283 659.321 375.621 643.125C379.162 618.612 388.945 597.918 404.972 581.045ZM465.578 596.229C462.649 595.289 459.544 594.992 456.442 595.356C453.339 595.72 450.3 596.737 447.497 598.35C444.694 599.964 442.182 602.141 440.106 604.757C438.029 607.374 436.428 610.379 435.393 613.601C433.304 620.108 433.651 627.103 436.357 633.047C439.063 638.991 443.908 643.398 449.824 645.297C452.753 646.238 455.858 646.534 458.96 646.17C462.063 645.807 465.102 644.789 467.905 643.176C470.708 641.563 473.22 639.386 475.297 636.769C477.373 634.152 478.975 631.147 480.009 627.925C482.098 621.419 481.751 614.424 479.045 608.48C476.339 602.535 471.495 598.129 465.578 596.229Z" fill="#553630"/>
<path d="M465.58 596.227C471.496 598.127 476.34 602.533 479.047 608.478C481.753 614.422 482.1 621.417 480.011 627.923C478.976 631.145 477.375 634.15 475.298 636.767C473.221 639.384 470.71 641.561 467.907 643.174C465.104 644.787 462.065 645.805 458.962 646.169C455.86 646.533 452.755 646.236 449.826 645.295C443.909 643.396 439.065 638.989 436.359 633.045C433.652 627.101 433.306 620.106 435.395 613.599C436.429 610.377 438.031 607.372 440.107 604.755C442.184 602.139 444.696 599.962 447.499 598.349C450.301 596.735 453.341 595.718 456.443 595.354C459.546 594.99 462.65 595.287 465.58 596.227ZM465.13 598.892C459.86 597.078 454.016 597.633 448.882 600.437C443.748 603.241 439.746 608.063 437.756 613.843C435.766 619.623 435.951 625.887 438.27 631.257C440.589 636.627 444.853 640.663 450.123 642.478C455.393 644.292 461.237 643.737 466.371 640.933C471.505 638.129 475.507 633.307 477.497 627.527C479.487 621.747 479.302 615.483 476.983 610.113C474.664 604.743 470.4 600.707 465.13 598.892Z" fill="#553630"/>
<path d="M477.501 627.526C481.645 615.49 476.108 602.67 465.134 598.891C454.16 595.113 441.904 601.806 437.76 613.842C433.615 625.878 439.152 638.698 450.126 642.477C461.101 646.255 473.356 639.562 477.501 627.526Z" fill="#FFF9F2"/>
<path d="M959.487 674.652C969.991 677.545 979.692 682.955 988.035 690.573C996.378 698.191 1003.2 707.867 1008.11 719.049C1013.02 730.231 1015.93 742.701 1016.66 755.745C1017.39 768.79 1015.94 782.154 1012.38 795.074C1005.19 821.169 989.868 843.873 969.785 858.193C949.701 872.512 926.5 877.274 905.285 871.431C894.781 868.537 885.08 863.127 876.737 855.51C868.394 847.892 861.573 838.216 856.661 827.033C851.75 815.851 848.846 803.382 848.114 790.337C847.382 777.293 848.837 763.929 852.396 751.008C859.584 724.914 874.904 702.21 894.988 687.89C915.071 673.57 938.272 668.809 959.487 674.652ZM958.438 676.983C937.873 671.396 915.403 676.15 895.971 690.199C876.539 704.248 861.736 726.442 854.82 751.898C847.904 777.354 849.44 803.987 859.091 825.938C868.743 847.889 885.718 863.359 906.283 868.947C926.848 874.534 949.318 869.781 968.751 855.731C988.183 841.682 1002.99 819.488 1009.9 794.032C1016.82 768.576 1015.28 741.944 1005.63 719.993C995.979 698.042 979.004 682.571 958.438 676.983Z" fill="#553630"/>
<path d="M958.445 676.984C979.01 682.572 995.985 698.043 1005.64 719.994C1015.29 741.945 1016.82 768.578 1009.91 794.034C1002.99 819.49 988.189 841.683 968.757 855.732C949.325 869.782 926.854 874.535 906.289 868.948C885.724 863.361 868.749 847.89 859.098 825.939C849.447 803.988 847.91 777.355 854.826 751.899C861.743 726.443 876.545 704.249 895.977 690.2C915.409 676.151 937.88 671.397 958.445 676.984ZM959.154 719.296C953.206 715.972 946.114 715.265 939.44 717.333C932.765 719.4 927.053 724.072 923.561 730.32C920.069 736.567 919.083 743.88 920.82 750.648C922.557 757.417 926.874 763.087 932.822 766.411C938.769 769.735 945.861 770.441 952.536 768.374C959.211 766.306 964.922 761.635 968.414 755.387C971.906 749.139 972.892 741.827 971.155 735.058C969.419 728.29 965.102 722.62 959.154 719.296Z" fill="#553630"/>
<path d="M959.144 719.295C965.092 722.619 969.409 728.289 971.146 735.057C972.883 741.826 971.896 749.138 968.405 755.386C964.913 761.634 959.201 766.306 952.526 768.373C945.851 770.44 938.76 769.734 932.812 766.41C926.864 763.086 922.547 757.416 920.811 750.647C919.074 743.879 920.06 736.567 923.552 730.319C927.044 724.071 932.755 719.399 939.43 717.332C946.105 715.265 953.196 715.971 959.144 719.295ZM956.316 720.835C950.744 718.225 944.311 718.046 938.432 720.339C932.553 722.632 927.71 727.209 924.968 733.062C922.227 738.914 921.811 745.565 923.812 751.549C925.814 757.533 930.068 762.362 935.64 764.972C941.213 767.582 947.646 767.76 953.525 765.467C959.403 763.174 964.246 758.598 966.988 752.745C969.73 746.892 970.146 740.242 968.144 734.258C966.143 728.273 961.888 723.445 956.316 720.835Z" fill="#553630"/>
<path d="M967.008 752.744C972.717 740.556 967.939 726.269 956.336 720.834C944.732 715.398 930.697 720.872 924.988 733.06C919.279 745.248 924.057 759.535 935.66 764.971C947.264 770.406 961.299 764.932 967.008 752.744Z" fill="#FFF9F2"/>
<path d="M586.941 723.845C604.119 732.816 595.276 758.685 601.552 773.983C604.263 780.573 608.092 786.409 613.038 791.491C633.757 812.685 657.975 817.928 685.69 807.221C696.939 802.884 704.902 796.429 709.577 787.857C716.413 775.278 721.902 767.375 734.379 765.749C746.17 764.224 755.166 772.509 757.275 783.588C761.163 803.968 745.789 822.697 730.847 835.149C710.84 851.802 688.333 860.662 663.328 861.729C642.965 862.593 624.448 858.138 607.778 848.363C571.871 827.347 547.095 788.442 552.863 745.928C554.947 730.427 570.753 715.383 586.941 723.845ZM574.565 724.15C563.35 727.776 557.023 734.713 555.583 744.962C549.407 789.179 576.014 829.634 614.436 849.023C632.97 858.375 653.206 861.373 675.145 858.019C701.336 854.021 723.698 841.535 742.231 820.562C753.184 808.161 760.223 789.204 750.541 774.669C747.932 770.721 743.587 768.688 737.505 768.57C727.239 768.367 719.412 774.415 714.812 783.664C712.932 787.442 710.789 790.958 708.383 794.21C701.217 803.867 682.133 813.04 670.469 814.387C642.956 817.572 621.34 808.068 605.618 785.875C600.79 779.048 597.698 772.246 596.343 765.47C596.174 764.624 596.08 763.765 596.063 762.903C595.733 745.216 597.258 725.573 577.614 723.82C576.592 723.719 575.555 723.832 574.565 724.15Z" fill="#553630"/>
<path d="M577.622 723.819C597.265 725.572 595.74 745.216 596.071 762.902C596.088 763.764 596.181 764.623 596.35 765.469C597.706 772.245 600.797 779.047 605.626 785.874C621.347 808.067 642.964 817.571 670.476 814.386C682.14 813.039 701.224 803.866 708.391 794.209C710.796 790.957 712.939 787.441 714.82 783.664C719.419 774.414 727.246 768.366 737.512 768.569C743.594 768.688 747.94 770.721 750.549 774.668C760.23 789.203 753.191 808.16 742.239 820.561C723.705 841.535 701.343 854.02 675.152 858.018C653.213 861.373 632.977 858.374 614.444 849.022C576.021 829.633 549.415 789.178 555.59 744.962C557.03 734.712 563.357 727.775 574.573 724.149C575.562 723.831 576.6 723.718 577.622 723.819Z" fill="#553630"/>
<path d="M1662 1609.61C1657.08 1611.91 1653.54 1609.68 1649.96 1601.98C1644.17 1589.57 1641.86 1583.27 1637.32 1573.52C1636.51 1571.78 1635.71 1571.4 1633.66 1572.1C1630.08 1573.52 1627.52 1572.59 1626.09 1569.51C1624.56 1566.23 1625.48 1563.92 1628.78 1561.89C1630.84 1560.68 1631 1560.22 1630.06 1557.67C1627.17 1550.39 1629.45 1541.34 1639.71 1536.56C1647 1533.16 1649.61 1533.94 1651.29 1537.54C1652.39 1539.9 1652.32 1542.43 1649.14 1543.91C1644.62 1546.01 1641.7 1548.87 1643.47 1552.67C1644.24 1554.31 1644.95 1554.23 1647 1553.27C1653.98 1550.02 1657.07 1550.21 1658.83 1554.01C1660.75 1558.11 1659.21 1560.45 1651.93 1563.84C1649.98 1564.75 1649.7 1565.51 1650.51 1567.25C1655.01 1576.9 1660.66 1588.76 1663.48 1594.81C1667.35 1603.13 1666.83 1607.37 1662 1609.61Z" fill="#553630"/>
<path d="M1627.82 1625.54C1622.9 1627.83 1619.36 1625.6 1615.78 1617.91C1609.99 1605.49 1607.68 1599.19 1603.14 1589.44C1602.33 1587.7 1601.53 1587.32 1599.48 1588.02C1595.9 1589.44 1593.34 1588.51 1591.91 1585.43C1590.38 1582.15 1591.3 1579.84 1594.6 1577.81C1596.66 1576.6 1596.82 1576.15 1595.88 1573.59C1592.99 1566.31 1595.27 1557.26 1605.53 1552.48C1612.82 1549.08 1615.43 1549.87 1617.11 1553.46C1618.21 1555.82 1618.14 1558.35 1614.96 1559.83C1610.44 1561.94 1607.52 1564.79 1609.29 1568.59C1610.06 1570.23 1610.77 1570.15 1612.82 1569.19C1619.8 1565.94 1622.89 1566.13 1624.65 1569.93C1626.57 1574.03 1625.03 1576.37 1617.75 1579.77C1615.8 1580.67 1615.52 1581.43 1616.33 1583.17C1620.83 1592.82 1626.48 1604.68 1629.3 1610.73C1633.17 1619.05 1632.65 1623.29 1627.82 1625.54Z" fill="#553630"/>
<path d="M1585.09 1645.94C1571.03 1652.49 1555.12 1647.28 1547.32 1630.55C1539.53 1613.82 1546.07 1599.16 1560.23 1592.57C1574.39 1585.97 1590.19 1590.1 1597.98 1606.83C1605.77 1623.56 1599.15 1639.39 1585.09 1645.94ZM1579.35 1633.62C1586.54 1630.27 1588.64 1621.92 1584.53 1613.1C1580.61 1604.68 1573.05 1601.58 1565.97 1604.88C1559.09 1608.09 1556.85 1615.88 1560.77 1624.29C1564.88 1633.12 1572.27 1636.92 1579.35 1633.62Z" fill="#553630"/>
<path d="M1537.54 1668.09C1517.11 1677.6 1503.06 1665.41 1497.8 1654.12C1492.69 1643.14 1491.53 1624.57 1510.31 1615.82C1524.27 1609.32 1534.91 1614.98 1540.79 1627.6C1543.61 1633.66 1542.14 1639.09 1536.29 1641.82C1528.9 1645.26 1521 1648.69 1516.38 1650.84C1514.95 1651.51 1514.82 1652.31 1515.3 1653.34C1517.02 1657.04 1522.79 1660.84 1532.13 1656.49C1537.37 1654.05 1538.38 1652.21 1543.62 1649.77C1547.93 1647.76 1550.07 1649.14 1551.45 1652.11C1553.56 1656.63 1549.44 1662.54 1537.54 1668.09ZM1520.15 1637.47C1527.74 1633.93 1528.33 1633.03 1527.13 1630.47C1525.27 1626.47 1520.61 1624.51 1515.37 1626.95C1509.11 1629.87 1507.08 1635.69 1508.99 1639.79C1509.9 1641.74 1511.01 1641.72 1520.15 1637.47Z" fill="#553630"/>
<path d="M1479.66 1695.05C1463.34 1702.65 1444.45 1697.21 1434.64 1676.17C1424.32 1654 1435.07 1633.38 1459.5 1622C1465.56 1619.18 1468.71 1620.33 1470.44 1624.03C1471.92 1627.21 1470.62 1630.31 1466.61 1632.43C1446.81 1643.03 1441.46 1655.14 1448.3 1669.81C1454.13 1682.33 1464.58 1687.08 1474.33 1682.54C1481.93 1679 1485.39 1673.02 1480.89 1663.37C1479.51 1660.4 1478.81 1659.97 1476.4 1660.97C1464.5 1666.26 1461.9 1664.97 1460.23 1661.38C1458.27 1657.17 1459.74 1653.62 1470.72 1648.5C1485.19 1641.76 1487.95 1644.47 1493.02 1655.35C1501.1 1672.7 1495.78 1687.54 1479.66 1695.05Z" fill="#553630"/>
<path d="M1300.91 1627.17C1301.57 1624.85 1303.98 1623.51 1306.3 1624.17L1344.09 1634.89C1346.41 1635.55 1347.76 1637.96 1347.1 1640.27C1346.44 1642.59 1344.03 1643.93 1341.71 1643.27L1314 1635.41C1320.03 1646.38 1324.92 1655.42 1329.47 1662.91C1335.22 1672.38 1340.11 1678.77 1345.51 1682.9C1355.86 1690.83 1369.39 1691.43 1399.64 1684.36C1401.99 1683.81 1404.33 1685.27 1404.88 1687.61C1405.43 1689.96 1403.98 1692.3 1401.63 1692.85C1371.53 1699.88 1354.11 1700.48 1340.2 1689.82C1333.46 1684.66 1327.89 1677.11 1322 1667.43C1317.39 1659.84 1312.38 1650.58 1306.41 1639.72L1298.57 1667.28C1297.91 1669.6 1295.49 1670.94 1293.17 1670.28C1290.85 1669.62 1289.51 1667.21 1290.17 1664.9L1300.91 1627.17Z" fill="#553630"/>
</svg>
