<svg width="378" height="69" viewBox="0 0 378 69" fill="none" xmlns="http://www.w3.org/2000/svg">
<g clip-path="url(#clip0_18_2)">
<path d="M335.186 41.7595V14.1474H340.737V20.1189L340.016 19.2002C340.6 17.3288 341.662 15.9167 343.205 14.964C344.747 14.0113 346.512 13.5349 348.5 13.5349C350.728 13.5349 352.697 14.1304 354.411 15.3213C356.159 16.4781 357.325 18.0263 357.906 19.9657L356.262 20.1189C357.084 17.9072 358.335 16.257 360.015 15.1682C361.729 14.0793 363.681 13.5349 365.875 13.5349C367.794 13.5349 369.524 13.9773 371.067 14.8619C372.643 15.7466 373.894 16.9715 374.82 18.5368C375.745 20.1019 376.208 21.8883 376.208 23.8959V41.7595H370.399V25.478C370.399 24.083 370.141 22.909 369.628 21.9563C369.148 20.9696 368.463 20.221 367.572 19.7106C366.715 19.1662 365.704 18.8941 364.539 18.8941C363.373 18.8941 362.346 19.1662 361.454 19.7106C360.562 20.221 359.861 20.9696 359.347 21.9563C358.832 22.943 358.576 24.117 358.576 25.478V41.7595H352.818V25.478C352.818 24.083 352.56 22.909 352.046 21.9563C351.567 20.9696 350.882 20.221 349.99 19.7106C349.134 19.1662 348.105 18.8941 346.905 18.8941C345.741 18.8941 344.712 19.1662 343.822 19.7106C342.93 20.221 342.229 20.9696 341.713 21.9563C341.234 22.943 340.995 24.117 340.995 25.478V41.7595H335.186Z" fill="#553630"/>
<path d="M314.823 42.3719C312.939 42.3719 311.276 42.0486 309.837 41.4022C308.431 40.7216 307.335 39.8029 306.546 38.6461C305.758 37.4551 305.363 36.0601 305.363 34.4608C305.363 32.9637 305.69 31.6197 306.341 30.4288C307.026 29.2378 308.072 28.2341 309.477 27.4174C310.882 26.6009 312.647 26.0224 314.771 25.6821L324.436 24.1V28.6424L315.903 30.1225C314.361 30.3947 313.23 30.8881 312.51 31.6027C311.789 32.2833 311.43 33.1678 311.43 34.2567C311.43 35.3115 311.825 36.1792 312.613 36.8596C313.435 37.5062 314.481 37.8293 315.749 37.8293C317.325 37.8293 318.695 37.4892 319.861 36.8086C321.06 36.1281 321.985 35.2264 322.636 34.1035C323.289 32.9467 323.614 31.6707 323.614 30.2757V23.1813C323.614 21.8202 323.099 20.7143 322.072 19.8638C321.078 18.979 319.741 18.5368 318.061 18.5368C316.519 18.5368 315.166 18.9451 314 19.7616C312.869 20.5443 312.03 21.565 311.481 22.824L306.65 20.4252C307.163 19.0642 308.003 17.8732 309.169 16.8525C310.333 15.7976 311.688 14.981 313.23 14.4026C314.807 13.8241 316.468 13.5349 318.215 13.5349C320.409 13.5349 322.346 13.9432 324.024 14.7598C325.738 15.5765 327.058 16.7163 327.984 18.1795C328.943 19.6085 329.423 21.2757 329.423 23.1813V41.7595H323.87V36.7577L325.053 36.9108C324.402 38.0336 323.562 39.0034 322.534 39.8199C321.539 40.6366 320.392 41.266 319.09 41.7083C317.822 42.1508 316.4 42.3719 314.823 42.3719Z" fill="#553630"/>
<path d="M289.304 42.3719C286.527 42.3719 284.059 41.7425 281.9 40.4835C279.776 39.1905 278.113 37.4551 276.914 35.2775C275.714 33.0658 275.114 30.599 275.114 27.8768C275.114 25.0867 275.714 22.6199 276.914 20.4762C278.148 18.3326 279.793 16.6483 281.849 15.4234C283.905 14.1644 286.236 13.5349 288.841 13.5349C290.931 13.5349 292.799 13.8922 294.443 14.6067C296.089 15.3213 297.477 16.308 298.608 17.5669C299.739 18.7919 300.596 20.204 301.178 21.8032C301.795 23.4024 302.103 25.1037 302.103 26.9071C302.103 27.3494 302.086 27.8089 302.052 28.2851C302.018 28.7616 301.949 29.2038 301.845 29.6121H279.689V25.0187H298.557L295.781 27.1113C296.123 25.444 296.003 23.9639 295.421 22.6709C294.872 21.3439 294.016 20.306 292.85 19.5575C291.719 18.7749 290.382 18.3836 288.841 18.3836C287.298 18.3836 285.927 18.7749 284.727 19.5575C283.529 20.306 282.603 21.3949 281.952 22.824C281.301 24.219 281.044 25.9203 281.181 27.9278C281.01 29.7993 281.266 31.4325 281.952 32.8277C282.671 34.2227 283.666 35.3115 284.934 36.0941C286.236 36.8766 287.709 37.2679 289.355 37.2679C291.034 37.2679 292.456 36.8936 293.621 36.1451C294.821 35.3965 295.764 34.4268 296.448 33.236L301.178 35.5327C300.63 36.8256 299.772 37.9995 298.608 39.0543C297.477 40.0752 296.106 40.8918 294.496 41.5042C292.919 42.0826 291.189 42.3719 289.304 42.3719Z" fill="#553630"/>
<path d="M258.648 41.7599V14.1478H264.201V19.711L263.686 18.8944C264.303 17.091 265.298 15.7981 266.668 15.0154C268.039 14.1988 269.685 13.7905 271.604 13.7905H273.301V19.0476H270.883C268.965 19.0476 267.405 19.643 266.205 20.8338C265.041 21.9907 264.457 23.658 264.457 25.8357V41.7599H258.648Z" fill="#553630"/>
<path d="M250.873 42.0659C247.959 42.0659 245.698 41.2494 244.086 39.6161C242.476 37.9828 241.671 35.6861 241.671 32.7258V19.3536H236.787V14.1477H237.558C238.86 14.1477 239.872 13.7734 240.591 13.0248C241.311 12.2762 241.671 11.2555 241.671 9.96248V7.81885H247.48V14.1477H253.802V19.3536H247.48V32.4707C247.48 33.4234 247.634 34.24 247.942 34.9205C248.251 35.5669 248.747 36.0774 249.432 36.4517C250.119 36.7919 251.009 36.9621 252.105 36.9621C252.38 36.9621 252.689 36.9451 253.031 36.9109C253.375 36.8769 253.7 36.8429 254.009 36.8089V41.7598C253.529 41.8278 252.997 41.8958 252.414 41.9639C251.833 42.0319 251.317 42.0659 250.873 42.0659Z" fill="#553630"/>
<path d="M220.571 42.3719C218.171 42.3719 215.943 41.9296 213.887 41.0449C211.831 40.1262 210.084 38.8842 208.644 37.3191C207.205 35.754 206.143 33.9505 205.456 31.909L210.597 29.7653C211.523 32.1131 212.877 33.9165 214.659 35.1755C216.44 36.4344 218.498 37.064 220.827 37.064C222.198 37.064 223.398 36.8598 224.426 36.4514C225.454 36.0091 226.243 35.3967 226.79 34.6141C227.373 33.8314 227.665 32.9297 227.665 31.909C227.665 30.5138 227.27 29.408 226.482 28.5914C225.693 27.7749 224.529 27.1283 222.986 26.652L215.789 24.4063C212.911 23.5216 210.718 22.1776 209.209 20.3742C207.702 18.5368 206.948 16.3932 206.948 13.9433C206.948 11.7997 207.478 9.92823 208.541 8.32901C209.604 6.69577 211.06 5.4198 212.911 4.50109C214.796 3.5824 216.938 3.12305 219.337 3.12305C221.634 3.12305 223.724 3.53136 225.609 4.34798C227.494 5.13058 229.104 6.21941 230.441 7.61448C231.811 9.00954 232.806 10.6258 233.423 12.4632L228.385 14.6578C227.631 12.6503 226.448 11.1021 224.837 10.0133C223.261 8.92447 221.427 8.38006 219.337 8.38006C218.069 8.38006 216.955 8.60123 215.996 9.04357C215.037 9.45188 214.282 10.0643 213.733 10.881C213.219 11.6636 212.962 12.5823 212.962 13.6371C212.962 14.862 213.357 15.9508 214.145 16.9035C214.933 17.8562 216.132 18.5708 217.744 19.0472L224.426 21.1398C227.477 22.0585 229.772 23.3855 231.314 25.1207C232.857 26.8222 233.628 28.9487 233.628 31.5007C233.628 33.6103 233.062 35.4817 231.931 37.115C230.835 38.7482 229.309 40.0412 227.356 40.9939C225.404 41.9126 223.141 42.3719 220.571 42.3719Z" fill="#553630"/>
<path d="M173.179 51.9671V14.1474H178.73V19.8638L178.062 18.5368C179.089 16.9715 180.461 15.7466 182.174 14.8619C183.888 13.9773 185.841 13.5349 188.034 13.5349C190.674 13.5349 193.038 14.1644 195.128 15.4233C197.254 16.6823 198.915 18.4006 200.115 20.5783C201.349 22.7559 201.966 25.2059 201.966 27.9278C201.966 30.65 201.349 33.0998 200.115 35.2775C198.915 37.4551 197.271 39.1905 195.181 40.4835C193.089 41.7425 190.707 42.3719 188.034 42.3719C185.875 42.3719 183.905 41.9295 182.124 41.0449C180.374 40.1602 179.022 38.8842 178.062 37.2169L178.988 36.1451V51.9671H173.179ZM187.47 37.0128C189.114 37.0128 190.57 36.6215 191.838 35.8389C193.106 35.0564 194.101 33.9845 194.82 32.6234C195.574 31.2284 195.952 29.6633 195.952 27.9278C195.952 26.1926 195.574 24.6444 194.82 23.2833C194.101 21.9223 193.106 20.8505 191.838 20.0679C190.57 19.2853 189.114 18.8941 187.47 18.8941C185.858 18.8941 184.402 19.2853 183.1 20.0679C181.832 20.8505 180.82 21.9223 180.066 23.2833C179.347 24.6444 178.988 26.1926 178.988 27.9278C178.988 29.6633 179.347 31.2284 180.066 32.6234C180.82 33.9845 181.832 35.0564 183.1 35.8389C184.402 36.6215 185.858 37.0128 187.47 37.0128Z" fill="#553630"/>
<path d="M155.58 41.7599V14.1478H161.132V19.711L160.618 18.8944C161.235 17.091 162.229 15.7981 163.6 15.0154C164.97 14.1988 166.615 13.7905 168.535 13.7905H170.232V19.0476H167.815C165.896 19.0476 164.336 19.643 163.137 20.8338C161.972 21.9907 161.389 23.658 161.389 25.8357V41.7599H155.58Z" fill="#553630"/>
<path d="M135.217 42.3719C133.332 42.3719 131.67 42.0486 130.23 41.4022C128.825 40.7216 127.728 39.8029 126.94 38.6461C126.152 37.4551 125.758 36.0601 125.758 34.4608C125.758 32.9637 126.083 31.6197 126.735 30.4288C127.42 29.2378 128.465 28.2341 129.87 27.4174C131.276 26.6009 133.041 26.0224 135.165 25.6821L144.83 24.1V28.6424L136.296 30.1225C134.754 30.3947 133.623 30.8881 132.903 31.6027C132.184 32.2833 131.824 33.1678 131.824 34.2567C131.824 35.3115 132.218 36.1792 133.006 36.8596C133.829 37.5062 134.874 37.8293 136.142 37.8293C137.719 37.8293 139.089 37.4892 140.255 36.8086C141.454 36.1281 142.379 35.2264 143.031 34.1035C143.682 32.9467 144.007 31.6707 144.007 30.2757V23.1813C144.007 21.8202 143.493 20.7143 142.465 19.8638C141.471 18.979 140.135 18.5368 138.455 18.5368C136.913 18.5368 135.56 18.9451 134.394 19.7616C133.263 20.5443 132.424 21.565 131.875 22.824L127.043 20.4252C127.557 19.0642 128.397 17.8732 129.562 16.8525C130.727 15.7976 132.081 14.981 133.623 14.4026C135.2 13.8241 136.862 13.5349 138.61 13.5349C140.803 13.5349 142.739 13.9432 144.419 14.7598C146.132 15.5765 147.452 16.7163 148.377 18.1795C149.337 19.6085 149.816 21.2757 149.816 23.1813V41.7595H144.264V36.7577L145.447 36.9108C144.796 38.0336 143.956 39.0034 142.928 39.8199C141.934 40.6366 140.786 41.266 139.484 41.7083C138.216 42.1508 136.793 42.3719 135.217 42.3719Z" fill="#553630"/>
<path d="M85.8782 41.7596L75.3398 3.7356H81.7657L90.2993 36.6556H88.7056L97.5476 3.7356H103.871L112.713 36.6556H111.068L119.653 3.7356H126.027L115.54 41.7596H108.703L99.8097 9.34987H101.609L92.6639 41.7596H85.8782Z" fill="#553630"/>
<path d="M3.86965 26.7861L2.58235 28.1207V28.1175L0 30.7979V31.2619L2.58235 33.9424L6.44429 37.951V24.1168L3.86965 26.7812V26.7861Z" fill="#553630"/>
<path d="M12.9019 28.7653L10.3196 26.0968V20.092L8.95518 21.5001V24.6847L7.72949 23.4203V39.2867L10.3196 41.9831V41.9752L11.6069 43.3115L14.1893 45.9917V16.0753L12.9096 17.4035L12.9019 28.7653Z" fill="#553630"/>
<path d="M20.6356 25.1766L18.0552 27.8549L18.0572 18.2573V12.0564L16.7655 13.3973V16.9163L16.7709 29.1879L15.4736 30.5344V46.3987L19.3492 42.376L21.9328 39.6942V8.03381L20.6356 9.38036V25.1766Z" fill="#553630"/>
<path d="M28.386 17.1372L25.8024 19.819V4.0227L24.5051 5.36918L24.505 21.1541L23.224 22.495L23.2188 38.3648L25.8024 35.6831L27.0996 34.3366V34.3479L29.6778 31.6718V31.6606V30.3141V0L28.3806 1.34654L28.386 17.1372Z" fill="#553630"/>
<path d="M36.767 6.00313L36.1237 5.33552V21.1544L33.5401 18.4726L33.5403 2.57456L32.9024 1.91258V1.99181L32.2592 1.32422L32.2537 17.1261L30.9619 15.7966V31.6494L33.5401 34.3255L34.8265 35.6607L37.4157 38.3482V6.59709L36.767 5.92385V6.00313Z" fill="#553630"/>
<path d="M44.5097 14.042L43.8666 13.3631V16.9614L43.861 28.1126V29.1877L42.5692 27.8467L41.2828 26.5116V10.6134L40.6289 9.93452L40.6287 10.0138L39.9965 9.34607V20.9783V25.165L38.6992 23.8299V39.6827L41.2828 42.3645L42.5692 43.6995L45.1474 46.3757V29.4478V15.6318V14.6247L44.5097 13.9627V14.042Z" fill="#553630"/>
<path d="M52.8877 22.5891L51.6081 21.2688V24.7734L49.0256 27.4499V18.6125L47.7384 17.2922V17.3163L47.7462 28.776L46.4434 30.1262V45.9925L49.0256 43.3121L50.313 41.9761V41.984L52.8955 39.2957V37.4874L52.8877 22.6611V22.5891Z" fill="#553630"/>
<path d="M58.0513 27.9009V27.9073L56.7719 26.5904V26.5887L54.1895 23.9324V37.9505L56.7719 35.278V35.2699L58.0513 33.9419L60.6338 31.2613V30.5653L58.0513 27.9009Z" fill="#553630"/>
<path fill-rule="evenodd" clip-rule="evenodd" d="M265.997 62.7218H267.441C266.879 65.5119 264.677 67.3908 261.737 67.3908C258.285 67.3908 255.503 64.6183 255.503 60.9532C255.503 57.2871 258.285 54.5332 261.737 54.5332C264.677 54.5332 266.877 56.3935 267.441 59.1836H265.997C265.504 57.1594 263.919 55.8832 261.737 55.8832C259.025 55.8832 256.912 58.053 256.912 60.9532C256.912 63.8526 259.025 66.0416 261.737 66.0416C263.919 66.0416 265.506 64.7277 265.997 62.7218ZM282.363 60.962C282.363 64.5421 279.7 67.3908 276.395 67.3908C273.089 67.3908 270.426 64.5421 270.426 60.962C270.426 57.3819 273.089 54.5332 276.395 54.5332C279.7 54.5332 282.363 57.3819 282.363 60.962ZM281.014 60.962C281.014 58.1495 278.991 55.8849 276.395 55.8849C273.798 55.8849 271.774 58.1495 271.774 60.962C271.774 63.7747 273.798 66.039 276.395 66.039C278.991 66.039 281.014 63.7747 281.014 60.962ZM296.539 54.5332V67.3908H295.435L288.16 57.2558V67.3908H286.84V54.5332H287.911L295.218 64.8007V54.5332H296.539ZM303.15 55.9139V60.6405H309.231V62.0204H303.15V67.3908H301.763V54.5332H309.969V55.9139H303.15ZM322.653 66.0103V67.3908H314.445V54.5332H315.874V66.0103H322.653ZM335.337 61.7607C335.337 65.1239 333.256 67.3908 330.115 67.3908C326.974 67.3908 324.892 65.1245 324.892 61.7607V54.5332H326.309V61.7607C326.309 64.2317 327.816 66.0158 330.115 66.0158C332.393 66.0158 333.92 64.2317 333.92 61.7607V54.5332H335.337V61.7607ZM341.923 55.9139V60.3191H348.077V61.6996H341.923V66.0109H348.767V67.3908H340.56V54.5332H348.767V55.9139H341.923ZM362.197 54.5332V67.3908H361.092L353.819 57.2558V67.3908H352.498V54.5332H353.568L360.875 64.8007V54.5332H362.197ZM376.373 55.9139H372.176V67.3908H370.856V55.9139H366.674V54.5332H376.373V55.9139Z" fill="#553630"/>
<path d="M241.844 69.0003C241.714 69.0003 241.58 68.9882 241.441 68.9638C241.31 68.9476 241.18 68.9153 241.049 68.8668V68.0171C241.13 68.0254 241.232 68.0375 241.354 68.0536C241.485 68.0779 241.615 68.09 241.746 68.09C242.146 68.09 242.451 68.005 242.663 67.8352C242.875 67.6733 243.083 67.3577 243.287 66.8885L243.702 65.9175L243.678 66.7186L240.903 59.825H241.893L244.166 65.517H243.91L246.172 59.825H247.185L244.192 67.1554C244.061 67.471 243.893 67.7704 243.69 68.0536C243.493 68.3367 243.246 68.5634 242.944 68.7332C242.642 68.9112 242.276 69.0003 241.844 69.0003Z" fill="#553630"/>
<path d="M237.231 66.4758C236.67 66.4758 236.16 66.3504 235.704 66.0995C235.255 65.8406 234.917 65.4764 234.688 65.0072L234.836 64.8738V66.33H233.919V57.1426H234.836V61.2812L234.688 61.0264C234.95 60.6138 235.297 60.2861 235.728 60.0433C236.168 59.8006 236.67 59.6793 237.231 59.6793C237.851 59.6793 238.401 59.8289 238.882 60.1283C239.37 60.4196 239.753 60.8201 240.031 61.3299C240.316 61.8395 240.459 62.4221 240.459 63.0774C240.459 63.7248 240.316 64.3073 240.031 64.8251C239.753 65.3349 239.37 65.7395 238.882 66.0389C238.401 66.33 237.851 66.4758 237.231 66.4758ZM237.184 65.5655C237.623 65.5655 238.014 65.4562 238.357 65.2378C238.708 65.0193 238.98 64.724 239.175 64.3519C239.379 63.9716 239.48 63.5468 239.48 63.0774C239.48 62.6001 239.379 62.1754 239.175 61.8031C238.98 61.431 238.708 61.1357 238.357 60.9172C238.014 60.6988 237.623 60.5894 237.184 60.5894C236.743 60.5894 236.343 60.6988 235.985 60.9172C235.634 61.1357 235.353 61.4351 235.141 61.8152C234.938 62.1875 234.836 62.6082 234.836 63.0774C234.836 63.5468 234.938 63.9716 235.141 64.3519C235.353 64.724 235.634 65.0193 235.985 65.2378C236.343 65.4562 236.743 65.5655 237.184 65.5655Z" fill="#553630"/>
</g>
<defs>
<clipPath id="clip0_18_2">
<rect width="378" height="69" fill="white"/>
</clipPath>
</defs>
</svg>
