<svg width="641" height="117" viewBox="0 0 641 117" fill="none" xmlns="http://www.w3.org/2000/svg">
<g clip-path="url(#clip0_18_2)">
<path d="M568.397 70.8095V23.989H577.811V34.1146L576.59 32.5568C577.578 29.3835 579.381 26.9892 581.996 25.3737C584.612 23.7582 587.604 22.9504 590.976 22.9504C594.753 22.9504 598.093 23.9601 600.999 25.9795C603.963 27.9411 605.94 30.5663 606.926 33.8549L604.138 34.1146C605.532 30.3643 607.654 27.5661 610.502 25.7199C613.408 23.8736 616.72 22.9504 620.439 22.9504C623.693 22.9504 626.628 23.7005 629.244 25.2006C631.917 26.7007 634.038 28.7777 635.608 31.4319C637.177 34.0858 637.962 37.1149 637.962 40.519V70.8095H628.111V43.2018C628.111 40.8364 627.674 38.8457 626.803 37.2302C625.99 35.5571 624.828 34.2878 623.317 33.4223C621.865 32.4991 620.149 32.0377 618.174 32.0377C616.197 32.0377 614.455 32.4991 612.943 33.4223C611.431 34.2878 610.241 35.5571 609.37 37.2302C608.496 38.9033 608.062 40.894 608.062 43.2018V70.8095H598.297V43.2018C598.297 40.8364 597.86 38.8457 596.989 37.2302C596.176 35.5571 595.015 34.2878 593.503 33.4223C592.051 32.4991 590.306 32.0377 588.271 32.0377C586.297 32.0377 584.552 32.4991 583.043 33.4223C581.531 34.2878 580.341 35.5571 579.467 37.2302C578.653 38.9033 578.248 40.894 578.248 43.2018V70.8095H568.397Z" fill="#FFF4E9"/>
<path d="M533.866 71.8479C530.67 71.8479 527.85 71.2997 525.41 70.2037C523.027 69.0496 521.167 67.4918 519.831 65.5302C518.494 63.5107 517.824 61.1453 517.824 58.4335C517.824 55.8948 518.379 53.6159 519.483 51.5967C520.644 49.5771 522.418 47.8752 524.8 46.4903C527.183 45.1057 530.176 44.1249 533.777 43.5479L550.167 40.8652V48.5675L535.697 51.0773C533.082 51.5387 531.165 52.3754 529.943 53.5871C528.721 54.7411 528.112 56.241 528.112 58.0873C528.112 59.876 528.782 61.3473 530.118 62.5011C531.512 63.5974 533.286 64.1453 535.436 64.1453C538.109 64.1453 540.432 63.5686 542.409 62.4146C544.442 61.2606 546.011 59.7316 547.115 57.8276C548.221 55.866 548.773 53.7024 548.773 51.337V39.3074C548.773 36.9993 547.9 35.1242 546.158 33.682C544.473 32.1818 542.205 31.4319 539.357 31.4319C536.741 31.4319 534.447 32.1242 532.469 33.5087C530.552 34.836 529.129 36.5667 528.198 38.7016L520.006 34.6339C520.877 32.3262 522.3 30.3067 524.277 28.5759C526.252 26.7872 528.549 25.4025 531.165 24.4217C533.838 23.4409 536.655 22.9504 539.618 22.9504C543.338 22.9504 546.623 23.6428 549.469 25.0275C552.375 26.4122 554.614 28.345 556.184 30.826C557.811 33.2491 558.624 36.0762 558.624 39.3074V70.8095H549.207V62.3281L551.214 62.5878C550.11 64.4918 548.684 66.1361 546.942 67.5206C545.255 68.9055 543.309 69.9728 541.101 70.7227C538.951 71.473 536.54 71.8479 533.866 71.8479Z" fill="#FFF4E9"/>
<path d="M490.592 71.8479C485.884 71.8479 481.699 70.7807 478.037 68.6458C474.435 66.4534 471.615 63.5107 469.583 59.8183C467.548 56.0681 466.53 51.8852 466.53 47.2694C466.53 42.5383 467.548 38.3554 469.583 34.7204C471.676 31.0857 474.464 28.2296 477.95 26.1526C481.437 24.0178 485.389 22.9504 489.808 22.9504C493.352 22.9504 496.519 23.5562 499.308 24.7679C502.099 25.9795 504.453 27.6527 506.37 29.7873C508.287 31.8645 509.742 34.259 510.728 36.9705C511.774 39.6824 512.297 42.5671 512.297 45.6251C512.297 46.375 512.268 47.1541 512.211 47.9617C512.153 48.7695 512.036 49.5195 511.86 50.2118H474.288V42.423H506.284L501.575 45.9712C502.156 43.1441 501.952 40.6343 500.966 38.4419C500.035 36.1918 498.583 34.4319 496.606 33.1626C494.688 31.8356 492.42 31.1722 489.808 31.1722C487.192 31.1722 484.866 31.8356 482.831 33.1626C480.799 34.4319 479.23 36.2782 478.126 38.7016C477.022 41.0669 476.585 43.9517 476.818 47.3558C476.528 50.5291 476.962 53.2986 478.126 55.6643C479.345 58.0297 481.032 59.876 483.182 61.2029C485.389 62.5299 487.887 63.1934 490.678 63.1934C493.527 63.1934 495.939 62.5587 497.913 61.2894C499.949 60.0201 501.547 58.3758 502.708 56.3566L510.728 60.251C509.799 62.4434 508.345 64.4338 506.37 66.2225C504.453 67.9535 502.127 69.3381 499.397 70.3766C496.723 71.3574 493.789 71.8479 490.592 71.8479Z" fill="#FFF4E9"/>
<path d="M438.607 70.8101V23.9896H448.024V33.4228L447.15 32.0383C448.197 28.9803 449.884 26.7879 452.206 25.4608C454.532 24.0761 457.323 23.3838 460.577 23.3838H463.454V32.2979H459.355C456.101 32.2979 453.457 33.3076 451.422 35.3268C449.447 37.2884 448.458 40.1155 448.458 43.8082V70.8101H438.607Z" fill="#FFF4E9"/>
<path d="M425.423 71.3292C420.482 71.3292 416.647 69.9446 413.913 67.1751C411.183 64.4056 409.817 60.5112 409.817 55.4916V32.817H401.536V23.9895H402.844C405.052 23.9895 406.768 23.3549 407.986 22.0856C409.208 20.8162 409.817 19.0853 409.817 16.8929V13.2581H419.668V23.9895H430.39V32.817H419.668V55.059C419.668 56.6745 419.93 58.0591 420.453 59.2131C420.976 60.3092 421.818 61.1747 422.979 61.8094C424.144 62.3864 425.653 62.6749 427.512 62.6749C427.978 62.6749 428.501 62.646 429.082 62.5881C429.665 62.5305 430.217 62.4728 430.74 62.4152V70.8101C429.927 70.9254 429.024 71.0407 428.036 71.1562C427.05 71.2715 426.176 71.3292 425.423 71.3292Z" fill="#FFF4E9"/>
<path d="M374.037 71.848C369.966 71.848 366.189 71.098 362.703 69.5978C359.216 68.04 356.252 65.934 353.812 63.2801C351.372 60.6262 349.569 57.5682 348.405 54.1065L357.123 50.4715C358.693 54.4526 360.99 57.5106 364.011 59.6454C367.032 61.78 370.521 62.8475 374.471 62.8475C376.796 62.8475 378.831 62.5014 380.573 61.8088C382.318 61.0588 383.655 60.0204 384.583 58.6934C385.572 57.3662 386.066 55.8372 386.066 54.1065C386.066 51.7408 385.396 49.8657 384.06 48.4811C382.723 47.0965 380.748 46.0001 378.133 45.1925L365.928 41.3846C361.047 39.8844 357.328 37.6055 354.769 34.5475C352.214 31.4319 350.935 27.797 350.935 23.6429C350.935 20.0081 351.834 16.8348 353.637 14.123C355.439 11.3536 357.908 9.19003 361.047 7.63222C364.243 6.07444 367.877 5.29553 371.944 5.29553C375.839 5.29553 379.383 5.98789 382.579 7.3726C385.776 8.6996 388.507 10.5459 390.775 12.9114C393.097 15.277 394.784 18.0175 395.831 21.1331L387.288 24.8545C386.009 21.4505 384.002 18.8253 381.272 16.979C378.598 15.1327 375.488 14.2096 371.944 14.2096C369.794 14.2096 367.905 14.5846 366.279 15.3347C364.652 16.027 363.372 17.0656 362.441 18.4503C361.57 19.7773 361.133 21.3351 361.133 23.1237C361.133 25.2007 361.803 27.047 363.14 28.6624C364.476 30.2779 366.508 31.4895 369.242 32.2974L380.573 35.8456C385.747 37.4034 389.639 39.6536 392.255 42.596C394.871 45.481 396.178 49.0869 396.178 53.4142C396.178 56.9912 395.218 60.1645 393.301 62.934C391.441 65.7035 388.854 67.8959 385.543 69.5114C382.232 71.0692 378.394 71.848 374.037 71.848Z" fill="#FFF4E9"/>
<path d="M293.67 88.1181V23.989H303.084V33.682L301.951 31.4319C303.693 28.7777 306.019 26.7007 308.925 25.2006C311.831 23.7005 315.142 22.9504 318.862 22.9504C323.337 22.9504 327.347 24.0178 330.891 26.1526C334.496 28.2873 337.313 31.201 339.348 34.8936C341.44 38.586 342.487 42.7403 342.487 47.3558C342.487 51.9716 341.44 56.1257 339.348 59.8183C337.313 63.5107 334.524 66.4534 330.98 68.6458C327.433 70.7807 323.395 71.8479 318.862 71.8479C315.199 71.8479 311.859 71.0977 308.838 69.5978C305.872 68.0977 303.578 65.934 301.951 63.1069L303.521 61.2894V88.1181H293.67ZM317.904 62.7607C320.693 62.7607 323.162 62.0973 325.312 60.7703C327.462 59.4434 329.149 57.6259 330.368 55.3178C331.647 52.9524 332.288 50.2985 332.288 47.3558C332.288 44.4134 331.647 41.7884 330.368 39.4803C329.149 37.1726 327.462 35.3551 325.312 34.0281C323.162 32.7012 320.693 32.0377 317.904 32.0377C315.171 32.0377 312.702 32.7012 310.494 34.0281C308.344 35.3551 306.628 37.1726 305.349 39.4803C304.13 41.7884 303.521 44.4134 303.521 47.3558C303.521 50.2985 304.13 52.9524 305.349 55.3178C306.628 57.6259 308.344 59.4434 310.494 60.7703C312.702 62.0973 315.171 62.7607 317.904 62.7607Z" fill="#FFF4E9"/>
<path d="M263.828 70.8101V23.9896H273.243V33.4228L272.371 32.0383C273.417 28.9803 275.103 26.7879 277.427 25.4608C279.752 24.0761 282.542 23.3838 285.796 23.3838H288.674V32.2979H284.576C281.321 32.2979 278.677 33.3076 276.643 35.3268C274.667 37.2884 273.679 40.1155 273.679 43.8082V70.8101H263.828Z" fill="#FFF4E9"/>
<path d="M229.296 71.8479C226.1 71.8479 223.281 71.2997 220.84 70.2037C218.457 69.0496 216.598 67.4918 215.261 65.5302C213.924 63.5107 213.256 61.1453 213.256 58.4335C213.256 55.8948 213.808 53.6159 214.912 51.5967C216.075 49.5771 217.847 47.8752 220.23 46.4903C222.613 45.1057 225.606 44.1249 229.209 43.5479L245.598 40.8652V48.5675L231.127 51.0773C228.511 51.5387 226.594 52.3754 225.373 53.5871C224.153 54.7411 223.543 56.241 223.543 58.0873C223.543 59.876 224.211 61.3473 225.548 62.5011C226.942 63.5974 228.715 64.1453 230.865 64.1453C233.538 64.1453 235.863 63.5686 237.839 62.4146C239.873 61.2606 241.442 59.7316 242.547 57.8276C243.651 55.866 244.203 53.7024 244.203 51.337V39.3074C244.203 36.9993 243.331 35.1242 241.588 33.682C239.902 32.1818 237.636 31.4319 234.788 31.4319C232.173 31.4319 229.877 32.1242 227.901 33.5087C225.983 34.836 224.56 36.5667 223.63 38.7016L215.435 34.6339C216.307 32.3262 217.731 30.3067 219.707 28.5759C221.683 26.7872 223.978 25.4025 226.594 24.4217C229.267 23.4409 232.086 22.9504 235.05 22.9504C238.769 22.9504 242.053 23.6428 244.9 25.0275C247.806 26.4122 250.044 28.345 251.613 30.826C253.24 33.2491 254.054 36.0762 254.054 39.3074V70.8095H244.639V62.3281L246.644 62.5878C245.54 64.4918 244.116 66.1361 242.372 67.5206C240.687 68.9055 238.74 69.9728 236.532 70.7227C234.381 71.473 231.969 71.8479 229.296 71.8479Z" fill="#FFF4E9"/>
<path d="M145.628 70.8098L127.758 6.33435H138.655L153.126 62.1552H150.423L165.417 6.33435H176.14L191.133 62.1552H188.344L202.902 6.33435H213.712L195.928 70.8098H184.334L169.253 15.8542H172.304L157.135 70.8098H145.628Z" fill="#FFF4E9"/>
<path d="M6.56203 45.42L4.37906 47.6829V47.6775L0 52.2225V53.0093L4.37906 57.5546L10.928 64.3517V40.8938L6.56203 45.4117V45.42Z" fill="#FFF4E9"/>
<path d="M21.8786 48.7759L17.4996 44.2511V34.069L15.1859 36.4567V41.8566L13.1074 39.7127V66.6167L17.4996 71.1888V71.1754L19.6826 73.4412L24.0617 77.986V27.2582L21.8917 29.5103L21.8786 48.7759Z" fill="#FFF4E9"/>
<path d="M34.9937 42.6907L30.618 47.232L30.6214 30.9579V20.4434L28.431 22.717V28.6841L28.4401 49.4924L26.2402 51.7756V78.6759L32.8123 71.8548L37.1935 67.3075V13.6224L34.9937 15.9057V42.6907Z" fill="#FFF4E9"/>
<path d="M48.1355 29.0588L43.7543 33.6061V6.8211L41.5545 9.10426L41.5542 35.8699L39.382 38.1437L39.373 65.0534L43.7543 60.5061L45.9541 58.2229V58.242L50.3261 53.7044V53.6853V51.4021V0L48.1263 2.28327L48.1355 29.0588Z" fill="#FFF4E9"/>
<path d="M62.349 10.1793L61.2581 9.04725V35.8705L56.8769 31.3232L56.8772 4.36562L55.7955 3.24314V3.37749L54.7047 2.24548L54.6955 29.04L52.5049 26.7856V53.6665L56.8769 58.2041L59.0583 60.4682L63.449 65.0252V11.1864L62.349 10.0449V10.1793Z" fill="#FFF4E9"/>
<path d="M75.4783 23.8103L74.3877 22.6592V28.7605L74.3782 47.6692V49.4921L72.1876 47.2183L70.0062 44.9545V17.9966L68.8973 16.8455L68.897 16.9798L67.8248 15.8477V35.5719V42.671L65.625 40.4072V67.2881L70.0062 71.8354L72.1876 74.0992L76.5597 78.6371V49.9333V26.506V24.7984L75.4783 23.6759V23.8103Z" fill="#FFF4E9"/>
<path d="M89.6859 38.3033L87.5159 36.0646V42.007L83.1367 46.5455V31.5604L80.9539 29.3217V29.3625L80.9671 48.7942L78.7578 51.0837V77.9874L83.1367 73.4424L85.3199 71.1768V71.1902L89.6991 66.6318V63.5656L89.6859 38.4254V38.3033Z" fill="#FFF4E9"/>
<path d="M98.4414 47.3103V47.3211L96.2718 45.0881V45.0853L91.8926 40.5811V64.3509L96.2718 59.8193V59.8056L98.4414 57.5538L102.821 53.0085V51.8282L98.4414 47.3103Z" fill="#FFF4E9"/>
<path fill-rule="evenodd" clip-rule="evenodd" d="M451.068 106.355H453.517C452.563 111.086 448.829 114.271 443.845 114.271C437.989 114.271 433.272 109.57 433.272 103.356C433.272 97.1392 437.989 92.4695 443.845 92.4695C448.829 92.4695 452.56 95.6239 453.517 100.355H451.068C450.232 96.9226 447.544 94.7587 443.845 94.7587C439.246 94.7587 435.661 98.4379 435.661 103.356C435.661 108.272 439.246 111.984 443.845 111.984C447.544 111.984 450.235 109.756 451.068 106.355ZM478.821 103.37C478.821 109.441 474.305 114.271 468.7 114.271C463.095 114.271 458.579 109.441 458.579 103.37C458.579 97.2999 463.095 92.4695 468.7 92.4695C474.305 92.4695 478.821 97.2999 478.821 103.37ZM476.533 103.37C476.533 98.6014 473.104 94.7615 468.7 94.7615C464.296 94.7615 460.864 98.6014 460.864 103.37C460.864 108.14 464.296 111.979 468.7 111.979C473.104 111.979 476.533 108.14 476.533 103.37ZM502.86 92.4695V114.271H500.989L488.651 97.0861V114.271H486.412V92.4695H488.229L500.621 109.88V92.4695H502.86ZM514.07 94.8106V102.825H524.384V105.165H514.07V114.271H511.719V92.4695H525.634V94.8106H514.07ZM547.143 111.931V114.271H533.225V92.4695H535.648V111.931H547.143ZM568.653 104.725C568.653 110.428 565.123 114.271 559.797 114.271C554.47 114.271 550.941 110.429 550.941 104.725V92.4695H553.344V104.725C553.344 108.915 555.899 111.94 559.797 111.94C563.66 111.94 566.25 108.915 566.25 104.725V92.4695H568.653V104.725ZM579.82 94.8106V102.28H590.257V104.621H579.82V111.932H591.427V114.271H577.509V92.4695H591.427V94.8106H579.82ZM614.201 92.4695V114.271H612.327L599.993 97.0861V114.271H597.754V92.4695H599.567L611.959 109.88V92.4695H614.201ZM638.24 94.8106H631.123V114.271H628.884V94.8106H621.793V92.4695H638.24V94.8106Z" fill="#FFF4E9"/>
<path d="M410.111 117C409.89 117 409.663 116.98 409.427 116.938C409.205 116.911 408.984 116.856 408.763 116.774V115.333C408.901 115.347 409.073 115.368 409.28 115.395C409.502 115.436 409.723 115.457 409.944 115.457C410.623 115.457 411.14 115.313 411.499 115.025C411.859 114.75 412.212 114.215 412.557 113.42L413.261 111.773L413.221 113.131L408.516 101.442H410.194L414.049 111.094H413.615L417.449 101.442H419.168L414.092 113.872C413.871 114.407 413.586 114.915 413.241 115.395C412.908 115.875 412.488 116.259 411.976 116.547C411.465 116.849 410.844 117 410.111 117Z" fill="#FFF4E9"/>
<path d="M402.289 112.72C401.338 112.72 400.473 112.507 399.7 112.082C398.938 111.643 398.366 111.025 397.978 110.23L398.228 110.003V112.473H396.673V96.894H398.228V103.912L397.978 103.48C398.42 102.78 399.01 102.224 399.74 101.813C400.487 101.401 401.338 101.195 402.289 101.195C403.342 101.195 404.273 101.449 405.089 101.957C405.917 102.451 406.567 103.13 407.038 103.994C407.521 104.858 407.762 105.846 407.762 106.957C407.762 108.055 407.521 109.043 407.038 109.921C406.567 110.785 405.917 111.471 405.089 111.979C404.273 112.473 403.342 112.72 402.289 112.72ZM402.209 111.176C402.953 111.176 403.617 110.991 404.198 110.621C404.793 110.25 405.256 109.749 405.586 109.119C405.931 108.474 406.104 107.753 406.104 106.957C406.104 106.148 405.931 105.428 405.586 104.797C405.256 104.166 404.793 103.665 404.198 103.295C403.617 102.924 402.953 102.739 402.209 102.739C401.462 102.739 400.783 102.924 400.177 103.295C399.582 103.665 399.105 104.173 398.745 104.817C398.4 105.448 398.228 106.162 398.228 106.957C398.228 107.753 398.4 108.474 398.745 109.119C399.105 109.749 399.582 110.25 400.177 110.621C400.783 110.991 401.462 111.176 402.209 111.176Z" fill="#FFF4E9"/>
</g>
<defs>
<clipPath id="clip0_18_2">
<rect width="641" height="117" fill="white"/>
</clipPath>
</defs>
</svg>
